%FSLAX45Y45*%
G04 Gerber Fmt 4.5, Leading zero omitted, Abs format (unit mm)*
G04 Created by KiCad (PCBNEW 4.0.5+dfsg1-4) date Wed May 24 13:42:25 2017*
%MOMM*%
%LPD*%
G01*
G04 APERTURE LIST*
%ADD10C,0.127000*%
%ADD11C,0.381000*%
%ADD12C,0.200000*%
%ADD13C,0.300000*%
G04 APERTURE END LIST*
D10*
D11*
X9144000Y-13970000D02*
X16319500Y-13970000D01*
X9144000Y-4000500D02*
X16319500Y-4000500D01*
X16319500Y-13970000D02*
X16319500Y-4000500D01*
X9144000Y-13970000D02*
X9144000Y-4000500D01*
D12*
X10437495Y-11389995D02*
X10517505Y-11470005D01*
X10517505Y-11389995D02*
X10437495Y-11470005D01*
X10437495Y-12215495D02*
X10517505Y-12295505D01*
X10517505Y-12215495D02*
X10437495Y-12295505D01*
X11008995Y-12215495D02*
X11089005Y-12295505D01*
X11089005Y-12215495D02*
X11008995Y-12295505D01*
X11072495Y-7770495D02*
X11152505Y-7850505D01*
X11152505Y-7770495D02*
X11072495Y-7850505D01*
X11072495Y-8341995D02*
X11152505Y-8422005D01*
X11152505Y-8341995D02*
X11072495Y-8422005D01*
X11262995Y-9738995D02*
X11343005Y-9819005D01*
X11343005Y-9738995D02*
X11262995Y-9819005D01*
X12088495Y-12215495D02*
X12168505Y-12295505D01*
X12168505Y-12215495D02*
X12088495Y-12295505D01*
X12151995Y-8024495D02*
X12232005Y-8104505D01*
X12232005Y-8024495D02*
X12151995Y-8104505D01*
X12151995Y-10246995D02*
X12232005Y-10327005D01*
X12232005Y-10246995D02*
X12151995Y-10327005D01*
X12215495Y-10691495D02*
X12295505Y-10771505D01*
X12295505Y-10691495D02*
X12215495Y-10771505D01*
X12278995Y-9738995D02*
X12359005Y-9819005D01*
X12359005Y-9738995D02*
X12278995Y-9819005D01*
X12659995Y-8024495D02*
X12740005Y-8104505D01*
X12740005Y-8024495D02*
X12659995Y-8104505D01*
X12786995Y-9484995D02*
X12867005Y-9565005D01*
X12867005Y-9484995D02*
X12786995Y-9565005D01*
X12850495Y-10246995D02*
X12930505Y-10327005D01*
X12930505Y-10246995D02*
X12850495Y-10327005D01*
X12977495Y-5357495D02*
X13057505Y-5437505D01*
X13057505Y-5357495D02*
X12977495Y-5437505D01*
X12977495Y-6754495D02*
X13057505Y-6834505D01*
X13057505Y-6754495D02*
X12977495Y-6834505D01*
X13104495Y-10691495D02*
X13184505Y-10771505D01*
X13184505Y-10691495D02*
X13104495Y-10771505D01*
X13167995Y-4468495D02*
X13248005Y-4548505D01*
X13248005Y-4468495D02*
X13167995Y-4548505D01*
X13294995Y-9484995D02*
X13375005Y-9565005D01*
X13375005Y-9484995D02*
X13294995Y-9565005D01*
X13421995Y-4658995D02*
X13502005Y-4739005D01*
X13502005Y-4658995D02*
X13421995Y-4739005D01*
X13675995Y-4849495D02*
X13756005Y-4929505D01*
X13756005Y-4849495D02*
X13675995Y-4929505D01*
X13929995Y-5039995D02*
X14010005Y-5120005D01*
X14010005Y-5039995D02*
X13929995Y-5120005D01*
X14183995Y-5230495D02*
X14264005Y-5310505D01*
X14264005Y-5230495D02*
X14183995Y-5310505D01*
X9692640Y-12700000D02*
G75*
G03X9692640Y-12700000I-40640J0D01*
G01*
X9946640Y-12700000D02*
G75*
G03X9946640Y-12700000I-40640J0D01*
G01*
X10200640Y-7493000D02*
G75*
G03X10200640Y-7493000I-40640J0D01*
G01*
X10200640Y-9017000D02*
G75*
G03X10200640Y-9017000I-40640J0D01*
G01*
X10200640Y-12700000D02*
G75*
G03X10200640Y-12700000I-40640J0D01*
G01*
X10454640Y-7493000D02*
G75*
G03X10454640Y-7493000I-40640J0D01*
G01*
X10454640Y-9017000D02*
G75*
G03X10454640Y-9017000I-40640J0D01*
G01*
X10708640Y-7493000D02*
G75*
G03X10708640Y-7493000I-40640J0D01*
G01*
X10708640Y-9017000D02*
G75*
G03X10708640Y-9017000I-40640J0D01*
G01*
X10962640Y-7493000D02*
G75*
G03X10962640Y-7493000I-40640J0D01*
G01*
X10962640Y-9017000D02*
G75*
G03X10962640Y-9017000I-40640J0D01*
G01*
X11216640Y-7493000D02*
G75*
G03X11216640Y-7493000I-40640J0D01*
G01*
X11216640Y-9017000D02*
G75*
G03X11216640Y-9017000I-40640J0D01*
G01*
X11470640Y-7493000D02*
G75*
G03X11470640Y-7493000I-40640J0D01*
G01*
X11470640Y-9017000D02*
G75*
G03X11470640Y-9017000I-40640J0D01*
G01*
X11724640Y-7493000D02*
G75*
G03X11724640Y-7493000I-40640J0D01*
G01*
X11724640Y-9017000D02*
G75*
G03X11724640Y-9017000I-40640J0D01*
G01*
X11978640Y-7493000D02*
G75*
G03X11978640Y-7493000I-40640J0D01*
G01*
X11978640Y-9017000D02*
G75*
G03X11978640Y-9017000I-40640J0D01*
G01*
X12232640Y-7493000D02*
G75*
G03X12232640Y-7493000I-40640J0D01*
G01*
X12232640Y-9017000D02*
G75*
G03X12232640Y-9017000I-40640J0D01*
G01*
X12486640Y-7493000D02*
G75*
G03X12486640Y-7493000I-40640J0D01*
G01*
X12486640Y-9017000D02*
G75*
G03X12486640Y-9017000I-40640J0D01*
G01*
X12740640Y-7493000D02*
G75*
G03X12740640Y-7493000I-40640J0D01*
G01*
X12740640Y-9017000D02*
G75*
G03X12740640Y-9017000I-40640J0D01*
G01*
X12994640Y-7493000D02*
G75*
G03X12994640Y-7493000I-40640J0D01*
G01*
X12994640Y-9017000D02*
G75*
G03X12994640Y-9017000I-40640J0D01*
G01*
X13248640Y-7493000D02*
G75*
G03X13248640Y-7493000I-40640J0D01*
G01*
X13248640Y-9017000D02*
G75*
G03X13248640Y-9017000I-40640J0D01*
G01*
X13248640Y-12611100D02*
G75*
G03X13248640Y-12611100I-40640J0D01*
G01*
X13248640Y-12810998D02*
G75*
G03X13248640Y-12810998I-40640J0D01*
G01*
X13502640Y-7493000D02*
G75*
G03X13502640Y-7493000I-40640J0D01*
G01*
X13502640Y-9017000D02*
G75*
G03X13502640Y-9017000I-40640J0D01*
G01*
X13502640Y-12611100D02*
G75*
G03X13502640Y-12611100I-40640J0D01*
G01*
X13502640Y-12810998D02*
G75*
G03X13502640Y-12810998I-40640J0D01*
G01*
X13756640Y-7493000D02*
G75*
G03X13756640Y-7493000I-40640J0D01*
G01*
X13756640Y-9017000D02*
G75*
G03X13756640Y-9017000I-40640J0D01*
G01*
X14010640Y-7493000D02*
G75*
G03X14010640Y-7493000I-40640J0D01*
G01*
X14010640Y-9017000D02*
G75*
G03X14010640Y-9017000I-40640J0D01*
G01*
X14264640Y-7493000D02*
G75*
G03X14264640Y-7493000I-40640J0D01*
G01*
X14264640Y-9017000D02*
G75*
G03X14264640Y-9017000I-40640J0D01*
G01*
X14518640Y-7493000D02*
G75*
G03X14518640Y-7493000I-40640J0D01*
G01*
X14518640Y-9017000D02*
G75*
G03X14518640Y-9017000I-40640J0D01*
G01*
X14772640Y-7493000D02*
G75*
G03X14772640Y-7493000I-40640J0D01*
G01*
X14772640Y-9017000D02*
G75*
G03X14772640Y-9017000I-40640J0D01*
G01*
X15026640Y-7493000D02*
G75*
G03X15026640Y-7493000I-40640J0D01*
G01*
X15026640Y-9017000D02*
G75*
G03X15026640Y-9017000I-40640J0D01*
G01*
X15280640Y-12636500D02*
G75*
G03X15280640Y-12636500I-40640J0D01*
G01*
X15407640Y-10795000D02*
G75*
G03X15407640Y-10795000I-40640J0D01*
G01*
X15534640Y-12636500D02*
G75*
G03X15534640Y-12636500I-40640J0D01*
G01*
X15661640Y-10541000D02*
G75*
G03X15661640Y-10541000I-40640J0D01*
G01*
X15661640Y-10795000D02*
G75*
G03X15661640Y-10795000I-40640J0D01*
G01*
X10160000Y-6045962D02*
X10160000Y-6146038D01*
X10109962Y-6096000D02*
X10210038Y-6096000D01*
X10160000Y-6299962D02*
X10160000Y-6400038D01*
X10109962Y-6350000D02*
X10210038Y-6350000D01*
X10414000Y-6045962D02*
X10414000Y-6146038D01*
X10363962Y-6096000D02*
X10464038Y-6096000D01*
X10414000Y-6299962D02*
X10414000Y-6400038D01*
X10363962Y-6350000D02*
X10464038Y-6350000D01*
X10668000Y-6045962D02*
X10668000Y-6146038D01*
X10617962Y-6096000D02*
X10718038Y-6096000D01*
X10668000Y-6299962D02*
X10668000Y-6400038D01*
X10617962Y-6350000D02*
X10718038Y-6350000D01*
X10922000Y-6045962D02*
X10922000Y-6146038D01*
X10871962Y-6096000D02*
X10972038Y-6096000D01*
X10922000Y-6299962D02*
X10922000Y-6400038D01*
X10871962Y-6350000D02*
X10972038Y-6350000D01*
X11176000Y-6045962D02*
X11176000Y-6146038D01*
X11125962Y-6096000D02*
X11226038Y-6096000D01*
X11176000Y-6299962D02*
X11176000Y-6400038D01*
X11125962Y-6350000D02*
X11226038Y-6350000D01*
X11176000Y-11379962D02*
X11176000Y-11480038D01*
X11125962Y-11430000D02*
X11226038Y-11430000D01*
X11176000Y-11633962D02*
X11176000Y-11734038D01*
X11125962Y-11684000D02*
X11226038Y-11684000D01*
X11430000Y-6045962D02*
X11430000Y-6146038D01*
X11379962Y-6096000D02*
X11480038Y-6096000D01*
X11430000Y-6299962D02*
X11430000Y-6400038D01*
X11379962Y-6350000D02*
X11480038Y-6350000D01*
X11430000Y-9982962D02*
X11430000Y-10083038D01*
X11379962Y-10033000D02*
X11480038Y-10033000D01*
X11430000Y-10236962D02*
X11430000Y-10337038D01*
X11379962Y-10287000D02*
X11480038Y-10287000D01*
X11430000Y-10490962D02*
X11430000Y-10591038D01*
X11379962Y-10541000D02*
X11480038Y-10541000D01*
X11430000Y-11379962D02*
X11430000Y-11480038D01*
X11379962Y-11430000D02*
X11480038Y-11430000D01*
X11430000Y-11633962D02*
X11430000Y-11734038D01*
X11379962Y-11684000D02*
X11480038Y-11684000D01*
X11684000Y-6045962D02*
X11684000Y-6146038D01*
X11633962Y-6096000D02*
X11734038Y-6096000D01*
X11684000Y-6299962D02*
X11684000Y-6400038D01*
X11633962Y-6350000D02*
X11734038Y-6350000D01*
X11684000Y-9982962D02*
X11684000Y-10083038D01*
X11633962Y-10033000D02*
X11734038Y-10033000D01*
X11684000Y-10236962D02*
X11684000Y-10337038D01*
X11633962Y-10287000D02*
X11734038Y-10287000D01*
X11684000Y-10490962D02*
X11684000Y-10591038D01*
X11633962Y-10541000D02*
X11734038Y-10541000D01*
X11684000Y-11379962D02*
X11684000Y-11480038D01*
X11633962Y-11430000D02*
X11734038Y-11430000D01*
X11684000Y-11633962D02*
X11684000Y-11734038D01*
X11633962Y-11684000D02*
X11734038Y-11684000D01*
X11938000Y-6045962D02*
X11938000Y-6146038D01*
X11887962Y-6096000D02*
X11988038Y-6096000D01*
X11938000Y-6299962D02*
X11938000Y-6400038D01*
X11887962Y-6350000D02*
X11988038Y-6350000D01*
X11938000Y-9982962D02*
X11938000Y-10083038D01*
X11887962Y-10033000D02*
X11988038Y-10033000D01*
X11938000Y-10236962D02*
X11938000Y-10337038D01*
X11887962Y-10287000D02*
X11988038Y-10287000D01*
X11938000Y-10490962D02*
X11938000Y-10591038D01*
X11887962Y-10541000D02*
X11988038Y-10541000D01*
X11938000Y-11379962D02*
X11938000Y-11480038D01*
X11887962Y-11430000D02*
X11988038Y-11430000D01*
X11938000Y-11633962D02*
X11938000Y-11734038D01*
X11887962Y-11684000D02*
X11988038Y-11684000D01*
X12192000Y-6045962D02*
X12192000Y-6146038D01*
X12141962Y-6096000D02*
X12242038Y-6096000D01*
X12192000Y-6299962D02*
X12192000Y-6400038D01*
X12141962Y-6350000D02*
X12242038Y-6350000D01*
X12192000Y-11379962D02*
X12192000Y-11480038D01*
X12141962Y-11430000D02*
X12242038Y-11430000D01*
X12192000Y-11633962D02*
X12192000Y-11734038D01*
X12141962Y-11684000D02*
X12242038Y-11684000D01*
X12446000Y-6045962D02*
X12446000Y-6146038D01*
X12395962Y-6096000D02*
X12496038Y-6096000D01*
X12446000Y-6299962D02*
X12446000Y-6400038D01*
X12395962Y-6350000D02*
X12496038Y-6350000D01*
X15402921Y-11338921D02*
X15402921Y-11267079D01*
X15331079Y-11267079D01*
X15331079Y-11338921D01*
X15402921Y-11338921D01*
X15402921Y-12354921D02*
X15402921Y-12283079D01*
X15331079Y-12283079D01*
X15331079Y-12354921D01*
X15402921Y-12354921D01*
X15783921Y-11338921D02*
X15783921Y-11267079D01*
X15712079Y-11267079D01*
X15712079Y-11338921D01*
X15783921Y-11338921D01*
X15783921Y-12354921D02*
X15783921Y-12283079D01*
X15712079Y-12283079D01*
X15712079Y-12354921D01*
X15783921Y-12354921D01*
X15621000Y-7550150D02*
X15678150Y-7493000D01*
X15621000Y-7435850D01*
X15563850Y-7493000D01*
X15621000Y-7550150D01*
X15621000Y-9074150D02*
X15678150Y-9017000D01*
X15621000Y-8959850D01*
X15563850Y-9017000D01*
X15621000Y-9074150D01*
X10374376Y-13015976D02*
X10504424Y-13146024D01*
X10504424Y-13015976D02*
X10374376Y-13146024D01*
X10504424Y-13081000D02*
G75*
G03X10504424Y-13081000I-65024J0D01*
G01*
X10399776Y-13523976D02*
X10529824Y-13654024D01*
X10529824Y-13523976D02*
X10399776Y-13654024D01*
X10529824Y-13589000D02*
G75*
G03X10529824Y-13589000I-65024J0D01*
G01*
X11060176Y-13015976D02*
X11190224Y-13146024D01*
X11190224Y-13015976D02*
X11060176Y-13146024D01*
X11190224Y-13081000D02*
G75*
G03X11190224Y-13081000I-65024J0D01*
G01*
X11085576Y-13523976D02*
X11215624Y-13654024D01*
X11215624Y-13523976D02*
X11085576Y-13654024D01*
X11215624Y-13589000D02*
G75*
G03X11215624Y-13589000I-65024J0D01*
G01*
X11517376Y-13015976D02*
X11647424Y-13146024D01*
X11647424Y-13015976D02*
X11517376Y-13146024D01*
X11647424Y-13081000D02*
G75*
G03X11647424Y-13081000I-65024J0D01*
G01*
X11542776Y-13523976D02*
X11672824Y-13654024D01*
X11672824Y-13523976D02*
X11542776Y-13654024D01*
X11672824Y-13589000D02*
G75*
G03X11672824Y-13589000I-65024J0D01*
G01*
X12203176Y-13015976D02*
X12333224Y-13146024D01*
X12333224Y-13015976D02*
X12203176Y-13146024D01*
X12333224Y-13081000D02*
G75*
G03X12333224Y-13081000I-65024J0D01*
G01*
X12228576Y-13523976D02*
X12358624Y-13654024D01*
X12358624Y-13523976D02*
X12228576Y-13654024D01*
X12358624Y-13589000D02*
G75*
G03X12358624Y-13589000I-65024J0D01*
G01*
X12619990Y-12965938D02*
X12850114Y-13196062D01*
X12850114Y-12965938D02*
X12619990Y-13196062D01*
X12735052Y-12965938D02*
X12735052Y-13196062D01*
X12619990Y-13081000D02*
X12850114Y-13081000D01*
X13819886Y-12965938D02*
X14050010Y-13196062D01*
X14050010Y-12965938D02*
X13819886Y-13196062D01*
X13934948Y-12965938D02*
X13934948Y-13196062D01*
X13819886Y-13081000D02*
X14050010Y-13081000D01*
X9476994Y-4333494D02*
X9827006Y-4683506D01*
X9827006Y-4333494D02*
X9476994Y-4683506D01*
X9775749Y-4632249D02*
X9775749Y-4384751D01*
X9528251Y-4384751D01*
X9528251Y-4632249D01*
X9775749Y-4632249D01*
X9476994Y-13286994D02*
X9827006Y-13637006D01*
X9827006Y-13286994D02*
X9476994Y-13637006D01*
X9775749Y-13585749D02*
X9775749Y-13338251D01*
X9528251Y-13338251D01*
X9528251Y-13585749D01*
X9775749Y-13585749D01*
X15636494Y-4333494D02*
X15986506Y-4683506D01*
X15986506Y-4333494D02*
X15636494Y-4683506D01*
X15935249Y-4632249D02*
X15935249Y-4384751D01*
X15687751Y-4384751D01*
X15687751Y-4632249D01*
X15935249Y-4632249D01*
X15636494Y-13286994D02*
X15986506Y-13637006D01*
X15986506Y-13286994D02*
X15636494Y-13637006D01*
X15935249Y-13585749D02*
X15935249Y-13338251D01*
X15687751Y-13338251D01*
X15687751Y-13585749D01*
X15935249Y-13585749D01*
D13*
X9396379Y-14454764D02*
X9396379Y-14154764D01*
X9467807Y-14154764D01*
X9510664Y-14169050D01*
X9539236Y-14197621D01*
X9553521Y-14226193D01*
X9567807Y-14283336D01*
X9567807Y-14326193D01*
X9553521Y-14383336D01*
X9539236Y-14411907D01*
X9510664Y-14440479D01*
X9467807Y-14454764D01*
X9396379Y-14454764D01*
X9696379Y-14454764D02*
X9696379Y-14254764D01*
X9696379Y-14311907D02*
X9710664Y-14283336D01*
X9724950Y-14269050D01*
X9753521Y-14254764D01*
X9782093Y-14254764D01*
X9882093Y-14454764D02*
X9882093Y-14254764D01*
X9882093Y-14154764D02*
X9867807Y-14169050D01*
X9882093Y-14183336D01*
X9896379Y-14169050D01*
X9882093Y-14154764D01*
X9882093Y-14183336D01*
X10067807Y-14454764D02*
X10039236Y-14440479D01*
X10024950Y-14411907D01*
X10024950Y-14154764D01*
X10224950Y-14454764D02*
X10196379Y-14440479D01*
X10182093Y-14411907D01*
X10182093Y-14154764D01*
X10567807Y-14454764D02*
X10567807Y-14154764D01*
X10667807Y-14369050D01*
X10767807Y-14154764D01*
X10767807Y-14454764D01*
X11039236Y-14454764D02*
X11039236Y-14297621D01*
X11024950Y-14269050D01*
X10996379Y-14254764D01*
X10939236Y-14254764D01*
X10910664Y-14269050D01*
X11039236Y-14440479D02*
X11010664Y-14454764D01*
X10939236Y-14454764D01*
X10910664Y-14440479D01*
X10896379Y-14411907D01*
X10896379Y-14383336D01*
X10910664Y-14354764D01*
X10939236Y-14340479D01*
X11010664Y-14340479D01*
X11039236Y-14326193D01*
X11182093Y-14254764D02*
X11182093Y-14554764D01*
X11182093Y-14269050D02*
X11210664Y-14254764D01*
X11267807Y-14254764D01*
X11296378Y-14269050D01*
X11310664Y-14283336D01*
X11324950Y-14311907D01*
X11324950Y-14397621D01*
X11310664Y-14426193D01*
X11296378Y-14440479D01*
X11267807Y-14454764D01*
X11210664Y-14454764D01*
X11182093Y-14440479D01*
X11453521Y-14426193D02*
X11467807Y-14440479D01*
X11453521Y-14454764D01*
X11439236Y-14440479D01*
X11453521Y-14426193D01*
X11453521Y-14454764D01*
X11453521Y-14269050D02*
X11467807Y-14283336D01*
X11453521Y-14297621D01*
X11439236Y-14283336D01*
X11453521Y-14269050D01*
X11453521Y-14297621D01*
X9044940Y-14909045D02*
X9124950Y-14989055D01*
X9124950Y-14909045D02*
X9044940Y-14989055D01*
X9453521Y-14784764D02*
X9482093Y-14784764D01*
X9510664Y-14799050D01*
X9524950Y-14813336D01*
X9539236Y-14841907D01*
X9553521Y-14899050D01*
X9553521Y-14970479D01*
X9539236Y-15027621D01*
X9524950Y-15056193D01*
X9510664Y-15070479D01*
X9482093Y-15084764D01*
X9453521Y-15084764D01*
X9424950Y-15070479D01*
X9410664Y-15056193D01*
X9396379Y-15027621D01*
X9382093Y-14970479D01*
X9382093Y-14899050D01*
X9396379Y-14841907D01*
X9410664Y-14813336D01*
X9424950Y-14799050D01*
X9453521Y-14784764D01*
X9682093Y-15056193D02*
X9696379Y-15070479D01*
X9682093Y-15084764D01*
X9667807Y-15070479D01*
X9682093Y-15056193D01*
X9682093Y-15084764D01*
X9867807Y-14913336D02*
X9839236Y-14899050D01*
X9824950Y-14884764D01*
X9810664Y-14856193D01*
X9810664Y-14841907D01*
X9824950Y-14813336D01*
X9839236Y-14799050D01*
X9867807Y-14784764D01*
X9924950Y-14784764D01*
X9953521Y-14799050D01*
X9967807Y-14813336D01*
X9982093Y-14841907D01*
X9982093Y-14856193D01*
X9967807Y-14884764D01*
X9953521Y-14899050D01*
X9924950Y-14913336D01*
X9867807Y-14913336D01*
X9839236Y-14927621D01*
X9824950Y-14941907D01*
X9810664Y-14970479D01*
X9810664Y-15027621D01*
X9824950Y-15056193D01*
X9839236Y-15070479D01*
X9867807Y-15084764D01*
X9924950Y-15084764D01*
X9953521Y-15070479D01*
X9967807Y-15056193D01*
X9982093Y-15027621D01*
X9982093Y-14970479D01*
X9967807Y-14941907D01*
X9953521Y-14927621D01*
X9924950Y-14913336D01*
X10167807Y-14784764D02*
X10196379Y-14784764D01*
X10224950Y-14799050D01*
X10239236Y-14813336D01*
X10253521Y-14841907D01*
X10267807Y-14899050D01*
X10267807Y-14970479D01*
X10253521Y-15027621D01*
X10239236Y-15056193D01*
X10224950Y-15070479D01*
X10196379Y-15084764D01*
X10167807Y-15084764D01*
X10139236Y-15070479D01*
X10124950Y-15056193D01*
X10110664Y-15027621D01*
X10096379Y-14970479D01*
X10096379Y-14899050D01*
X10110664Y-14841907D01*
X10124950Y-14813336D01*
X10139236Y-14799050D01*
X10167807Y-14784764D01*
X10396379Y-15084764D02*
X10396379Y-14884764D01*
X10396379Y-14913336D02*
X10410664Y-14899050D01*
X10439236Y-14884764D01*
X10482093Y-14884764D01*
X10510664Y-14899050D01*
X10524950Y-14927621D01*
X10524950Y-15084764D01*
X10524950Y-14927621D02*
X10539236Y-14899050D01*
X10567807Y-14884764D01*
X10610664Y-14884764D01*
X10639236Y-14899050D01*
X10653521Y-14927621D01*
X10653521Y-15084764D01*
X10796379Y-15084764D02*
X10796379Y-14884764D01*
X10796379Y-14913336D02*
X10810664Y-14899050D01*
X10839236Y-14884764D01*
X10882093Y-14884764D01*
X10910664Y-14899050D01*
X10924950Y-14927621D01*
X10924950Y-15084764D01*
X10924950Y-14927621D02*
X10939236Y-14899050D01*
X10967807Y-14884764D01*
X11010664Y-14884764D01*
X11039236Y-14899050D01*
X11053521Y-14927621D01*
X11053521Y-15084764D01*
X11639236Y-14770479D02*
X11382093Y-15156193D01*
X12024950Y-14784764D02*
X12053521Y-14784764D01*
X12082093Y-14799050D01*
X12096378Y-14813336D01*
X12110664Y-14841907D01*
X12124950Y-14899050D01*
X12124950Y-14970479D01*
X12110664Y-15027621D01*
X12096378Y-15056193D01*
X12082093Y-15070479D01*
X12053521Y-15084764D01*
X12024950Y-15084764D01*
X11996378Y-15070479D01*
X11982093Y-15056193D01*
X11967807Y-15027621D01*
X11953521Y-14970479D01*
X11953521Y-14899050D01*
X11967807Y-14841907D01*
X11982093Y-14813336D01*
X11996378Y-14799050D01*
X12024950Y-14784764D01*
X12253521Y-15056193D02*
X12267807Y-15070479D01*
X12253521Y-15084764D01*
X12239236Y-15070479D01*
X12253521Y-15056193D01*
X12253521Y-15084764D01*
X12453521Y-14784764D02*
X12482093Y-14784764D01*
X12510664Y-14799050D01*
X12524950Y-14813336D01*
X12539235Y-14841907D01*
X12553521Y-14899050D01*
X12553521Y-14970479D01*
X12539235Y-15027621D01*
X12524950Y-15056193D01*
X12510664Y-15070479D01*
X12482093Y-15084764D01*
X12453521Y-15084764D01*
X12424950Y-15070479D01*
X12410664Y-15056193D01*
X12396378Y-15027621D01*
X12382093Y-14970479D01*
X12382093Y-14899050D01*
X12396378Y-14841907D01*
X12410664Y-14813336D01*
X12424950Y-14799050D01*
X12453521Y-14784764D01*
X12653521Y-14784764D02*
X12839235Y-14784764D01*
X12739235Y-14899050D01*
X12782093Y-14899050D01*
X12810664Y-14913336D01*
X12824950Y-14927621D01*
X12839235Y-14956193D01*
X12839235Y-15027621D01*
X12824950Y-15056193D01*
X12810664Y-15070479D01*
X12782093Y-15084764D01*
X12696378Y-15084764D01*
X12667807Y-15070479D01*
X12653521Y-15056193D01*
X12953521Y-14813336D02*
X12967807Y-14799050D01*
X12996378Y-14784764D01*
X13067807Y-14784764D01*
X13096378Y-14799050D01*
X13110664Y-14813336D01*
X13124950Y-14841907D01*
X13124950Y-14870479D01*
X13110664Y-14913336D01*
X12939235Y-15084764D01*
X13124950Y-15084764D01*
X13239236Y-14784764D02*
X13239236Y-14841907D01*
X13353521Y-14784764D02*
X13353521Y-14841907D01*
X13796378Y-15199050D02*
X13782093Y-15184764D01*
X13753521Y-15141907D01*
X13739235Y-15113336D01*
X13724950Y-15070479D01*
X13710664Y-14999050D01*
X13710664Y-14941907D01*
X13724950Y-14870479D01*
X13739235Y-14827621D01*
X13753521Y-14799050D01*
X13782093Y-14756193D01*
X13796378Y-14741907D01*
X13896378Y-14813336D02*
X13910664Y-14799050D01*
X13939235Y-14784764D01*
X14010664Y-14784764D01*
X14039235Y-14799050D01*
X14053521Y-14813336D01*
X14067807Y-14841907D01*
X14067807Y-14870479D01*
X14053521Y-14913336D01*
X13882093Y-15084764D01*
X14067807Y-15084764D01*
X14167807Y-14784764D02*
X14353521Y-14784764D01*
X14253521Y-14899050D01*
X14296378Y-14899050D01*
X14324950Y-14913336D01*
X14339235Y-14927621D01*
X14353521Y-14956193D01*
X14353521Y-15027621D01*
X14339235Y-15056193D01*
X14324950Y-15070479D01*
X14296378Y-15084764D01*
X14210664Y-15084764D01*
X14182093Y-15070479D01*
X14167807Y-15056193D01*
X14710664Y-15084764D02*
X14710664Y-14784764D01*
X14839235Y-15084764D02*
X14839235Y-14927621D01*
X14824950Y-14899050D01*
X14796378Y-14884764D01*
X14753521Y-14884764D01*
X14724950Y-14899050D01*
X14710664Y-14913336D01*
X15024950Y-15084764D02*
X14996378Y-15070479D01*
X14982093Y-15056193D01*
X14967807Y-15027621D01*
X14967807Y-14941907D01*
X14982093Y-14913336D01*
X14996378Y-14899050D01*
X15024950Y-14884764D01*
X15067807Y-14884764D01*
X15096378Y-14899050D01*
X15110664Y-14913336D01*
X15124950Y-14941907D01*
X15124950Y-15027621D01*
X15110664Y-15056193D01*
X15096378Y-15070479D01*
X15067807Y-15084764D01*
X15024950Y-15084764D01*
X15296378Y-15084764D02*
X15267807Y-15070479D01*
X15253521Y-15041907D01*
X15253521Y-14784764D01*
X15524950Y-15070479D02*
X15496378Y-15084764D01*
X15439236Y-15084764D01*
X15410664Y-15070479D01*
X15396378Y-15041907D01*
X15396378Y-14927621D01*
X15410664Y-14899050D01*
X15439236Y-14884764D01*
X15496378Y-14884764D01*
X15524950Y-14899050D01*
X15539236Y-14927621D01*
X15539236Y-14956193D01*
X15396378Y-14984764D01*
X15653521Y-15070479D02*
X15682093Y-15084764D01*
X15739236Y-15084764D01*
X15767807Y-15070479D01*
X15782093Y-15041907D01*
X15782093Y-15027621D01*
X15767807Y-14999050D01*
X15739236Y-14984764D01*
X15696378Y-14984764D01*
X15667807Y-14970479D01*
X15653521Y-14941907D01*
X15653521Y-14927621D01*
X15667807Y-14899050D01*
X15696378Y-14884764D01*
X15739236Y-14884764D01*
X15767807Y-14899050D01*
X15882093Y-15199050D02*
X15896378Y-15184764D01*
X15924950Y-15141907D01*
X15939236Y-15113336D01*
X15953521Y-15070479D01*
X15967807Y-14999050D01*
X15967807Y-14941907D01*
X15953521Y-14870479D01*
X15939236Y-14827621D01*
X15924950Y-14799050D01*
X15896378Y-14756193D01*
X15882093Y-14741907D01*
X9124950Y-15345050D02*
G75*
G03X9124950Y-15345050I-40640J0D01*
G01*
X9453521Y-15180764D02*
X9482093Y-15180764D01*
X9510664Y-15195050D01*
X9524950Y-15209336D01*
X9539236Y-15237907D01*
X9553521Y-15295050D01*
X9553521Y-15366479D01*
X9539236Y-15423621D01*
X9524950Y-15452193D01*
X9510664Y-15466479D01*
X9482093Y-15480764D01*
X9453521Y-15480764D01*
X9424950Y-15466479D01*
X9410664Y-15452193D01*
X9396379Y-15423621D01*
X9382093Y-15366479D01*
X9382093Y-15295050D01*
X9396379Y-15237907D01*
X9410664Y-15209336D01*
X9424950Y-15195050D01*
X9453521Y-15180764D01*
X9682093Y-15452193D02*
X9696379Y-15466479D01*
X9682093Y-15480764D01*
X9667807Y-15466479D01*
X9682093Y-15452193D01*
X9682093Y-15480764D01*
X9867807Y-15309336D02*
X9839236Y-15295050D01*
X9824950Y-15280764D01*
X9810664Y-15252193D01*
X9810664Y-15237907D01*
X9824950Y-15209336D01*
X9839236Y-15195050D01*
X9867807Y-15180764D01*
X9924950Y-15180764D01*
X9953521Y-15195050D01*
X9967807Y-15209336D01*
X9982093Y-15237907D01*
X9982093Y-15252193D01*
X9967807Y-15280764D01*
X9953521Y-15295050D01*
X9924950Y-15309336D01*
X9867807Y-15309336D01*
X9839236Y-15323621D01*
X9824950Y-15337907D01*
X9810664Y-15366479D01*
X9810664Y-15423621D01*
X9824950Y-15452193D01*
X9839236Y-15466479D01*
X9867807Y-15480764D01*
X9924950Y-15480764D01*
X9953521Y-15466479D01*
X9967807Y-15452193D01*
X9982093Y-15423621D01*
X9982093Y-15366479D01*
X9967807Y-15337907D01*
X9953521Y-15323621D01*
X9924950Y-15309336D01*
X10267807Y-15480764D02*
X10096379Y-15480764D01*
X10182093Y-15480764D02*
X10182093Y-15180764D01*
X10153521Y-15223621D01*
X10124950Y-15252193D01*
X10096379Y-15266479D01*
X10396379Y-15480764D02*
X10396379Y-15280764D01*
X10396379Y-15309336D02*
X10410664Y-15295050D01*
X10439236Y-15280764D01*
X10482093Y-15280764D01*
X10510664Y-15295050D01*
X10524950Y-15323621D01*
X10524950Y-15480764D01*
X10524950Y-15323621D02*
X10539236Y-15295050D01*
X10567807Y-15280764D01*
X10610664Y-15280764D01*
X10639236Y-15295050D01*
X10653521Y-15323621D01*
X10653521Y-15480764D01*
X10796379Y-15480764D02*
X10796379Y-15280764D01*
X10796379Y-15309336D02*
X10810664Y-15295050D01*
X10839236Y-15280764D01*
X10882093Y-15280764D01*
X10910664Y-15295050D01*
X10924950Y-15323621D01*
X10924950Y-15480764D01*
X10924950Y-15323621D02*
X10939236Y-15295050D01*
X10967807Y-15280764D01*
X11010664Y-15280764D01*
X11039236Y-15295050D01*
X11053521Y-15323621D01*
X11053521Y-15480764D01*
X11639236Y-15166479D02*
X11382093Y-15552193D01*
X12024950Y-15180764D02*
X12053521Y-15180764D01*
X12082093Y-15195050D01*
X12096378Y-15209336D01*
X12110664Y-15237907D01*
X12124950Y-15295050D01*
X12124950Y-15366479D01*
X12110664Y-15423621D01*
X12096378Y-15452193D01*
X12082093Y-15466479D01*
X12053521Y-15480764D01*
X12024950Y-15480764D01*
X11996378Y-15466479D01*
X11982093Y-15452193D01*
X11967807Y-15423621D01*
X11953521Y-15366479D01*
X11953521Y-15295050D01*
X11967807Y-15237907D01*
X11982093Y-15209336D01*
X11996378Y-15195050D01*
X12024950Y-15180764D01*
X12253521Y-15452193D02*
X12267807Y-15466479D01*
X12253521Y-15480764D01*
X12239236Y-15466479D01*
X12253521Y-15452193D01*
X12253521Y-15480764D01*
X12453521Y-15180764D02*
X12482093Y-15180764D01*
X12510664Y-15195050D01*
X12524950Y-15209336D01*
X12539235Y-15237907D01*
X12553521Y-15295050D01*
X12553521Y-15366479D01*
X12539235Y-15423621D01*
X12524950Y-15452193D01*
X12510664Y-15466479D01*
X12482093Y-15480764D01*
X12453521Y-15480764D01*
X12424950Y-15466479D01*
X12410664Y-15452193D01*
X12396378Y-15423621D01*
X12382093Y-15366479D01*
X12382093Y-15295050D01*
X12396378Y-15237907D01*
X12410664Y-15209336D01*
X12424950Y-15195050D01*
X12453521Y-15180764D01*
X12653521Y-15180764D02*
X12839235Y-15180764D01*
X12739235Y-15295050D01*
X12782093Y-15295050D01*
X12810664Y-15309336D01*
X12824950Y-15323621D01*
X12839235Y-15352193D01*
X12839235Y-15423621D01*
X12824950Y-15452193D01*
X12810664Y-15466479D01*
X12782093Y-15480764D01*
X12696378Y-15480764D01*
X12667807Y-15466479D01*
X12653521Y-15452193D01*
X12953521Y-15209336D02*
X12967807Y-15195050D01*
X12996378Y-15180764D01*
X13067807Y-15180764D01*
X13096378Y-15195050D01*
X13110664Y-15209336D01*
X13124950Y-15237907D01*
X13124950Y-15266479D01*
X13110664Y-15309336D01*
X12939235Y-15480764D01*
X13124950Y-15480764D01*
X13239236Y-15180764D02*
X13239236Y-15237907D01*
X13353521Y-15180764D02*
X13353521Y-15237907D01*
X13796378Y-15595050D02*
X13782093Y-15580764D01*
X13753521Y-15537907D01*
X13739235Y-15509336D01*
X13724950Y-15466479D01*
X13710664Y-15395050D01*
X13710664Y-15337907D01*
X13724950Y-15266479D01*
X13739235Y-15223621D01*
X13753521Y-15195050D01*
X13782093Y-15152193D01*
X13796378Y-15137907D01*
X14053521Y-15180764D02*
X13910664Y-15180764D01*
X13896378Y-15323621D01*
X13910664Y-15309336D01*
X13939235Y-15295050D01*
X14010664Y-15295050D01*
X14039235Y-15309336D01*
X14053521Y-15323621D01*
X14067807Y-15352193D01*
X14067807Y-15423621D01*
X14053521Y-15452193D01*
X14039235Y-15466479D01*
X14010664Y-15480764D01*
X13939235Y-15480764D01*
X13910664Y-15466479D01*
X13896378Y-15452193D01*
X14182093Y-15209336D02*
X14196378Y-15195050D01*
X14224950Y-15180764D01*
X14296378Y-15180764D01*
X14324950Y-15195050D01*
X14339235Y-15209336D01*
X14353521Y-15237907D01*
X14353521Y-15266479D01*
X14339235Y-15309336D01*
X14167807Y-15480764D01*
X14353521Y-15480764D01*
X14710664Y-15480764D02*
X14710664Y-15180764D01*
X14839235Y-15480764D02*
X14839235Y-15323621D01*
X14824950Y-15295050D01*
X14796378Y-15280764D01*
X14753521Y-15280764D01*
X14724950Y-15295050D01*
X14710664Y-15309336D01*
X15024950Y-15480764D02*
X14996378Y-15466479D01*
X14982093Y-15452193D01*
X14967807Y-15423621D01*
X14967807Y-15337907D01*
X14982093Y-15309336D01*
X14996378Y-15295050D01*
X15024950Y-15280764D01*
X15067807Y-15280764D01*
X15096378Y-15295050D01*
X15110664Y-15309336D01*
X15124950Y-15337907D01*
X15124950Y-15423621D01*
X15110664Y-15452193D01*
X15096378Y-15466479D01*
X15067807Y-15480764D01*
X15024950Y-15480764D01*
X15296378Y-15480764D02*
X15267807Y-15466479D01*
X15253521Y-15437907D01*
X15253521Y-15180764D01*
X15524950Y-15466479D02*
X15496378Y-15480764D01*
X15439236Y-15480764D01*
X15410664Y-15466479D01*
X15396378Y-15437907D01*
X15396378Y-15323621D01*
X15410664Y-15295050D01*
X15439236Y-15280764D01*
X15496378Y-15280764D01*
X15524950Y-15295050D01*
X15539236Y-15323621D01*
X15539236Y-15352193D01*
X15396378Y-15380764D01*
X15653521Y-15466479D02*
X15682093Y-15480764D01*
X15739236Y-15480764D01*
X15767807Y-15466479D01*
X15782093Y-15437907D01*
X15782093Y-15423621D01*
X15767807Y-15395050D01*
X15739236Y-15380764D01*
X15696378Y-15380764D01*
X15667807Y-15366479D01*
X15653521Y-15337907D01*
X15653521Y-15323621D01*
X15667807Y-15295050D01*
X15696378Y-15280764D01*
X15739236Y-15280764D01*
X15767807Y-15295050D01*
X15882093Y-15595050D02*
X15896378Y-15580764D01*
X15924950Y-15537907D01*
X15939236Y-15509336D01*
X15953521Y-15466479D01*
X15967807Y-15395050D01*
X15967807Y-15337907D01*
X15953521Y-15266479D01*
X15939236Y-15223621D01*
X15924950Y-15195050D01*
X15896378Y-15152193D01*
X15882093Y-15137907D01*
X9074912Y-15691012D02*
X9074912Y-15791088D01*
X9024874Y-15741050D02*
X9124950Y-15741050D01*
X9553521Y-15876764D02*
X9382093Y-15876764D01*
X9467807Y-15876764D02*
X9467807Y-15576764D01*
X9439236Y-15619621D01*
X9410664Y-15648193D01*
X9382093Y-15662479D01*
X9682093Y-15848193D02*
X9696379Y-15862479D01*
X9682093Y-15876764D01*
X9667807Y-15862479D01*
X9682093Y-15848193D01*
X9682093Y-15876764D01*
X9882093Y-15576764D02*
X9910664Y-15576764D01*
X9939236Y-15591050D01*
X9953521Y-15605336D01*
X9967807Y-15633907D01*
X9982093Y-15691050D01*
X9982093Y-15762479D01*
X9967807Y-15819621D01*
X9953521Y-15848193D01*
X9939236Y-15862479D01*
X9910664Y-15876764D01*
X9882093Y-15876764D01*
X9853521Y-15862479D01*
X9839236Y-15848193D01*
X9824950Y-15819621D01*
X9810664Y-15762479D01*
X9810664Y-15691050D01*
X9824950Y-15633907D01*
X9839236Y-15605336D01*
X9853521Y-15591050D01*
X9882093Y-15576764D01*
X10167807Y-15576764D02*
X10196379Y-15576764D01*
X10224950Y-15591050D01*
X10239236Y-15605336D01*
X10253521Y-15633907D01*
X10267807Y-15691050D01*
X10267807Y-15762479D01*
X10253521Y-15819621D01*
X10239236Y-15848193D01*
X10224950Y-15862479D01*
X10196379Y-15876764D01*
X10167807Y-15876764D01*
X10139236Y-15862479D01*
X10124950Y-15848193D01*
X10110664Y-15819621D01*
X10096379Y-15762479D01*
X10096379Y-15691050D01*
X10110664Y-15633907D01*
X10124950Y-15605336D01*
X10139236Y-15591050D01*
X10167807Y-15576764D01*
X10396379Y-15876764D02*
X10396379Y-15676764D01*
X10396379Y-15705336D02*
X10410664Y-15691050D01*
X10439236Y-15676764D01*
X10482093Y-15676764D01*
X10510664Y-15691050D01*
X10524950Y-15719621D01*
X10524950Y-15876764D01*
X10524950Y-15719621D02*
X10539236Y-15691050D01*
X10567807Y-15676764D01*
X10610664Y-15676764D01*
X10639236Y-15691050D01*
X10653521Y-15719621D01*
X10653521Y-15876764D01*
X10796379Y-15876764D02*
X10796379Y-15676764D01*
X10796379Y-15705336D02*
X10810664Y-15691050D01*
X10839236Y-15676764D01*
X10882093Y-15676764D01*
X10910664Y-15691050D01*
X10924950Y-15719621D01*
X10924950Y-15876764D01*
X10924950Y-15719621D02*
X10939236Y-15691050D01*
X10967807Y-15676764D01*
X11010664Y-15676764D01*
X11039236Y-15691050D01*
X11053521Y-15719621D01*
X11053521Y-15876764D01*
X11639236Y-15562479D02*
X11382093Y-15948193D01*
X12024950Y-15576764D02*
X12053521Y-15576764D01*
X12082093Y-15591050D01*
X12096378Y-15605336D01*
X12110664Y-15633907D01*
X12124950Y-15691050D01*
X12124950Y-15762479D01*
X12110664Y-15819621D01*
X12096378Y-15848193D01*
X12082093Y-15862479D01*
X12053521Y-15876764D01*
X12024950Y-15876764D01*
X11996378Y-15862479D01*
X11982093Y-15848193D01*
X11967807Y-15819621D01*
X11953521Y-15762479D01*
X11953521Y-15691050D01*
X11967807Y-15633907D01*
X11982093Y-15605336D01*
X11996378Y-15591050D01*
X12024950Y-15576764D01*
X12253521Y-15848193D02*
X12267807Y-15862479D01*
X12253521Y-15876764D01*
X12239236Y-15862479D01*
X12253521Y-15848193D01*
X12253521Y-15876764D01*
X12453521Y-15576764D02*
X12482093Y-15576764D01*
X12510664Y-15591050D01*
X12524950Y-15605336D01*
X12539235Y-15633907D01*
X12553521Y-15691050D01*
X12553521Y-15762479D01*
X12539235Y-15819621D01*
X12524950Y-15848193D01*
X12510664Y-15862479D01*
X12482093Y-15876764D01*
X12453521Y-15876764D01*
X12424950Y-15862479D01*
X12410664Y-15848193D01*
X12396378Y-15819621D01*
X12382093Y-15762479D01*
X12382093Y-15691050D01*
X12396378Y-15633907D01*
X12410664Y-15605336D01*
X12424950Y-15591050D01*
X12453521Y-15576764D01*
X12653521Y-15576764D02*
X12839235Y-15576764D01*
X12739235Y-15691050D01*
X12782093Y-15691050D01*
X12810664Y-15705336D01*
X12824950Y-15719621D01*
X12839235Y-15748193D01*
X12839235Y-15819621D01*
X12824950Y-15848193D01*
X12810664Y-15862479D01*
X12782093Y-15876764D01*
X12696378Y-15876764D01*
X12667807Y-15862479D01*
X12653521Y-15848193D01*
X12982093Y-15876764D02*
X13039235Y-15876764D01*
X13067807Y-15862479D01*
X13082093Y-15848193D01*
X13110664Y-15805336D01*
X13124950Y-15748193D01*
X13124950Y-15633907D01*
X13110664Y-15605336D01*
X13096378Y-15591050D01*
X13067807Y-15576764D01*
X13010664Y-15576764D01*
X12982093Y-15591050D01*
X12967807Y-15605336D01*
X12953521Y-15633907D01*
X12953521Y-15705336D01*
X12967807Y-15733907D01*
X12982093Y-15748193D01*
X13010664Y-15762479D01*
X13067807Y-15762479D01*
X13096378Y-15748193D01*
X13110664Y-15733907D01*
X13124950Y-15705336D01*
X13239236Y-15576764D02*
X13239236Y-15633907D01*
X13353521Y-15576764D02*
X13353521Y-15633907D01*
X13796378Y-15991050D02*
X13782093Y-15976764D01*
X13753521Y-15933907D01*
X13739235Y-15905336D01*
X13724950Y-15862479D01*
X13710664Y-15791050D01*
X13710664Y-15733907D01*
X13724950Y-15662479D01*
X13739235Y-15619621D01*
X13753521Y-15591050D01*
X13782093Y-15548193D01*
X13796378Y-15533907D01*
X13882093Y-15576764D02*
X14067807Y-15576764D01*
X13967807Y-15691050D01*
X14010664Y-15691050D01*
X14039235Y-15705336D01*
X14053521Y-15719621D01*
X14067807Y-15748193D01*
X14067807Y-15819621D01*
X14053521Y-15848193D01*
X14039235Y-15862479D01*
X14010664Y-15876764D01*
X13924950Y-15876764D01*
X13896378Y-15862479D01*
X13882093Y-15848193D01*
X14210664Y-15876764D02*
X14267807Y-15876764D01*
X14296378Y-15862479D01*
X14310664Y-15848193D01*
X14339235Y-15805336D01*
X14353521Y-15748193D01*
X14353521Y-15633907D01*
X14339235Y-15605336D01*
X14324950Y-15591050D01*
X14296378Y-15576764D01*
X14239235Y-15576764D01*
X14210664Y-15591050D01*
X14196378Y-15605336D01*
X14182093Y-15633907D01*
X14182093Y-15705336D01*
X14196378Y-15733907D01*
X14210664Y-15748193D01*
X14239235Y-15762479D01*
X14296378Y-15762479D01*
X14324950Y-15748193D01*
X14339235Y-15733907D01*
X14353521Y-15705336D01*
X14710664Y-15876764D02*
X14710664Y-15576764D01*
X14839235Y-15876764D02*
X14839235Y-15719621D01*
X14824950Y-15691050D01*
X14796378Y-15676764D01*
X14753521Y-15676764D01*
X14724950Y-15691050D01*
X14710664Y-15705336D01*
X15024950Y-15876764D02*
X14996378Y-15862479D01*
X14982093Y-15848193D01*
X14967807Y-15819621D01*
X14967807Y-15733907D01*
X14982093Y-15705336D01*
X14996378Y-15691050D01*
X15024950Y-15676764D01*
X15067807Y-15676764D01*
X15096378Y-15691050D01*
X15110664Y-15705336D01*
X15124950Y-15733907D01*
X15124950Y-15819621D01*
X15110664Y-15848193D01*
X15096378Y-15862479D01*
X15067807Y-15876764D01*
X15024950Y-15876764D01*
X15296378Y-15876764D02*
X15267807Y-15862479D01*
X15253521Y-15833907D01*
X15253521Y-15576764D01*
X15524950Y-15862479D02*
X15496378Y-15876764D01*
X15439236Y-15876764D01*
X15410664Y-15862479D01*
X15396378Y-15833907D01*
X15396378Y-15719621D01*
X15410664Y-15691050D01*
X15439236Y-15676764D01*
X15496378Y-15676764D01*
X15524950Y-15691050D01*
X15539236Y-15719621D01*
X15539236Y-15748193D01*
X15396378Y-15776764D01*
X15653521Y-15862479D02*
X15682093Y-15876764D01*
X15739236Y-15876764D01*
X15767807Y-15862479D01*
X15782093Y-15833907D01*
X15782093Y-15819621D01*
X15767807Y-15791050D01*
X15739236Y-15776764D01*
X15696378Y-15776764D01*
X15667807Y-15762479D01*
X15653521Y-15733907D01*
X15653521Y-15719621D01*
X15667807Y-15691050D01*
X15696378Y-15676764D01*
X15739236Y-15676764D01*
X15767807Y-15691050D01*
X15882093Y-15991050D02*
X15896378Y-15976764D01*
X15924950Y-15933907D01*
X15939236Y-15905336D01*
X15953521Y-15862479D01*
X15967807Y-15791050D01*
X15967807Y-15733907D01*
X15953521Y-15662479D01*
X15939236Y-15619621D01*
X15924950Y-15591050D01*
X15896378Y-15548193D01*
X15882093Y-15533907D01*
X9110071Y-16172971D02*
X9110071Y-16101129D01*
X9038229Y-16101129D01*
X9038229Y-16172971D01*
X9110071Y-16172971D01*
X9553521Y-16272764D02*
X9382093Y-16272764D01*
X9467807Y-16272764D02*
X9467807Y-15972764D01*
X9439236Y-16015621D01*
X9410664Y-16044193D01*
X9382093Y-16058479D01*
X9682093Y-16244193D02*
X9696379Y-16258479D01*
X9682093Y-16272764D01*
X9667807Y-16258479D01*
X9682093Y-16244193D01*
X9682093Y-16272764D01*
X9882093Y-15972764D02*
X9910664Y-15972764D01*
X9939236Y-15987050D01*
X9953521Y-16001336D01*
X9967807Y-16029907D01*
X9982093Y-16087050D01*
X9982093Y-16158479D01*
X9967807Y-16215621D01*
X9953521Y-16244193D01*
X9939236Y-16258479D01*
X9910664Y-16272764D01*
X9882093Y-16272764D01*
X9853521Y-16258479D01*
X9839236Y-16244193D01*
X9824950Y-16215621D01*
X9810664Y-16158479D01*
X9810664Y-16087050D01*
X9824950Y-16029907D01*
X9839236Y-16001336D01*
X9853521Y-15987050D01*
X9882093Y-15972764D01*
X10096379Y-16001336D02*
X10110664Y-15987050D01*
X10139236Y-15972764D01*
X10210664Y-15972764D01*
X10239236Y-15987050D01*
X10253521Y-16001336D01*
X10267807Y-16029907D01*
X10267807Y-16058479D01*
X10253521Y-16101336D01*
X10082093Y-16272764D01*
X10267807Y-16272764D01*
X10396379Y-16272764D02*
X10396379Y-16072764D01*
X10396379Y-16101336D02*
X10410664Y-16087050D01*
X10439236Y-16072764D01*
X10482093Y-16072764D01*
X10510664Y-16087050D01*
X10524950Y-16115621D01*
X10524950Y-16272764D01*
X10524950Y-16115621D02*
X10539236Y-16087050D01*
X10567807Y-16072764D01*
X10610664Y-16072764D01*
X10639236Y-16087050D01*
X10653521Y-16115621D01*
X10653521Y-16272764D01*
X10796379Y-16272764D02*
X10796379Y-16072764D01*
X10796379Y-16101336D02*
X10810664Y-16087050D01*
X10839236Y-16072764D01*
X10882093Y-16072764D01*
X10910664Y-16087050D01*
X10924950Y-16115621D01*
X10924950Y-16272764D01*
X10924950Y-16115621D02*
X10939236Y-16087050D01*
X10967807Y-16072764D01*
X11010664Y-16072764D01*
X11039236Y-16087050D01*
X11053521Y-16115621D01*
X11053521Y-16272764D01*
X11639236Y-15958479D02*
X11382093Y-16344193D01*
X12024950Y-15972764D02*
X12053521Y-15972764D01*
X12082093Y-15987050D01*
X12096378Y-16001336D01*
X12110664Y-16029907D01*
X12124950Y-16087050D01*
X12124950Y-16158479D01*
X12110664Y-16215621D01*
X12096378Y-16244193D01*
X12082093Y-16258479D01*
X12053521Y-16272764D01*
X12024950Y-16272764D01*
X11996378Y-16258479D01*
X11982093Y-16244193D01*
X11967807Y-16215621D01*
X11953521Y-16158479D01*
X11953521Y-16087050D01*
X11967807Y-16029907D01*
X11982093Y-16001336D01*
X11996378Y-15987050D01*
X12024950Y-15972764D01*
X12253521Y-16244193D02*
X12267807Y-16258479D01*
X12253521Y-16272764D01*
X12239236Y-16258479D01*
X12253521Y-16244193D01*
X12253521Y-16272764D01*
X12453521Y-15972764D02*
X12482093Y-15972764D01*
X12510664Y-15987050D01*
X12524950Y-16001336D01*
X12539235Y-16029907D01*
X12553521Y-16087050D01*
X12553521Y-16158479D01*
X12539235Y-16215621D01*
X12524950Y-16244193D01*
X12510664Y-16258479D01*
X12482093Y-16272764D01*
X12453521Y-16272764D01*
X12424950Y-16258479D01*
X12410664Y-16244193D01*
X12396378Y-16215621D01*
X12382093Y-16158479D01*
X12382093Y-16087050D01*
X12396378Y-16029907D01*
X12410664Y-16001336D01*
X12424950Y-15987050D01*
X12453521Y-15972764D01*
X12810664Y-16072764D02*
X12810664Y-16272764D01*
X12739235Y-15958479D02*
X12667807Y-16172764D01*
X12853521Y-16172764D01*
X13024950Y-15972764D02*
X13053521Y-15972764D01*
X13082093Y-15987050D01*
X13096378Y-16001336D01*
X13110664Y-16029907D01*
X13124950Y-16087050D01*
X13124950Y-16158479D01*
X13110664Y-16215621D01*
X13096378Y-16244193D01*
X13082093Y-16258479D01*
X13053521Y-16272764D01*
X13024950Y-16272764D01*
X12996378Y-16258479D01*
X12982093Y-16244193D01*
X12967807Y-16215621D01*
X12953521Y-16158479D01*
X12953521Y-16087050D01*
X12967807Y-16029907D01*
X12982093Y-16001336D01*
X12996378Y-15987050D01*
X13024950Y-15972764D01*
X13239236Y-15972764D02*
X13239236Y-16029907D01*
X13353521Y-15972764D02*
X13353521Y-16029907D01*
X13796378Y-16387050D02*
X13782093Y-16372764D01*
X13753521Y-16329907D01*
X13739235Y-16301336D01*
X13724950Y-16258479D01*
X13710664Y-16187050D01*
X13710664Y-16129907D01*
X13724950Y-16058479D01*
X13739235Y-16015621D01*
X13753521Y-15987050D01*
X13782093Y-15944193D01*
X13796378Y-15929907D01*
X14039235Y-16072764D02*
X14039235Y-16272764D01*
X13967807Y-15958479D02*
X13896378Y-16172764D01*
X14082093Y-16172764D01*
X14424950Y-16272764D02*
X14424950Y-15972764D01*
X14553521Y-16272764D02*
X14553521Y-16115621D01*
X14539235Y-16087050D01*
X14510664Y-16072764D01*
X14467807Y-16072764D01*
X14439235Y-16087050D01*
X14424950Y-16101336D01*
X14739235Y-16272764D02*
X14710664Y-16258479D01*
X14696378Y-16244193D01*
X14682093Y-16215621D01*
X14682093Y-16129907D01*
X14696378Y-16101336D01*
X14710664Y-16087050D01*
X14739235Y-16072764D01*
X14782093Y-16072764D01*
X14810664Y-16087050D01*
X14824950Y-16101336D01*
X14839235Y-16129907D01*
X14839235Y-16215621D01*
X14824950Y-16244193D01*
X14810664Y-16258479D01*
X14782093Y-16272764D01*
X14739235Y-16272764D01*
X15010664Y-16272764D02*
X14982093Y-16258479D01*
X14967807Y-16229907D01*
X14967807Y-15972764D01*
X15239236Y-16258479D02*
X15210664Y-16272764D01*
X15153521Y-16272764D01*
X15124950Y-16258479D01*
X15110664Y-16229907D01*
X15110664Y-16115621D01*
X15124950Y-16087050D01*
X15153521Y-16072764D01*
X15210664Y-16072764D01*
X15239236Y-16087050D01*
X15253521Y-16115621D01*
X15253521Y-16144193D01*
X15110664Y-16172764D01*
X15367807Y-16258479D02*
X15396378Y-16272764D01*
X15453521Y-16272764D01*
X15482093Y-16258479D01*
X15496378Y-16229907D01*
X15496378Y-16215621D01*
X15482093Y-16187050D01*
X15453521Y-16172764D01*
X15410664Y-16172764D01*
X15382093Y-16158479D01*
X15367807Y-16129907D01*
X15367807Y-16115621D01*
X15382093Y-16087050D01*
X15410664Y-16072764D01*
X15453521Y-16072764D01*
X15482093Y-16087050D01*
X15596378Y-16387050D02*
X15610664Y-16372764D01*
X15639236Y-16329907D01*
X15653521Y-16301336D01*
X15667807Y-16258479D01*
X15682093Y-16187050D01*
X15682093Y-16129907D01*
X15667807Y-16058479D01*
X15653521Y-16015621D01*
X15639236Y-15987050D01*
X15610664Y-15944193D01*
X15596378Y-15929907D01*
X9067800Y-16590200D02*
X9124950Y-16533050D01*
X9067800Y-16475900D01*
X9010650Y-16533050D01*
X9067800Y-16590200D01*
X9553521Y-16668764D02*
X9382093Y-16668764D01*
X9467807Y-16668764D02*
X9467807Y-16368764D01*
X9439236Y-16411621D01*
X9410664Y-16440193D01*
X9382093Y-16454479D01*
X9682093Y-16640193D02*
X9696379Y-16654479D01*
X9682093Y-16668764D01*
X9667807Y-16654479D01*
X9682093Y-16640193D01*
X9682093Y-16668764D01*
X9982093Y-16668764D02*
X9810664Y-16668764D01*
X9896378Y-16668764D02*
X9896378Y-16368764D01*
X9867807Y-16411621D01*
X9839236Y-16440193D01*
X9810664Y-16454479D01*
X10239236Y-16468764D02*
X10239236Y-16668764D01*
X10167807Y-16354479D02*
X10096379Y-16568764D01*
X10282093Y-16568764D01*
X10396379Y-16668764D02*
X10396379Y-16468764D01*
X10396379Y-16497336D02*
X10410664Y-16483050D01*
X10439236Y-16468764D01*
X10482093Y-16468764D01*
X10510664Y-16483050D01*
X10524950Y-16511621D01*
X10524950Y-16668764D01*
X10524950Y-16511621D02*
X10539236Y-16483050D01*
X10567807Y-16468764D01*
X10610664Y-16468764D01*
X10639236Y-16483050D01*
X10653521Y-16511621D01*
X10653521Y-16668764D01*
X10796379Y-16668764D02*
X10796379Y-16468764D01*
X10796379Y-16497336D02*
X10810664Y-16483050D01*
X10839236Y-16468764D01*
X10882093Y-16468764D01*
X10910664Y-16483050D01*
X10924950Y-16511621D01*
X10924950Y-16668764D01*
X10924950Y-16511621D02*
X10939236Y-16483050D01*
X10967807Y-16468764D01*
X11010664Y-16468764D01*
X11039236Y-16483050D01*
X11053521Y-16511621D01*
X11053521Y-16668764D01*
X11639236Y-16354479D02*
X11382093Y-16740193D01*
X12024950Y-16368764D02*
X12053521Y-16368764D01*
X12082093Y-16383050D01*
X12096378Y-16397336D01*
X12110664Y-16425907D01*
X12124950Y-16483050D01*
X12124950Y-16554479D01*
X12110664Y-16611621D01*
X12096378Y-16640193D01*
X12082093Y-16654479D01*
X12053521Y-16668764D01*
X12024950Y-16668764D01*
X11996378Y-16654479D01*
X11982093Y-16640193D01*
X11967807Y-16611621D01*
X11953521Y-16554479D01*
X11953521Y-16483050D01*
X11967807Y-16425907D01*
X11982093Y-16397336D01*
X11996378Y-16383050D01*
X12024950Y-16368764D01*
X12253521Y-16640193D02*
X12267807Y-16654479D01*
X12253521Y-16668764D01*
X12239236Y-16654479D01*
X12253521Y-16640193D01*
X12253521Y-16668764D01*
X12453521Y-16368764D02*
X12482093Y-16368764D01*
X12510664Y-16383050D01*
X12524950Y-16397336D01*
X12539235Y-16425907D01*
X12553521Y-16483050D01*
X12553521Y-16554479D01*
X12539235Y-16611621D01*
X12524950Y-16640193D01*
X12510664Y-16654479D01*
X12482093Y-16668764D01*
X12453521Y-16668764D01*
X12424950Y-16654479D01*
X12410664Y-16640193D01*
X12396378Y-16611621D01*
X12382093Y-16554479D01*
X12382093Y-16483050D01*
X12396378Y-16425907D01*
X12410664Y-16397336D01*
X12424950Y-16383050D01*
X12453521Y-16368764D01*
X12810664Y-16468764D02*
X12810664Y-16668764D01*
X12739235Y-16354479D02*
X12667807Y-16568764D01*
X12853521Y-16568764D01*
X13110664Y-16368764D02*
X12967807Y-16368764D01*
X12953521Y-16511621D01*
X12967807Y-16497336D01*
X12996378Y-16483050D01*
X13067807Y-16483050D01*
X13096378Y-16497336D01*
X13110664Y-16511621D01*
X13124950Y-16540193D01*
X13124950Y-16611621D01*
X13110664Y-16640193D01*
X13096378Y-16654479D01*
X13067807Y-16668764D01*
X12996378Y-16668764D01*
X12967807Y-16654479D01*
X12953521Y-16640193D01*
X13239236Y-16368764D02*
X13239236Y-16425907D01*
X13353521Y-16368764D02*
X13353521Y-16425907D01*
X13796378Y-16783050D02*
X13782093Y-16768764D01*
X13753521Y-16725907D01*
X13739235Y-16697336D01*
X13724950Y-16654479D01*
X13710664Y-16583050D01*
X13710664Y-16525907D01*
X13724950Y-16454479D01*
X13739235Y-16411621D01*
X13753521Y-16383050D01*
X13782093Y-16340193D01*
X13796378Y-16325907D01*
X13896378Y-16397336D02*
X13910664Y-16383050D01*
X13939235Y-16368764D01*
X14010664Y-16368764D01*
X14039235Y-16383050D01*
X14053521Y-16397336D01*
X14067807Y-16425907D01*
X14067807Y-16454479D01*
X14053521Y-16497336D01*
X13882093Y-16668764D01*
X14067807Y-16668764D01*
X14424950Y-16668764D02*
X14424950Y-16368764D01*
X14553521Y-16668764D02*
X14553521Y-16511621D01*
X14539235Y-16483050D01*
X14510664Y-16468764D01*
X14467807Y-16468764D01*
X14439235Y-16483050D01*
X14424950Y-16497336D01*
X14739235Y-16668764D02*
X14710664Y-16654479D01*
X14696378Y-16640193D01*
X14682093Y-16611621D01*
X14682093Y-16525907D01*
X14696378Y-16497336D01*
X14710664Y-16483050D01*
X14739235Y-16468764D01*
X14782093Y-16468764D01*
X14810664Y-16483050D01*
X14824950Y-16497336D01*
X14839235Y-16525907D01*
X14839235Y-16611621D01*
X14824950Y-16640193D01*
X14810664Y-16654479D01*
X14782093Y-16668764D01*
X14739235Y-16668764D01*
X15010664Y-16668764D02*
X14982093Y-16654479D01*
X14967807Y-16625907D01*
X14967807Y-16368764D01*
X15239236Y-16654479D02*
X15210664Y-16668764D01*
X15153521Y-16668764D01*
X15124950Y-16654479D01*
X15110664Y-16625907D01*
X15110664Y-16511621D01*
X15124950Y-16483050D01*
X15153521Y-16468764D01*
X15210664Y-16468764D01*
X15239236Y-16483050D01*
X15253521Y-16511621D01*
X15253521Y-16540193D01*
X15110664Y-16568764D01*
X15367807Y-16654479D02*
X15396378Y-16668764D01*
X15453521Y-16668764D01*
X15482093Y-16654479D01*
X15496378Y-16625907D01*
X15496378Y-16611621D01*
X15482093Y-16583050D01*
X15453521Y-16568764D01*
X15410664Y-16568764D01*
X15382093Y-16554479D01*
X15367807Y-16525907D01*
X15367807Y-16511621D01*
X15382093Y-16483050D01*
X15410664Y-16468764D01*
X15453521Y-16468764D01*
X15482093Y-16483050D01*
X15596378Y-16783050D02*
X15610664Y-16768764D01*
X15639236Y-16725907D01*
X15653521Y-16697336D01*
X15667807Y-16654479D01*
X15682093Y-16583050D01*
X15682093Y-16525907D01*
X15667807Y-16454479D01*
X15653521Y-16411621D01*
X15639236Y-16383050D01*
X15610664Y-16340193D01*
X15596378Y-16325907D01*
X8994902Y-16864026D02*
X9124950Y-16994074D01*
X9124950Y-16864026D02*
X8994902Y-16994074D01*
X9124950Y-16929050D02*
G75*
G03X9124950Y-16929050I-65024J0D01*
G01*
X9553521Y-17064764D02*
X9382093Y-17064764D01*
X9467807Y-17064764D02*
X9467807Y-16764764D01*
X9439236Y-16807622D01*
X9410664Y-16836193D01*
X9382093Y-16850479D01*
X9682093Y-17036193D02*
X9696379Y-17050479D01*
X9682093Y-17064764D01*
X9667807Y-17050479D01*
X9682093Y-17036193D01*
X9682093Y-17064764D01*
X9796378Y-16764764D02*
X9982093Y-16764764D01*
X9882093Y-16879050D01*
X9924950Y-16879050D01*
X9953521Y-16893336D01*
X9967807Y-16907622D01*
X9982093Y-16936193D01*
X9982093Y-17007622D01*
X9967807Y-17036193D01*
X9953521Y-17050479D01*
X9924950Y-17064764D01*
X9839236Y-17064764D01*
X9810664Y-17050479D01*
X9796378Y-17036193D01*
X10167807Y-16764764D02*
X10196379Y-16764764D01*
X10224950Y-16779050D01*
X10239236Y-16793336D01*
X10253521Y-16821907D01*
X10267807Y-16879050D01*
X10267807Y-16950479D01*
X10253521Y-17007622D01*
X10239236Y-17036193D01*
X10224950Y-17050479D01*
X10196379Y-17064764D01*
X10167807Y-17064764D01*
X10139236Y-17050479D01*
X10124950Y-17036193D01*
X10110664Y-17007622D01*
X10096379Y-16950479D01*
X10096379Y-16879050D01*
X10110664Y-16821907D01*
X10124950Y-16793336D01*
X10139236Y-16779050D01*
X10167807Y-16764764D01*
X10396379Y-17064764D02*
X10396379Y-16864764D01*
X10396379Y-16893336D02*
X10410664Y-16879050D01*
X10439236Y-16864764D01*
X10482093Y-16864764D01*
X10510664Y-16879050D01*
X10524950Y-16907622D01*
X10524950Y-17064764D01*
X10524950Y-16907622D02*
X10539236Y-16879050D01*
X10567807Y-16864764D01*
X10610664Y-16864764D01*
X10639236Y-16879050D01*
X10653521Y-16907622D01*
X10653521Y-17064764D01*
X10796379Y-17064764D02*
X10796379Y-16864764D01*
X10796379Y-16893336D02*
X10810664Y-16879050D01*
X10839236Y-16864764D01*
X10882093Y-16864764D01*
X10910664Y-16879050D01*
X10924950Y-16907622D01*
X10924950Y-17064764D01*
X10924950Y-16907622D02*
X10939236Y-16879050D01*
X10967807Y-16864764D01*
X11010664Y-16864764D01*
X11039236Y-16879050D01*
X11053521Y-16907622D01*
X11053521Y-17064764D01*
X11639236Y-16750479D02*
X11382093Y-17136193D01*
X12024950Y-16764764D02*
X12053521Y-16764764D01*
X12082093Y-16779050D01*
X12096378Y-16793336D01*
X12110664Y-16821907D01*
X12124950Y-16879050D01*
X12124950Y-16950479D01*
X12110664Y-17007622D01*
X12096378Y-17036193D01*
X12082093Y-17050479D01*
X12053521Y-17064764D01*
X12024950Y-17064764D01*
X11996378Y-17050479D01*
X11982093Y-17036193D01*
X11967807Y-17007622D01*
X11953521Y-16950479D01*
X11953521Y-16879050D01*
X11967807Y-16821907D01*
X11982093Y-16793336D01*
X11996378Y-16779050D01*
X12024950Y-16764764D01*
X12253521Y-17036193D02*
X12267807Y-17050479D01*
X12253521Y-17064764D01*
X12239236Y-17050479D01*
X12253521Y-17036193D01*
X12253521Y-17064764D01*
X12453521Y-16764764D02*
X12482093Y-16764764D01*
X12510664Y-16779050D01*
X12524950Y-16793336D01*
X12539235Y-16821907D01*
X12553521Y-16879050D01*
X12553521Y-16950479D01*
X12539235Y-17007622D01*
X12524950Y-17036193D01*
X12510664Y-17050479D01*
X12482093Y-17064764D01*
X12453521Y-17064764D01*
X12424950Y-17050479D01*
X12410664Y-17036193D01*
X12396378Y-17007622D01*
X12382093Y-16950479D01*
X12382093Y-16879050D01*
X12396378Y-16821907D01*
X12410664Y-16793336D01*
X12424950Y-16779050D01*
X12453521Y-16764764D01*
X12824950Y-16764764D02*
X12682093Y-16764764D01*
X12667807Y-16907622D01*
X12682093Y-16893336D01*
X12710664Y-16879050D01*
X12782093Y-16879050D01*
X12810664Y-16893336D01*
X12824950Y-16907622D01*
X12839235Y-16936193D01*
X12839235Y-17007622D01*
X12824950Y-17036193D01*
X12810664Y-17050479D01*
X12782093Y-17064764D01*
X12710664Y-17064764D01*
X12682093Y-17050479D01*
X12667807Y-17036193D01*
X13124950Y-17064764D02*
X12953521Y-17064764D01*
X13039235Y-17064764D02*
X13039235Y-16764764D01*
X13010664Y-16807622D01*
X12982093Y-16836193D01*
X12953521Y-16850479D01*
X13239236Y-16764764D02*
X13239236Y-16821907D01*
X13353521Y-16764764D02*
X13353521Y-16821907D01*
X13796378Y-17179050D02*
X13782093Y-17164764D01*
X13753521Y-17121907D01*
X13739235Y-17093336D01*
X13724950Y-17050479D01*
X13710664Y-16979050D01*
X13710664Y-16921907D01*
X13724950Y-16850479D01*
X13739235Y-16807622D01*
X13753521Y-16779050D01*
X13782093Y-16736193D01*
X13796378Y-16721907D01*
X13953521Y-16893336D02*
X13924950Y-16879050D01*
X13910664Y-16864764D01*
X13896378Y-16836193D01*
X13896378Y-16821907D01*
X13910664Y-16793336D01*
X13924950Y-16779050D01*
X13953521Y-16764764D01*
X14010664Y-16764764D01*
X14039235Y-16779050D01*
X14053521Y-16793336D01*
X14067807Y-16821907D01*
X14067807Y-16836193D01*
X14053521Y-16864764D01*
X14039235Y-16879050D01*
X14010664Y-16893336D01*
X13953521Y-16893336D01*
X13924950Y-16907622D01*
X13910664Y-16921907D01*
X13896378Y-16950479D01*
X13896378Y-17007622D01*
X13910664Y-17036193D01*
X13924950Y-17050479D01*
X13953521Y-17064764D01*
X14010664Y-17064764D01*
X14039235Y-17050479D01*
X14053521Y-17036193D01*
X14067807Y-17007622D01*
X14067807Y-16950479D01*
X14053521Y-16921907D01*
X14039235Y-16907622D01*
X14010664Y-16893336D01*
X14424950Y-17064764D02*
X14424950Y-16764764D01*
X14553521Y-17064764D02*
X14553521Y-16907622D01*
X14539235Y-16879050D01*
X14510664Y-16864764D01*
X14467807Y-16864764D01*
X14439235Y-16879050D01*
X14424950Y-16893336D01*
X14739235Y-17064764D02*
X14710664Y-17050479D01*
X14696378Y-17036193D01*
X14682093Y-17007622D01*
X14682093Y-16921907D01*
X14696378Y-16893336D01*
X14710664Y-16879050D01*
X14739235Y-16864764D01*
X14782093Y-16864764D01*
X14810664Y-16879050D01*
X14824950Y-16893336D01*
X14839235Y-16921907D01*
X14839235Y-17007622D01*
X14824950Y-17036193D01*
X14810664Y-17050479D01*
X14782093Y-17064764D01*
X14739235Y-17064764D01*
X15010664Y-17064764D02*
X14982093Y-17050479D01*
X14967807Y-17021907D01*
X14967807Y-16764764D01*
X15239236Y-17050479D02*
X15210664Y-17064764D01*
X15153521Y-17064764D01*
X15124950Y-17050479D01*
X15110664Y-17021907D01*
X15110664Y-16907622D01*
X15124950Y-16879050D01*
X15153521Y-16864764D01*
X15210664Y-16864764D01*
X15239236Y-16879050D01*
X15253521Y-16907622D01*
X15253521Y-16936193D01*
X15110664Y-16964764D01*
X15367807Y-17050479D02*
X15396378Y-17064764D01*
X15453521Y-17064764D01*
X15482093Y-17050479D01*
X15496378Y-17021907D01*
X15496378Y-17007622D01*
X15482093Y-16979050D01*
X15453521Y-16964764D01*
X15410664Y-16964764D01*
X15382093Y-16950479D01*
X15367807Y-16921907D01*
X15367807Y-16907622D01*
X15382093Y-16879050D01*
X15410664Y-16864764D01*
X15453521Y-16864764D01*
X15482093Y-16879050D01*
X15596378Y-17179050D02*
X15610664Y-17164764D01*
X15639236Y-17121907D01*
X15653521Y-17093336D01*
X15667807Y-17050479D01*
X15682093Y-16979050D01*
X15682093Y-16921907D01*
X15667807Y-16850479D01*
X15653521Y-16807622D01*
X15639236Y-16779050D01*
X15610664Y-16736193D01*
X15596378Y-16721907D01*
X8894826Y-17209988D02*
X9124950Y-17440112D01*
X9124950Y-17209988D02*
X8894826Y-17440112D01*
X9009888Y-17209988D02*
X9009888Y-17440112D01*
X8894826Y-17325050D02*
X9124950Y-17325050D01*
X9382093Y-17189336D02*
X9396379Y-17175050D01*
X9424950Y-17160764D01*
X9496379Y-17160764D01*
X9524950Y-17175050D01*
X9539236Y-17189336D01*
X9553521Y-17217907D01*
X9553521Y-17246479D01*
X9539236Y-17289336D01*
X9367807Y-17460764D01*
X9553521Y-17460764D01*
X9682093Y-17432193D02*
X9696379Y-17446479D01*
X9682093Y-17460764D01*
X9667807Y-17446479D01*
X9682093Y-17432193D01*
X9682093Y-17460764D01*
X9796378Y-17160764D02*
X9982093Y-17160764D01*
X9882093Y-17275050D01*
X9924950Y-17275050D01*
X9953521Y-17289336D01*
X9967807Y-17303622D01*
X9982093Y-17332193D01*
X9982093Y-17403622D01*
X9967807Y-17432193D01*
X9953521Y-17446479D01*
X9924950Y-17460764D01*
X9839236Y-17460764D01*
X9810664Y-17446479D01*
X9796378Y-17432193D01*
X10167807Y-17160764D02*
X10196379Y-17160764D01*
X10224950Y-17175050D01*
X10239236Y-17189336D01*
X10253521Y-17217907D01*
X10267807Y-17275050D01*
X10267807Y-17346479D01*
X10253521Y-17403622D01*
X10239236Y-17432193D01*
X10224950Y-17446479D01*
X10196379Y-17460764D01*
X10167807Y-17460764D01*
X10139236Y-17446479D01*
X10124950Y-17432193D01*
X10110664Y-17403622D01*
X10096379Y-17346479D01*
X10096379Y-17275050D01*
X10110664Y-17217907D01*
X10124950Y-17189336D01*
X10139236Y-17175050D01*
X10167807Y-17160764D01*
X10396379Y-17460764D02*
X10396379Y-17260764D01*
X10396379Y-17289336D02*
X10410664Y-17275050D01*
X10439236Y-17260764D01*
X10482093Y-17260764D01*
X10510664Y-17275050D01*
X10524950Y-17303622D01*
X10524950Y-17460764D01*
X10524950Y-17303622D02*
X10539236Y-17275050D01*
X10567807Y-17260764D01*
X10610664Y-17260764D01*
X10639236Y-17275050D01*
X10653521Y-17303622D01*
X10653521Y-17460764D01*
X10796379Y-17460764D02*
X10796379Y-17260764D01*
X10796379Y-17289336D02*
X10810664Y-17275050D01*
X10839236Y-17260764D01*
X10882093Y-17260764D01*
X10910664Y-17275050D01*
X10924950Y-17303622D01*
X10924950Y-17460764D01*
X10924950Y-17303622D02*
X10939236Y-17275050D01*
X10967807Y-17260764D01*
X11010664Y-17260764D01*
X11039236Y-17275050D01*
X11053521Y-17303622D01*
X11053521Y-17460764D01*
X11639236Y-17146479D02*
X11382093Y-17532193D01*
X12024950Y-17160764D02*
X12053521Y-17160764D01*
X12082093Y-17175050D01*
X12096378Y-17189336D01*
X12110664Y-17217907D01*
X12124950Y-17275050D01*
X12124950Y-17346479D01*
X12110664Y-17403622D01*
X12096378Y-17432193D01*
X12082093Y-17446479D01*
X12053521Y-17460764D01*
X12024950Y-17460764D01*
X11996378Y-17446479D01*
X11982093Y-17432193D01*
X11967807Y-17403622D01*
X11953521Y-17346479D01*
X11953521Y-17275050D01*
X11967807Y-17217907D01*
X11982093Y-17189336D01*
X11996378Y-17175050D01*
X12024950Y-17160764D01*
X12253521Y-17432193D02*
X12267807Y-17446479D01*
X12253521Y-17460764D01*
X12239236Y-17446479D01*
X12253521Y-17432193D01*
X12253521Y-17460764D01*
X12453521Y-17160764D02*
X12482093Y-17160764D01*
X12510664Y-17175050D01*
X12524950Y-17189336D01*
X12539235Y-17217907D01*
X12553521Y-17275050D01*
X12553521Y-17346479D01*
X12539235Y-17403622D01*
X12524950Y-17432193D01*
X12510664Y-17446479D01*
X12482093Y-17460764D01*
X12453521Y-17460764D01*
X12424950Y-17446479D01*
X12410664Y-17432193D01*
X12396378Y-17403622D01*
X12382093Y-17346479D01*
X12382093Y-17275050D01*
X12396378Y-17217907D01*
X12410664Y-17189336D01*
X12424950Y-17175050D01*
X12453521Y-17160764D01*
X12696378Y-17460764D02*
X12753521Y-17460764D01*
X12782093Y-17446479D01*
X12796378Y-17432193D01*
X12824950Y-17389336D01*
X12839235Y-17332193D01*
X12839235Y-17217907D01*
X12824950Y-17189336D01*
X12810664Y-17175050D01*
X12782093Y-17160764D01*
X12724950Y-17160764D01*
X12696378Y-17175050D01*
X12682093Y-17189336D01*
X12667807Y-17217907D01*
X12667807Y-17289336D01*
X12682093Y-17317907D01*
X12696378Y-17332193D01*
X12724950Y-17346479D01*
X12782093Y-17346479D01*
X12810664Y-17332193D01*
X12824950Y-17317907D01*
X12839235Y-17289336D01*
X13124950Y-17460764D02*
X12953521Y-17460764D01*
X13039235Y-17460764D02*
X13039235Y-17160764D01*
X13010664Y-17203622D01*
X12982093Y-17232193D01*
X12953521Y-17246479D01*
X13239236Y-17160764D02*
X13239236Y-17217907D01*
X13353521Y-17160764D02*
X13353521Y-17217907D01*
X13796378Y-17575050D02*
X13782093Y-17560764D01*
X13753521Y-17517907D01*
X13739235Y-17489336D01*
X13724950Y-17446479D01*
X13710664Y-17375050D01*
X13710664Y-17317907D01*
X13724950Y-17246479D01*
X13739235Y-17203622D01*
X13753521Y-17175050D01*
X13782093Y-17132193D01*
X13796378Y-17117907D01*
X13896378Y-17189336D02*
X13910664Y-17175050D01*
X13939235Y-17160764D01*
X14010664Y-17160764D01*
X14039235Y-17175050D01*
X14053521Y-17189336D01*
X14067807Y-17217907D01*
X14067807Y-17246479D01*
X14053521Y-17289336D01*
X13882093Y-17460764D01*
X14067807Y-17460764D01*
X14424950Y-17460764D02*
X14424950Y-17160764D01*
X14553521Y-17460764D02*
X14553521Y-17303622D01*
X14539235Y-17275050D01*
X14510664Y-17260764D01*
X14467807Y-17260764D01*
X14439235Y-17275050D01*
X14424950Y-17289336D01*
X14739235Y-17460764D02*
X14710664Y-17446479D01*
X14696378Y-17432193D01*
X14682093Y-17403622D01*
X14682093Y-17317907D01*
X14696378Y-17289336D01*
X14710664Y-17275050D01*
X14739235Y-17260764D01*
X14782093Y-17260764D01*
X14810664Y-17275050D01*
X14824950Y-17289336D01*
X14839235Y-17317907D01*
X14839235Y-17403622D01*
X14824950Y-17432193D01*
X14810664Y-17446479D01*
X14782093Y-17460764D01*
X14739235Y-17460764D01*
X15010664Y-17460764D02*
X14982093Y-17446479D01*
X14967807Y-17417907D01*
X14967807Y-17160764D01*
X15239236Y-17446479D02*
X15210664Y-17460764D01*
X15153521Y-17460764D01*
X15124950Y-17446479D01*
X15110664Y-17417907D01*
X15110664Y-17303622D01*
X15124950Y-17275050D01*
X15153521Y-17260764D01*
X15210664Y-17260764D01*
X15239236Y-17275050D01*
X15253521Y-17303622D01*
X15253521Y-17332193D01*
X15110664Y-17360764D01*
X15367807Y-17446479D02*
X15396378Y-17460764D01*
X15453521Y-17460764D01*
X15482093Y-17446479D01*
X15496378Y-17417907D01*
X15496378Y-17403622D01*
X15482093Y-17375050D01*
X15453521Y-17360764D01*
X15410664Y-17360764D01*
X15382093Y-17346479D01*
X15367807Y-17317907D01*
X15367807Y-17303622D01*
X15382093Y-17275050D01*
X15410664Y-17260764D01*
X15453521Y-17260764D01*
X15482093Y-17275050D01*
X15596378Y-17575050D02*
X15610664Y-17560764D01*
X15639236Y-17517907D01*
X15653521Y-17489336D01*
X15667807Y-17446479D01*
X15682093Y-17375050D01*
X15682093Y-17317907D01*
X15667807Y-17246479D01*
X15653521Y-17203622D01*
X15639236Y-17175050D01*
X15610664Y-17132193D01*
X15596378Y-17117907D01*
X8774938Y-17546044D02*
X9124950Y-17896056D01*
X9124950Y-17546044D02*
X8774938Y-17896056D01*
X9073693Y-17844799D02*
X9073693Y-17597301D01*
X8826195Y-17597301D01*
X8826195Y-17844799D01*
X9073693Y-17844799D01*
X9367807Y-17556764D02*
X9553521Y-17556764D01*
X9453521Y-17671050D01*
X9496379Y-17671050D01*
X9524950Y-17685336D01*
X9539236Y-17699622D01*
X9553521Y-17728193D01*
X9553521Y-17799622D01*
X9539236Y-17828193D01*
X9524950Y-17842479D01*
X9496379Y-17856764D01*
X9410664Y-17856764D01*
X9382093Y-17842479D01*
X9367807Y-17828193D01*
X9682093Y-17828193D02*
X9696379Y-17842479D01*
X9682093Y-17856764D01*
X9667807Y-17842479D01*
X9682093Y-17828193D01*
X9682093Y-17856764D01*
X9967807Y-17556764D02*
X9824950Y-17556764D01*
X9810664Y-17699622D01*
X9824950Y-17685336D01*
X9853521Y-17671050D01*
X9924950Y-17671050D01*
X9953521Y-17685336D01*
X9967807Y-17699622D01*
X9982093Y-17728193D01*
X9982093Y-17799622D01*
X9967807Y-17828193D01*
X9953521Y-17842479D01*
X9924950Y-17856764D01*
X9853521Y-17856764D01*
X9824950Y-17842479D01*
X9810664Y-17828193D01*
X10167807Y-17556764D02*
X10196379Y-17556764D01*
X10224950Y-17571050D01*
X10239236Y-17585336D01*
X10253521Y-17613907D01*
X10267807Y-17671050D01*
X10267807Y-17742479D01*
X10253521Y-17799622D01*
X10239236Y-17828193D01*
X10224950Y-17842479D01*
X10196379Y-17856764D01*
X10167807Y-17856764D01*
X10139236Y-17842479D01*
X10124950Y-17828193D01*
X10110664Y-17799622D01*
X10096379Y-17742479D01*
X10096379Y-17671050D01*
X10110664Y-17613907D01*
X10124950Y-17585336D01*
X10139236Y-17571050D01*
X10167807Y-17556764D01*
X10396379Y-17856764D02*
X10396379Y-17656764D01*
X10396379Y-17685336D02*
X10410664Y-17671050D01*
X10439236Y-17656764D01*
X10482093Y-17656764D01*
X10510664Y-17671050D01*
X10524950Y-17699622D01*
X10524950Y-17856764D01*
X10524950Y-17699622D02*
X10539236Y-17671050D01*
X10567807Y-17656764D01*
X10610664Y-17656764D01*
X10639236Y-17671050D01*
X10653521Y-17699622D01*
X10653521Y-17856764D01*
X10796379Y-17856764D02*
X10796379Y-17656764D01*
X10796379Y-17685336D02*
X10810664Y-17671050D01*
X10839236Y-17656764D01*
X10882093Y-17656764D01*
X10910664Y-17671050D01*
X10924950Y-17699622D01*
X10924950Y-17856764D01*
X10924950Y-17699622D02*
X10939236Y-17671050D01*
X10967807Y-17656764D01*
X11010664Y-17656764D01*
X11039236Y-17671050D01*
X11053521Y-17699622D01*
X11053521Y-17856764D01*
X11639236Y-17542479D02*
X11382093Y-17928193D01*
X12024950Y-17556764D02*
X12053521Y-17556764D01*
X12082093Y-17571050D01*
X12096378Y-17585336D01*
X12110664Y-17613907D01*
X12124950Y-17671050D01*
X12124950Y-17742479D01*
X12110664Y-17799622D01*
X12096378Y-17828193D01*
X12082093Y-17842479D01*
X12053521Y-17856764D01*
X12024950Y-17856764D01*
X11996378Y-17842479D01*
X11982093Y-17828193D01*
X11967807Y-17799622D01*
X11953521Y-17742479D01*
X11953521Y-17671050D01*
X11967807Y-17613907D01*
X11982093Y-17585336D01*
X11996378Y-17571050D01*
X12024950Y-17556764D01*
X12253521Y-17828193D02*
X12267807Y-17842479D01*
X12253521Y-17856764D01*
X12239236Y-17842479D01*
X12253521Y-17828193D01*
X12253521Y-17856764D01*
X12553521Y-17856764D02*
X12382093Y-17856764D01*
X12467807Y-17856764D02*
X12467807Y-17556764D01*
X12439235Y-17599622D01*
X12410664Y-17628193D01*
X12382093Y-17642479D01*
X12653521Y-17556764D02*
X12839235Y-17556764D01*
X12739235Y-17671050D01*
X12782093Y-17671050D01*
X12810664Y-17685336D01*
X12824950Y-17699622D01*
X12839235Y-17728193D01*
X12839235Y-17799622D01*
X12824950Y-17828193D01*
X12810664Y-17842479D01*
X12782093Y-17856764D01*
X12696378Y-17856764D01*
X12667807Y-17842479D01*
X12653521Y-17828193D01*
X13010664Y-17685336D02*
X12982093Y-17671050D01*
X12967807Y-17656764D01*
X12953521Y-17628193D01*
X12953521Y-17613907D01*
X12967807Y-17585336D01*
X12982093Y-17571050D01*
X13010664Y-17556764D01*
X13067807Y-17556764D01*
X13096378Y-17571050D01*
X13110664Y-17585336D01*
X13124950Y-17613907D01*
X13124950Y-17628193D01*
X13110664Y-17656764D01*
X13096378Y-17671050D01*
X13067807Y-17685336D01*
X13010664Y-17685336D01*
X12982093Y-17699622D01*
X12967807Y-17713907D01*
X12953521Y-17742479D01*
X12953521Y-17799622D01*
X12967807Y-17828193D01*
X12982093Y-17842479D01*
X13010664Y-17856764D01*
X13067807Y-17856764D01*
X13096378Y-17842479D01*
X13110664Y-17828193D01*
X13124950Y-17799622D01*
X13124950Y-17742479D01*
X13110664Y-17713907D01*
X13096378Y-17699622D01*
X13067807Y-17685336D01*
X13239236Y-17556764D02*
X13239236Y-17613907D01*
X13353521Y-17556764D02*
X13353521Y-17613907D01*
X13796378Y-17971050D02*
X13782093Y-17956764D01*
X13753521Y-17913907D01*
X13739235Y-17885336D01*
X13724950Y-17842479D01*
X13710664Y-17771050D01*
X13710664Y-17713907D01*
X13724950Y-17642479D01*
X13739235Y-17599622D01*
X13753521Y-17571050D01*
X13782093Y-17528193D01*
X13796378Y-17513907D01*
X14039235Y-17656764D02*
X14039235Y-17856764D01*
X13967807Y-17542479D02*
X13896378Y-17756764D01*
X14082093Y-17756764D01*
X14424950Y-17856764D02*
X14424950Y-17556764D01*
X14553521Y-17856764D02*
X14553521Y-17699622D01*
X14539235Y-17671050D01*
X14510664Y-17656764D01*
X14467807Y-17656764D01*
X14439235Y-17671050D01*
X14424950Y-17685336D01*
X14739235Y-17856764D02*
X14710664Y-17842479D01*
X14696378Y-17828193D01*
X14682093Y-17799622D01*
X14682093Y-17713907D01*
X14696378Y-17685336D01*
X14710664Y-17671050D01*
X14739235Y-17656764D01*
X14782093Y-17656764D01*
X14810664Y-17671050D01*
X14824950Y-17685336D01*
X14839235Y-17713907D01*
X14839235Y-17799622D01*
X14824950Y-17828193D01*
X14810664Y-17842479D01*
X14782093Y-17856764D01*
X14739235Y-17856764D01*
X15010664Y-17856764D02*
X14982093Y-17842479D01*
X14967807Y-17813907D01*
X14967807Y-17556764D01*
X15239236Y-17842479D02*
X15210664Y-17856764D01*
X15153521Y-17856764D01*
X15124950Y-17842479D01*
X15110664Y-17813907D01*
X15110664Y-17699622D01*
X15124950Y-17671050D01*
X15153521Y-17656764D01*
X15210664Y-17656764D01*
X15239236Y-17671050D01*
X15253521Y-17699622D01*
X15253521Y-17728193D01*
X15110664Y-17756764D01*
X15367807Y-17842479D02*
X15396378Y-17856764D01*
X15453521Y-17856764D01*
X15482093Y-17842479D01*
X15496378Y-17813907D01*
X15496378Y-17799622D01*
X15482093Y-17771050D01*
X15453521Y-17756764D01*
X15410664Y-17756764D01*
X15382093Y-17742479D01*
X15367807Y-17713907D01*
X15367807Y-17699622D01*
X15382093Y-17671050D01*
X15410664Y-17656764D01*
X15453521Y-17656764D01*
X15482093Y-17671050D01*
X15596378Y-17971050D02*
X15610664Y-17956764D01*
X15639236Y-17913907D01*
X15653521Y-17885336D01*
X15667807Y-17842479D01*
X15682093Y-17771050D01*
X15682093Y-17713907D01*
X15667807Y-17642479D01*
X15653521Y-17599622D01*
X15639236Y-17571050D01*
X15610664Y-17528193D01*
X15596378Y-17513907D01*
M02*
