G04 #@! TF.FileFunction,Legend,Bot*
%FSLAX46Y46*%
G04 Gerber Fmt 4.6, Leading zero omitted, Abs format (unit mm)*
G04 Created by KiCad (PCBNEW 4.0.5+dfsg1-4) date Wed May 24 13:42:23 2017*
%MOMM*%
%LPD*%
G01*
G04 APERTURE LIST*
%ADD10C,0.150000*%
%ADD11C,0.381000*%
%ADD12C,0.127000*%
%ADD13C,0.119380*%
%ADD14C,0.076200*%
%ADD15C,0.299720*%
G04 APERTURE END LIST*
D10*
D11*
X91440000Y-139700000D02*
X163195000Y-139700000D01*
X91440000Y-40005000D02*
X163195000Y-40005000D01*
X163195000Y-139700000D02*
X163195000Y-40005000D01*
X91440000Y-139700000D02*
X91440000Y-40005000D01*
D12*
X107188000Y-80518000D02*
X107696000Y-81280000D01*
X107188000Y-78740000D02*
X107188000Y-81343500D01*
X107188000Y-81343500D02*
X108712000Y-81343500D01*
X108712000Y-81343500D02*
X108712000Y-78740000D01*
X108712000Y-78740000D02*
X107188000Y-78740000D01*
X146177000Y-112268000D02*
X145415000Y-112776000D01*
X147955000Y-112268000D02*
X145351500Y-112268000D01*
X145351500Y-112268000D02*
X145351500Y-113792000D01*
X145351500Y-113792000D02*
X147955000Y-113792000D01*
X147955000Y-113792000D02*
X147955000Y-112268000D01*
X147447000Y-125603000D02*
X146685000Y-126111000D01*
X149225000Y-125603000D02*
X146621500Y-125603000D01*
X146621500Y-125603000D02*
X146621500Y-127127000D01*
X146621500Y-127127000D02*
X149225000Y-127127000D01*
X149225000Y-127127000D02*
X149225000Y-125603000D01*
X149987000Y-112268000D02*
X149225000Y-112776000D01*
X151765000Y-112268000D02*
X149161500Y-112268000D01*
X149161500Y-112268000D02*
X149161500Y-113792000D01*
X149161500Y-113792000D02*
X151765000Y-113792000D01*
X151765000Y-113792000D02*
X151765000Y-112268000D01*
X115443000Y-72390000D02*
X113157000Y-72390000D01*
X113157000Y-72390000D02*
X113157000Y-70739000D01*
X115443000Y-68961000D02*
X115443000Y-67310000D01*
X115443000Y-67310000D02*
X113157000Y-67310000D01*
X113157000Y-67310000D02*
X113157000Y-68961000D01*
X115443000Y-70739000D02*
X115443000Y-72390000D01*
X117983000Y-72390000D02*
X115697000Y-72390000D01*
X115697000Y-72390000D02*
X115697000Y-70739000D01*
X117983000Y-68961000D02*
X117983000Y-67310000D01*
X117983000Y-67310000D02*
X115697000Y-67310000D01*
X115697000Y-67310000D02*
X115697000Y-68961000D01*
X117983000Y-70739000D02*
X117983000Y-72390000D01*
X110363000Y-72390000D02*
X108077000Y-72390000D01*
X108077000Y-72390000D02*
X108077000Y-70739000D01*
X110363000Y-68961000D02*
X110363000Y-67310000D01*
X110363000Y-67310000D02*
X108077000Y-67310000D01*
X108077000Y-67310000D02*
X108077000Y-68961000D01*
X110363000Y-70739000D02*
X110363000Y-72390000D01*
X107823000Y-72390000D02*
X105537000Y-72390000D01*
X105537000Y-72390000D02*
X105537000Y-70739000D01*
X107823000Y-68961000D02*
X107823000Y-67310000D01*
X107823000Y-67310000D02*
X105537000Y-67310000D01*
X105537000Y-67310000D02*
X105537000Y-68961000D01*
X107823000Y-70739000D02*
X107823000Y-72390000D01*
X112903000Y-72390000D02*
X110617000Y-72390000D01*
X110617000Y-72390000D02*
X110617000Y-70739000D01*
X112903000Y-68961000D02*
X112903000Y-67310000D01*
X112903000Y-67310000D02*
X110617000Y-67310000D01*
X110617000Y-67310000D02*
X110617000Y-68961000D01*
X112903000Y-70739000D02*
X112903000Y-72390000D01*
X105283000Y-72390000D02*
X102997000Y-72390000D01*
X102997000Y-72390000D02*
X102997000Y-70739000D01*
X105283000Y-68961000D02*
X105283000Y-67310000D01*
X105283000Y-67310000D02*
X102997000Y-67310000D01*
X102997000Y-67310000D02*
X102997000Y-68961000D01*
X105283000Y-70739000D02*
X105283000Y-72390000D01*
X102743000Y-72390000D02*
X100457000Y-72390000D01*
X100457000Y-72390000D02*
X100457000Y-70739000D01*
X102743000Y-68961000D02*
X102743000Y-67310000D01*
X102743000Y-67310000D02*
X100457000Y-67310000D01*
X100457000Y-67310000D02*
X100457000Y-68961000D01*
X102743000Y-70739000D02*
X102743000Y-72390000D01*
X105283000Y-57150000D02*
X102997000Y-57150000D01*
X102997000Y-57150000D02*
X102997000Y-55499000D01*
X105283000Y-53721000D02*
X105283000Y-52070000D01*
X105283000Y-52070000D02*
X102997000Y-52070000D01*
X102997000Y-52070000D02*
X102997000Y-53721000D01*
X105283000Y-55499000D02*
X105283000Y-57150000D01*
X102743000Y-57150000D02*
X100457000Y-57150000D01*
X100457000Y-57150000D02*
X100457000Y-55499000D01*
X102743000Y-53721000D02*
X102743000Y-52070000D01*
X102743000Y-52070000D02*
X100457000Y-52070000D01*
X100457000Y-52070000D02*
X100457000Y-53721000D01*
X102743000Y-55499000D02*
X102743000Y-57150000D01*
X120523000Y-72390000D02*
X118237000Y-72390000D01*
X118237000Y-72390000D02*
X118237000Y-70739000D01*
X120523000Y-68961000D02*
X120523000Y-67310000D01*
X120523000Y-67310000D02*
X118237000Y-67310000D01*
X118237000Y-67310000D02*
X118237000Y-68961000D01*
X120523000Y-70739000D02*
X120523000Y-72390000D01*
X115443000Y-57150000D02*
X113157000Y-57150000D01*
X113157000Y-57150000D02*
X113157000Y-55499000D01*
X115443000Y-53721000D02*
X115443000Y-52070000D01*
X115443000Y-52070000D02*
X113157000Y-52070000D01*
X113157000Y-52070000D02*
X113157000Y-53721000D01*
X115443000Y-55499000D02*
X115443000Y-57150000D01*
X110363000Y-57150000D02*
X108077000Y-57150000D01*
X108077000Y-57150000D02*
X108077000Y-55499000D01*
X110363000Y-53721000D02*
X110363000Y-52070000D01*
X110363000Y-52070000D02*
X108077000Y-52070000D01*
X108077000Y-52070000D02*
X108077000Y-53721000D01*
X110363000Y-55499000D02*
X110363000Y-57150000D01*
X112903000Y-57150000D02*
X110617000Y-57150000D01*
X110617000Y-57150000D02*
X110617000Y-55499000D01*
X112903000Y-53721000D02*
X112903000Y-52070000D01*
X112903000Y-52070000D02*
X110617000Y-52070000D01*
X110617000Y-52070000D02*
X110617000Y-53721000D01*
X112903000Y-55499000D02*
X112903000Y-57150000D01*
X143637000Y-55880000D02*
X145923000Y-55880000D01*
X145923000Y-55880000D02*
X145923000Y-57531000D01*
X143637000Y-59309000D02*
X143637000Y-60960000D01*
X143637000Y-60960000D02*
X145923000Y-60960000D01*
X145923000Y-60960000D02*
X145923000Y-59309000D01*
X143637000Y-57531000D02*
X143637000Y-55880000D01*
X133985000Y-69977000D02*
X133985000Y-72263000D01*
X133985000Y-72263000D02*
X132334000Y-72263000D01*
X130556000Y-69977000D02*
X128905000Y-69977000D01*
X128905000Y-69977000D02*
X128905000Y-72263000D01*
X128905000Y-72263000D02*
X130556000Y-72263000D01*
X132334000Y-69977000D02*
X133985000Y-69977000D01*
X119253000Y-111760000D02*
X116967000Y-111760000D01*
X116967000Y-111760000D02*
X116967000Y-110109000D01*
X119253000Y-108331000D02*
X119253000Y-106680000D01*
X119253000Y-106680000D02*
X116967000Y-106680000D01*
X116967000Y-106680000D02*
X116967000Y-108331000D01*
X119253000Y-110109000D02*
X119253000Y-111760000D01*
X123190000Y-118618000D02*
X123190000Y-116332000D01*
X123190000Y-116332000D02*
X124841000Y-116332000D01*
X126619000Y-118618000D02*
X128270000Y-118618000D01*
X128270000Y-118618000D02*
X128270000Y-116332000D01*
X128270000Y-116332000D02*
X126619000Y-116332000D01*
X124841000Y-118618000D02*
X123190000Y-118618000D01*
X110490000Y-116332000D02*
X110490000Y-118618000D01*
X110490000Y-118618000D02*
X108839000Y-118618000D01*
X107061000Y-116332000D02*
X105410000Y-116332000D01*
X105410000Y-116332000D02*
X105410000Y-118618000D01*
X105410000Y-118618000D02*
X107061000Y-118618000D01*
X108839000Y-116332000D02*
X110490000Y-116332000D01*
X107823000Y-57150000D02*
X105537000Y-57150000D01*
X105537000Y-57150000D02*
X105537000Y-55499000D01*
X107823000Y-53721000D02*
X107823000Y-52070000D01*
X107823000Y-52070000D02*
X105537000Y-52070000D01*
X105537000Y-52070000D02*
X105537000Y-53721000D01*
X107823000Y-55499000D02*
X107823000Y-57150000D01*
X106807000Y-133985000D02*
X109093000Y-133985000D01*
X109093000Y-133985000D02*
X109093000Y-135636000D01*
X106807000Y-137414000D02*
X106807000Y-139065000D01*
X106807000Y-139065000D02*
X109093000Y-139065000D01*
X109093000Y-139065000D02*
X109093000Y-137414000D01*
X106807000Y-135636000D02*
X106807000Y-133985000D01*
X104902000Y-81915000D02*
X107188000Y-81915000D01*
X107188000Y-81915000D02*
X107188000Y-83566000D01*
X104902000Y-85344000D02*
X104902000Y-86995000D01*
X104902000Y-86995000D02*
X107188000Y-86995000D01*
X107188000Y-86995000D02*
X107188000Y-85344000D01*
X104902000Y-83566000D02*
X104902000Y-81915000D01*
D13*
X157175200Y-114609880D02*
X153974800Y-114609880D01*
X157175200Y-121610120D02*
X153974800Y-121610120D01*
X153969720Y-116913660D02*
X153969720Y-114627660D01*
X157180280Y-114627660D02*
X157180280Y-116913660D01*
X157180280Y-119308880D02*
X157180280Y-121594880D01*
X153969720Y-121594880D02*
X153969720Y-119308880D01*
D12*
X122555000Y-84963000D02*
X122555000Y-82677000D01*
X122555000Y-82677000D02*
X124206000Y-82677000D01*
X125984000Y-84963000D02*
X127635000Y-84963000D01*
X127635000Y-84963000D02*
X127635000Y-82677000D01*
X127635000Y-82677000D02*
X125984000Y-82677000D01*
X124206000Y-84963000D02*
X122555000Y-84963000D01*
D13*
X136329420Y-118254780D02*
X140530580Y-118254780D01*
X136329420Y-126855220D02*
X140530580Y-126855220D01*
X140535660Y-124551440D02*
X140535660Y-126837440D01*
X136324340Y-126837440D02*
X136324340Y-124551440D01*
X136324340Y-120556020D02*
X136324340Y-118270020D01*
X140535660Y-118272560D02*
X140535660Y-120558560D01*
D12*
X106807000Y-128270000D02*
X109093000Y-128270000D01*
X109093000Y-128270000D02*
X109093000Y-129921000D01*
X106807000Y-131699000D02*
X106807000Y-133350000D01*
X106807000Y-133350000D02*
X109093000Y-133350000D01*
X109093000Y-133350000D02*
X109093000Y-131699000D01*
X106807000Y-129921000D02*
X106807000Y-128270000D01*
X124460000Y-94107000D02*
X124460000Y-96393000D01*
X124460000Y-96393000D02*
X122809000Y-96393000D01*
X121031000Y-94107000D02*
X119380000Y-94107000D01*
X119380000Y-94107000D02*
X119380000Y-96393000D01*
X119380000Y-96393000D02*
X121031000Y-96393000D01*
X122809000Y-94107000D02*
X124460000Y-94107000D01*
X132207000Y-82550000D02*
X134493000Y-82550000D01*
X134493000Y-82550000D02*
X134493000Y-84201000D01*
X132207000Y-85979000D02*
X132207000Y-87630000D01*
X132207000Y-87630000D02*
X134493000Y-87630000D01*
X134493000Y-87630000D02*
X134493000Y-85979000D01*
X132207000Y-84201000D02*
X132207000Y-82550000D01*
X146050000Y-87503000D02*
X146050000Y-85217000D01*
X146050000Y-85217000D02*
X147701000Y-85217000D01*
X149479000Y-87503000D02*
X151130000Y-87503000D01*
X151130000Y-87503000D02*
X151130000Y-85217000D01*
X151130000Y-85217000D02*
X149479000Y-85217000D01*
X147701000Y-87503000D02*
X146050000Y-87503000D01*
X99187000Y-93980000D02*
X101473000Y-93980000D01*
X101473000Y-93980000D02*
X101473000Y-95631000D01*
X99187000Y-97409000D02*
X99187000Y-99060000D01*
X99187000Y-99060000D02*
X101473000Y-99060000D01*
X101473000Y-99060000D02*
X101473000Y-97409000D01*
X99187000Y-95631000D02*
X99187000Y-93980000D01*
X102997000Y-93980000D02*
X105283000Y-93980000D01*
X105283000Y-93980000D02*
X105283000Y-95631000D01*
X102997000Y-97409000D02*
X102997000Y-99060000D01*
X102997000Y-99060000D02*
X105283000Y-99060000D01*
X105283000Y-99060000D02*
X105283000Y-97409000D01*
X102997000Y-95631000D02*
X102997000Y-93980000D01*
X151638000Y-120650000D02*
X149352000Y-120650000D01*
X149352000Y-120650000D02*
X149352000Y-118999000D01*
X151638000Y-117221000D02*
X151638000Y-115570000D01*
X151638000Y-115570000D02*
X149352000Y-115570000D01*
X149352000Y-115570000D02*
X149352000Y-117221000D01*
X151638000Y-118999000D02*
X151638000Y-120650000D01*
X151003000Y-98425000D02*
X148717000Y-98425000D01*
X148717000Y-98425000D02*
X148717000Y-96774000D01*
X151003000Y-94996000D02*
X151003000Y-93345000D01*
X151003000Y-93345000D02*
X148717000Y-93345000D01*
X148717000Y-93345000D02*
X148717000Y-94996000D01*
X151003000Y-96774000D02*
X151003000Y-98425000D01*
X146685000Y-59563000D02*
X146685000Y-57277000D01*
X146685000Y-57277000D02*
X148336000Y-57277000D01*
X150114000Y-59563000D02*
X151765000Y-59563000D01*
X151765000Y-59563000D02*
X151765000Y-57277000D01*
X151765000Y-57277000D02*
X150114000Y-57277000D01*
X148336000Y-59563000D02*
X146685000Y-59563000D01*
X118237000Y-128270000D02*
X120523000Y-128270000D01*
X120523000Y-128270000D02*
X120523000Y-129921000D01*
X118237000Y-131699000D02*
X118237000Y-133350000D01*
X118237000Y-133350000D02*
X120523000Y-133350000D01*
X120523000Y-133350000D02*
X120523000Y-131699000D01*
X118237000Y-129921000D02*
X118237000Y-128270000D01*
X128270000Y-112522000D02*
X128270000Y-114808000D01*
X128270000Y-114808000D02*
X126619000Y-114808000D01*
X124841000Y-112522000D02*
X123190000Y-112522000D01*
X123190000Y-112522000D02*
X123190000Y-114808000D01*
X123190000Y-114808000D02*
X124841000Y-114808000D01*
X126619000Y-112522000D02*
X128270000Y-112522000D01*
X130302000Y-100330000D02*
X132588000Y-100330000D01*
X132588000Y-100330000D02*
X132588000Y-101981000D01*
X130302000Y-103759000D02*
X130302000Y-105410000D01*
X130302000Y-105410000D02*
X132588000Y-105410000D01*
X132588000Y-105410000D02*
X132588000Y-103759000D01*
X130302000Y-101981000D02*
X130302000Y-100330000D01*
X128397000Y-82550000D02*
X130683000Y-82550000D01*
X130683000Y-82550000D02*
X130683000Y-84201000D01*
X128397000Y-85979000D02*
X128397000Y-87630000D01*
X128397000Y-87630000D02*
X130683000Y-87630000D01*
X130683000Y-87630000D02*
X130683000Y-85979000D01*
X128397000Y-84201000D02*
X128397000Y-82550000D01*
X147193000Y-120650000D02*
X144907000Y-120650000D01*
X144907000Y-120650000D02*
X144907000Y-118999000D01*
X147193000Y-117221000D02*
X147193000Y-115570000D01*
X147193000Y-115570000D02*
X144907000Y-115570000D01*
X144907000Y-115570000D02*
X144907000Y-117221000D01*
X147193000Y-118999000D02*
X147193000Y-120650000D01*
X138938000Y-105410000D02*
X136652000Y-105410000D01*
X136652000Y-105410000D02*
X136652000Y-103759000D01*
X138938000Y-101981000D02*
X138938000Y-100330000D01*
X138938000Y-100330000D02*
X136652000Y-100330000D01*
X136652000Y-100330000D02*
X136652000Y-101981000D01*
X138938000Y-103759000D02*
X138938000Y-105410000D01*
X142113000Y-105410000D02*
X139827000Y-105410000D01*
X139827000Y-105410000D02*
X139827000Y-103759000D01*
X142113000Y-101981000D02*
X142113000Y-100330000D01*
X142113000Y-100330000D02*
X139827000Y-100330000D01*
X139827000Y-100330000D02*
X139827000Y-101981000D01*
X142113000Y-103759000D02*
X142113000Y-105410000D01*
X138430000Y-108458000D02*
X138430000Y-106172000D01*
X138430000Y-106172000D02*
X140081000Y-106172000D01*
X141859000Y-108458000D02*
X143510000Y-108458000D01*
X143510000Y-108458000D02*
X143510000Y-106172000D01*
X143510000Y-106172000D02*
X141859000Y-106172000D01*
X140081000Y-108458000D02*
X138430000Y-108458000D01*
X145923000Y-98425000D02*
X143637000Y-98425000D01*
X143637000Y-98425000D02*
X143637000Y-96774000D01*
X145923000Y-94996000D02*
X145923000Y-93345000D01*
X145923000Y-93345000D02*
X143637000Y-93345000D01*
X143637000Y-93345000D02*
X143637000Y-94996000D01*
X145923000Y-96774000D02*
X145923000Y-98425000D01*
X150495000Y-121412000D02*
X150495000Y-123698000D01*
X150495000Y-123698000D02*
X148844000Y-123698000D01*
X147066000Y-121412000D02*
X145415000Y-121412000D01*
X145415000Y-121412000D02*
X145415000Y-123698000D01*
X145415000Y-123698000D02*
X147066000Y-123698000D01*
X148844000Y-121412000D02*
X150495000Y-121412000D01*
X121285000Y-126873000D02*
X121285000Y-124587000D01*
X121285000Y-124587000D02*
X122936000Y-124587000D01*
X124714000Y-126873000D02*
X126365000Y-126873000D01*
X126365000Y-126873000D02*
X126365000Y-124587000D01*
X126365000Y-124587000D02*
X124714000Y-124587000D01*
X122936000Y-126873000D02*
X121285000Y-126873000D01*
X133477000Y-100330000D02*
X133477000Y-100076000D01*
X133477000Y-100076000D02*
X135763000Y-100076000D01*
X135763000Y-100076000D02*
X135763000Y-100330000D01*
X133477000Y-100330000D02*
X135763000Y-100330000D01*
X135763000Y-100330000D02*
X135763000Y-101981000D01*
X133477000Y-103759000D02*
X133477000Y-105410000D01*
X133477000Y-105410000D02*
X135763000Y-105410000D01*
X135763000Y-105410000D02*
X135763000Y-103759000D01*
X133477000Y-101981000D02*
X133477000Y-100330000D01*
X143002000Y-100330000D02*
X143002000Y-100076000D01*
X143002000Y-100076000D02*
X145288000Y-100076000D01*
X145288000Y-100076000D02*
X145288000Y-100330000D01*
X143002000Y-100330000D02*
X145288000Y-100330000D01*
X145288000Y-100330000D02*
X145288000Y-101981000D01*
X143002000Y-103759000D02*
X143002000Y-105410000D01*
X143002000Y-105410000D02*
X145288000Y-105410000D01*
X145288000Y-105410000D02*
X145288000Y-103759000D01*
X143002000Y-101981000D02*
X143002000Y-100330000D01*
D14*
X108168259Y-82128723D02*
X108192086Y-82200206D01*
X108215914Y-82224034D01*
X108263569Y-82247862D01*
X108335052Y-82247862D01*
X108382707Y-82224034D01*
X108406535Y-82200206D01*
X108430362Y-82152551D01*
X108430362Y-81961930D01*
X107929982Y-81961930D01*
X107929982Y-82128723D01*
X107953810Y-82176379D01*
X107977638Y-82200206D01*
X108025293Y-82224034D01*
X108072948Y-82224034D01*
X108120603Y-82200206D01*
X108144431Y-82176379D01*
X108168259Y-82128723D01*
X108168259Y-81961930D01*
X108382707Y-82748242D02*
X108406535Y-82724414D01*
X108430362Y-82652931D01*
X108430362Y-82605276D01*
X108406535Y-82533793D01*
X108358880Y-82486138D01*
X108311224Y-82462310D01*
X108215914Y-82438482D01*
X108144431Y-82438482D01*
X108049120Y-82462310D01*
X108001465Y-82486138D01*
X107953810Y-82533793D01*
X107929982Y-82605276D01*
X107929982Y-82652931D01*
X107953810Y-82724414D01*
X107977638Y-82748242D01*
X108144431Y-83034173D02*
X108120603Y-82986518D01*
X108096776Y-82962690D01*
X108049120Y-82938862D01*
X108025293Y-82938862D01*
X107977638Y-82962690D01*
X107953810Y-82986518D01*
X107929982Y-83034173D01*
X107929982Y-83129483D01*
X107953810Y-83177139D01*
X107977638Y-83200966D01*
X108025293Y-83224794D01*
X108049120Y-83224794D01*
X108096776Y-83200966D01*
X108120603Y-83177139D01*
X108144431Y-83129483D01*
X108144431Y-83034173D01*
X108168259Y-82986518D01*
X108192086Y-82962690D01*
X108239741Y-82938862D01*
X108335052Y-82938862D01*
X108382707Y-82962690D01*
X108406535Y-82986518D01*
X108430362Y-83034173D01*
X108430362Y-83129483D01*
X108406535Y-83177139D01*
X108382707Y-83200966D01*
X108335052Y-83224794D01*
X108239741Y-83224794D01*
X108192086Y-83200966D01*
X108168259Y-83177139D01*
X108144431Y-83129483D01*
X107929982Y-83677518D02*
X107929982Y-83439242D01*
X108168259Y-83415414D01*
X108144431Y-83439242D01*
X108120603Y-83486897D01*
X108120603Y-83606035D01*
X108144431Y-83653691D01*
X108168259Y-83677518D01*
X108215914Y-83701346D01*
X108335052Y-83701346D01*
X108382707Y-83677518D01*
X108406535Y-83653691D01*
X108430362Y-83606035D01*
X108430362Y-83486897D01*
X108406535Y-83439242D01*
X108382707Y-83415414D01*
X107929982Y-83868139D02*
X107929982Y-84201726D01*
X108430362Y-83987277D01*
X144693277Y-112994259D02*
X144621794Y-113018086D01*
X144597966Y-113041914D01*
X144574138Y-113089569D01*
X144574138Y-113161052D01*
X144597966Y-113208707D01*
X144621794Y-113232535D01*
X144669449Y-113256362D01*
X144860070Y-113256362D01*
X144860070Y-112755982D01*
X144693277Y-112755982D01*
X144645621Y-112779810D01*
X144621794Y-112803638D01*
X144597966Y-112851293D01*
X144597966Y-112898948D01*
X144621794Y-112946603D01*
X144645621Y-112970431D01*
X144693277Y-112994259D01*
X144860070Y-112994259D01*
X144073758Y-113208707D02*
X144097586Y-113232535D01*
X144169069Y-113256362D01*
X144216724Y-113256362D01*
X144288207Y-113232535D01*
X144335862Y-113184880D01*
X144359690Y-113137224D01*
X144383518Y-113041914D01*
X144383518Y-112970431D01*
X144359690Y-112875120D01*
X144335862Y-112827465D01*
X144288207Y-112779810D01*
X144216724Y-112755982D01*
X144169069Y-112755982D01*
X144097586Y-112779810D01*
X144073758Y-112803638D01*
X143787827Y-112970431D02*
X143835482Y-112946603D01*
X143859310Y-112922776D01*
X143883138Y-112875120D01*
X143883138Y-112851293D01*
X143859310Y-112803638D01*
X143835482Y-112779810D01*
X143787827Y-112755982D01*
X143692517Y-112755982D01*
X143644861Y-112779810D01*
X143621034Y-112803638D01*
X143597206Y-112851293D01*
X143597206Y-112875120D01*
X143621034Y-112922776D01*
X143644861Y-112946603D01*
X143692517Y-112970431D01*
X143787827Y-112970431D01*
X143835482Y-112994259D01*
X143859310Y-113018086D01*
X143883138Y-113065741D01*
X143883138Y-113161052D01*
X143859310Y-113208707D01*
X143835482Y-113232535D01*
X143787827Y-113256362D01*
X143692517Y-113256362D01*
X143644861Y-113232535D01*
X143621034Y-113208707D01*
X143597206Y-113161052D01*
X143597206Y-113065741D01*
X143621034Y-113018086D01*
X143644861Y-112994259D01*
X143692517Y-112970431D01*
X143168309Y-112922776D02*
X143168309Y-113256362D01*
X143287447Y-112732155D02*
X143406586Y-113089569D01*
X143096826Y-113089569D01*
X142953861Y-112755982D02*
X142620274Y-112755982D01*
X142834723Y-113256362D01*
X145963277Y-126456259D02*
X145891794Y-126480086D01*
X145867966Y-126503914D01*
X145844138Y-126551569D01*
X145844138Y-126623052D01*
X145867966Y-126670707D01*
X145891794Y-126694535D01*
X145939449Y-126718362D01*
X146130070Y-126718362D01*
X146130070Y-126217982D01*
X145963277Y-126217982D01*
X145915621Y-126241810D01*
X145891794Y-126265638D01*
X145867966Y-126313293D01*
X145867966Y-126360948D01*
X145891794Y-126408603D01*
X145915621Y-126432431D01*
X145963277Y-126456259D01*
X146130070Y-126456259D01*
X145343758Y-126670707D02*
X145367586Y-126694535D01*
X145439069Y-126718362D01*
X145486724Y-126718362D01*
X145558207Y-126694535D01*
X145605862Y-126646880D01*
X145629690Y-126599224D01*
X145653518Y-126503914D01*
X145653518Y-126432431D01*
X145629690Y-126337120D01*
X145605862Y-126289465D01*
X145558207Y-126241810D01*
X145486724Y-126217982D01*
X145439069Y-126217982D01*
X145367586Y-126241810D01*
X145343758Y-126265638D01*
X145057827Y-126432431D02*
X145105482Y-126408603D01*
X145129310Y-126384776D01*
X145153138Y-126337120D01*
X145153138Y-126313293D01*
X145129310Y-126265638D01*
X145105482Y-126241810D01*
X145057827Y-126217982D01*
X144962517Y-126217982D01*
X144914861Y-126241810D01*
X144891034Y-126265638D01*
X144867206Y-126313293D01*
X144867206Y-126337120D01*
X144891034Y-126384776D01*
X144914861Y-126408603D01*
X144962517Y-126432431D01*
X145057827Y-126432431D01*
X145105482Y-126456259D01*
X145129310Y-126480086D01*
X145153138Y-126527741D01*
X145153138Y-126623052D01*
X145129310Y-126670707D01*
X145105482Y-126694535D01*
X145057827Y-126718362D01*
X144962517Y-126718362D01*
X144914861Y-126694535D01*
X144891034Y-126670707D01*
X144867206Y-126623052D01*
X144867206Y-126527741D01*
X144891034Y-126480086D01*
X144914861Y-126456259D01*
X144962517Y-126432431D01*
X144414482Y-126217982D02*
X144652758Y-126217982D01*
X144676586Y-126456259D01*
X144652758Y-126432431D01*
X144605103Y-126408603D01*
X144485965Y-126408603D01*
X144438309Y-126432431D01*
X144414482Y-126456259D01*
X144390654Y-126503914D01*
X144390654Y-126623052D01*
X144414482Y-126670707D01*
X144438309Y-126694535D01*
X144485965Y-126718362D01*
X144605103Y-126718362D01*
X144652758Y-126694535D01*
X144676586Y-126670707D01*
X144223861Y-126217982D02*
X143890274Y-126217982D01*
X144104723Y-126718362D01*
X151297277Y-110200259D02*
X151225794Y-110224086D01*
X151201966Y-110247914D01*
X151178138Y-110295569D01*
X151178138Y-110367052D01*
X151201966Y-110414707D01*
X151225794Y-110438535D01*
X151273449Y-110462362D01*
X151464070Y-110462362D01*
X151464070Y-109961982D01*
X151297277Y-109961982D01*
X151249621Y-109985810D01*
X151225794Y-110009638D01*
X151201966Y-110057293D01*
X151201966Y-110104948D01*
X151225794Y-110152603D01*
X151249621Y-110176431D01*
X151297277Y-110200259D01*
X151464070Y-110200259D01*
X150677758Y-110414707D02*
X150701586Y-110438535D01*
X150773069Y-110462362D01*
X150820724Y-110462362D01*
X150892207Y-110438535D01*
X150939862Y-110390880D01*
X150963690Y-110343224D01*
X150987518Y-110247914D01*
X150987518Y-110176431D01*
X150963690Y-110081120D01*
X150939862Y-110033465D01*
X150892207Y-109985810D01*
X150820724Y-109961982D01*
X150773069Y-109961982D01*
X150701586Y-109985810D01*
X150677758Y-110009638D01*
X150391827Y-110176431D02*
X150439482Y-110152603D01*
X150463310Y-110128776D01*
X150487138Y-110081120D01*
X150487138Y-110057293D01*
X150463310Y-110009638D01*
X150439482Y-109985810D01*
X150391827Y-109961982D01*
X150296517Y-109961982D01*
X150248861Y-109985810D01*
X150225034Y-110009638D01*
X150201206Y-110057293D01*
X150201206Y-110081120D01*
X150225034Y-110128776D01*
X150248861Y-110152603D01*
X150296517Y-110176431D01*
X150391827Y-110176431D01*
X150439482Y-110200259D01*
X150463310Y-110224086D01*
X150487138Y-110271741D01*
X150487138Y-110367052D01*
X150463310Y-110414707D01*
X150439482Y-110438535D01*
X150391827Y-110462362D01*
X150296517Y-110462362D01*
X150248861Y-110438535D01*
X150225034Y-110414707D01*
X150201206Y-110367052D01*
X150201206Y-110271741D01*
X150225034Y-110224086D01*
X150248861Y-110200259D01*
X150296517Y-110176431D01*
X149772309Y-110128776D02*
X149772309Y-110462362D01*
X149891447Y-109938155D02*
X150010586Y-110295569D01*
X149700826Y-110295569D01*
X149557861Y-109961982D02*
X149224274Y-109961982D01*
X149438723Y-110462362D01*
D12*
X115279714Y-69432714D02*
X114808000Y-69432714D01*
X115062000Y-69723000D01*
X114953142Y-69723000D01*
X114880571Y-69759286D01*
X114844285Y-69795571D01*
X114808000Y-69868143D01*
X114808000Y-70049571D01*
X114844285Y-70122143D01*
X114880571Y-70158429D01*
X114953142Y-70194714D01*
X115170857Y-70194714D01*
X115243428Y-70158429D01*
X115279714Y-70122143D01*
X114554000Y-69432714D02*
X114082286Y-69432714D01*
X114336286Y-69723000D01*
X114227428Y-69723000D01*
X114154857Y-69759286D01*
X114118571Y-69795571D01*
X114082286Y-69868143D01*
X114082286Y-70049571D01*
X114118571Y-70122143D01*
X114154857Y-70158429D01*
X114227428Y-70194714D01*
X114445143Y-70194714D01*
X114517714Y-70158429D01*
X114554000Y-70122143D01*
X113610572Y-69432714D02*
X113538000Y-69432714D01*
X113465429Y-69469000D01*
X113429143Y-69505286D01*
X113392857Y-69577857D01*
X113356572Y-69723000D01*
X113356572Y-69904429D01*
X113392857Y-70049571D01*
X113429143Y-70122143D01*
X113465429Y-70158429D01*
X113538000Y-70194714D01*
X113610572Y-70194714D01*
X113683143Y-70158429D01*
X113719429Y-70122143D01*
X113755714Y-70049571D01*
X113792000Y-69904429D01*
X113792000Y-69723000D01*
X113755714Y-69577857D01*
X113719429Y-69505286D01*
X113683143Y-69469000D01*
X113610572Y-69432714D01*
X117819714Y-69432714D02*
X117348000Y-69432714D01*
X117602000Y-69723000D01*
X117493142Y-69723000D01*
X117420571Y-69759286D01*
X117384285Y-69795571D01*
X117348000Y-69868143D01*
X117348000Y-70049571D01*
X117384285Y-70122143D01*
X117420571Y-70158429D01*
X117493142Y-70194714D01*
X117710857Y-70194714D01*
X117783428Y-70158429D01*
X117819714Y-70122143D01*
X117094000Y-69432714D02*
X116622286Y-69432714D01*
X116876286Y-69723000D01*
X116767428Y-69723000D01*
X116694857Y-69759286D01*
X116658571Y-69795571D01*
X116622286Y-69868143D01*
X116622286Y-70049571D01*
X116658571Y-70122143D01*
X116694857Y-70158429D01*
X116767428Y-70194714D01*
X116985143Y-70194714D01*
X117057714Y-70158429D01*
X117094000Y-70122143D01*
X116150572Y-69432714D02*
X116078000Y-69432714D01*
X116005429Y-69469000D01*
X115969143Y-69505286D01*
X115932857Y-69577857D01*
X115896572Y-69723000D01*
X115896572Y-69904429D01*
X115932857Y-70049571D01*
X115969143Y-70122143D01*
X116005429Y-70158429D01*
X116078000Y-70194714D01*
X116150572Y-70194714D01*
X116223143Y-70158429D01*
X116259429Y-70122143D01*
X116295714Y-70049571D01*
X116332000Y-69904429D01*
X116332000Y-69723000D01*
X116295714Y-69577857D01*
X116259429Y-69505286D01*
X116223143Y-69469000D01*
X116150572Y-69432714D01*
X110199714Y-69432714D02*
X109728000Y-69432714D01*
X109982000Y-69723000D01*
X109873142Y-69723000D01*
X109800571Y-69759286D01*
X109764285Y-69795571D01*
X109728000Y-69868143D01*
X109728000Y-70049571D01*
X109764285Y-70122143D01*
X109800571Y-70158429D01*
X109873142Y-70194714D01*
X110090857Y-70194714D01*
X110163428Y-70158429D01*
X110199714Y-70122143D01*
X109474000Y-69432714D02*
X109002286Y-69432714D01*
X109256286Y-69723000D01*
X109147428Y-69723000D01*
X109074857Y-69759286D01*
X109038571Y-69795571D01*
X109002286Y-69868143D01*
X109002286Y-70049571D01*
X109038571Y-70122143D01*
X109074857Y-70158429D01*
X109147428Y-70194714D01*
X109365143Y-70194714D01*
X109437714Y-70158429D01*
X109474000Y-70122143D01*
X108530572Y-69432714D02*
X108458000Y-69432714D01*
X108385429Y-69469000D01*
X108349143Y-69505286D01*
X108312857Y-69577857D01*
X108276572Y-69723000D01*
X108276572Y-69904429D01*
X108312857Y-70049571D01*
X108349143Y-70122143D01*
X108385429Y-70158429D01*
X108458000Y-70194714D01*
X108530572Y-70194714D01*
X108603143Y-70158429D01*
X108639429Y-70122143D01*
X108675714Y-70049571D01*
X108712000Y-69904429D01*
X108712000Y-69723000D01*
X108675714Y-69577857D01*
X108639429Y-69505286D01*
X108603143Y-69469000D01*
X108530572Y-69432714D01*
X107659714Y-69432714D02*
X107188000Y-69432714D01*
X107442000Y-69723000D01*
X107333142Y-69723000D01*
X107260571Y-69759286D01*
X107224285Y-69795571D01*
X107188000Y-69868143D01*
X107188000Y-70049571D01*
X107224285Y-70122143D01*
X107260571Y-70158429D01*
X107333142Y-70194714D01*
X107550857Y-70194714D01*
X107623428Y-70158429D01*
X107659714Y-70122143D01*
X106934000Y-69432714D02*
X106462286Y-69432714D01*
X106716286Y-69723000D01*
X106607428Y-69723000D01*
X106534857Y-69759286D01*
X106498571Y-69795571D01*
X106462286Y-69868143D01*
X106462286Y-70049571D01*
X106498571Y-70122143D01*
X106534857Y-70158429D01*
X106607428Y-70194714D01*
X106825143Y-70194714D01*
X106897714Y-70158429D01*
X106934000Y-70122143D01*
X105990572Y-69432714D02*
X105918000Y-69432714D01*
X105845429Y-69469000D01*
X105809143Y-69505286D01*
X105772857Y-69577857D01*
X105736572Y-69723000D01*
X105736572Y-69904429D01*
X105772857Y-70049571D01*
X105809143Y-70122143D01*
X105845429Y-70158429D01*
X105918000Y-70194714D01*
X105990572Y-70194714D01*
X106063143Y-70158429D01*
X106099429Y-70122143D01*
X106135714Y-70049571D01*
X106172000Y-69904429D01*
X106172000Y-69723000D01*
X106135714Y-69577857D01*
X106099429Y-69505286D01*
X106063143Y-69469000D01*
X105990572Y-69432714D01*
X112739714Y-69432714D02*
X112268000Y-69432714D01*
X112522000Y-69723000D01*
X112413142Y-69723000D01*
X112340571Y-69759286D01*
X112304285Y-69795571D01*
X112268000Y-69868143D01*
X112268000Y-70049571D01*
X112304285Y-70122143D01*
X112340571Y-70158429D01*
X112413142Y-70194714D01*
X112630857Y-70194714D01*
X112703428Y-70158429D01*
X112739714Y-70122143D01*
X112014000Y-69432714D02*
X111542286Y-69432714D01*
X111796286Y-69723000D01*
X111687428Y-69723000D01*
X111614857Y-69759286D01*
X111578571Y-69795571D01*
X111542286Y-69868143D01*
X111542286Y-70049571D01*
X111578571Y-70122143D01*
X111614857Y-70158429D01*
X111687428Y-70194714D01*
X111905143Y-70194714D01*
X111977714Y-70158429D01*
X112014000Y-70122143D01*
X111070572Y-69432714D02*
X110998000Y-69432714D01*
X110925429Y-69469000D01*
X110889143Y-69505286D01*
X110852857Y-69577857D01*
X110816572Y-69723000D01*
X110816572Y-69904429D01*
X110852857Y-70049571D01*
X110889143Y-70122143D01*
X110925429Y-70158429D01*
X110998000Y-70194714D01*
X111070572Y-70194714D01*
X111143143Y-70158429D01*
X111179429Y-70122143D01*
X111215714Y-70049571D01*
X111252000Y-69904429D01*
X111252000Y-69723000D01*
X111215714Y-69577857D01*
X111179429Y-69505286D01*
X111143143Y-69469000D01*
X111070572Y-69432714D01*
X105119714Y-69432714D02*
X104648000Y-69432714D01*
X104902000Y-69723000D01*
X104793142Y-69723000D01*
X104720571Y-69759286D01*
X104684285Y-69795571D01*
X104648000Y-69868143D01*
X104648000Y-70049571D01*
X104684285Y-70122143D01*
X104720571Y-70158429D01*
X104793142Y-70194714D01*
X105010857Y-70194714D01*
X105083428Y-70158429D01*
X105119714Y-70122143D01*
X104394000Y-69432714D02*
X103922286Y-69432714D01*
X104176286Y-69723000D01*
X104067428Y-69723000D01*
X103994857Y-69759286D01*
X103958571Y-69795571D01*
X103922286Y-69868143D01*
X103922286Y-70049571D01*
X103958571Y-70122143D01*
X103994857Y-70158429D01*
X104067428Y-70194714D01*
X104285143Y-70194714D01*
X104357714Y-70158429D01*
X104394000Y-70122143D01*
X103450572Y-69432714D02*
X103378000Y-69432714D01*
X103305429Y-69469000D01*
X103269143Y-69505286D01*
X103232857Y-69577857D01*
X103196572Y-69723000D01*
X103196572Y-69904429D01*
X103232857Y-70049571D01*
X103269143Y-70122143D01*
X103305429Y-70158429D01*
X103378000Y-70194714D01*
X103450572Y-70194714D01*
X103523143Y-70158429D01*
X103559429Y-70122143D01*
X103595714Y-70049571D01*
X103632000Y-69904429D01*
X103632000Y-69723000D01*
X103595714Y-69577857D01*
X103559429Y-69505286D01*
X103523143Y-69469000D01*
X103450572Y-69432714D01*
X99404714Y-68870286D02*
X99404714Y-69342000D01*
X99695000Y-69088000D01*
X99695000Y-69196858D01*
X99731286Y-69269429D01*
X99767571Y-69305715D01*
X99840143Y-69342000D01*
X100021571Y-69342000D01*
X100094143Y-69305715D01*
X100130429Y-69269429D01*
X100166714Y-69196858D01*
X100166714Y-68979143D01*
X100130429Y-68906572D01*
X100094143Y-68870286D01*
X99404714Y-69596000D02*
X99404714Y-70067714D01*
X99695000Y-69813714D01*
X99695000Y-69922572D01*
X99731286Y-69995143D01*
X99767571Y-70031429D01*
X99840143Y-70067714D01*
X100021571Y-70067714D01*
X100094143Y-70031429D01*
X100130429Y-69995143D01*
X100166714Y-69922572D01*
X100166714Y-69704857D01*
X100130429Y-69632286D01*
X100094143Y-69596000D01*
X99404714Y-70539428D02*
X99404714Y-70612000D01*
X99441000Y-70684571D01*
X99477286Y-70720857D01*
X99549857Y-70757143D01*
X99695000Y-70793428D01*
X99876429Y-70793428D01*
X100021571Y-70757143D01*
X100094143Y-70720857D01*
X100130429Y-70684571D01*
X100166714Y-70612000D01*
X100166714Y-70539428D01*
X100130429Y-70466857D01*
X100094143Y-70430571D01*
X100021571Y-70394286D01*
X99876429Y-70358000D01*
X99695000Y-70358000D01*
X99549857Y-70394286D01*
X99477286Y-70430571D01*
X99441000Y-70466857D01*
X99404714Y-70539428D01*
X103722714Y-49820286D02*
X103722714Y-50292000D01*
X104013000Y-50038000D01*
X104013000Y-50146858D01*
X104049286Y-50219429D01*
X104085571Y-50255715D01*
X104158143Y-50292000D01*
X104339571Y-50292000D01*
X104412143Y-50255715D01*
X104448429Y-50219429D01*
X104484714Y-50146858D01*
X104484714Y-49929143D01*
X104448429Y-49856572D01*
X104412143Y-49820286D01*
X103722714Y-50546000D02*
X103722714Y-51017714D01*
X104013000Y-50763714D01*
X104013000Y-50872572D01*
X104049286Y-50945143D01*
X104085571Y-50981429D01*
X104158143Y-51017714D01*
X104339571Y-51017714D01*
X104412143Y-50981429D01*
X104448429Y-50945143D01*
X104484714Y-50872572D01*
X104484714Y-50654857D01*
X104448429Y-50582286D01*
X104412143Y-50546000D01*
X103722714Y-51489428D02*
X103722714Y-51562000D01*
X103759000Y-51634571D01*
X103795286Y-51670857D01*
X103867857Y-51707143D01*
X104013000Y-51743428D01*
X104194429Y-51743428D01*
X104339571Y-51707143D01*
X104412143Y-51670857D01*
X104448429Y-51634571D01*
X104484714Y-51562000D01*
X104484714Y-51489428D01*
X104448429Y-51416857D01*
X104412143Y-51380571D01*
X104339571Y-51344286D01*
X104194429Y-51308000D01*
X104013000Y-51308000D01*
X103867857Y-51344286D01*
X103795286Y-51380571D01*
X103759000Y-51416857D01*
X103722714Y-51489428D01*
X101182714Y-49820286D02*
X101182714Y-50292000D01*
X101473000Y-50038000D01*
X101473000Y-50146858D01*
X101509286Y-50219429D01*
X101545571Y-50255715D01*
X101618143Y-50292000D01*
X101799571Y-50292000D01*
X101872143Y-50255715D01*
X101908429Y-50219429D01*
X101944714Y-50146858D01*
X101944714Y-49929143D01*
X101908429Y-49856572D01*
X101872143Y-49820286D01*
X101182714Y-50546000D02*
X101182714Y-51017714D01*
X101473000Y-50763714D01*
X101473000Y-50872572D01*
X101509286Y-50945143D01*
X101545571Y-50981429D01*
X101618143Y-51017714D01*
X101799571Y-51017714D01*
X101872143Y-50981429D01*
X101908429Y-50945143D01*
X101944714Y-50872572D01*
X101944714Y-50654857D01*
X101908429Y-50582286D01*
X101872143Y-50546000D01*
X101182714Y-51489428D02*
X101182714Y-51562000D01*
X101219000Y-51634571D01*
X101255286Y-51670857D01*
X101327857Y-51707143D01*
X101473000Y-51743428D01*
X101654429Y-51743428D01*
X101799571Y-51707143D01*
X101872143Y-51670857D01*
X101908429Y-51634571D01*
X101944714Y-51562000D01*
X101944714Y-51489428D01*
X101908429Y-51416857D01*
X101872143Y-51380571D01*
X101799571Y-51344286D01*
X101654429Y-51308000D01*
X101473000Y-51308000D01*
X101327857Y-51344286D01*
X101255286Y-51380571D01*
X101219000Y-51416857D01*
X101182714Y-51489428D01*
X120994714Y-68870286D02*
X120994714Y-69342000D01*
X121285000Y-69088000D01*
X121285000Y-69196858D01*
X121321286Y-69269429D01*
X121357571Y-69305715D01*
X121430143Y-69342000D01*
X121611571Y-69342000D01*
X121684143Y-69305715D01*
X121720429Y-69269429D01*
X121756714Y-69196858D01*
X121756714Y-68979143D01*
X121720429Y-68906572D01*
X121684143Y-68870286D01*
X120994714Y-69596000D02*
X120994714Y-70067714D01*
X121285000Y-69813714D01*
X121285000Y-69922572D01*
X121321286Y-69995143D01*
X121357571Y-70031429D01*
X121430143Y-70067714D01*
X121611571Y-70067714D01*
X121684143Y-70031429D01*
X121720429Y-69995143D01*
X121756714Y-69922572D01*
X121756714Y-69704857D01*
X121720429Y-69632286D01*
X121684143Y-69596000D01*
X120994714Y-70539428D02*
X120994714Y-70612000D01*
X121031000Y-70684571D01*
X121067286Y-70720857D01*
X121139857Y-70757143D01*
X121285000Y-70793428D01*
X121466429Y-70793428D01*
X121611571Y-70757143D01*
X121684143Y-70720857D01*
X121720429Y-70684571D01*
X121756714Y-70612000D01*
X121756714Y-70539428D01*
X121720429Y-70466857D01*
X121684143Y-70430571D01*
X121611571Y-70394286D01*
X121466429Y-70358000D01*
X121285000Y-70358000D01*
X121139857Y-70394286D01*
X121067286Y-70430571D01*
X121031000Y-70466857D01*
X120994714Y-70539428D01*
X113882714Y-49820286D02*
X113882714Y-50292000D01*
X114173000Y-50038000D01*
X114173000Y-50146858D01*
X114209286Y-50219429D01*
X114245571Y-50255715D01*
X114318143Y-50292000D01*
X114499571Y-50292000D01*
X114572143Y-50255715D01*
X114608429Y-50219429D01*
X114644714Y-50146858D01*
X114644714Y-49929143D01*
X114608429Y-49856572D01*
X114572143Y-49820286D01*
X113882714Y-50546000D02*
X113882714Y-51017714D01*
X114173000Y-50763714D01*
X114173000Y-50872572D01*
X114209286Y-50945143D01*
X114245571Y-50981429D01*
X114318143Y-51017714D01*
X114499571Y-51017714D01*
X114572143Y-50981429D01*
X114608429Y-50945143D01*
X114644714Y-50872572D01*
X114644714Y-50654857D01*
X114608429Y-50582286D01*
X114572143Y-50546000D01*
X113882714Y-51489428D02*
X113882714Y-51562000D01*
X113919000Y-51634571D01*
X113955286Y-51670857D01*
X114027857Y-51707143D01*
X114173000Y-51743428D01*
X114354429Y-51743428D01*
X114499571Y-51707143D01*
X114572143Y-51670857D01*
X114608429Y-51634571D01*
X114644714Y-51562000D01*
X114644714Y-51489428D01*
X114608429Y-51416857D01*
X114572143Y-51380571D01*
X114499571Y-51344286D01*
X114354429Y-51308000D01*
X114173000Y-51308000D01*
X114027857Y-51344286D01*
X113955286Y-51380571D01*
X113919000Y-51416857D01*
X113882714Y-51489428D01*
X108802714Y-49820286D02*
X108802714Y-50292000D01*
X109093000Y-50038000D01*
X109093000Y-50146858D01*
X109129286Y-50219429D01*
X109165571Y-50255715D01*
X109238143Y-50292000D01*
X109419571Y-50292000D01*
X109492143Y-50255715D01*
X109528429Y-50219429D01*
X109564714Y-50146858D01*
X109564714Y-49929143D01*
X109528429Y-49856572D01*
X109492143Y-49820286D01*
X108802714Y-50546000D02*
X108802714Y-51017714D01*
X109093000Y-50763714D01*
X109093000Y-50872572D01*
X109129286Y-50945143D01*
X109165571Y-50981429D01*
X109238143Y-51017714D01*
X109419571Y-51017714D01*
X109492143Y-50981429D01*
X109528429Y-50945143D01*
X109564714Y-50872572D01*
X109564714Y-50654857D01*
X109528429Y-50582286D01*
X109492143Y-50546000D01*
X108802714Y-51489428D02*
X108802714Y-51562000D01*
X108839000Y-51634571D01*
X108875286Y-51670857D01*
X108947857Y-51707143D01*
X109093000Y-51743428D01*
X109274429Y-51743428D01*
X109419571Y-51707143D01*
X109492143Y-51670857D01*
X109528429Y-51634571D01*
X109564714Y-51562000D01*
X109564714Y-51489428D01*
X109528429Y-51416857D01*
X109492143Y-51380571D01*
X109419571Y-51344286D01*
X109274429Y-51308000D01*
X109093000Y-51308000D01*
X108947857Y-51344286D01*
X108875286Y-51380571D01*
X108839000Y-51416857D01*
X108802714Y-51489428D01*
X111342714Y-49820286D02*
X111342714Y-50292000D01*
X111633000Y-50038000D01*
X111633000Y-50146858D01*
X111669286Y-50219429D01*
X111705571Y-50255715D01*
X111778143Y-50292000D01*
X111959571Y-50292000D01*
X112032143Y-50255715D01*
X112068429Y-50219429D01*
X112104714Y-50146858D01*
X112104714Y-49929143D01*
X112068429Y-49856572D01*
X112032143Y-49820286D01*
X111342714Y-50546000D02*
X111342714Y-51017714D01*
X111633000Y-50763714D01*
X111633000Y-50872572D01*
X111669286Y-50945143D01*
X111705571Y-50981429D01*
X111778143Y-51017714D01*
X111959571Y-51017714D01*
X112032143Y-50981429D01*
X112068429Y-50945143D01*
X112104714Y-50872572D01*
X112104714Y-50654857D01*
X112068429Y-50582286D01*
X112032143Y-50546000D01*
X111342714Y-51489428D02*
X111342714Y-51562000D01*
X111379000Y-51634571D01*
X111415286Y-51670857D01*
X111487857Y-51707143D01*
X111633000Y-51743428D01*
X111814429Y-51743428D01*
X111959571Y-51707143D01*
X112032143Y-51670857D01*
X112068429Y-51634571D01*
X112104714Y-51562000D01*
X112104714Y-51489428D01*
X112068429Y-51416857D01*
X112032143Y-51380571D01*
X111959571Y-51344286D01*
X111814429Y-51308000D01*
X111633000Y-51308000D01*
X111487857Y-51344286D01*
X111415286Y-51380571D01*
X111379000Y-51416857D01*
X111342714Y-51489428D01*
X142330714Y-57440286D02*
X142330714Y-57912000D01*
X142621000Y-57658000D01*
X142621000Y-57766858D01*
X142657286Y-57839429D01*
X142693571Y-57875715D01*
X142766143Y-57912000D01*
X142947571Y-57912000D01*
X143020143Y-57875715D01*
X143056429Y-57839429D01*
X143092714Y-57766858D01*
X143092714Y-57549143D01*
X143056429Y-57476572D01*
X143020143Y-57440286D01*
X142330714Y-58166000D02*
X142330714Y-58637714D01*
X142621000Y-58383714D01*
X142621000Y-58492572D01*
X142657286Y-58565143D01*
X142693571Y-58601429D01*
X142766143Y-58637714D01*
X142947571Y-58637714D01*
X143020143Y-58601429D01*
X143056429Y-58565143D01*
X143092714Y-58492572D01*
X143092714Y-58274857D01*
X143056429Y-58202286D01*
X143020143Y-58166000D01*
X142330714Y-59109428D02*
X142330714Y-59182000D01*
X142367000Y-59254571D01*
X142403286Y-59290857D01*
X142475857Y-59327143D01*
X142621000Y-59363428D01*
X142802429Y-59363428D01*
X142947571Y-59327143D01*
X143020143Y-59290857D01*
X143056429Y-59254571D01*
X143092714Y-59182000D01*
X143092714Y-59109428D01*
X143056429Y-59036857D01*
X143020143Y-59000571D01*
X142947571Y-58964286D01*
X142802429Y-58928000D01*
X142621000Y-58928000D01*
X142475857Y-58964286D01*
X142403286Y-59000571D01*
X142367000Y-59036857D01*
X142330714Y-59109428D01*
X132551714Y-68670714D02*
X132080000Y-68670714D01*
X132334000Y-68961000D01*
X132225142Y-68961000D01*
X132152571Y-68997286D01*
X132116285Y-69033571D01*
X132080000Y-69106143D01*
X132080000Y-69287571D01*
X132116285Y-69360143D01*
X132152571Y-69396429D01*
X132225142Y-69432714D01*
X132442857Y-69432714D01*
X132515428Y-69396429D01*
X132551714Y-69360143D01*
X131826000Y-68670714D02*
X131354286Y-68670714D01*
X131608286Y-68961000D01*
X131499428Y-68961000D01*
X131426857Y-68997286D01*
X131390571Y-69033571D01*
X131354286Y-69106143D01*
X131354286Y-69287571D01*
X131390571Y-69360143D01*
X131426857Y-69396429D01*
X131499428Y-69432714D01*
X131717143Y-69432714D01*
X131789714Y-69396429D01*
X131826000Y-69360143D01*
X130882572Y-68670714D02*
X130810000Y-68670714D01*
X130737429Y-68707000D01*
X130701143Y-68743286D01*
X130664857Y-68815857D01*
X130628572Y-68961000D01*
X130628572Y-69142429D01*
X130664857Y-69287571D01*
X130701143Y-69360143D01*
X130737429Y-69396429D01*
X130810000Y-69432714D01*
X130882572Y-69432714D01*
X130955143Y-69396429D01*
X130991429Y-69360143D01*
X131027714Y-69287571D01*
X131064000Y-69142429D01*
X131064000Y-68961000D01*
X131027714Y-68815857D01*
X130991429Y-68743286D01*
X130955143Y-68707000D01*
X130882572Y-68670714D01*
X119470714Y-108240286D02*
X119470714Y-108712000D01*
X119761000Y-108458000D01*
X119761000Y-108566858D01*
X119797286Y-108639429D01*
X119833571Y-108675715D01*
X119906143Y-108712000D01*
X120087571Y-108712000D01*
X120160143Y-108675715D01*
X120196429Y-108639429D01*
X120232714Y-108566858D01*
X120232714Y-108349143D01*
X120196429Y-108276572D01*
X120160143Y-108240286D01*
X119470714Y-108966000D02*
X119470714Y-109437714D01*
X119761000Y-109183714D01*
X119761000Y-109292572D01*
X119797286Y-109365143D01*
X119833571Y-109401429D01*
X119906143Y-109437714D01*
X120087571Y-109437714D01*
X120160143Y-109401429D01*
X120196429Y-109365143D01*
X120232714Y-109292572D01*
X120232714Y-109074857D01*
X120196429Y-109002286D01*
X120160143Y-108966000D01*
X119470714Y-109909428D02*
X119470714Y-109982000D01*
X119507000Y-110054571D01*
X119543286Y-110090857D01*
X119615857Y-110127143D01*
X119761000Y-110163428D01*
X119942429Y-110163428D01*
X120087571Y-110127143D01*
X120160143Y-110090857D01*
X120196429Y-110054571D01*
X120232714Y-109982000D01*
X120232714Y-109909428D01*
X120196429Y-109836857D01*
X120160143Y-109800571D01*
X120087571Y-109764286D01*
X119942429Y-109728000D01*
X119761000Y-109728000D01*
X119615857Y-109764286D01*
X119543286Y-109800571D01*
X119507000Y-109836857D01*
X119470714Y-109909428D01*
X126709714Y-118962714D02*
X126238000Y-118962714D01*
X126492000Y-119253000D01*
X126383142Y-119253000D01*
X126310571Y-119289286D01*
X126274285Y-119325571D01*
X126238000Y-119398143D01*
X126238000Y-119579571D01*
X126274285Y-119652143D01*
X126310571Y-119688429D01*
X126383142Y-119724714D01*
X126600857Y-119724714D01*
X126673428Y-119688429D01*
X126709714Y-119652143D01*
X125984000Y-118962714D02*
X125512286Y-118962714D01*
X125766286Y-119253000D01*
X125657428Y-119253000D01*
X125584857Y-119289286D01*
X125548571Y-119325571D01*
X125512286Y-119398143D01*
X125512286Y-119579571D01*
X125548571Y-119652143D01*
X125584857Y-119688429D01*
X125657428Y-119724714D01*
X125875143Y-119724714D01*
X125947714Y-119688429D01*
X125984000Y-119652143D01*
X125040572Y-118962714D02*
X124968000Y-118962714D01*
X124895429Y-118999000D01*
X124859143Y-119035286D01*
X124822857Y-119107857D01*
X124786572Y-119253000D01*
X124786572Y-119434429D01*
X124822857Y-119579571D01*
X124859143Y-119652143D01*
X124895429Y-119688429D01*
X124968000Y-119724714D01*
X125040572Y-119724714D01*
X125113143Y-119688429D01*
X125149429Y-119652143D01*
X125185714Y-119579571D01*
X125222000Y-119434429D01*
X125222000Y-119253000D01*
X125185714Y-119107857D01*
X125149429Y-119035286D01*
X125113143Y-118999000D01*
X125040572Y-118962714D01*
X108929714Y-115406714D02*
X108458000Y-115406714D01*
X108712000Y-115697000D01*
X108603142Y-115697000D01*
X108530571Y-115733286D01*
X108494285Y-115769571D01*
X108458000Y-115842143D01*
X108458000Y-116023571D01*
X108494285Y-116096143D01*
X108530571Y-116132429D01*
X108603142Y-116168714D01*
X108820857Y-116168714D01*
X108893428Y-116132429D01*
X108929714Y-116096143D01*
X108204000Y-115406714D02*
X107732286Y-115406714D01*
X107986286Y-115697000D01*
X107877428Y-115697000D01*
X107804857Y-115733286D01*
X107768571Y-115769571D01*
X107732286Y-115842143D01*
X107732286Y-116023571D01*
X107768571Y-116096143D01*
X107804857Y-116132429D01*
X107877428Y-116168714D01*
X108095143Y-116168714D01*
X108167714Y-116132429D01*
X108204000Y-116096143D01*
X107260572Y-115406714D02*
X107188000Y-115406714D01*
X107115429Y-115443000D01*
X107079143Y-115479286D01*
X107042857Y-115551857D01*
X107006572Y-115697000D01*
X107006572Y-115878429D01*
X107042857Y-116023571D01*
X107079143Y-116096143D01*
X107115429Y-116132429D01*
X107188000Y-116168714D01*
X107260572Y-116168714D01*
X107333143Y-116132429D01*
X107369429Y-116096143D01*
X107405714Y-116023571D01*
X107442000Y-115878429D01*
X107442000Y-115697000D01*
X107405714Y-115551857D01*
X107369429Y-115479286D01*
X107333143Y-115443000D01*
X107260572Y-115406714D01*
X106262714Y-49820286D02*
X106262714Y-50292000D01*
X106553000Y-50038000D01*
X106553000Y-50146858D01*
X106589286Y-50219429D01*
X106625571Y-50255715D01*
X106698143Y-50292000D01*
X106879571Y-50292000D01*
X106952143Y-50255715D01*
X106988429Y-50219429D01*
X107024714Y-50146858D01*
X107024714Y-49929143D01*
X106988429Y-49856572D01*
X106952143Y-49820286D01*
X106262714Y-50546000D02*
X106262714Y-51017714D01*
X106553000Y-50763714D01*
X106553000Y-50872572D01*
X106589286Y-50945143D01*
X106625571Y-50981429D01*
X106698143Y-51017714D01*
X106879571Y-51017714D01*
X106952143Y-50981429D01*
X106988429Y-50945143D01*
X107024714Y-50872572D01*
X107024714Y-50654857D01*
X106988429Y-50582286D01*
X106952143Y-50546000D01*
X106262714Y-51489428D02*
X106262714Y-51562000D01*
X106299000Y-51634571D01*
X106335286Y-51670857D01*
X106407857Y-51707143D01*
X106553000Y-51743428D01*
X106734429Y-51743428D01*
X106879571Y-51707143D01*
X106952143Y-51670857D01*
X106988429Y-51634571D01*
X107024714Y-51562000D01*
X107024714Y-51489428D01*
X106988429Y-51416857D01*
X106952143Y-51380571D01*
X106879571Y-51344286D01*
X106734429Y-51308000D01*
X106553000Y-51308000D01*
X106407857Y-51344286D01*
X106335286Y-51380571D01*
X106299000Y-51416857D01*
X106262714Y-51489428D01*
X106516714Y-137214428D02*
X106516714Y-136779000D01*
X106516714Y-136996714D02*
X105754714Y-136996714D01*
X105863571Y-136924143D01*
X105936143Y-136851571D01*
X105972429Y-136779000D01*
X106008714Y-137541000D02*
X106516714Y-137541000D01*
X106081286Y-137541000D02*
X106045000Y-137577285D01*
X106008714Y-137649857D01*
X106008714Y-137758714D01*
X106045000Y-137831285D01*
X106117571Y-137867571D01*
X106516714Y-137867571D01*
X106117571Y-138484429D02*
X106117571Y-138230429D01*
X106516714Y-138230429D02*
X105754714Y-138230429D01*
X105754714Y-138593286D01*
X104484714Y-84237286D02*
X104484714Y-83801858D01*
X104484714Y-84019572D02*
X103722714Y-84019572D01*
X103831571Y-83947001D01*
X103904143Y-83874429D01*
X103940429Y-83801858D01*
X104484714Y-84563858D02*
X103722714Y-84563858D01*
X104194429Y-84636429D02*
X104484714Y-84854143D01*
X103976714Y-84854143D02*
X104267000Y-84563858D01*
X158913285Y-118173137D02*
X159313880Y-118173137D01*
X159113582Y-118173137D02*
X159113582Y-117472097D01*
X159180348Y-117572246D01*
X159247114Y-117639011D01*
X159313880Y-117672394D01*
X158312394Y-117705777D02*
X158312394Y-118173137D01*
X158612840Y-117705777D02*
X158612840Y-118072989D01*
X158579457Y-118139754D01*
X158512691Y-118173137D01*
X158412543Y-118173137D01*
X158345777Y-118139754D01*
X158312394Y-118106371D01*
X157744886Y-117805926D02*
X157978566Y-117805926D01*
X157978566Y-118173137D02*
X157978566Y-117472097D01*
X157644737Y-117472097D01*
D15*
X153882997Y-121829649D02*
X153882997Y-122990792D01*
X154463569Y-122410221D02*
X153302426Y-122410221D01*
D12*
X125820714Y-81878714D02*
X126183571Y-81878714D01*
X126219857Y-82241571D01*
X126183571Y-82205286D01*
X126111000Y-82169000D01*
X125929571Y-82169000D01*
X125857000Y-82205286D01*
X125820714Y-82241571D01*
X125784429Y-82314143D01*
X125784429Y-82495571D01*
X125820714Y-82568143D01*
X125857000Y-82604429D01*
X125929571Y-82640714D01*
X126111000Y-82640714D01*
X126183571Y-82604429D01*
X126219857Y-82568143D01*
X125131286Y-81878714D02*
X125276429Y-81878714D01*
X125349000Y-81915000D01*
X125385286Y-81951286D01*
X125457857Y-82060143D01*
X125494143Y-82205286D01*
X125494143Y-82495571D01*
X125457857Y-82568143D01*
X125421572Y-82604429D01*
X125349000Y-82640714D01*
X125203857Y-82640714D01*
X125131286Y-82604429D01*
X125095000Y-82568143D01*
X125058715Y-82495571D01*
X125058715Y-82314143D01*
X125095000Y-82241571D01*
X125131286Y-82205286D01*
X125203857Y-82169000D01*
X125349000Y-82169000D01*
X125421572Y-82205286D01*
X125457857Y-82241571D01*
X125494143Y-82314143D01*
X124732143Y-82132714D02*
X124732143Y-82640714D01*
X124732143Y-82205286D02*
X124695858Y-82169000D01*
X124623286Y-82132714D01*
X124514429Y-82132714D01*
X124441858Y-82169000D01*
X124405572Y-82241571D01*
X124405572Y-82640714D01*
X123788714Y-82241571D02*
X124042714Y-82241571D01*
X124042714Y-82640714D02*
X124042714Y-81878714D01*
X123679857Y-81878714D01*
X135690428Y-122237500D02*
X135690428Y-122830167D01*
X135871857Y-121898833D02*
X136053285Y-122533833D01*
X135581571Y-122533833D01*
X135291285Y-122745500D02*
X135255000Y-122787833D01*
X135291285Y-122830167D01*
X135327571Y-122787833D01*
X135291285Y-122745500D01*
X135291285Y-122830167D01*
X135001000Y-121941167D02*
X134493000Y-121941167D01*
X134819571Y-122830167D01*
X133876143Y-122237500D02*
X133876143Y-122830167D01*
X134202714Y-122237500D02*
X134202714Y-122703167D01*
X134166429Y-122787833D01*
X134093857Y-122830167D01*
X133985000Y-122830167D01*
X133912429Y-122787833D01*
X133876143Y-122745500D01*
X133259285Y-122364500D02*
X133513285Y-122364500D01*
X133513285Y-122830167D02*
X133513285Y-121941167D01*
X133150428Y-121941167D01*
D15*
X140840097Y-117374489D02*
X140840097Y-118535632D01*
X141420669Y-117955061D02*
X140259526Y-117955061D01*
D12*
X108040714Y-125911429D02*
X108548714Y-125911429D01*
X107750429Y-125730000D02*
X108294714Y-125548572D01*
X108294714Y-126020286D01*
X107786714Y-126238000D02*
X107786714Y-126746000D01*
X108548714Y-126419429D01*
X107786714Y-127181428D02*
X107786714Y-127254000D01*
X107823000Y-127326571D01*
X107859286Y-127362857D01*
X107931857Y-127399143D01*
X108077000Y-127435428D01*
X108258429Y-127435428D01*
X108403571Y-127399143D01*
X108476143Y-127362857D01*
X108512429Y-127326571D01*
X108548714Y-127254000D01*
X108548714Y-127181428D01*
X108512429Y-127108857D01*
X108476143Y-127072571D01*
X108403571Y-127036286D01*
X108258429Y-127000000D01*
X108077000Y-127000000D01*
X107931857Y-127036286D01*
X107859286Y-127072571D01*
X107823000Y-127108857D01*
X107786714Y-127181428D01*
X122899714Y-93054714D02*
X122428000Y-93054714D01*
X122682000Y-93345000D01*
X122573142Y-93345000D01*
X122500571Y-93381286D01*
X122464285Y-93417571D01*
X122428000Y-93490143D01*
X122428000Y-93671571D01*
X122464285Y-93744143D01*
X122500571Y-93780429D01*
X122573142Y-93816714D01*
X122790857Y-93816714D01*
X122863428Y-93780429D01*
X122899714Y-93744143D01*
X122174000Y-93054714D02*
X121702286Y-93054714D01*
X121956286Y-93345000D01*
X121847428Y-93345000D01*
X121774857Y-93381286D01*
X121738571Y-93417571D01*
X121702286Y-93490143D01*
X121702286Y-93671571D01*
X121738571Y-93744143D01*
X121774857Y-93780429D01*
X121847428Y-93816714D01*
X122065143Y-93816714D01*
X122137714Y-93780429D01*
X122174000Y-93744143D01*
X121230572Y-93054714D02*
X121158000Y-93054714D01*
X121085429Y-93091000D01*
X121049143Y-93127286D01*
X121012857Y-93199857D01*
X120976572Y-93345000D01*
X120976572Y-93526429D01*
X121012857Y-93671571D01*
X121049143Y-93744143D01*
X121085429Y-93780429D01*
X121158000Y-93816714D01*
X121230572Y-93816714D01*
X121303143Y-93780429D01*
X121339429Y-93744143D01*
X121375714Y-93671571D01*
X121412000Y-93526429D01*
X121412000Y-93345000D01*
X121375714Y-93199857D01*
X121339429Y-93127286D01*
X121303143Y-93091000D01*
X121230572Y-93054714D01*
X133948714Y-79955571D02*
X133948714Y-79520143D01*
X133948714Y-79737857D02*
X133186714Y-79737857D01*
X133295571Y-79665286D01*
X133368143Y-79592714D01*
X133404429Y-79520143D01*
X133513286Y-80391000D02*
X133477000Y-80318428D01*
X133440714Y-80282143D01*
X133368143Y-80245857D01*
X133331857Y-80245857D01*
X133259286Y-80282143D01*
X133223000Y-80318428D01*
X133186714Y-80391000D01*
X133186714Y-80536143D01*
X133223000Y-80608714D01*
X133259286Y-80645000D01*
X133331857Y-80681285D01*
X133368143Y-80681285D01*
X133440714Y-80645000D01*
X133477000Y-80608714D01*
X133513286Y-80536143D01*
X133513286Y-80391000D01*
X133549571Y-80318428D01*
X133585857Y-80282143D01*
X133658429Y-80245857D01*
X133803571Y-80245857D01*
X133876143Y-80282143D01*
X133912429Y-80318428D01*
X133948714Y-80391000D01*
X133948714Y-80536143D01*
X133912429Y-80608714D01*
X133876143Y-80645000D01*
X133803571Y-80681285D01*
X133658429Y-80681285D01*
X133585857Y-80645000D01*
X133549571Y-80608714D01*
X133513286Y-80536143D01*
X133440714Y-81007857D02*
X134202714Y-81007857D01*
X133477000Y-81007857D02*
X133440714Y-81080428D01*
X133440714Y-81225571D01*
X133477000Y-81298142D01*
X133513286Y-81334428D01*
X133585857Y-81370714D01*
X133803571Y-81370714D01*
X133876143Y-81334428D01*
X133912429Y-81298142D01*
X133948714Y-81225571D01*
X133948714Y-81080428D01*
X133912429Y-81007857D01*
X133549571Y-81951286D02*
X133549571Y-81697286D01*
X133948714Y-81697286D02*
X133186714Y-81697286D01*
X133186714Y-82060143D01*
X149333857Y-84672714D02*
X149188714Y-84672714D01*
X149116142Y-84636429D01*
X149079857Y-84600143D01*
X149007285Y-84491286D01*
X148971000Y-84346143D01*
X148971000Y-84055857D01*
X149007285Y-83983286D01*
X149043571Y-83947000D01*
X149116142Y-83910714D01*
X149261285Y-83910714D01*
X149333857Y-83947000D01*
X149370142Y-83983286D01*
X149406428Y-84055857D01*
X149406428Y-84237286D01*
X149370142Y-84309857D01*
X149333857Y-84346143D01*
X149261285Y-84382429D01*
X149116142Y-84382429D01*
X149043571Y-84346143D01*
X149007285Y-84309857D01*
X148971000Y-84237286D01*
X148644428Y-84600143D02*
X148608143Y-84636429D01*
X148644428Y-84672714D01*
X148680714Y-84636429D01*
X148644428Y-84600143D01*
X148644428Y-84672714D01*
X147882429Y-84672714D02*
X148317857Y-84672714D01*
X148100143Y-84672714D02*
X148100143Y-83910714D01*
X148172714Y-84019571D01*
X148245286Y-84092143D01*
X148317857Y-84128429D01*
X147555857Y-84672714D02*
X147555857Y-83910714D01*
X147483286Y-84382429D02*
X147265572Y-84672714D01*
X147265572Y-84164714D02*
X147555857Y-84455000D01*
X98896714Y-96429286D02*
X98896714Y-95993858D01*
X98896714Y-96211572D02*
X98134714Y-96211572D01*
X98243571Y-96139001D01*
X98316143Y-96066429D01*
X98352429Y-95993858D01*
X98896714Y-96755858D02*
X98134714Y-96755858D01*
X98606429Y-96828429D02*
X98896714Y-97046143D01*
X98388714Y-97046143D02*
X98679000Y-96755858D01*
X106008714Y-96429286D02*
X106008714Y-95993858D01*
X106008714Y-96211572D02*
X105246714Y-96211572D01*
X105355571Y-96139001D01*
X105428143Y-96066429D01*
X105464429Y-95993858D01*
X106008714Y-96755858D02*
X105246714Y-96755858D01*
X105718429Y-96828429D02*
X106008714Y-97046143D01*
X105500714Y-97046143D02*
X105791000Y-96755858D01*
X148680714Y-117783429D02*
X149188714Y-117783429D01*
X148390429Y-117602000D02*
X148934714Y-117420572D01*
X148934714Y-117892286D01*
X148426714Y-118110000D02*
X148426714Y-118618000D01*
X149188714Y-118291429D01*
X148426714Y-119053428D02*
X148426714Y-119126000D01*
X148463000Y-119198571D01*
X148499286Y-119234857D01*
X148571857Y-119271143D01*
X148717000Y-119307428D01*
X148898429Y-119307428D01*
X149043571Y-119271143D01*
X149116143Y-119234857D01*
X149152429Y-119198571D01*
X149188714Y-119126000D01*
X149188714Y-119053428D01*
X149152429Y-118980857D01*
X149116143Y-118944571D01*
X149043571Y-118908286D01*
X148898429Y-118872000D01*
X148717000Y-118872000D01*
X148571857Y-118908286D01*
X148499286Y-118944571D01*
X148463000Y-118980857D01*
X148426714Y-119053428D01*
X152744714Y-95921286D02*
X152744714Y-95485858D01*
X152744714Y-95703572D02*
X151982714Y-95703572D01*
X152091571Y-95631001D01*
X152164143Y-95558429D01*
X152200429Y-95485858D01*
X152744714Y-96247858D02*
X151982714Y-96247858D01*
X152454429Y-96320429D02*
X152744714Y-96538143D01*
X152236714Y-96538143D02*
X152527000Y-96247858D01*
X150331714Y-60034714D02*
X149860000Y-60034714D01*
X150114000Y-60325000D01*
X150005142Y-60325000D01*
X149932571Y-60361286D01*
X149896285Y-60397571D01*
X149860000Y-60470143D01*
X149860000Y-60651571D01*
X149896285Y-60724143D01*
X149932571Y-60760429D01*
X150005142Y-60796714D01*
X150222857Y-60796714D01*
X150295428Y-60760429D01*
X150331714Y-60724143D01*
X149606000Y-60034714D02*
X149134286Y-60034714D01*
X149388286Y-60325000D01*
X149279428Y-60325000D01*
X149206857Y-60361286D01*
X149170571Y-60397571D01*
X149134286Y-60470143D01*
X149134286Y-60651571D01*
X149170571Y-60724143D01*
X149206857Y-60760429D01*
X149279428Y-60796714D01*
X149497143Y-60796714D01*
X149569714Y-60760429D01*
X149606000Y-60724143D01*
X148662572Y-60034714D02*
X148590000Y-60034714D01*
X148517429Y-60071000D01*
X148481143Y-60107286D01*
X148444857Y-60179857D01*
X148408572Y-60325000D01*
X148408572Y-60506429D01*
X148444857Y-60651571D01*
X148481143Y-60724143D01*
X148517429Y-60760429D01*
X148590000Y-60796714D01*
X148662572Y-60796714D01*
X148735143Y-60760429D01*
X148771429Y-60724143D01*
X148807714Y-60651571D01*
X148844000Y-60506429D01*
X148844000Y-60325000D01*
X148807714Y-60179857D01*
X148771429Y-60107286D01*
X148735143Y-60071000D01*
X148662572Y-60034714D01*
X119216714Y-125911429D02*
X119724714Y-125911429D01*
X118926429Y-125730000D02*
X119470714Y-125548572D01*
X119470714Y-126020286D01*
X118962714Y-126238000D02*
X118962714Y-126746000D01*
X119724714Y-126419429D01*
X118962714Y-127181428D02*
X118962714Y-127254000D01*
X118999000Y-127326571D01*
X119035286Y-127362857D01*
X119107857Y-127399143D01*
X119253000Y-127435428D01*
X119434429Y-127435428D01*
X119579571Y-127399143D01*
X119652143Y-127362857D01*
X119688429Y-127326571D01*
X119724714Y-127254000D01*
X119724714Y-127181428D01*
X119688429Y-127108857D01*
X119652143Y-127072571D01*
X119579571Y-127036286D01*
X119434429Y-127000000D01*
X119253000Y-127000000D01*
X119107857Y-127036286D01*
X119035286Y-127072571D01*
X118999000Y-127108857D01*
X118962714Y-127181428D01*
X126709714Y-111596714D02*
X126238000Y-111596714D01*
X126492000Y-111887000D01*
X126383142Y-111887000D01*
X126310571Y-111923286D01*
X126274285Y-111959571D01*
X126238000Y-112032143D01*
X126238000Y-112213571D01*
X126274285Y-112286143D01*
X126310571Y-112322429D01*
X126383142Y-112358714D01*
X126600857Y-112358714D01*
X126673428Y-112322429D01*
X126709714Y-112286143D01*
X125984000Y-111596714D02*
X125512286Y-111596714D01*
X125766286Y-111887000D01*
X125657428Y-111887000D01*
X125584857Y-111923286D01*
X125548571Y-111959571D01*
X125512286Y-112032143D01*
X125512286Y-112213571D01*
X125548571Y-112286143D01*
X125584857Y-112322429D01*
X125657428Y-112358714D01*
X125875143Y-112358714D01*
X125947714Y-112322429D01*
X125984000Y-112286143D01*
X125040572Y-111596714D02*
X124968000Y-111596714D01*
X124895429Y-111633000D01*
X124859143Y-111669286D01*
X124822857Y-111741857D01*
X124786572Y-111887000D01*
X124786572Y-112068429D01*
X124822857Y-112213571D01*
X124859143Y-112286143D01*
X124895429Y-112322429D01*
X124968000Y-112358714D01*
X125040572Y-112358714D01*
X125113143Y-112322429D01*
X125149429Y-112286143D01*
X125185714Y-112213571D01*
X125222000Y-112068429D01*
X125222000Y-111887000D01*
X125185714Y-111741857D01*
X125149429Y-111669286D01*
X125113143Y-111633000D01*
X125040572Y-111596714D01*
X131154714Y-97572286D02*
X131154714Y-98044000D01*
X131445000Y-97790000D01*
X131445000Y-97898858D01*
X131481286Y-97971429D01*
X131517571Y-98007715D01*
X131590143Y-98044000D01*
X131771571Y-98044000D01*
X131844143Y-98007715D01*
X131880429Y-97971429D01*
X131916714Y-97898858D01*
X131916714Y-97681143D01*
X131880429Y-97608572D01*
X131844143Y-97572286D01*
X131154714Y-98298000D02*
X131154714Y-98769714D01*
X131445000Y-98515714D01*
X131445000Y-98624572D01*
X131481286Y-98697143D01*
X131517571Y-98733429D01*
X131590143Y-98769714D01*
X131771571Y-98769714D01*
X131844143Y-98733429D01*
X131880429Y-98697143D01*
X131916714Y-98624572D01*
X131916714Y-98406857D01*
X131880429Y-98334286D01*
X131844143Y-98298000D01*
X131154714Y-99241428D02*
X131154714Y-99314000D01*
X131191000Y-99386571D01*
X131227286Y-99422857D01*
X131299857Y-99459143D01*
X131445000Y-99495428D01*
X131626429Y-99495428D01*
X131771571Y-99459143D01*
X131844143Y-99422857D01*
X131880429Y-99386571D01*
X131916714Y-99314000D01*
X131916714Y-99241428D01*
X131880429Y-99168857D01*
X131844143Y-99132571D01*
X131771571Y-99096286D01*
X131626429Y-99060000D01*
X131445000Y-99060000D01*
X131299857Y-99096286D01*
X131227286Y-99132571D01*
X131191000Y-99168857D01*
X131154714Y-99241428D01*
X129884714Y-79955571D02*
X129884714Y-79520143D01*
X129884714Y-79737857D02*
X129122714Y-79737857D01*
X129231571Y-79665286D01*
X129304143Y-79592714D01*
X129340429Y-79520143D01*
X129449286Y-80391000D02*
X129413000Y-80318428D01*
X129376714Y-80282143D01*
X129304143Y-80245857D01*
X129267857Y-80245857D01*
X129195286Y-80282143D01*
X129159000Y-80318428D01*
X129122714Y-80391000D01*
X129122714Y-80536143D01*
X129159000Y-80608714D01*
X129195286Y-80645000D01*
X129267857Y-80681285D01*
X129304143Y-80681285D01*
X129376714Y-80645000D01*
X129413000Y-80608714D01*
X129449286Y-80536143D01*
X129449286Y-80391000D01*
X129485571Y-80318428D01*
X129521857Y-80282143D01*
X129594429Y-80245857D01*
X129739571Y-80245857D01*
X129812143Y-80282143D01*
X129848429Y-80318428D01*
X129884714Y-80391000D01*
X129884714Y-80536143D01*
X129848429Y-80608714D01*
X129812143Y-80645000D01*
X129739571Y-80681285D01*
X129594429Y-80681285D01*
X129521857Y-80645000D01*
X129485571Y-80608714D01*
X129449286Y-80536143D01*
X129376714Y-81007857D02*
X130138714Y-81007857D01*
X129413000Y-81007857D02*
X129376714Y-81080428D01*
X129376714Y-81225571D01*
X129413000Y-81298142D01*
X129449286Y-81334428D01*
X129521857Y-81370714D01*
X129739571Y-81370714D01*
X129812143Y-81334428D01*
X129848429Y-81298142D01*
X129884714Y-81225571D01*
X129884714Y-81080428D01*
X129848429Y-81007857D01*
X129485571Y-81951286D02*
X129485571Y-81697286D01*
X129884714Y-81697286D02*
X129122714Y-81697286D01*
X129122714Y-82060143D01*
X144108714Y-117656429D02*
X144616714Y-117656429D01*
X143818429Y-117475000D02*
X144362714Y-117293572D01*
X144362714Y-117765286D01*
X144544143Y-118055572D02*
X144580429Y-118091857D01*
X144616714Y-118055572D01*
X144580429Y-118019286D01*
X144544143Y-118055572D01*
X144616714Y-118055572D01*
X143854714Y-118345857D02*
X143854714Y-118853857D01*
X144616714Y-118527286D01*
X144616714Y-119144143D02*
X143854714Y-119144143D01*
X144326429Y-119216714D02*
X144616714Y-119434428D01*
X144108714Y-119434428D02*
X144399000Y-119144143D01*
X137250714Y-98334286D02*
X137250714Y-98189143D01*
X137287000Y-98116572D01*
X137323286Y-98080286D01*
X137432143Y-98007715D01*
X137577286Y-97971429D01*
X137867571Y-97971429D01*
X137940143Y-98007715D01*
X137976429Y-98044000D01*
X138012714Y-98116572D01*
X138012714Y-98261715D01*
X137976429Y-98334286D01*
X137940143Y-98370572D01*
X137867571Y-98406857D01*
X137686143Y-98406857D01*
X137613571Y-98370572D01*
X137577286Y-98334286D01*
X137541000Y-98261715D01*
X137541000Y-98116572D01*
X137577286Y-98044000D01*
X137613571Y-98007715D01*
X137686143Y-97971429D01*
X137577286Y-98842286D02*
X137541000Y-98769714D01*
X137504714Y-98733429D01*
X137432143Y-98697143D01*
X137395857Y-98697143D01*
X137323286Y-98733429D01*
X137287000Y-98769714D01*
X137250714Y-98842286D01*
X137250714Y-98987429D01*
X137287000Y-99060000D01*
X137323286Y-99096286D01*
X137395857Y-99132571D01*
X137432143Y-99132571D01*
X137504714Y-99096286D01*
X137541000Y-99060000D01*
X137577286Y-98987429D01*
X137577286Y-98842286D01*
X137613571Y-98769714D01*
X137649857Y-98733429D01*
X137722429Y-98697143D01*
X137867571Y-98697143D01*
X137940143Y-98733429D01*
X137976429Y-98769714D01*
X138012714Y-98842286D01*
X138012714Y-98987429D01*
X137976429Y-99060000D01*
X137940143Y-99096286D01*
X137867571Y-99132571D01*
X137722429Y-99132571D01*
X137649857Y-99096286D01*
X137613571Y-99060000D01*
X137577286Y-98987429D01*
X140298714Y-98334286D02*
X140298714Y-98189143D01*
X140335000Y-98116572D01*
X140371286Y-98080286D01*
X140480143Y-98007715D01*
X140625286Y-97971429D01*
X140915571Y-97971429D01*
X140988143Y-98007715D01*
X141024429Y-98044000D01*
X141060714Y-98116572D01*
X141060714Y-98261715D01*
X141024429Y-98334286D01*
X140988143Y-98370572D01*
X140915571Y-98406857D01*
X140734143Y-98406857D01*
X140661571Y-98370572D01*
X140625286Y-98334286D01*
X140589000Y-98261715D01*
X140589000Y-98116572D01*
X140625286Y-98044000D01*
X140661571Y-98007715D01*
X140734143Y-97971429D01*
X140625286Y-98842286D02*
X140589000Y-98769714D01*
X140552714Y-98733429D01*
X140480143Y-98697143D01*
X140443857Y-98697143D01*
X140371286Y-98733429D01*
X140335000Y-98769714D01*
X140298714Y-98842286D01*
X140298714Y-98987429D01*
X140335000Y-99060000D01*
X140371286Y-99096286D01*
X140443857Y-99132571D01*
X140480143Y-99132571D01*
X140552714Y-99096286D01*
X140589000Y-99060000D01*
X140625286Y-98987429D01*
X140625286Y-98842286D01*
X140661571Y-98769714D01*
X140697857Y-98733429D01*
X140770429Y-98697143D01*
X140915571Y-98697143D01*
X140988143Y-98733429D01*
X141024429Y-98769714D01*
X141060714Y-98842286D01*
X141060714Y-98987429D01*
X141024429Y-99060000D01*
X140988143Y-99096286D01*
X140915571Y-99132571D01*
X140770429Y-99132571D01*
X140697857Y-99096286D01*
X140661571Y-99060000D01*
X140625286Y-98987429D01*
X142294428Y-109383286D02*
X142258142Y-109347000D01*
X142185571Y-109310714D01*
X142004142Y-109310714D01*
X141931571Y-109347000D01*
X141895285Y-109383286D01*
X141859000Y-109455857D01*
X141859000Y-109528429D01*
X141895285Y-109637286D01*
X142330714Y-110072714D01*
X141859000Y-110072714D01*
X141532428Y-110000143D02*
X141496143Y-110036429D01*
X141532428Y-110072714D01*
X141568714Y-110036429D01*
X141532428Y-110000143D01*
X141532428Y-110072714D01*
X141205857Y-109383286D02*
X141169571Y-109347000D01*
X141097000Y-109310714D01*
X140915571Y-109310714D01*
X140843000Y-109347000D01*
X140806714Y-109383286D01*
X140770429Y-109455857D01*
X140770429Y-109528429D01*
X140806714Y-109637286D01*
X141242143Y-110072714D01*
X140770429Y-110072714D01*
X140443857Y-110072714D02*
X140443857Y-109310714D01*
X140371286Y-109782429D02*
X140153572Y-110072714D01*
X140153572Y-109564714D02*
X140443857Y-109855000D01*
X147156714Y-95921286D02*
X147156714Y-95485858D01*
X147156714Y-95703572D02*
X146394714Y-95703572D01*
X146503571Y-95631001D01*
X146576143Y-95558429D01*
X146612429Y-95485858D01*
X147156714Y-96247858D02*
X146394714Y-96247858D01*
X146866429Y-96320429D02*
X147156714Y-96538143D01*
X146648714Y-96538143D02*
X146939000Y-96247858D01*
X144580428Y-123280714D02*
X145015856Y-123280714D01*
X144798142Y-123280714D02*
X144798142Y-122518714D01*
X144870713Y-122627571D01*
X144943285Y-122700143D01*
X145015856Y-122736429D01*
X144108714Y-122518714D02*
X144036142Y-122518714D01*
X143963571Y-122555000D01*
X143927285Y-122591286D01*
X143890999Y-122663857D01*
X143854714Y-122809000D01*
X143854714Y-122990429D01*
X143890999Y-123135571D01*
X143927285Y-123208143D01*
X143963571Y-123244429D01*
X144036142Y-123280714D01*
X144108714Y-123280714D01*
X144181285Y-123244429D01*
X144217571Y-123208143D01*
X144253856Y-123135571D01*
X144290142Y-122990429D01*
X144290142Y-122809000D01*
X144253856Y-122663857D01*
X144217571Y-122591286D01*
X144181285Y-122555000D01*
X144108714Y-122518714D01*
X143383000Y-122518714D02*
X143310428Y-122518714D01*
X143237857Y-122555000D01*
X143201571Y-122591286D01*
X143165285Y-122663857D01*
X143129000Y-122809000D01*
X143129000Y-122990429D01*
X143165285Y-123135571D01*
X143201571Y-123208143D01*
X143237857Y-123244429D01*
X143310428Y-123280714D01*
X143383000Y-123280714D01*
X143455571Y-123244429D01*
X143491857Y-123208143D01*
X143528142Y-123135571D01*
X143564428Y-122990429D01*
X143564428Y-122809000D01*
X143528142Y-122663857D01*
X143491857Y-122591286D01*
X143455571Y-122555000D01*
X143383000Y-122518714D01*
X142802428Y-123280714D02*
X142802428Y-122518714D01*
X142729857Y-122990429D02*
X142512143Y-123280714D01*
X142512143Y-122772714D02*
X142802428Y-123063000D01*
X124405571Y-124296714D02*
X124840999Y-124296714D01*
X124623285Y-124296714D02*
X124623285Y-123534714D01*
X124695856Y-123643571D01*
X124768428Y-123716143D01*
X124840999Y-123752429D01*
X123716142Y-123534714D02*
X124078999Y-123534714D01*
X124115285Y-123897571D01*
X124078999Y-123861286D01*
X124006428Y-123825000D01*
X123824999Y-123825000D01*
X123752428Y-123861286D01*
X123716142Y-123897571D01*
X123679857Y-123970143D01*
X123679857Y-124151571D01*
X123716142Y-124224143D01*
X123752428Y-124260429D01*
X123824999Y-124296714D01*
X124006428Y-124296714D01*
X124078999Y-124260429D01*
X124115285Y-124224143D01*
X123353285Y-124296714D02*
X123353285Y-123534714D01*
X123280714Y-124006429D02*
X123063000Y-124296714D01*
X123063000Y-123788714D02*
X123353285Y-124079000D01*
X134202714Y-97427143D02*
X134202714Y-97898857D01*
X134493000Y-97644857D01*
X134493000Y-97753715D01*
X134529286Y-97826286D01*
X134565571Y-97862572D01*
X134638143Y-97898857D01*
X134819571Y-97898857D01*
X134892143Y-97862572D01*
X134928429Y-97826286D01*
X134964714Y-97753715D01*
X134964714Y-97536000D01*
X134928429Y-97463429D01*
X134892143Y-97427143D01*
X134892143Y-98225429D02*
X134928429Y-98261714D01*
X134964714Y-98225429D01*
X134928429Y-98189143D01*
X134892143Y-98225429D01*
X134964714Y-98225429D01*
X134202714Y-98914857D02*
X134202714Y-98769714D01*
X134239000Y-98697143D01*
X134275286Y-98660857D01*
X134384143Y-98588286D01*
X134529286Y-98552000D01*
X134819571Y-98552000D01*
X134892143Y-98588286D01*
X134928429Y-98624571D01*
X134964714Y-98697143D01*
X134964714Y-98842286D01*
X134928429Y-98914857D01*
X134892143Y-98951143D01*
X134819571Y-98987428D01*
X134638143Y-98987428D01*
X134565571Y-98951143D01*
X134529286Y-98914857D01*
X134493000Y-98842286D01*
X134493000Y-98697143D01*
X134529286Y-98624571D01*
X134565571Y-98588286D01*
X134638143Y-98552000D01*
X134202714Y-99205142D02*
X134964714Y-99459142D01*
X134202714Y-99713142D01*
X145886714Y-101999143D02*
X145886714Y-102470857D01*
X146177000Y-102216857D01*
X146177000Y-102325715D01*
X146213286Y-102398286D01*
X146249571Y-102434572D01*
X146322143Y-102470857D01*
X146503571Y-102470857D01*
X146576143Y-102434572D01*
X146612429Y-102398286D01*
X146648714Y-102325715D01*
X146648714Y-102108000D01*
X146612429Y-102035429D01*
X146576143Y-101999143D01*
X146576143Y-102797429D02*
X146612429Y-102833714D01*
X146648714Y-102797429D01*
X146612429Y-102761143D01*
X146576143Y-102797429D01*
X146648714Y-102797429D01*
X145886714Y-103486857D02*
X145886714Y-103341714D01*
X145923000Y-103269143D01*
X145959286Y-103232857D01*
X146068143Y-103160286D01*
X146213286Y-103124000D01*
X146503571Y-103124000D01*
X146576143Y-103160286D01*
X146612429Y-103196571D01*
X146648714Y-103269143D01*
X146648714Y-103414286D01*
X146612429Y-103486857D01*
X146576143Y-103523143D01*
X146503571Y-103559428D01*
X146322143Y-103559428D01*
X146249571Y-103523143D01*
X146213286Y-103486857D01*
X146177000Y-103414286D01*
X146177000Y-103269143D01*
X146213286Y-103196571D01*
X146249571Y-103160286D01*
X146322143Y-103124000D01*
X145886714Y-103777142D02*
X146648714Y-104031142D01*
X145886714Y-104285142D01*
M02*
