G04 #@! TF.FileFunction,Copper,L1,Top,Signal*
%FSLAX46Y46*%
G04 Gerber Fmt 4.6, Leading zero omitted, Abs format (unit mm)*
G04 Created by KiCad (PCBNEW 4.0.5+dfsg1-4) date Wed May 24 13:42:23 2017*
%MOMM*%
%LPD*%
G01*
G04 APERTURE LIST*
%ADD10C,0.150000*%
%ADD11C,0.304800*%
%ADD12C,0.749300*%
%ADD13C,0.381000*%
%ADD14O,1.600200X2.999740*%
%ADD15C,4.000500*%
%ADD16C,1.998980*%
%ADD17R,1.699260X1.699260*%
%ADD18C,1.699260*%
%ADD19C,1.778000*%
%ADD20R,1.778000X1.778000*%
%ADD21R,1.397000X1.397000*%
%ADD22C,1.397000*%
%ADD23C,4.064000*%
%ADD24C,2.499360*%
%ADD25C,1.600200*%
%ADD26C,0.599440*%
%ADD27C,0.254000*%
G04 APERTURE END LIST*
D10*
D11*
X116476720Y-127269300D02*
X115810393Y-126317405D01*
X115334446Y-127269300D02*
X115334446Y-125270320D01*
X116095962Y-125270320D01*
X116286341Y-125365510D01*
X116381530Y-125460700D01*
X116476720Y-125651079D01*
X116476720Y-125936647D01*
X116381530Y-126127026D01*
X116286341Y-126222216D01*
X116095962Y-126317405D01*
X115334446Y-126317405D01*
X117333426Y-126222216D02*
X117999752Y-126222216D01*
X118285321Y-127269300D02*
X117333426Y-127269300D01*
X117333426Y-125270320D01*
X118285321Y-125270320D01*
X119046837Y-127174111D02*
X119332406Y-127269300D01*
X119808353Y-127269300D01*
X119998732Y-127174111D01*
X120093922Y-127078921D01*
X120189111Y-126888542D01*
X120189111Y-126698163D01*
X120093922Y-126507784D01*
X119998732Y-126412595D01*
X119808353Y-126317405D01*
X119427595Y-126222216D01*
X119237216Y-126127026D01*
X119142027Y-126031837D01*
X119046837Y-125841458D01*
X119046837Y-125651079D01*
X119142027Y-125460700D01*
X119237216Y-125365510D01*
X119427595Y-125270320D01*
X119903543Y-125270320D01*
X120189111Y-125365510D01*
X121045817Y-126222216D02*
X121712143Y-126222216D01*
X121997712Y-127269300D02*
X121045817Y-127269300D01*
X121045817Y-125270320D01*
X121997712Y-125270320D01*
X122568849Y-125270320D02*
X123711123Y-125270320D01*
X123139986Y-127269300D02*
X123139986Y-125270320D01*
X103809257Y-126222216D02*
X104475583Y-126222216D01*
X104761152Y-127269300D02*
X103809257Y-127269300D01*
X103809257Y-125270320D01*
X104761152Y-125270320D01*
X106760132Y-127269300D02*
X106093805Y-126317405D01*
X105617858Y-127269300D02*
X105617858Y-125270320D01*
X106379374Y-125270320D01*
X106569753Y-125365510D01*
X106664942Y-125460700D01*
X106760132Y-125651079D01*
X106760132Y-125936647D01*
X106664942Y-126127026D01*
X106569753Y-126222216D01*
X106379374Y-126317405D01*
X105617858Y-126317405D01*
X107521648Y-126698163D02*
X108473543Y-126698163D01*
X107331269Y-127269300D02*
X107997596Y-125270320D01*
X108663922Y-127269300D01*
X109235059Y-127174111D02*
X109520628Y-127269300D01*
X109996575Y-127269300D01*
X110186954Y-127174111D01*
X110282144Y-127078921D01*
X110377333Y-126888542D01*
X110377333Y-126698163D01*
X110282144Y-126507784D01*
X110186954Y-126412595D01*
X109996575Y-126317405D01*
X109615817Y-126222216D01*
X109425438Y-126127026D01*
X109330249Y-126031837D01*
X109235059Y-125841458D01*
X109235059Y-125651079D01*
X109330249Y-125460700D01*
X109425438Y-125365510D01*
X109615817Y-125270320D01*
X110091765Y-125270320D01*
X110377333Y-125365510D01*
X111234039Y-126222216D02*
X111900365Y-126222216D01*
X112185934Y-127269300D02*
X111234039Y-127269300D01*
X111234039Y-125270320D01*
X112185934Y-125270320D01*
D12*
X130494315Y-104084180D02*
X130922849Y-104227025D01*
X131637073Y-104227025D01*
X131922763Y-104084180D01*
X132065607Y-103941336D01*
X132208452Y-103655646D01*
X132208452Y-103369957D01*
X132065607Y-103084267D01*
X131922763Y-102941422D01*
X131637073Y-102798578D01*
X131065694Y-102655733D01*
X130780005Y-102512888D01*
X130637160Y-102370043D01*
X130494315Y-102084354D01*
X130494315Y-101798664D01*
X130637160Y-101512975D01*
X130780005Y-101370130D01*
X131065694Y-101227285D01*
X131779918Y-101227285D01*
X132208452Y-101370130D01*
X133494055Y-102655733D02*
X134493968Y-102655733D01*
X134922502Y-104227025D02*
X133494055Y-104227025D01*
X133494055Y-101227285D01*
X134922502Y-101227285D01*
X137922242Y-104227025D02*
X136922329Y-102798578D01*
X136208105Y-104227025D02*
X136208105Y-101227285D01*
X137350863Y-101227285D01*
X137636552Y-101370130D01*
X137779397Y-101512975D01*
X137922242Y-101798664D01*
X137922242Y-102227199D01*
X137779397Y-102512888D01*
X137636552Y-102655733D01*
X137350863Y-102798578D01*
X136208105Y-102798578D01*
X138779311Y-101227285D02*
X139779224Y-104227025D01*
X140779137Y-101227285D01*
X141779051Y-104227025D02*
X141779051Y-101227285D01*
X144921636Y-103941336D02*
X144778791Y-104084180D01*
X144350257Y-104227025D01*
X144064567Y-104227025D01*
X143636033Y-104084180D01*
X143350344Y-103798491D01*
X143207499Y-103512801D01*
X143064654Y-102941422D01*
X143064654Y-102512888D01*
X143207499Y-101941509D01*
X143350344Y-101655820D01*
X143636033Y-101370130D01*
X144064567Y-101227285D01*
X144350257Y-101227285D01*
X144778791Y-101370130D01*
X144921636Y-101512975D01*
X146207239Y-102655733D02*
X147207152Y-102655733D01*
X147635686Y-104227025D02*
X146207239Y-104227025D01*
X146207239Y-101227285D01*
X147635686Y-101227285D01*
X99767632Y-104227025D02*
X99767632Y-101227285D01*
X101481769Y-104227025D01*
X101481769Y-101227285D01*
X103481596Y-101227285D02*
X104052975Y-101227285D01*
X104338664Y-101370130D01*
X104624354Y-101655820D01*
X104767199Y-102227199D01*
X104767199Y-103227112D01*
X104624354Y-103798491D01*
X104338664Y-104084180D01*
X104052975Y-104227025D01*
X103481596Y-104227025D01*
X103195906Y-104084180D01*
X102910217Y-103798491D01*
X102767372Y-103227112D01*
X102767372Y-102227199D01*
X102910217Y-101655820D01*
X103195906Y-101370130D01*
X103481596Y-101227285D01*
X107766939Y-104227025D02*
X106767026Y-102798578D01*
X106052802Y-104227025D02*
X106052802Y-101227285D01*
X107195560Y-101227285D01*
X107481249Y-101370130D01*
X107624094Y-101512975D01*
X107766939Y-101798664D01*
X107766939Y-102227199D01*
X107624094Y-102512888D01*
X107481249Y-102655733D01*
X107195560Y-102798578D01*
X106052802Y-102798578D01*
X109052542Y-104227025D02*
X109052542Y-101227285D01*
X110052455Y-103369957D01*
X111052368Y-101227285D01*
X111052368Y-104227025D01*
D11*
X142756770Y-44077285D02*
X144470907Y-44077285D01*
X143613838Y-47077025D02*
X143613838Y-44077285D01*
X146042199Y-44077285D02*
X146613578Y-44077285D01*
X146899267Y-44220130D01*
X147184957Y-44505820D01*
X147327802Y-45077199D01*
X147327802Y-46077112D01*
X147184957Y-46648491D01*
X146899267Y-46934180D01*
X146613578Y-47077025D01*
X146042199Y-47077025D01*
X145756509Y-46934180D01*
X145470820Y-46648491D01*
X145327975Y-46077112D01*
X145327975Y-45077199D01*
X145470820Y-44505820D01*
X145756509Y-44220130D01*
X146042199Y-44077285D01*
X148613405Y-47077025D02*
X148613405Y-44077285D01*
X149756163Y-44077285D01*
X150041852Y-44220130D01*
X150184697Y-44362975D01*
X150327542Y-44648664D01*
X150327542Y-45077199D01*
X150184697Y-45362888D01*
X150041852Y-45505733D01*
X149756163Y-45648578D01*
X148613405Y-45648578D01*
D13*
X91440000Y-139700000D02*
X163195000Y-139700000D01*
X91440000Y-40005000D02*
X163195000Y-40005000D01*
X163195000Y-139700000D02*
X163195000Y-40005000D01*
X91440000Y-139700000D02*
X91440000Y-40005000D01*
D14*
X134620000Y-125460760D03*
X132080000Y-125460760D03*
X132080000Y-128760220D03*
X134620000Y-128760220D03*
D15*
X139349480Y-130810000D03*
X127350520Y-130810000D03*
D16*
X133350000Y-95250000D03*
X128270000Y-95250000D03*
D14*
X111760000Y-117490240D03*
X111760000Y-113649760D03*
X114300000Y-117490240D03*
X114300000Y-113649760D03*
X116840000Y-117490240D03*
X116840000Y-113649760D03*
X119380000Y-117490240D03*
X119380000Y-113649760D03*
X121920000Y-117490240D03*
X121920000Y-113649760D03*
X124460000Y-60309760D03*
X124460000Y-64150240D03*
X121920000Y-60309760D03*
X121920000Y-64150240D03*
X119380000Y-60309760D03*
X119380000Y-64150240D03*
X116840000Y-60309760D03*
X116840000Y-64150240D03*
X114300000Y-60309760D03*
X114300000Y-64150240D03*
X111760000Y-60309760D03*
X111760000Y-64150240D03*
X109220000Y-60309760D03*
X109220000Y-64150240D03*
X106680000Y-60309760D03*
X106680000Y-64150240D03*
X104140000Y-60309760D03*
X104140000Y-64150240D03*
X101600000Y-60309760D03*
X101600000Y-64150240D03*
D16*
X154940000Y-126365000D03*
X152400000Y-126365000D03*
X96520000Y-127000000D03*
X99060000Y-127000000D03*
X101600000Y-127000000D03*
D17*
X119380000Y-102870000D03*
D18*
X116840000Y-102870000D03*
X114300000Y-102870000D03*
D17*
X119380000Y-105410000D03*
D18*
X116840000Y-105410000D03*
X114300000Y-105410000D03*
D17*
X119380000Y-100330000D03*
D18*
X116840000Y-100330000D03*
X114300000Y-100330000D03*
D14*
X101600000Y-90170000D03*
X104140000Y-90170000D03*
X106680000Y-90170000D03*
X109220000Y-90170000D03*
X111760000Y-90170000D03*
X114300000Y-90170000D03*
X116840000Y-90170000D03*
X119380000Y-90170000D03*
X121920000Y-90170000D03*
X124460000Y-90170000D03*
X127000000Y-90170000D03*
X129540000Y-90170000D03*
X132080000Y-90170000D03*
X134620000Y-90170000D03*
X137160000Y-90170000D03*
X139700000Y-90170000D03*
X142240000Y-90170000D03*
X144780000Y-90170000D03*
X147320000Y-90170000D03*
X149860000Y-90170000D03*
X149860000Y-74930000D03*
X147320000Y-74930000D03*
X144780000Y-74930000D03*
X142240000Y-74930000D03*
X139700000Y-74930000D03*
X137160000Y-74930000D03*
X134620000Y-74930000D03*
X132080000Y-74930000D03*
X129540000Y-74930000D03*
X127000000Y-74930000D03*
X124460000Y-74930000D03*
X121920000Y-74930000D03*
X119380000Y-74930000D03*
X116840000Y-74930000D03*
X114300000Y-74930000D03*
X111760000Y-74930000D03*
X109220000Y-74930000D03*
X106680000Y-74930000D03*
X104140000Y-74930000D03*
X101600000Y-74930000D03*
D19*
X157480000Y-113030000D03*
D20*
X157480000Y-123190000D03*
D19*
X153670000Y-113030000D03*
D20*
X153670000Y-123190000D03*
D19*
X156210000Y-74930000D03*
X156210000Y-90170000D03*
D21*
X153670000Y-107950000D03*
D22*
X156210000Y-107950000D03*
X156210000Y-105410000D03*
D23*
X96520000Y-134620000D03*
X158115000Y-134620000D03*
X158115000Y-45085000D03*
X96520000Y-45085000D03*
D24*
X116078000Y-135890000D03*
X115824000Y-130810000D03*
X122936000Y-135890000D03*
X122682000Y-130810000D03*
X104648000Y-135890000D03*
X104394000Y-130810000D03*
X111506000Y-135890000D03*
X111252000Y-130810000D03*
D25*
X121285000Y-122555000D03*
X110490000Y-122555000D03*
X104775000Y-114300000D03*
X104775000Y-122555000D03*
X121920000Y-80645000D03*
X127000000Y-80645000D03*
X137160000Y-48895000D03*
X111125000Y-83820000D03*
X111125000Y-78105000D03*
X123190000Y-97790000D03*
X113030000Y-97790000D03*
X142240000Y-52705000D03*
X130175000Y-67945000D03*
X130175000Y-53975000D03*
X121920000Y-102870000D03*
X128905000Y-102870000D03*
X122555000Y-107315000D03*
X131445000Y-107315000D03*
X139700000Y-50800000D03*
X134620000Y-46990000D03*
X132080000Y-45085000D03*
D26*
X121920000Y-80645000D02*
X127000000Y-80645000D01*
X104775000Y-114300000D02*
X104775000Y-122555000D01*
X110490000Y-122555000D02*
X121285000Y-122555000D01*
X137160000Y-48895000D02*
X137160000Y-74930000D01*
X111125000Y-78105000D02*
X111125000Y-83185000D01*
X111125000Y-83185000D02*
X111125000Y-83820000D01*
X113030000Y-97790000D02*
X123190000Y-97790000D01*
X142240000Y-52705000D02*
X142240000Y-74930000D01*
X130175000Y-53975000D02*
X130175000Y-67945000D01*
X121920000Y-102870000D02*
X128905000Y-102870000D01*
X122555000Y-107315000D02*
X131445000Y-107315000D01*
X139700000Y-50800000D02*
X139700000Y-74930000D01*
X134620000Y-46990000D02*
X134620000Y-74930000D01*
X132080000Y-45085000D02*
X132080000Y-74930000D01*
X127350520Y-139415520D02*
X127635000Y-139700000D01*
X127350520Y-130810000D02*
X127350520Y-139415520D01*
X139065000Y-122555000D02*
X139349480Y-122839480D01*
X139349480Y-122839480D02*
X139349480Y-130810000D01*
X127350520Y-130810000D02*
X127350520Y-122839480D01*
X139319000Y-139065000D02*
X139319000Y-133350000D01*
X139065000Y-139700000D02*
X139319000Y-139065000D01*
X127350520Y-122839480D02*
X127635000Y-122555000D01*
X127635000Y-139700000D02*
X139065000Y-139700000D01*
X127635000Y-122555000D02*
X139065000Y-122555000D01*
D27*
G36*
X162176460Y-138681460D02*
X140446760Y-138681460D01*
X140446760Y-135186401D01*
X155254465Y-135186401D01*
X155688963Y-136237966D01*
X156492802Y-137043210D01*
X157543607Y-137479542D01*
X158681401Y-137480535D01*
X159732966Y-137046037D01*
X160538210Y-136242198D01*
X160974542Y-135191393D01*
X160975535Y-134053599D01*
X160541037Y-133002034D01*
X159737198Y-132196790D01*
X158686393Y-131760458D01*
X157548599Y-131759465D01*
X156497034Y-132193963D01*
X155691790Y-132997802D01*
X155255458Y-134048607D01*
X155254465Y-135186401D01*
X140446760Y-135186401D01*
X140446760Y-133416826D01*
X140949484Y-133209105D01*
X141745789Y-132414189D01*
X142177278Y-131375050D01*
X142178259Y-130249887D01*
X141748585Y-129209996D01*
X140953669Y-128413691D01*
X140477240Y-128215860D01*
X140477240Y-126726923D01*
X150572154Y-126726923D01*
X150849792Y-127398860D01*
X151363436Y-127913401D01*
X152034887Y-128192212D01*
X152761923Y-128192846D01*
X153433860Y-127915208D01*
X153669961Y-127679518D01*
X153903436Y-127913401D01*
X154574887Y-128192212D01*
X155301923Y-128192846D01*
X155973860Y-127915208D01*
X156488401Y-127401564D01*
X156767212Y-126730113D01*
X156767846Y-126003077D01*
X156490208Y-125331140D01*
X155976564Y-124816599D01*
X155305113Y-124537788D01*
X155247734Y-124537738D01*
X155336746Y-124407465D01*
X155403262Y-124079000D01*
X155403262Y-122301000D01*
X155746738Y-122301000D01*
X155746738Y-124079000D01*
X155804476Y-124385853D01*
X155985826Y-124667679D01*
X156262535Y-124856746D01*
X156591000Y-124923262D01*
X158369000Y-124923262D01*
X158675853Y-124865524D01*
X158957679Y-124684174D01*
X159146746Y-124407465D01*
X159213262Y-124079000D01*
X159213262Y-122301000D01*
X159155524Y-121994147D01*
X158974174Y-121712321D01*
X158697465Y-121523254D01*
X158369000Y-121456738D01*
X156591000Y-121456738D01*
X156284147Y-121514476D01*
X156002321Y-121695826D01*
X155813254Y-121972535D01*
X155746738Y-122301000D01*
X155403262Y-122301000D01*
X155345524Y-121994147D01*
X155164174Y-121712321D01*
X154887465Y-121523254D01*
X154559000Y-121456738D01*
X152781000Y-121456738D01*
X152474147Y-121514476D01*
X152192321Y-121695826D01*
X152003254Y-121972535D01*
X151936738Y-122301000D01*
X151936738Y-124079000D01*
X151994476Y-124385853D01*
X152091866Y-124537201D01*
X152038077Y-124537154D01*
X151366140Y-124814792D01*
X150851599Y-125328436D01*
X150572788Y-125999887D01*
X150572154Y-126726923D01*
X140477240Y-126726923D01*
X140477240Y-122839480D01*
X140391394Y-122407905D01*
X140146927Y-122042033D01*
X140146924Y-122042031D01*
X139862447Y-121757553D01*
X139496575Y-121513086D01*
X139065000Y-121427240D01*
X127635000Y-121427240D01*
X127203425Y-121513086D01*
X126837553Y-121757553D01*
X126837551Y-121757556D01*
X126553073Y-122042033D01*
X126308606Y-122407905D01*
X126222760Y-122839480D01*
X126222760Y-128215768D01*
X125750516Y-128410895D01*
X124954211Y-129205811D01*
X124609887Y-130035034D01*
X124444432Y-129634604D01*
X123860471Y-129049622D01*
X123607608Y-128944624D01*
X124729542Y-128944624D01*
X124729542Y-123985274D01*
X114030458Y-123985274D01*
X114030458Y-128944624D01*
X114897747Y-128944624D01*
X114648604Y-129047568D01*
X114063622Y-129631529D01*
X113746641Y-130394903D01*
X113745920Y-131221471D01*
X114061568Y-131985396D01*
X114645529Y-132570378D01*
X115408903Y-132887359D01*
X116235471Y-132888080D01*
X116999396Y-132572432D01*
X117584378Y-131988471D01*
X117901359Y-131225097D01*
X117902080Y-130398529D01*
X117586432Y-129634604D01*
X117002471Y-129049622D01*
X116749608Y-128944624D01*
X121755747Y-128944624D01*
X121506604Y-129047568D01*
X120921622Y-129631529D01*
X120604641Y-130394903D01*
X120603920Y-131221471D01*
X120919568Y-131985396D01*
X121503529Y-132570378D01*
X122266903Y-132887359D01*
X123093471Y-132888080D01*
X123857396Y-132572432D01*
X124442378Y-131988471D01*
X124610223Y-131584256D01*
X124951415Y-132410004D01*
X125746331Y-133206309D01*
X126222760Y-133404140D01*
X126222760Y-138681460D01*
X92458540Y-138681460D01*
X92458540Y-135186401D01*
X93659465Y-135186401D01*
X94093963Y-136237966D01*
X94897802Y-137043210D01*
X95948607Y-137479542D01*
X97086401Y-137480535D01*
X98137966Y-137046037D01*
X98883833Y-136301471D01*
X102569920Y-136301471D01*
X102885568Y-137065396D01*
X103469529Y-137650378D01*
X104232903Y-137967359D01*
X105059471Y-137968080D01*
X105823396Y-137652432D01*
X106408378Y-137068471D01*
X106725359Y-136305097D01*
X106725362Y-136301471D01*
X109427920Y-136301471D01*
X109743568Y-137065396D01*
X110327529Y-137650378D01*
X111090903Y-137967359D01*
X111917471Y-137968080D01*
X112681396Y-137652432D01*
X113266378Y-137068471D01*
X113583359Y-136305097D01*
X113583362Y-136301471D01*
X113999920Y-136301471D01*
X114315568Y-137065396D01*
X114899529Y-137650378D01*
X115662903Y-137967359D01*
X116489471Y-137968080D01*
X117253396Y-137652432D01*
X117838378Y-137068471D01*
X118155359Y-136305097D01*
X118155362Y-136301471D01*
X120857920Y-136301471D01*
X121173568Y-137065396D01*
X121757529Y-137650378D01*
X122520903Y-137967359D01*
X123347471Y-137968080D01*
X124111396Y-137652432D01*
X124696378Y-137068471D01*
X125013359Y-136305097D01*
X125014080Y-135478529D01*
X124698432Y-134714604D01*
X124114471Y-134129622D01*
X123351097Y-133812641D01*
X122524529Y-133811920D01*
X121760604Y-134127568D01*
X121175622Y-134711529D01*
X120858641Y-135474903D01*
X120857920Y-136301471D01*
X118155362Y-136301471D01*
X118156080Y-135478529D01*
X117840432Y-134714604D01*
X117256471Y-134129622D01*
X116493097Y-133812641D01*
X115666529Y-133811920D01*
X114902604Y-134127568D01*
X114317622Y-134711529D01*
X114000641Y-135474903D01*
X113999920Y-136301471D01*
X113583362Y-136301471D01*
X113584080Y-135478529D01*
X113268432Y-134714604D01*
X112684471Y-134129622D01*
X111921097Y-133812641D01*
X111094529Y-133811920D01*
X110330604Y-134127568D01*
X109745622Y-134711529D01*
X109428641Y-135474903D01*
X109427920Y-136301471D01*
X106725362Y-136301471D01*
X106726080Y-135478529D01*
X106410432Y-134714604D01*
X105826471Y-134129622D01*
X105063097Y-133812641D01*
X104236529Y-133811920D01*
X103472604Y-134127568D01*
X102887622Y-134711529D01*
X102570641Y-135474903D01*
X102569920Y-136301471D01*
X98883833Y-136301471D01*
X98943210Y-136242198D01*
X99379542Y-135191393D01*
X99380535Y-134053599D01*
X98946037Y-133002034D01*
X98142198Y-132196790D01*
X97091393Y-131760458D01*
X95953599Y-131759465D01*
X94902034Y-132193963D01*
X94096790Y-132997802D01*
X93660458Y-134048607D01*
X93659465Y-135186401D01*
X92458540Y-135186401D01*
X92458540Y-127361923D01*
X94692154Y-127361923D01*
X94969792Y-128033860D01*
X95483436Y-128548401D01*
X96154887Y-128827212D01*
X96881923Y-128827846D01*
X97553860Y-128550208D01*
X97789961Y-128314518D01*
X98023436Y-128548401D01*
X98694887Y-128827212D01*
X99421923Y-128827846D01*
X100093860Y-128550208D01*
X100329961Y-128314518D01*
X100563436Y-128548401D01*
X101234887Y-128827212D01*
X101961923Y-128827846D01*
X102505269Y-128603341D01*
X102505269Y-128944624D01*
X103467747Y-128944624D01*
X103218604Y-129047568D01*
X102633622Y-129631529D01*
X102316641Y-130394903D01*
X102315920Y-131221471D01*
X102631568Y-131985396D01*
X103215529Y-132570378D01*
X103978903Y-132887359D01*
X104805471Y-132888080D01*
X105569396Y-132572432D01*
X106154378Y-131988471D01*
X106471359Y-131225097D01*
X106472080Y-130398529D01*
X106156432Y-129634604D01*
X105572471Y-129049622D01*
X105319608Y-128944624D01*
X110325747Y-128944624D01*
X110076604Y-129047568D01*
X109491622Y-129631529D01*
X109174641Y-130394903D01*
X109173920Y-131221471D01*
X109489568Y-131985396D01*
X110073529Y-132570378D01*
X110836903Y-132887359D01*
X111663471Y-132888080D01*
X112427396Y-132572432D01*
X113012378Y-131988471D01*
X113329359Y-131225097D01*
X113330080Y-130398529D01*
X113014432Y-129634604D01*
X112430471Y-129049622D01*
X112177608Y-128944624D01*
X113394732Y-128944624D01*
X113394732Y-123985274D01*
X102505269Y-123985274D01*
X102505269Y-125397081D01*
X101965113Y-125172788D01*
X101238077Y-125172154D01*
X100566140Y-125449792D01*
X100330039Y-125685482D01*
X100096564Y-125451599D01*
X99425113Y-125172788D01*
X98698077Y-125172154D01*
X98026140Y-125449792D01*
X97790039Y-125685482D01*
X97556564Y-125451599D01*
X96885113Y-125172788D01*
X96158077Y-125172154D01*
X95486140Y-125449792D01*
X94971599Y-125963436D01*
X94692788Y-126634887D01*
X94692154Y-127361923D01*
X92458540Y-127361923D01*
X92458540Y-116744864D01*
X110131860Y-116744864D01*
X110131860Y-118235616D01*
X110255795Y-118858678D01*
X110608731Y-119386885D01*
X111136938Y-119739821D01*
X111760000Y-119863756D01*
X112383062Y-119739821D01*
X112911269Y-119386885D01*
X113030000Y-119209191D01*
X113148731Y-119386885D01*
X113676938Y-119739821D01*
X114300000Y-119863756D01*
X114923062Y-119739821D01*
X115451269Y-119386885D01*
X115570000Y-119209191D01*
X115688731Y-119386885D01*
X116216938Y-119739821D01*
X116840000Y-119863756D01*
X117463062Y-119739821D01*
X117991269Y-119386885D01*
X118110000Y-119209191D01*
X118228731Y-119386885D01*
X118756938Y-119739821D01*
X119380000Y-119863756D01*
X120003062Y-119739821D01*
X120531269Y-119386885D01*
X120650000Y-119209191D01*
X120768731Y-119386885D01*
X121296938Y-119739821D01*
X121920000Y-119863756D01*
X122543062Y-119739821D01*
X123071269Y-119386885D01*
X123424205Y-118858678D01*
X123548140Y-118235616D01*
X123548140Y-116744864D01*
X123424205Y-116121802D01*
X123071269Y-115593595D01*
X123035957Y-115570000D01*
X123071269Y-115546405D01*
X123424205Y-115018198D01*
X123548140Y-114395136D01*
X123548140Y-113370042D01*
X151952662Y-113370042D01*
X152213515Y-114001354D01*
X152696105Y-114484787D01*
X153326961Y-114746741D01*
X154010042Y-114747338D01*
X154641354Y-114486485D01*
X155124787Y-114003895D01*
X155386741Y-113373039D01*
X155386743Y-113370042D01*
X155762662Y-113370042D01*
X156023515Y-114001354D01*
X156506105Y-114484787D01*
X157136961Y-114746741D01*
X157820042Y-114747338D01*
X158451354Y-114486485D01*
X158934787Y-114003895D01*
X159196741Y-113373039D01*
X159197338Y-112689958D01*
X158936485Y-112058646D01*
X158453895Y-111575213D01*
X157823039Y-111313259D01*
X157139958Y-111312662D01*
X156508646Y-111573515D01*
X156025213Y-112056105D01*
X155763259Y-112686961D01*
X155762662Y-113370042D01*
X155386743Y-113370042D01*
X155387338Y-112689958D01*
X155126485Y-112058646D01*
X154643895Y-111575213D01*
X154013039Y-111313259D01*
X153329958Y-111312662D01*
X152698646Y-111573515D01*
X152215213Y-112056105D01*
X151953259Y-112686961D01*
X151952662Y-113370042D01*
X123548140Y-113370042D01*
X123548140Y-112904384D01*
X123424205Y-112281322D01*
X123071269Y-111753115D01*
X122543062Y-111400179D01*
X121920000Y-111276244D01*
X121296938Y-111400179D01*
X120768731Y-111753115D01*
X120650000Y-111930809D01*
X120531269Y-111753115D01*
X120003062Y-111400179D01*
X119380000Y-111276244D01*
X118756938Y-111400179D01*
X118228731Y-111753115D01*
X118110000Y-111930809D01*
X117991269Y-111753115D01*
X117463062Y-111400179D01*
X116840000Y-111276244D01*
X116216938Y-111400179D01*
X115688731Y-111753115D01*
X115570000Y-111930809D01*
X115451269Y-111753115D01*
X114923062Y-111400179D01*
X114300000Y-111276244D01*
X113676938Y-111400179D01*
X113148731Y-111753115D01*
X112904588Y-112118501D01*
X112684967Y-111845418D01*
X112191857Y-111575529D01*
X112109055Y-111557987D01*
X111887000Y-111679974D01*
X111887000Y-113522760D01*
X111907000Y-113522760D01*
X111907000Y-113776760D01*
X111887000Y-113776760D01*
X111887000Y-113796760D01*
X111633000Y-113796760D01*
X111633000Y-113776760D01*
X110324900Y-113776760D01*
X110324900Y-114476530D01*
X110482741Y-115016052D01*
X110828904Y-115446481D01*
X110608731Y-115593595D01*
X110255795Y-116121802D01*
X110131860Y-116744864D01*
X92458540Y-116744864D01*
X92458540Y-112822990D01*
X110324900Y-112822990D01*
X110324900Y-113522760D01*
X111633000Y-113522760D01*
X111633000Y-111679974D01*
X111410945Y-111557987D01*
X111328143Y-111575529D01*
X110835033Y-111845418D01*
X110482741Y-112283468D01*
X110324900Y-112822990D01*
X92458540Y-112822990D01*
X92458540Y-99567492D01*
X98225368Y-99567492D01*
X98225368Y-106472482D01*
X112594632Y-106472482D01*
X112594632Y-99567492D01*
X98225368Y-99567492D01*
X92458540Y-99567492D01*
X92458540Y-98112436D01*
X111401578Y-98112436D01*
X111648925Y-98711062D01*
X112106529Y-99169465D01*
X112704722Y-99417857D01*
X112862144Y-99417994D01*
X112622622Y-99994827D01*
X112622040Y-100662245D01*
X112876912Y-101279082D01*
X113197416Y-101600146D01*
X112878570Y-101918436D01*
X112622622Y-102534827D01*
X112622040Y-103202245D01*
X112876912Y-103819082D01*
X113197416Y-104140146D01*
X112878570Y-104458436D01*
X112622622Y-105074827D01*
X112622040Y-105742245D01*
X112876912Y-106359082D01*
X113348436Y-106831430D01*
X113964827Y-107087378D01*
X114632245Y-107087960D01*
X115249082Y-106833088D01*
X115570146Y-106512584D01*
X115888436Y-106831430D01*
X116504827Y-107087378D01*
X117172245Y-107087960D01*
X117789082Y-106833088D01*
X117865995Y-106756309D01*
X117925196Y-106848309D01*
X118201905Y-107037376D01*
X118530370Y-107103892D01*
X120229630Y-107103892D01*
X120536483Y-107046154D01*
X120818309Y-106864804D01*
X121007376Y-106588095D01*
X121073892Y-106259630D01*
X121073892Y-104560370D01*
X121016990Y-104257961D01*
X121594722Y-104497857D01*
X122242436Y-104498422D01*
X122841062Y-104251075D01*
X123094819Y-103997760D01*
X127730263Y-103997760D01*
X127981529Y-104249465D01*
X128579722Y-104497857D01*
X129094896Y-104498306D01*
X129094896Y-106187240D01*
X123729737Y-106187240D01*
X123478471Y-105935535D01*
X122880278Y-105687143D01*
X122232564Y-105686578D01*
X121633938Y-105933925D01*
X121175535Y-106391529D01*
X120927143Y-106989722D01*
X120926578Y-107637436D01*
X121173925Y-108236062D01*
X121631529Y-108694465D01*
X122229722Y-108942857D01*
X122877436Y-108943422D01*
X123476062Y-108696075D01*
X123729819Y-108442760D01*
X130270263Y-108442760D01*
X130521529Y-108694465D01*
X131119722Y-108942857D01*
X131767436Y-108943422D01*
X132366062Y-108696075D01*
X132824465Y-108238471D01*
X133072857Y-107640278D01*
X133073196Y-107251500D01*
X152127238Y-107251500D01*
X152127238Y-108648500D01*
X152184976Y-108955353D01*
X152366326Y-109237179D01*
X152643035Y-109426246D01*
X152971500Y-109492762D01*
X154368500Y-109492762D01*
X154675353Y-109435024D01*
X154957179Y-109253674D01*
X155118597Y-109017431D01*
X155344155Y-109243383D01*
X155905020Y-109476275D01*
X156512315Y-109476805D01*
X157073586Y-109244892D01*
X157503383Y-108815845D01*
X157736275Y-108254980D01*
X157736805Y-107647685D01*
X157504892Y-107086414D01*
X157098855Y-106679667D01*
X157503383Y-106275845D01*
X157736275Y-105714980D01*
X157736805Y-105107685D01*
X157504892Y-104546414D01*
X157075845Y-104116617D01*
X156514980Y-103883725D01*
X155907685Y-103883195D01*
X155346414Y-104115108D01*
X154916617Y-104544155D01*
X154683725Y-105105020D01*
X154683195Y-105712315D01*
X154915108Y-106273586D01*
X155321145Y-106680333D01*
X155116438Y-106884683D01*
X154973674Y-106662821D01*
X154696965Y-106473754D01*
X154368500Y-106407238D01*
X152971500Y-106407238D01*
X152664647Y-106464976D01*
X152382821Y-106646326D01*
X152193754Y-106923035D01*
X152127238Y-107251500D01*
X133073196Y-107251500D01*
X133073422Y-106992564D01*
X132858529Y-106472482D01*
X149035105Y-106472482D01*
X149035105Y-99567492D01*
X129094896Y-99567492D01*
X129094896Y-101242025D01*
X128582564Y-101241578D01*
X127983938Y-101488925D01*
X127730181Y-101742240D01*
X123094737Y-101742240D01*
X122843471Y-101490535D01*
X122245278Y-101242143D01*
X121597564Y-101241578D01*
X121012383Y-101483370D01*
X121073892Y-101179630D01*
X121073892Y-99480370D01*
X121016154Y-99173517D01*
X120851579Y-98917760D01*
X122015263Y-98917760D01*
X122266529Y-99169465D01*
X122864722Y-99417857D01*
X123512436Y-99418422D01*
X124111062Y-99171075D01*
X124569465Y-98713471D01*
X124817857Y-98115278D01*
X124818422Y-97467564D01*
X124571075Y-96868938D01*
X124113471Y-96410535D01*
X123515278Y-96162143D01*
X122867564Y-96161578D01*
X122268938Y-96408925D01*
X122015181Y-96662240D01*
X114204737Y-96662240D01*
X113953471Y-96410535D01*
X113355278Y-96162143D01*
X112707564Y-96161578D01*
X112108938Y-96408925D01*
X111650535Y-96866529D01*
X111402143Y-97464722D01*
X111401578Y-98112436D01*
X92458540Y-98112436D01*
X92458540Y-95611923D01*
X126442154Y-95611923D01*
X126719792Y-96283860D01*
X127233436Y-96798401D01*
X127904887Y-97077212D01*
X128631923Y-97077846D01*
X129303860Y-96800208D01*
X129818401Y-96286564D01*
X130097212Y-95615113D01*
X130097214Y-95611923D01*
X131522154Y-95611923D01*
X131799792Y-96283860D01*
X132313436Y-96798401D01*
X132984887Y-97077212D01*
X133711923Y-97077846D01*
X134383860Y-96800208D01*
X134898401Y-96286564D01*
X135177212Y-95615113D01*
X135177846Y-94888077D01*
X134900208Y-94216140D01*
X134386564Y-93701599D01*
X133715113Y-93422788D01*
X132988077Y-93422154D01*
X132316140Y-93699792D01*
X131801599Y-94213436D01*
X131522788Y-94884887D01*
X131522154Y-95611923D01*
X130097214Y-95611923D01*
X130097846Y-94888077D01*
X129820208Y-94216140D01*
X129306564Y-93701599D01*
X128635113Y-93422788D01*
X127908077Y-93422154D01*
X127236140Y-93699792D01*
X126721599Y-94213436D01*
X126442788Y-94884887D01*
X126442154Y-95611923D01*
X92458540Y-95611923D01*
X92458540Y-89424624D01*
X99971860Y-89424624D01*
X99971860Y-90915376D01*
X100095795Y-91538438D01*
X100448731Y-92066645D01*
X100976938Y-92419581D01*
X101600000Y-92543516D01*
X102223062Y-92419581D01*
X102751269Y-92066645D01*
X102870000Y-91888951D01*
X102988731Y-92066645D01*
X103516938Y-92419581D01*
X104140000Y-92543516D01*
X104763062Y-92419581D01*
X105291269Y-92066645D01*
X105410000Y-91888951D01*
X105528731Y-92066645D01*
X106056938Y-92419581D01*
X106680000Y-92543516D01*
X107303062Y-92419581D01*
X107831269Y-92066645D01*
X107950000Y-91888951D01*
X108068731Y-92066645D01*
X108596938Y-92419581D01*
X109220000Y-92543516D01*
X109843062Y-92419581D01*
X110371269Y-92066645D01*
X110490000Y-91888951D01*
X110608731Y-92066645D01*
X111136938Y-92419581D01*
X111760000Y-92543516D01*
X112383062Y-92419581D01*
X112911269Y-92066645D01*
X113030000Y-91888951D01*
X113148731Y-92066645D01*
X113676938Y-92419581D01*
X114300000Y-92543516D01*
X114923062Y-92419581D01*
X115451269Y-92066645D01*
X115570000Y-91888951D01*
X115688731Y-92066645D01*
X116216938Y-92419581D01*
X116840000Y-92543516D01*
X117463062Y-92419581D01*
X117991269Y-92066645D01*
X118110000Y-91888951D01*
X118228731Y-92066645D01*
X118756938Y-92419581D01*
X119380000Y-92543516D01*
X120003062Y-92419581D01*
X120531269Y-92066645D01*
X120650000Y-91888951D01*
X120768731Y-92066645D01*
X121296938Y-92419581D01*
X121920000Y-92543516D01*
X122543062Y-92419581D01*
X123071269Y-92066645D01*
X123315412Y-91701259D01*
X123535033Y-91974342D01*
X124028143Y-92244231D01*
X124110945Y-92261773D01*
X124333000Y-92139786D01*
X124333000Y-90297000D01*
X124313000Y-90297000D01*
X124313000Y-90043000D01*
X124333000Y-90043000D01*
X124333000Y-88200214D01*
X124587000Y-88200214D01*
X124587000Y-90043000D01*
X124607000Y-90043000D01*
X124607000Y-90297000D01*
X124587000Y-90297000D01*
X124587000Y-92139786D01*
X124809055Y-92261773D01*
X124891857Y-92244231D01*
X125384967Y-91974342D01*
X125604588Y-91701259D01*
X125848731Y-92066645D01*
X126376938Y-92419581D01*
X127000000Y-92543516D01*
X127623062Y-92419581D01*
X128151269Y-92066645D01*
X128270000Y-91888951D01*
X128388731Y-92066645D01*
X128916938Y-92419581D01*
X129540000Y-92543516D01*
X130163062Y-92419581D01*
X130691269Y-92066645D01*
X130810000Y-91888951D01*
X130928731Y-92066645D01*
X131456938Y-92419581D01*
X132080000Y-92543516D01*
X132703062Y-92419581D01*
X133231269Y-92066645D01*
X133350000Y-91888951D01*
X133468731Y-92066645D01*
X133996938Y-92419581D01*
X134620000Y-92543516D01*
X135243062Y-92419581D01*
X135771269Y-92066645D01*
X135890000Y-91888951D01*
X136008731Y-92066645D01*
X136536938Y-92419581D01*
X137160000Y-92543516D01*
X137783062Y-92419581D01*
X138311269Y-92066645D01*
X138430000Y-91888951D01*
X138548731Y-92066645D01*
X139076938Y-92419581D01*
X139700000Y-92543516D01*
X140323062Y-92419581D01*
X140851269Y-92066645D01*
X140970000Y-91888951D01*
X141088731Y-92066645D01*
X141616938Y-92419581D01*
X142240000Y-92543516D01*
X142863062Y-92419581D01*
X143391269Y-92066645D01*
X143510000Y-91888951D01*
X143628731Y-92066645D01*
X144156938Y-92419581D01*
X144780000Y-92543516D01*
X145403062Y-92419581D01*
X145931269Y-92066645D01*
X146050000Y-91888951D01*
X146168731Y-92066645D01*
X146696938Y-92419581D01*
X147320000Y-92543516D01*
X147943062Y-92419581D01*
X148471269Y-92066645D01*
X148590000Y-91888951D01*
X148708731Y-92066645D01*
X149236938Y-92419581D01*
X149860000Y-92543516D01*
X150483062Y-92419581D01*
X151011269Y-92066645D01*
X151364205Y-91538438D01*
X151488140Y-90915376D01*
X151488140Y-90510042D01*
X154492662Y-90510042D01*
X154753515Y-91141354D01*
X155236105Y-91624787D01*
X155866961Y-91886741D01*
X156550042Y-91887338D01*
X157181354Y-91626485D01*
X157664787Y-91143895D01*
X157926741Y-90513039D01*
X157927338Y-89829958D01*
X157666485Y-89198646D01*
X157183895Y-88715213D01*
X156553039Y-88453259D01*
X155869958Y-88452662D01*
X155238646Y-88713515D01*
X154755213Y-89196105D01*
X154493259Y-89826961D01*
X154492662Y-90510042D01*
X151488140Y-90510042D01*
X151488140Y-89424624D01*
X151364205Y-88801562D01*
X151011269Y-88273355D01*
X150483062Y-87920419D01*
X149860000Y-87796484D01*
X149236938Y-87920419D01*
X148708731Y-88273355D01*
X148590000Y-88451049D01*
X148471269Y-88273355D01*
X147943062Y-87920419D01*
X147320000Y-87796484D01*
X146696938Y-87920419D01*
X146168731Y-88273355D01*
X146050000Y-88451049D01*
X145931269Y-88273355D01*
X145403062Y-87920419D01*
X144780000Y-87796484D01*
X144156938Y-87920419D01*
X143628731Y-88273355D01*
X143510000Y-88451049D01*
X143391269Y-88273355D01*
X142863062Y-87920419D01*
X142240000Y-87796484D01*
X141616938Y-87920419D01*
X141088731Y-88273355D01*
X140970000Y-88451049D01*
X140851269Y-88273355D01*
X140323062Y-87920419D01*
X139700000Y-87796484D01*
X139076938Y-87920419D01*
X138548731Y-88273355D01*
X138430000Y-88451049D01*
X138311269Y-88273355D01*
X137783062Y-87920419D01*
X137160000Y-87796484D01*
X136536938Y-87920419D01*
X136008731Y-88273355D01*
X135890000Y-88451049D01*
X135771269Y-88273355D01*
X135243062Y-87920419D01*
X134620000Y-87796484D01*
X133996938Y-87920419D01*
X133468731Y-88273355D01*
X133350000Y-88451049D01*
X133231269Y-88273355D01*
X132703062Y-87920419D01*
X132080000Y-87796484D01*
X131456938Y-87920419D01*
X130928731Y-88273355D01*
X130810000Y-88451049D01*
X130691269Y-88273355D01*
X130163062Y-87920419D01*
X129540000Y-87796484D01*
X128916938Y-87920419D01*
X128388731Y-88273355D01*
X128270000Y-88451049D01*
X128151269Y-88273355D01*
X127623062Y-87920419D01*
X127000000Y-87796484D01*
X126376938Y-87920419D01*
X125848731Y-88273355D01*
X125604588Y-88638741D01*
X125384967Y-88365658D01*
X124891857Y-88095769D01*
X124809055Y-88078227D01*
X124587000Y-88200214D01*
X124333000Y-88200214D01*
X124110945Y-88078227D01*
X124028143Y-88095769D01*
X123535033Y-88365658D01*
X123315412Y-88638741D01*
X123071269Y-88273355D01*
X122543062Y-87920419D01*
X121920000Y-87796484D01*
X121296938Y-87920419D01*
X120768731Y-88273355D01*
X120650000Y-88451049D01*
X120531269Y-88273355D01*
X120003062Y-87920419D01*
X119380000Y-87796484D01*
X118756938Y-87920419D01*
X118228731Y-88273355D01*
X118110000Y-88451049D01*
X117991269Y-88273355D01*
X117463062Y-87920419D01*
X116840000Y-87796484D01*
X116216938Y-87920419D01*
X115688731Y-88273355D01*
X115570000Y-88451049D01*
X115451269Y-88273355D01*
X114923062Y-87920419D01*
X114300000Y-87796484D01*
X113676938Y-87920419D01*
X113148731Y-88273355D01*
X113030000Y-88451049D01*
X112911269Y-88273355D01*
X112383062Y-87920419D01*
X111760000Y-87796484D01*
X111136938Y-87920419D01*
X110608731Y-88273355D01*
X110490000Y-88451049D01*
X110371269Y-88273355D01*
X109843062Y-87920419D01*
X109220000Y-87796484D01*
X108596938Y-87920419D01*
X108068731Y-88273355D01*
X107950000Y-88451049D01*
X107831269Y-88273355D01*
X107303062Y-87920419D01*
X106680000Y-87796484D01*
X106056938Y-87920419D01*
X105528731Y-88273355D01*
X105410000Y-88451049D01*
X105291269Y-88273355D01*
X104763062Y-87920419D01*
X104140000Y-87796484D01*
X103516938Y-87920419D01*
X102988731Y-88273355D01*
X102870000Y-88451049D01*
X102751269Y-88273355D01*
X102223062Y-87920419D01*
X101600000Y-87796484D01*
X100976938Y-87920419D01*
X100448731Y-88273355D01*
X100095795Y-88801562D01*
X99971860Y-89424624D01*
X92458540Y-89424624D01*
X92458540Y-74184624D01*
X99971860Y-74184624D01*
X99971860Y-75675376D01*
X100095795Y-76298438D01*
X100448731Y-76826645D01*
X100976938Y-77179581D01*
X101600000Y-77303516D01*
X102223062Y-77179581D01*
X102751269Y-76826645D01*
X102870000Y-76648951D01*
X102988731Y-76826645D01*
X103516938Y-77179581D01*
X104140000Y-77303516D01*
X104763062Y-77179581D01*
X105291269Y-76826645D01*
X105410000Y-76648951D01*
X105528731Y-76826645D01*
X106056938Y-77179581D01*
X106680000Y-77303516D01*
X107303062Y-77179581D01*
X107831269Y-76826645D01*
X107950000Y-76648951D01*
X108068731Y-76826645D01*
X108596938Y-77179581D01*
X109220000Y-77303516D01*
X109737636Y-77200552D01*
X109497143Y-77779722D01*
X109496578Y-78427436D01*
X109743925Y-79026062D01*
X109997240Y-79279819D01*
X109997240Y-82645263D01*
X109745535Y-82896529D01*
X109497143Y-83494722D01*
X109496578Y-84142436D01*
X109743925Y-84741062D01*
X110201529Y-85199465D01*
X110799722Y-85447857D01*
X111447436Y-85448422D01*
X112046062Y-85201075D01*
X112504465Y-84743471D01*
X112752857Y-84145278D01*
X112753422Y-83497564D01*
X112506075Y-82898938D01*
X112252760Y-82645181D01*
X112252760Y-79279737D01*
X112504465Y-79028471D01*
X112752857Y-78430278D01*
X112753422Y-77782564D01*
X112506075Y-77183938D01*
X112454245Y-77132018D01*
X112911269Y-76826645D01*
X113030000Y-76648951D01*
X113148731Y-76826645D01*
X113676938Y-77179581D01*
X114300000Y-77303516D01*
X114923062Y-77179581D01*
X115451269Y-76826645D01*
X115570000Y-76648951D01*
X115688731Y-76826645D01*
X116216938Y-77179581D01*
X116840000Y-77303516D01*
X117463062Y-77179581D01*
X117991269Y-76826645D01*
X118110000Y-76648951D01*
X118228731Y-76826645D01*
X118756938Y-77179581D01*
X119380000Y-77303516D01*
X120003062Y-77179581D01*
X120531269Y-76826645D01*
X120650000Y-76648951D01*
X120768731Y-76826645D01*
X121296938Y-77179581D01*
X121920000Y-77303516D01*
X122543062Y-77179581D01*
X123071269Y-76826645D01*
X123190000Y-76648951D01*
X123308731Y-76826645D01*
X123836938Y-77179581D01*
X124460000Y-77303516D01*
X125083062Y-77179581D01*
X125611269Y-76826645D01*
X125855412Y-76461259D01*
X126075033Y-76734342D01*
X126568143Y-77004231D01*
X126650945Y-77021773D01*
X126873000Y-76899786D01*
X126873000Y-75057000D01*
X126853000Y-75057000D01*
X126853000Y-74803000D01*
X126873000Y-74803000D01*
X126873000Y-72960214D01*
X127127000Y-72960214D01*
X127127000Y-74803000D01*
X127147000Y-74803000D01*
X127147000Y-75057000D01*
X127127000Y-75057000D01*
X127127000Y-76899786D01*
X127349055Y-77021773D01*
X127431857Y-77004231D01*
X127924967Y-76734342D01*
X128144588Y-76461259D01*
X128388731Y-76826645D01*
X128916938Y-77179581D01*
X129540000Y-77303516D01*
X130163062Y-77179581D01*
X130691269Y-76826645D01*
X130810000Y-76648951D01*
X130928731Y-76826645D01*
X131456938Y-77179581D01*
X132080000Y-77303516D01*
X132703062Y-77179581D01*
X133231269Y-76826645D01*
X133350000Y-76648951D01*
X133468731Y-76826645D01*
X133996938Y-77179581D01*
X134620000Y-77303516D01*
X135243062Y-77179581D01*
X135771269Y-76826645D01*
X135890000Y-76648951D01*
X136008731Y-76826645D01*
X136536938Y-77179581D01*
X137160000Y-77303516D01*
X137783062Y-77179581D01*
X138311269Y-76826645D01*
X138430000Y-76648951D01*
X138548731Y-76826645D01*
X139076938Y-77179581D01*
X139700000Y-77303516D01*
X140323062Y-77179581D01*
X140851269Y-76826645D01*
X140970000Y-76648951D01*
X141088731Y-76826645D01*
X141616938Y-77179581D01*
X142240000Y-77303516D01*
X142863062Y-77179581D01*
X143391269Y-76826645D01*
X143510000Y-76648951D01*
X143628731Y-76826645D01*
X144156938Y-77179581D01*
X144780000Y-77303516D01*
X145403062Y-77179581D01*
X145931269Y-76826645D01*
X146050000Y-76648951D01*
X146168731Y-76826645D01*
X146696938Y-77179581D01*
X147320000Y-77303516D01*
X147943062Y-77179581D01*
X148471269Y-76826645D01*
X148590000Y-76648951D01*
X148708731Y-76826645D01*
X149236938Y-77179581D01*
X149860000Y-77303516D01*
X150483062Y-77179581D01*
X151011269Y-76826645D01*
X151364205Y-76298438D01*
X151423131Y-76002196D01*
X155317409Y-76002196D01*
X155402467Y-76257539D01*
X155971965Y-76465516D01*
X156577700Y-76439723D01*
X157017533Y-76257539D01*
X157102591Y-76002196D01*
X156210000Y-75109605D01*
X155317409Y-76002196D01*
X151423131Y-76002196D01*
X151488140Y-75675376D01*
X151488140Y-74691965D01*
X154674484Y-74691965D01*
X154700277Y-75297700D01*
X154882461Y-75737533D01*
X155137804Y-75822591D01*
X156030395Y-74930000D01*
X156389605Y-74930000D01*
X157282196Y-75822591D01*
X157537539Y-75737533D01*
X157745516Y-75168035D01*
X157719723Y-74562300D01*
X157537539Y-74122467D01*
X157282196Y-74037409D01*
X156389605Y-74930000D01*
X156030395Y-74930000D01*
X155137804Y-74037409D01*
X154882461Y-74122467D01*
X154674484Y-74691965D01*
X151488140Y-74691965D01*
X151488140Y-74184624D01*
X151423132Y-73857804D01*
X155317409Y-73857804D01*
X156210000Y-74750395D01*
X157102591Y-73857804D01*
X157017533Y-73602461D01*
X156448035Y-73394484D01*
X155842300Y-73420277D01*
X155402467Y-73602461D01*
X155317409Y-73857804D01*
X151423132Y-73857804D01*
X151364205Y-73561562D01*
X151011269Y-73033355D01*
X150483062Y-72680419D01*
X149860000Y-72556484D01*
X149236938Y-72680419D01*
X148708731Y-73033355D01*
X148590000Y-73211049D01*
X148471269Y-73033355D01*
X147943062Y-72680419D01*
X147320000Y-72556484D01*
X146696938Y-72680419D01*
X146168731Y-73033355D01*
X146050000Y-73211049D01*
X145931269Y-73033355D01*
X145403062Y-72680419D01*
X144780000Y-72556484D01*
X144156938Y-72680419D01*
X143628731Y-73033355D01*
X143510000Y-73211049D01*
X143391269Y-73033355D01*
X143367760Y-73017647D01*
X143367760Y-53879737D01*
X143619465Y-53628471D01*
X143867857Y-53030278D01*
X143868422Y-52382564D01*
X143621075Y-51783938D01*
X143163471Y-51325535D01*
X142565278Y-51077143D01*
X141917564Y-51076578D01*
X141318938Y-51323925D01*
X141193288Y-51449356D01*
X141327857Y-51125278D01*
X141328422Y-50477564D01*
X141081075Y-49878938D01*
X140623471Y-49420535D01*
X140025278Y-49172143D01*
X139377564Y-49171578D01*
X138778938Y-49418925D01*
X138653288Y-49544356D01*
X138787857Y-49220278D01*
X138788422Y-48572564D01*
X138541075Y-47973938D01*
X138083471Y-47515535D01*
X137485278Y-47267143D01*
X136837564Y-47266578D01*
X136238938Y-47513925D01*
X136113288Y-47639356D01*
X136247857Y-47315278D01*
X136248422Y-46667564D01*
X136001075Y-46068938D01*
X135543471Y-45610535D01*
X134945278Y-45362143D01*
X134297564Y-45361578D01*
X133698938Y-45608925D01*
X133573288Y-45734356D01*
X133707857Y-45410278D01*
X133708422Y-44762564D01*
X133461075Y-44163938D01*
X133003471Y-43705535D01*
X132405278Y-43457143D01*
X131757564Y-43456578D01*
X131158938Y-43703925D01*
X130700535Y-44161529D01*
X130452143Y-44759722D01*
X130451578Y-45407436D01*
X130698925Y-46006062D01*
X130952240Y-46259819D01*
X130952240Y-52534814D01*
X130500278Y-52347143D01*
X129852564Y-52346578D01*
X129253938Y-52593925D01*
X128795535Y-53051529D01*
X128547143Y-53649722D01*
X128546578Y-54297436D01*
X128793925Y-54896062D01*
X129047240Y-55149819D01*
X129047240Y-66770263D01*
X128795535Y-67021529D01*
X128547143Y-67619722D01*
X128546578Y-68267436D01*
X128793925Y-68866062D01*
X129251529Y-69324465D01*
X129849722Y-69572857D01*
X130497436Y-69573422D01*
X130952240Y-69385501D01*
X130952240Y-73017647D01*
X130928731Y-73033355D01*
X130810000Y-73211049D01*
X130691269Y-73033355D01*
X130163062Y-72680419D01*
X129540000Y-72556484D01*
X128916938Y-72680419D01*
X128388731Y-73033355D01*
X128144588Y-73398741D01*
X127924967Y-73125658D01*
X127431857Y-72855769D01*
X127349055Y-72838227D01*
X127127000Y-72960214D01*
X126873000Y-72960214D01*
X126650945Y-72838227D01*
X126568143Y-72855769D01*
X126075033Y-73125658D01*
X125855412Y-73398741D01*
X125611269Y-73033355D01*
X125083062Y-72680419D01*
X124460000Y-72556484D01*
X123836938Y-72680419D01*
X123308731Y-73033355D01*
X123190000Y-73211049D01*
X123071269Y-73033355D01*
X122543062Y-72680419D01*
X121920000Y-72556484D01*
X121296938Y-72680419D01*
X120768731Y-73033355D01*
X120650000Y-73211049D01*
X120531269Y-73033355D01*
X120003062Y-72680419D01*
X119380000Y-72556484D01*
X118756938Y-72680419D01*
X118228731Y-73033355D01*
X118110000Y-73211049D01*
X117991269Y-73033355D01*
X117463062Y-72680419D01*
X116840000Y-72556484D01*
X116216938Y-72680419D01*
X115688731Y-73033355D01*
X115570000Y-73211049D01*
X115451269Y-73033355D01*
X114923062Y-72680419D01*
X114300000Y-72556484D01*
X113676938Y-72680419D01*
X113148731Y-73033355D01*
X113030000Y-73211049D01*
X112911269Y-73033355D01*
X112383062Y-72680419D01*
X111760000Y-72556484D01*
X111136938Y-72680419D01*
X110608731Y-73033355D01*
X110490000Y-73211049D01*
X110371269Y-73033355D01*
X109843062Y-72680419D01*
X109220000Y-72556484D01*
X108596938Y-72680419D01*
X108068731Y-73033355D01*
X107950000Y-73211049D01*
X107831269Y-73033355D01*
X107303062Y-72680419D01*
X106680000Y-72556484D01*
X106056938Y-72680419D01*
X105528731Y-73033355D01*
X105410000Y-73211049D01*
X105291269Y-73033355D01*
X104763062Y-72680419D01*
X104140000Y-72556484D01*
X103516938Y-72680419D01*
X102988731Y-73033355D01*
X102870000Y-73211049D01*
X102751269Y-73033355D01*
X102223062Y-72680419D01*
X101600000Y-72556484D01*
X100976938Y-72680419D01*
X100448731Y-73033355D01*
X100095795Y-73561562D01*
X99971860Y-74184624D01*
X92458540Y-74184624D01*
X92458540Y-59564384D01*
X99971860Y-59564384D01*
X99971860Y-61055136D01*
X100095795Y-61678198D01*
X100448731Y-62206405D01*
X100484043Y-62230000D01*
X100448731Y-62253595D01*
X100095795Y-62781802D01*
X99971860Y-63404864D01*
X99971860Y-64895616D01*
X100095795Y-65518678D01*
X100448731Y-66046885D01*
X100976938Y-66399821D01*
X101600000Y-66523756D01*
X102223062Y-66399821D01*
X102751269Y-66046885D01*
X102870000Y-65869191D01*
X102988731Y-66046885D01*
X103516938Y-66399821D01*
X104140000Y-66523756D01*
X104763062Y-66399821D01*
X105291269Y-66046885D01*
X105410000Y-65869191D01*
X105528731Y-66046885D01*
X106056938Y-66399821D01*
X106680000Y-66523756D01*
X107303062Y-66399821D01*
X107831269Y-66046885D01*
X107950000Y-65869191D01*
X108068731Y-66046885D01*
X108596938Y-66399821D01*
X109220000Y-66523756D01*
X109843062Y-66399821D01*
X110371269Y-66046885D01*
X110490000Y-65869191D01*
X110608731Y-66046885D01*
X111136938Y-66399821D01*
X111760000Y-66523756D01*
X112383062Y-66399821D01*
X112911269Y-66046885D01*
X113030000Y-65869191D01*
X113148731Y-66046885D01*
X113676938Y-66399821D01*
X114300000Y-66523756D01*
X114923062Y-66399821D01*
X115451269Y-66046885D01*
X115570000Y-65869191D01*
X115688731Y-66046885D01*
X116216938Y-66399821D01*
X116840000Y-66523756D01*
X117463062Y-66399821D01*
X117991269Y-66046885D01*
X118110000Y-65869191D01*
X118228731Y-66046885D01*
X118756938Y-66399821D01*
X119380000Y-66523756D01*
X120003062Y-66399821D01*
X120531269Y-66046885D01*
X120650000Y-65869191D01*
X120768731Y-66046885D01*
X121296938Y-66399821D01*
X121920000Y-66523756D01*
X122543062Y-66399821D01*
X123071269Y-66046885D01*
X123190000Y-65869191D01*
X123308731Y-66046885D01*
X123836938Y-66399821D01*
X124460000Y-66523756D01*
X125083062Y-66399821D01*
X125611269Y-66046885D01*
X125964205Y-65518678D01*
X126088140Y-64895616D01*
X126088140Y-63404864D01*
X125964205Y-62781802D01*
X125611269Y-62253595D01*
X125575957Y-62230000D01*
X125611269Y-62206405D01*
X125964205Y-61678198D01*
X126088140Y-61055136D01*
X126088140Y-59564384D01*
X125964205Y-58941322D01*
X125611269Y-58413115D01*
X125083062Y-58060179D01*
X124460000Y-57936244D01*
X123836938Y-58060179D01*
X123308731Y-58413115D01*
X123190000Y-58590809D01*
X123071269Y-58413115D01*
X122543062Y-58060179D01*
X121920000Y-57936244D01*
X121296938Y-58060179D01*
X120768731Y-58413115D01*
X120650000Y-58590809D01*
X120531269Y-58413115D01*
X120003062Y-58060179D01*
X119380000Y-57936244D01*
X118756938Y-58060179D01*
X118228731Y-58413115D01*
X118110000Y-58590809D01*
X117991269Y-58413115D01*
X117463062Y-58060179D01*
X116840000Y-57936244D01*
X116216938Y-58060179D01*
X115688731Y-58413115D01*
X115570000Y-58590809D01*
X115451269Y-58413115D01*
X114923062Y-58060179D01*
X114300000Y-57936244D01*
X113676938Y-58060179D01*
X113148731Y-58413115D01*
X113030000Y-58590809D01*
X112911269Y-58413115D01*
X112383062Y-58060179D01*
X111760000Y-57936244D01*
X111136938Y-58060179D01*
X110608731Y-58413115D01*
X110490000Y-58590809D01*
X110371269Y-58413115D01*
X109843062Y-58060179D01*
X109220000Y-57936244D01*
X108596938Y-58060179D01*
X108068731Y-58413115D01*
X107950000Y-58590809D01*
X107831269Y-58413115D01*
X107303062Y-58060179D01*
X106680000Y-57936244D01*
X106056938Y-58060179D01*
X105528731Y-58413115D01*
X105410000Y-58590809D01*
X105291269Y-58413115D01*
X104763062Y-58060179D01*
X104140000Y-57936244D01*
X103516938Y-58060179D01*
X102988731Y-58413115D01*
X102870000Y-58590809D01*
X102751269Y-58413115D01*
X102223062Y-58060179D01*
X101600000Y-57936244D01*
X100976938Y-58060179D01*
X100448731Y-58413115D01*
X100095795Y-58941322D01*
X99971860Y-59564384D01*
X92458540Y-59564384D01*
X92458540Y-45651401D01*
X93659465Y-45651401D01*
X94093963Y-46702966D01*
X94897802Y-47508210D01*
X95948607Y-47944542D01*
X97086401Y-47945535D01*
X98137966Y-47511037D01*
X98943210Y-46707198D01*
X99379542Y-45656393D01*
X99380535Y-44518599D01*
X98946037Y-43467034D01*
X98142198Y-42661790D01*
X98089101Y-42639742D01*
X141643040Y-42639742D01*
X141643040Y-49100232D01*
X151726961Y-49100232D01*
X151726961Y-45651401D01*
X155254465Y-45651401D01*
X155688963Y-46702966D01*
X156492802Y-47508210D01*
X157543607Y-47944542D01*
X158681401Y-47945535D01*
X159732966Y-47511037D01*
X160538210Y-46707198D01*
X160974542Y-45656393D01*
X160975535Y-44518599D01*
X160541037Y-43467034D01*
X159737198Y-42661790D01*
X158686393Y-42225458D01*
X157548599Y-42224465D01*
X156497034Y-42658963D01*
X155691790Y-43462802D01*
X155255458Y-44513607D01*
X155254465Y-45651401D01*
X151726961Y-45651401D01*
X151726961Y-42639742D01*
X141643040Y-42639742D01*
X98089101Y-42639742D01*
X97091393Y-42225458D01*
X95953599Y-42224465D01*
X94902034Y-42658963D01*
X94096790Y-43462802D01*
X93660458Y-44513607D01*
X93659465Y-45651401D01*
X92458540Y-45651401D01*
X92458540Y-41023540D01*
X162176460Y-41023540D01*
X162176460Y-138681460D01*
X162176460Y-138681460D01*
G37*
X162176460Y-138681460D02*
X140446760Y-138681460D01*
X140446760Y-135186401D01*
X155254465Y-135186401D01*
X155688963Y-136237966D01*
X156492802Y-137043210D01*
X157543607Y-137479542D01*
X158681401Y-137480535D01*
X159732966Y-137046037D01*
X160538210Y-136242198D01*
X160974542Y-135191393D01*
X160975535Y-134053599D01*
X160541037Y-133002034D01*
X159737198Y-132196790D01*
X158686393Y-131760458D01*
X157548599Y-131759465D01*
X156497034Y-132193963D01*
X155691790Y-132997802D01*
X155255458Y-134048607D01*
X155254465Y-135186401D01*
X140446760Y-135186401D01*
X140446760Y-133416826D01*
X140949484Y-133209105D01*
X141745789Y-132414189D01*
X142177278Y-131375050D01*
X142178259Y-130249887D01*
X141748585Y-129209996D01*
X140953669Y-128413691D01*
X140477240Y-128215860D01*
X140477240Y-126726923D01*
X150572154Y-126726923D01*
X150849792Y-127398860D01*
X151363436Y-127913401D01*
X152034887Y-128192212D01*
X152761923Y-128192846D01*
X153433860Y-127915208D01*
X153669961Y-127679518D01*
X153903436Y-127913401D01*
X154574887Y-128192212D01*
X155301923Y-128192846D01*
X155973860Y-127915208D01*
X156488401Y-127401564D01*
X156767212Y-126730113D01*
X156767846Y-126003077D01*
X156490208Y-125331140D01*
X155976564Y-124816599D01*
X155305113Y-124537788D01*
X155247734Y-124537738D01*
X155336746Y-124407465D01*
X155403262Y-124079000D01*
X155403262Y-122301000D01*
X155746738Y-122301000D01*
X155746738Y-124079000D01*
X155804476Y-124385853D01*
X155985826Y-124667679D01*
X156262535Y-124856746D01*
X156591000Y-124923262D01*
X158369000Y-124923262D01*
X158675853Y-124865524D01*
X158957679Y-124684174D01*
X159146746Y-124407465D01*
X159213262Y-124079000D01*
X159213262Y-122301000D01*
X159155524Y-121994147D01*
X158974174Y-121712321D01*
X158697465Y-121523254D01*
X158369000Y-121456738D01*
X156591000Y-121456738D01*
X156284147Y-121514476D01*
X156002321Y-121695826D01*
X155813254Y-121972535D01*
X155746738Y-122301000D01*
X155403262Y-122301000D01*
X155345524Y-121994147D01*
X155164174Y-121712321D01*
X154887465Y-121523254D01*
X154559000Y-121456738D01*
X152781000Y-121456738D01*
X152474147Y-121514476D01*
X152192321Y-121695826D01*
X152003254Y-121972535D01*
X151936738Y-122301000D01*
X151936738Y-124079000D01*
X151994476Y-124385853D01*
X152091866Y-124537201D01*
X152038077Y-124537154D01*
X151366140Y-124814792D01*
X150851599Y-125328436D01*
X150572788Y-125999887D01*
X150572154Y-126726923D01*
X140477240Y-126726923D01*
X140477240Y-122839480D01*
X140391394Y-122407905D01*
X140146927Y-122042033D01*
X140146924Y-122042031D01*
X139862447Y-121757553D01*
X139496575Y-121513086D01*
X139065000Y-121427240D01*
X127635000Y-121427240D01*
X127203425Y-121513086D01*
X126837553Y-121757553D01*
X126837551Y-121757556D01*
X126553073Y-122042033D01*
X126308606Y-122407905D01*
X126222760Y-122839480D01*
X126222760Y-128215768D01*
X125750516Y-128410895D01*
X124954211Y-129205811D01*
X124609887Y-130035034D01*
X124444432Y-129634604D01*
X123860471Y-129049622D01*
X123607608Y-128944624D01*
X124729542Y-128944624D01*
X124729542Y-123985274D01*
X114030458Y-123985274D01*
X114030458Y-128944624D01*
X114897747Y-128944624D01*
X114648604Y-129047568D01*
X114063622Y-129631529D01*
X113746641Y-130394903D01*
X113745920Y-131221471D01*
X114061568Y-131985396D01*
X114645529Y-132570378D01*
X115408903Y-132887359D01*
X116235471Y-132888080D01*
X116999396Y-132572432D01*
X117584378Y-131988471D01*
X117901359Y-131225097D01*
X117902080Y-130398529D01*
X117586432Y-129634604D01*
X117002471Y-129049622D01*
X116749608Y-128944624D01*
X121755747Y-128944624D01*
X121506604Y-129047568D01*
X120921622Y-129631529D01*
X120604641Y-130394903D01*
X120603920Y-131221471D01*
X120919568Y-131985396D01*
X121503529Y-132570378D01*
X122266903Y-132887359D01*
X123093471Y-132888080D01*
X123857396Y-132572432D01*
X124442378Y-131988471D01*
X124610223Y-131584256D01*
X124951415Y-132410004D01*
X125746331Y-133206309D01*
X126222760Y-133404140D01*
X126222760Y-138681460D01*
X92458540Y-138681460D01*
X92458540Y-135186401D01*
X93659465Y-135186401D01*
X94093963Y-136237966D01*
X94897802Y-137043210D01*
X95948607Y-137479542D01*
X97086401Y-137480535D01*
X98137966Y-137046037D01*
X98883833Y-136301471D01*
X102569920Y-136301471D01*
X102885568Y-137065396D01*
X103469529Y-137650378D01*
X104232903Y-137967359D01*
X105059471Y-137968080D01*
X105823396Y-137652432D01*
X106408378Y-137068471D01*
X106725359Y-136305097D01*
X106725362Y-136301471D01*
X109427920Y-136301471D01*
X109743568Y-137065396D01*
X110327529Y-137650378D01*
X111090903Y-137967359D01*
X111917471Y-137968080D01*
X112681396Y-137652432D01*
X113266378Y-137068471D01*
X113583359Y-136305097D01*
X113583362Y-136301471D01*
X113999920Y-136301471D01*
X114315568Y-137065396D01*
X114899529Y-137650378D01*
X115662903Y-137967359D01*
X116489471Y-137968080D01*
X117253396Y-137652432D01*
X117838378Y-137068471D01*
X118155359Y-136305097D01*
X118155362Y-136301471D01*
X120857920Y-136301471D01*
X121173568Y-137065396D01*
X121757529Y-137650378D01*
X122520903Y-137967359D01*
X123347471Y-137968080D01*
X124111396Y-137652432D01*
X124696378Y-137068471D01*
X125013359Y-136305097D01*
X125014080Y-135478529D01*
X124698432Y-134714604D01*
X124114471Y-134129622D01*
X123351097Y-133812641D01*
X122524529Y-133811920D01*
X121760604Y-134127568D01*
X121175622Y-134711529D01*
X120858641Y-135474903D01*
X120857920Y-136301471D01*
X118155362Y-136301471D01*
X118156080Y-135478529D01*
X117840432Y-134714604D01*
X117256471Y-134129622D01*
X116493097Y-133812641D01*
X115666529Y-133811920D01*
X114902604Y-134127568D01*
X114317622Y-134711529D01*
X114000641Y-135474903D01*
X113999920Y-136301471D01*
X113583362Y-136301471D01*
X113584080Y-135478529D01*
X113268432Y-134714604D01*
X112684471Y-134129622D01*
X111921097Y-133812641D01*
X111094529Y-133811920D01*
X110330604Y-134127568D01*
X109745622Y-134711529D01*
X109428641Y-135474903D01*
X109427920Y-136301471D01*
X106725362Y-136301471D01*
X106726080Y-135478529D01*
X106410432Y-134714604D01*
X105826471Y-134129622D01*
X105063097Y-133812641D01*
X104236529Y-133811920D01*
X103472604Y-134127568D01*
X102887622Y-134711529D01*
X102570641Y-135474903D01*
X102569920Y-136301471D01*
X98883833Y-136301471D01*
X98943210Y-136242198D01*
X99379542Y-135191393D01*
X99380535Y-134053599D01*
X98946037Y-133002034D01*
X98142198Y-132196790D01*
X97091393Y-131760458D01*
X95953599Y-131759465D01*
X94902034Y-132193963D01*
X94096790Y-132997802D01*
X93660458Y-134048607D01*
X93659465Y-135186401D01*
X92458540Y-135186401D01*
X92458540Y-127361923D01*
X94692154Y-127361923D01*
X94969792Y-128033860D01*
X95483436Y-128548401D01*
X96154887Y-128827212D01*
X96881923Y-128827846D01*
X97553860Y-128550208D01*
X97789961Y-128314518D01*
X98023436Y-128548401D01*
X98694887Y-128827212D01*
X99421923Y-128827846D01*
X100093860Y-128550208D01*
X100329961Y-128314518D01*
X100563436Y-128548401D01*
X101234887Y-128827212D01*
X101961923Y-128827846D01*
X102505269Y-128603341D01*
X102505269Y-128944624D01*
X103467747Y-128944624D01*
X103218604Y-129047568D01*
X102633622Y-129631529D01*
X102316641Y-130394903D01*
X102315920Y-131221471D01*
X102631568Y-131985396D01*
X103215529Y-132570378D01*
X103978903Y-132887359D01*
X104805471Y-132888080D01*
X105569396Y-132572432D01*
X106154378Y-131988471D01*
X106471359Y-131225097D01*
X106472080Y-130398529D01*
X106156432Y-129634604D01*
X105572471Y-129049622D01*
X105319608Y-128944624D01*
X110325747Y-128944624D01*
X110076604Y-129047568D01*
X109491622Y-129631529D01*
X109174641Y-130394903D01*
X109173920Y-131221471D01*
X109489568Y-131985396D01*
X110073529Y-132570378D01*
X110836903Y-132887359D01*
X111663471Y-132888080D01*
X112427396Y-132572432D01*
X113012378Y-131988471D01*
X113329359Y-131225097D01*
X113330080Y-130398529D01*
X113014432Y-129634604D01*
X112430471Y-129049622D01*
X112177608Y-128944624D01*
X113394732Y-128944624D01*
X113394732Y-123985274D01*
X102505269Y-123985274D01*
X102505269Y-125397081D01*
X101965113Y-125172788D01*
X101238077Y-125172154D01*
X100566140Y-125449792D01*
X100330039Y-125685482D01*
X100096564Y-125451599D01*
X99425113Y-125172788D01*
X98698077Y-125172154D01*
X98026140Y-125449792D01*
X97790039Y-125685482D01*
X97556564Y-125451599D01*
X96885113Y-125172788D01*
X96158077Y-125172154D01*
X95486140Y-125449792D01*
X94971599Y-125963436D01*
X94692788Y-126634887D01*
X94692154Y-127361923D01*
X92458540Y-127361923D01*
X92458540Y-116744864D01*
X110131860Y-116744864D01*
X110131860Y-118235616D01*
X110255795Y-118858678D01*
X110608731Y-119386885D01*
X111136938Y-119739821D01*
X111760000Y-119863756D01*
X112383062Y-119739821D01*
X112911269Y-119386885D01*
X113030000Y-119209191D01*
X113148731Y-119386885D01*
X113676938Y-119739821D01*
X114300000Y-119863756D01*
X114923062Y-119739821D01*
X115451269Y-119386885D01*
X115570000Y-119209191D01*
X115688731Y-119386885D01*
X116216938Y-119739821D01*
X116840000Y-119863756D01*
X117463062Y-119739821D01*
X117991269Y-119386885D01*
X118110000Y-119209191D01*
X118228731Y-119386885D01*
X118756938Y-119739821D01*
X119380000Y-119863756D01*
X120003062Y-119739821D01*
X120531269Y-119386885D01*
X120650000Y-119209191D01*
X120768731Y-119386885D01*
X121296938Y-119739821D01*
X121920000Y-119863756D01*
X122543062Y-119739821D01*
X123071269Y-119386885D01*
X123424205Y-118858678D01*
X123548140Y-118235616D01*
X123548140Y-116744864D01*
X123424205Y-116121802D01*
X123071269Y-115593595D01*
X123035957Y-115570000D01*
X123071269Y-115546405D01*
X123424205Y-115018198D01*
X123548140Y-114395136D01*
X123548140Y-113370042D01*
X151952662Y-113370042D01*
X152213515Y-114001354D01*
X152696105Y-114484787D01*
X153326961Y-114746741D01*
X154010042Y-114747338D01*
X154641354Y-114486485D01*
X155124787Y-114003895D01*
X155386741Y-113373039D01*
X155386743Y-113370042D01*
X155762662Y-113370042D01*
X156023515Y-114001354D01*
X156506105Y-114484787D01*
X157136961Y-114746741D01*
X157820042Y-114747338D01*
X158451354Y-114486485D01*
X158934787Y-114003895D01*
X159196741Y-113373039D01*
X159197338Y-112689958D01*
X158936485Y-112058646D01*
X158453895Y-111575213D01*
X157823039Y-111313259D01*
X157139958Y-111312662D01*
X156508646Y-111573515D01*
X156025213Y-112056105D01*
X155763259Y-112686961D01*
X155762662Y-113370042D01*
X155386743Y-113370042D01*
X155387338Y-112689958D01*
X155126485Y-112058646D01*
X154643895Y-111575213D01*
X154013039Y-111313259D01*
X153329958Y-111312662D01*
X152698646Y-111573515D01*
X152215213Y-112056105D01*
X151953259Y-112686961D01*
X151952662Y-113370042D01*
X123548140Y-113370042D01*
X123548140Y-112904384D01*
X123424205Y-112281322D01*
X123071269Y-111753115D01*
X122543062Y-111400179D01*
X121920000Y-111276244D01*
X121296938Y-111400179D01*
X120768731Y-111753115D01*
X120650000Y-111930809D01*
X120531269Y-111753115D01*
X120003062Y-111400179D01*
X119380000Y-111276244D01*
X118756938Y-111400179D01*
X118228731Y-111753115D01*
X118110000Y-111930809D01*
X117991269Y-111753115D01*
X117463062Y-111400179D01*
X116840000Y-111276244D01*
X116216938Y-111400179D01*
X115688731Y-111753115D01*
X115570000Y-111930809D01*
X115451269Y-111753115D01*
X114923062Y-111400179D01*
X114300000Y-111276244D01*
X113676938Y-111400179D01*
X113148731Y-111753115D01*
X112904588Y-112118501D01*
X112684967Y-111845418D01*
X112191857Y-111575529D01*
X112109055Y-111557987D01*
X111887000Y-111679974D01*
X111887000Y-113522760D01*
X111907000Y-113522760D01*
X111907000Y-113776760D01*
X111887000Y-113776760D01*
X111887000Y-113796760D01*
X111633000Y-113796760D01*
X111633000Y-113776760D01*
X110324900Y-113776760D01*
X110324900Y-114476530D01*
X110482741Y-115016052D01*
X110828904Y-115446481D01*
X110608731Y-115593595D01*
X110255795Y-116121802D01*
X110131860Y-116744864D01*
X92458540Y-116744864D01*
X92458540Y-112822990D01*
X110324900Y-112822990D01*
X110324900Y-113522760D01*
X111633000Y-113522760D01*
X111633000Y-111679974D01*
X111410945Y-111557987D01*
X111328143Y-111575529D01*
X110835033Y-111845418D01*
X110482741Y-112283468D01*
X110324900Y-112822990D01*
X92458540Y-112822990D01*
X92458540Y-99567492D01*
X98225368Y-99567492D01*
X98225368Y-106472482D01*
X112594632Y-106472482D01*
X112594632Y-99567492D01*
X98225368Y-99567492D01*
X92458540Y-99567492D01*
X92458540Y-98112436D01*
X111401578Y-98112436D01*
X111648925Y-98711062D01*
X112106529Y-99169465D01*
X112704722Y-99417857D01*
X112862144Y-99417994D01*
X112622622Y-99994827D01*
X112622040Y-100662245D01*
X112876912Y-101279082D01*
X113197416Y-101600146D01*
X112878570Y-101918436D01*
X112622622Y-102534827D01*
X112622040Y-103202245D01*
X112876912Y-103819082D01*
X113197416Y-104140146D01*
X112878570Y-104458436D01*
X112622622Y-105074827D01*
X112622040Y-105742245D01*
X112876912Y-106359082D01*
X113348436Y-106831430D01*
X113964827Y-107087378D01*
X114632245Y-107087960D01*
X115249082Y-106833088D01*
X115570146Y-106512584D01*
X115888436Y-106831430D01*
X116504827Y-107087378D01*
X117172245Y-107087960D01*
X117789082Y-106833088D01*
X117865995Y-106756309D01*
X117925196Y-106848309D01*
X118201905Y-107037376D01*
X118530370Y-107103892D01*
X120229630Y-107103892D01*
X120536483Y-107046154D01*
X120818309Y-106864804D01*
X121007376Y-106588095D01*
X121073892Y-106259630D01*
X121073892Y-104560370D01*
X121016990Y-104257961D01*
X121594722Y-104497857D01*
X122242436Y-104498422D01*
X122841062Y-104251075D01*
X123094819Y-103997760D01*
X127730263Y-103997760D01*
X127981529Y-104249465D01*
X128579722Y-104497857D01*
X129094896Y-104498306D01*
X129094896Y-106187240D01*
X123729737Y-106187240D01*
X123478471Y-105935535D01*
X122880278Y-105687143D01*
X122232564Y-105686578D01*
X121633938Y-105933925D01*
X121175535Y-106391529D01*
X120927143Y-106989722D01*
X120926578Y-107637436D01*
X121173925Y-108236062D01*
X121631529Y-108694465D01*
X122229722Y-108942857D01*
X122877436Y-108943422D01*
X123476062Y-108696075D01*
X123729819Y-108442760D01*
X130270263Y-108442760D01*
X130521529Y-108694465D01*
X131119722Y-108942857D01*
X131767436Y-108943422D01*
X132366062Y-108696075D01*
X132824465Y-108238471D01*
X133072857Y-107640278D01*
X133073196Y-107251500D01*
X152127238Y-107251500D01*
X152127238Y-108648500D01*
X152184976Y-108955353D01*
X152366326Y-109237179D01*
X152643035Y-109426246D01*
X152971500Y-109492762D01*
X154368500Y-109492762D01*
X154675353Y-109435024D01*
X154957179Y-109253674D01*
X155118597Y-109017431D01*
X155344155Y-109243383D01*
X155905020Y-109476275D01*
X156512315Y-109476805D01*
X157073586Y-109244892D01*
X157503383Y-108815845D01*
X157736275Y-108254980D01*
X157736805Y-107647685D01*
X157504892Y-107086414D01*
X157098855Y-106679667D01*
X157503383Y-106275845D01*
X157736275Y-105714980D01*
X157736805Y-105107685D01*
X157504892Y-104546414D01*
X157075845Y-104116617D01*
X156514980Y-103883725D01*
X155907685Y-103883195D01*
X155346414Y-104115108D01*
X154916617Y-104544155D01*
X154683725Y-105105020D01*
X154683195Y-105712315D01*
X154915108Y-106273586D01*
X155321145Y-106680333D01*
X155116438Y-106884683D01*
X154973674Y-106662821D01*
X154696965Y-106473754D01*
X154368500Y-106407238D01*
X152971500Y-106407238D01*
X152664647Y-106464976D01*
X152382821Y-106646326D01*
X152193754Y-106923035D01*
X152127238Y-107251500D01*
X133073196Y-107251500D01*
X133073422Y-106992564D01*
X132858529Y-106472482D01*
X149035105Y-106472482D01*
X149035105Y-99567492D01*
X129094896Y-99567492D01*
X129094896Y-101242025D01*
X128582564Y-101241578D01*
X127983938Y-101488925D01*
X127730181Y-101742240D01*
X123094737Y-101742240D01*
X122843471Y-101490535D01*
X122245278Y-101242143D01*
X121597564Y-101241578D01*
X121012383Y-101483370D01*
X121073892Y-101179630D01*
X121073892Y-99480370D01*
X121016154Y-99173517D01*
X120851579Y-98917760D01*
X122015263Y-98917760D01*
X122266529Y-99169465D01*
X122864722Y-99417857D01*
X123512436Y-99418422D01*
X124111062Y-99171075D01*
X124569465Y-98713471D01*
X124817857Y-98115278D01*
X124818422Y-97467564D01*
X124571075Y-96868938D01*
X124113471Y-96410535D01*
X123515278Y-96162143D01*
X122867564Y-96161578D01*
X122268938Y-96408925D01*
X122015181Y-96662240D01*
X114204737Y-96662240D01*
X113953471Y-96410535D01*
X113355278Y-96162143D01*
X112707564Y-96161578D01*
X112108938Y-96408925D01*
X111650535Y-96866529D01*
X111402143Y-97464722D01*
X111401578Y-98112436D01*
X92458540Y-98112436D01*
X92458540Y-95611923D01*
X126442154Y-95611923D01*
X126719792Y-96283860D01*
X127233436Y-96798401D01*
X127904887Y-97077212D01*
X128631923Y-97077846D01*
X129303860Y-96800208D01*
X129818401Y-96286564D01*
X130097212Y-95615113D01*
X130097214Y-95611923D01*
X131522154Y-95611923D01*
X131799792Y-96283860D01*
X132313436Y-96798401D01*
X132984887Y-97077212D01*
X133711923Y-97077846D01*
X134383860Y-96800208D01*
X134898401Y-96286564D01*
X135177212Y-95615113D01*
X135177846Y-94888077D01*
X134900208Y-94216140D01*
X134386564Y-93701599D01*
X133715113Y-93422788D01*
X132988077Y-93422154D01*
X132316140Y-93699792D01*
X131801599Y-94213436D01*
X131522788Y-94884887D01*
X131522154Y-95611923D01*
X130097214Y-95611923D01*
X130097846Y-94888077D01*
X129820208Y-94216140D01*
X129306564Y-93701599D01*
X128635113Y-93422788D01*
X127908077Y-93422154D01*
X127236140Y-93699792D01*
X126721599Y-94213436D01*
X126442788Y-94884887D01*
X126442154Y-95611923D01*
X92458540Y-95611923D01*
X92458540Y-89424624D01*
X99971860Y-89424624D01*
X99971860Y-90915376D01*
X100095795Y-91538438D01*
X100448731Y-92066645D01*
X100976938Y-92419581D01*
X101600000Y-92543516D01*
X102223062Y-92419581D01*
X102751269Y-92066645D01*
X102870000Y-91888951D01*
X102988731Y-92066645D01*
X103516938Y-92419581D01*
X104140000Y-92543516D01*
X104763062Y-92419581D01*
X105291269Y-92066645D01*
X105410000Y-91888951D01*
X105528731Y-92066645D01*
X106056938Y-92419581D01*
X106680000Y-92543516D01*
X107303062Y-92419581D01*
X107831269Y-92066645D01*
X107950000Y-91888951D01*
X108068731Y-92066645D01*
X108596938Y-92419581D01*
X109220000Y-92543516D01*
X109843062Y-92419581D01*
X110371269Y-92066645D01*
X110490000Y-91888951D01*
X110608731Y-92066645D01*
X111136938Y-92419581D01*
X111760000Y-92543516D01*
X112383062Y-92419581D01*
X112911269Y-92066645D01*
X113030000Y-91888951D01*
X113148731Y-92066645D01*
X113676938Y-92419581D01*
X114300000Y-92543516D01*
X114923062Y-92419581D01*
X115451269Y-92066645D01*
X115570000Y-91888951D01*
X115688731Y-92066645D01*
X116216938Y-92419581D01*
X116840000Y-92543516D01*
X117463062Y-92419581D01*
X117991269Y-92066645D01*
X118110000Y-91888951D01*
X118228731Y-92066645D01*
X118756938Y-92419581D01*
X119380000Y-92543516D01*
X120003062Y-92419581D01*
X120531269Y-92066645D01*
X120650000Y-91888951D01*
X120768731Y-92066645D01*
X121296938Y-92419581D01*
X121920000Y-92543516D01*
X122543062Y-92419581D01*
X123071269Y-92066645D01*
X123315412Y-91701259D01*
X123535033Y-91974342D01*
X124028143Y-92244231D01*
X124110945Y-92261773D01*
X124333000Y-92139786D01*
X124333000Y-90297000D01*
X124313000Y-90297000D01*
X124313000Y-90043000D01*
X124333000Y-90043000D01*
X124333000Y-88200214D01*
X124587000Y-88200214D01*
X124587000Y-90043000D01*
X124607000Y-90043000D01*
X124607000Y-90297000D01*
X124587000Y-90297000D01*
X124587000Y-92139786D01*
X124809055Y-92261773D01*
X124891857Y-92244231D01*
X125384967Y-91974342D01*
X125604588Y-91701259D01*
X125848731Y-92066645D01*
X126376938Y-92419581D01*
X127000000Y-92543516D01*
X127623062Y-92419581D01*
X128151269Y-92066645D01*
X128270000Y-91888951D01*
X128388731Y-92066645D01*
X128916938Y-92419581D01*
X129540000Y-92543516D01*
X130163062Y-92419581D01*
X130691269Y-92066645D01*
X130810000Y-91888951D01*
X130928731Y-92066645D01*
X131456938Y-92419581D01*
X132080000Y-92543516D01*
X132703062Y-92419581D01*
X133231269Y-92066645D01*
X133350000Y-91888951D01*
X133468731Y-92066645D01*
X133996938Y-92419581D01*
X134620000Y-92543516D01*
X135243062Y-92419581D01*
X135771269Y-92066645D01*
X135890000Y-91888951D01*
X136008731Y-92066645D01*
X136536938Y-92419581D01*
X137160000Y-92543516D01*
X137783062Y-92419581D01*
X138311269Y-92066645D01*
X138430000Y-91888951D01*
X138548731Y-92066645D01*
X139076938Y-92419581D01*
X139700000Y-92543516D01*
X140323062Y-92419581D01*
X140851269Y-92066645D01*
X140970000Y-91888951D01*
X141088731Y-92066645D01*
X141616938Y-92419581D01*
X142240000Y-92543516D01*
X142863062Y-92419581D01*
X143391269Y-92066645D01*
X143510000Y-91888951D01*
X143628731Y-92066645D01*
X144156938Y-92419581D01*
X144780000Y-92543516D01*
X145403062Y-92419581D01*
X145931269Y-92066645D01*
X146050000Y-91888951D01*
X146168731Y-92066645D01*
X146696938Y-92419581D01*
X147320000Y-92543516D01*
X147943062Y-92419581D01*
X148471269Y-92066645D01*
X148590000Y-91888951D01*
X148708731Y-92066645D01*
X149236938Y-92419581D01*
X149860000Y-92543516D01*
X150483062Y-92419581D01*
X151011269Y-92066645D01*
X151364205Y-91538438D01*
X151488140Y-90915376D01*
X151488140Y-90510042D01*
X154492662Y-90510042D01*
X154753515Y-91141354D01*
X155236105Y-91624787D01*
X155866961Y-91886741D01*
X156550042Y-91887338D01*
X157181354Y-91626485D01*
X157664787Y-91143895D01*
X157926741Y-90513039D01*
X157927338Y-89829958D01*
X157666485Y-89198646D01*
X157183895Y-88715213D01*
X156553039Y-88453259D01*
X155869958Y-88452662D01*
X155238646Y-88713515D01*
X154755213Y-89196105D01*
X154493259Y-89826961D01*
X154492662Y-90510042D01*
X151488140Y-90510042D01*
X151488140Y-89424624D01*
X151364205Y-88801562D01*
X151011269Y-88273355D01*
X150483062Y-87920419D01*
X149860000Y-87796484D01*
X149236938Y-87920419D01*
X148708731Y-88273355D01*
X148590000Y-88451049D01*
X148471269Y-88273355D01*
X147943062Y-87920419D01*
X147320000Y-87796484D01*
X146696938Y-87920419D01*
X146168731Y-88273355D01*
X146050000Y-88451049D01*
X145931269Y-88273355D01*
X145403062Y-87920419D01*
X144780000Y-87796484D01*
X144156938Y-87920419D01*
X143628731Y-88273355D01*
X143510000Y-88451049D01*
X143391269Y-88273355D01*
X142863062Y-87920419D01*
X142240000Y-87796484D01*
X141616938Y-87920419D01*
X141088731Y-88273355D01*
X140970000Y-88451049D01*
X140851269Y-88273355D01*
X140323062Y-87920419D01*
X139700000Y-87796484D01*
X139076938Y-87920419D01*
X138548731Y-88273355D01*
X138430000Y-88451049D01*
X138311269Y-88273355D01*
X137783062Y-87920419D01*
X137160000Y-87796484D01*
X136536938Y-87920419D01*
X136008731Y-88273355D01*
X135890000Y-88451049D01*
X135771269Y-88273355D01*
X135243062Y-87920419D01*
X134620000Y-87796484D01*
X133996938Y-87920419D01*
X133468731Y-88273355D01*
X133350000Y-88451049D01*
X133231269Y-88273355D01*
X132703062Y-87920419D01*
X132080000Y-87796484D01*
X131456938Y-87920419D01*
X130928731Y-88273355D01*
X130810000Y-88451049D01*
X130691269Y-88273355D01*
X130163062Y-87920419D01*
X129540000Y-87796484D01*
X128916938Y-87920419D01*
X128388731Y-88273355D01*
X128270000Y-88451049D01*
X128151269Y-88273355D01*
X127623062Y-87920419D01*
X127000000Y-87796484D01*
X126376938Y-87920419D01*
X125848731Y-88273355D01*
X125604588Y-88638741D01*
X125384967Y-88365658D01*
X124891857Y-88095769D01*
X124809055Y-88078227D01*
X124587000Y-88200214D01*
X124333000Y-88200214D01*
X124110945Y-88078227D01*
X124028143Y-88095769D01*
X123535033Y-88365658D01*
X123315412Y-88638741D01*
X123071269Y-88273355D01*
X122543062Y-87920419D01*
X121920000Y-87796484D01*
X121296938Y-87920419D01*
X120768731Y-88273355D01*
X120650000Y-88451049D01*
X120531269Y-88273355D01*
X120003062Y-87920419D01*
X119380000Y-87796484D01*
X118756938Y-87920419D01*
X118228731Y-88273355D01*
X118110000Y-88451049D01*
X117991269Y-88273355D01*
X117463062Y-87920419D01*
X116840000Y-87796484D01*
X116216938Y-87920419D01*
X115688731Y-88273355D01*
X115570000Y-88451049D01*
X115451269Y-88273355D01*
X114923062Y-87920419D01*
X114300000Y-87796484D01*
X113676938Y-87920419D01*
X113148731Y-88273355D01*
X113030000Y-88451049D01*
X112911269Y-88273355D01*
X112383062Y-87920419D01*
X111760000Y-87796484D01*
X111136938Y-87920419D01*
X110608731Y-88273355D01*
X110490000Y-88451049D01*
X110371269Y-88273355D01*
X109843062Y-87920419D01*
X109220000Y-87796484D01*
X108596938Y-87920419D01*
X108068731Y-88273355D01*
X107950000Y-88451049D01*
X107831269Y-88273355D01*
X107303062Y-87920419D01*
X106680000Y-87796484D01*
X106056938Y-87920419D01*
X105528731Y-88273355D01*
X105410000Y-88451049D01*
X105291269Y-88273355D01*
X104763062Y-87920419D01*
X104140000Y-87796484D01*
X103516938Y-87920419D01*
X102988731Y-88273355D01*
X102870000Y-88451049D01*
X102751269Y-88273355D01*
X102223062Y-87920419D01*
X101600000Y-87796484D01*
X100976938Y-87920419D01*
X100448731Y-88273355D01*
X100095795Y-88801562D01*
X99971860Y-89424624D01*
X92458540Y-89424624D01*
X92458540Y-74184624D01*
X99971860Y-74184624D01*
X99971860Y-75675376D01*
X100095795Y-76298438D01*
X100448731Y-76826645D01*
X100976938Y-77179581D01*
X101600000Y-77303516D01*
X102223062Y-77179581D01*
X102751269Y-76826645D01*
X102870000Y-76648951D01*
X102988731Y-76826645D01*
X103516938Y-77179581D01*
X104140000Y-77303516D01*
X104763062Y-77179581D01*
X105291269Y-76826645D01*
X105410000Y-76648951D01*
X105528731Y-76826645D01*
X106056938Y-77179581D01*
X106680000Y-77303516D01*
X107303062Y-77179581D01*
X107831269Y-76826645D01*
X107950000Y-76648951D01*
X108068731Y-76826645D01*
X108596938Y-77179581D01*
X109220000Y-77303516D01*
X109737636Y-77200552D01*
X109497143Y-77779722D01*
X109496578Y-78427436D01*
X109743925Y-79026062D01*
X109997240Y-79279819D01*
X109997240Y-82645263D01*
X109745535Y-82896529D01*
X109497143Y-83494722D01*
X109496578Y-84142436D01*
X109743925Y-84741062D01*
X110201529Y-85199465D01*
X110799722Y-85447857D01*
X111447436Y-85448422D01*
X112046062Y-85201075D01*
X112504465Y-84743471D01*
X112752857Y-84145278D01*
X112753422Y-83497564D01*
X112506075Y-82898938D01*
X112252760Y-82645181D01*
X112252760Y-79279737D01*
X112504465Y-79028471D01*
X112752857Y-78430278D01*
X112753422Y-77782564D01*
X112506075Y-77183938D01*
X112454245Y-77132018D01*
X112911269Y-76826645D01*
X113030000Y-76648951D01*
X113148731Y-76826645D01*
X113676938Y-77179581D01*
X114300000Y-77303516D01*
X114923062Y-77179581D01*
X115451269Y-76826645D01*
X115570000Y-76648951D01*
X115688731Y-76826645D01*
X116216938Y-77179581D01*
X116840000Y-77303516D01*
X117463062Y-77179581D01*
X117991269Y-76826645D01*
X118110000Y-76648951D01*
X118228731Y-76826645D01*
X118756938Y-77179581D01*
X119380000Y-77303516D01*
X120003062Y-77179581D01*
X120531269Y-76826645D01*
X120650000Y-76648951D01*
X120768731Y-76826645D01*
X121296938Y-77179581D01*
X121920000Y-77303516D01*
X122543062Y-77179581D01*
X123071269Y-76826645D01*
X123190000Y-76648951D01*
X123308731Y-76826645D01*
X123836938Y-77179581D01*
X124460000Y-77303516D01*
X125083062Y-77179581D01*
X125611269Y-76826645D01*
X125855412Y-76461259D01*
X126075033Y-76734342D01*
X126568143Y-77004231D01*
X126650945Y-77021773D01*
X126873000Y-76899786D01*
X126873000Y-75057000D01*
X126853000Y-75057000D01*
X126853000Y-74803000D01*
X126873000Y-74803000D01*
X126873000Y-72960214D01*
X127127000Y-72960214D01*
X127127000Y-74803000D01*
X127147000Y-74803000D01*
X127147000Y-75057000D01*
X127127000Y-75057000D01*
X127127000Y-76899786D01*
X127349055Y-77021773D01*
X127431857Y-77004231D01*
X127924967Y-76734342D01*
X128144588Y-76461259D01*
X128388731Y-76826645D01*
X128916938Y-77179581D01*
X129540000Y-77303516D01*
X130163062Y-77179581D01*
X130691269Y-76826645D01*
X130810000Y-76648951D01*
X130928731Y-76826645D01*
X131456938Y-77179581D01*
X132080000Y-77303516D01*
X132703062Y-77179581D01*
X133231269Y-76826645D01*
X133350000Y-76648951D01*
X133468731Y-76826645D01*
X133996938Y-77179581D01*
X134620000Y-77303516D01*
X135243062Y-77179581D01*
X135771269Y-76826645D01*
X135890000Y-76648951D01*
X136008731Y-76826645D01*
X136536938Y-77179581D01*
X137160000Y-77303516D01*
X137783062Y-77179581D01*
X138311269Y-76826645D01*
X138430000Y-76648951D01*
X138548731Y-76826645D01*
X139076938Y-77179581D01*
X139700000Y-77303516D01*
X140323062Y-77179581D01*
X140851269Y-76826645D01*
X140970000Y-76648951D01*
X141088731Y-76826645D01*
X141616938Y-77179581D01*
X142240000Y-77303516D01*
X142863062Y-77179581D01*
X143391269Y-76826645D01*
X143510000Y-76648951D01*
X143628731Y-76826645D01*
X144156938Y-77179581D01*
X144780000Y-77303516D01*
X145403062Y-77179581D01*
X145931269Y-76826645D01*
X146050000Y-76648951D01*
X146168731Y-76826645D01*
X146696938Y-77179581D01*
X147320000Y-77303516D01*
X147943062Y-77179581D01*
X148471269Y-76826645D01*
X148590000Y-76648951D01*
X148708731Y-76826645D01*
X149236938Y-77179581D01*
X149860000Y-77303516D01*
X150483062Y-77179581D01*
X151011269Y-76826645D01*
X151364205Y-76298438D01*
X151423131Y-76002196D01*
X155317409Y-76002196D01*
X155402467Y-76257539D01*
X155971965Y-76465516D01*
X156577700Y-76439723D01*
X157017533Y-76257539D01*
X157102591Y-76002196D01*
X156210000Y-75109605D01*
X155317409Y-76002196D01*
X151423131Y-76002196D01*
X151488140Y-75675376D01*
X151488140Y-74691965D01*
X154674484Y-74691965D01*
X154700277Y-75297700D01*
X154882461Y-75737533D01*
X155137804Y-75822591D01*
X156030395Y-74930000D01*
X156389605Y-74930000D01*
X157282196Y-75822591D01*
X157537539Y-75737533D01*
X157745516Y-75168035D01*
X157719723Y-74562300D01*
X157537539Y-74122467D01*
X157282196Y-74037409D01*
X156389605Y-74930000D01*
X156030395Y-74930000D01*
X155137804Y-74037409D01*
X154882461Y-74122467D01*
X154674484Y-74691965D01*
X151488140Y-74691965D01*
X151488140Y-74184624D01*
X151423132Y-73857804D01*
X155317409Y-73857804D01*
X156210000Y-74750395D01*
X157102591Y-73857804D01*
X157017533Y-73602461D01*
X156448035Y-73394484D01*
X155842300Y-73420277D01*
X155402467Y-73602461D01*
X155317409Y-73857804D01*
X151423132Y-73857804D01*
X151364205Y-73561562D01*
X151011269Y-73033355D01*
X150483062Y-72680419D01*
X149860000Y-72556484D01*
X149236938Y-72680419D01*
X148708731Y-73033355D01*
X148590000Y-73211049D01*
X148471269Y-73033355D01*
X147943062Y-72680419D01*
X147320000Y-72556484D01*
X146696938Y-72680419D01*
X146168731Y-73033355D01*
X146050000Y-73211049D01*
X145931269Y-73033355D01*
X145403062Y-72680419D01*
X144780000Y-72556484D01*
X144156938Y-72680419D01*
X143628731Y-73033355D01*
X143510000Y-73211049D01*
X143391269Y-73033355D01*
X143367760Y-73017647D01*
X143367760Y-53879737D01*
X143619465Y-53628471D01*
X143867857Y-53030278D01*
X143868422Y-52382564D01*
X143621075Y-51783938D01*
X143163471Y-51325535D01*
X142565278Y-51077143D01*
X141917564Y-51076578D01*
X141318938Y-51323925D01*
X141193288Y-51449356D01*
X141327857Y-51125278D01*
X141328422Y-50477564D01*
X141081075Y-49878938D01*
X140623471Y-49420535D01*
X140025278Y-49172143D01*
X139377564Y-49171578D01*
X138778938Y-49418925D01*
X138653288Y-49544356D01*
X138787857Y-49220278D01*
X138788422Y-48572564D01*
X138541075Y-47973938D01*
X138083471Y-47515535D01*
X137485278Y-47267143D01*
X136837564Y-47266578D01*
X136238938Y-47513925D01*
X136113288Y-47639356D01*
X136247857Y-47315278D01*
X136248422Y-46667564D01*
X136001075Y-46068938D01*
X135543471Y-45610535D01*
X134945278Y-45362143D01*
X134297564Y-45361578D01*
X133698938Y-45608925D01*
X133573288Y-45734356D01*
X133707857Y-45410278D01*
X133708422Y-44762564D01*
X133461075Y-44163938D01*
X133003471Y-43705535D01*
X132405278Y-43457143D01*
X131757564Y-43456578D01*
X131158938Y-43703925D01*
X130700535Y-44161529D01*
X130452143Y-44759722D01*
X130451578Y-45407436D01*
X130698925Y-46006062D01*
X130952240Y-46259819D01*
X130952240Y-52534814D01*
X130500278Y-52347143D01*
X129852564Y-52346578D01*
X129253938Y-52593925D01*
X128795535Y-53051529D01*
X128547143Y-53649722D01*
X128546578Y-54297436D01*
X128793925Y-54896062D01*
X129047240Y-55149819D01*
X129047240Y-66770263D01*
X128795535Y-67021529D01*
X128547143Y-67619722D01*
X128546578Y-68267436D01*
X128793925Y-68866062D01*
X129251529Y-69324465D01*
X129849722Y-69572857D01*
X130497436Y-69573422D01*
X130952240Y-69385501D01*
X130952240Y-73017647D01*
X130928731Y-73033355D01*
X130810000Y-73211049D01*
X130691269Y-73033355D01*
X130163062Y-72680419D01*
X129540000Y-72556484D01*
X128916938Y-72680419D01*
X128388731Y-73033355D01*
X128144588Y-73398741D01*
X127924967Y-73125658D01*
X127431857Y-72855769D01*
X127349055Y-72838227D01*
X127127000Y-72960214D01*
X126873000Y-72960214D01*
X126650945Y-72838227D01*
X126568143Y-72855769D01*
X126075033Y-73125658D01*
X125855412Y-73398741D01*
X125611269Y-73033355D01*
X125083062Y-72680419D01*
X124460000Y-72556484D01*
X123836938Y-72680419D01*
X123308731Y-73033355D01*
X123190000Y-73211049D01*
X123071269Y-73033355D01*
X122543062Y-72680419D01*
X121920000Y-72556484D01*
X121296938Y-72680419D01*
X120768731Y-73033355D01*
X120650000Y-73211049D01*
X120531269Y-73033355D01*
X120003062Y-72680419D01*
X119380000Y-72556484D01*
X118756938Y-72680419D01*
X118228731Y-73033355D01*
X118110000Y-73211049D01*
X117991269Y-73033355D01*
X117463062Y-72680419D01*
X116840000Y-72556484D01*
X116216938Y-72680419D01*
X115688731Y-73033355D01*
X115570000Y-73211049D01*
X115451269Y-73033355D01*
X114923062Y-72680419D01*
X114300000Y-72556484D01*
X113676938Y-72680419D01*
X113148731Y-73033355D01*
X113030000Y-73211049D01*
X112911269Y-73033355D01*
X112383062Y-72680419D01*
X111760000Y-72556484D01*
X111136938Y-72680419D01*
X110608731Y-73033355D01*
X110490000Y-73211049D01*
X110371269Y-73033355D01*
X109843062Y-72680419D01*
X109220000Y-72556484D01*
X108596938Y-72680419D01*
X108068731Y-73033355D01*
X107950000Y-73211049D01*
X107831269Y-73033355D01*
X107303062Y-72680419D01*
X106680000Y-72556484D01*
X106056938Y-72680419D01*
X105528731Y-73033355D01*
X105410000Y-73211049D01*
X105291269Y-73033355D01*
X104763062Y-72680419D01*
X104140000Y-72556484D01*
X103516938Y-72680419D01*
X102988731Y-73033355D01*
X102870000Y-73211049D01*
X102751269Y-73033355D01*
X102223062Y-72680419D01*
X101600000Y-72556484D01*
X100976938Y-72680419D01*
X100448731Y-73033355D01*
X100095795Y-73561562D01*
X99971860Y-74184624D01*
X92458540Y-74184624D01*
X92458540Y-59564384D01*
X99971860Y-59564384D01*
X99971860Y-61055136D01*
X100095795Y-61678198D01*
X100448731Y-62206405D01*
X100484043Y-62230000D01*
X100448731Y-62253595D01*
X100095795Y-62781802D01*
X99971860Y-63404864D01*
X99971860Y-64895616D01*
X100095795Y-65518678D01*
X100448731Y-66046885D01*
X100976938Y-66399821D01*
X101600000Y-66523756D01*
X102223062Y-66399821D01*
X102751269Y-66046885D01*
X102870000Y-65869191D01*
X102988731Y-66046885D01*
X103516938Y-66399821D01*
X104140000Y-66523756D01*
X104763062Y-66399821D01*
X105291269Y-66046885D01*
X105410000Y-65869191D01*
X105528731Y-66046885D01*
X106056938Y-66399821D01*
X106680000Y-66523756D01*
X107303062Y-66399821D01*
X107831269Y-66046885D01*
X107950000Y-65869191D01*
X108068731Y-66046885D01*
X108596938Y-66399821D01*
X109220000Y-66523756D01*
X109843062Y-66399821D01*
X110371269Y-66046885D01*
X110490000Y-65869191D01*
X110608731Y-66046885D01*
X111136938Y-66399821D01*
X111760000Y-66523756D01*
X112383062Y-66399821D01*
X112911269Y-66046885D01*
X113030000Y-65869191D01*
X113148731Y-66046885D01*
X113676938Y-66399821D01*
X114300000Y-66523756D01*
X114923062Y-66399821D01*
X115451269Y-66046885D01*
X115570000Y-65869191D01*
X115688731Y-66046885D01*
X116216938Y-66399821D01*
X116840000Y-66523756D01*
X117463062Y-66399821D01*
X117991269Y-66046885D01*
X118110000Y-65869191D01*
X118228731Y-66046885D01*
X118756938Y-66399821D01*
X119380000Y-66523756D01*
X120003062Y-66399821D01*
X120531269Y-66046885D01*
X120650000Y-65869191D01*
X120768731Y-66046885D01*
X121296938Y-66399821D01*
X121920000Y-66523756D01*
X122543062Y-66399821D01*
X123071269Y-66046885D01*
X123190000Y-65869191D01*
X123308731Y-66046885D01*
X123836938Y-66399821D01*
X124460000Y-66523756D01*
X125083062Y-66399821D01*
X125611269Y-66046885D01*
X125964205Y-65518678D01*
X126088140Y-64895616D01*
X126088140Y-63404864D01*
X125964205Y-62781802D01*
X125611269Y-62253595D01*
X125575957Y-62230000D01*
X125611269Y-62206405D01*
X125964205Y-61678198D01*
X126088140Y-61055136D01*
X126088140Y-59564384D01*
X125964205Y-58941322D01*
X125611269Y-58413115D01*
X125083062Y-58060179D01*
X124460000Y-57936244D01*
X123836938Y-58060179D01*
X123308731Y-58413115D01*
X123190000Y-58590809D01*
X123071269Y-58413115D01*
X122543062Y-58060179D01*
X121920000Y-57936244D01*
X121296938Y-58060179D01*
X120768731Y-58413115D01*
X120650000Y-58590809D01*
X120531269Y-58413115D01*
X120003062Y-58060179D01*
X119380000Y-57936244D01*
X118756938Y-58060179D01*
X118228731Y-58413115D01*
X118110000Y-58590809D01*
X117991269Y-58413115D01*
X117463062Y-58060179D01*
X116840000Y-57936244D01*
X116216938Y-58060179D01*
X115688731Y-58413115D01*
X115570000Y-58590809D01*
X115451269Y-58413115D01*
X114923062Y-58060179D01*
X114300000Y-57936244D01*
X113676938Y-58060179D01*
X113148731Y-58413115D01*
X113030000Y-58590809D01*
X112911269Y-58413115D01*
X112383062Y-58060179D01*
X111760000Y-57936244D01*
X111136938Y-58060179D01*
X110608731Y-58413115D01*
X110490000Y-58590809D01*
X110371269Y-58413115D01*
X109843062Y-58060179D01*
X109220000Y-57936244D01*
X108596938Y-58060179D01*
X108068731Y-58413115D01*
X107950000Y-58590809D01*
X107831269Y-58413115D01*
X107303062Y-58060179D01*
X106680000Y-57936244D01*
X106056938Y-58060179D01*
X105528731Y-58413115D01*
X105410000Y-58590809D01*
X105291269Y-58413115D01*
X104763062Y-58060179D01*
X104140000Y-57936244D01*
X103516938Y-58060179D01*
X102988731Y-58413115D01*
X102870000Y-58590809D01*
X102751269Y-58413115D01*
X102223062Y-58060179D01*
X101600000Y-57936244D01*
X100976938Y-58060179D01*
X100448731Y-58413115D01*
X100095795Y-58941322D01*
X99971860Y-59564384D01*
X92458540Y-59564384D01*
X92458540Y-45651401D01*
X93659465Y-45651401D01*
X94093963Y-46702966D01*
X94897802Y-47508210D01*
X95948607Y-47944542D01*
X97086401Y-47945535D01*
X98137966Y-47511037D01*
X98943210Y-46707198D01*
X99379542Y-45656393D01*
X99380535Y-44518599D01*
X98946037Y-43467034D01*
X98142198Y-42661790D01*
X98089101Y-42639742D01*
X141643040Y-42639742D01*
X141643040Y-49100232D01*
X151726961Y-49100232D01*
X151726961Y-45651401D01*
X155254465Y-45651401D01*
X155688963Y-46702966D01*
X156492802Y-47508210D01*
X157543607Y-47944542D01*
X158681401Y-47945535D01*
X159732966Y-47511037D01*
X160538210Y-46707198D01*
X160974542Y-45656393D01*
X160975535Y-44518599D01*
X160541037Y-43467034D01*
X159737198Y-42661790D01*
X158686393Y-42225458D01*
X157548599Y-42224465D01*
X156497034Y-42658963D01*
X155691790Y-43462802D01*
X155255458Y-44513607D01*
X155254465Y-45651401D01*
X151726961Y-45651401D01*
X151726961Y-42639742D01*
X141643040Y-42639742D01*
X98089101Y-42639742D01*
X97091393Y-42225458D01*
X95953599Y-42224465D01*
X94902034Y-42658963D01*
X94096790Y-43462802D01*
X93660458Y-44513607D01*
X93659465Y-45651401D01*
X92458540Y-45651401D01*
X92458540Y-41023540D01*
X162176460Y-41023540D01*
X162176460Y-138681460D01*
M02*
