M48
;DRILL file {KiCad 4.0.5+dfsg1-4} date Wed May 24 13:42:25 2017
;FORMAT={-:-/ absolute / inch / decimal}
FMAT,2
INCH,TZ
T1C0.032
T2C0.032
T3C0.039
T4C0.040
T5C0.045
T6C0.051
T7C0.091
T8C0.138
%
G90
G05
M72
T1
X4.125Y-4.5
X4.125Y-4.825
X4.35Y-4.825
X4.375Y-3.075
X4.375Y-3.3
X4.45Y-3.85
X4.775Y-4.825
X4.8Y-3.175
X4.8Y-4.05
X4.825Y-4.225
X4.85Y-3.85
X5.Y-3.175
X5.05Y-3.75
X5.075Y-4.05
X5.125Y-2.125
X5.125Y-2.675
X5.175Y-4.225
X5.2Y-1.775
X5.25Y-3.75
X5.3Y-1.85
X5.4Y-1.925
X5.5Y-2.
X5.6Y-2.075
T2
X3.8Y-5.
X3.9Y-5.
X4.Y-2.95
X4.Y-3.55
X4.Y-5.
X4.1Y-2.95
X4.1Y-3.55
X4.2Y-2.95
X4.2Y-3.55
X4.3Y-2.95
X4.3Y-3.55
X4.4Y-2.95
X4.4Y-3.55
X4.5Y-2.95
X4.5Y-3.55
X4.6Y-2.95
X4.6Y-3.55
X4.7Y-2.95
X4.7Y-3.55
X4.8Y-2.95
X4.8Y-3.55
X4.9Y-2.95
X4.9Y-3.55
X5.Y-2.95
X5.Y-3.55
X5.1Y-2.95
X5.1Y-3.55
X5.2Y-2.95
X5.2Y-3.55
X5.2Y-4.965
X5.2Y-5.0437
X5.3Y-2.95
X5.3Y-3.55
X5.3Y-4.965
X5.3Y-5.0437
X5.4Y-2.95
X5.4Y-3.55
X5.5Y-2.95
X5.5Y-3.55
X5.6Y-2.95
X5.6Y-3.55
X5.7Y-2.95
X5.7Y-3.55
X5.8Y-2.95
X5.8Y-3.55
X5.9Y-2.95
X5.9Y-3.55
X6.Y-4.975
X6.05Y-4.25
X6.1Y-4.975
X6.15Y-4.15
X6.15Y-4.25
T3
X4.Y-2.4
X4.Y-2.5
X4.1Y-2.4
X4.1Y-2.5
X4.2Y-2.4
X4.2Y-2.5
X4.3Y-2.4
X4.3Y-2.5
X4.4Y-2.4
X4.4Y-2.5
X4.4Y-4.5
X4.4Y-4.6
X4.5Y-2.4
X4.5Y-2.5
X4.5Y-3.95
X4.5Y-4.05
X4.5Y-4.15
X4.5Y-4.5
X4.5Y-4.6
X4.6Y-2.4
X4.6Y-2.5
X4.6Y-3.95
X4.6Y-4.05
X4.6Y-4.15
X4.6Y-4.5
X4.6Y-4.6
X4.7Y-2.4
X4.7Y-2.5
X4.7Y-3.95
X4.7Y-4.05
X4.7Y-4.15
X4.7Y-4.5
X4.7Y-4.6
X4.8Y-2.4
X4.8Y-2.5
X4.8Y-4.5
X4.8Y-4.6
X4.9Y-2.4
X4.9Y-2.5
T4
X6.05Y-4.45
X6.05Y-4.85
X6.2Y-4.45
X6.2Y-4.85
T5
X6.15Y-2.95
X6.15Y-3.55
T6
X4.11Y-5.15
X4.12Y-5.35
X4.38Y-5.15
X4.39Y-5.35
X4.56Y-5.15
X4.57Y-5.35
X4.83Y-5.15
X4.84Y-5.35
T7
X5.0138Y-5.15
X5.4862Y-5.15
T8
X3.8Y-1.775
X3.8Y-5.3
X6.225Y-1.775
X6.225Y-5.3
T0
M30
