G04 (created by PCBNEW-RS274X (2012-apr-16-27)-stable) date Ned 20 Lis 2013 22:50:24*
G01*
G70*
G90*
%MOIN*%
G04 Gerber Fmt 3.4, Leading zero omitted, Abs format*
%FSLAX34Y34*%
G04 APERTURE LIST*
%ADD10C,0.006000*%
%ADD11C,0.012000*%
%ADD12C,0.019700*%
%ADD13C,0.015000*%
%ADD14C,0.098400*%
%ADD15R,0.059100X0.039400*%
%ADD16O,0.063000X0.118100*%
%ADD17C,0.157500*%
%ADD18C,0.078700*%
%ADD19R,0.066900X0.066900*%
%ADD20C,0.066900*%
%ADD21R,0.039400X0.059100*%
%ADD22R,0.080000X0.060000*%
%ADD23R,0.060000X0.080000*%
%ADD24R,0.106300X0.070900*%
%ADD25R,0.118100X0.078700*%
%ADD26C,0.070000*%
%ADD27R,0.070000X0.070000*%
%ADD28R,0.055000X0.055000*%
%ADD29C,0.055000*%
%ADD30C,0.160000*%
%ADD31C,0.063000*%
%ADD32C,0.023600*%
%ADD33C,0.010000*%
G04 APERTURE END LIST*
G54D10*
G54D11*
X58734Y-17859D02*
X58565Y-17915D01*
X58509Y-17971D01*
X58453Y-18084D01*
X58453Y-18253D01*
X58509Y-18365D01*
X58565Y-18421D01*
X58678Y-18478D01*
X59128Y-18478D01*
X59128Y-17297D01*
X58734Y-17297D01*
X58622Y-17353D01*
X58565Y-17409D01*
X58509Y-17521D01*
X58509Y-17634D01*
X58565Y-17746D01*
X58622Y-17803D01*
X58734Y-17859D01*
X59128Y-17859D01*
X57722Y-17297D02*
X57497Y-17297D01*
X57384Y-17353D01*
X57272Y-17465D01*
X57216Y-17690D01*
X57216Y-18084D01*
X57272Y-18309D01*
X57384Y-18421D01*
X57497Y-18478D01*
X57722Y-18478D01*
X57834Y-18421D01*
X57947Y-18309D01*
X58003Y-18084D01*
X58003Y-17690D01*
X57947Y-17465D01*
X57834Y-17353D01*
X57722Y-17297D01*
X56879Y-17297D02*
X56204Y-17297D01*
X56541Y-18478D02*
X56541Y-17297D01*
G54D12*
X55637Y-24359D02*
X56031Y-24359D01*
X56031Y-24978D02*
X56031Y-23797D01*
X55468Y-23797D01*
X55019Y-23797D02*
X55019Y-24753D01*
X54963Y-24865D01*
X54906Y-24921D01*
X54794Y-24978D01*
X54569Y-24978D01*
X54456Y-24921D01*
X54400Y-24865D01*
X54344Y-24753D01*
X54344Y-23797D01*
X53838Y-24921D02*
X53669Y-24978D01*
X53388Y-24978D01*
X53276Y-24921D01*
X53219Y-24865D01*
X53163Y-24753D01*
X53163Y-24640D01*
X53219Y-24528D01*
X53276Y-24471D01*
X53388Y-24415D01*
X53613Y-24359D01*
X53726Y-24303D01*
X53782Y-24246D01*
X53838Y-24134D01*
X53838Y-24021D01*
X53782Y-23909D01*
X53726Y-23853D01*
X53613Y-23797D01*
X53332Y-23797D01*
X53163Y-23853D01*
X52657Y-24359D02*
X52263Y-24359D01*
X52094Y-24978D02*
X52657Y-24978D01*
X52657Y-23797D01*
X52094Y-23797D01*
X50913Y-24978D02*
X51307Y-24415D01*
X51588Y-24978D02*
X51588Y-23797D01*
X51138Y-23797D01*
X51025Y-23853D01*
X50969Y-23909D01*
X50913Y-24021D01*
X50913Y-24190D01*
X50969Y-24303D01*
X51025Y-24359D01*
X51138Y-24415D01*
X51588Y-24415D01*
X54906Y-26040D02*
X54625Y-26828D01*
X54344Y-26040D01*
X54006Y-25647D02*
X53275Y-25647D01*
X53669Y-26096D01*
X53500Y-26096D01*
X53388Y-26153D01*
X53331Y-26209D01*
X53275Y-26321D01*
X53275Y-26603D01*
X53331Y-26715D01*
X53388Y-26771D01*
X53500Y-26828D01*
X53838Y-26828D01*
X53950Y-26771D01*
X54006Y-26715D01*
X52825Y-25759D02*
X52769Y-25703D01*
X52656Y-25647D01*
X52375Y-25647D01*
X52263Y-25703D01*
X52206Y-25759D01*
X52150Y-25871D01*
X52150Y-25984D01*
X52206Y-26153D01*
X52881Y-26828D01*
X52150Y-26828D01*
G54D13*
X36000Y-55000D02*
X64250Y-55000D01*
X36000Y-15750D02*
X64250Y-15750D01*
X64250Y-55000D02*
X64250Y-15750D01*
X36000Y-55000D02*
X36000Y-15750D01*
G54D14*
X45500Y-53500D03*
X45500Y-51500D03*
X48500Y-53500D03*
X48500Y-51500D03*
X41000Y-53500D03*
X41000Y-51500D03*
X44000Y-53500D03*
X44000Y-51500D03*
G54D15*
X43000Y-31500D03*
X42000Y-31125D03*
X42000Y-31875D03*
G54D16*
X53000Y-49394D03*
X52000Y-49394D03*
X52000Y-50693D03*
X53000Y-50693D03*
G54D17*
X54862Y-51500D03*
X50138Y-51500D03*
G54D18*
X52500Y-37500D03*
X50500Y-37500D03*
G54D16*
X44000Y-46256D03*
X44000Y-44744D03*
X45000Y-46256D03*
X45000Y-44744D03*
X46000Y-46256D03*
X46000Y-44744D03*
X47000Y-46256D03*
X47000Y-44744D03*
X48000Y-46256D03*
X48000Y-44744D03*
X49000Y-23744D03*
X49000Y-25256D03*
X48000Y-23744D03*
X48000Y-25256D03*
X47000Y-23744D03*
X47000Y-25256D03*
X46000Y-23744D03*
X46000Y-25256D03*
X45000Y-23744D03*
X45000Y-25256D03*
X44000Y-23744D03*
X44000Y-25256D03*
X43000Y-23744D03*
X43000Y-25256D03*
X42000Y-23744D03*
X42000Y-25256D03*
X41000Y-23744D03*
X41000Y-25256D03*
X40000Y-23744D03*
X40000Y-25256D03*
G54D18*
X61000Y-49750D03*
X60000Y-49750D03*
X38750Y-50000D03*
X39750Y-50000D03*
X40750Y-50000D03*
G54D19*
X47000Y-40500D03*
G54D20*
X46000Y-40500D03*
X45000Y-40500D03*
G54D19*
X47000Y-41500D03*
G54D20*
X46000Y-41500D03*
X45000Y-41500D03*
G54D19*
X47000Y-39500D03*
G54D20*
X46000Y-39500D03*
X45000Y-39500D03*
G54D16*
X40000Y-35500D03*
X41000Y-35500D03*
X42000Y-35500D03*
X43000Y-35500D03*
X44000Y-35500D03*
X45000Y-35500D03*
X46000Y-35500D03*
X47000Y-35500D03*
X48000Y-35500D03*
X49000Y-35500D03*
X50000Y-35500D03*
X51000Y-35500D03*
X52000Y-35500D03*
X53000Y-35500D03*
X54000Y-35500D03*
X55000Y-35500D03*
X56000Y-35500D03*
X57000Y-35500D03*
X58000Y-35500D03*
X59000Y-35500D03*
X59000Y-29500D03*
X58000Y-29500D03*
X57000Y-29500D03*
X56000Y-29500D03*
X55000Y-29500D03*
X54000Y-29500D03*
X53000Y-29500D03*
X52000Y-29500D03*
X51000Y-29500D03*
X50000Y-29500D03*
X49000Y-29500D03*
X48000Y-29500D03*
X47000Y-29500D03*
X46000Y-29500D03*
X45000Y-29500D03*
X44000Y-29500D03*
X43000Y-29500D03*
X42000Y-29500D03*
X41000Y-29500D03*
X40000Y-29500D03*
G54D21*
X57750Y-45000D03*
X58125Y-44000D03*
X57375Y-44000D03*
X58250Y-50250D03*
X58625Y-49250D03*
X57875Y-49250D03*
X59250Y-45000D03*
X59625Y-44000D03*
X58875Y-44000D03*
G54D22*
X45000Y-28150D03*
X45000Y-26850D03*
X46000Y-28150D03*
X46000Y-26850D03*
X43000Y-28150D03*
X43000Y-26850D03*
X42000Y-28150D03*
X42000Y-26850D03*
X44000Y-28150D03*
X44000Y-26850D03*
X41000Y-28150D03*
X41000Y-26850D03*
X40000Y-28150D03*
X40000Y-26850D03*
X41000Y-22150D03*
X41000Y-20850D03*
X40000Y-22150D03*
X40000Y-20850D03*
X47000Y-28150D03*
X47000Y-26850D03*
X45000Y-22150D03*
X45000Y-20850D03*
X43000Y-22150D03*
X43000Y-20850D03*
X44000Y-22150D03*
X44000Y-20850D03*
X57000Y-22350D03*
X57000Y-23650D03*
G54D23*
X52400Y-28000D03*
X51100Y-28000D03*
G54D22*
X46500Y-43650D03*
X46500Y-42350D03*
G54D23*
X48850Y-46250D03*
X50150Y-46250D03*
X43150Y-46250D03*
X41850Y-46250D03*
G54D22*
X42000Y-22150D03*
X42000Y-20850D03*
X42500Y-53100D03*
X42500Y-54400D03*
X41750Y-32600D03*
X41750Y-33900D03*
G54D24*
X61250Y-47445D03*
X61250Y-45555D03*
G54D23*
X48600Y-33000D03*
X49900Y-33000D03*
G54D25*
X54500Y-47069D03*
X54500Y-49431D03*
G54D26*
X62000Y-44500D03*
G54D27*
X62000Y-48500D03*
G54D26*
X60500Y-44500D03*
G54D27*
X60500Y-48500D03*
G54D22*
X42500Y-50850D03*
X42500Y-52150D03*
G54D23*
X48650Y-37500D03*
X47350Y-37500D03*
G54D26*
X61500Y-29500D03*
X61500Y-35500D03*
G54D28*
X60500Y-42500D03*
G54D29*
X61500Y-42500D03*
X61500Y-41500D03*
G54D22*
X52500Y-32850D03*
X52500Y-34150D03*
G54D23*
X57850Y-34000D03*
X59150Y-34000D03*
G54D22*
X39500Y-37350D03*
X39500Y-38650D03*
X41000Y-37350D03*
X41000Y-38650D03*
X59250Y-47150D03*
X59250Y-45850D03*
X59000Y-38400D03*
X59000Y-37100D03*
G54D23*
X58100Y-23000D03*
X59400Y-23000D03*
G54D22*
X47000Y-50850D03*
X47000Y-52150D03*
G54D23*
X50150Y-44750D03*
X48850Y-44750D03*
G54D22*
X51750Y-39850D03*
X51750Y-41150D03*
X51000Y-32850D03*
X51000Y-34150D03*
X57500Y-47150D03*
X57500Y-45850D03*
X54250Y-41150D03*
X54250Y-39850D03*
X55500Y-41150D03*
X55500Y-39850D03*
G54D23*
X54850Y-42250D03*
X56150Y-42250D03*
G54D22*
X57000Y-38400D03*
X57000Y-37100D03*
G54D23*
X58900Y-48250D03*
X57600Y-48250D03*
X48100Y-49500D03*
X49400Y-49500D03*
G54D22*
X53000Y-39850D03*
X53000Y-41150D03*
X56750Y-39850D03*
X56750Y-41150D03*
G54D30*
X38000Y-53000D03*
X62250Y-53000D03*
X62250Y-17750D03*
X38000Y-17750D03*
G54D31*
X50000Y-31750D03*
X48000Y-31750D03*
X41250Y-48250D03*
X41250Y-45000D03*
X43500Y-48250D03*
X47750Y-48250D03*
X54000Y-19250D03*
X43750Y-30750D03*
X43750Y-33000D03*
X44500Y-38500D03*
X48500Y-38500D03*
X56000Y-20750D03*
X51250Y-21250D03*
X51250Y-26750D03*
X50750Y-40500D03*
X48000Y-40500D03*
X51750Y-42250D03*
X48250Y-42250D03*
X55000Y-20000D03*
X53000Y-18500D03*
X52000Y-17750D03*
G54D32*
X64500Y-15500D02*
X35750Y-15500D01*
X35750Y-15500D02*
X35750Y-55250D01*
X35750Y-55250D02*
X64500Y-55250D01*
X64500Y-55250D02*
X64500Y-15500D01*
X61000Y-49750D02*
X62000Y-49750D01*
X62000Y-49750D02*
X62000Y-48500D01*
X60800Y-51000D02*
X61000Y-50800D01*
X61250Y-47750D02*
X62000Y-48500D01*
X62000Y-48500D02*
X62000Y-48500D01*
X58900Y-49250D02*
X58900Y-50800D01*
X58900Y-49250D02*
X58625Y-49250D01*
X61000Y-50800D02*
X61000Y-49750D01*
X59200Y-51000D02*
X60800Y-51000D01*
X58900Y-50800D02*
X59200Y-51000D01*
X61250Y-47445D02*
X61250Y-47750D01*
X58900Y-48250D02*
X58900Y-49250D01*
X42500Y-33250D02*
X42500Y-39750D01*
X51250Y-50750D02*
X51250Y-51750D01*
X46500Y-32250D02*
X43000Y-32250D01*
X40750Y-32750D02*
X41250Y-33250D01*
X41250Y-33250D02*
X42500Y-33250D01*
X39000Y-47500D02*
X39750Y-48250D01*
X42500Y-32750D02*
X42500Y-33250D01*
X41375Y-31125D02*
X40750Y-31750D01*
X56000Y-43750D02*
X56000Y-42400D01*
X43000Y-32250D02*
X42500Y-32750D01*
X48000Y-31750D02*
X47000Y-31750D01*
X39000Y-41250D02*
X39000Y-47500D01*
X40750Y-31750D02*
X40750Y-32750D01*
X42000Y-31125D02*
X41375Y-31125D01*
X49400Y-49500D02*
X50000Y-49500D01*
X56000Y-42400D02*
X56150Y-42250D01*
X39750Y-48250D02*
X41250Y-48250D01*
X52000Y-52250D02*
X52500Y-51750D01*
X50000Y-49500D02*
X51250Y-50750D01*
X49400Y-48650D02*
X49000Y-48250D01*
X55250Y-45500D02*
X55250Y-44500D01*
X42500Y-39750D02*
X41250Y-41000D01*
X47000Y-31750D02*
X46500Y-32250D01*
X51750Y-52250D02*
X52000Y-52250D01*
X53000Y-48000D02*
X53931Y-47069D01*
X39250Y-41000D02*
X39000Y-41250D01*
X49000Y-33445D02*
X49000Y-35500D01*
X41250Y-41000D02*
X39250Y-41000D01*
X52500Y-50000D02*
X52850Y-49650D01*
X49000Y-48250D02*
X47750Y-48250D01*
X48000Y-31750D02*
X48000Y-32750D01*
X53000Y-49650D02*
X53000Y-48000D01*
X49400Y-49500D02*
X49400Y-48650D01*
X56150Y-42350D02*
X56150Y-42250D01*
X53931Y-47069D02*
X54500Y-47069D01*
X52850Y-49650D02*
X53000Y-49650D01*
X43500Y-48250D02*
X41250Y-48250D01*
X48600Y-33000D02*
X48600Y-33045D01*
X52500Y-51750D02*
X52500Y-50000D01*
X48600Y-33045D02*
X49000Y-33445D01*
X54500Y-47069D02*
X54500Y-46250D01*
X48250Y-33000D02*
X48600Y-33000D01*
X48000Y-32750D02*
X48250Y-33000D01*
X44000Y-45000D02*
X41250Y-45000D01*
X54500Y-46250D02*
X55250Y-45500D01*
X50000Y-31750D02*
X50000Y-29500D01*
X51250Y-51750D02*
X51750Y-52250D01*
X60250Y-31750D02*
X50000Y-31750D01*
X55250Y-44500D02*
X56000Y-43750D01*
X61500Y-29500D02*
X61500Y-30500D01*
X61500Y-30500D02*
X60250Y-31750D01*
X43750Y-19250D02*
X54000Y-19250D01*
X43000Y-20850D02*
X43000Y-20000D01*
X43000Y-20000D02*
X43750Y-19250D01*
X43000Y-22150D02*
X43000Y-24000D01*
X57000Y-29500D02*
X57000Y-23650D01*
X57000Y-22350D02*
X56500Y-21750D01*
X51000Y-21750D02*
X56500Y-21750D01*
X47000Y-22250D02*
X47500Y-21750D01*
X47500Y-21750D02*
X51000Y-21750D01*
X47000Y-22250D02*
X47000Y-24000D01*
X59400Y-23000D02*
X59400Y-29100D01*
X59400Y-29100D02*
X59000Y-29500D01*
X48000Y-22500D02*
X48250Y-22250D01*
X40250Y-47250D02*
X44750Y-47250D01*
X58100Y-23000D02*
X53750Y-23000D01*
X48250Y-22250D02*
X53000Y-22250D01*
X53750Y-23000D02*
X53000Y-22250D01*
X48000Y-22500D02*
X48000Y-24000D01*
X47500Y-30250D02*
X47250Y-30500D01*
X44750Y-47250D02*
X45000Y-47000D01*
X47250Y-30500D02*
X44000Y-30500D01*
X40000Y-42000D02*
X42250Y-42000D01*
X45000Y-47000D02*
X45000Y-46000D01*
X43500Y-33250D02*
X43500Y-40750D01*
X40000Y-42000D02*
X40000Y-47000D01*
X40000Y-47000D02*
X40250Y-47250D01*
X43750Y-33000D02*
X43500Y-33250D01*
X43500Y-40750D02*
X42250Y-42000D01*
X47500Y-29000D02*
X48000Y-28500D01*
X47500Y-30250D02*
X47500Y-29000D01*
X44000Y-30500D02*
X43750Y-30750D01*
X48000Y-28500D02*
X48000Y-26500D01*
X48000Y-24000D02*
X47500Y-24500D01*
X47500Y-26000D02*
X47500Y-24500D01*
X48000Y-26500D02*
X47500Y-26000D01*
X51687Y-50437D02*
X52000Y-50437D01*
X51687Y-50437D02*
X51250Y-50000D01*
X51250Y-47500D02*
X53000Y-45750D01*
X53000Y-41150D02*
X54250Y-41150D01*
X51250Y-50000D02*
X51250Y-47500D01*
X53000Y-41150D02*
X53000Y-45750D01*
X55500Y-43250D02*
X55500Y-42250D01*
X54850Y-42250D02*
X55500Y-42250D01*
X52000Y-47750D02*
X54500Y-45250D01*
X54500Y-44250D02*
X55500Y-43250D01*
X54750Y-42350D02*
X54850Y-42250D01*
X55500Y-41150D02*
X56750Y-41150D01*
X54500Y-45250D02*
X54500Y-44250D01*
X54850Y-42250D02*
X54850Y-42400D01*
X55500Y-42250D02*
X55500Y-41150D01*
X52000Y-49650D02*
X52000Y-47750D01*
X40000Y-28150D02*
X40000Y-29500D01*
X40000Y-26850D02*
X40000Y-25000D01*
X41000Y-29500D02*
X41000Y-28150D01*
X41000Y-26850D02*
X41000Y-25000D01*
X42000Y-29500D02*
X42000Y-28150D01*
X42000Y-26850D02*
X42000Y-25000D01*
X43000Y-28150D02*
X43000Y-29500D01*
X43000Y-25000D02*
X43000Y-26850D01*
X44000Y-28150D02*
X44000Y-29500D01*
X44000Y-25000D02*
X44000Y-26850D01*
X45000Y-28150D02*
X45000Y-29500D01*
X45000Y-25000D02*
X45000Y-26850D01*
X46000Y-28150D02*
X46000Y-29500D01*
X46000Y-25000D02*
X46000Y-26850D01*
X47000Y-29500D02*
X47000Y-28150D01*
X47000Y-26850D02*
X47000Y-25000D01*
X62250Y-42000D02*
X62250Y-44000D01*
X61500Y-35500D02*
X61500Y-41500D01*
X61500Y-41500D02*
X62250Y-42000D01*
X62250Y-44000D02*
X62000Y-44500D01*
X40500Y-49000D02*
X40750Y-49250D01*
X41000Y-40000D02*
X40750Y-40250D01*
X40750Y-40250D02*
X39250Y-40250D01*
X41000Y-38650D02*
X41000Y-40000D01*
X40750Y-49250D02*
X40750Y-50000D01*
X38500Y-47750D02*
X39750Y-49000D01*
X39750Y-49000D02*
X40500Y-49000D01*
X39250Y-40250D02*
X38500Y-41000D01*
X38500Y-41000D02*
X38500Y-47750D01*
X41000Y-35500D02*
X41000Y-37350D01*
X38000Y-40750D02*
X39500Y-39250D01*
X38000Y-49250D02*
X38000Y-40750D01*
X38750Y-50000D02*
X38000Y-49250D01*
X39500Y-39250D02*
X39500Y-38650D01*
X39500Y-37350D02*
X39500Y-36000D01*
X39500Y-36000D02*
X40000Y-35500D01*
X59250Y-45000D02*
X59250Y-45850D01*
X45500Y-40000D02*
X45500Y-37000D01*
X45000Y-41500D02*
X45500Y-41000D01*
X47000Y-39500D02*
X46500Y-40000D01*
X46500Y-40000D02*
X45500Y-40000D01*
X45500Y-41000D02*
X45500Y-40000D01*
X45500Y-37000D02*
X46000Y-36500D01*
X46000Y-36500D02*
X46000Y-35500D01*
X48600Y-46000D02*
X48850Y-46250D01*
X48000Y-46000D02*
X48600Y-46000D01*
X46500Y-38250D02*
X46500Y-34500D01*
X49250Y-36500D02*
X49500Y-36750D01*
X48500Y-36250D02*
X48750Y-36500D01*
X46000Y-39500D02*
X46000Y-38750D01*
X48250Y-34250D02*
X48500Y-34500D01*
X49500Y-36750D02*
X49500Y-45600D01*
X46750Y-34250D02*
X48250Y-34250D01*
X49500Y-45600D02*
X50150Y-46250D01*
X46500Y-34500D02*
X46750Y-34250D01*
X46000Y-38750D02*
X46500Y-38250D01*
X48500Y-34500D02*
X48500Y-36250D01*
X48750Y-36500D02*
X49250Y-36500D01*
X45000Y-38500D02*
X44500Y-38500D01*
X48500Y-41000D02*
X48000Y-41500D01*
X48500Y-38500D02*
X48500Y-41000D01*
X45000Y-39500D02*
X45000Y-38500D01*
X45000Y-38500D02*
X45000Y-35500D01*
X48000Y-41500D02*
X47000Y-41500D01*
X43150Y-46250D02*
X44000Y-46000D01*
X40500Y-42500D02*
X40500Y-46000D01*
X41850Y-46250D02*
X40500Y-46000D01*
X45000Y-42500D02*
X40500Y-42500D01*
X45000Y-42500D02*
X46000Y-41500D01*
X57375Y-44000D02*
X57375Y-43625D01*
X58250Y-39250D02*
X58250Y-42750D01*
X57375Y-43625D02*
X58250Y-42750D01*
X58250Y-42750D02*
X58250Y-42750D01*
X57400Y-38400D02*
X58250Y-39250D01*
X57000Y-38400D02*
X57400Y-38400D01*
X59000Y-43875D02*
X58875Y-44000D01*
X59000Y-38400D02*
X59000Y-43875D01*
X57500Y-45250D02*
X57750Y-45000D01*
X57500Y-45850D02*
X57500Y-45250D01*
X45100Y-20750D02*
X45000Y-20850D01*
X56000Y-20750D02*
X45100Y-20750D01*
X45000Y-24000D02*
X45000Y-22150D01*
X53764Y-17264D02*
X58750Y-22250D01*
X58000Y-24500D02*
X58000Y-29500D01*
X58750Y-23750D02*
X58000Y-24500D01*
X40000Y-18250D02*
X40999Y-17251D01*
X53750Y-17264D02*
X53764Y-17264D01*
X58750Y-22250D02*
X58750Y-23750D01*
X53749Y-17264D02*
X53750Y-17264D01*
X40999Y-17251D02*
X53749Y-17264D01*
X40000Y-20850D02*
X40000Y-18250D01*
X40000Y-22150D02*
X40000Y-24000D01*
X57500Y-48150D02*
X57600Y-48250D01*
X57500Y-47150D02*
X57500Y-48150D01*
X57600Y-48975D02*
X57875Y-49250D01*
X57600Y-48250D02*
X57600Y-48975D01*
X58000Y-35500D02*
X58000Y-34150D01*
X58000Y-34150D02*
X57850Y-34000D01*
X60250Y-41250D02*
X61500Y-42500D01*
X60250Y-34750D02*
X60250Y-41250D01*
X59150Y-34000D02*
X59500Y-34000D01*
X59500Y-34000D02*
X60250Y-34750D01*
X51000Y-29500D02*
X51000Y-28100D01*
X51000Y-28100D02*
X51100Y-28000D01*
X51250Y-26750D02*
X51250Y-26850D01*
X46000Y-22000D02*
X46750Y-21250D01*
X51250Y-26850D02*
X52400Y-28000D01*
X46000Y-24000D02*
X46000Y-22000D01*
X46750Y-21250D02*
X51250Y-21250D01*
X48000Y-40000D02*
X48000Y-35500D01*
X47000Y-40500D02*
X47500Y-40500D01*
X47000Y-49500D02*
X48100Y-49500D01*
X47000Y-47750D02*
X47000Y-49500D01*
X47000Y-49500D02*
X47000Y-50850D01*
X48000Y-40500D02*
X47500Y-40500D01*
X50750Y-47250D02*
X50500Y-47500D01*
X48000Y-40500D02*
X48000Y-40000D01*
X50500Y-47500D02*
X47250Y-47500D01*
X50750Y-40500D02*
X50750Y-47250D01*
X47250Y-47500D02*
X47000Y-47750D01*
X47850Y-52150D02*
X48500Y-51500D01*
X47000Y-52150D02*
X47850Y-52150D01*
X47000Y-52150D02*
X46150Y-52150D01*
X46150Y-52150D02*
X45500Y-51500D01*
X44000Y-35500D02*
X44000Y-39500D01*
X44000Y-39500D02*
X45000Y-40500D01*
X62250Y-46500D02*
X62750Y-46000D01*
X60250Y-46500D02*
X62250Y-46500D01*
X62750Y-28250D02*
X62000Y-27500D01*
X59600Y-47150D02*
X60250Y-46500D01*
X48750Y-22750D02*
X48500Y-23000D01*
X60250Y-30250D02*
X60250Y-28250D01*
X48500Y-24500D02*
X48000Y-25000D01*
X48500Y-23000D02*
X48500Y-24500D01*
X50000Y-22750D02*
X48750Y-22750D01*
X58250Y-47500D02*
X58600Y-47150D01*
X50250Y-26250D02*
X50250Y-26000D01*
X58600Y-47150D02*
X59250Y-47150D01*
X58250Y-50250D02*
X58250Y-47500D01*
X50250Y-26000D02*
X50250Y-23000D01*
X61000Y-27500D02*
X62000Y-27500D01*
X62750Y-46000D02*
X62750Y-28250D01*
X60250Y-28250D02*
X61000Y-27500D01*
X50250Y-23000D02*
X50000Y-22750D01*
X59500Y-31000D02*
X60250Y-30250D01*
X50750Y-31000D02*
X59500Y-31000D01*
X59250Y-47150D02*
X59600Y-47150D01*
X50250Y-27250D02*
X50250Y-28500D01*
X50250Y-27250D02*
X50250Y-26000D01*
X50250Y-28500D02*
X50500Y-28750D01*
X50500Y-28750D02*
X50500Y-30750D01*
X50500Y-30750D02*
X50750Y-31000D01*
X57000Y-36500D02*
X57000Y-37100D01*
X57000Y-35500D02*
X57000Y-36000D01*
X57000Y-36000D02*
X57000Y-36500D01*
X59000Y-35500D02*
X59000Y-37100D01*
X46500Y-43650D02*
X46500Y-45500D01*
X46500Y-45500D02*
X46000Y-46000D01*
X46500Y-42350D02*
X46500Y-41000D01*
X46500Y-41000D02*
X46000Y-40500D01*
X50150Y-44750D02*
X50150Y-38600D01*
X50150Y-38600D02*
X50500Y-38250D01*
X53000Y-36500D02*
X53000Y-35500D01*
X53500Y-37750D02*
X53500Y-37000D01*
X50500Y-38250D02*
X53000Y-38250D01*
X53500Y-37000D02*
X53000Y-36500D01*
X53000Y-38250D02*
X53500Y-37750D01*
X48000Y-45000D02*
X48850Y-44750D01*
X47350Y-37500D02*
X47350Y-36850D01*
X47000Y-36500D02*
X47000Y-35500D01*
X47350Y-36850D02*
X47000Y-36500D01*
X47500Y-44250D02*
X49000Y-42750D01*
X47000Y-46000D02*
X47500Y-45500D01*
X49000Y-38000D02*
X48650Y-37500D01*
X47500Y-45500D02*
X47500Y-44250D01*
X49000Y-42750D02*
X49000Y-38000D01*
X40000Y-47750D02*
X44250Y-47750D01*
X43000Y-40250D02*
X41750Y-41500D01*
X39500Y-41500D02*
X39500Y-47250D01*
X44250Y-47750D02*
X44500Y-48000D01*
X39500Y-47250D02*
X40000Y-47750D01*
X44000Y-49500D02*
X42750Y-49500D01*
X42750Y-49500D02*
X42500Y-49750D01*
X44500Y-48000D02*
X44500Y-49000D01*
X42500Y-49750D02*
X42500Y-50850D01*
X39500Y-41500D02*
X41750Y-41500D01*
X44500Y-49000D02*
X44000Y-49500D01*
X43000Y-35500D02*
X43000Y-40250D01*
X42500Y-53100D02*
X42500Y-52150D01*
X42500Y-52150D02*
X41650Y-52150D01*
X43350Y-52150D02*
X44000Y-51500D01*
X41650Y-52150D02*
X41000Y-51500D01*
X42500Y-52150D02*
X43350Y-52150D01*
X54000Y-35500D02*
X54000Y-38000D01*
X52000Y-38750D02*
X51750Y-39850D01*
X54000Y-38000D02*
X53250Y-38750D01*
X53250Y-38750D02*
X52000Y-38750D01*
X51750Y-42250D02*
X51750Y-42000D01*
X51750Y-41500D02*
X51750Y-41150D01*
X47500Y-43750D02*
X47500Y-43000D01*
X47500Y-43000D02*
X48250Y-42250D01*
X47000Y-45000D02*
X47000Y-44250D01*
X51750Y-42000D02*
X51750Y-41500D01*
X47000Y-44250D02*
X47500Y-43750D01*
X49000Y-26750D02*
X49000Y-25000D01*
X48500Y-30750D02*
X48500Y-27250D01*
X46750Y-31000D02*
X48250Y-31000D01*
X43000Y-31500D02*
X46250Y-31500D01*
X48250Y-31000D02*
X48500Y-30750D01*
X46250Y-31500D02*
X46750Y-31000D01*
X48500Y-27250D02*
X49000Y-26750D01*
X41750Y-32600D02*
X41750Y-32125D01*
X41750Y-32125D02*
X42000Y-31875D01*
X55000Y-37250D02*
X55000Y-38500D01*
X55000Y-36000D02*
X55000Y-37250D01*
X54250Y-39850D02*
X54250Y-39250D01*
X55000Y-36000D02*
X55000Y-35500D01*
X54250Y-39250D02*
X55000Y-38500D01*
X56000Y-35500D02*
X56000Y-36000D01*
X55500Y-37000D02*
X55500Y-38750D01*
X56000Y-36000D02*
X55500Y-37000D01*
X55500Y-38750D02*
X55500Y-39850D01*
X44250Y-20000D02*
X44000Y-20250D01*
X44250Y-20000D02*
X55000Y-20000D01*
X44000Y-20850D02*
X44000Y-20250D01*
X44000Y-24000D02*
X44000Y-22150D01*
X42000Y-20850D02*
X42000Y-19250D01*
X42000Y-19250D02*
X42750Y-18500D01*
X42750Y-18500D02*
X53000Y-18500D01*
X42000Y-24000D02*
X42000Y-22150D01*
X41750Y-17750D02*
X52000Y-17750D01*
X41000Y-18500D02*
X41750Y-17750D01*
X41000Y-20850D02*
X41000Y-18500D01*
X41000Y-24000D02*
X41000Y-22150D01*
X60500Y-48500D02*
X60000Y-49750D01*
X42000Y-35500D02*
X42000Y-34150D01*
X42000Y-34150D02*
X41750Y-33900D01*
X42000Y-34150D02*
X41750Y-33900D01*
X50000Y-34000D02*
X50000Y-35500D01*
X48500Y-53500D02*
X50000Y-53500D01*
X44750Y-50000D02*
X45250Y-50000D01*
X45500Y-45000D02*
X45500Y-49750D01*
X56250Y-40500D02*
X56750Y-39850D01*
X59625Y-44000D02*
X59625Y-44500D01*
X53000Y-39850D02*
X53250Y-40000D01*
X49000Y-29500D02*
X49000Y-28000D01*
X53750Y-40500D02*
X56250Y-40500D01*
X58000Y-44500D02*
X58250Y-44500D01*
X50850Y-33000D02*
X51000Y-32850D01*
X50000Y-33500D02*
X50000Y-34000D01*
X52750Y-53500D02*
X53000Y-53250D01*
X53000Y-39850D02*
X53500Y-39250D01*
X55500Y-48750D02*
X55500Y-46250D01*
X54500Y-50000D02*
X54500Y-49431D01*
X51000Y-32500D02*
X52500Y-32500D01*
X52500Y-32500D02*
X54500Y-32500D01*
X56750Y-43250D02*
X57750Y-42250D01*
X60500Y-42500D02*
X60500Y-44500D01*
X60500Y-42500D02*
X60500Y-42500D01*
X57350Y-39850D02*
X57750Y-40250D01*
X50138Y-51500D02*
X50138Y-53500D01*
X55500Y-46250D02*
X56250Y-45500D01*
X58125Y-44000D02*
X58125Y-44500D01*
X54063Y-50437D02*
X54500Y-50000D01*
X58250Y-44500D02*
X59750Y-44500D01*
X44750Y-51000D02*
X44750Y-53500D01*
X45250Y-50000D02*
X45500Y-49750D01*
X60500Y-44805D02*
X61250Y-45555D01*
X49000Y-29500D02*
X49000Y-32100D01*
X49000Y-32100D02*
X49900Y-33000D01*
X56250Y-44750D02*
X56500Y-44500D01*
X56750Y-43250D02*
X56750Y-44500D01*
X39750Y-50000D02*
X39750Y-51750D01*
X53250Y-40000D02*
X53750Y-40500D01*
X53500Y-50437D02*
X54063Y-50437D01*
X50000Y-32500D02*
X49945Y-33500D01*
X56250Y-45500D02*
X56250Y-44750D01*
X54862Y-51500D02*
X53000Y-51500D01*
X50000Y-53500D02*
X52750Y-53500D01*
X59625Y-44500D02*
X59750Y-44500D01*
X54500Y-38250D02*
X54500Y-32500D01*
X53000Y-51500D02*
X53000Y-50437D01*
X45000Y-45000D02*
X45500Y-45000D01*
X52500Y-32850D02*
X52500Y-32500D01*
X51000Y-32500D02*
X50000Y-32500D01*
X45500Y-45000D02*
X46000Y-45000D01*
X56750Y-39850D02*
X57350Y-39850D01*
X54500Y-49431D02*
X54819Y-49431D01*
X54819Y-49431D02*
X55500Y-48750D01*
X56500Y-44500D02*
X56750Y-44500D01*
X51000Y-32850D02*
X51000Y-32500D01*
X53000Y-50437D02*
X53500Y-50437D01*
X50138Y-53500D02*
X50000Y-53500D01*
X58375Y-44500D02*
X58250Y-44500D01*
X44750Y-51000D02*
X44750Y-50500D01*
X49750Y-24250D02*
X49500Y-24000D01*
X49945Y-33500D02*
X50000Y-32500D01*
X59750Y-44500D02*
X60500Y-44500D01*
X49500Y-24000D02*
X49000Y-24000D01*
X53000Y-53250D02*
X53000Y-51500D01*
X49945Y-33000D02*
X50850Y-33000D01*
X44750Y-53500D02*
X45500Y-53500D01*
X60500Y-44500D02*
X60500Y-44805D01*
X56750Y-44500D02*
X58000Y-44500D01*
X44000Y-53500D02*
X44750Y-53500D01*
X53500Y-50437D02*
X53563Y-50437D01*
X53500Y-39250D02*
X54500Y-38250D01*
X44750Y-50500D02*
X44750Y-50000D01*
X50000Y-32500D02*
X50000Y-33500D01*
X39750Y-51750D02*
X41000Y-53500D01*
X58125Y-44500D02*
X58000Y-44500D01*
X57750Y-40250D02*
X57750Y-42250D01*
X49750Y-27250D02*
X49750Y-24250D01*
X45500Y-53500D02*
X48500Y-53500D01*
X49000Y-28000D02*
X49750Y-27250D01*
X51000Y-37000D02*
X51000Y-35500D01*
X51000Y-35500D02*
X51000Y-34150D01*
X50500Y-37500D02*
X51000Y-37000D01*
X52000Y-34650D02*
X52500Y-34150D01*
X52000Y-37000D02*
X52500Y-37500D01*
X52000Y-35500D02*
X52000Y-34650D01*
X52000Y-35500D02*
X52000Y-37000D01*
G54D10*
G36*
X39821Y-50000D02*
X39750Y-50071D01*
X39679Y-50000D01*
X39750Y-49929D01*
X39821Y-50000D01*
X39821Y-50000D01*
G37*
G54D33*
X39821Y-50000D02*
X39750Y-50071D01*
X39679Y-50000D01*
X39750Y-49929D01*
X39821Y-50000D01*
G54D10*
G36*
X58175Y-44050D02*
X58075Y-44050D01*
X58075Y-43950D01*
X58175Y-43950D01*
X58175Y-44050D01*
X58175Y-44050D01*
G37*
G54D33*
X58175Y-44050D02*
X58075Y-44050D01*
X58075Y-43950D01*
X58175Y-43950D01*
X58175Y-44050D01*
G54D10*
G36*
X62306Y-41504D02*
X62092Y-41361D01*
X62009Y-41160D01*
X61944Y-41095D01*
X61944Y-36011D01*
X62073Y-35883D01*
X62176Y-35635D01*
X62176Y-35366D01*
X62073Y-35118D01*
X61883Y-34927D01*
X61635Y-34824D01*
X61366Y-34824D01*
X61118Y-34927D01*
X60927Y-35117D01*
X60824Y-35365D01*
X60824Y-35634D01*
X60927Y-35882D01*
X61056Y-36011D01*
X61056Y-41095D01*
X60992Y-41160D01*
X60931Y-41304D01*
X60694Y-41066D01*
X60694Y-34750D01*
X60660Y-34580D01*
X60564Y-34436D01*
X60561Y-34434D01*
X59814Y-33686D01*
X59776Y-33660D01*
X59776Y-33536D01*
X59727Y-33416D01*
X59635Y-33324D01*
X59516Y-33274D01*
X59386Y-33274D01*
X58786Y-33274D01*
X58666Y-33323D01*
X58574Y-33415D01*
X58524Y-33534D01*
X58524Y-33664D01*
X58524Y-34464D01*
X58573Y-34584D01*
X58658Y-34669D01*
X58644Y-34675D01*
X58500Y-34819D01*
X58444Y-34763D01*
X58444Y-34542D01*
X58476Y-34466D01*
X58476Y-34336D01*
X58476Y-33536D01*
X58427Y-33416D01*
X58335Y-33324D01*
X58216Y-33274D01*
X58086Y-33274D01*
X57486Y-33274D01*
X57366Y-33323D01*
X57274Y-33415D01*
X57224Y-33534D01*
X57224Y-33664D01*
X57224Y-34464D01*
X57273Y-34584D01*
X57365Y-34676D01*
X57484Y-34726D01*
X57556Y-34726D01*
X57556Y-34763D01*
X57500Y-34819D01*
X57356Y-34675D01*
X57125Y-34579D01*
X56875Y-34579D01*
X56644Y-34675D01*
X56500Y-34819D01*
X56356Y-34675D01*
X56125Y-34579D01*
X55875Y-34579D01*
X55644Y-34675D01*
X55500Y-34819D01*
X55356Y-34675D01*
X55125Y-34579D01*
X54875Y-34579D01*
X54644Y-34675D01*
X54500Y-34819D01*
X54356Y-34675D01*
X54125Y-34579D01*
X53875Y-34579D01*
X53644Y-34675D01*
X53500Y-34819D01*
X53356Y-34675D01*
X53188Y-34605D01*
X53226Y-34516D01*
X53226Y-34386D01*
X53226Y-33786D01*
X53177Y-33666D01*
X53150Y-33639D01*
X53150Y-32962D01*
X53150Y-32738D01*
X53149Y-32501D01*
X53111Y-32409D01*
X53041Y-32339D01*
X52950Y-32301D01*
X52851Y-32301D01*
X52612Y-32300D01*
X52550Y-32362D01*
X52550Y-32800D01*
X53088Y-32800D01*
X53150Y-32738D01*
X53150Y-32962D01*
X53088Y-32900D01*
X52550Y-32900D01*
X52550Y-33338D01*
X52612Y-33400D01*
X52851Y-33399D01*
X52950Y-33399D01*
X53041Y-33361D01*
X53111Y-33291D01*
X53149Y-33199D01*
X53150Y-32962D01*
X53150Y-33639D01*
X53085Y-33574D01*
X52966Y-33524D01*
X52836Y-33524D01*
X52450Y-33524D01*
X52450Y-33338D01*
X52450Y-32900D01*
X52450Y-32800D01*
X52450Y-32362D01*
X52388Y-32300D01*
X52149Y-32301D01*
X52050Y-32301D01*
X51959Y-32339D01*
X51889Y-32409D01*
X51851Y-32501D01*
X51850Y-32738D01*
X51912Y-32800D01*
X52450Y-32800D01*
X52450Y-32900D01*
X51912Y-32900D01*
X51850Y-32962D01*
X51851Y-33199D01*
X51889Y-33291D01*
X51959Y-33361D01*
X52050Y-33399D01*
X52149Y-33399D01*
X52388Y-33400D01*
X52450Y-33338D01*
X52450Y-33524D01*
X52036Y-33524D01*
X51916Y-33573D01*
X51824Y-33665D01*
X51774Y-33784D01*
X51774Y-33914D01*
X51774Y-34248D01*
X51726Y-34296D01*
X51726Y-33786D01*
X51677Y-33666D01*
X51650Y-33639D01*
X51650Y-32962D01*
X51650Y-32738D01*
X51649Y-32501D01*
X51611Y-32409D01*
X51541Y-32339D01*
X51450Y-32301D01*
X51351Y-32301D01*
X51112Y-32300D01*
X51050Y-32362D01*
X51050Y-32800D01*
X51588Y-32800D01*
X51650Y-32738D01*
X51650Y-32962D01*
X51588Y-32900D01*
X51050Y-32900D01*
X51050Y-33338D01*
X51112Y-33400D01*
X51351Y-33399D01*
X51450Y-33399D01*
X51541Y-33361D01*
X51611Y-33291D01*
X51649Y-33199D01*
X51650Y-32962D01*
X51650Y-33639D01*
X51585Y-33574D01*
X51466Y-33524D01*
X51336Y-33524D01*
X50536Y-33524D01*
X50416Y-33573D01*
X50324Y-33665D01*
X50274Y-33784D01*
X50274Y-33914D01*
X50274Y-34514D01*
X50323Y-34634D01*
X50415Y-34726D01*
X50534Y-34776D01*
X50543Y-34776D01*
X50467Y-34852D01*
X50452Y-34887D01*
X50338Y-34763D01*
X50137Y-34678D01*
X50050Y-34725D01*
X50050Y-35400D01*
X50050Y-35450D01*
X50050Y-35550D01*
X50050Y-35600D01*
X50050Y-36275D01*
X50137Y-36322D01*
X50338Y-36237D01*
X50452Y-36112D01*
X50467Y-36148D01*
X50556Y-36237D01*
X50556Y-36781D01*
X50358Y-36781D01*
X50094Y-36890D01*
X49944Y-37039D01*
X49944Y-36750D01*
X49910Y-36580D01*
X49814Y-36436D01*
X49564Y-36186D01*
X49522Y-36158D01*
X49533Y-36148D01*
X49547Y-36112D01*
X49662Y-36237D01*
X49863Y-36322D01*
X49950Y-36275D01*
X49950Y-35600D01*
X49950Y-35550D01*
X49950Y-35450D01*
X49950Y-35400D01*
X49950Y-34725D01*
X49863Y-34678D01*
X49662Y-34763D01*
X49547Y-34887D01*
X49533Y-34852D01*
X49444Y-34763D01*
X49444Y-33596D01*
X49459Y-33611D01*
X49551Y-33649D01*
X49788Y-33650D01*
X49850Y-33588D01*
X49850Y-33050D01*
X49412Y-33050D01*
X49350Y-33112D01*
X49350Y-33185D01*
X49314Y-33131D01*
X49311Y-33129D01*
X49226Y-33043D01*
X49226Y-32536D01*
X49177Y-32416D01*
X49085Y-32324D01*
X48966Y-32274D01*
X48836Y-32274D01*
X48444Y-32274D01*
X48444Y-32212D01*
X48543Y-32113D01*
X48641Y-31878D01*
X48641Y-31623D01*
X48544Y-31387D01*
X48508Y-31351D01*
X48564Y-31314D01*
X48814Y-31064D01*
X48910Y-30920D01*
X48944Y-30750D01*
X48944Y-30278D01*
X48950Y-30275D01*
X48950Y-29600D01*
X48950Y-29550D01*
X48950Y-29450D01*
X48950Y-29400D01*
X48950Y-28725D01*
X48944Y-28721D01*
X48944Y-27434D01*
X49314Y-27064D01*
X49410Y-26920D01*
X49444Y-26750D01*
X49444Y-25993D01*
X49533Y-25904D01*
X49629Y-25673D01*
X49629Y-25423D01*
X49629Y-24839D01*
X49533Y-24608D01*
X49370Y-24445D01*
X49489Y-24316D01*
X49565Y-24106D01*
X49565Y-23794D01*
X49100Y-23794D01*
X49050Y-23794D01*
X48950Y-23794D01*
X48950Y-23694D01*
X49050Y-23694D01*
X49100Y-23694D01*
X49565Y-23694D01*
X49565Y-23382D01*
X49496Y-23194D01*
X49806Y-23194D01*
X49806Y-26000D01*
X49806Y-26250D01*
X49806Y-27250D01*
X49806Y-28500D01*
X49825Y-28599D01*
X49644Y-28675D01*
X49467Y-28852D01*
X49452Y-28887D01*
X49338Y-28763D01*
X49137Y-28678D01*
X49050Y-28725D01*
X49050Y-29400D01*
X49050Y-29450D01*
X49050Y-29550D01*
X49050Y-29600D01*
X49050Y-30275D01*
X49137Y-30322D01*
X49338Y-30237D01*
X49452Y-30112D01*
X49467Y-30148D01*
X49556Y-30237D01*
X49556Y-31287D01*
X49457Y-31387D01*
X49359Y-31622D01*
X49359Y-31877D01*
X49456Y-32113D01*
X49637Y-32293D01*
X49773Y-32350D01*
X49551Y-32351D01*
X49459Y-32389D01*
X49389Y-32459D01*
X49351Y-32550D01*
X49351Y-32649D01*
X49350Y-32888D01*
X49412Y-32950D01*
X49800Y-32950D01*
X49850Y-32950D01*
X49950Y-32950D01*
X49950Y-33050D01*
X49950Y-33100D01*
X49950Y-33588D01*
X50012Y-33650D01*
X50249Y-33649D01*
X50341Y-33611D01*
X50411Y-33541D01*
X50449Y-33450D01*
X50449Y-33351D01*
X50459Y-33361D01*
X50550Y-33399D01*
X50649Y-33399D01*
X50888Y-33400D01*
X50950Y-33338D01*
X50950Y-32950D01*
X50950Y-32900D01*
X50950Y-32800D01*
X50950Y-32750D01*
X50950Y-32362D01*
X50888Y-32300D01*
X50649Y-32301D01*
X50550Y-32301D01*
X50459Y-32339D01*
X50389Y-32409D01*
X50380Y-32428D01*
X50341Y-32389D01*
X50249Y-32351D01*
X50224Y-32350D01*
X50363Y-32294D01*
X50462Y-32194D01*
X60250Y-32194D01*
X60420Y-32160D01*
X60564Y-32064D01*
X61811Y-30815D01*
X61813Y-30814D01*
X61814Y-30814D01*
X61910Y-30670D01*
X61944Y-30501D01*
X61943Y-30500D01*
X61944Y-30500D01*
X61944Y-30011D01*
X62073Y-29883D01*
X62176Y-29635D01*
X62176Y-29366D01*
X62073Y-29118D01*
X61883Y-28927D01*
X61635Y-28824D01*
X61366Y-28824D01*
X61118Y-28927D01*
X60927Y-29117D01*
X60824Y-29365D01*
X60824Y-29634D01*
X60927Y-29882D01*
X61056Y-30011D01*
X61056Y-30316D01*
X60066Y-31306D01*
X59821Y-31306D01*
X60561Y-30565D01*
X60563Y-30564D01*
X60564Y-30564D01*
X60660Y-30420D01*
X60694Y-30250D01*
X60694Y-28433D01*
X61183Y-27944D01*
X61816Y-27944D01*
X62306Y-28433D01*
X62306Y-41504D01*
X62306Y-41504D01*
G37*
G54D33*
X62306Y-41504D02*
X62092Y-41361D01*
X62009Y-41160D01*
X61944Y-41095D01*
X61944Y-36011D01*
X62073Y-35883D01*
X62176Y-35635D01*
X62176Y-35366D01*
X62073Y-35118D01*
X61883Y-34927D01*
X61635Y-34824D01*
X61366Y-34824D01*
X61118Y-34927D01*
X60927Y-35117D01*
X60824Y-35365D01*
X60824Y-35634D01*
X60927Y-35882D01*
X61056Y-36011D01*
X61056Y-41095D01*
X60992Y-41160D01*
X60931Y-41304D01*
X60694Y-41066D01*
X60694Y-34750D01*
X60660Y-34580D01*
X60564Y-34436D01*
X60561Y-34434D01*
X59814Y-33686D01*
X59776Y-33660D01*
X59776Y-33536D01*
X59727Y-33416D01*
X59635Y-33324D01*
X59516Y-33274D01*
X59386Y-33274D01*
X58786Y-33274D01*
X58666Y-33323D01*
X58574Y-33415D01*
X58524Y-33534D01*
X58524Y-33664D01*
X58524Y-34464D01*
X58573Y-34584D01*
X58658Y-34669D01*
X58644Y-34675D01*
X58500Y-34819D01*
X58444Y-34763D01*
X58444Y-34542D01*
X58476Y-34466D01*
X58476Y-34336D01*
X58476Y-33536D01*
X58427Y-33416D01*
X58335Y-33324D01*
X58216Y-33274D01*
X58086Y-33274D01*
X57486Y-33274D01*
X57366Y-33323D01*
X57274Y-33415D01*
X57224Y-33534D01*
X57224Y-33664D01*
X57224Y-34464D01*
X57273Y-34584D01*
X57365Y-34676D01*
X57484Y-34726D01*
X57556Y-34726D01*
X57556Y-34763D01*
X57500Y-34819D01*
X57356Y-34675D01*
X57125Y-34579D01*
X56875Y-34579D01*
X56644Y-34675D01*
X56500Y-34819D01*
X56356Y-34675D01*
X56125Y-34579D01*
X55875Y-34579D01*
X55644Y-34675D01*
X55500Y-34819D01*
X55356Y-34675D01*
X55125Y-34579D01*
X54875Y-34579D01*
X54644Y-34675D01*
X54500Y-34819D01*
X54356Y-34675D01*
X54125Y-34579D01*
X53875Y-34579D01*
X53644Y-34675D01*
X53500Y-34819D01*
X53356Y-34675D01*
X53188Y-34605D01*
X53226Y-34516D01*
X53226Y-34386D01*
X53226Y-33786D01*
X53177Y-33666D01*
X53150Y-33639D01*
X53150Y-32962D01*
X53150Y-32738D01*
X53149Y-32501D01*
X53111Y-32409D01*
X53041Y-32339D01*
X52950Y-32301D01*
X52851Y-32301D01*
X52612Y-32300D01*
X52550Y-32362D01*
X52550Y-32800D01*
X53088Y-32800D01*
X53150Y-32738D01*
X53150Y-32962D01*
X53088Y-32900D01*
X52550Y-32900D01*
X52550Y-33338D01*
X52612Y-33400D01*
X52851Y-33399D01*
X52950Y-33399D01*
X53041Y-33361D01*
X53111Y-33291D01*
X53149Y-33199D01*
X53150Y-32962D01*
X53150Y-33639D01*
X53085Y-33574D01*
X52966Y-33524D01*
X52836Y-33524D01*
X52450Y-33524D01*
X52450Y-33338D01*
X52450Y-32900D01*
X52450Y-32800D01*
X52450Y-32362D01*
X52388Y-32300D01*
X52149Y-32301D01*
X52050Y-32301D01*
X51959Y-32339D01*
X51889Y-32409D01*
X51851Y-32501D01*
X51850Y-32738D01*
X51912Y-32800D01*
X52450Y-32800D01*
X52450Y-32900D01*
X51912Y-32900D01*
X51850Y-32962D01*
X51851Y-33199D01*
X51889Y-33291D01*
X51959Y-33361D01*
X52050Y-33399D01*
X52149Y-33399D01*
X52388Y-33400D01*
X52450Y-33338D01*
X52450Y-33524D01*
X52036Y-33524D01*
X51916Y-33573D01*
X51824Y-33665D01*
X51774Y-33784D01*
X51774Y-33914D01*
X51774Y-34248D01*
X51726Y-34296D01*
X51726Y-33786D01*
X51677Y-33666D01*
X51650Y-33639D01*
X51650Y-32962D01*
X51650Y-32738D01*
X51649Y-32501D01*
X51611Y-32409D01*
X51541Y-32339D01*
X51450Y-32301D01*
X51351Y-32301D01*
X51112Y-32300D01*
X51050Y-32362D01*
X51050Y-32800D01*
X51588Y-32800D01*
X51650Y-32738D01*
X51650Y-32962D01*
X51588Y-32900D01*
X51050Y-32900D01*
X51050Y-33338D01*
X51112Y-33400D01*
X51351Y-33399D01*
X51450Y-33399D01*
X51541Y-33361D01*
X51611Y-33291D01*
X51649Y-33199D01*
X51650Y-32962D01*
X51650Y-33639D01*
X51585Y-33574D01*
X51466Y-33524D01*
X51336Y-33524D01*
X50536Y-33524D01*
X50416Y-33573D01*
X50324Y-33665D01*
X50274Y-33784D01*
X50274Y-33914D01*
X50274Y-34514D01*
X50323Y-34634D01*
X50415Y-34726D01*
X50534Y-34776D01*
X50543Y-34776D01*
X50467Y-34852D01*
X50452Y-34887D01*
X50338Y-34763D01*
X50137Y-34678D01*
X50050Y-34725D01*
X50050Y-35400D01*
X50050Y-35450D01*
X50050Y-35550D01*
X50050Y-35600D01*
X50050Y-36275D01*
X50137Y-36322D01*
X50338Y-36237D01*
X50452Y-36112D01*
X50467Y-36148D01*
X50556Y-36237D01*
X50556Y-36781D01*
X50358Y-36781D01*
X50094Y-36890D01*
X49944Y-37039D01*
X49944Y-36750D01*
X49910Y-36580D01*
X49814Y-36436D01*
X49564Y-36186D01*
X49522Y-36158D01*
X49533Y-36148D01*
X49547Y-36112D01*
X49662Y-36237D01*
X49863Y-36322D01*
X49950Y-36275D01*
X49950Y-35600D01*
X49950Y-35550D01*
X49950Y-35450D01*
X49950Y-35400D01*
X49950Y-34725D01*
X49863Y-34678D01*
X49662Y-34763D01*
X49547Y-34887D01*
X49533Y-34852D01*
X49444Y-34763D01*
X49444Y-33596D01*
X49459Y-33611D01*
X49551Y-33649D01*
X49788Y-33650D01*
X49850Y-33588D01*
X49850Y-33050D01*
X49412Y-33050D01*
X49350Y-33112D01*
X49350Y-33185D01*
X49314Y-33131D01*
X49311Y-33129D01*
X49226Y-33043D01*
X49226Y-32536D01*
X49177Y-32416D01*
X49085Y-32324D01*
X48966Y-32274D01*
X48836Y-32274D01*
X48444Y-32274D01*
X48444Y-32212D01*
X48543Y-32113D01*
X48641Y-31878D01*
X48641Y-31623D01*
X48544Y-31387D01*
X48508Y-31351D01*
X48564Y-31314D01*
X48814Y-31064D01*
X48910Y-30920D01*
X48944Y-30750D01*
X48944Y-30278D01*
X48950Y-30275D01*
X48950Y-29600D01*
X48950Y-29550D01*
X48950Y-29450D01*
X48950Y-29400D01*
X48950Y-28725D01*
X48944Y-28721D01*
X48944Y-27434D01*
X49314Y-27064D01*
X49410Y-26920D01*
X49444Y-26750D01*
X49444Y-25993D01*
X49533Y-25904D01*
X49629Y-25673D01*
X49629Y-25423D01*
X49629Y-24839D01*
X49533Y-24608D01*
X49370Y-24445D01*
X49489Y-24316D01*
X49565Y-24106D01*
X49565Y-23794D01*
X49100Y-23794D01*
X49050Y-23794D01*
X48950Y-23794D01*
X48950Y-23694D01*
X49050Y-23694D01*
X49100Y-23694D01*
X49565Y-23694D01*
X49565Y-23382D01*
X49496Y-23194D01*
X49806Y-23194D01*
X49806Y-26000D01*
X49806Y-26250D01*
X49806Y-27250D01*
X49806Y-28500D01*
X49825Y-28599D01*
X49644Y-28675D01*
X49467Y-28852D01*
X49452Y-28887D01*
X49338Y-28763D01*
X49137Y-28678D01*
X49050Y-28725D01*
X49050Y-29400D01*
X49050Y-29450D01*
X49050Y-29550D01*
X49050Y-29600D01*
X49050Y-30275D01*
X49137Y-30322D01*
X49338Y-30237D01*
X49452Y-30112D01*
X49467Y-30148D01*
X49556Y-30237D01*
X49556Y-31287D01*
X49457Y-31387D01*
X49359Y-31622D01*
X49359Y-31877D01*
X49456Y-32113D01*
X49637Y-32293D01*
X49773Y-32350D01*
X49551Y-32351D01*
X49459Y-32389D01*
X49389Y-32459D01*
X49351Y-32550D01*
X49351Y-32649D01*
X49350Y-32888D01*
X49412Y-32950D01*
X49800Y-32950D01*
X49850Y-32950D01*
X49950Y-32950D01*
X49950Y-33050D01*
X49950Y-33100D01*
X49950Y-33588D01*
X50012Y-33650D01*
X50249Y-33649D01*
X50341Y-33611D01*
X50411Y-33541D01*
X50449Y-33450D01*
X50449Y-33351D01*
X50459Y-33361D01*
X50550Y-33399D01*
X50649Y-33399D01*
X50888Y-33400D01*
X50950Y-33338D01*
X50950Y-32950D01*
X50950Y-32900D01*
X50950Y-32800D01*
X50950Y-32750D01*
X50950Y-32362D01*
X50888Y-32300D01*
X50649Y-32301D01*
X50550Y-32301D01*
X50459Y-32339D01*
X50389Y-32409D01*
X50380Y-32428D01*
X50341Y-32389D01*
X50249Y-32351D01*
X50224Y-32350D01*
X50363Y-32294D01*
X50462Y-32194D01*
X60250Y-32194D01*
X60420Y-32160D01*
X60564Y-32064D01*
X61811Y-30815D01*
X61813Y-30814D01*
X61814Y-30814D01*
X61910Y-30670D01*
X61944Y-30501D01*
X61943Y-30500D01*
X61944Y-30500D01*
X61944Y-30011D01*
X62073Y-29883D01*
X62176Y-29635D01*
X62176Y-29366D01*
X62073Y-29118D01*
X61883Y-28927D01*
X61635Y-28824D01*
X61366Y-28824D01*
X61118Y-28927D01*
X60927Y-29117D01*
X60824Y-29365D01*
X60824Y-29634D01*
X60927Y-29882D01*
X61056Y-30011D01*
X61056Y-30316D01*
X60066Y-31306D01*
X59821Y-31306D01*
X60561Y-30565D01*
X60563Y-30564D01*
X60564Y-30564D01*
X60660Y-30420D01*
X60694Y-30250D01*
X60694Y-28433D01*
X61183Y-27944D01*
X61816Y-27944D01*
X62306Y-28433D01*
X62306Y-41504D01*
G54D10*
G36*
X63849Y-52619D02*
X63832Y-52615D01*
X63798Y-52444D01*
X63738Y-52300D01*
X63468Y-51894D01*
X63467Y-51893D01*
X63357Y-51783D01*
X63356Y-51782D01*
X62950Y-51511D01*
X62806Y-51451D01*
X62634Y-51417D01*
X62620Y-51347D01*
X62534Y-51216D01*
X62403Y-51130D01*
X62250Y-51099D01*
X62097Y-51130D01*
X61966Y-51216D01*
X61880Y-51347D01*
X61865Y-51417D01*
X61694Y-51452D01*
X61550Y-51512D01*
X61144Y-51782D01*
X61143Y-51783D01*
X61033Y-51893D01*
X61032Y-51894D01*
X60761Y-52300D01*
X60701Y-52444D01*
X60667Y-52615D01*
X60597Y-52630D01*
X60466Y-52716D01*
X60380Y-52847D01*
X60349Y-53000D01*
X60380Y-53153D01*
X60466Y-53284D01*
X60597Y-53370D01*
X60667Y-53384D01*
X60701Y-53556D01*
X60761Y-53700D01*
X61032Y-54106D01*
X61033Y-54107D01*
X61143Y-54217D01*
X61144Y-54218D01*
X61550Y-54488D01*
X61694Y-54548D01*
X61865Y-54582D01*
X61869Y-54599D01*
X55880Y-54599D01*
X55880Y-51693D01*
X55876Y-51289D01*
X55728Y-50932D01*
X55585Y-50847D01*
X55515Y-50917D01*
X55515Y-50777D01*
X55430Y-50634D01*
X55340Y-50597D01*
X55340Y-49543D01*
X55340Y-49319D01*
X55339Y-48989D01*
X55301Y-48897D01*
X55231Y-48827D01*
X55140Y-48789D01*
X55041Y-48789D01*
X54612Y-48788D01*
X54550Y-48850D01*
X54550Y-49381D01*
X55278Y-49381D01*
X55340Y-49319D01*
X55340Y-49543D01*
X55278Y-49481D01*
X54550Y-49481D01*
X54550Y-50012D01*
X54612Y-50074D01*
X55041Y-50073D01*
X55140Y-50073D01*
X55231Y-50035D01*
X55301Y-49965D01*
X55339Y-49873D01*
X55340Y-49543D01*
X55340Y-50597D01*
X55055Y-50482D01*
X54651Y-50486D01*
X54450Y-50569D01*
X54450Y-50012D01*
X54450Y-49481D01*
X54450Y-49381D01*
X54450Y-48850D01*
X54388Y-48788D01*
X53959Y-48789D01*
X53860Y-48789D01*
X53769Y-48827D01*
X53699Y-48897D01*
X53661Y-48989D01*
X53660Y-49319D01*
X53722Y-49381D01*
X54450Y-49381D01*
X54450Y-49481D01*
X53722Y-49481D01*
X53660Y-49543D01*
X53661Y-49873D01*
X53699Y-49965D01*
X53769Y-50035D01*
X53860Y-50073D01*
X53959Y-50073D01*
X54388Y-50074D01*
X54450Y-50012D01*
X54450Y-50569D01*
X54294Y-50634D01*
X54209Y-50777D01*
X54862Y-51429D01*
X55515Y-50777D01*
X55515Y-50917D01*
X54933Y-51500D01*
X55585Y-52153D01*
X55728Y-52068D01*
X55880Y-51693D01*
X55880Y-54599D01*
X55515Y-54599D01*
X55515Y-52223D01*
X54862Y-51571D01*
X54791Y-51641D01*
X54791Y-51500D01*
X54139Y-50847D01*
X53996Y-50932D01*
X53844Y-51307D01*
X53848Y-51711D01*
X53996Y-52068D01*
X54139Y-52153D01*
X54791Y-51500D01*
X54791Y-51641D01*
X54209Y-52223D01*
X54294Y-52366D01*
X54669Y-52518D01*
X55073Y-52514D01*
X55430Y-52366D01*
X55515Y-52223D01*
X55515Y-54599D01*
X53565Y-54599D01*
X53565Y-51055D01*
X53565Y-50743D01*
X53050Y-50743D01*
X53050Y-51468D01*
X53137Y-51515D01*
X53338Y-51430D01*
X53489Y-51265D01*
X53565Y-51055D01*
X53565Y-54599D01*
X50791Y-54599D01*
X50791Y-52223D01*
X50138Y-51571D01*
X49485Y-52223D01*
X49570Y-52366D01*
X49945Y-52518D01*
X50349Y-52514D01*
X50706Y-52366D01*
X50791Y-52223D01*
X50791Y-54599D01*
X49231Y-54599D01*
X49231Y-53624D01*
X49223Y-53335D01*
X49128Y-53105D01*
X49015Y-53056D01*
X48944Y-53127D01*
X48944Y-52985D01*
X48895Y-52872D01*
X48624Y-52769D01*
X48335Y-52777D01*
X48105Y-52872D01*
X48056Y-52985D01*
X48500Y-53429D01*
X48944Y-52985D01*
X48944Y-53127D01*
X48571Y-53500D01*
X49015Y-53944D01*
X49128Y-53895D01*
X49231Y-53624D01*
X49231Y-54599D01*
X48944Y-54599D01*
X48944Y-54015D01*
X48500Y-53571D01*
X48429Y-53642D01*
X48429Y-53500D01*
X47985Y-53056D01*
X47872Y-53105D01*
X47769Y-53376D01*
X47777Y-53665D01*
X47872Y-53895D01*
X47985Y-53944D01*
X48429Y-53500D01*
X48429Y-53642D01*
X48056Y-54015D01*
X48105Y-54128D01*
X48376Y-54231D01*
X48665Y-54223D01*
X48895Y-54128D01*
X48944Y-54015D01*
X48944Y-54599D01*
X46231Y-54599D01*
X46231Y-53624D01*
X46223Y-53335D01*
X46128Y-53105D01*
X46015Y-53056D01*
X45944Y-53127D01*
X45944Y-52985D01*
X45895Y-52872D01*
X45624Y-52769D01*
X45335Y-52777D01*
X45105Y-52872D01*
X45056Y-52985D01*
X45500Y-53429D01*
X45944Y-52985D01*
X45944Y-53127D01*
X45571Y-53500D01*
X46015Y-53944D01*
X46128Y-53895D01*
X46231Y-53624D01*
X46231Y-54599D01*
X45944Y-54599D01*
X45944Y-54015D01*
X45500Y-53571D01*
X45429Y-53642D01*
X45429Y-53500D01*
X44985Y-53056D01*
X44872Y-53105D01*
X44769Y-53376D01*
X44777Y-53665D01*
X44872Y-53895D01*
X44985Y-53944D01*
X45429Y-53500D01*
X45429Y-53642D01*
X45056Y-54015D01*
X45105Y-54128D01*
X45376Y-54231D01*
X45665Y-54223D01*
X45895Y-54128D01*
X45944Y-54015D01*
X45944Y-54599D01*
X44731Y-54599D01*
X44731Y-53624D01*
X44723Y-53335D01*
X44628Y-53105D01*
X44515Y-53056D01*
X44444Y-53127D01*
X44444Y-52985D01*
X44395Y-52872D01*
X44124Y-52769D01*
X43835Y-52777D01*
X43605Y-52872D01*
X43556Y-52985D01*
X44000Y-53429D01*
X44444Y-52985D01*
X44444Y-53127D01*
X44071Y-53500D01*
X44515Y-53944D01*
X44628Y-53895D01*
X44731Y-53624D01*
X44731Y-54599D01*
X44444Y-54599D01*
X44444Y-54015D01*
X44000Y-53571D01*
X43929Y-53642D01*
X43929Y-53500D01*
X43485Y-53056D01*
X43372Y-53105D01*
X43269Y-53376D01*
X43277Y-53665D01*
X43372Y-53895D01*
X43485Y-53944D01*
X43929Y-53500D01*
X43929Y-53642D01*
X43556Y-54015D01*
X43605Y-54128D01*
X43876Y-54231D01*
X44165Y-54223D01*
X44395Y-54128D01*
X44444Y-54015D01*
X44444Y-54599D01*
X43149Y-54599D01*
X43150Y-54512D01*
X43150Y-54288D01*
X43149Y-54051D01*
X43111Y-53959D01*
X43041Y-53889D01*
X42950Y-53851D01*
X42851Y-53851D01*
X42612Y-53850D01*
X42550Y-53912D01*
X42550Y-54350D01*
X43088Y-54350D01*
X43150Y-54288D01*
X43150Y-54512D01*
X43088Y-54450D01*
X42600Y-54450D01*
X42550Y-54450D01*
X42450Y-54450D01*
X42450Y-54350D01*
X42450Y-53912D01*
X42388Y-53850D01*
X42149Y-53851D01*
X42050Y-53851D01*
X41959Y-53889D01*
X41889Y-53959D01*
X41851Y-54051D01*
X41850Y-54288D01*
X41912Y-54350D01*
X42450Y-54350D01*
X42450Y-54450D01*
X42400Y-54450D01*
X41912Y-54450D01*
X41850Y-54512D01*
X41850Y-54599D01*
X41731Y-54599D01*
X41731Y-53624D01*
X41723Y-53335D01*
X41628Y-53105D01*
X41515Y-53056D01*
X41444Y-53127D01*
X41444Y-52985D01*
X41395Y-52872D01*
X41124Y-52769D01*
X40835Y-52777D01*
X40605Y-52872D01*
X40556Y-52985D01*
X41000Y-53429D01*
X41444Y-52985D01*
X41444Y-53127D01*
X41071Y-53500D01*
X41515Y-53944D01*
X41628Y-53895D01*
X41731Y-53624D01*
X41731Y-54599D01*
X41444Y-54599D01*
X41444Y-54015D01*
X41000Y-53571D01*
X40929Y-53642D01*
X40929Y-53500D01*
X40485Y-53056D01*
X40372Y-53105D01*
X40269Y-53376D01*
X40277Y-53665D01*
X40372Y-53895D01*
X40485Y-53944D01*
X40929Y-53500D01*
X40929Y-53642D01*
X40556Y-54015D01*
X40605Y-54128D01*
X40876Y-54231D01*
X41165Y-54223D01*
X41395Y-54128D01*
X41444Y-54015D01*
X41444Y-54599D01*
X40123Y-54599D01*
X38380Y-54599D01*
X38384Y-54582D01*
X38556Y-54549D01*
X38556Y-54548D01*
X38700Y-54489D01*
X39106Y-54218D01*
X39107Y-54217D01*
X39217Y-54107D01*
X39218Y-54106D01*
X39488Y-53700D01*
X39547Y-53556D01*
X39548Y-53556D01*
X39582Y-53384D01*
X39653Y-53370D01*
X39784Y-53284D01*
X39870Y-53153D01*
X39901Y-53000D01*
X39870Y-52847D01*
X39784Y-52716D01*
X39653Y-52630D01*
X39582Y-52615D01*
X39548Y-52444D01*
X39488Y-52300D01*
X39218Y-51894D01*
X39217Y-51893D01*
X39107Y-51783D01*
X39106Y-51782D01*
X38700Y-51511D01*
X38556Y-51451D01*
X38384Y-51417D01*
X38370Y-51347D01*
X38284Y-51216D01*
X38153Y-51130D01*
X38000Y-51099D01*
X37847Y-51130D01*
X37716Y-51216D01*
X37630Y-51347D01*
X37615Y-51417D01*
X37444Y-51452D01*
X37300Y-51512D01*
X36894Y-51782D01*
X36893Y-51783D01*
X36783Y-51893D01*
X36782Y-51894D01*
X36511Y-52300D01*
X36451Y-52444D01*
X36417Y-52615D01*
X36401Y-52619D01*
X36401Y-18130D01*
X36417Y-18134D01*
X36451Y-18306D01*
X36511Y-18450D01*
X36782Y-18856D01*
X36783Y-18857D01*
X36893Y-18967D01*
X36894Y-18968D01*
X37300Y-19238D01*
X37444Y-19298D01*
X37615Y-19332D01*
X37630Y-19403D01*
X37716Y-19534D01*
X37847Y-19620D01*
X38000Y-19651D01*
X38153Y-19620D01*
X38284Y-19534D01*
X38370Y-19403D01*
X38384Y-19332D01*
X38556Y-19299D01*
X38556Y-19298D01*
X38700Y-19239D01*
X39106Y-18968D01*
X39107Y-18967D01*
X39217Y-18857D01*
X39218Y-18856D01*
X39488Y-18450D01*
X39547Y-18306D01*
X39548Y-18306D01*
X39556Y-18265D01*
X39556Y-20224D01*
X39536Y-20224D01*
X39416Y-20273D01*
X39324Y-20365D01*
X39274Y-20484D01*
X39274Y-20614D01*
X39274Y-21214D01*
X39323Y-21334D01*
X39415Y-21426D01*
X39534Y-21476D01*
X39664Y-21476D01*
X40464Y-21476D01*
X40499Y-21461D01*
X40534Y-21476D01*
X40664Y-21476D01*
X41464Y-21476D01*
X41499Y-21461D01*
X41534Y-21476D01*
X41664Y-21476D01*
X42464Y-21476D01*
X42499Y-21461D01*
X42534Y-21476D01*
X42664Y-21476D01*
X43464Y-21476D01*
X43499Y-21461D01*
X43534Y-21476D01*
X43664Y-21476D01*
X44464Y-21476D01*
X44499Y-21461D01*
X44534Y-21476D01*
X44664Y-21476D01*
X45464Y-21476D01*
X45584Y-21427D01*
X45676Y-21335D01*
X45726Y-21216D01*
X45726Y-21194D01*
X46178Y-21194D01*
X45686Y-21686D01*
X45685Y-21686D01*
X45677Y-21666D01*
X45585Y-21574D01*
X45466Y-21524D01*
X45336Y-21524D01*
X44536Y-21524D01*
X44500Y-21538D01*
X44466Y-21524D01*
X44336Y-21524D01*
X43536Y-21524D01*
X43500Y-21538D01*
X43466Y-21524D01*
X43336Y-21524D01*
X42536Y-21524D01*
X42500Y-21538D01*
X42466Y-21524D01*
X42336Y-21524D01*
X41536Y-21524D01*
X41500Y-21538D01*
X41466Y-21524D01*
X41336Y-21524D01*
X40536Y-21524D01*
X40500Y-21538D01*
X40466Y-21524D01*
X40336Y-21524D01*
X39536Y-21524D01*
X39416Y-21573D01*
X39324Y-21665D01*
X39274Y-21784D01*
X39274Y-21914D01*
X39274Y-22514D01*
X39323Y-22634D01*
X39415Y-22726D01*
X39534Y-22776D01*
X39556Y-22776D01*
X39556Y-23007D01*
X39467Y-23096D01*
X39371Y-23327D01*
X39371Y-23577D01*
X39371Y-24161D01*
X39467Y-24392D01*
X39575Y-24500D01*
X39467Y-24608D01*
X39371Y-24839D01*
X39371Y-25089D01*
X39371Y-25673D01*
X39467Y-25904D01*
X39556Y-25993D01*
X39556Y-26224D01*
X39536Y-26224D01*
X39416Y-26273D01*
X39324Y-26365D01*
X39274Y-26484D01*
X39274Y-26614D01*
X39274Y-27214D01*
X39323Y-27334D01*
X39415Y-27426D01*
X39534Y-27476D01*
X39664Y-27476D01*
X40464Y-27476D01*
X40499Y-27461D01*
X40534Y-27476D01*
X40664Y-27476D01*
X41464Y-27476D01*
X41499Y-27461D01*
X41534Y-27476D01*
X41664Y-27476D01*
X42464Y-27476D01*
X42499Y-27461D01*
X42534Y-27476D01*
X42664Y-27476D01*
X43464Y-27476D01*
X43499Y-27461D01*
X43534Y-27476D01*
X43664Y-27476D01*
X44464Y-27476D01*
X44499Y-27461D01*
X44534Y-27476D01*
X44664Y-27476D01*
X45464Y-27476D01*
X45499Y-27461D01*
X45534Y-27476D01*
X45664Y-27476D01*
X46464Y-27476D01*
X46499Y-27461D01*
X46534Y-27476D01*
X46664Y-27476D01*
X47464Y-27476D01*
X47556Y-27438D01*
X47556Y-27561D01*
X47466Y-27524D01*
X47336Y-27524D01*
X46536Y-27524D01*
X46500Y-27538D01*
X46466Y-27524D01*
X46336Y-27524D01*
X45536Y-27524D01*
X45500Y-27538D01*
X45466Y-27524D01*
X45336Y-27524D01*
X44536Y-27524D01*
X44500Y-27538D01*
X44466Y-27524D01*
X44336Y-27524D01*
X43536Y-27524D01*
X43500Y-27538D01*
X43466Y-27524D01*
X43336Y-27524D01*
X42536Y-27524D01*
X42500Y-27538D01*
X42466Y-27524D01*
X42336Y-27524D01*
X41536Y-27524D01*
X41500Y-27538D01*
X41466Y-27524D01*
X41336Y-27524D01*
X40536Y-27524D01*
X40500Y-27538D01*
X40466Y-27524D01*
X40336Y-27524D01*
X39536Y-27524D01*
X39416Y-27573D01*
X39324Y-27665D01*
X39274Y-27784D01*
X39274Y-27914D01*
X39274Y-28514D01*
X39323Y-28634D01*
X39415Y-28726D01*
X39534Y-28776D01*
X39543Y-28776D01*
X39467Y-28852D01*
X39371Y-29083D01*
X39371Y-29333D01*
X39371Y-29917D01*
X39467Y-30148D01*
X39644Y-30325D01*
X39875Y-30421D01*
X40125Y-30421D01*
X40356Y-30325D01*
X40500Y-30181D01*
X40644Y-30325D01*
X40875Y-30421D01*
X41125Y-30421D01*
X41356Y-30325D01*
X41500Y-30181D01*
X41644Y-30325D01*
X41875Y-30421D01*
X42125Y-30421D01*
X42356Y-30325D01*
X42500Y-30181D01*
X42644Y-30325D01*
X42875Y-30421D01*
X43125Y-30421D01*
X43207Y-30386D01*
X43207Y-30387D01*
X43109Y-30622D01*
X43109Y-30877D01*
X43150Y-30977D01*
X42641Y-30977D01*
X42621Y-30985D01*
X42621Y-30864D01*
X42572Y-30744D01*
X42480Y-30652D01*
X42361Y-30602D01*
X42231Y-30602D01*
X41641Y-30602D01*
X41521Y-30651D01*
X41491Y-30681D01*
X41375Y-30681D01*
X41205Y-30715D01*
X41061Y-30811D01*
X41060Y-30811D01*
X41060Y-30812D01*
X40436Y-31436D01*
X40340Y-31580D01*
X40306Y-31750D01*
X40306Y-32750D01*
X40340Y-32920D01*
X40436Y-33064D01*
X40936Y-33564D01*
X41024Y-33622D01*
X41024Y-33664D01*
X41024Y-34264D01*
X41073Y-34384D01*
X41165Y-34476D01*
X41284Y-34526D01*
X41414Y-34526D01*
X41556Y-34526D01*
X41556Y-34763D01*
X41500Y-34819D01*
X41356Y-34675D01*
X41125Y-34579D01*
X40875Y-34579D01*
X40644Y-34675D01*
X40500Y-34819D01*
X40356Y-34675D01*
X40125Y-34579D01*
X39875Y-34579D01*
X39644Y-34675D01*
X39467Y-34852D01*
X39371Y-35083D01*
X39371Y-35333D01*
X39371Y-35501D01*
X39186Y-35686D01*
X39090Y-35830D01*
X39056Y-36000D01*
X39056Y-36724D01*
X39036Y-36724D01*
X38916Y-36773D01*
X38824Y-36865D01*
X38774Y-36984D01*
X38774Y-37114D01*
X38774Y-37714D01*
X38823Y-37834D01*
X38915Y-37926D01*
X39034Y-37976D01*
X39164Y-37976D01*
X39964Y-37976D01*
X40084Y-37927D01*
X40176Y-37835D01*
X40226Y-37716D01*
X40226Y-37586D01*
X40226Y-36986D01*
X40177Y-36866D01*
X40085Y-36774D01*
X39966Y-36724D01*
X39944Y-36724D01*
X39944Y-36421D01*
X40125Y-36421D01*
X40356Y-36325D01*
X40500Y-36181D01*
X40556Y-36237D01*
X40556Y-36724D01*
X40536Y-36724D01*
X40416Y-36773D01*
X40324Y-36865D01*
X40274Y-36984D01*
X40274Y-37114D01*
X40274Y-37714D01*
X40323Y-37834D01*
X40415Y-37926D01*
X40534Y-37976D01*
X40664Y-37976D01*
X41464Y-37976D01*
X41584Y-37927D01*
X41676Y-37835D01*
X41726Y-37716D01*
X41726Y-37586D01*
X41726Y-36986D01*
X41677Y-36866D01*
X41585Y-36774D01*
X41466Y-36724D01*
X41444Y-36724D01*
X41444Y-36237D01*
X41500Y-36181D01*
X41644Y-36325D01*
X41875Y-36421D01*
X42056Y-36421D01*
X42056Y-39566D01*
X41325Y-40296D01*
X41410Y-40170D01*
X41444Y-40000D01*
X41444Y-39276D01*
X41464Y-39276D01*
X41584Y-39227D01*
X41676Y-39135D01*
X41726Y-39016D01*
X41726Y-38886D01*
X41726Y-38286D01*
X41677Y-38166D01*
X41585Y-38074D01*
X41466Y-38024D01*
X41336Y-38024D01*
X40536Y-38024D01*
X40416Y-38073D01*
X40324Y-38165D01*
X40274Y-38284D01*
X40274Y-38414D01*
X40274Y-39014D01*
X40323Y-39134D01*
X40415Y-39226D01*
X40534Y-39276D01*
X40556Y-39276D01*
X40556Y-39806D01*
X39572Y-39806D01*
X39814Y-39564D01*
X39910Y-39420D01*
X39938Y-39276D01*
X39964Y-39276D01*
X40084Y-39227D01*
X40176Y-39135D01*
X40226Y-39016D01*
X40226Y-38886D01*
X40226Y-38286D01*
X40177Y-38166D01*
X40085Y-38074D01*
X39966Y-38024D01*
X39836Y-38024D01*
X39036Y-38024D01*
X38916Y-38073D01*
X38824Y-38165D01*
X38774Y-38284D01*
X38774Y-38414D01*
X38774Y-39014D01*
X38823Y-39134D01*
X38905Y-39216D01*
X37686Y-40436D01*
X37590Y-40580D01*
X37556Y-40750D01*
X37556Y-49250D01*
X37590Y-49420D01*
X37686Y-49564D01*
X38031Y-49908D01*
X38031Y-50142D01*
X38140Y-50406D01*
X38342Y-50609D01*
X38606Y-50719D01*
X38892Y-50719D01*
X39156Y-50610D01*
X39295Y-50470D01*
X39358Y-50533D01*
X39395Y-50495D01*
X39414Y-50548D01*
X39650Y-50635D01*
X39900Y-50625D01*
X40086Y-50548D01*
X40104Y-50495D01*
X40123Y-50514D01*
X40142Y-50533D01*
X40204Y-50470D01*
X40342Y-50609D01*
X40606Y-50719D01*
X40748Y-50719D01*
X40537Y-50806D01*
X40307Y-51036D01*
X40182Y-51337D01*
X40182Y-51662D01*
X40306Y-51963D01*
X40536Y-52193D01*
X40837Y-52318D01*
X41162Y-52318D01*
X41181Y-52309D01*
X41336Y-52464D01*
X41480Y-52560D01*
X41650Y-52594D01*
X41806Y-52594D01*
X41819Y-52625D01*
X41774Y-52734D01*
X41774Y-52864D01*
X41774Y-53464D01*
X41823Y-53584D01*
X41915Y-53676D01*
X42034Y-53726D01*
X42164Y-53726D01*
X42964Y-53726D01*
X43084Y-53677D01*
X43176Y-53585D01*
X43226Y-53466D01*
X43226Y-53336D01*
X43226Y-52736D01*
X43180Y-52624D01*
X43193Y-52594D01*
X43350Y-52594D01*
X43520Y-52560D01*
X43664Y-52464D01*
X43817Y-52310D01*
X43837Y-52318D01*
X44162Y-52318D01*
X44463Y-52194D01*
X44693Y-51964D01*
X44749Y-51826D01*
X44806Y-51963D01*
X45036Y-52193D01*
X45337Y-52318D01*
X45662Y-52318D01*
X45681Y-52309D01*
X45836Y-52464D01*
X45980Y-52560D01*
X46150Y-52594D01*
X46306Y-52594D01*
X46323Y-52634D01*
X46415Y-52726D01*
X46534Y-52776D01*
X46664Y-52776D01*
X47464Y-52776D01*
X47584Y-52727D01*
X47676Y-52635D01*
X47693Y-52594D01*
X47850Y-52594D01*
X48020Y-52560D01*
X48164Y-52464D01*
X48317Y-52310D01*
X48337Y-52318D01*
X48662Y-52318D01*
X48963Y-52194D01*
X49193Y-51964D01*
X49210Y-51920D01*
X49272Y-52068D01*
X49415Y-52153D01*
X50067Y-51500D01*
X49415Y-50847D01*
X49272Y-50932D01*
X49211Y-51080D01*
X49194Y-51037D01*
X48964Y-50807D01*
X48663Y-50682D01*
X48338Y-50682D01*
X48037Y-50806D01*
X47807Y-51036D01*
X47682Y-51337D01*
X47682Y-51662D01*
X47690Y-51681D01*
X47685Y-51686D01*
X47677Y-51666D01*
X47585Y-51574D01*
X47466Y-51524D01*
X47336Y-51524D01*
X46536Y-51524D01*
X46416Y-51573D01*
X46324Y-51665D01*
X46314Y-51686D01*
X46310Y-51682D01*
X46318Y-51663D01*
X46318Y-51338D01*
X46194Y-51037D01*
X45964Y-50807D01*
X45663Y-50682D01*
X45338Y-50682D01*
X45037Y-50806D01*
X44807Y-51036D01*
X44750Y-51173D01*
X44694Y-51037D01*
X44464Y-50807D01*
X44163Y-50682D01*
X43838Y-50682D01*
X43537Y-50806D01*
X43307Y-51036D01*
X43182Y-51337D01*
X43182Y-51662D01*
X43190Y-51681D01*
X43185Y-51686D01*
X43177Y-51666D01*
X43085Y-51574D01*
X42966Y-51524D01*
X42836Y-51524D01*
X42036Y-51524D01*
X41916Y-51573D01*
X41824Y-51665D01*
X41814Y-51686D01*
X41810Y-51682D01*
X41818Y-51663D01*
X41818Y-51338D01*
X41694Y-51037D01*
X41464Y-50807D01*
X41163Y-50682D01*
X40981Y-50682D01*
X41156Y-50610D01*
X41359Y-50408D01*
X41469Y-50144D01*
X41469Y-49858D01*
X41360Y-49594D01*
X41194Y-49427D01*
X41194Y-49250D01*
X41160Y-49080D01*
X41064Y-48936D01*
X40945Y-48817D01*
X41122Y-48891D01*
X41377Y-48891D01*
X41613Y-48794D01*
X41712Y-48694D01*
X43037Y-48694D01*
X43137Y-48793D01*
X43372Y-48891D01*
X43627Y-48891D01*
X43863Y-48794D01*
X44043Y-48613D01*
X44056Y-48581D01*
X44056Y-48816D01*
X43816Y-49056D01*
X42750Y-49056D01*
X42580Y-49090D01*
X42436Y-49186D01*
X42186Y-49436D01*
X42090Y-49580D01*
X42056Y-49750D01*
X42056Y-50224D01*
X42036Y-50224D01*
X41916Y-50273D01*
X41824Y-50365D01*
X41774Y-50484D01*
X41774Y-50614D01*
X41774Y-51214D01*
X41823Y-51334D01*
X41915Y-51426D01*
X42034Y-51476D01*
X42164Y-51476D01*
X42964Y-51476D01*
X43084Y-51427D01*
X43176Y-51335D01*
X43226Y-51216D01*
X43226Y-51086D01*
X43226Y-50486D01*
X43177Y-50366D01*
X43085Y-50274D01*
X42966Y-50224D01*
X42944Y-50224D01*
X42944Y-49944D01*
X44000Y-49944D01*
X44170Y-49910D01*
X44314Y-49814D01*
X44814Y-49314D01*
X44910Y-49170D01*
X44944Y-49000D01*
X44944Y-48000D01*
X44910Y-47830D01*
X44814Y-47686D01*
X44810Y-47682D01*
X44920Y-47660D01*
X45064Y-47564D01*
X45314Y-47314D01*
X45410Y-47170D01*
X45444Y-47000D01*
X45444Y-46993D01*
X45500Y-46937D01*
X45644Y-47081D01*
X45875Y-47177D01*
X46125Y-47177D01*
X46356Y-47081D01*
X46500Y-46937D01*
X46644Y-47081D01*
X46875Y-47177D01*
X46949Y-47177D01*
X46936Y-47186D01*
X46686Y-47436D01*
X46590Y-47580D01*
X46556Y-47750D01*
X46556Y-49500D01*
X46556Y-50224D01*
X46536Y-50224D01*
X46416Y-50273D01*
X46324Y-50365D01*
X46274Y-50484D01*
X46274Y-50614D01*
X46274Y-51214D01*
X46323Y-51334D01*
X46415Y-51426D01*
X46534Y-51476D01*
X46664Y-51476D01*
X47464Y-51476D01*
X47584Y-51427D01*
X47676Y-51335D01*
X47726Y-51216D01*
X47726Y-51086D01*
X47726Y-50486D01*
X47677Y-50366D01*
X47585Y-50274D01*
X47466Y-50224D01*
X47444Y-50224D01*
X47444Y-49944D01*
X47474Y-49944D01*
X47474Y-49964D01*
X47523Y-50084D01*
X47615Y-50176D01*
X47734Y-50226D01*
X47864Y-50226D01*
X48464Y-50226D01*
X48584Y-50177D01*
X48676Y-50085D01*
X48726Y-49966D01*
X48726Y-49836D01*
X48726Y-49036D01*
X48677Y-48916D01*
X48585Y-48824D01*
X48466Y-48774D01*
X48336Y-48774D01*
X48132Y-48774D01*
X48212Y-48694D01*
X48816Y-48694D01*
X48937Y-48814D01*
X48916Y-48823D01*
X48824Y-48915D01*
X48774Y-49034D01*
X48774Y-49164D01*
X48774Y-49964D01*
X48823Y-50084D01*
X48915Y-50176D01*
X49034Y-50226D01*
X49164Y-50226D01*
X49764Y-50226D01*
X49884Y-50177D01*
X49966Y-50094D01*
X50370Y-50498D01*
X50331Y-50482D01*
X49927Y-50486D01*
X49570Y-50634D01*
X49485Y-50777D01*
X50103Y-51394D01*
X50138Y-51429D01*
X50209Y-51500D01*
X50244Y-51535D01*
X50861Y-52153D01*
X50963Y-52091D01*
X51436Y-52564D01*
X51580Y-52660D01*
X51750Y-52694D01*
X52000Y-52694D01*
X52170Y-52660D01*
X52314Y-52564D01*
X52814Y-52064D01*
X52910Y-51920D01*
X52944Y-51750D01*
X52944Y-51471D01*
X52950Y-51468D01*
X52950Y-50793D01*
X52950Y-50743D01*
X52950Y-50643D01*
X53050Y-50643D01*
X53100Y-50643D01*
X53565Y-50643D01*
X53565Y-50331D01*
X53489Y-50121D01*
X53472Y-50102D01*
X53533Y-50042D01*
X53629Y-49811D01*
X53629Y-49561D01*
X53629Y-48977D01*
X53533Y-48746D01*
X53444Y-48657D01*
X53444Y-48184D01*
X53841Y-47786D01*
X53844Y-47788D01*
X53974Y-47788D01*
X55154Y-47788D01*
X55274Y-47739D01*
X55366Y-47647D01*
X55416Y-47528D01*
X55416Y-47398D01*
X55416Y-46612D01*
X55367Y-46492D01*
X55275Y-46400D01*
X55156Y-46350D01*
X55027Y-46350D01*
X55561Y-45815D01*
X55563Y-45814D01*
X55564Y-45814D01*
X55660Y-45670D01*
X55694Y-45500D01*
X55694Y-44683D01*
X56311Y-44065D01*
X56313Y-44064D01*
X56314Y-44064D01*
X56410Y-43920D01*
X56444Y-43750D01*
X56444Y-42976D01*
X56514Y-42976D01*
X56634Y-42927D01*
X56726Y-42835D01*
X56776Y-42716D01*
X56776Y-42586D01*
X56776Y-41786D01*
X56771Y-41776D01*
X57214Y-41776D01*
X57334Y-41727D01*
X57426Y-41635D01*
X57476Y-41516D01*
X57476Y-41386D01*
X57476Y-40786D01*
X57427Y-40666D01*
X57400Y-40639D01*
X57400Y-39962D01*
X57400Y-39738D01*
X57399Y-39501D01*
X57361Y-39409D01*
X57291Y-39339D01*
X57200Y-39301D01*
X57101Y-39301D01*
X56862Y-39300D01*
X56800Y-39362D01*
X56800Y-39800D01*
X57338Y-39800D01*
X57400Y-39738D01*
X57400Y-39962D01*
X57338Y-39900D01*
X56800Y-39900D01*
X56800Y-40338D01*
X56862Y-40400D01*
X57101Y-40399D01*
X57200Y-40399D01*
X57291Y-40361D01*
X57361Y-40291D01*
X57399Y-40199D01*
X57400Y-39962D01*
X57400Y-40639D01*
X57335Y-40574D01*
X57216Y-40524D01*
X57086Y-40524D01*
X56286Y-40524D01*
X56166Y-40573D01*
X56125Y-40614D01*
X56085Y-40574D01*
X55966Y-40524D01*
X55836Y-40524D01*
X55036Y-40524D01*
X54916Y-40573D01*
X54875Y-40614D01*
X54835Y-40574D01*
X54716Y-40524D01*
X54586Y-40524D01*
X53786Y-40524D01*
X53666Y-40573D01*
X53625Y-40614D01*
X53585Y-40574D01*
X53466Y-40524D01*
X53336Y-40524D01*
X52536Y-40524D01*
X52416Y-40573D01*
X52375Y-40614D01*
X52335Y-40574D01*
X52216Y-40524D01*
X52086Y-40524D01*
X51391Y-40524D01*
X51391Y-40476D01*
X51414Y-40476D01*
X52214Y-40476D01*
X52334Y-40427D01*
X52426Y-40335D01*
X52428Y-40330D01*
X52459Y-40361D01*
X52550Y-40399D01*
X52649Y-40399D01*
X52888Y-40400D01*
X52950Y-40338D01*
X52950Y-39950D01*
X52950Y-39900D01*
X52950Y-39800D01*
X52950Y-39750D01*
X52950Y-39362D01*
X52888Y-39300D01*
X52649Y-39301D01*
X52550Y-39301D01*
X52459Y-39339D01*
X52428Y-39369D01*
X52427Y-39366D01*
X52335Y-39274D01*
X52354Y-39194D01*
X53250Y-39194D01*
X53420Y-39160D01*
X53564Y-39064D01*
X54311Y-38315D01*
X54313Y-38314D01*
X54314Y-38314D01*
X54410Y-38170D01*
X54444Y-38000D01*
X54444Y-36237D01*
X54500Y-36181D01*
X54556Y-36237D01*
X54556Y-37250D01*
X54556Y-38316D01*
X53936Y-38936D01*
X53840Y-39080D01*
X53811Y-39224D01*
X53786Y-39224D01*
X53666Y-39273D01*
X53574Y-39365D01*
X53571Y-39369D01*
X53541Y-39339D01*
X53450Y-39301D01*
X53351Y-39301D01*
X53112Y-39300D01*
X53050Y-39362D01*
X53050Y-39750D01*
X53050Y-39800D01*
X53050Y-39900D01*
X53050Y-39950D01*
X53050Y-40338D01*
X53112Y-40400D01*
X53351Y-40399D01*
X53450Y-40399D01*
X53541Y-40361D01*
X53571Y-40330D01*
X53573Y-40334D01*
X53665Y-40426D01*
X53784Y-40476D01*
X53914Y-40476D01*
X54714Y-40476D01*
X54834Y-40427D01*
X54875Y-40386D01*
X54915Y-40426D01*
X55034Y-40476D01*
X55164Y-40476D01*
X55964Y-40476D01*
X56084Y-40427D01*
X56176Y-40335D01*
X56178Y-40330D01*
X56209Y-40361D01*
X56300Y-40399D01*
X56399Y-40399D01*
X56638Y-40400D01*
X56700Y-40338D01*
X56700Y-39950D01*
X56700Y-39900D01*
X56700Y-39800D01*
X56700Y-39750D01*
X56700Y-39362D01*
X56638Y-39300D01*
X56399Y-39301D01*
X56300Y-39301D01*
X56209Y-39339D01*
X56178Y-39369D01*
X56177Y-39366D01*
X56085Y-39274D01*
X55966Y-39224D01*
X55944Y-39224D01*
X55944Y-38750D01*
X55944Y-37105D01*
X56329Y-36336D01*
X56356Y-36325D01*
X56500Y-36181D01*
X56556Y-36237D01*
X56556Y-36474D01*
X56536Y-36474D01*
X56416Y-36523D01*
X56324Y-36615D01*
X56274Y-36734D01*
X56274Y-36864D01*
X56274Y-37464D01*
X56323Y-37584D01*
X56415Y-37676D01*
X56534Y-37726D01*
X56664Y-37726D01*
X57464Y-37726D01*
X57584Y-37677D01*
X57676Y-37585D01*
X57726Y-37466D01*
X57726Y-37336D01*
X57726Y-36736D01*
X57677Y-36616D01*
X57585Y-36524D01*
X57466Y-36474D01*
X57444Y-36474D01*
X57444Y-36237D01*
X57500Y-36181D01*
X57644Y-36325D01*
X57875Y-36421D01*
X58125Y-36421D01*
X58356Y-36325D01*
X58500Y-36181D01*
X58556Y-36237D01*
X58556Y-36474D01*
X58536Y-36474D01*
X58416Y-36523D01*
X58324Y-36615D01*
X58274Y-36734D01*
X58274Y-36864D01*
X58274Y-37464D01*
X58323Y-37584D01*
X58415Y-37676D01*
X58534Y-37726D01*
X58664Y-37726D01*
X59464Y-37726D01*
X59584Y-37677D01*
X59676Y-37585D01*
X59726Y-37466D01*
X59726Y-37336D01*
X59726Y-36736D01*
X59677Y-36616D01*
X59585Y-36524D01*
X59466Y-36474D01*
X59444Y-36474D01*
X59444Y-36237D01*
X59533Y-36148D01*
X59629Y-35917D01*
X59629Y-35667D01*
X59629Y-35083D01*
X59533Y-34852D01*
X59407Y-34726D01*
X59514Y-34726D01*
X59574Y-34701D01*
X59806Y-34933D01*
X59806Y-41250D01*
X59840Y-41420D01*
X59936Y-41564D01*
X60347Y-41975D01*
X60176Y-41976D01*
X60084Y-42014D01*
X60014Y-42084D01*
X59976Y-42175D01*
X59976Y-42274D01*
X59975Y-42388D01*
X60037Y-42450D01*
X60400Y-42450D01*
X60450Y-42450D01*
X60550Y-42450D01*
X60550Y-42550D01*
X60550Y-42600D01*
X60550Y-42963D01*
X60612Y-43025D01*
X60824Y-43024D01*
X60916Y-42986D01*
X60986Y-42916D01*
X61009Y-42858D01*
X61160Y-43008D01*
X61380Y-43100D01*
X61619Y-43100D01*
X61806Y-43023D01*
X61806Y-43848D01*
X61618Y-43927D01*
X61427Y-44117D01*
X61324Y-44365D01*
X61324Y-44634D01*
X61427Y-44882D01*
X61495Y-44951D01*
X61362Y-44951D01*
X61300Y-45013D01*
X61300Y-45505D01*
X61969Y-45505D01*
X62031Y-45443D01*
X62030Y-45176D01*
X62134Y-45176D01*
X62306Y-45104D01*
X62306Y-45816D01*
X62066Y-46056D01*
X61986Y-46056D01*
X61992Y-46050D01*
X62030Y-45958D01*
X62031Y-45667D01*
X61969Y-45605D01*
X61350Y-45605D01*
X61300Y-45605D01*
X61200Y-45605D01*
X61200Y-45505D01*
X61200Y-45013D01*
X61138Y-44951D01*
X61093Y-44951D01*
X61093Y-44591D01*
X61082Y-44356D01*
X61013Y-44190D01*
X60914Y-44157D01*
X60843Y-44228D01*
X60843Y-44086D01*
X60810Y-43987D01*
X60591Y-43907D01*
X60450Y-43913D01*
X60450Y-42963D01*
X60450Y-42550D01*
X60037Y-42550D01*
X59975Y-42612D01*
X59976Y-42726D01*
X59976Y-42825D01*
X60014Y-42916D01*
X60084Y-42986D01*
X60176Y-43024D01*
X60388Y-43025D01*
X60450Y-42963D01*
X60450Y-43913D01*
X60356Y-43918D01*
X60190Y-43987D01*
X60157Y-44086D01*
X60500Y-44429D01*
X60843Y-44086D01*
X60843Y-44228D01*
X60571Y-44500D01*
X60914Y-44843D01*
X61013Y-44810D01*
X61093Y-44591D01*
X61093Y-44951D01*
X60830Y-44951D01*
X60843Y-44914D01*
X60500Y-44571D01*
X60157Y-44914D01*
X60190Y-45013D01*
X60409Y-45093D01*
X60496Y-45088D01*
X60470Y-45152D01*
X60469Y-45443D01*
X60531Y-45505D01*
X61200Y-45505D01*
X61200Y-45605D01*
X61150Y-45605D01*
X60531Y-45605D01*
X60469Y-45667D01*
X60470Y-45958D01*
X60508Y-46050D01*
X60514Y-46056D01*
X60250Y-46056D01*
X60080Y-46090D01*
X59976Y-46159D01*
X59976Y-46086D01*
X59976Y-45486D01*
X59927Y-45366D01*
X59835Y-45274D01*
X59773Y-45247D01*
X59773Y-45231D01*
X59773Y-44641D01*
X59731Y-44539D01*
X59737Y-44545D01*
X59871Y-44544D01*
X59912Y-44526D01*
X59918Y-44644D01*
X59987Y-44810D01*
X60086Y-44843D01*
X60429Y-44500D01*
X60086Y-44157D01*
X60071Y-44161D01*
X60072Y-44112D01*
X60072Y-43888D01*
X60071Y-43754D01*
X60071Y-43655D01*
X60033Y-43564D01*
X59963Y-43494D01*
X59871Y-43456D01*
X59737Y-43455D01*
X59675Y-43517D01*
X59675Y-43950D01*
X60010Y-43950D01*
X60072Y-43888D01*
X60072Y-44112D01*
X60010Y-44050D01*
X59725Y-44050D01*
X59675Y-44050D01*
X59575Y-44050D01*
X59575Y-43950D01*
X59575Y-43900D01*
X59575Y-43517D01*
X59513Y-43455D01*
X59444Y-43455D01*
X59444Y-39026D01*
X59464Y-39026D01*
X59584Y-38977D01*
X59676Y-38885D01*
X59726Y-38766D01*
X59726Y-38636D01*
X59726Y-38036D01*
X59677Y-37916D01*
X59585Y-37824D01*
X59466Y-37774D01*
X59336Y-37774D01*
X58536Y-37774D01*
X58416Y-37823D01*
X58324Y-37915D01*
X58274Y-38034D01*
X58274Y-38164D01*
X58274Y-38646D01*
X57726Y-38098D01*
X57726Y-38036D01*
X57677Y-37916D01*
X57585Y-37824D01*
X57466Y-37774D01*
X57336Y-37774D01*
X56536Y-37774D01*
X56416Y-37823D01*
X56324Y-37915D01*
X56274Y-38034D01*
X56274Y-38164D01*
X56274Y-38764D01*
X56323Y-38884D01*
X56415Y-38976D01*
X56534Y-39026D01*
X56664Y-39026D01*
X57398Y-39026D01*
X57806Y-39434D01*
X57806Y-42566D01*
X57061Y-43311D01*
X56965Y-43455D01*
X56964Y-43457D01*
X56902Y-43520D01*
X56852Y-43639D01*
X56852Y-43769D01*
X56852Y-44359D01*
X56901Y-44479D01*
X56993Y-44571D01*
X57112Y-44621D01*
X57234Y-44621D01*
X57227Y-44639D01*
X57227Y-44769D01*
X57227Y-44895D01*
X57186Y-44936D01*
X57090Y-45080D01*
X57061Y-45224D01*
X57036Y-45224D01*
X56916Y-45273D01*
X56824Y-45365D01*
X56774Y-45484D01*
X56774Y-45614D01*
X56774Y-46214D01*
X56823Y-46334D01*
X56915Y-46426D01*
X57034Y-46476D01*
X57164Y-46476D01*
X57964Y-46476D01*
X58084Y-46427D01*
X58176Y-46335D01*
X58226Y-46216D01*
X58226Y-46086D01*
X58226Y-45486D01*
X58223Y-45480D01*
X58223Y-45479D01*
X58273Y-45361D01*
X58273Y-45231D01*
X58273Y-44641D01*
X58231Y-44539D01*
X58237Y-44545D01*
X58371Y-44544D01*
X58438Y-44516D01*
X58493Y-44571D01*
X58612Y-44621D01*
X58734Y-44621D01*
X58727Y-44639D01*
X58727Y-44769D01*
X58727Y-45248D01*
X58666Y-45273D01*
X58574Y-45365D01*
X58524Y-45484D01*
X58524Y-45614D01*
X58524Y-46214D01*
X58573Y-46334D01*
X58665Y-46426D01*
X58784Y-46476D01*
X58914Y-46476D01*
X59646Y-46476D01*
X59598Y-46524D01*
X59586Y-46524D01*
X58786Y-46524D01*
X58666Y-46573D01*
X58574Y-46665D01*
X58552Y-46715D01*
X58430Y-46740D01*
X58286Y-46836D01*
X58285Y-46836D01*
X58285Y-46837D01*
X58226Y-46896D01*
X58226Y-46786D01*
X58177Y-46666D01*
X58085Y-46574D01*
X57966Y-46524D01*
X57836Y-46524D01*
X57036Y-46524D01*
X56916Y-46573D01*
X56824Y-46665D01*
X56774Y-46784D01*
X56774Y-46914D01*
X56774Y-47514D01*
X56823Y-47634D01*
X56915Y-47726D01*
X56985Y-47755D01*
X56974Y-47784D01*
X56974Y-47914D01*
X56974Y-48714D01*
X57023Y-48834D01*
X57115Y-48926D01*
X57156Y-48943D01*
X57156Y-48975D01*
X57190Y-49145D01*
X57286Y-49289D01*
X57352Y-49355D01*
X57352Y-49609D01*
X57401Y-49729D01*
X57493Y-49821D01*
X57612Y-49871D01*
X57734Y-49871D01*
X57727Y-49889D01*
X57727Y-50019D01*
X57727Y-50609D01*
X57776Y-50729D01*
X57868Y-50821D01*
X57987Y-50871D01*
X58117Y-50871D01*
X58465Y-50871D01*
X58465Y-50887D01*
X58481Y-50926D01*
X58490Y-50970D01*
X58514Y-51006D01*
X58531Y-51047D01*
X58561Y-51077D01*
X58586Y-51114D01*
X58624Y-51139D01*
X58654Y-51169D01*
X58953Y-51369D01*
X58993Y-51385D01*
X59030Y-51410D01*
X59073Y-51418D01*
X59113Y-51435D01*
X59155Y-51435D01*
X59200Y-51444D01*
X60800Y-51444D01*
X60970Y-51410D01*
X61114Y-51314D01*
X61313Y-51115D01*
X61313Y-51114D01*
X61314Y-51114D01*
X61410Y-50970D01*
X61443Y-50801D01*
X61444Y-50800D01*
X61444Y-50322D01*
X61572Y-50194D01*
X62000Y-50194D01*
X62170Y-50160D01*
X62314Y-50064D01*
X62410Y-49920D01*
X62444Y-49750D01*
X62444Y-49163D01*
X62534Y-49127D01*
X62626Y-49035D01*
X62676Y-48916D01*
X62676Y-48786D01*
X62676Y-48086D01*
X62627Y-47966D01*
X62535Y-47874D01*
X62416Y-47824D01*
X62286Y-47824D01*
X62107Y-47824D01*
X62107Y-47735D01*
X62107Y-47027D01*
X62073Y-46944D01*
X62250Y-46944D01*
X62420Y-46910D01*
X62564Y-46814D01*
X63064Y-46314D01*
X63160Y-46170D01*
X63194Y-46000D01*
X63194Y-28250D01*
X63160Y-28080D01*
X63064Y-27936D01*
X63061Y-27934D01*
X62314Y-27186D01*
X62170Y-27090D01*
X62000Y-27056D01*
X61000Y-27056D01*
X60830Y-27090D01*
X60686Y-27186D01*
X60684Y-27188D01*
X59936Y-27936D01*
X59844Y-28074D01*
X59844Y-23693D01*
X59884Y-23677D01*
X59976Y-23585D01*
X60026Y-23466D01*
X60026Y-23336D01*
X60026Y-22536D01*
X59977Y-22416D01*
X59885Y-22324D01*
X59766Y-22274D01*
X59636Y-22274D01*
X59194Y-22274D01*
X59194Y-22250D01*
X59160Y-22080D01*
X59064Y-21936D01*
X56341Y-19213D01*
X59795Y-19213D01*
X59795Y-16668D01*
X55705Y-16668D01*
X55705Y-18577D01*
X54078Y-16950D01*
X53934Y-16854D01*
X53764Y-16820D01*
X53750Y-16820D01*
X53749Y-16820D01*
X53705Y-16828D01*
X53704Y-16828D01*
X41000Y-16807D01*
X40871Y-16832D01*
X40829Y-16841D01*
X40757Y-16888D01*
X40686Y-16936D01*
X40685Y-16937D01*
X40684Y-16938D01*
X39896Y-17725D01*
X39870Y-17597D01*
X39784Y-17466D01*
X39653Y-17380D01*
X39582Y-17365D01*
X39548Y-17194D01*
X39488Y-17050D01*
X39218Y-16644D01*
X39217Y-16643D01*
X39107Y-16533D01*
X39106Y-16532D01*
X38700Y-16261D01*
X38556Y-16201D01*
X38384Y-16167D01*
X38380Y-16151D01*
X61796Y-16151D01*
X61390Y-16318D01*
X61286Y-16388D01*
X61259Y-16406D01*
X60907Y-16757D01*
X60845Y-16850D01*
X60821Y-16887D01*
X60630Y-17346D01*
X60624Y-17374D01*
X60597Y-17380D01*
X60466Y-17466D01*
X60380Y-17597D01*
X60349Y-17750D01*
X60380Y-17903D01*
X60466Y-18034D01*
X60597Y-18120D01*
X60623Y-18125D01*
X60628Y-18150D01*
X60818Y-18609D01*
X60819Y-18610D01*
X60836Y-18635D01*
X60905Y-18741D01*
X61257Y-19092D01*
X61258Y-19092D01*
X61309Y-19126D01*
X61387Y-19179D01*
X61846Y-19370D01*
X61874Y-19375D01*
X61880Y-19403D01*
X61966Y-19534D01*
X62097Y-19620D01*
X62250Y-19651D01*
X62403Y-19620D01*
X62534Y-19534D01*
X62620Y-19403D01*
X62625Y-19376D01*
X62650Y-19372D01*
X63109Y-19182D01*
X63110Y-19181D01*
X63135Y-19163D01*
X63239Y-19095D01*
X63241Y-19095D01*
X63592Y-18743D01*
X63592Y-18742D01*
X63626Y-18690D01*
X63678Y-18613D01*
X63679Y-18613D01*
X63849Y-18204D01*
X63849Y-52619D01*
X63849Y-52619D01*
G37*
G54D33*
X63849Y-52619D02*
X63832Y-52615D01*
X63798Y-52444D01*
X63738Y-52300D01*
X63468Y-51894D01*
X63467Y-51893D01*
X63357Y-51783D01*
X63356Y-51782D01*
X62950Y-51511D01*
X62806Y-51451D01*
X62634Y-51417D01*
X62620Y-51347D01*
X62534Y-51216D01*
X62403Y-51130D01*
X62250Y-51099D01*
X62097Y-51130D01*
X61966Y-51216D01*
X61880Y-51347D01*
X61865Y-51417D01*
X61694Y-51452D01*
X61550Y-51512D01*
X61144Y-51782D01*
X61143Y-51783D01*
X61033Y-51893D01*
X61032Y-51894D01*
X60761Y-52300D01*
X60701Y-52444D01*
X60667Y-52615D01*
X60597Y-52630D01*
X60466Y-52716D01*
X60380Y-52847D01*
X60349Y-53000D01*
X60380Y-53153D01*
X60466Y-53284D01*
X60597Y-53370D01*
X60667Y-53384D01*
X60701Y-53556D01*
X60761Y-53700D01*
X61032Y-54106D01*
X61033Y-54107D01*
X61143Y-54217D01*
X61144Y-54218D01*
X61550Y-54488D01*
X61694Y-54548D01*
X61865Y-54582D01*
X61869Y-54599D01*
X55880Y-54599D01*
X55880Y-51693D01*
X55876Y-51289D01*
X55728Y-50932D01*
X55585Y-50847D01*
X55515Y-50917D01*
X55515Y-50777D01*
X55430Y-50634D01*
X55340Y-50597D01*
X55340Y-49543D01*
X55340Y-49319D01*
X55339Y-48989D01*
X55301Y-48897D01*
X55231Y-48827D01*
X55140Y-48789D01*
X55041Y-48789D01*
X54612Y-48788D01*
X54550Y-48850D01*
X54550Y-49381D01*
X55278Y-49381D01*
X55340Y-49319D01*
X55340Y-49543D01*
X55278Y-49481D01*
X54550Y-49481D01*
X54550Y-50012D01*
X54612Y-50074D01*
X55041Y-50073D01*
X55140Y-50073D01*
X55231Y-50035D01*
X55301Y-49965D01*
X55339Y-49873D01*
X55340Y-49543D01*
X55340Y-50597D01*
X55055Y-50482D01*
X54651Y-50486D01*
X54450Y-50569D01*
X54450Y-50012D01*
X54450Y-49481D01*
X54450Y-49381D01*
X54450Y-48850D01*
X54388Y-48788D01*
X53959Y-48789D01*
X53860Y-48789D01*
X53769Y-48827D01*
X53699Y-48897D01*
X53661Y-48989D01*
X53660Y-49319D01*
X53722Y-49381D01*
X54450Y-49381D01*
X54450Y-49481D01*
X53722Y-49481D01*
X53660Y-49543D01*
X53661Y-49873D01*
X53699Y-49965D01*
X53769Y-50035D01*
X53860Y-50073D01*
X53959Y-50073D01*
X54388Y-50074D01*
X54450Y-50012D01*
X54450Y-50569D01*
X54294Y-50634D01*
X54209Y-50777D01*
X54862Y-51429D01*
X55515Y-50777D01*
X55515Y-50917D01*
X54933Y-51500D01*
X55585Y-52153D01*
X55728Y-52068D01*
X55880Y-51693D01*
X55880Y-54599D01*
X55515Y-54599D01*
X55515Y-52223D01*
X54862Y-51571D01*
X54791Y-51641D01*
X54791Y-51500D01*
X54139Y-50847D01*
X53996Y-50932D01*
X53844Y-51307D01*
X53848Y-51711D01*
X53996Y-52068D01*
X54139Y-52153D01*
X54791Y-51500D01*
X54791Y-51641D01*
X54209Y-52223D01*
X54294Y-52366D01*
X54669Y-52518D01*
X55073Y-52514D01*
X55430Y-52366D01*
X55515Y-52223D01*
X55515Y-54599D01*
X53565Y-54599D01*
X53565Y-51055D01*
X53565Y-50743D01*
X53050Y-50743D01*
X53050Y-51468D01*
X53137Y-51515D01*
X53338Y-51430D01*
X53489Y-51265D01*
X53565Y-51055D01*
X53565Y-54599D01*
X50791Y-54599D01*
X50791Y-52223D01*
X50138Y-51571D01*
X49485Y-52223D01*
X49570Y-52366D01*
X49945Y-52518D01*
X50349Y-52514D01*
X50706Y-52366D01*
X50791Y-52223D01*
X50791Y-54599D01*
X49231Y-54599D01*
X49231Y-53624D01*
X49223Y-53335D01*
X49128Y-53105D01*
X49015Y-53056D01*
X48944Y-53127D01*
X48944Y-52985D01*
X48895Y-52872D01*
X48624Y-52769D01*
X48335Y-52777D01*
X48105Y-52872D01*
X48056Y-52985D01*
X48500Y-53429D01*
X48944Y-52985D01*
X48944Y-53127D01*
X48571Y-53500D01*
X49015Y-53944D01*
X49128Y-53895D01*
X49231Y-53624D01*
X49231Y-54599D01*
X48944Y-54599D01*
X48944Y-54015D01*
X48500Y-53571D01*
X48429Y-53642D01*
X48429Y-53500D01*
X47985Y-53056D01*
X47872Y-53105D01*
X47769Y-53376D01*
X47777Y-53665D01*
X47872Y-53895D01*
X47985Y-53944D01*
X48429Y-53500D01*
X48429Y-53642D01*
X48056Y-54015D01*
X48105Y-54128D01*
X48376Y-54231D01*
X48665Y-54223D01*
X48895Y-54128D01*
X48944Y-54015D01*
X48944Y-54599D01*
X46231Y-54599D01*
X46231Y-53624D01*
X46223Y-53335D01*
X46128Y-53105D01*
X46015Y-53056D01*
X45944Y-53127D01*
X45944Y-52985D01*
X45895Y-52872D01*
X45624Y-52769D01*
X45335Y-52777D01*
X45105Y-52872D01*
X45056Y-52985D01*
X45500Y-53429D01*
X45944Y-52985D01*
X45944Y-53127D01*
X45571Y-53500D01*
X46015Y-53944D01*
X46128Y-53895D01*
X46231Y-53624D01*
X46231Y-54599D01*
X45944Y-54599D01*
X45944Y-54015D01*
X45500Y-53571D01*
X45429Y-53642D01*
X45429Y-53500D01*
X44985Y-53056D01*
X44872Y-53105D01*
X44769Y-53376D01*
X44777Y-53665D01*
X44872Y-53895D01*
X44985Y-53944D01*
X45429Y-53500D01*
X45429Y-53642D01*
X45056Y-54015D01*
X45105Y-54128D01*
X45376Y-54231D01*
X45665Y-54223D01*
X45895Y-54128D01*
X45944Y-54015D01*
X45944Y-54599D01*
X44731Y-54599D01*
X44731Y-53624D01*
X44723Y-53335D01*
X44628Y-53105D01*
X44515Y-53056D01*
X44444Y-53127D01*
X44444Y-52985D01*
X44395Y-52872D01*
X44124Y-52769D01*
X43835Y-52777D01*
X43605Y-52872D01*
X43556Y-52985D01*
X44000Y-53429D01*
X44444Y-52985D01*
X44444Y-53127D01*
X44071Y-53500D01*
X44515Y-53944D01*
X44628Y-53895D01*
X44731Y-53624D01*
X44731Y-54599D01*
X44444Y-54599D01*
X44444Y-54015D01*
X44000Y-53571D01*
X43929Y-53642D01*
X43929Y-53500D01*
X43485Y-53056D01*
X43372Y-53105D01*
X43269Y-53376D01*
X43277Y-53665D01*
X43372Y-53895D01*
X43485Y-53944D01*
X43929Y-53500D01*
X43929Y-53642D01*
X43556Y-54015D01*
X43605Y-54128D01*
X43876Y-54231D01*
X44165Y-54223D01*
X44395Y-54128D01*
X44444Y-54015D01*
X44444Y-54599D01*
X43149Y-54599D01*
X43150Y-54512D01*
X43150Y-54288D01*
X43149Y-54051D01*
X43111Y-53959D01*
X43041Y-53889D01*
X42950Y-53851D01*
X42851Y-53851D01*
X42612Y-53850D01*
X42550Y-53912D01*
X42550Y-54350D01*
X43088Y-54350D01*
X43150Y-54288D01*
X43150Y-54512D01*
X43088Y-54450D01*
X42600Y-54450D01*
X42550Y-54450D01*
X42450Y-54450D01*
X42450Y-54350D01*
X42450Y-53912D01*
X42388Y-53850D01*
X42149Y-53851D01*
X42050Y-53851D01*
X41959Y-53889D01*
X41889Y-53959D01*
X41851Y-54051D01*
X41850Y-54288D01*
X41912Y-54350D01*
X42450Y-54350D01*
X42450Y-54450D01*
X42400Y-54450D01*
X41912Y-54450D01*
X41850Y-54512D01*
X41850Y-54599D01*
X41731Y-54599D01*
X41731Y-53624D01*
X41723Y-53335D01*
X41628Y-53105D01*
X41515Y-53056D01*
X41444Y-53127D01*
X41444Y-52985D01*
X41395Y-52872D01*
X41124Y-52769D01*
X40835Y-52777D01*
X40605Y-52872D01*
X40556Y-52985D01*
X41000Y-53429D01*
X41444Y-52985D01*
X41444Y-53127D01*
X41071Y-53500D01*
X41515Y-53944D01*
X41628Y-53895D01*
X41731Y-53624D01*
X41731Y-54599D01*
X41444Y-54599D01*
X41444Y-54015D01*
X41000Y-53571D01*
X40929Y-53642D01*
X40929Y-53500D01*
X40485Y-53056D01*
X40372Y-53105D01*
X40269Y-53376D01*
X40277Y-53665D01*
X40372Y-53895D01*
X40485Y-53944D01*
X40929Y-53500D01*
X40929Y-53642D01*
X40556Y-54015D01*
X40605Y-54128D01*
X40876Y-54231D01*
X41165Y-54223D01*
X41395Y-54128D01*
X41444Y-54015D01*
X41444Y-54599D01*
X40123Y-54599D01*
X38380Y-54599D01*
X38384Y-54582D01*
X38556Y-54549D01*
X38556Y-54548D01*
X38700Y-54489D01*
X39106Y-54218D01*
X39107Y-54217D01*
X39217Y-54107D01*
X39218Y-54106D01*
X39488Y-53700D01*
X39547Y-53556D01*
X39548Y-53556D01*
X39582Y-53384D01*
X39653Y-53370D01*
X39784Y-53284D01*
X39870Y-53153D01*
X39901Y-53000D01*
X39870Y-52847D01*
X39784Y-52716D01*
X39653Y-52630D01*
X39582Y-52615D01*
X39548Y-52444D01*
X39488Y-52300D01*
X39218Y-51894D01*
X39217Y-51893D01*
X39107Y-51783D01*
X39106Y-51782D01*
X38700Y-51511D01*
X38556Y-51451D01*
X38384Y-51417D01*
X38370Y-51347D01*
X38284Y-51216D01*
X38153Y-51130D01*
X38000Y-51099D01*
X37847Y-51130D01*
X37716Y-51216D01*
X37630Y-51347D01*
X37615Y-51417D01*
X37444Y-51452D01*
X37300Y-51512D01*
X36894Y-51782D01*
X36893Y-51783D01*
X36783Y-51893D01*
X36782Y-51894D01*
X36511Y-52300D01*
X36451Y-52444D01*
X36417Y-52615D01*
X36401Y-52619D01*
X36401Y-18130D01*
X36417Y-18134D01*
X36451Y-18306D01*
X36511Y-18450D01*
X36782Y-18856D01*
X36783Y-18857D01*
X36893Y-18967D01*
X36894Y-18968D01*
X37300Y-19238D01*
X37444Y-19298D01*
X37615Y-19332D01*
X37630Y-19403D01*
X37716Y-19534D01*
X37847Y-19620D01*
X38000Y-19651D01*
X38153Y-19620D01*
X38284Y-19534D01*
X38370Y-19403D01*
X38384Y-19332D01*
X38556Y-19299D01*
X38556Y-19298D01*
X38700Y-19239D01*
X39106Y-18968D01*
X39107Y-18967D01*
X39217Y-18857D01*
X39218Y-18856D01*
X39488Y-18450D01*
X39547Y-18306D01*
X39548Y-18306D01*
X39556Y-18265D01*
X39556Y-20224D01*
X39536Y-20224D01*
X39416Y-20273D01*
X39324Y-20365D01*
X39274Y-20484D01*
X39274Y-20614D01*
X39274Y-21214D01*
X39323Y-21334D01*
X39415Y-21426D01*
X39534Y-21476D01*
X39664Y-21476D01*
X40464Y-21476D01*
X40499Y-21461D01*
X40534Y-21476D01*
X40664Y-21476D01*
X41464Y-21476D01*
X41499Y-21461D01*
X41534Y-21476D01*
X41664Y-21476D01*
X42464Y-21476D01*
X42499Y-21461D01*
X42534Y-21476D01*
X42664Y-21476D01*
X43464Y-21476D01*
X43499Y-21461D01*
X43534Y-21476D01*
X43664Y-21476D01*
X44464Y-21476D01*
X44499Y-21461D01*
X44534Y-21476D01*
X44664Y-21476D01*
X45464Y-21476D01*
X45584Y-21427D01*
X45676Y-21335D01*
X45726Y-21216D01*
X45726Y-21194D01*
X46178Y-21194D01*
X45686Y-21686D01*
X45685Y-21686D01*
X45677Y-21666D01*
X45585Y-21574D01*
X45466Y-21524D01*
X45336Y-21524D01*
X44536Y-21524D01*
X44500Y-21538D01*
X44466Y-21524D01*
X44336Y-21524D01*
X43536Y-21524D01*
X43500Y-21538D01*
X43466Y-21524D01*
X43336Y-21524D01*
X42536Y-21524D01*
X42500Y-21538D01*
X42466Y-21524D01*
X42336Y-21524D01*
X41536Y-21524D01*
X41500Y-21538D01*
X41466Y-21524D01*
X41336Y-21524D01*
X40536Y-21524D01*
X40500Y-21538D01*
X40466Y-21524D01*
X40336Y-21524D01*
X39536Y-21524D01*
X39416Y-21573D01*
X39324Y-21665D01*
X39274Y-21784D01*
X39274Y-21914D01*
X39274Y-22514D01*
X39323Y-22634D01*
X39415Y-22726D01*
X39534Y-22776D01*
X39556Y-22776D01*
X39556Y-23007D01*
X39467Y-23096D01*
X39371Y-23327D01*
X39371Y-23577D01*
X39371Y-24161D01*
X39467Y-24392D01*
X39575Y-24500D01*
X39467Y-24608D01*
X39371Y-24839D01*
X39371Y-25089D01*
X39371Y-25673D01*
X39467Y-25904D01*
X39556Y-25993D01*
X39556Y-26224D01*
X39536Y-26224D01*
X39416Y-26273D01*
X39324Y-26365D01*
X39274Y-26484D01*
X39274Y-26614D01*
X39274Y-27214D01*
X39323Y-27334D01*
X39415Y-27426D01*
X39534Y-27476D01*
X39664Y-27476D01*
X40464Y-27476D01*
X40499Y-27461D01*
X40534Y-27476D01*
X40664Y-27476D01*
X41464Y-27476D01*
X41499Y-27461D01*
X41534Y-27476D01*
X41664Y-27476D01*
X42464Y-27476D01*
X42499Y-27461D01*
X42534Y-27476D01*
X42664Y-27476D01*
X43464Y-27476D01*
X43499Y-27461D01*
X43534Y-27476D01*
X43664Y-27476D01*
X44464Y-27476D01*
X44499Y-27461D01*
X44534Y-27476D01*
X44664Y-27476D01*
X45464Y-27476D01*
X45499Y-27461D01*
X45534Y-27476D01*
X45664Y-27476D01*
X46464Y-27476D01*
X46499Y-27461D01*
X46534Y-27476D01*
X46664Y-27476D01*
X47464Y-27476D01*
X47556Y-27438D01*
X47556Y-27561D01*
X47466Y-27524D01*
X47336Y-27524D01*
X46536Y-27524D01*
X46500Y-27538D01*
X46466Y-27524D01*
X46336Y-27524D01*
X45536Y-27524D01*
X45500Y-27538D01*
X45466Y-27524D01*
X45336Y-27524D01*
X44536Y-27524D01*
X44500Y-27538D01*
X44466Y-27524D01*
X44336Y-27524D01*
X43536Y-27524D01*
X43500Y-27538D01*
X43466Y-27524D01*
X43336Y-27524D01*
X42536Y-27524D01*
X42500Y-27538D01*
X42466Y-27524D01*
X42336Y-27524D01*
X41536Y-27524D01*
X41500Y-27538D01*
X41466Y-27524D01*
X41336Y-27524D01*
X40536Y-27524D01*
X40500Y-27538D01*
X40466Y-27524D01*
X40336Y-27524D01*
X39536Y-27524D01*
X39416Y-27573D01*
X39324Y-27665D01*
X39274Y-27784D01*
X39274Y-27914D01*
X39274Y-28514D01*
X39323Y-28634D01*
X39415Y-28726D01*
X39534Y-28776D01*
X39543Y-28776D01*
X39467Y-28852D01*
X39371Y-29083D01*
X39371Y-29333D01*
X39371Y-29917D01*
X39467Y-30148D01*
X39644Y-30325D01*
X39875Y-30421D01*
X40125Y-30421D01*
X40356Y-30325D01*
X40500Y-30181D01*
X40644Y-30325D01*
X40875Y-30421D01*
X41125Y-30421D01*
X41356Y-30325D01*
X41500Y-30181D01*
X41644Y-30325D01*
X41875Y-30421D01*
X42125Y-30421D01*
X42356Y-30325D01*
X42500Y-30181D01*
X42644Y-30325D01*
X42875Y-30421D01*
X43125Y-30421D01*
X43207Y-30386D01*
X43207Y-30387D01*
X43109Y-30622D01*
X43109Y-30877D01*
X43150Y-30977D01*
X42641Y-30977D01*
X42621Y-30985D01*
X42621Y-30864D01*
X42572Y-30744D01*
X42480Y-30652D01*
X42361Y-30602D01*
X42231Y-30602D01*
X41641Y-30602D01*
X41521Y-30651D01*
X41491Y-30681D01*
X41375Y-30681D01*
X41205Y-30715D01*
X41061Y-30811D01*
X41060Y-30811D01*
X41060Y-30812D01*
X40436Y-31436D01*
X40340Y-31580D01*
X40306Y-31750D01*
X40306Y-32750D01*
X40340Y-32920D01*
X40436Y-33064D01*
X40936Y-33564D01*
X41024Y-33622D01*
X41024Y-33664D01*
X41024Y-34264D01*
X41073Y-34384D01*
X41165Y-34476D01*
X41284Y-34526D01*
X41414Y-34526D01*
X41556Y-34526D01*
X41556Y-34763D01*
X41500Y-34819D01*
X41356Y-34675D01*
X41125Y-34579D01*
X40875Y-34579D01*
X40644Y-34675D01*
X40500Y-34819D01*
X40356Y-34675D01*
X40125Y-34579D01*
X39875Y-34579D01*
X39644Y-34675D01*
X39467Y-34852D01*
X39371Y-35083D01*
X39371Y-35333D01*
X39371Y-35501D01*
X39186Y-35686D01*
X39090Y-35830D01*
X39056Y-36000D01*
X39056Y-36724D01*
X39036Y-36724D01*
X38916Y-36773D01*
X38824Y-36865D01*
X38774Y-36984D01*
X38774Y-37114D01*
X38774Y-37714D01*
X38823Y-37834D01*
X38915Y-37926D01*
X39034Y-37976D01*
X39164Y-37976D01*
X39964Y-37976D01*
X40084Y-37927D01*
X40176Y-37835D01*
X40226Y-37716D01*
X40226Y-37586D01*
X40226Y-36986D01*
X40177Y-36866D01*
X40085Y-36774D01*
X39966Y-36724D01*
X39944Y-36724D01*
X39944Y-36421D01*
X40125Y-36421D01*
X40356Y-36325D01*
X40500Y-36181D01*
X40556Y-36237D01*
X40556Y-36724D01*
X40536Y-36724D01*
X40416Y-36773D01*
X40324Y-36865D01*
X40274Y-36984D01*
X40274Y-37114D01*
X40274Y-37714D01*
X40323Y-37834D01*
X40415Y-37926D01*
X40534Y-37976D01*
X40664Y-37976D01*
X41464Y-37976D01*
X41584Y-37927D01*
X41676Y-37835D01*
X41726Y-37716D01*
X41726Y-37586D01*
X41726Y-36986D01*
X41677Y-36866D01*
X41585Y-36774D01*
X41466Y-36724D01*
X41444Y-36724D01*
X41444Y-36237D01*
X41500Y-36181D01*
X41644Y-36325D01*
X41875Y-36421D01*
X42056Y-36421D01*
X42056Y-39566D01*
X41325Y-40296D01*
X41410Y-40170D01*
X41444Y-40000D01*
X41444Y-39276D01*
X41464Y-39276D01*
X41584Y-39227D01*
X41676Y-39135D01*
X41726Y-39016D01*
X41726Y-38886D01*
X41726Y-38286D01*
X41677Y-38166D01*
X41585Y-38074D01*
X41466Y-38024D01*
X41336Y-38024D01*
X40536Y-38024D01*
X40416Y-38073D01*
X40324Y-38165D01*
X40274Y-38284D01*
X40274Y-38414D01*
X40274Y-39014D01*
X40323Y-39134D01*
X40415Y-39226D01*
X40534Y-39276D01*
X40556Y-39276D01*
X40556Y-39806D01*
X39572Y-39806D01*
X39814Y-39564D01*
X39910Y-39420D01*
X39938Y-39276D01*
X39964Y-39276D01*
X40084Y-39227D01*
X40176Y-39135D01*
X40226Y-39016D01*
X40226Y-38886D01*
X40226Y-38286D01*
X40177Y-38166D01*
X40085Y-38074D01*
X39966Y-38024D01*
X39836Y-38024D01*
X39036Y-38024D01*
X38916Y-38073D01*
X38824Y-38165D01*
X38774Y-38284D01*
X38774Y-38414D01*
X38774Y-39014D01*
X38823Y-39134D01*
X38905Y-39216D01*
X37686Y-40436D01*
X37590Y-40580D01*
X37556Y-40750D01*
X37556Y-49250D01*
X37590Y-49420D01*
X37686Y-49564D01*
X38031Y-49908D01*
X38031Y-50142D01*
X38140Y-50406D01*
X38342Y-50609D01*
X38606Y-50719D01*
X38892Y-50719D01*
X39156Y-50610D01*
X39295Y-50470D01*
X39358Y-50533D01*
X39395Y-50495D01*
X39414Y-50548D01*
X39650Y-50635D01*
X39900Y-50625D01*
X40086Y-50548D01*
X40104Y-50495D01*
X40123Y-50514D01*
X40142Y-50533D01*
X40204Y-50470D01*
X40342Y-50609D01*
X40606Y-50719D01*
X40748Y-50719D01*
X40537Y-50806D01*
X40307Y-51036D01*
X40182Y-51337D01*
X40182Y-51662D01*
X40306Y-51963D01*
X40536Y-52193D01*
X40837Y-52318D01*
X41162Y-52318D01*
X41181Y-52309D01*
X41336Y-52464D01*
X41480Y-52560D01*
X41650Y-52594D01*
X41806Y-52594D01*
X41819Y-52625D01*
X41774Y-52734D01*
X41774Y-52864D01*
X41774Y-53464D01*
X41823Y-53584D01*
X41915Y-53676D01*
X42034Y-53726D01*
X42164Y-53726D01*
X42964Y-53726D01*
X43084Y-53677D01*
X43176Y-53585D01*
X43226Y-53466D01*
X43226Y-53336D01*
X43226Y-52736D01*
X43180Y-52624D01*
X43193Y-52594D01*
X43350Y-52594D01*
X43520Y-52560D01*
X43664Y-52464D01*
X43817Y-52310D01*
X43837Y-52318D01*
X44162Y-52318D01*
X44463Y-52194D01*
X44693Y-51964D01*
X44749Y-51826D01*
X44806Y-51963D01*
X45036Y-52193D01*
X45337Y-52318D01*
X45662Y-52318D01*
X45681Y-52309D01*
X45836Y-52464D01*
X45980Y-52560D01*
X46150Y-52594D01*
X46306Y-52594D01*
X46323Y-52634D01*
X46415Y-52726D01*
X46534Y-52776D01*
X46664Y-52776D01*
X47464Y-52776D01*
X47584Y-52727D01*
X47676Y-52635D01*
X47693Y-52594D01*
X47850Y-52594D01*
X48020Y-52560D01*
X48164Y-52464D01*
X48317Y-52310D01*
X48337Y-52318D01*
X48662Y-52318D01*
X48963Y-52194D01*
X49193Y-51964D01*
X49210Y-51920D01*
X49272Y-52068D01*
X49415Y-52153D01*
X50067Y-51500D01*
X49415Y-50847D01*
X49272Y-50932D01*
X49211Y-51080D01*
X49194Y-51037D01*
X48964Y-50807D01*
X48663Y-50682D01*
X48338Y-50682D01*
X48037Y-50806D01*
X47807Y-51036D01*
X47682Y-51337D01*
X47682Y-51662D01*
X47690Y-51681D01*
X47685Y-51686D01*
X47677Y-51666D01*
X47585Y-51574D01*
X47466Y-51524D01*
X47336Y-51524D01*
X46536Y-51524D01*
X46416Y-51573D01*
X46324Y-51665D01*
X46314Y-51686D01*
X46310Y-51682D01*
X46318Y-51663D01*
X46318Y-51338D01*
X46194Y-51037D01*
X45964Y-50807D01*
X45663Y-50682D01*
X45338Y-50682D01*
X45037Y-50806D01*
X44807Y-51036D01*
X44750Y-51173D01*
X44694Y-51037D01*
X44464Y-50807D01*
X44163Y-50682D01*
X43838Y-50682D01*
X43537Y-50806D01*
X43307Y-51036D01*
X43182Y-51337D01*
X43182Y-51662D01*
X43190Y-51681D01*
X43185Y-51686D01*
X43177Y-51666D01*
X43085Y-51574D01*
X42966Y-51524D01*
X42836Y-51524D01*
X42036Y-51524D01*
X41916Y-51573D01*
X41824Y-51665D01*
X41814Y-51686D01*
X41810Y-51682D01*
X41818Y-51663D01*
X41818Y-51338D01*
X41694Y-51037D01*
X41464Y-50807D01*
X41163Y-50682D01*
X40981Y-50682D01*
X41156Y-50610D01*
X41359Y-50408D01*
X41469Y-50144D01*
X41469Y-49858D01*
X41360Y-49594D01*
X41194Y-49427D01*
X41194Y-49250D01*
X41160Y-49080D01*
X41064Y-48936D01*
X40945Y-48817D01*
X41122Y-48891D01*
X41377Y-48891D01*
X41613Y-48794D01*
X41712Y-48694D01*
X43037Y-48694D01*
X43137Y-48793D01*
X43372Y-48891D01*
X43627Y-48891D01*
X43863Y-48794D01*
X44043Y-48613D01*
X44056Y-48581D01*
X44056Y-48816D01*
X43816Y-49056D01*
X42750Y-49056D01*
X42580Y-49090D01*
X42436Y-49186D01*
X42186Y-49436D01*
X42090Y-49580D01*
X42056Y-49750D01*
X42056Y-50224D01*
X42036Y-50224D01*
X41916Y-50273D01*
X41824Y-50365D01*
X41774Y-50484D01*
X41774Y-50614D01*
X41774Y-51214D01*
X41823Y-51334D01*
X41915Y-51426D01*
X42034Y-51476D01*
X42164Y-51476D01*
X42964Y-51476D01*
X43084Y-51427D01*
X43176Y-51335D01*
X43226Y-51216D01*
X43226Y-51086D01*
X43226Y-50486D01*
X43177Y-50366D01*
X43085Y-50274D01*
X42966Y-50224D01*
X42944Y-50224D01*
X42944Y-49944D01*
X44000Y-49944D01*
X44170Y-49910D01*
X44314Y-49814D01*
X44814Y-49314D01*
X44910Y-49170D01*
X44944Y-49000D01*
X44944Y-48000D01*
X44910Y-47830D01*
X44814Y-47686D01*
X44810Y-47682D01*
X44920Y-47660D01*
X45064Y-47564D01*
X45314Y-47314D01*
X45410Y-47170D01*
X45444Y-47000D01*
X45444Y-46993D01*
X45500Y-46937D01*
X45644Y-47081D01*
X45875Y-47177D01*
X46125Y-47177D01*
X46356Y-47081D01*
X46500Y-46937D01*
X46644Y-47081D01*
X46875Y-47177D01*
X46949Y-47177D01*
X46936Y-47186D01*
X46686Y-47436D01*
X46590Y-47580D01*
X46556Y-47750D01*
X46556Y-49500D01*
X46556Y-50224D01*
X46536Y-50224D01*
X46416Y-50273D01*
X46324Y-50365D01*
X46274Y-50484D01*
X46274Y-50614D01*
X46274Y-51214D01*
X46323Y-51334D01*
X46415Y-51426D01*
X46534Y-51476D01*
X46664Y-51476D01*
X47464Y-51476D01*
X47584Y-51427D01*
X47676Y-51335D01*
X47726Y-51216D01*
X47726Y-51086D01*
X47726Y-50486D01*
X47677Y-50366D01*
X47585Y-50274D01*
X47466Y-50224D01*
X47444Y-50224D01*
X47444Y-49944D01*
X47474Y-49944D01*
X47474Y-49964D01*
X47523Y-50084D01*
X47615Y-50176D01*
X47734Y-50226D01*
X47864Y-50226D01*
X48464Y-50226D01*
X48584Y-50177D01*
X48676Y-50085D01*
X48726Y-49966D01*
X48726Y-49836D01*
X48726Y-49036D01*
X48677Y-48916D01*
X48585Y-48824D01*
X48466Y-48774D01*
X48336Y-48774D01*
X48132Y-48774D01*
X48212Y-48694D01*
X48816Y-48694D01*
X48937Y-48814D01*
X48916Y-48823D01*
X48824Y-48915D01*
X48774Y-49034D01*
X48774Y-49164D01*
X48774Y-49964D01*
X48823Y-50084D01*
X48915Y-50176D01*
X49034Y-50226D01*
X49164Y-50226D01*
X49764Y-50226D01*
X49884Y-50177D01*
X49966Y-50094D01*
X50370Y-50498D01*
X50331Y-50482D01*
X49927Y-50486D01*
X49570Y-50634D01*
X49485Y-50777D01*
X50103Y-51394D01*
X50138Y-51429D01*
X50209Y-51500D01*
X50244Y-51535D01*
X50861Y-52153D01*
X50963Y-52091D01*
X51436Y-52564D01*
X51580Y-52660D01*
X51750Y-52694D01*
X52000Y-52694D01*
X52170Y-52660D01*
X52314Y-52564D01*
X52814Y-52064D01*
X52910Y-51920D01*
X52944Y-51750D01*
X52944Y-51471D01*
X52950Y-51468D01*
X52950Y-50793D01*
X52950Y-50743D01*
X52950Y-50643D01*
X53050Y-50643D01*
X53100Y-50643D01*
X53565Y-50643D01*
X53565Y-50331D01*
X53489Y-50121D01*
X53472Y-50102D01*
X53533Y-50042D01*
X53629Y-49811D01*
X53629Y-49561D01*
X53629Y-48977D01*
X53533Y-48746D01*
X53444Y-48657D01*
X53444Y-48184D01*
X53841Y-47786D01*
X53844Y-47788D01*
X53974Y-47788D01*
X55154Y-47788D01*
X55274Y-47739D01*
X55366Y-47647D01*
X55416Y-47528D01*
X55416Y-47398D01*
X55416Y-46612D01*
X55367Y-46492D01*
X55275Y-46400D01*
X55156Y-46350D01*
X55027Y-46350D01*
X55561Y-45815D01*
X55563Y-45814D01*
X55564Y-45814D01*
X55660Y-45670D01*
X55694Y-45500D01*
X55694Y-44683D01*
X56311Y-44065D01*
X56313Y-44064D01*
X56314Y-44064D01*
X56410Y-43920D01*
X56444Y-43750D01*
X56444Y-42976D01*
X56514Y-42976D01*
X56634Y-42927D01*
X56726Y-42835D01*
X56776Y-42716D01*
X56776Y-42586D01*
X56776Y-41786D01*
X56771Y-41776D01*
X57214Y-41776D01*
X57334Y-41727D01*
X57426Y-41635D01*
X57476Y-41516D01*
X57476Y-41386D01*
X57476Y-40786D01*
X57427Y-40666D01*
X57400Y-40639D01*
X57400Y-39962D01*
X57400Y-39738D01*
X57399Y-39501D01*
X57361Y-39409D01*
X57291Y-39339D01*
X57200Y-39301D01*
X57101Y-39301D01*
X56862Y-39300D01*
X56800Y-39362D01*
X56800Y-39800D01*
X57338Y-39800D01*
X57400Y-39738D01*
X57400Y-39962D01*
X57338Y-39900D01*
X56800Y-39900D01*
X56800Y-40338D01*
X56862Y-40400D01*
X57101Y-40399D01*
X57200Y-40399D01*
X57291Y-40361D01*
X57361Y-40291D01*
X57399Y-40199D01*
X57400Y-39962D01*
X57400Y-40639D01*
X57335Y-40574D01*
X57216Y-40524D01*
X57086Y-40524D01*
X56286Y-40524D01*
X56166Y-40573D01*
X56125Y-40614D01*
X56085Y-40574D01*
X55966Y-40524D01*
X55836Y-40524D01*
X55036Y-40524D01*
X54916Y-40573D01*
X54875Y-40614D01*
X54835Y-40574D01*
X54716Y-40524D01*
X54586Y-40524D01*
X53786Y-40524D01*
X53666Y-40573D01*
X53625Y-40614D01*
X53585Y-40574D01*
X53466Y-40524D01*
X53336Y-40524D01*
X52536Y-40524D01*
X52416Y-40573D01*
X52375Y-40614D01*
X52335Y-40574D01*
X52216Y-40524D01*
X52086Y-40524D01*
X51391Y-40524D01*
X51391Y-40476D01*
X51414Y-40476D01*
X52214Y-40476D01*
X52334Y-40427D01*
X52426Y-40335D01*
X52428Y-40330D01*
X52459Y-40361D01*
X52550Y-40399D01*
X52649Y-40399D01*
X52888Y-40400D01*
X52950Y-40338D01*
X52950Y-39950D01*
X52950Y-39900D01*
X52950Y-39800D01*
X52950Y-39750D01*
X52950Y-39362D01*
X52888Y-39300D01*
X52649Y-39301D01*
X52550Y-39301D01*
X52459Y-39339D01*
X52428Y-39369D01*
X52427Y-39366D01*
X52335Y-39274D01*
X52354Y-39194D01*
X53250Y-39194D01*
X53420Y-39160D01*
X53564Y-39064D01*
X54311Y-38315D01*
X54313Y-38314D01*
X54314Y-38314D01*
X54410Y-38170D01*
X54444Y-38000D01*
X54444Y-36237D01*
X54500Y-36181D01*
X54556Y-36237D01*
X54556Y-37250D01*
X54556Y-38316D01*
X53936Y-38936D01*
X53840Y-39080D01*
X53811Y-39224D01*
X53786Y-39224D01*
X53666Y-39273D01*
X53574Y-39365D01*
X53571Y-39369D01*
X53541Y-39339D01*
X53450Y-39301D01*
X53351Y-39301D01*
X53112Y-39300D01*
X53050Y-39362D01*
X53050Y-39750D01*
X53050Y-39800D01*
X53050Y-39900D01*
X53050Y-39950D01*
X53050Y-40338D01*
X53112Y-40400D01*
X53351Y-40399D01*
X53450Y-40399D01*
X53541Y-40361D01*
X53571Y-40330D01*
X53573Y-40334D01*
X53665Y-40426D01*
X53784Y-40476D01*
X53914Y-40476D01*
X54714Y-40476D01*
X54834Y-40427D01*
X54875Y-40386D01*
X54915Y-40426D01*
X55034Y-40476D01*
X55164Y-40476D01*
X55964Y-40476D01*
X56084Y-40427D01*
X56176Y-40335D01*
X56178Y-40330D01*
X56209Y-40361D01*
X56300Y-40399D01*
X56399Y-40399D01*
X56638Y-40400D01*
X56700Y-40338D01*
X56700Y-39950D01*
X56700Y-39900D01*
X56700Y-39800D01*
X56700Y-39750D01*
X56700Y-39362D01*
X56638Y-39300D01*
X56399Y-39301D01*
X56300Y-39301D01*
X56209Y-39339D01*
X56178Y-39369D01*
X56177Y-39366D01*
X56085Y-39274D01*
X55966Y-39224D01*
X55944Y-39224D01*
X55944Y-38750D01*
X55944Y-37105D01*
X56329Y-36336D01*
X56356Y-36325D01*
X56500Y-36181D01*
X56556Y-36237D01*
X56556Y-36474D01*
X56536Y-36474D01*
X56416Y-36523D01*
X56324Y-36615D01*
X56274Y-36734D01*
X56274Y-36864D01*
X56274Y-37464D01*
X56323Y-37584D01*
X56415Y-37676D01*
X56534Y-37726D01*
X56664Y-37726D01*
X57464Y-37726D01*
X57584Y-37677D01*
X57676Y-37585D01*
X57726Y-37466D01*
X57726Y-37336D01*
X57726Y-36736D01*
X57677Y-36616D01*
X57585Y-36524D01*
X57466Y-36474D01*
X57444Y-36474D01*
X57444Y-36237D01*
X57500Y-36181D01*
X57644Y-36325D01*
X57875Y-36421D01*
X58125Y-36421D01*
X58356Y-36325D01*
X58500Y-36181D01*
X58556Y-36237D01*
X58556Y-36474D01*
X58536Y-36474D01*
X58416Y-36523D01*
X58324Y-36615D01*
X58274Y-36734D01*
X58274Y-36864D01*
X58274Y-37464D01*
X58323Y-37584D01*
X58415Y-37676D01*
X58534Y-37726D01*
X58664Y-37726D01*
X59464Y-37726D01*
X59584Y-37677D01*
X59676Y-37585D01*
X59726Y-37466D01*
X59726Y-37336D01*
X59726Y-36736D01*
X59677Y-36616D01*
X59585Y-36524D01*
X59466Y-36474D01*
X59444Y-36474D01*
X59444Y-36237D01*
X59533Y-36148D01*
X59629Y-35917D01*
X59629Y-35667D01*
X59629Y-35083D01*
X59533Y-34852D01*
X59407Y-34726D01*
X59514Y-34726D01*
X59574Y-34701D01*
X59806Y-34933D01*
X59806Y-41250D01*
X59840Y-41420D01*
X59936Y-41564D01*
X60347Y-41975D01*
X60176Y-41976D01*
X60084Y-42014D01*
X60014Y-42084D01*
X59976Y-42175D01*
X59976Y-42274D01*
X59975Y-42388D01*
X60037Y-42450D01*
X60400Y-42450D01*
X60450Y-42450D01*
X60550Y-42450D01*
X60550Y-42550D01*
X60550Y-42600D01*
X60550Y-42963D01*
X60612Y-43025D01*
X60824Y-43024D01*
X60916Y-42986D01*
X60986Y-42916D01*
X61009Y-42858D01*
X61160Y-43008D01*
X61380Y-43100D01*
X61619Y-43100D01*
X61806Y-43023D01*
X61806Y-43848D01*
X61618Y-43927D01*
X61427Y-44117D01*
X61324Y-44365D01*
X61324Y-44634D01*
X61427Y-44882D01*
X61495Y-44951D01*
X61362Y-44951D01*
X61300Y-45013D01*
X61300Y-45505D01*
X61969Y-45505D01*
X62031Y-45443D01*
X62030Y-45176D01*
X62134Y-45176D01*
X62306Y-45104D01*
X62306Y-45816D01*
X62066Y-46056D01*
X61986Y-46056D01*
X61992Y-46050D01*
X62030Y-45958D01*
X62031Y-45667D01*
X61969Y-45605D01*
X61350Y-45605D01*
X61300Y-45605D01*
X61200Y-45605D01*
X61200Y-45505D01*
X61200Y-45013D01*
X61138Y-44951D01*
X61093Y-44951D01*
X61093Y-44591D01*
X61082Y-44356D01*
X61013Y-44190D01*
X60914Y-44157D01*
X60843Y-44228D01*
X60843Y-44086D01*
X60810Y-43987D01*
X60591Y-43907D01*
X60450Y-43913D01*
X60450Y-42963D01*
X60450Y-42550D01*
X60037Y-42550D01*
X59975Y-42612D01*
X59976Y-42726D01*
X59976Y-42825D01*
X60014Y-42916D01*
X60084Y-42986D01*
X60176Y-43024D01*
X60388Y-43025D01*
X60450Y-42963D01*
X60450Y-43913D01*
X60356Y-43918D01*
X60190Y-43987D01*
X60157Y-44086D01*
X60500Y-44429D01*
X60843Y-44086D01*
X60843Y-44228D01*
X60571Y-44500D01*
X60914Y-44843D01*
X61013Y-44810D01*
X61093Y-44591D01*
X61093Y-44951D01*
X60830Y-44951D01*
X60843Y-44914D01*
X60500Y-44571D01*
X60157Y-44914D01*
X60190Y-45013D01*
X60409Y-45093D01*
X60496Y-45088D01*
X60470Y-45152D01*
X60469Y-45443D01*
X60531Y-45505D01*
X61200Y-45505D01*
X61200Y-45605D01*
X61150Y-45605D01*
X60531Y-45605D01*
X60469Y-45667D01*
X60470Y-45958D01*
X60508Y-46050D01*
X60514Y-46056D01*
X60250Y-46056D01*
X60080Y-46090D01*
X59976Y-46159D01*
X59976Y-46086D01*
X59976Y-45486D01*
X59927Y-45366D01*
X59835Y-45274D01*
X59773Y-45247D01*
X59773Y-45231D01*
X59773Y-44641D01*
X59731Y-44539D01*
X59737Y-44545D01*
X59871Y-44544D01*
X59912Y-44526D01*
X59918Y-44644D01*
X59987Y-44810D01*
X60086Y-44843D01*
X60429Y-44500D01*
X60086Y-44157D01*
X60071Y-44161D01*
X60072Y-44112D01*
X60072Y-43888D01*
X60071Y-43754D01*
X60071Y-43655D01*
X60033Y-43564D01*
X59963Y-43494D01*
X59871Y-43456D01*
X59737Y-43455D01*
X59675Y-43517D01*
X59675Y-43950D01*
X60010Y-43950D01*
X60072Y-43888D01*
X60072Y-44112D01*
X60010Y-44050D01*
X59725Y-44050D01*
X59675Y-44050D01*
X59575Y-44050D01*
X59575Y-43950D01*
X59575Y-43900D01*
X59575Y-43517D01*
X59513Y-43455D01*
X59444Y-43455D01*
X59444Y-39026D01*
X59464Y-39026D01*
X59584Y-38977D01*
X59676Y-38885D01*
X59726Y-38766D01*
X59726Y-38636D01*
X59726Y-38036D01*
X59677Y-37916D01*
X59585Y-37824D01*
X59466Y-37774D01*
X59336Y-37774D01*
X58536Y-37774D01*
X58416Y-37823D01*
X58324Y-37915D01*
X58274Y-38034D01*
X58274Y-38164D01*
X58274Y-38646D01*
X57726Y-38098D01*
X57726Y-38036D01*
X57677Y-37916D01*
X57585Y-37824D01*
X57466Y-37774D01*
X57336Y-37774D01*
X56536Y-37774D01*
X56416Y-37823D01*
X56324Y-37915D01*
X56274Y-38034D01*
X56274Y-38164D01*
X56274Y-38764D01*
X56323Y-38884D01*
X56415Y-38976D01*
X56534Y-39026D01*
X56664Y-39026D01*
X57398Y-39026D01*
X57806Y-39434D01*
X57806Y-42566D01*
X57061Y-43311D01*
X56965Y-43455D01*
X56964Y-43457D01*
X56902Y-43520D01*
X56852Y-43639D01*
X56852Y-43769D01*
X56852Y-44359D01*
X56901Y-44479D01*
X56993Y-44571D01*
X57112Y-44621D01*
X57234Y-44621D01*
X57227Y-44639D01*
X57227Y-44769D01*
X57227Y-44895D01*
X57186Y-44936D01*
X57090Y-45080D01*
X57061Y-45224D01*
X57036Y-45224D01*
X56916Y-45273D01*
X56824Y-45365D01*
X56774Y-45484D01*
X56774Y-45614D01*
X56774Y-46214D01*
X56823Y-46334D01*
X56915Y-46426D01*
X57034Y-46476D01*
X57164Y-46476D01*
X57964Y-46476D01*
X58084Y-46427D01*
X58176Y-46335D01*
X58226Y-46216D01*
X58226Y-46086D01*
X58226Y-45486D01*
X58223Y-45480D01*
X58223Y-45479D01*
X58273Y-45361D01*
X58273Y-45231D01*
X58273Y-44641D01*
X58231Y-44539D01*
X58237Y-44545D01*
X58371Y-44544D01*
X58438Y-44516D01*
X58493Y-44571D01*
X58612Y-44621D01*
X58734Y-44621D01*
X58727Y-44639D01*
X58727Y-44769D01*
X58727Y-45248D01*
X58666Y-45273D01*
X58574Y-45365D01*
X58524Y-45484D01*
X58524Y-45614D01*
X58524Y-46214D01*
X58573Y-46334D01*
X58665Y-46426D01*
X58784Y-46476D01*
X58914Y-46476D01*
X59646Y-46476D01*
X59598Y-46524D01*
X59586Y-46524D01*
X58786Y-46524D01*
X58666Y-46573D01*
X58574Y-46665D01*
X58552Y-46715D01*
X58430Y-46740D01*
X58286Y-46836D01*
X58285Y-46836D01*
X58285Y-46837D01*
X58226Y-46896D01*
X58226Y-46786D01*
X58177Y-46666D01*
X58085Y-46574D01*
X57966Y-46524D01*
X57836Y-46524D01*
X57036Y-46524D01*
X56916Y-46573D01*
X56824Y-46665D01*
X56774Y-46784D01*
X56774Y-46914D01*
X56774Y-47514D01*
X56823Y-47634D01*
X56915Y-47726D01*
X56985Y-47755D01*
X56974Y-47784D01*
X56974Y-47914D01*
X56974Y-48714D01*
X57023Y-48834D01*
X57115Y-48926D01*
X57156Y-48943D01*
X57156Y-48975D01*
X57190Y-49145D01*
X57286Y-49289D01*
X57352Y-49355D01*
X57352Y-49609D01*
X57401Y-49729D01*
X57493Y-49821D01*
X57612Y-49871D01*
X57734Y-49871D01*
X57727Y-49889D01*
X57727Y-50019D01*
X57727Y-50609D01*
X57776Y-50729D01*
X57868Y-50821D01*
X57987Y-50871D01*
X58117Y-50871D01*
X58465Y-50871D01*
X58465Y-50887D01*
X58481Y-50926D01*
X58490Y-50970D01*
X58514Y-51006D01*
X58531Y-51047D01*
X58561Y-51077D01*
X58586Y-51114D01*
X58624Y-51139D01*
X58654Y-51169D01*
X58953Y-51369D01*
X58993Y-51385D01*
X59030Y-51410D01*
X59073Y-51418D01*
X59113Y-51435D01*
X59155Y-51435D01*
X59200Y-51444D01*
X60800Y-51444D01*
X60970Y-51410D01*
X61114Y-51314D01*
X61313Y-51115D01*
X61313Y-51114D01*
X61314Y-51114D01*
X61410Y-50970D01*
X61443Y-50801D01*
X61444Y-50800D01*
X61444Y-50322D01*
X61572Y-50194D01*
X62000Y-50194D01*
X62170Y-50160D01*
X62314Y-50064D01*
X62410Y-49920D01*
X62444Y-49750D01*
X62444Y-49163D01*
X62534Y-49127D01*
X62626Y-49035D01*
X62676Y-48916D01*
X62676Y-48786D01*
X62676Y-48086D01*
X62627Y-47966D01*
X62535Y-47874D01*
X62416Y-47824D01*
X62286Y-47824D01*
X62107Y-47824D01*
X62107Y-47735D01*
X62107Y-47027D01*
X62073Y-46944D01*
X62250Y-46944D01*
X62420Y-46910D01*
X62564Y-46814D01*
X63064Y-46314D01*
X63160Y-46170D01*
X63194Y-46000D01*
X63194Y-28250D01*
X63160Y-28080D01*
X63064Y-27936D01*
X63061Y-27934D01*
X62314Y-27186D01*
X62170Y-27090D01*
X62000Y-27056D01*
X61000Y-27056D01*
X60830Y-27090D01*
X60686Y-27186D01*
X60684Y-27188D01*
X59936Y-27936D01*
X59844Y-28074D01*
X59844Y-23693D01*
X59884Y-23677D01*
X59976Y-23585D01*
X60026Y-23466D01*
X60026Y-23336D01*
X60026Y-22536D01*
X59977Y-22416D01*
X59885Y-22324D01*
X59766Y-22274D01*
X59636Y-22274D01*
X59194Y-22274D01*
X59194Y-22250D01*
X59160Y-22080D01*
X59064Y-21936D01*
X56341Y-19213D01*
X59795Y-19213D01*
X59795Y-16668D01*
X55705Y-16668D01*
X55705Y-18577D01*
X54078Y-16950D01*
X53934Y-16854D01*
X53764Y-16820D01*
X53750Y-16820D01*
X53749Y-16820D01*
X53705Y-16828D01*
X53704Y-16828D01*
X41000Y-16807D01*
X40871Y-16832D01*
X40829Y-16841D01*
X40757Y-16888D01*
X40686Y-16936D01*
X40685Y-16937D01*
X40684Y-16938D01*
X39896Y-17725D01*
X39870Y-17597D01*
X39784Y-17466D01*
X39653Y-17380D01*
X39582Y-17365D01*
X39548Y-17194D01*
X39488Y-17050D01*
X39218Y-16644D01*
X39217Y-16643D01*
X39107Y-16533D01*
X39106Y-16532D01*
X38700Y-16261D01*
X38556Y-16201D01*
X38384Y-16167D01*
X38380Y-16151D01*
X61796Y-16151D01*
X61390Y-16318D01*
X61286Y-16388D01*
X61259Y-16406D01*
X60907Y-16757D01*
X60845Y-16850D01*
X60821Y-16887D01*
X60630Y-17346D01*
X60624Y-17374D01*
X60597Y-17380D01*
X60466Y-17466D01*
X60380Y-17597D01*
X60349Y-17750D01*
X60380Y-17903D01*
X60466Y-18034D01*
X60597Y-18120D01*
X60623Y-18125D01*
X60628Y-18150D01*
X60818Y-18609D01*
X60819Y-18610D01*
X60836Y-18635D01*
X60905Y-18741D01*
X61257Y-19092D01*
X61258Y-19092D01*
X61309Y-19126D01*
X61387Y-19179D01*
X61846Y-19370D01*
X61874Y-19375D01*
X61880Y-19403D01*
X61966Y-19534D01*
X62097Y-19620D01*
X62250Y-19651D01*
X62403Y-19620D01*
X62534Y-19534D01*
X62620Y-19403D01*
X62625Y-19376D01*
X62650Y-19372D01*
X63109Y-19182D01*
X63110Y-19181D01*
X63135Y-19163D01*
X63239Y-19095D01*
X63241Y-19095D01*
X63592Y-18743D01*
X63592Y-18742D01*
X63626Y-18690D01*
X63678Y-18613D01*
X63679Y-18613D01*
X63849Y-18204D01*
X63849Y-52619D01*
M02*
