G04 #@! TF.FileFunction,Soldermask,Top*
%FSLAX46Y46*%
G04 Gerber Fmt 4.6, Leading zero omitted, Abs format (unit mm)*
G04 Created by KiCad (PCBNEW 4.0.5+dfsg1-4) date Wed May 24 13:42:23 2017*
%MOMM*%
%LPD*%
G01*
G04 APERTURE LIST*
%ADD10C,0.150000*%
%ADD11C,0.381000*%
%ADD12O,2.108200X3.507740*%
%ADD13C,4.508500*%
%ADD14C,2.506980*%
%ADD15R,2.207260X2.207260*%
%ADD16C,2.207260*%
%ADD17C,2.286000*%
%ADD18R,2.286000X2.286000*%
%ADD19R,1.905000X1.905000*%
%ADD20C,1.905000*%
%ADD21C,4.572000*%
%ADD22C,3.007360*%
G04 APERTURE END LIST*
D10*
D11*
X91440000Y-139700000D02*
X163195000Y-139700000D01*
X91440000Y-40005000D02*
X163195000Y-40005000D01*
X163195000Y-139700000D02*
X163195000Y-40005000D01*
X91440000Y-139700000D02*
X91440000Y-40005000D01*
D12*
X134620000Y-125460760D03*
X132080000Y-125460760D03*
X132080000Y-128760220D03*
X134620000Y-128760220D03*
D13*
X139349480Y-130810000D03*
X127350520Y-130810000D03*
D14*
X133350000Y-95250000D03*
X128270000Y-95250000D03*
D12*
X111760000Y-117490240D03*
X111760000Y-113649760D03*
X114300000Y-117490240D03*
X114300000Y-113649760D03*
X116840000Y-117490240D03*
X116840000Y-113649760D03*
X119380000Y-117490240D03*
X119380000Y-113649760D03*
X121920000Y-117490240D03*
X121920000Y-113649760D03*
X124460000Y-60309760D03*
X124460000Y-64150240D03*
X121920000Y-60309760D03*
X121920000Y-64150240D03*
X119380000Y-60309760D03*
X119380000Y-64150240D03*
X116840000Y-60309760D03*
X116840000Y-64150240D03*
X114300000Y-60309760D03*
X114300000Y-64150240D03*
X111760000Y-60309760D03*
X111760000Y-64150240D03*
X109220000Y-60309760D03*
X109220000Y-64150240D03*
X106680000Y-60309760D03*
X106680000Y-64150240D03*
X104140000Y-60309760D03*
X104140000Y-64150240D03*
X101600000Y-60309760D03*
X101600000Y-64150240D03*
D14*
X154940000Y-126365000D03*
X152400000Y-126365000D03*
X96520000Y-127000000D03*
X99060000Y-127000000D03*
X101600000Y-127000000D03*
D15*
X119380000Y-102870000D03*
D16*
X116840000Y-102870000D03*
X114300000Y-102870000D03*
D15*
X119380000Y-105410000D03*
D16*
X116840000Y-105410000D03*
X114300000Y-105410000D03*
D15*
X119380000Y-100330000D03*
D16*
X116840000Y-100330000D03*
X114300000Y-100330000D03*
D12*
X101600000Y-90170000D03*
X104140000Y-90170000D03*
X106680000Y-90170000D03*
X109220000Y-90170000D03*
X111760000Y-90170000D03*
X114300000Y-90170000D03*
X116840000Y-90170000D03*
X119380000Y-90170000D03*
X121920000Y-90170000D03*
X124460000Y-90170000D03*
X127000000Y-90170000D03*
X129540000Y-90170000D03*
X132080000Y-90170000D03*
X134620000Y-90170000D03*
X137160000Y-90170000D03*
X139700000Y-90170000D03*
X142240000Y-90170000D03*
X144780000Y-90170000D03*
X147320000Y-90170000D03*
X149860000Y-90170000D03*
X149860000Y-74930000D03*
X147320000Y-74930000D03*
X144780000Y-74930000D03*
X142240000Y-74930000D03*
X139700000Y-74930000D03*
X137160000Y-74930000D03*
X134620000Y-74930000D03*
X132080000Y-74930000D03*
X129540000Y-74930000D03*
X127000000Y-74930000D03*
X124460000Y-74930000D03*
X121920000Y-74930000D03*
X119380000Y-74930000D03*
X116840000Y-74930000D03*
X114300000Y-74930000D03*
X111760000Y-74930000D03*
X109220000Y-74930000D03*
X106680000Y-74930000D03*
X104140000Y-74930000D03*
X101600000Y-74930000D03*
D17*
X157480000Y-113030000D03*
D18*
X157480000Y-123190000D03*
D17*
X153670000Y-113030000D03*
D18*
X153670000Y-123190000D03*
D17*
X156210000Y-74930000D03*
X156210000Y-90170000D03*
D19*
X153670000Y-107950000D03*
D20*
X156210000Y-107950000D03*
X156210000Y-105410000D03*
D21*
X96520000Y-134620000D03*
X158115000Y-134620000D03*
X158115000Y-45085000D03*
X96520000Y-45085000D03*
D22*
X116078000Y-135890000D03*
X115824000Y-130810000D03*
X122936000Y-135890000D03*
X122682000Y-130810000D03*
X104648000Y-135890000D03*
X104394000Y-130810000D03*
X111506000Y-135890000D03*
X111252000Y-130810000D03*
M02*
