G04 (created by PCBNEW-RS274X (2012-apr-16-27)-stable) date Ned 20 Lis 2013 22:50:24*
G01*
G70*
G90*
%MOIN*%
G04 Gerber Fmt 3.4, Leading zero omitted, Abs format*
%FSLAX34Y34*%
G04 APERTURE LIST*
%ADD10C,0.006000*%
%ADD11C,0.015000*%
%ADD12C,0.005000*%
%ADD13C,0.010000*%
%ADD14C,0.011800*%
%ADD15C,0.012000*%
%ADD16C,0.008000*%
%ADD17C,0.003500*%
G04 APERTURE END LIST*
G54D10*
G54D11*
X36000Y-55000D02*
X64250Y-55000D01*
X36000Y-15750D02*
X64250Y-15750D01*
X64250Y-55000D02*
X64250Y-15750D01*
X36000Y-55000D02*
X36000Y-15750D01*
G54D12*
X48000Y-52500D02*
X47980Y-52694D01*
X47924Y-52881D01*
X47832Y-53053D01*
X47709Y-53204D01*
X47559Y-53329D01*
X47387Y-53421D01*
X47201Y-53479D01*
X47006Y-53499D01*
X46813Y-53482D01*
X46626Y-53427D01*
X46453Y-53336D01*
X46301Y-53214D01*
X46175Y-53064D01*
X46081Y-52893D01*
X46022Y-52707D01*
X46001Y-52513D01*
X46017Y-52320D01*
X46071Y-52132D01*
X46160Y-51959D01*
X46281Y-51806D01*
X46430Y-51679D01*
X46600Y-51584D01*
X46786Y-51524D01*
X46980Y-51501D01*
X47173Y-51516D01*
X47361Y-51568D01*
X47535Y-51656D01*
X47689Y-51776D01*
X47817Y-51924D01*
X47913Y-52094D01*
X47975Y-52279D01*
X47999Y-52473D01*
X48000Y-52500D01*
X48500Y-54000D02*
X45500Y-54000D01*
X45500Y-54000D02*
X45500Y-51000D01*
X45500Y-51000D02*
X48500Y-51000D01*
X48500Y-54000D02*
X48500Y-51000D01*
X43500Y-52500D02*
X43480Y-52694D01*
X43424Y-52881D01*
X43332Y-53053D01*
X43209Y-53204D01*
X43059Y-53329D01*
X42887Y-53421D01*
X42701Y-53479D01*
X42506Y-53499D01*
X42313Y-53482D01*
X42126Y-53427D01*
X41953Y-53336D01*
X41801Y-53214D01*
X41675Y-53064D01*
X41581Y-52893D01*
X41522Y-52707D01*
X41501Y-52513D01*
X41517Y-52320D01*
X41571Y-52132D01*
X41660Y-51959D01*
X41781Y-51806D01*
X41930Y-51679D01*
X42100Y-51584D01*
X42286Y-51524D01*
X42480Y-51501D01*
X42673Y-51516D01*
X42861Y-51568D01*
X43035Y-51656D01*
X43189Y-51776D01*
X43317Y-51924D01*
X43413Y-52094D01*
X43475Y-52279D01*
X43499Y-52473D01*
X43500Y-52500D01*
X44000Y-54000D02*
X41000Y-54000D01*
X41000Y-54000D02*
X41000Y-51000D01*
X41000Y-51000D02*
X44000Y-51000D01*
X44000Y-54000D02*
X44000Y-51000D01*
X50100Y-55550D02*
X54900Y-55550D01*
X54900Y-55550D02*
X54900Y-48850D01*
X54900Y-48850D02*
X50100Y-48850D01*
X50100Y-48850D02*
X50100Y-55550D01*
G54D13*
X49300Y-37500D02*
X49304Y-37578D01*
X49314Y-37656D01*
X49331Y-37732D01*
X49355Y-37807D01*
X49385Y-37880D01*
X49421Y-37949D01*
X49463Y-38016D01*
X49511Y-38078D01*
X49564Y-38136D01*
X49622Y-38189D01*
X49684Y-38237D01*
X49751Y-38279D01*
X49820Y-38315D01*
X49893Y-38345D01*
X49968Y-38369D01*
X50044Y-38386D01*
X50122Y-38396D01*
X50200Y-38400D01*
X52800Y-36800D02*
X50200Y-36800D01*
X50200Y-38200D02*
X52800Y-38200D01*
X50200Y-36800D02*
X50139Y-36803D01*
X50079Y-36811D01*
X50019Y-36824D01*
X49961Y-36843D01*
X49905Y-36866D01*
X49851Y-36894D01*
X49799Y-36927D01*
X49751Y-36964D01*
X49706Y-37006D01*
X49664Y-37051D01*
X49627Y-37099D01*
X49594Y-37151D01*
X49566Y-37205D01*
X49543Y-37261D01*
X49524Y-37319D01*
X49511Y-37379D01*
X49503Y-37439D01*
X49500Y-37500D01*
X49500Y-37500D02*
X49503Y-37561D01*
X49511Y-37621D01*
X49524Y-37681D01*
X49543Y-37739D01*
X49566Y-37795D01*
X49594Y-37849D01*
X49627Y-37901D01*
X49664Y-37949D01*
X49706Y-37994D01*
X49751Y-38036D01*
X49799Y-38073D01*
X49851Y-38106D01*
X49905Y-38134D01*
X49961Y-38157D01*
X50019Y-38176D01*
X50079Y-38189D01*
X50139Y-38197D01*
X50200Y-38200D01*
X53500Y-37500D02*
X53497Y-37439D01*
X53489Y-37379D01*
X53476Y-37319D01*
X53457Y-37261D01*
X53434Y-37205D01*
X53406Y-37151D01*
X53373Y-37099D01*
X53336Y-37051D01*
X53294Y-37006D01*
X53249Y-36964D01*
X53201Y-36927D01*
X53150Y-36894D01*
X53095Y-36866D01*
X53039Y-36843D01*
X52981Y-36824D01*
X52921Y-36811D01*
X52861Y-36803D01*
X52800Y-36800D01*
X52800Y-38200D02*
X52861Y-38197D01*
X52921Y-38189D01*
X52981Y-38176D01*
X53039Y-38157D01*
X53095Y-38134D01*
X53150Y-38106D01*
X53201Y-38073D01*
X53249Y-38036D01*
X53294Y-37994D01*
X53336Y-37949D01*
X53373Y-37901D01*
X53406Y-37849D01*
X53434Y-37795D01*
X53457Y-37739D01*
X53476Y-37681D01*
X53489Y-37621D01*
X53497Y-37561D01*
X53500Y-37500D01*
X50200Y-36600D02*
X50122Y-36604D01*
X50044Y-36614D01*
X49968Y-36631D01*
X49893Y-36655D01*
X49820Y-36685D01*
X49751Y-36721D01*
X49684Y-36763D01*
X49622Y-36811D01*
X49564Y-36864D01*
X49511Y-36922D01*
X49463Y-36984D01*
X49421Y-37051D01*
X49385Y-37120D01*
X49355Y-37193D01*
X49331Y-37268D01*
X49314Y-37344D01*
X49304Y-37422D01*
X49300Y-37500D01*
X50200Y-36600D02*
X52800Y-36600D01*
X52800Y-38400D02*
X50200Y-38400D01*
X53700Y-37500D02*
X53696Y-37422D01*
X53686Y-37344D01*
X53669Y-37268D01*
X53645Y-37193D01*
X53615Y-37120D01*
X53579Y-37051D01*
X53537Y-36984D01*
X53489Y-36922D01*
X53436Y-36864D01*
X53378Y-36811D01*
X53316Y-36763D01*
X53250Y-36721D01*
X53180Y-36685D01*
X53107Y-36655D01*
X53032Y-36631D01*
X52956Y-36614D01*
X52878Y-36604D01*
X52800Y-36600D01*
X52800Y-38400D02*
X52878Y-38396D01*
X52956Y-38386D01*
X53032Y-38369D01*
X53107Y-38345D01*
X53180Y-38315D01*
X53250Y-38279D01*
X53316Y-38237D01*
X53378Y-38189D01*
X53436Y-38136D01*
X53489Y-38078D01*
X53537Y-38016D01*
X53579Y-37949D01*
X53615Y-37880D01*
X53645Y-37807D01*
X53669Y-37732D01*
X53686Y-37656D01*
X53696Y-37578D01*
X53700Y-37500D01*
G54D14*
X42000Y-43700D02*
X42000Y-47300D01*
X50000Y-43700D02*
X42000Y-43700D01*
X50000Y-43700D02*
X50000Y-47300D01*
X42000Y-47300D02*
X50000Y-47300D01*
X46500Y-47300D02*
X46500Y-46800D01*
X46500Y-46800D02*
X45500Y-46800D01*
X45500Y-46800D02*
X45500Y-47300D01*
G54D15*
X38000Y-22700D02*
X51000Y-22700D01*
X51000Y-26300D02*
X38000Y-26300D01*
G54D14*
X51000Y-26300D02*
X51000Y-22700D01*
X38000Y-26300D02*
X38000Y-22700D01*
X44000Y-22700D02*
X44000Y-23200D01*
X44000Y-23200D02*
X45000Y-23200D01*
X45000Y-23200D02*
X45000Y-22700D01*
G54D13*
X59780Y-49250D02*
X59780Y-50250D01*
G54D10*
X60860Y-50134D02*
X60892Y-50092D01*
X60920Y-50048D01*
X60944Y-50001D01*
X60964Y-49953D01*
X60980Y-49903D01*
X60991Y-49852D01*
X60997Y-49800D01*
X61000Y-49750D01*
X60999Y-49750D02*
X60996Y-49698D01*
X60989Y-49646D01*
X60978Y-49595D01*
X60962Y-49546D01*
X60942Y-49497D01*
X60918Y-49451D01*
X60890Y-49407D01*
X60858Y-49365D01*
X60847Y-49353D01*
X59801Y-49750D02*
X59804Y-49802D01*
X59811Y-49854D01*
X59822Y-49905D01*
X59838Y-49954D01*
X59858Y-50003D01*
X59882Y-50049D01*
X59910Y-50093D01*
X59942Y-50135D01*
X59946Y-50139D01*
X59940Y-49366D02*
X59908Y-49408D01*
X59880Y-49452D01*
X59856Y-49499D01*
X59836Y-49547D01*
X59820Y-49597D01*
X59809Y-49648D01*
X59803Y-49700D01*
X59800Y-49750D01*
X59913Y-50099D02*
X59945Y-50140D01*
X59981Y-50178D01*
X60020Y-50213D01*
X60062Y-50245D01*
X60106Y-50272D01*
X60153Y-50296D01*
X60201Y-50315D01*
X60251Y-50331D01*
X60303Y-50341D01*
X60354Y-50348D01*
X60400Y-50350D01*
X60400Y-50350D02*
X60452Y-50347D01*
X60504Y-50340D01*
X60555Y-50329D01*
X60605Y-50313D01*
X60653Y-50293D01*
X60700Y-50269D01*
X60744Y-50241D01*
X60785Y-50209D01*
X60824Y-50174D01*
X60859Y-50135D01*
X60879Y-50110D01*
X60400Y-49151D02*
X60348Y-49154D01*
X60296Y-49161D01*
X60245Y-49172D01*
X60196Y-49188D01*
X60147Y-49208D01*
X60101Y-49232D01*
X60057Y-49260D01*
X60015Y-49292D01*
X59977Y-49327D01*
X59942Y-49365D01*
X59928Y-49383D01*
X60873Y-49382D02*
X60839Y-49342D01*
X60802Y-49305D01*
X60761Y-49272D01*
X60718Y-49242D01*
X60673Y-49216D01*
X60625Y-49195D01*
X60576Y-49177D01*
X60525Y-49164D01*
X60474Y-49155D01*
X60421Y-49151D01*
X60400Y-49150D01*
X60400Y-50000D02*
X60421Y-49999D01*
X60443Y-49996D01*
X60464Y-49991D01*
X60485Y-49984D01*
X60505Y-49976D01*
X60525Y-49966D01*
X60543Y-49954D01*
X60560Y-49941D01*
X60576Y-49926D01*
X60591Y-49910D01*
X60604Y-49893D01*
X60616Y-49874D01*
X60626Y-49855D01*
X60634Y-49835D01*
X60641Y-49814D01*
X60646Y-49793D01*
X60649Y-49771D01*
X60650Y-49750D01*
X60400Y-50150D02*
X60434Y-50148D01*
X60469Y-50143D01*
X60503Y-50136D01*
X60536Y-50125D01*
X60569Y-50112D01*
X60600Y-50096D01*
X60629Y-50077D01*
X60657Y-50056D01*
X60682Y-50032D01*
X60706Y-50007D01*
X60727Y-49979D01*
X60746Y-49949D01*
X60762Y-49919D01*
X60775Y-49886D01*
X60786Y-49853D01*
X60793Y-49819D01*
X60798Y-49784D01*
X60800Y-49750D01*
X60400Y-49500D02*
X60379Y-49501D01*
X60357Y-49504D01*
X60336Y-49509D01*
X60315Y-49516D01*
X60295Y-49524D01*
X60276Y-49534D01*
X60257Y-49546D01*
X60240Y-49559D01*
X60224Y-49574D01*
X60209Y-49590D01*
X60196Y-49607D01*
X60184Y-49626D01*
X60174Y-49645D01*
X60166Y-49665D01*
X60159Y-49686D01*
X60154Y-49707D01*
X60151Y-49729D01*
X60150Y-49750D01*
X60400Y-49350D02*
X60366Y-49352D01*
X60331Y-49357D01*
X60297Y-49364D01*
X60264Y-49375D01*
X60231Y-49388D01*
X60201Y-49404D01*
X60171Y-49423D01*
X60143Y-49444D01*
X60118Y-49468D01*
X60094Y-49493D01*
X60073Y-49521D01*
X60054Y-49551D01*
X60038Y-49581D01*
X60025Y-49614D01*
X60014Y-49647D01*
X60007Y-49681D01*
X60002Y-49716D01*
X60000Y-49750D01*
G54D13*
X59787Y-50263D02*
X59834Y-50314D01*
X59885Y-50361D01*
X59940Y-50404D01*
X59999Y-50442D01*
X60061Y-50474D01*
X60126Y-50501D01*
X60192Y-50522D01*
X60260Y-50537D01*
X60329Y-50546D01*
X60399Y-50549D01*
X60400Y-50550D01*
X60400Y-50549D02*
X60469Y-50545D01*
X60538Y-50536D01*
X60606Y-50521D01*
X60673Y-50500D01*
X60737Y-50474D01*
X60799Y-50441D01*
X60858Y-50404D01*
X60913Y-50362D01*
X60964Y-50314D01*
X61012Y-50263D01*
X61054Y-50208D01*
X61091Y-50149D01*
X61104Y-50126D01*
X60399Y-48953D02*
X60330Y-48956D01*
X60261Y-48965D01*
X60193Y-48980D01*
X60126Y-49001D01*
X60062Y-49028D01*
X60000Y-49060D01*
X59942Y-49098D01*
X59886Y-49140D01*
X59835Y-49187D01*
X59791Y-49235D01*
X61094Y-49353D02*
X61056Y-49294D01*
X61014Y-49238D01*
X60967Y-49187D01*
X60916Y-49139D01*
X60861Y-49097D01*
X60802Y-49059D01*
X60740Y-49027D01*
X60676Y-49000D01*
X60609Y-48978D01*
X60541Y-48963D01*
X60472Y-48954D01*
X60402Y-48951D01*
X60400Y-48950D01*
X61104Y-50129D02*
X61134Y-50066D01*
X61159Y-50001D01*
X61178Y-49934D01*
X61191Y-49865D01*
X61198Y-49796D01*
X61200Y-49750D01*
X61199Y-49750D02*
X61195Y-49681D01*
X61186Y-49612D01*
X61171Y-49544D01*
X61150Y-49477D01*
X61124Y-49413D01*
X61091Y-49351D01*
X61080Y-49332D01*
X40470Y-50500D02*
X40470Y-49500D01*
G54D10*
X39390Y-49616D02*
X39358Y-49658D01*
X39330Y-49702D01*
X39306Y-49749D01*
X39286Y-49797D01*
X39270Y-49847D01*
X39259Y-49898D01*
X39253Y-49950D01*
X39250Y-50000D01*
X39251Y-50000D02*
X39254Y-50052D01*
X39261Y-50104D01*
X39272Y-50155D01*
X39288Y-50204D01*
X39308Y-50253D01*
X39332Y-50299D01*
X39360Y-50343D01*
X39392Y-50385D01*
X39403Y-50397D01*
X40449Y-50000D02*
X40446Y-49948D01*
X40439Y-49896D01*
X40428Y-49845D01*
X40412Y-49796D01*
X40392Y-49747D01*
X40368Y-49701D01*
X40340Y-49657D01*
X40308Y-49615D01*
X40304Y-49611D01*
X40310Y-50384D02*
X40342Y-50342D01*
X40370Y-50298D01*
X40394Y-50251D01*
X40414Y-50203D01*
X40430Y-50153D01*
X40441Y-50102D01*
X40447Y-50050D01*
X40450Y-50000D01*
X40337Y-49651D02*
X40305Y-49610D01*
X40269Y-49572D01*
X40230Y-49537D01*
X40188Y-49505D01*
X40144Y-49478D01*
X40097Y-49454D01*
X40049Y-49435D01*
X39999Y-49419D01*
X39947Y-49409D01*
X39896Y-49402D01*
X39850Y-49400D01*
X39850Y-49400D02*
X39798Y-49403D01*
X39746Y-49410D01*
X39695Y-49421D01*
X39645Y-49437D01*
X39597Y-49457D01*
X39551Y-49481D01*
X39506Y-49509D01*
X39465Y-49541D01*
X39426Y-49576D01*
X39391Y-49615D01*
X39371Y-49640D01*
X39850Y-50599D02*
X39902Y-50596D01*
X39954Y-50589D01*
X40005Y-50578D01*
X40054Y-50562D01*
X40103Y-50542D01*
X40149Y-50518D01*
X40193Y-50490D01*
X40235Y-50458D01*
X40273Y-50423D01*
X40308Y-50385D01*
X40322Y-50367D01*
X39377Y-50368D02*
X39411Y-50408D01*
X39448Y-50445D01*
X39489Y-50478D01*
X39532Y-50508D01*
X39577Y-50534D01*
X39625Y-50555D01*
X39674Y-50573D01*
X39725Y-50586D01*
X39776Y-50595D01*
X39829Y-50599D01*
X39850Y-50600D01*
X39850Y-49750D02*
X39829Y-49751D01*
X39807Y-49754D01*
X39786Y-49759D01*
X39765Y-49766D01*
X39745Y-49774D01*
X39726Y-49784D01*
X39707Y-49796D01*
X39690Y-49809D01*
X39674Y-49824D01*
X39659Y-49840D01*
X39646Y-49857D01*
X39634Y-49876D01*
X39624Y-49895D01*
X39616Y-49915D01*
X39609Y-49936D01*
X39604Y-49957D01*
X39601Y-49979D01*
X39600Y-50000D01*
X39850Y-49600D02*
X39816Y-49602D01*
X39781Y-49607D01*
X39747Y-49614D01*
X39714Y-49625D01*
X39681Y-49638D01*
X39651Y-49654D01*
X39621Y-49673D01*
X39593Y-49694D01*
X39568Y-49718D01*
X39544Y-49743D01*
X39523Y-49771D01*
X39504Y-49801D01*
X39488Y-49831D01*
X39475Y-49864D01*
X39464Y-49897D01*
X39457Y-49931D01*
X39452Y-49966D01*
X39450Y-50000D01*
X39850Y-50250D02*
X39871Y-50249D01*
X39893Y-50246D01*
X39914Y-50241D01*
X39935Y-50234D01*
X39955Y-50226D01*
X39975Y-50216D01*
X39993Y-50204D01*
X40010Y-50191D01*
X40026Y-50176D01*
X40041Y-50160D01*
X40054Y-50143D01*
X40066Y-50124D01*
X40076Y-50105D01*
X40084Y-50085D01*
X40091Y-50064D01*
X40096Y-50043D01*
X40099Y-50021D01*
X40100Y-50000D01*
X39850Y-50400D02*
X39884Y-50398D01*
X39919Y-50393D01*
X39953Y-50386D01*
X39986Y-50375D01*
X40019Y-50362D01*
X40050Y-50346D01*
X40079Y-50327D01*
X40107Y-50306D01*
X40132Y-50282D01*
X40156Y-50257D01*
X40177Y-50229D01*
X40196Y-50199D01*
X40212Y-50169D01*
X40225Y-50136D01*
X40236Y-50103D01*
X40243Y-50069D01*
X40248Y-50034D01*
X40250Y-50000D01*
G54D13*
X40463Y-49487D02*
X40416Y-49436D01*
X40365Y-49389D01*
X40310Y-49346D01*
X40251Y-49308D01*
X40189Y-49276D01*
X40124Y-49249D01*
X40058Y-49228D01*
X39990Y-49213D01*
X39921Y-49204D01*
X39851Y-49201D01*
X39850Y-49200D01*
X39850Y-49201D02*
X39781Y-49205D01*
X39712Y-49214D01*
X39644Y-49229D01*
X39577Y-49250D01*
X39513Y-49276D01*
X39451Y-49309D01*
X39392Y-49346D01*
X39337Y-49388D01*
X39286Y-49436D01*
X39238Y-49487D01*
X39196Y-49542D01*
X39159Y-49601D01*
X39146Y-49624D01*
X39851Y-50797D02*
X39920Y-50794D01*
X39989Y-50785D01*
X40057Y-50770D01*
X40124Y-50749D01*
X40188Y-50722D01*
X40250Y-50690D01*
X40308Y-50652D01*
X40364Y-50610D01*
X40415Y-50563D01*
X40459Y-50515D01*
X39156Y-50397D02*
X39194Y-50456D01*
X39236Y-50512D01*
X39283Y-50563D01*
X39334Y-50611D01*
X39389Y-50653D01*
X39448Y-50691D01*
X39510Y-50723D01*
X39574Y-50750D01*
X39641Y-50772D01*
X39709Y-50787D01*
X39778Y-50796D01*
X39848Y-50799D01*
X39850Y-50800D01*
X39146Y-49621D02*
X39116Y-49684D01*
X39091Y-49749D01*
X39072Y-49816D01*
X39059Y-49885D01*
X39052Y-49954D01*
X39050Y-50000D01*
X39051Y-50000D02*
X39055Y-50069D01*
X39064Y-50138D01*
X39079Y-50206D01*
X39100Y-50273D01*
X39126Y-50337D01*
X39159Y-50399D01*
X39170Y-50418D01*
G54D15*
X47500Y-40000D02*
X47500Y-41000D01*
X47500Y-41000D02*
X44500Y-41000D01*
X44500Y-41000D02*
X44500Y-40000D01*
X44500Y-40000D02*
X47500Y-40000D01*
X46500Y-41000D02*
X46500Y-40000D01*
X47500Y-41000D02*
X47500Y-42000D01*
X47500Y-42000D02*
X44500Y-42000D01*
X44500Y-42000D02*
X44500Y-41000D01*
X44500Y-41000D02*
X47500Y-41000D01*
X46500Y-42000D02*
X46500Y-41000D01*
X47500Y-39000D02*
X47500Y-40000D01*
X47500Y-40000D02*
X44500Y-40000D01*
X44500Y-40000D02*
X44500Y-39000D01*
X44500Y-39000D02*
X47500Y-39000D01*
X46500Y-40000D02*
X46500Y-39000D01*
G54D11*
X39000Y-32000D02*
X39500Y-32000D01*
X39500Y-32000D02*
X39500Y-33000D01*
X39500Y-33000D02*
X39000Y-33000D01*
X39000Y-30000D02*
X60000Y-30000D01*
X60000Y-30000D02*
X60000Y-35000D01*
X60000Y-35000D02*
X39000Y-35000D01*
X39000Y-35000D02*
X39000Y-30000D01*
G54D15*
X62500Y-45000D02*
X62500Y-48000D01*
X62500Y-48000D02*
X61500Y-48000D01*
X61500Y-48000D02*
X61500Y-45000D01*
X61500Y-45000D02*
X62500Y-45000D01*
X62500Y-47750D02*
X61500Y-47750D01*
X61500Y-47500D02*
X62500Y-47500D01*
X62000Y-45000D02*
X62000Y-44500D01*
X62000Y-48000D02*
X62000Y-48500D01*
X61000Y-45000D02*
X61000Y-48000D01*
X61000Y-48000D02*
X60000Y-48000D01*
X60000Y-48000D02*
X60000Y-45000D01*
X60000Y-45000D02*
X61000Y-45000D01*
X61000Y-47750D02*
X60000Y-47750D01*
X60000Y-47500D02*
X61000Y-47500D01*
X60500Y-45000D02*
X60500Y-44500D01*
X60500Y-48000D02*
X60500Y-48500D01*
X62000Y-30000D02*
X62000Y-35000D01*
X62000Y-35000D02*
X61000Y-35000D01*
X61000Y-35000D02*
X61000Y-30000D01*
X61500Y-35000D02*
X61500Y-35500D01*
X61500Y-29500D02*
X61500Y-30000D01*
X61700Y-30000D02*
X62000Y-30300D01*
X62000Y-30000D02*
X61000Y-30000D01*
X61500Y-41000D02*
X60000Y-42500D01*
X60000Y-42500D02*
X60000Y-43000D01*
X60000Y-43000D02*
X60500Y-43500D01*
X60500Y-43500D02*
X61500Y-43500D01*
X61500Y-43500D02*
X62500Y-42500D01*
X62500Y-42500D02*
X62500Y-41500D01*
X62500Y-41500D02*
X62000Y-41000D01*
X62000Y-41000D02*
X61500Y-41000D01*
G54D11*
X38900Y-53000D02*
X38882Y-53174D01*
X38832Y-53342D01*
X38749Y-53498D01*
X38638Y-53634D01*
X38503Y-53746D01*
X38348Y-53829D01*
X38180Y-53881D01*
X38006Y-53899D01*
X37832Y-53884D01*
X37663Y-53834D01*
X37508Y-53753D01*
X37371Y-53643D01*
X37258Y-53508D01*
X37173Y-53354D01*
X37120Y-53187D01*
X37101Y-53012D01*
X37115Y-52838D01*
X37164Y-52669D01*
X37244Y-52513D01*
X37353Y-52375D01*
X37487Y-52261D01*
X37640Y-52176D01*
X37807Y-52121D01*
X37982Y-52101D01*
X38156Y-52114D01*
X38325Y-52161D01*
X38482Y-52241D01*
X38620Y-52349D01*
X38735Y-52482D01*
X38822Y-52634D01*
X38877Y-52801D01*
X38899Y-52975D01*
X38900Y-53000D01*
X63150Y-53000D02*
X63132Y-53174D01*
X63082Y-53342D01*
X62999Y-53498D01*
X62888Y-53634D01*
X62753Y-53746D01*
X62598Y-53829D01*
X62430Y-53881D01*
X62256Y-53899D01*
X62082Y-53884D01*
X61913Y-53834D01*
X61758Y-53753D01*
X61621Y-53643D01*
X61508Y-53508D01*
X61423Y-53354D01*
X61370Y-53187D01*
X61351Y-53012D01*
X61365Y-52838D01*
X61414Y-52669D01*
X61494Y-52513D01*
X61603Y-52375D01*
X61737Y-52261D01*
X61890Y-52176D01*
X62057Y-52121D01*
X62232Y-52101D01*
X62406Y-52114D01*
X62575Y-52161D01*
X62732Y-52241D01*
X62870Y-52349D01*
X62985Y-52482D01*
X63072Y-52634D01*
X63127Y-52801D01*
X63149Y-52975D01*
X63150Y-53000D01*
X63150Y-17750D02*
X63132Y-17924D01*
X63082Y-18092D01*
X62999Y-18248D01*
X62888Y-18384D01*
X62753Y-18496D01*
X62598Y-18579D01*
X62430Y-18631D01*
X62256Y-18649D01*
X62082Y-18634D01*
X61913Y-18584D01*
X61758Y-18503D01*
X61621Y-18393D01*
X61508Y-18258D01*
X61423Y-18104D01*
X61370Y-17937D01*
X61351Y-17762D01*
X61365Y-17588D01*
X61414Y-17419D01*
X61494Y-17263D01*
X61603Y-17125D01*
X61737Y-17011D01*
X61890Y-16926D01*
X62057Y-16871D01*
X62232Y-16851D01*
X62406Y-16864D01*
X62575Y-16911D01*
X62732Y-16991D01*
X62870Y-17099D01*
X62985Y-17232D01*
X63072Y-17384D01*
X63127Y-17551D01*
X63149Y-17725D01*
X63150Y-17750D01*
X38900Y-17750D02*
X38882Y-17924D01*
X38832Y-18092D01*
X38749Y-18248D01*
X38638Y-18384D01*
X38503Y-18496D01*
X38348Y-18579D01*
X38180Y-18631D01*
X38006Y-18649D01*
X37832Y-18634D01*
X37663Y-18584D01*
X37508Y-18503D01*
X37371Y-18393D01*
X37258Y-18258D01*
X37173Y-18104D01*
X37120Y-17937D01*
X37101Y-17762D01*
X37115Y-17588D01*
X37164Y-17419D01*
X37244Y-17263D01*
X37353Y-17125D01*
X37487Y-17011D01*
X37640Y-16926D01*
X37807Y-16871D01*
X37982Y-16851D01*
X38156Y-16864D01*
X38325Y-16911D01*
X38482Y-16991D01*
X38620Y-17099D01*
X38735Y-17232D01*
X38822Y-17384D01*
X38877Y-17551D01*
X38899Y-17725D01*
X38900Y-17750D01*
G54D16*
X46419Y-54562D02*
X46285Y-54371D01*
X46190Y-54562D02*
X46190Y-54162D01*
X46343Y-54162D01*
X46381Y-54181D01*
X46400Y-54200D01*
X46419Y-54238D01*
X46419Y-54295D01*
X46400Y-54333D01*
X46381Y-54352D01*
X46343Y-54371D01*
X46190Y-54371D01*
X46590Y-54352D02*
X46724Y-54352D01*
X46781Y-54562D02*
X46590Y-54562D01*
X46590Y-54162D01*
X46781Y-54162D01*
X46933Y-54543D02*
X46990Y-54562D01*
X47086Y-54562D01*
X47124Y-54543D01*
X47143Y-54524D01*
X47162Y-54486D01*
X47162Y-54448D01*
X47143Y-54410D01*
X47124Y-54390D01*
X47086Y-54371D01*
X47009Y-54352D01*
X46971Y-54333D01*
X46952Y-54314D01*
X46933Y-54276D01*
X46933Y-54238D01*
X46952Y-54200D01*
X46971Y-54181D01*
X47009Y-54162D01*
X47105Y-54162D01*
X47162Y-54181D01*
X47333Y-54352D02*
X47467Y-54352D01*
X47524Y-54562D02*
X47333Y-54562D01*
X47333Y-54162D01*
X47524Y-54162D01*
X47638Y-54162D02*
X47867Y-54162D01*
X47752Y-54562D02*
X47752Y-54162D01*
X41709Y-54443D02*
X41766Y-54462D01*
X41862Y-54462D01*
X41900Y-54443D01*
X41919Y-54424D01*
X41938Y-54386D01*
X41938Y-54348D01*
X41919Y-54310D01*
X41900Y-54290D01*
X41862Y-54271D01*
X41785Y-54252D01*
X41747Y-54233D01*
X41728Y-54214D01*
X41709Y-54176D01*
X41709Y-54138D01*
X41728Y-54100D01*
X41747Y-54081D01*
X41785Y-54062D01*
X41881Y-54062D01*
X41938Y-54081D01*
X42052Y-54062D02*
X42281Y-54062D01*
X42166Y-54462D02*
X42166Y-54062D01*
X42395Y-54348D02*
X42586Y-54348D01*
X42357Y-54462D02*
X42490Y-54062D01*
X42624Y-54462D01*
X42986Y-54462D02*
X42852Y-54271D01*
X42757Y-54462D02*
X42757Y-54062D01*
X42910Y-54062D01*
X42948Y-54081D01*
X42967Y-54100D01*
X42986Y-54138D01*
X42986Y-54195D01*
X42967Y-54233D01*
X42948Y-54252D01*
X42910Y-54271D01*
X42757Y-54271D01*
X43100Y-54062D02*
X43329Y-54062D01*
X43214Y-54462D02*
X43214Y-54062D01*
G54D15*
X51643Y-47643D02*
X51643Y-48129D01*
X51671Y-48186D01*
X51700Y-48214D01*
X51757Y-48243D01*
X51871Y-48243D01*
X51929Y-48214D01*
X51957Y-48186D01*
X51986Y-48129D01*
X51986Y-47643D01*
X52243Y-48214D02*
X52329Y-48243D01*
X52472Y-48243D01*
X52529Y-48214D01*
X52558Y-48186D01*
X52586Y-48129D01*
X52586Y-48071D01*
X52558Y-48014D01*
X52529Y-47986D01*
X52472Y-47957D01*
X52358Y-47929D01*
X52300Y-47900D01*
X52272Y-47871D01*
X52243Y-47814D01*
X52243Y-47757D01*
X52272Y-47700D01*
X52300Y-47671D01*
X52358Y-47643D01*
X52500Y-47643D01*
X52586Y-47671D01*
X53043Y-47929D02*
X53129Y-47957D01*
X53157Y-47986D01*
X53186Y-48043D01*
X53186Y-48129D01*
X53157Y-48186D01*
X53129Y-48214D01*
X53071Y-48243D01*
X52843Y-48243D01*
X52843Y-47643D01*
X53043Y-47643D01*
X53100Y-47671D01*
X53129Y-47700D01*
X53157Y-47757D01*
X53157Y-47814D01*
X53129Y-47871D01*
X53100Y-47900D01*
X53043Y-47929D01*
X52843Y-47929D01*
G54D10*
X50555Y-38982D02*
X50269Y-38982D01*
X50412Y-38982D02*
X50412Y-38532D01*
X50364Y-38596D01*
X50317Y-38639D01*
X50269Y-38661D01*
X50983Y-38532D02*
X50888Y-38532D01*
X50840Y-38554D01*
X50817Y-38575D01*
X50769Y-38639D01*
X50745Y-38725D01*
X50745Y-38896D01*
X50769Y-38939D01*
X50793Y-38961D01*
X50840Y-38982D01*
X50936Y-38982D01*
X50983Y-38961D01*
X51007Y-38939D01*
X51031Y-38896D01*
X51031Y-38789D01*
X51007Y-38746D01*
X50983Y-38725D01*
X50936Y-38704D01*
X50840Y-38704D01*
X50793Y-38725D01*
X50769Y-38746D01*
X50745Y-38789D01*
X51245Y-38982D02*
X51245Y-38532D01*
X51412Y-38854D01*
X51578Y-38532D01*
X51578Y-38982D01*
X51816Y-38982D02*
X51816Y-38532D01*
X51816Y-38746D02*
X52102Y-38746D01*
X52102Y-38982D02*
X52102Y-38532D01*
X52292Y-38682D02*
X52554Y-38682D01*
X52292Y-38982D01*
X52554Y-38982D01*
G54D16*
X44401Y-47698D02*
X44567Y-47698D01*
X44367Y-47812D02*
X44484Y-47412D01*
X44601Y-47812D01*
X44667Y-47412D02*
X44784Y-47812D01*
X44901Y-47412D01*
X45217Y-47812D02*
X45101Y-47621D01*
X45017Y-47812D02*
X45017Y-47412D01*
X45151Y-47412D01*
X45184Y-47431D01*
X45201Y-47450D01*
X45217Y-47488D01*
X45217Y-47545D01*
X45201Y-47583D01*
X45184Y-47602D01*
X45151Y-47621D01*
X45017Y-47621D01*
X45367Y-47660D02*
X45634Y-47660D01*
X45800Y-47812D02*
X45800Y-47412D01*
X45951Y-47793D02*
X46001Y-47812D01*
X46084Y-47812D01*
X46117Y-47793D01*
X46134Y-47774D01*
X46151Y-47736D01*
X46151Y-47698D01*
X46134Y-47660D01*
X46117Y-47640D01*
X46084Y-47621D01*
X46017Y-47602D01*
X45984Y-47583D01*
X45967Y-47564D01*
X45951Y-47526D01*
X45951Y-47488D01*
X45967Y-47450D01*
X45984Y-47431D01*
X46017Y-47412D01*
X46101Y-47412D01*
X46151Y-47431D01*
X46300Y-47812D02*
X46300Y-47412D01*
X46434Y-47412D01*
X46467Y-47431D01*
X46484Y-47450D01*
X46500Y-47488D01*
X46500Y-47545D01*
X46484Y-47583D01*
X46467Y-47602D01*
X46434Y-47621D01*
X46300Y-47621D01*
X46650Y-47660D02*
X46917Y-47660D01*
X47267Y-47812D02*
X47067Y-47812D01*
X47167Y-47812D02*
X47167Y-47412D01*
X47133Y-47469D01*
X47100Y-47507D01*
X47067Y-47526D01*
X47483Y-47412D02*
X47516Y-47412D01*
X47550Y-47431D01*
X47566Y-47450D01*
X47583Y-47488D01*
X47600Y-47564D01*
X47600Y-47660D01*
X47583Y-47736D01*
X47566Y-47774D01*
X47550Y-47793D01*
X47516Y-47812D01*
X47483Y-47812D01*
X47450Y-47793D01*
X47433Y-47774D01*
X47416Y-47736D01*
X47400Y-47660D01*
X47400Y-47564D01*
X47416Y-47488D01*
X47433Y-47450D01*
X47450Y-47431D01*
X47483Y-47412D01*
X43258Y-22474D02*
X43242Y-22493D01*
X43192Y-22512D01*
X43158Y-22512D01*
X43108Y-22493D01*
X43075Y-22455D01*
X43058Y-22417D01*
X43042Y-22340D01*
X43042Y-22283D01*
X43058Y-22207D01*
X43075Y-22169D01*
X43108Y-22131D01*
X43158Y-22112D01*
X43192Y-22112D01*
X43242Y-22131D01*
X43258Y-22150D01*
X43475Y-22112D02*
X43542Y-22112D01*
X43575Y-22131D01*
X43608Y-22169D01*
X43625Y-22245D01*
X43625Y-22379D01*
X43608Y-22455D01*
X43575Y-22493D01*
X43542Y-22512D01*
X43475Y-22512D01*
X43442Y-22493D01*
X43408Y-22455D01*
X43392Y-22379D01*
X43392Y-22245D01*
X43408Y-22169D01*
X43442Y-22131D01*
X43475Y-22112D01*
X43775Y-22512D02*
X43775Y-22112D01*
X43975Y-22512D01*
X43975Y-22112D01*
X44142Y-22512D02*
X44142Y-22112D01*
X44342Y-22512D01*
X44342Y-22112D01*
X44426Y-22550D02*
X44693Y-22550D01*
X44960Y-22512D02*
X44760Y-22512D01*
X44860Y-22512D02*
X44860Y-22112D01*
X44826Y-22169D01*
X44793Y-22207D01*
X44760Y-22226D01*
X45176Y-22112D02*
X45209Y-22112D01*
X45243Y-22131D01*
X45259Y-22150D01*
X45276Y-22188D01*
X45293Y-22264D01*
X45293Y-22360D01*
X45276Y-22436D01*
X45259Y-22474D01*
X45243Y-22493D01*
X45209Y-22512D01*
X45176Y-22512D01*
X45143Y-22493D01*
X45126Y-22474D01*
X45109Y-22436D01*
X45093Y-22360D01*
X45093Y-22264D01*
X45109Y-22188D01*
X45126Y-22150D01*
X45143Y-22131D01*
X45176Y-22112D01*
X45409Y-22112D02*
X45642Y-22512D01*
X45642Y-22112D02*
X45409Y-22512D01*
X45759Y-22150D02*
X45775Y-22131D01*
X45809Y-22112D01*
X45892Y-22112D01*
X45925Y-22131D01*
X45942Y-22150D01*
X45959Y-22188D01*
X45959Y-22226D01*
X45942Y-22283D01*
X45742Y-22512D01*
X45959Y-22512D01*
G54D17*
X60050Y-51121D02*
X60050Y-50821D01*
X60050Y-50964D02*
X60222Y-50964D01*
X60222Y-51121D02*
X60222Y-50821D01*
X60364Y-50964D02*
X60464Y-50964D01*
X60507Y-51121D02*
X60364Y-51121D01*
X60364Y-50821D01*
X60507Y-50821D01*
X60693Y-50979D02*
X60693Y-51121D01*
X60593Y-50821D02*
X60693Y-50979D01*
X60793Y-50821D01*
X39014Y-49021D02*
X39014Y-48721D01*
X39086Y-48721D01*
X39129Y-48736D01*
X39157Y-48764D01*
X39172Y-48793D01*
X39186Y-48850D01*
X39186Y-48893D01*
X39172Y-48950D01*
X39157Y-48979D01*
X39129Y-49007D01*
X39086Y-49021D01*
X39014Y-49021D01*
X39457Y-49021D02*
X39314Y-49021D01*
X39314Y-48721D01*
X39557Y-48864D02*
X39657Y-48864D01*
X39700Y-49021D02*
X39557Y-49021D01*
X39557Y-48721D01*
X39700Y-48721D01*
X39828Y-49021D02*
X39828Y-48721D01*
X39900Y-48721D01*
X39943Y-48736D01*
X39971Y-48764D01*
X39986Y-48793D01*
X40000Y-48850D01*
X40000Y-48893D01*
X39986Y-48950D01*
X39971Y-48979D01*
X39943Y-49007D01*
X39900Y-49021D01*
X39828Y-49021D01*
X40300Y-48993D02*
X40286Y-49007D01*
X40243Y-49021D01*
X40214Y-49021D01*
X40171Y-49007D01*
X40143Y-48979D01*
X40128Y-48950D01*
X40114Y-48893D01*
X40114Y-48850D01*
X40128Y-48793D01*
X40143Y-48764D01*
X40171Y-48736D01*
X40214Y-48721D01*
X40243Y-48721D01*
X40286Y-48736D01*
X40300Y-48750D01*
X40428Y-49021D02*
X40428Y-48721D01*
X40600Y-49021D02*
X40471Y-48850D01*
X40600Y-48721D02*
X40428Y-48893D01*
G54D13*
X48124Y-40171D02*
X48086Y-40143D01*
X48029Y-40143D01*
X47971Y-40171D01*
X47933Y-40229D01*
X47914Y-40286D01*
X47895Y-40400D01*
X47895Y-40486D01*
X47914Y-40600D01*
X47933Y-40657D01*
X47971Y-40714D01*
X48029Y-40743D01*
X48067Y-40743D01*
X48124Y-40714D01*
X48143Y-40686D01*
X48143Y-40486D01*
X48067Y-40486D01*
X48295Y-40714D02*
X48352Y-40743D01*
X48448Y-40743D01*
X48486Y-40714D01*
X48505Y-40686D01*
X48524Y-40629D01*
X48524Y-40571D01*
X48505Y-40514D01*
X48486Y-40486D01*
X48448Y-40457D01*
X48371Y-40429D01*
X48333Y-40400D01*
X48314Y-40371D01*
X48295Y-40314D01*
X48295Y-40257D01*
X48314Y-40200D01*
X48333Y-40171D01*
X48371Y-40143D01*
X48467Y-40143D01*
X48524Y-40171D01*
X48657Y-40143D02*
X48905Y-40143D01*
X48771Y-40371D01*
X48829Y-40371D01*
X48867Y-40400D01*
X48886Y-40429D01*
X48905Y-40486D01*
X48905Y-40629D01*
X48886Y-40686D01*
X48867Y-40714D01*
X48829Y-40743D01*
X48714Y-40743D01*
X48676Y-40714D01*
X48657Y-40686D01*
X48124Y-41271D02*
X48086Y-41243D01*
X48029Y-41243D01*
X47971Y-41271D01*
X47933Y-41329D01*
X47914Y-41386D01*
X47895Y-41500D01*
X47895Y-41586D01*
X47914Y-41700D01*
X47933Y-41757D01*
X47971Y-41814D01*
X48029Y-41843D01*
X48067Y-41843D01*
X48124Y-41814D01*
X48143Y-41786D01*
X48143Y-41586D01*
X48067Y-41586D01*
X48295Y-41814D02*
X48352Y-41843D01*
X48448Y-41843D01*
X48486Y-41814D01*
X48505Y-41786D01*
X48524Y-41729D01*
X48524Y-41671D01*
X48505Y-41614D01*
X48486Y-41586D01*
X48448Y-41557D01*
X48371Y-41529D01*
X48333Y-41500D01*
X48314Y-41471D01*
X48295Y-41414D01*
X48295Y-41357D01*
X48314Y-41300D01*
X48333Y-41271D01*
X48371Y-41243D01*
X48467Y-41243D01*
X48524Y-41271D01*
X48657Y-41243D02*
X48905Y-41243D01*
X48771Y-41471D01*
X48829Y-41471D01*
X48867Y-41500D01*
X48886Y-41529D01*
X48905Y-41586D01*
X48905Y-41729D01*
X48886Y-41786D01*
X48867Y-41814D01*
X48829Y-41843D01*
X48714Y-41843D01*
X48676Y-41814D01*
X48657Y-41786D01*
X48124Y-39171D02*
X48086Y-39143D01*
X48029Y-39143D01*
X47971Y-39171D01*
X47933Y-39229D01*
X47914Y-39286D01*
X47895Y-39400D01*
X47895Y-39486D01*
X47914Y-39600D01*
X47933Y-39657D01*
X47971Y-39714D01*
X48029Y-39743D01*
X48067Y-39743D01*
X48124Y-39714D01*
X48143Y-39686D01*
X48143Y-39486D01*
X48067Y-39486D01*
X48295Y-39714D02*
X48352Y-39743D01*
X48448Y-39743D01*
X48486Y-39714D01*
X48505Y-39686D01*
X48524Y-39629D01*
X48524Y-39571D01*
X48505Y-39514D01*
X48486Y-39486D01*
X48448Y-39457D01*
X48371Y-39429D01*
X48333Y-39400D01*
X48314Y-39371D01*
X48295Y-39314D01*
X48295Y-39257D01*
X48314Y-39200D01*
X48333Y-39171D01*
X48371Y-39143D01*
X48467Y-39143D01*
X48524Y-39171D01*
X48657Y-39143D02*
X48905Y-39143D01*
X48771Y-39371D01*
X48829Y-39371D01*
X48867Y-39400D01*
X48886Y-39429D01*
X48905Y-39486D01*
X48905Y-39629D01*
X48886Y-39686D01*
X48867Y-39714D01*
X48829Y-39743D01*
X48714Y-39743D01*
X48676Y-39714D01*
X48657Y-39686D01*
G54D15*
X47850Y-28383D02*
X48184Y-28383D01*
X47784Y-28583D02*
X48017Y-27883D01*
X48250Y-28583D01*
X48384Y-27883D02*
X48784Y-27883D01*
X48584Y-28583D02*
X48584Y-27883D01*
X49017Y-28583D02*
X49017Y-27883D01*
X49250Y-28383D01*
X49483Y-27883D01*
X49483Y-28583D01*
X49817Y-28217D02*
X50050Y-28217D01*
X50150Y-28583D02*
X49817Y-28583D01*
X49817Y-27883D01*
X50150Y-27883D01*
X50816Y-27917D02*
X50750Y-27883D01*
X50650Y-27883D01*
X50550Y-27917D01*
X50483Y-27983D01*
X50450Y-28050D01*
X50416Y-28183D01*
X50416Y-28283D01*
X50450Y-28417D01*
X50483Y-28483D01*
X50550Y-28550D01*
X50650Y-28583D01*
X50716Y-28583D01*
X50816Y-28550D01*
X50850Y-28517D01*
X50850Y-28283D01*
X50716Y-28283D01*
X51116Y-28383D02*
X51450Y-28383D01*
X51050Y-28583D02*
X51283Y-27883D01*
X51516Y-28583D01*
X51683Y-27883D02*
X52116Y-27883D01*
X51883Y-28150D01*
X51983Y-28150D01*
X52050Y-28183D01*
X52083Y-28217D01*
X52116Y-28283D01*
X52116Y-28450D01*
X52083Y-28517D01*
X52050Y-28550D01*
X51983Y-28583D01*
X51783Y-28583D01*
X51716Y-28550D01*
X51683Y-28517D01*
X52383Y-27950D02*
X52417Y-27917D01*
X52483Y-27883D01*
X52650Y-27883D01*
X52717Y-27917D01*
X52750Y-27950D01*
X52783Y-28017D01*
X52783Y-28083D01*
X52750Y-28183D01*
X52350Y-28583D01*
X52783Y-28583D01*
X53084Y-28317D02*
X53617Y-28317D01*
X53951Y-28583D02*
X53951Y-27883D01*
X54217Y-27883D01*
X54284Y-27917D01*
X54317Y-27950D01*
X54351Y-28017D01*
X54351Y-28117D01*
X54317Y-28183D01*
X54284Y-28217D01*
X54217Y-28250D01*
X53951Y-28250D01*
G54D16*
X63140Y-47076D02*
X63164Y-47019D01*
X63188Y-47000D01*
X63236Y-46981D01*
X63307Y-46981D01*
X63355Y-47000D01*
X63379Y-47019D01*
X63402Y-47057D01*
X63402Y-47210D01*
X62902Y-47210D01*
X62902Y-47076D01*
X62926Y-47038D01*
X62950Y-47019D01*
X62998Y-47000D01*
X63045Y-47000D01*
X63093Y-47019D01*
X63117Y-47038D01*
X63140Y-47076D01*
X63140Y-47210D01*
X63260Y-46829D02*
X63260Y-46638D01*
X63402Y-46867D02*
X62902Y-46734D01*
X63402Y-46600D01*
X62902Y-46524D02*
X62902Y-46295D01*
X63402Y-46410D02*
X62902Y-46410D01*
X63069Y-45990D02*
X63402Y-45990D01*
X62879Y-46086D02*
X63236Y-46181D01*
X63236Y-45933D01*
X62950Y-45800D02*
X62926Y-45781D01*
X62902Y-45743D01*
X62902Y-45647D01*
X62926Y-45609D01*
X62950Y-45590D01*
X62998Y-45571D01*
X63045Y-45571D01*
X63117Y-45590D01*
X63402Y-45819D01*
X63402Y-45571D01*
X59602Y-46647D02*
X59602Y-46876D01*
X59602Y-46762D02*
X59102Y-46762D01*
X59174Y-46800D01*
X59221Y-46838D01*
X59245Y-46876D01*
X59102Y-46400D02*
X59102Y-46361D01*
X59126Y-46323D01*
X59150Y-46304D01*
X59198Y-46285D01*
X59293Y-46266D01*
X59412Y-46266D01*
X59507Y-46285D01*
X59555Y-46304D01*
X59579Y-46323D01*
X59602Y-46361D01*
X59602Y-46400D01*
X59579Y-46438D01*
X59555Y-46457D01*
X59507Y-46476D01*
X59412Y-46495D01*
X59293Y-46495D01*
X59198Y-46476D01*
X59150Y-46457D01*
X59126Y-46438D01*
X59102Y-46400D01*
X59102Y-46152D02*
X59602Y-46019D01*
X59102Y-45885D01*
X62525Y-33507D02*
X62499Y-33483D01*
X62473Y-33435D01*
X62473Y-33316D01*
X62499Y-33269D01*
X62525Y-33245D01*
X62577Y-33221D01*
X62630Y-33221D01*
X62708Y-33245D01*
X63023Y-33531D01*
X63023Y-33221D01*
X62525Y-33031D02*
X62499Y-33007D01*
X62473Y-32959D01*
X62473Y-32840D01*
X62499Y-32793D01*
X62525Y-32769D01*
X62577Y-32745D01*
X62630Y-32745D01*
X62708Y-32769D01*
X63023Y-33055D01*
X63023Y-32745D01*
X62473Y-32436D02*
X62473Y-32388D01*
X62499Y-32340D01*
X62525Y-32317D01*
X62577Y-32293D01*
X62682Y-32269D01*
X62813Y-32269D01*
X62918Y-32293D01*
X62970Y-32317D01*
X62996Y-32340D01*
X63023Y-32388D01*
X63023Y-32436D01*
X62996Y-32483D01*
X62970Y-32507D01*
X62918Y-32531D01*
X62813Y-32555D01*
X62682Y-32555D01*
X62577Y-32531D01*
X62525Y-32507D01*
X62499Y-32483D01*
X62473Y-32436D01*
X62656Y-31841D02*
X63023Y-31841D01*
X62656Y-32055D02*
X62944Y-32055D01*
X62996Y-32031D01*
X63023Y-31984D01*
X63023Y-31912D01*
X62996Y-31864D01*
X62970Y-31841D01*
X63023Y-31603D02*
X62473Y-31603D01*
X62735Y-31603D02*
X62735Y-31317D01*
X63023Y-31317D02*
X62473Y-31317D01*
X58858Y-41352D02*
X58915Y-41371D01*
X58934Y-41390D01*
X58953Y-41429D01*
X58953Y-41486D01*
X58934Y-41524D01*
X58915Y-41543D01*
X58877Y-41562D01*
X58724Y-41562D01*
X58724Y-41162D01*
X58858Y-41162D01*
X58896Y-41181D01*
X58915Y-41200D01*
X58934Y-41238D01*
X58934Y-41276D01*
X58915Y-41314D01*
X58896Y-41333D01*
X58858Y-41352D01*
X58724Y-41352D01*
X59353Y-41524D02*
X59334Y-41543D01*
X59277Y-41562D01*
X59239Y-41562D01*
X59181Y-41543D01*
X59143Y-41505D01*
X59124Y-41467D01*
X59105Y-41390D01*
X59105Y-41333D01*
X59124Y-41257D01*
X59143Y-41219D01*
X59181Y-41181D01*
X59239Y-41162D01*
X59277Y-41162D01*
X59334Y-41181D01*
X59353Y-41200D01*
X59486Y-41162D02*
X59734Y-41162D01*
X59600Y-41314D01*
X59658Y-41314D01*
X59696Y-41333D01*
X59715Y-41352D01*
X59734Y-41390D01*
X59734Y-41486D01*
X59715Y-41524D01*
X59696Y-41543D01*
X59658Y-41562D01*
X59543Y-41562D01*
X59505Y-41543D01*
X59486Y-41524D01*
X59867Y-41162D02*
X60115Y-41162D01*
X59981Y-41314D01*
X60039Y-41314D01*
X60077Y-41333D01*
X60096Y-41352D01*
X60115Y-41390D01*
X60115Y-41486D01*
X60096Y-41524D01*
X60077Y-41543D01*
X60039Y-41562D01*
X59924Y-41562D01*
X59886Y-41543D01*
X59867Y-41524D01*
X60248Y-41162D02*
X60515Y-41162D01*
X60343Y-41562D01*
G54D13*
X37148Y-50962D02*
X37396Y-50962D01*
X37262Y-51114D01*
X37320Y-51114D01*
X37358Y-51133D01*
X37377Y-51152D01*
X37396Y-51190D01*
X37396Y-51286D01*
X37377Y-51324D01*
X37358Y-51343D01*
X37320Y-51362D01*
X37205Y-51362D01*
X37167Y-51343D01*
X37148Y-51324D01*
X37567Y-51324D02*
X37586Y-51343D01*
X37567Y-51362D01*
X37548Y-51343D01*
X37567Y-51324D01*
X37567Y-51362D01*
X37948Y-50962D02*
X37757Y-50962D01*
X37738Y-51152D01*
X37757Y-51133D01*
X37795Y-51114D01*
X37891Y-51114D01*
X37929Y-51133D01*
X37948Y-51152D01*
X37967Y-51190D01*
X37967Y-51286D01*
X37948Y-51324D01*
X37929Y-51343D01*
X37891Y-51362D01*
X37795Y-51362D01*
X37757Y-51343D01*
X37738Y-51324D01*
X38138Y-51362D02*
X38138Y-51095D01*
X38138Y-51133D02*
X38157Y-51114D01*
X38195Y-51095D01*
X38253Y-51095D01*
X38291Y-51114D01*
X38310Y-51152D01*
X38310Y-51362D01*
X38310Y-51152D02*
X38329Y-51114D01*
X38367Y-51095D01*
X38424Y-51095D01*
X38462Y-51114D01*
X38481Y-51152D01*
X38481Y-51362D01*
X38671Y-51362D02*
X38671Y-51095D01*
X38671Y-51133D02*
X38690Y-51114D01*
X38728Y-51095D01*
X38786Y-51095D01*
X38824Y-51114D01*
X38843Y-51152D01*
X38843Y-51362D01*
X38843Y-51152D02*
X38862Y-51114D01*
X38900Y-51095D01*
X38957Y-51095D01*
X38995Y-51114D01*
X39014Y-51152D01*
X39014Y-51362D01*
X61448Y-51062D02*
X61696Y-51062D01*
X61562Y-51214D01*
X61620Y-51214D01*
X61658Y-51233D01*
X61677Y-51252D01*
X61696Y-51290D01*
X61696Y-51386D01*
X61677Y-51424D01*
X61658Y-51443D01*
X61620Y-51462D01*
X61505Y-51462D01*
X61467Y-51443D01*
X61448Y-51424D01*
X61867Y-51424D02*
X61886Y-51443D01*
X61867Y-51462D01*
X61848Y-51443D01*
X61867Y-51424D01*
X61867Y-51462D01*
X62248Y-51062D02*
X62057Y-51062D01*
X62038Y-51252D01*
X62057Y-51233D01*
X62095Y-51214D01*
X62191Y-51214D01*
X62229Y-51233D01*
X62248Y-51252D01*
X62267Y-51290D01*
X62267Y-51386D01*
X62248Y-51424D01*
X62229Y-51443D01*
X62191Y-51462D01*
X62095Y-51462D01*
X62057Y-51443D01*
X62038Y-51424D01*
X62438Y-51462D02*
X62438Y-51195D01*
X62438Y-51233D02*
X62457Y-51214D01*
X62495Y-51195D01*
X62553Y-51195D01*
X62591Y-51214D01*
X62610Y-51252D01*
X62610Y-51462D01*
X62610Y-51252D02*
X62629Y-51214D01*
X62667Y-51195D01*
X62724Y-51195D01*
X62762Y-51214D01*
X62781Y-51252D01*
X62781Y-51462D01*
X62971Y-51462D02*
X62971Y-51195D01*
X62971Y-51233D02*
X62990Y-51214D01*
X63028Y-51195D01*
X63086Y-51195D01*
X63124Y-51214D01*
X63143Y-51252D01*
X63143Y-51462D01*
X63143Y-51252D02*
X63162Y-51214D01*
X63200Y-51195D01*
X63257Y-51195D01*
X63295Y-51214D01*
X63314Y-51252D01*
X63314Y-51462D01*
X61448Y-19262D02*
X61696Y-19262D01*
X61562Y-19414D01*
X61620Y-19414D01*
X61658Y-19433D01*
X61677Y-19452D01*
X61696Y-19490D01*
X61696Y-19586D01*
X61677Y-19624D01*
X61658Y-19643D01*
X61620Y-19662D01*
X61505Y-19662D01*
X61467Y-19643D01*
X61448Y-19624D01*
X61867Y-19624D02*
X61886Y-19643D01*
X61867Y-19662D01*
X61848Y-19643D01*
X61867Y-19624D01*
X61867Y-19662D01*
X62248Y-19262D02*
X62057Y-19262D01*
X62038Y-19452D01*
X62057Y-19433D01*
X62095Y-19414D01*
X62191Y-19414D01*
X62229Y-19433D01*
X62248Y-19452D01*
X62267Y-19490D01*
X62267Y-19586D01*
X62248Y-19624D01*
X62229Y-19643D01*
X62191Y-19662D01*
X62095Y-19662D01*
X62057Y-19643D01*
X62038Y-19624D01*
X62438Y-19662D02*
X62438Y-19395D01*
X62438Y-19433D02*
X62457Y-19414D01*
X62495Y-19395D01*
X62553Y-19395D01*
X62591Y-19414D01*
X62610Y-19452D01*
X62610Y-19662D01*
X62610Y-19452D02*
X62629Y-19414D01*
X62667Y-19395D01*
X62724Y-19395D01*
X62762Y-19414D01*
X62781Y-19452D01*
X62781Y-19662D01*
X62971Y-19662D02*
X62971Y-19395D01*
X62971Y-19433D02*
X62990Y-19414D01*
X63028Y-19395D01*
X63086Y-19395D01*
X63124Y-19414D01*
X63143Y-19452D01*
X63143Y-19662D01*
X63143Y-19452D02*
X63162Y-19414D01*
X63200Y-19395D01*
X63257Y-19395D01*
X63295Y-19414D01*
X63314Y-19452D01*
X63314Y-19662D01*
X37148Y-19262D02*
X37396Y-19262D01*
X37262Y-19414D01*
X37320Y-19414D01*
X37358Y-19433D01*
X37377Y-19452D01*
X37396Y-19490D01*
X37396Y-19586D01*
X37377Y-19624D01*
X37358Y-19643D01*
X37320Y-19662D01*
X37205Y-19662D01*
X37167Y-19643D01*
X37148Y-19624D01*
X37567Y-19624D02*
X37586Y-19643D01*
X37567Y-19662D01*
X37548Y-19643D01*
X37567Y-19624D01*
X37567Y-19662D01*
X37948Y-19262D02*
X37757Y-19262D01*
X37738Y-19452D01*
X37757Y-19433D01*
X37795Y-19414D01*
X37891Y-19414D01*
X37929Y-19433D01*
X37948Y-19452D01*
X37967Y-19490D01*
X37967Y-19586D01*
X37948Y-19624D01*
X37929Y-19643D01*
X37891Y-19662D01*
X37795Y-19662D01*
X37757Y-19643D01*
X37738Y-19624D01*
X38138Y-19662D02*
X38138Y-19395D01*
X38138Y-19433D02*
X38157Y-19414D01*
X38195Y-19395D01*
X38253Y-19395D01*
X38291Y-19414D01*
X38310Y-19452D01*
X38310Y-19662D01*
X38310Y-19452D02*
X38329Y-19414D01*
X38367Y-19395D01*
X38424Y-19395D01*
X38462Y-19414D01*
X38481Y-19452D01*
X38481Y-19662D01*
X38671Y-19662D02*
X38671Y-19395D01*
X38671Y-19433D02*
X38690Y-19414D01*
X38728Y-19395D01*
X38786Y-19395D01*
X38824Y-19414D01*
X38843Y-19452D01*
X38843Y-19662D01*
X38843Y-19452D02*
X38862Y-19414D01*
X38900Y-19395D01*
X38957Y-19395D01*
X38995Y-19414D01*
X39014Y-19452D01*
X39014Y-19662D01*
M02*
