M48
;DRILL file {Pcbnew (2012-apr-16-27)-stable} date Ned 20 Lis 2013 22:50:37
;FORMAT={2:4/ absolute / inch / suppress leading zeros}
FMAT,2
INCH,TZ
T1C0.032
T2C0.032
T3C0.039
T4C0.040
T5C0.045
T6C0.051
T7C0.091
T8C0.138
%
G90
G05
M72
T1
X41250Y-45000
X41250Y-48250
X43500Y-48250
X43750Y-30750
X43750Y-33000
X44500Y-38500
X47750Y-48250
X48000Y-31750
X48000Y-40500
X48250Y-42250
X48500Y-38500
X50000Y-31750
X50500Y-37500
X50750Y-40500
X51250Y-21250
X51250Y-26750
X51750Y-42250
X52000Y-17750
X52500Y-37500
X53000Y-18500
X54000Y-19250
X55000Y-20000
X56000Y-20750
T2
X38750Y-50000
X39750Y-50000
X40000Y-29500
X40000Y-35500
X40750Y-50000
X41000Y-29500
X41000Y-35500
X42000Y-29500
X42000Y-35500
X43000Y-29500
X43000Y-35500
X44000Y-29500
X44000Y-35500
X45000Y-29500
X45000Y-35500
X46000Y-29500
X46000Y-35500
X47000Y-29500
X47000Y-35500
X48000Y-29500
X48000Y-35500
X49000Y-29500
X49000Y-35500
X50000Y-29500
X50000Y-35500
X51000Y-29500
X51000Y-35500
X52000Y-29500
X52000Y-35500
X52000Y-49650
X52000Y-50437
X53000Y-29500
X53000Y-35500
X53000Y-49650
X53000Y-50437
X54000Y-29500
X54000Y-35500
X55000Y-29500
X55000Y-35500
X56000Y-29500
X56000Y-35500
X57000Y-29500
X57000Y-35500
X58000Y-29500
X58000Y-35500
X59000Y-29500
X59000Y-35500
X60000Y-49750
X60500Y-42500
X61000Y-49750
X61500Y-41500
X61500Y-42500
T3
X40000Y-24000
X40000Y-25000
X41000Y-24000
X41000Y-25000
X42000Y-24000
X42000Y-25000
X43000Y-24000
X43000Y-25000
X44000Y-24000
X44000Y-25000
X44000Y-45000
X44000Y-46000
X45000Y-24000
X45000Y-25000
X45000Y-39500
X45000Y-40500
X45000Y-41500
X45000Y-45000
X45000Y-46000
X46000Y-24000
X46000Y-25000
X46000Y-39500
X46000Y-40500
X46000Y-41500
X46000Y-45000
X46000Y-46000
X47000Y-24000
X47000Y-25000
X47000Y-39500
X47000Y-40500
X47000Y-41500
X47000Y-45000
X47000Y-46000
X48000Y-24000
X48000Y-25000
X48000Y-45000
X48000Y-46000
X49000Y-24000
X49000Y-25000
T4
X60500Y-44500
X60500Y-48500
X62000Y-44500
X62000Y-48500
T5
X61500Y-29500
X61500Y-35500
T6
X41000Y-51500
X41000Y-53500
X44000Y-51500
X44000Y-53500
X45500Y-51500
X45500Y-53500
X48500Y-51500
X48500Y-53500
T7
X50138Y-51500
X54862Y-51500
T8
X38000Y-17750
X38000Y-53000
X62250Y-17750
X62250Y-53000
T0
M30
