G04 (created by PCBNEW-RS274X (2012-apr-16-27)-stable) date Ned 20 Lis 2013 22:50:24*
G01*
G70*
G90*
%MOIN*%
G04 Gerber Fmt 3.4, Leading zero omitted, Abs format*
%FSLAX34Y34*%
G04 APERTURE LIST*
%ADD10C,0.006000*%
%ADD11C,0.015000*%
%ADD12C,0.005000*%
%ADD13C,0.004700*%
%ADD14C,0.003000*%
%ADD15C,0.011800*%
G04 APERTURE END LIST*
G54D10*
G54D11*
X36000Y-55000D02*
X64250Y-55000D01*
X36000Y-15750D02*
X64250Y-15750D01*
X64250Y-55000D02*
X64250Y-15750D01*
X36000Y-55000D02*
X36000Y-15750D01*
G54D12*
X42200Y-31700D02*
X42400Y-32000D01*
X42200Y-31000D02*
X42200Y-32025D01*
X42200Y-32025D02*
X42800Y-32025D01*
X42800Y-32025D02*
X42800Y-31000D01*
X42800Y-31000D02*
X42200Y-31000D01*
X57550Y-44200D02*
X57250Y-44400D01*
X58250Y-44200D02*
X57225Y-44200D01*
X57225Y-44200D02*
X57225Y-44800D01*
X57225Y-44800D02*
X58250Y-44800D01*
X58250Y-44800D02*
X58250Y-44200D01*
X58050Y-49450D02*
X57750Y-49650D01*
X58750Y-49450D02*
X57725Y-49450D01*
X57725Y-49450D02*
X57725Y-50050D01*
X57725Y-50050D02*
X58750Y-50050D01*
X58750Y-50050D02*
X58750Y-49450D01*
X59050Y-44200D02*
X58750Y-44400D01*
X59750Y-44200D02*
X58725Y-44200D01*
X58725Y-44200D02*
X58725Y-44800D01*
X58725Y-44800D02*
X59750Y-44800D01*
X59750Y-44800D02*
X59750Y-44200D01*
X45450Y-28500D02*
X44550Y-28500D01*
X44550Y-28500D02*
X44550Y-27850D01*
X45450Y-27150D02*
X45450Y-26500D01*
X45450Y-26500D02*
X44550Y-26500D01*
X44550Y-26500D02*
X44550Y-27150D01*
X45450Y-27850D02*
X45450Y-28500D01*
X46450Y-28500D02*
X45550Y-28500D01*
X45550Y-28500D02*
X45550Y-27850D01*
X46450Y-27150D02*
X46450Y-26500D01*
X46450Y-26500D02*
X45550Y-26500D01*
X45550Y-26500D02*
X45550Y-27150D01*
X46450Y-27850D02*
X46450Y-28500D01*
X43450Y-28500D02*
X42550Y-28500D01*
X42550Y-28500D02*
X42550Y-27850D01*
X43450Y-27150D02*
X43450Y-26500D01*
X43450Y-26500D02*
X42550Y-26500D01*
X42550Y-26500D02*
X42550Y-27150D01*
X43450Y-27850D02*
X43450Y-28500D01*
X42450Y-28500D02*
X41550Y-28500D01*
X41550Y-28500D02*
X41550Y-27850D01*
X42450Y-27150D02*
X42450Y-26500D01*
X42450Y-26500D02*
X41550Y-26500D01*
X41550Y-26500D02*
X41550Y-27150D01*
X42450Y-27850D02*
X42450Y-28500D01*
X44450Y-28500D02*
X43550Y-28500D01*
X43550Y-28500D02*
X43550Y-27850D01*
X44450Y-27150D02*
X44450Y-26500D01*
X44450Y-26500D02*
X43550Y-26500D01*
X43550Y-26500D02*
X43550Y-27150D01*
X44450Y-27850D02*
X44450Y-28500D01*
X41450Y-28500D02*
X40550Y-28500D01*
X40550Y-28500D02*
X40550Y-27850D01*
X41450Y-27150D02*
X41450Y-26500D01*
X41450Y-26500D02*
X40550Y-26500D01*
X40550Y-26500D02*
X40550Y-27150D01*
X41450Y-27850D02*
X41450Y-28500D01*
X40450Y-28500D02*
X39550Y-28500D01*
X39550Y-28500D02*
X39550Y-27850D01*
X40450Y-27150D02*
X40450Y-26500D01*
X40450Y-26500D02*
X39550Y-26500D01*
X39550Y-26500D02*
X39550Y-27150D01*
X40450Y-27850D02*
X40450Y-28500D01*
X41450Y-22500D02*
X40550Y-22500D01*
X40550Y-22500D02*
X40550Y-21850D01*
X41450Y-21150D02*
X41450Y-20500D01*
X41450Y-20500D02*
X40550Y-20500D01*
X40550Y-20500D02*
X40550Y-21150D01*
X41450Y-21850D02*
X41450Y-22500D01*
X40450Y-22500D02*
X39550Y-22500D01*
X39550Y-22500D02*
X39550Y-21850D01*
X40450Y-21150D02*
X40450Y-20500D01*
X40450Y-20500D02*
X39550Y-20500D01*
X39550Y-20500D02*
X39550Y-21150D01*
X40450Y-21850D02*
X40450Y-22500D01*
X47450Y-28500D02*
X46550Y-28500D01*
X46550Y-28500D02*
X46550Y-27850D01*
X47450Y-27150D02*
X47450Y-26500D01*
X47450Y-26500D02*
X46550Y-26500D01*
X46550Y-26500D02*
X46550Y-27150D01*
X47450Y-27850D02*
X47450Y-28500D01*
X45450Y-22500D02*
X44550Y-22500D01*
X44550Y-22500D02*
X44550Y-21850D01*
X45450Y-21150D02*
X45450Y-20500D01*
X45450Y-20500D02*
X44550Y-20500D01*
X44550Y-20500D02*
X44550Y-21150D01*
X45450Y-21850D02*
X45450Y-22500D01*
X43450Y-22500D02*
X42550Y-22500D01*
X42550Y-22500D02*
X42550Y-21850D01*
X43450Y-21150D02*
X43450Y-20500D01*
X43450Y-20500D02*
X42550Y-20500D01*
X42550Y-20500D02*
X42550Y-21150D01*
X43450Y-21850D02*
X43450Y-22500D01*
X44450Y-22500D02*
X43550Y-22500D01*
X43550Y-22500D02*
X43550Y-21850D01*
X44450Y-21150D02*
X44450Y-20500D01*
X44450Y-20500D02*
X43550Y-20500D01*
X43550Y-20500D02*
X43550Y-21150D01*
X44450Y-21850D02*
X44450Y-22500D01*
X56550Y-22000D02*
X57450Y-22000D01*
X57450Y-22000D02*
X57450Y-22650D01*
X56550Y-23350D02*
X56550Y-24000D01*
X56550Y-24000D02*
X57450Y-24000D01*
X57450Y-24000D02*
X57450Y-23350D01*
X56550Y-22650D02*
X56550Y-22000D01*
X52750Y-27550D02*
X52750Y-28450D01*
X52750Y-28450D02*
X52100Y-28450D01*
X51400Y-27550D02*
X50750Y-27550D01*
X50750Y-27550D02*
X50750Y-28450D01*
X50750Y-28450D02*
X51400Y-28450D01*
X52100Y-27550D02*
X52750Y-27550D01*
X46950Y-44000D02*
X46050Y-44000D01*
X46050Y-44000D02*
X46050Y-43350D01*
X46950Y-42650D02*
X46950Y-42000D01*
X46950Y-42000D02*
X46050Y-42000D01*
X46050Y-42000D02*
X46050Y-42650D01*
X46950Y-43350D02*
X46950Y-44000D01*
X48500Y-46700D02*
X48500Y-45800D01*
X48500Y-45800D02*
X49150Y-45800D01*
X49850Y-46700D02*
X50500Y-46700D01*
X50500Y-46700D02*
X50500Y-45800D01*
X50500Y-45800D02*
X49850Y-45800D01*
X49150Y-46700D02*
X48500Y-46700D01*
X43500Y-45800D02*
X43500Y-46700D01*
X43500Y-46700D02*
X42850Y-46700D01*
X42150Y-45800D02*
X41500Y-45800D01*
X41500Y-45800D02*
X41500Y-46700D01*
X41500Y-46700D02*
X42150Y-46700D01*
X42850Y-45800D02*
X43500Y-45800D01*
X42450Y-22500D02*
X41550Y-22500D01*
X41550Y-22500D02*
X41550Y-21850D01*
X42450Y-21150D02*
X42450Y-20500D01*
X42450Y-20500D02*
X41550Y-20500D01*
X41550Y-20500D02*
X41550Y-21150D01*
X42450Y-21850D02*
X42450Y-22500D01*
X42050Y-52750D02*
X42950Y-52750D01*
X42950Y-52750D02*
X42950Y-53400D01*
X42050Y-54100D02*
X42050Y-54750D01*
X42050Y-54750D02*
X42950Y-54750D01*
X42950Y-54750D02*
X42950Y-54100D01*
X42050Y-53400D02*
X42050Y-52750D01*
X41300Y-32250D02*
X42200Y-32250D01*
X42200Y-32250D02*
X42200Y-32900D01*
X41300Y-33600D02*
X41300Y-34250D01*
X41300Y-34250D02*
X42200Y-34250D01*
X42200Y-34250D02*
X42200Y-33600D01*
X41300Y-32900D02*
X41300Y-32250D01*
G54D13*
X61880Y-45122D02*
X60620Y-45122D01*
X61880Y-47878D02*
X60620Y-47878D01*
X60618Y-46029D02*
X60618Y-45129D01*
X61882Y-45129D02*
X61882Y-46029D01*
X61882Y-46972D02*
X61882Y-47872D01*
X60618Y-47872D02*
X60618Y-46972D01*
G54D12*
X48250Y-33450D02*
X48250Y-32550D01*
X48250Y-32550D02*
X48900Y-32550D01*
X49600Y-33450D02*
X50250Y-33450D01*
X50250Y-33450D02*
X50250Y-32550D01*
X50250Y-32550D02*
X49600Y-32550D01*
X48900Y-33450D02*
X48250Y-33450D01*
G54D13*
X53673Y-46557D02*
X55327Y-46557D01*
X53673Y-49943D02*
X55327Y-49943D01*
X55329Y-49036D02*
X55329Y-49936D01*
X53671Y-49936D02*
X53671Y-49036D01*
X53671Y-47463D02*
X53671Y-46563D01*
X55329Y-46564D02*
X55329Y-47464D01*
G54D12*
X42050Y-50500D02*
X42950Y-50500D01*
X42950Y-50500D02*
X42950Y-51150D01*
X42050Y-51850D02*
X42050Y-52500D01*
X42050Y-52500D02*
X42950Y-52500D01*
X42950Y-52500D02*
X42950Y-51850D01*
X42050Y-51150D02*
X42050Y-50500D01*
X49000Y-37050D02*
X49000Y-37950D01*
X49000Y-37950D02*
X48350Y-37950D01*
X47650Y-37050D02*
X47000Y-37050D01*
X47000Y-37050D02*
X47000Y-37950D01*
X47000Y-37950D02*
X47650Y-37950D01*
X48350Y-37050D02*
X49000Y-37050D01*
X52050Y-32500D02*
X52950Y-32500D01*
X52950Y-32500D02*
X52950Y-33150D01*
X52050Y-33850D02*
X52050Y-34500D01*
X52050Y-34500D02*
X52950Y-34500D01*
X52950Y-34500D02*
X52950Y-33850D01*
X52050Y-33150D02*
X52050Y-32500D01*
X57500Y-34450D02*
X57500Y-33550D01*
X57500Y-33550D02*
X58150Y-33550D01*
X58850Y-34450D02*
X59500Y-34450D01*
X59500Y-34450D02*
X59500Y-33550D01*
X59500Y-33550D02*
X58850Y-33550D01*
X58150Y-34450D02*
X57500Y-34450D01*
X39050Y-37000D02*
X39950Y-37000D01*
X39950Y-37000D02*
X39950Y-37650D01*
X39050Y-38350D02*
X39050Y-39000D01*
X39050Y-39000D02*
X39950Y-39000D01*
X39950Y-39000D02*
X39950Y-38350D01*
X39050Y-37650D02*
X39050Y-37000D01*
X40550Y-37000D02*
X41450Y-37000D01*
X41450Y-37000D02*
X41450Y-37650D01*
X40550Y-38350D02*
X40550Y-39000D01*
X40550Y-39000D02*
X41450Y-39000D01*
X41450Y-39000D02*
X41450Y-38350D01*
X40550Y-37650D02*
X40550Y-37000D01*
X59700Y-47500D02*
X58800Y-47500D01*
X58800Y-47500D02*
X58800Y-46850D01*
X59700Y-46150D02*
X59700Y-45500D01*
X59700Y-45500D02*
X58800Y-45500D01*
X58800Y-45500D02*
X58800Y-46150D01*
X59700Y-46850D02*
X59700Y-47500D01*
X59450Y-38750D02*
X58550Y-38750D01*
X58550Y-38750D02*
X58550Y-38100D01*
X59450Y-37400D02*
X59450Y-36750D01*
X59450Y-36750D02*
X58550Y-36750D01*
X58550Y-36750D02*
X58550Y-37400D01*
X59450Y-38100D02*
X59450Y-38750D01*
X57750Y-23450D02*
X57750Y-22550D01*
X57750Y-22550D02*
X58400Y-22550D01*
X59100Y-23450D02*
X59750Y-23450D01*
X59750Y-23450D02*
X59750Y-22550D01*
X59750Y-22550D02*
X59100Y-22550D01*
X58400Y-23450D02*
X57750Y-23450D01*
X46550Y-50500D02*
X47450Y-50500D01*
X47450Y-50500D02*
X47450Y-51150D01*
X46550Y-51850D02*
X46550Y-52500D01*
X46550Y-52500D02*
X47450Y-52500D01*
X47450Y-52500D02*
X47450Y-51850D01*
X46550Y-51150D02*
X46550Y-50500D01*
X50500Y-44300D02*
X50500Y-45200D01*
X50500Y-45200D02*
X49850Y-45200D01*
X49150Y-44300D02*
X48500Y-44300D01*
X48500Y-44300D02*
X48500Y-45200D01*
X48500Y-45200D02*
X49150Y-45200D01*
X49850Y-44300D02*
X50500Y-44300D01*
X51300Y-39500D02*
X52200Y-39500D01*
X52200Y-39500D02*
X52200Y-40150D01*
X51300Y-40850D02*
X51300Y-41500D01*
X51300Y-41500D02*
X52200Y-41500D01*
X52200Y-41500D02*
X52200Y-40850D01*
X51300Y-40150D02*
X51300Y-39500D01*
X50550Y-32500D02*
X51450Y-32500D01*
X51450Y-32500D02*
X51450Y-33150D01*
X50550Y-33850D02*
X50550Y-34500D01*
X50550Y-34500D02*
X51450Y-34500D01*
X51450Y-34500D02*
X51450Y-33850D01*
X50550Y-33150D02*
X50550Y-32500D01*
X57950Y-47500D02*
X57050Y-47500D01*
X57050Y-47500D02*
X57050Y-46850D01*
X57950Y-46150D02*
X57950Y-45500D01*
X57950Y-45500D02*
X57050Y-45500D01*
X57050Y-45500D02*
X57050Y-46150D01*
X57950Y-46850D02*
X57950Y-47500D01*
X54700Y-41500D02*
X53800Y-41500D01*
X53800Y-41500D02*
X53800Y-40850D01*
X54700Y-40150D02*
X54700Y-39500D01*
X54700Y-39500D02*
X53800Y-39500D01*
X53800Y-39500D02*
X53800Y-40150D01*
X54700Y-40850D02*
X54700Y-41500D01*
X55950Y-41500D02*
X55050Y-41500D01*
X55050Y-41500D02*
X55050Y-40850D01*
X55950Y-40150D02*
X55950Y-39500D01*
X55950Y-39500D02*
X55050Y-39500D01*
X55050Y-39500D02*
X55050Y-40150D01*
X55950Y-40850D02*
X55950Y-41500D01*
X54500Y-42700D02*
X54500Y-41800D01*
X54500Y-41800D02*
X55150Y-41800D01*
X55850Y-42700D02*
X56500Y-42700D01*
X56500Y-42700D02*
X56500Y-41800D01*
X56500Y-41800D02*
X55850Y-41800D01*
X55150Y-42700D02*
X54500Y-42700D01*
X57450Y-38750D02*
X56550Y-38750D01*
X56550Y-38750D02*
X56550Y-38100D01*
X57450Y-37400D02*
X57450Y-36750D01*
X57450Y-36750D02*
X56550Y-36750D01*
X56550Y-36750D02*
X56550Y-37400D01*
X57450Y-38100D02*
X57450Y-38750D01*
X59250Y-47800D02*
X59250Y-48700D01*
X59250Y-48700D02*
X58600Y-48700D01*
X57900Y-47800D02*
X57250Y-47800D01*
X57250Y-47800D02*
X57250Y-48700D01*
X57250Y-48700D02*
X57900Y-48700D01*
X58600Y-47800D02*
X59250Y-47800D01*
X47750Y-49950D02*
X47750Y-49050D01*
X47750Y-49050D02*
X48400Y-49050D01*
X49100Y-49950D02*
X49750Y-49950D01*
X49750Y-49950D02*
X49750Y-49050D01*
X49750Y-49050D02*
X49100Y-49050D01*
X48400Y-49950D02*
X47750Y-49950D01*
X52550Y-39500D02*
X52550Y-39400D01*
X52550Y-39400D02*
X53450Y-39400D01*
X53450Y-39400D02*
X53450Y-39500D01*
X52550Y-39500D02*
X53450Y-39500D01*
X53450Y-39500D02*
X53450Y-40150D01*
X52550Y-40850D02*
X52550Y-41500D01*
X52550Y-41500D02*
X53450Y-41500D01*
X53450Y-41500D02*
X53450Y-40850D01*
X52550Y-40150D02*
X52550Y-39500D01*
X56300Y-39500D02*
X56300Y-39400D01*
X56300Y-39400D02*
X57200Y-39400D01*
X57200Y-39400D02*
X57200Y-39500D01*
X56300Y-39500D02*
X57200Y-39500D01*
X57200Y-39500D02*
X57200Y-40150D01*
X56300Y-40850D02*
X56300Y-41500D01*
X56300Y-41500D02*
X57200Y-41500D01*
X57200Y-41500D02*
X57200Y-40850D01*
X56300Y-40150D02*
X56300Y-39500D01*
G54D14*
X42576Y-32334D02*
X42585Y-32362D01*
X42595Y-32371D01*
X42614Y-32380D01*
X42642Y-32380D01*
X42660Y-32371D01*
X42670Y-32362D01*
X42679Y-32343D01*
X42679Y-32268D01*
X42482Y-32268D01*
X42482Y-32334D01*
X42492Y-32352D01*
X42501Y-32362D01*
X42520Y-32371D01*
X42539Y-32371D01*
X42557Y-32362D01*
X42567Y-32352D01*
X42576Y-32334D01*
X42576Y-32268D01*
X42660Y-32577D02*
X42670Y-32568D01*
X42679Y-32540D01*
X42679Y-32521D01*
X42670Y-32493D01*
X42651Y-32474D01*
X42632Y-32465D01*
X42595Y-32456D01*
X42567Y-32456D01*
X42529Y-32465D01*
X42510Y-32474D01*
X42492Y-32493D01*
X42482Y-32521D01*
X42482Y-32540D01*
X42492Y-32568D01*
X42501Y-32577D01*
X42567Y-32690D02*
X42557Y-32671D01*
X42548Y-32662D01*
X42529Y-32653D01*
X42520Y-32653D01*
X42501Y-32662D01*
X42492Y-32671D01*
X42482Y-32690D01*
X42482Y-32728D01*
X42492Y-32746D01*
X42501Y-32756D01*
X42520Y-32765D01*
X42529Y-32765D01*
X42548Y-32756D01*
X42557Y-32746D01*
X42567Y-32728D01*
X42567Y-32690D01*
X42576Y-32671D01*
X42585Y-32662D01*
X42604Y-32653D01*
X42642Y-32653D01*
X42660Y-32662D01*
X42670Y-32671D01*
X42679Y-32690D01*
X42679Y-32728D01*
X42670Y-32746D01*
X42660Y-32756D01*
X42642Y-32765D01*
X42604Y-32765D01*
X42585Y-32756D01*
X42576Y-32746D01*
X42567Y-32728D01*
X42482Y-32944D02*
X42482Y-32850D01*
X42576Y-32841D01*
X42567Y-32850D01*
X42557Y-32869D01*
X42557Y-32916D01*
X42567Y-32934D01*
X42576Y-32944D01*
X42595Y-32953D01*
X42642Y-32953D01*
X42660Y-32944D01*
X42670Y-32934D01*
X42679Y-32916D01*
X42679Y-32869D01*
X42670Y-32850D01*
X42660Y-32841D01*
X42482Y-33019D02*
X42482Y-33150D01*
X42679Y-33066D01*
X56966Y-44476D02*
X56938Y-44485D01*
X56929Y-44495D01*
X56920Y-44514D01*
X56920Y-44542D01*
X56929Y-44560D01*
X56938Y-44570D01*
X56957Y-44579D01*
X57032Y-44579D01*
X57032Y-44382D01*
X56966Y-44382D01*
X56948Y-44392D01*
X56938Y-44401D01*
X56929Y-44420D01*
X56929Y-44439D01*
X56938Y-44457D01*
X56948Y-44467D01*
X56966Y-44476D01*
X57032Y-44476D01*
X56723Y-44560D02*
X56732Y-44570D01*
X56760Y-44579D01*
X56779Y-44579D01*
X56807Y-44570D01*
X56826Y-44551D01*
X56835Y-44532D01*
X56844Y-44495D01*
X56844Y-44467D01*
X56835Y-44429D01*
X56826Y-44410D01*
X56807Y-44392D01*
X56779Y-44382D01*
X56760Y-44382D01*
X56732Y-44392D01*
X56723Y-44401D01*
X56610Y-44467D02*
X56629Y-44457D01*
X56638Y-44448D01*
X56647Y-44429D01*
X56647Y-44420D01*
X56638Y-44401D01*
X56629Y-44392D01*
X56610Y-44382D01*
X56572Y-44382D01*
X56554Y-44392D01*
X56544Y-44401D01*
X56535Y-44420D01*
X56535Y-44429D01*
X56544Y-44448D01*
X56554Y-44457D01*
X56572Y-44467D01*
X56610Y-44467D01*
X56629Y-44476D01*
X56638Y-44485D01*
X56647Y-44504D01*
X56647Y-44542D01*
X56638Y-44560D01*
X56629Y-44570D01*
X56610Y-44579D01*
X56572Y-44579D01*
X56554Y-44570D01*
X56544Y-44560D01*
X56535Y-44542D01*
X56535Y-44504D01*
X56544Y-44485D01*
X56554Y-44476D01*
X56572Y-44467D01*
X56366Y-44448D02*
X56366Y-44579D01*
X56413Y-44373D02*
X56459Y-44514D01*
X56338Y-44514D01*
X56281Y-44382D02*
X56150Y-44382D01*
X56234Y-44579D01*
X57466Y-49776D02*
X57438Y-49785D01*
X57429Y-49795D01*
X57420Y-49814D01*
X57420Y-49842D01*
X57429Y-49860D01*
X57438Y-49870D01*
X57457Y-49879D01*
X57532Y-49879D01*
X57532Y-49682D01*
X57466Y-49682D01*
X57448Y-49692D01*
X57438Y-49701D01*
X57429Y-49720D01*
X57429Y-49739D01*
X57438Y-49757D01*
X57448Y-49767D01*
X57466Y-49776D01*
X57532Y-49776D01*
X57223Y-49860D02*
X57232Y-49870D01*
X57260Y-49879D01*
X57279Y-49879D01*
X57307Y-49870D01*
X57326Y-49851D01*
X57335Y-49832D01*
X57344Y-49795D01*
X57344Y-49767D01*
X57335Y-49729D01*
X57326Y-49710D01*
X57307Y-49692D01*
X57279Y-49682D01*
X57260Y-49682D01*
X57232Y-49692D01*
X57223Y-49701D01*
X57110Y-49767D02*
X57129Y-49757D01*
X57138Y-49748D01*
X57147Y-49729D01*
X57147Y-49720D01*
X57138Y-49701D01*
X57129Y-49692D01*
X57110Y-49682D01*
X57072Y-49682D01*
X57054Y-49692D01*
X57044Y-49701D01*
X57035Y-49720D01*
X57035Y-49729D01*
X57044Y-49748D01*
X57054Y-49757D01*
X57072Y-49767D01*
X57110Y-49767D01*
X57129Y-49776D01*
X57138Y-49785D01*
X57147Y-49804D01*
X57147Y-49842D01*
X57138Y-49860D01*
X57129Y-49870D01*
X57110Y-49879D01*
X57072Y-49879D01*
X57054Y-49870D01*
X57044Y-49860D01*
X57035Y-49842D01*
X57035Y-49804D01*
X57044Y-49785D01*
X57054Y-49776D01*
X57072Y-49767D01*
X56856Y-49682D02*
X56950Y-49682D01*
X56959Y-49776D01*
X56950Y-49767D01*
X56931Y-49757D01*
X56884Y-49757D01*
X56866Y-49767D01*
X56856Y-49776D01*
X56847Y-49795D01*
X56847Y-49842D01*
X56856Y-49860D01*
X56866Y-49870D01*
X56884Y-49879D01*
X56931Y-49879D01*
X56950Y-49870D01*
X56959Y-49860D01*
X56781Y-49682D02*
X56650Y-49682D01*
X56734Y-49879D01*
X59566Y-43376D02*
X59538Y-43385D01*
X59529Y-43395D01*
X59520Y-43414D01*
X59520Y-43442D01*
X59529Y-43460D01*
X59538Y-43470D01*
X59557Y-43479D01*
X59632Y-43479D01*
X59632Y-43282D01*
X59566Y-43282D01*
X59548Y-43292D01*
X59538Y-43301D01*
X59529Y-43320D01*
X59529Y-43339D01*
X59538Y-43357D01*
X59548Y-43367D01*
X59566Y-43376D01*
X59632Y-43376D01*
X59323Y-43460D02*
X59332Y-43470D01*
X59360Y-43479D01*
X59379Y-43479D01*
X59407Y-43470D01*
X59426Y-43451D01*
X59435Y-43432D01*
X59444Y-43395D01*
X59444Y-43367D01*
X59435Y-43329D01*
X59426Y-43310D01*
X59407Y-43292D01*
X59379Y-43282D01*
X59360Y-43282D01*
X59332Y-43292D01*
X59323Y-43301D01*
X59210Y-43367D02*
X59229Y-43357D01*
X59238Y-43348D01*
X59247Y-43329D01*
X59247Y-43320D01*
X59238Y-43301D01*
X59229Y-43292D01*
X59210Y-43282D01*
X59172Y-43282D01*
X59154Y-43292D01*
X59144Y-43301D01*
X59135Y-43320D01*
X59135Y-43329D01*
X59144Y-43348D01*
X59154Y-43357D01*
X59172Y-43367D01*
X59210Y-43367D01*
X59229Y-43376D01*
X59238Y-43385D01*
X59247Y-43404D01*
X59247Y-43442D01*
X59238Y-43460D01*
X59229Y-43470D01*
X59210Y-43479D01*
X59172Y-43479D01*
X59154Y-43470D01*
X59144Y-43460D01*
X59135Y-43442D01*
X59135Y-43404D01*
X59144Y-43385D01*
X59154Y-43376D01*
X59172Y-43367D01*
X58966Y-43348D02*
X58966Y-43479D01*
X59013Y-43273D02*
X59059Y-43414D01*
X58938Y-43414D01*
X58881Y-43282D02*
X58750Y-43282D01*
X58834Y-43479D01*
G54D12*
X45386Y-27321D02*
X45200Y-27321D01*
X45300Y-27436D01*
X45258Y-27436D01*
X45229Y-27450D01*
X45215Y-27464D01*
X45200Y-27493D01*
X45200Y-27564D01*
X45215Y-27593D01*
X45229Y-27607D01*
X45258Y-27621D01*
X45343Y-27621D01*
X45372Y-27607D01*
X45386Y-27593D01*
X45100Y-27321D02*
X44914Y-27321D01*
X45014Y-27436D01*
X44972Y-27436D01*
X44943Y-27450D01*
X44929Y-27464D01*
X44914Y-27493D01*
X44914Y-27564D01*
X44929Y-27593D01*
X44943Y-27607D01*
X44972Y-27621D01*
X45057Y-27621D01*
X45086Y-27607D01*
X45100Y-27593D01*
X44728Y-27321D02*
X44700Y-27321D01*
X44671Y-27336D01*
X44657Y-27350D01*
X44643Y-27379D01*
X44628Y-27436D01*
X44628Y-27507D01*
X44643Y-27564D01*
X44657Y-27593D01*
X44671Y-27607D01*
X44700Y-27621D01*
X44728Y-27621D01*
X44757Y-27607D01*
X44771Y-27593D01*
X44786Y-27564D01*
X44800Y-27507D01*
X44800Y-27436D01*
X44786Y-27379D01*
X44771Y-27350D01*
X44757Y-27336D01*
X44728Y-27321D01*
X46386Y-27321D02*
X46200Y-27321D01*
X46300Y-27436D01*
X46258Y-27436D01*
X46229Y-27450D01*
X46215Y-27464D01*
X46200Y-27493D01*
X46200Y-27564D01*
X46215Y-27593D01*
X46229Y-27607D01*
X46258Y-27621D01*
X46343Y-27621D01*
X46372Y-27607D01*
X46386Y-27593D01*
X46100Y-27321D02*
X45914Y-27321D01*
X46014Y-27436D01*
X45972Y-27436D01*
X45943Y-27450D01*
X45929Y-27464D01*
X45914Y-27493D01*
X45914Y-27564D01*
X45929Y-27593D01*
X45943Y-27607D01*
X45972Y-27621D01*
X46057Y-27621D01*
X46086Y-27607D01*
X46100Y-27593D01*
X45728Y-27321D02*
X45700Y-27321D01*
X45671Y-27336D01*
X45657Y-27350D01*
X45643Y-27379D01*
X45628Y-27436D01*
X45628Y-27507D01*
X45643Y-27564D01*
X45657Y-27593D01*
X45671Y-27607D01*
X45700Y-27621D01*
X45728Y-27621D01*
X45757Y-27607D01*
X45771Y-27593D01*
X45786Y-27564D01*
X45800Y-27507D01*
X45800Y-27436D01*
X45786Y-27379D01*
X45771Y-27350D01*
X45757Y-27336D01*
X45728Y-27321D01*
X43386Y-27321D02*
X43200Y-27321D01*
X43300Y-27436D01*
X43258Y-27436D01*
X43229Y-27450D01*
X43215Y-27464D01*
X43200Y-27493D01*
X43200Y-27564D01*
X43215Y-27593D01*
X43229Y-27607D01*
X43258Y-27621D01*
X43343Y-27621D01*
X43372Y-27607D01*
X43386Y-27593D01*
X43100Y-27321D02*
X42914Y-27321D01*
X43014Y-27436D01*
X42972Y-27436D01*
X42943Y-27450D01*
X42929Y-27464D01*
X42914Y-27493D01*
X42914Y-27564D01*
X42929Y-27593D01*
X42943Y-27607D01*
X42972Y-27621D01*
X43057Y-27621D01*
X43086Y-27607D01*
X43100Y-27593D01*
X42728Y-27321D02*
X42700Y-27321D01*
X42671Y-27336D01*
X42657Y-27350D01*
X42643Y-27379D01*
X42628Y-27436D01*
X42628Y-27507D01*
X42643Y-27564D01*
X42657Y-27593D01*
X42671Y-27607D01*
X42700Y-27621D01*
X42728Y-27621D01*
X42757Y-27607D01*
X42771Y-27593D01*
X42786Y-27564D01*
X42800Y-27507D01*
X42800Y-27436D01*
X42786Y-27379D01*
X42771Y-27350D01*
X42757Y-27336D01*
X42728Y-27321D01*
X42386Y-27321D02*
X42200Y-27321D01*
X42300Y-27436D01*
X42258Y-27436D01*
X42229Y-27450D01*
X42215Y-27464D01*
X42200Y-27493D01*
X42200Y-27564D01*
X42215Y-27593D01*
X42229Y-27607D01*
X42258Y-27621D01*
X42343Y-27621D01*
X42372Y-27607D01*
X42386Y-27593D01*
X42100Y-27321D02*
X41914Y-27321D01*
X42014Y-27436D01*
X41972Y-27436D01*
X41943Y-27450D01*
X41929Y-27464D01*
X41914Y-27493D01*
X41914Y-27564D01*
X41929Y-27593D01*
X41943Y-27607D01*
X41972Y-27621D01*
X42057Y-27621D01*
X42086Y-27607D01*
X42100Y-27593D01*
X41728Y-27321D02*
X41700Y-27321D01*
X41671Y-27336D01*
X41657Y-27350D01*
X41643Y-27379D01*
X41628Y-27436D01*
X41628Y-27507D01*
X41643Y-27564D01*
X41657Y-27593D01*
X41671Y-27607D01*
X41700Y-27621D01*
X41728Y-27621D01*
X41757Y-27607D01*
X41771Y-27593D01*
X41786Y-27564D01*
X41800Y-27507D01*
X41800Y-27436D01*
X41786Y-27379D01*
X41771Y-27350D01*
X41757Y-27336D01*
X41728Y-27321D01*
X44386Y-27321D02*
X44200Y-27321D01*
X44300Y-27436D01*
X44258Y-27436D01*
X44229Y-27450D01*
X44215Y-27464D01*
X44200Y-27493D01*
X44200Y-27564D01*
X44215Y-27593D01*
X44229Y-27607D01*
X44258Y-27621D01*
X44343Y-27621D01*
X44372Y-27607D01*
X44386Y-27593D01*
X44100Y-27321D02*
X43914Y-27321D01*
X44014Y-27436D01*
X43972Y-27436D01*
X43943Y-27450D01*
X43929Y-27464D01*
X43914Y-27493D01*
X43914Y-27564D01*
X43929Y-27593D01*
X43943Y-27607D01*
X43972Y-27621D01*
X44057Y-27621D01*
X44086Y-27607D01*
X44100Y-27593D01*
X43728Y-27321D02*
X43700Y-27321D01*
X43671Y-27336D01*
X43657Y-27350D01*
X43643Y-27379D01*
X43628Y-27436D01*
X43628Y-27507D01*
X43643Y-27564D01*
X43657Y-27593D01*
X43671Y-27607D01*
X43700Y-27621D01*
X43728Y-27621D01*
X43757Y-27607D01*
X43771Y-27593D01*
X43786Y-27564D01*
X43800Y-27507D01*
X43800Y-27436D01*
X43786Y-27379D01*
X43771Y-27350D01*
X43757Y-27336D01*
X43728Y-27321D01*
X41386Y-27321D02*
X41200Y-27321D01*
X41300Y-27436D01*
X41258Y-27436D01*
X41229Y-27450D01*
X41215Y-27464D01*
X41200Y-27493D01*
X41200Y-27564D01*
X41215Y-27593D01*
X41229Y-27607D01*
X41258Y-27621D01*
X41343Y-27621D01*
X41372Y-27607D01*
X41386Y-27593D01*
X41100Y-27321D02*
X40914Y-27321D01*
X41014Y-27436D01*
X40972Y-27436D01*
X40943Y-27450D01*
X40929Y-27464D01*
X40914Y-27493D01*
X40914Y-27564D01*
X40929Y-27593D01*
X40943Y-27607D01*
X40972Y-27621D01*
X41057Y-27621D01*
X41086Y-27607D01*
X41100Y-27593D01*
X40728Y-27321D02*
X40700Y-27321D01*
X40671Y-27336D01*
X40657Y-27350D01*
X40643Y-27379D01*
X40628Y-27436D01*
X40628Y-27507D01*
X40643Y-27564D01*
X40657Y-27593D01*
X40671Y-27607D01*
X40700Y-27621D01*
X40728Y-27621D01*
X40757Y-27607D01*
X40771Y-27593D01*
X40786Y-27564D01*
X40800Y-27507D01*
X40800Y-27436D01*
X40786Y-27379D01*
X40771Y-27350D01*
X40757Y-27336D01*
X40728Y-27321D01*
X39121Y-27114D02*
X39121Y-27300D01*
X39236Y-27200D01*
X39236Y-27242D01*
X39250Y-27271D01*
X39264Y-27285D01*
X39293Y-27300D01*
X39364Y-27300D01*
X39393Y-27285D01*
X39407Y-27271D01*
X39421Y-27242D01*
X39421Y-27157D01*
X39407Y-27128D01*
X39393Y-27114D01*
X39121Y-27400D02*
X39121Y-27586D01*
X39236Y-27486D01*
X39236Y-27528D01*
X39250Y-27557D01*
X39264Y-27571D01*
X39293Y-27586D01*
X39364Y-27586D01*
X39393Y-27571D01*
X39407Y-27557D01*
X39421Y-27528D01*
X39421Y-27443D01*
X39407Y-27414D01*
X39393Y-27400D01*
X39121Y-27772D02*
X39121Y-27800D01*
X39136Y-27829D01*
X39150Y-27843D01*
X39179Y-27857D01*
X39236Y-27872D01*
X39307Y-27872D01*
X39364Y-27857D01*
X39393Y-27843D01*
X39407Y-27829D01*
X39421Y-27800D01*
X39421Y-27772D01*
X39407Y-27743D01*
X39393Y-27729D01*
X39364Y-27714D01*
X39307Y-27700D01*
X39236Y-27700D01*
X39179Y-27714D01*
X39150Y-27729D01*
X39136Y-27743D01*
X39121Y-27772D01*
X40821Y-19614D02*
X40821Y-19800D01*
X40936Y-19700D01*
X40936Y-19742D01*
X40950Y-19771D01*
X40964Y-19785D01*
X40993Y-19800D01*
X41064Y-19800D01*
X41093Y-19785D01*
X41107Y-19771D01*
X41121Y-19742D01*
X41121Y-19657D01*
X41107Y-19628D01*
X41093Y-19614D01*
X40821Y-19900D02*
X40821Y-20086D01*
X40936Y-19986D01*
X40936Y-20028D01*
X40950Y-20057D01*
X40964Y-20071D01*
X40993Y-20086D01*
X41064Y-20086D01*
X41093Y-20071D01*
X41107Y-20057D01*
X41121Y-20028D01*
X41121Y-19943D01*
X41107Y-19914D01*
X41093Y-19900D01*
X40821Y-20272D02*
X40821Y-20300D01*
X40836Y-20329D01*
X40850Y-20343D01*
X40879Y-20357D01*
X40936Y-20372D01*
X41007Y-20372D01*
X41064Y-20357D01*
X41093Y-20343D01*
X41107Y-20329D01*
X41121Y-20300D01*
X41121Y-20272D01*
X41107Y-20243D01*
X41093Y-20229D01*
X41064Y-20214D01*
X41007Y-20200D01*
X40936Y-20200D01*
X40879Y-20214D01*
X40850Y-20229D01*
X40836Y-20243D01*
X40821Y-20272D01*
X39821Y-19614D02*
X39821Y-19800D01*
X39936Y-19700D01*
X39936Y-19742D01*
X39950Y-19771D01*
X39964Y-19785D01*
X39993Y-19800D01*
X40064Y-19800D01*
X40093Y-19785D01*
X40107Y-19771D01*
X40121Y-19742D01*
X40121Y-19657D01*
X40107Y-19628D01*
X40093Y-19614D01*
X39821Y-19900D02*
X39821Y-20086D01*
X39936Y-19986D01*
X39936Y-20028D01*
X39950Y-20057D01*
X39964Y-20071D01*
X39993Y-20086D01*
X40064Y-20086D01*
X40093Y-20071D01*
X40107Y-20057D01*
X40121Y-20028D01*
X40121Y-19943D01*
X40107Y-19914D01*
X40093Y-19900D01*
X39821Y-20272D02*
X39821Y-20300D01*
X39836Y-20329D01*
X39850Y-20343D01*
X39879Y-20357D01*
X39936Y-20372D01*
X40007Y-20372D01*
X40064Y-20357D01*
X40093Y-20343D01*
X40107Y-20329D01*
X40121Y-20300D01*
X40121Y-20272D01*
X40107Y-20243D01*
X40093Y-20229D01*
X40064Y-20214D01*
X40007Y-20200D01*
X39936Y-20200D01*
X39879Y-20214D01*
X39850Y-20229D01*
X39836Y-20243D01*
X39821Y-20272D01*
X47621Y-27114D02*
X47621Y-27300D01*
X47736Y-27200D01*
X47736Y-27242D01*
X47750Y-27271D01*
X47764Y-27285D01*
X47793Y-27300D01*
X47864Y-27300D01*
X47893Y-27285D01*
X47907Y-27271D01*
X47921Y-27242D01*
X47921Y-27157D01*
X47907Y-27128D01*
X47893Y-27114D01*
X47621Y-27400D02*
X47621Y-27586D01*
X47736Y-27486D01*
X47736Y-27528D01*
X47750Y-27557D01*
X47764Y-27571D01*
X47793Y-27586D01*
X47864Y-27586D01*
X47893Y-27571D01*
X47907Y-27557D01*
X47921Y-27528D01*
X47921Y-27443D01*
X47907Y-27414D01*
X47893Y-27400D01*
X47621Y-27772D02*
X47621Y-27800D01*
X47636Y-27829D01*
X47650Y-27843D01*
X47679Y-27857D01*
X47736Y-27872D01*
X47807Y-27872D01*
X47864Y-27857D01*
X47893Y-27843D01*
X47907Y-27829D01*
X47921Y-27800D01*
X47921Y-27772D01*
X47907Y-27743D01*
X47893Y-27729D01*
X47864Y-27714D01*
X47807Y-27700D01*
X47736Y-27700D01*
X47679Y-27714D01*
X47650Y-27729D01*
X47636Y-27743D01*
X47621Y-27772D01*
X44821Y-19614D02*
X44821Y-19800D01*
X44936Y-19700D01*
X44936Y-19742D01*
X44950Y-19771D01*
X44964Y-19785D01*
X44993Y-19800D01*
X45064Y-19800D01*
X45093Y-19785D01*
X45107Y-19771D01*
X45121Y-19742D01*
X45121Y-19657D01*
X45107Y-19628D01*
X45093Y-19614D01*
X44821Y-19900D02*
X44821Y-20086D01*
X44936Y-19986D01*
X44936Y-20028D01*
X44950Y-20057D01*
X44964Y-20071D01*
X44993Y-20086D01*
X45064Y-20086D01*
X45093Y-20071D01*
X45107Y-20057D01*
X45121Y-20028D01*
X45121Y-19943D01*
X45107Y-19914D01*
X45093Y-19900D01*
X44821Y-20272D02*
X44821Y-20300D01*
X44836Y-20329D01*
X44850Y-20343D01*
X44879Y-20357D01*
X44936Y-20372D01*
X45007Y-20372D01*
X45064Y-20357D01*
X45093Y-20343D01*
X45107Y-20329D01*
X45121Y-20300D01*
X45121Y-20272D01*
X45107Y-20243D01*
X45093Y-20229D01*
X45064Y-20214D01*
X45007Y-20200D01*
X44936Y-20200D01*
X44879Y-20214D01*
X44850Y-20229D01*
X44836Y-20243D01*
X44821Y-20272D01*
X42821Y-19614D02*
X42821Y-19800D01*
X42936Y-19700D01*
X42936Y-19742D01*
X42950Y-19771D01*
X42964Y-19785D01*
X42993Y-19800D01*
X43064Y-19800D01*
X43093Y-19785D01*
X43107Y-19771D01*
X43121Y-19742D01*
X43121Y-19657D01*
X43107Y-19628D01*
X43093Y-19614D01*
X42821Y-19900D02*
X42821Y-20086D01*
X42936Y-19986D01*
X42936Y-20028D01*
X42950Y-20057D01*
X42964Y-20071D01*
X42993Y-20086D01*
X43064Y-20086D01*
X43093Y-20071D01*
X43107Y-20057D01*
X43121Y-20028D01*
X43121Y-19943D01*
X43107Y-19914D01*
X43093Y-19900D01*
X42821Y-20272D02*
X42821Y-20300D01*
X42836Y-20329D01*
X42850Y-20343D01*
X42879Y-20357D01*
X42936Y-20372D01*
X43007Y-20372D01*
X43064Y-20357D01*
X43093Y-20343D01*
X43107Y-20329D01*
X43121Y-20300D01*
X43121Y-20272D01*
X43107Y-20243D01*
X43093Y-20229D01*
X43064Y-20214D01*
X43007Y-20200D01*
X42936Y-20200D01*
X42879Y-20214D01*
X42850Y-20229D01*
X42836Y-20243D01*
X42821Y-20272D01*
X43821Y-19614D02*
X43821Y-19800D01*
X43936Y-19700D01*
X43936Y-19742D01*
X43950Y-19771D01*
X43964Y-19785D01*
X43993Y-19800D01*
X44064Y-19800D01*
X44093Y-19785D01*
X44107Y-19771D01*
X44121Y-19742D01*
X44121Y-19657D01*
X44107Y-19628D01*
X44093Y-19614D01*
X43821Y-19900D02*
X43821Y-20086D01*
X43936Y-19986D01*
X43936Y-20028D01*
X43950Y-20057D01*
X43964Y-20071D01*
X43993Y-20086D01*
X44064Y-20086D01*
X44093Y-20071D01*
X44107Y-20057D01*
X44121Y-20028D01*
X44121Y-19943D01*
X44107Y-19914D01*
X44093Y-19900D01*
X43821Y-20272D02*
X43821Y-20300D01*
X43836Y-20329D01*
X43850Y-20343D01*
X43879Y-20357D01*
X43936Y-20372D01*
X44007Y-20372D01*
X44064Y-20357D01*
X44093Y-20343D01*
X44107Y-20329D01*
X44121Y-20300D01*
X44121Y-20272D01*
X44107Y-20243D01*
X44093Y-20229D01*
X44064Y-20214D01*
X44007Y-20200D01*
X43936Y-20200D01*
X43879Y-20214D01*
X43850Y-20229D01*
X43836Y-20243D01*
X43821Y-20272D01*
X56021Y-22614D02*
X56021Y-22800D01*
X56136Y-22700D01*
X56136Y-22742D01*
X56150Y-22771D01*
X56164Y-22785D01*
X56193Y-22800D01*
X56264Y-22800D01*
X56293Y-22785D01*
X56307Y-22771D01*
X56321Y-22742D01*
X56321Y-22657D01*
X56307Y-22628D01*
X56293Y-22614D01*
X56021Y-22900D02*
X56021Y-23086D01*
X56136Y-22986D01*
X56136Y-23028D01*
X56150Y-23057D01*
X56164Y-23071D01*
X56193Y-23086D01*
X56264Y-23086D01*
X56293Y-23071D01*
X56307Y-23057D01*
X56321Y-23028D01*
X56321Y-22943D01*
X56307Y-22914D01*
X56293Y-22900D01*
X56021Y-23272D02*
X56021Y-23300D01*
X56036Y-23329D01*
X56050Y-23343D01*
X56079Y-23357D01*
X56136Y-23372D01*
X56207Y-23372D01*
X56264Y-23357D01*
X56293Y-23343D01*
X56307Y-23329D01*
X56321Y-23300D01*
X56321Y-23272D01*
X56307Y-23243D01*
X56293Y-23229D01*
X56264Y-23214D01*
X56207Y-23200D01*
X56136Y-23200D01*
X56079Y-23214D01*
X56050Y-23229D01*
X56036Y-23243D01*
X56021Y-23272D01*
X52186Y-27021D02*
X52000Y-27021D01*
X52100Y-27136D01*
X52058Y-27136D01*
X52029Y-27150D01*
X52015Y-27164D01*
X52000Y-27193D01*
X52000Y-27264D01*
X52015Y-27293D01*
X52029Y-27307D01*
X52058Y-27321D01*
X52143Y-27321D01*
X52172Y-27307D01*
X52186Y-27293D01*
X51900Y-27021D02*
X51714Y-27021D01*
X51814Y-27136D01*
X51772Y-27136D01*
X51743Y-27150D01*
X51729Y-27164D01*
X51714Y-27193D01*
X51714Y-27264D01*
X51729Y-27293D01*
X51743Y-27307D01*
X51772Y-27321D01*
X51857Y-27321D01*
X51886Y-27307D01*
X51900Y-27293D01*
X51528Y-27021D02*
X51500Y-27021D01*
X51471Y-27036D01*
X51457Y-27050D01*
X51443Y-27079D01*
X51428Y-27136D01*
X51428Y-27207D01*
X51443Y-27264D01*
X51457Y-27293D01*
X51471Y-27307D01*
X51500Y-27321D01*
X51528Y-27321D01*
X51557Y-27307D01*
X51571Y-27293D01*
X51586Y-27264D01*
X51600Y-27207D01*
X51600Y-27136D01*
X51586Y-27079D01*
X51571Y-27050D01*
X51557Y-27036D01*
X51528Y-27021D01*
X47021Y-42614D02*
X47021Y-42800D01*
X47136Y-42700D01*
X47136Y-42742D01*
X47150Y-42771D01*
X47164Y-42785D01*
X47193Y-42800D01*
X47264Y-42800D01*
X47293Y-42785D01*
X47307Y-42771D01*
X47321Y-42742D01*
X47321Y-42657D01*
X47307Y-42628D01*
X47293Y-42614D01*
X47021Y-42900D02*
X47021Y-43086D01*
X47136Y-42986D01*
X47136Y-43028D01*
X47150Y-43057D01*
X47164Y-43071D01*
X47193Y-43086D01*
X47264Y-43086D01*
X47293Y-43071D01*
X47307Y-43057D01*
X47321Y-43028D01*
X47321Y-42943D01*
X47307Y-42914D01*
X47293Y-42900D01*
X47021Y-43272D02*
X47021Y-43300D01*
X47036Y-43329D01*
X47050Y-43343D01*
X47079Y-43357D01*
X47136Y-43372D01*
X47207Y-43372D01*
X47264Y-43357D01*
X47293Y-43343D01*
X47307Y-43329D01*
X47321Y-43300D01*
X47321Y-43272D01*
X47307Y-43243D01*
X47293Y-43229D01*
X47264Y-43214D01*
X47207Y-43200D01*
X47136Y-43200D01*
X47079Y-43214D01*
X47050Y-43229D01*
X47036Y-43243D01*
X47021Y-43272D01*
X49886Y-46821D02*
X49700Y-46821D01*
X49800Y-46936D01*
X49758Y-46936D01*
X49729Y-46950D01*
X49715Y-46964D01*
X49700Y-46993D01*
X49700Y-47064D01*
X49715Y-47093D01*
X49729Y-47107D01*
X49758Y-47121D01*
X49843Y-47121D01*
X49872Y-47107D01*
X49886Y-47093D01*
X49600Y-46821D02*
X49414Y-46821D01*
X49514Y-46936D01*
X49472Y-46936D01*
X49443Y-46950D01*
X49429Y-46964D01*
X49414Y-46993D01*
X49414Y-47064D01*
X49429Y-47093D01*
X49443Y-47107D01*
X49472Y-47121D01*
X49557Y-47121D01*
X49586Y-47107D01*
X49600Y-47093D01*
X49228Y-46821D02*
X49200Y-46821D01*
X49171Y-46836D01*
X49157Y-46850D01*
X49143Y-46879D01*
X49128Y-46936D01*
X49128Y-47007D01*
X49143Y-47064D01*
X49157Y-47093D01*
X49171Y-47107D01*
X49200Y-47121D01*
X49228Y-47121D01*
X49257Y-47107D01*
X49271Y-47093D01*
X49286Y-47064D01*
X49300Y-47007D01*
X49300Y-46936D01*
X49286Y-46879D01*
X49271Y-46850D01*
X49257Y-46836D01*
X49228Y-46821D01*
X42886Y-45421D02*
X42700Y-45421D01*
X42800Y-45536D01*
X42758Y-45536D01*
X42729Y-45550D01*
X42715Y-45564D01*
X42700Y-45593D01*
X42700Y-45664D01*
X42715Y-45693D01*
X42729Y-45707D01*
X42758Y-45721D01*
X42843Y-45721D01*
X42872Y-45707D01*
X42886Y-45693D01*
X42600Y-45421D02*
X42414Y-45421D01*
X42514Y-45536D01*
X42472Y-45536D01*
X42443Y-45550D01*
X42429Y-45564D01*
X42414Y-45593D01*
X42414Y-45664D01*
X42429Y-45693D01*
X42443Y-45707D01*
X42472Y-45721D01*
X42557Y-45721D01*
X42586Y-45707D01*
X42600Y-45693D01*
X42228Y-45421D02*
X42200Y-45421D01*
X42171Y-45436D01*
X42157Y-45450D01*
X42143Y-45479D01*
X42128Y-45536D01*
X42128Y-45607D01*
X42143Y-45664D01*
X42157Y-45693D01*
X42171Y-45707D01*
X42200Y-45721D01*
X42228Y-45721D01*
X42257Y-45707D01*
X42271Y-45693D01*
X42286Y-45664D01*
X42300Y-45607D01*
X42300Y-45536D01*
X42286Y-45479D01*
X42271Y-45450D01*
X42257Y-45436D01*
X42228Y-45421D01*
X41821Y-19614D02*
X41821Y-19800D01*
X41936Y-19700D01*
X41936Y-19742D01*
X41950Y-19771D01*
X41964Y-19785D01*
X41993Y-19800D01*
X42064Y-19800D01*
X42093Y-19785D01*
X42107Y-19771D01*
X42121Y-19742D01*
X42121Y-19657D01*
X42107Y-19628D01*
X42093Y-19614D01*
X41821Y-19900D02*
X41821Y-20086D01*
X41936Y-19986D01*
X41936Y-20028D01*
X41950Y-20057D01*
X41964Y-20071D01*
X41993Y-20086D01*
X42064Y-20086D01*
X42093Y-20071D01*
X42107Y-20057D01*
X42121Y-20028D01*
X42121Y-19943D01*
X42107Y-19914D01*
X42093Y-19900D01*
X41821Y-20272D02*
X41821Y-20300D01*
X41836Y-20329D01*
X41850Y-20343D01*
X41879Y-20357D01*
X41936Y-20372D01*
X42007Y-20372D01*
X42064Y-20357D01*
X42093Y-20343D01*
X42107Y-20329D01*
X42121Y-20300D01*
X42121Y-20272D01*
X42107Y-20243D01*
X42093Y-20229D01*
X42064Y-20214D01*
X42007Y-20200D01*
X41936Y-20200D01*
X41879Y-20214D01*
X41850Y-20229D01*
X41836Y-20243D01*
X41821Y-20272D01*
X41921Y-54022D02*
X41921Y-53850D01*
X41921Y-53936D02*
X41621Y-53936D01*
X41664Y-53907D01*
X41693Y-53879D01*
X41707Y-53850D01*
X41721Y-54150D02*
X41921Y-54150D01*
X41750Y-54150D02*
X41736Y-54165D01*
X41721Y-54193D01*
X41721Y-54236D01*
X41736Y-54265D01*
X41764Y-54279D01*
X41921Y-54279D01*
X41764Y-54521D02*
X41764Y-54421D01*
X41921Y-54421D02*
X41621Y-54421D01*
X41621Y-54564D01*
X41121Y-33165D02*
X41121Y-32993D01*
X41121Y-33079D02*
X40821Y-33079D01*
X40864Y-33050D01*
X40893Y-33022D01*
X40907Y-32993D01*
X41121Y-33293D02*
X40821Y-33293D01*
X41007Y-33322D02*
X41121Y-33408D01*
X40921Y-33408D02*
X41036Y-33293D01*
X62565Y-46512D02*
X62722Y-46512D01*
X62644Y-46512D02*
X62644Y-46236D01*
X62670Y-46275D01*
X62696Y-46301D01*
X62722Y-46315D01*
X62328Y-46328D02*
X62328Y-46512D01*
X62446Y-46328D02*
X62446Y-46472D01*
X62433Y-46499D01*
X62407Y-46512D01*
X62367Y-46512D01*
X62341Y-46499D01*
X62328Y-46485D01*
X62104Y-46367D02*
X62196Y-46367D01*
X62196Y-46512D02*
X62196Y-46236D01*
X62065Y-46236D01*
G54D15*
X60555Y-47965D02*
X60555Y-48422D01*
X60784Y-48193D02*
X60327Y-48193D01*
G54D12*
X49536Y-32221D02*
X49679Y-32221D01*
X49693Y-32364D01*
X49679Y-32350D01*
X49650Y-32336D01*
X49579Y-32336D01*
X49550Y-32350D01*
X49536Y-32364D01*
X49521Y-32393D01*
X49521Y-32464D01*
X49536Y-32493D01*
X49550Y-32507D01*
X49579Y-32521D01*
X49650Y-32521D01*
X49679Y-32507D01*
X49693Y-32493D01*
X49264Y-32221D02*
X49321Y-32221D01*
X49350Y-32236D01*
X49364Y-32250D01*
X49393Y-32293D01*
X49407Y-32350D01*
X49407Y-32464D01*
X49393Y-32493D01*
X49378Y-32507D01*
X49350Y-32521D01*
X49293Y-32521D01*
X49264Y-32507D01*
X49250Y-32493D01*
X49235Y-32464D01*
X49235Y-32393D01*
X49250Y-32364D01*
X49264Y-32350D01*
X49293Y-32336D01*
X49350Y-32336D01*
X49378Y-32350D01*
X49393Y-32364D01*
X49407Y-32393D01*
X49107Y-32321D02*
X49107Y-32521D01*
X49107Y-32350D02*
X49092Y-32336D01*
X49064Y-32321D01*
X49021Y-32321D01*
X48992Y-32336D01*
X48978Y-32364D01*
X48978Y-32521D01*
X48736Y-32364D02*
X48836Y-32364D01*
X48836Y-32521D02*
X48836Y-32221D01*
X48693Y-32221D01*
X53421Y-48108D02*
X53421Y-48342D01*
X53492Y-47975D02*
X53564Y-48225D01*
X53378Y-48225D01*
X53264Y-48308D02*
X53249Y-48325D01*
X53264Y-48342D01*
X53278Y-48325D01*
X53264Y-48308D01*
X53264Y-48342D01*
X53149Y-47992D02*
X52949Y-47992D01*
X53078Y-48342D01*
X52706Y-48108D02*
X52706Y-48342D01*
X52835Y-48108D02*
X52835Y-48292D01*
X52820Y-48325D01*
X52792Y-48342D01*
X52749Y-48342D01*
X52720Y-48325D01*
X52706Y-48308D01*
X52464Y-48158D02*
X52564Y-48158D01*
X52564Y-48342D02*
X52564Y-47992D01*
X52421Y-47992D01*
G54D15*
X55420Y-46211D02*
X55420Y-46668D01*
X55649Y-46439D02*
X55192Y-46439D01*
G54D12*
X42521Y-49571D02*
X42721Y-49571D01*
X42407Y-49500D02*
X42621Y-49428D01*
X42621Y-49614D01*
X42421Y-49700D02*
X42421Y-49900D01*
X42721Y-49771D01*
X42421Y-50072D02*
X42421Y-50100D01*
X42436Y-50129D01*
X42450Y-50143D01*
X42479Y-50157D01*
X42536Y-50172D01*
X42607Y-50172D01*
X42664Y-50157D01*
X42693Y-50143D01*
X42707Y-50129D01*
X42721Y-50100D01*
X42721Y-50072D01*
X42707Y-50043D01*
X42693Y-50029D01*
X42664Y-50014D01*
X42607Y-50000D01*
X42536Y-50000D01*
X42479Y-50014D01*
X42450Y-50029D01*
X42436Y-50043D01*
X42421Y-50072D01*
X48386Y-36621D02*
X48200Y-36621D01*
X48300Y-36736D01*
X48258Y-36736D01*
X48229Y-36750D01*
X48215Y-36764D01*
X48200Y-36793D01*
X48200Y-36864D01*
X48215Y-36893D01*
X48229Y-36907D01*
X48258Y-36921D01*
X48343Y-36921D01*
X48372Y-36907D01*
X48386Y-36893D01*
X48100Y-36621D02*
X47914Y-36621D01*
X48014Y-36736D01*
X47972Y-36736D01*
X47943Y-36750D01*
X47929Y-36764D01*
X47914Y-36793D01*
X47914Y-36864D01*
X47929Y-36893D01*
X47943Y-36907D01*
X47972Y-36921D01*
X48057Y-36921D01*
X48086Y-36907D01*
X48100Y-36893D01*
X47728Y-36621D02*
X47700Y-36621D01*
X47671Y-36636D01*
X47657Y-36650D01*
X47643Y-36679D01*
X47628Y-36736D01*
X47628Y-36807D01*
X47643Y-36864D01*
X47657Y-36893D01*
X47671Y-36907D01*
X47700Y-36921D01*
X47728Y-36921D01*
X47757Y-36907D01*
X47771Y-36893D01*
X47786Y-36864D01*
X47800Y-36807D01*
X47800Y-36736D01*
X47786Y-36679D01*
X47771Y-36650D01*
X47757Y-36636D01*
X47728Y-36621D01*
X52721Y-31479D02*
X52721Y-31307D01*
X52721Y-31393D02*
X52421Y-31393D01*
X52464Y-31364D01*
X52493Y-31336D01*
X52507Y-31307D01*
X52550Y-31650D02*
X52536Y-31622D01*
X52521Y-31607D01*
X52493Y-31593D01*
X52479Y-31593D01*
X52450Y-31607D01*
X52436Y-31622D01*
X52421Y-31650D01*
X52421Y-31707D01*
X52436Y-31736D01*
X52450Y-31750D01*
X52479Y-31765D01*
X52493Y-31765D01*
X52521Y-31750D01*
X52536Y-31736D01*
X52550Y-31707D01*
X52550Y-31650D01*
X52564Y-31622D01*
X52579Y-31607D01*
X52607Y-31593D01*
X52664Y-31593D01*
X52693Y-31607D01*
X52707Y-31622D01*
X52721Y-31650D01*
X52721Y-31707D01*
X52707Y-31736D01*
X52693Y-31750D01*
X52664Y-31765D01*
X52607Y-31765D01*
X52579Y-31750D01*
X52564Y-31736D01*
X52550Y-31707D01*
X52521Y-31893D02*
X52821Y-31893D01*
X52536Y-31893D02*
X52521Y-31922D01*
X52521Y-31979D01*
X52536Y-32008D01*
X52550Y-32022D01*
X52579Y-32036D01*
X52664Y-32036D01*
X52693Y-32022D01*
X52707Y-32008D01*
X52721Y-31979D01*
X52721Y-31922D01*
X52707Y-31893D01*
X52564Y-32264D02*
X52564Y-32164D01*
X52721Y-32164D02*
X52421Y-32164D01*
X52421Y-32307D01*
X58793Y-33321D02*
X58736Y-33321D01*
X58708Y-33307D01*
X58693Y-33293D01*
X58665Y-33250D01*
X58650Y-33193D01*
X58650Y-33079D01*
X58665Y-33050D01*
X58679Y-33036D01*
X58708Y-33021D01*
X58765Y-33021D01*
X58793Y-33036D01*
X58808Y-33050D01*
X58822Y-33079D01*
X58822Y-33150D01*
X58808Y-33179D01*
X58793Y-33193D01*
X58765Y-33207D01*
X58708Y-33207D01*
X58679Y-33193D01*
X58665Y-33179D01*
X58650Y-33150D01*
X58522Y-33293D02*
X58507Y-33307D01*
X58522Y-33321D01*
X58536Y-33307D01*
X58522Y-33293D01*
X58522Y-33321D01*
X58221Y-33321D02*
X58393Y-33321D01*
X58307Y-33321D02*
X58307Y-33021D01*
X58336Y-33064D01*
X58364Y-33093D01*
X58393Y-33107D01*
X58093Y-33321D02*
X58093Y-33021D01*
X58064Y-33207D02*
X57978Y-33321D01*
X57978Y-33121D02*
X58093Y-33236D01*
X38921Y-37965D02*
X38921Y-37793D01*
X38921Y-37879D02*
X38621Y-37879D01*
X38664Y-37850D01*
X38693Y-37822D01*
X38707Y-37793D01*
X38921Y-38093D02*
X38621Y-38093D01*
X38807Y-38122D02*
X38921Y-38208D01*
X38721Y-38208D02*
X38836Y-38093D01*
X41721Y-37965D02*
X41721Y-37793D01*
X41721Y-37879D02*
X41421Y-37879D01*
X41464Y-37850D01*
X41493Y-37822D01*
X41507Y-37793D01*
X41721Y-38093D02*
X41421Y-38093D01*
X41607Y-38122D02*
X41721Y-38208D01*
X41521Y-38208D02*
X41636Y-38093D01*
X58521Y-46371D02*
X58721Y-46371D01*
X58407Y-46300D02*
X58621Y-46228D01*
X58621Y-46414D01*
X58421Y-46500D02*
X58421Y-46700D01*
X58721Y-46571D01*
X58421Y-46872D02*
X58421Y-46900D01*
X58436Y-46929D01*
X58450Y-46943D01*
X58479Y-46957D01*
X58536Y-46972D01*
X58607Y-46972D01*
X58664Y-46957D01*
X58693Y-46943D01*
X58707Y-46929D01*
X58721Y-46900D01*
X58721Y-46872D01*
X58707Y-46843D01*
X58693Y-46829D01*
X58664Y-46814D01*
X58607Y-46800D01*
X58536Y-46800D01*
X58479Y-46814D01*
X58450Y-46829D01*
X58436Y-46843D01*
X58421Y-46872D01*
X60121Y-37765D02*
X60121Y-37593D01*
X60121Y-37679D02*
X59821Y-37679D01*
X59864Y-37650D01*
X59893Y-37622D01*
X59907Y-37593D01*
X60121Y-37893D02*
X59821Y-37893D01*
X60007Y-37922D02*
X60121Y-38008D01*
X59921Y-38008D02*
X60036Y-37893D01*
X59186Y-23621D02*
X59000Y-23621D01*
X59100Y-23736D01*
X59058Y-23736D01*
X59029Y-23750D01*
X59015Y-23764D01*
X59000Y-23793D01*
X59000Y-23864D01*
X59015Y-23893D01*
X59029Y-23907D01*
X59058Y-23921D01*
X59143Y-23921D01*
X59172Y-23907D01*
X59186Y-23893D01*
X58900Y-23621D02*
X58714Y-23621D01*
X58814Y-23736D01*
X58772Y-23736D01*
X58743Y-23750D01*
X58729Y-23764D01*
X58714Y-23793D01*
X58714Y-23864D01*
X58729Y-23893D01*
X58743Y-23907D01*
X58772Y-23921D01*
X58857Y-23921D01*
X58886Y-23907D01*
X58900Y-23893D01*
X58528Y-23621D02*
X58500Y-23621D01*
X58471Y-23636D01*
X58457Y-23650D01*
X58443Y-23679D01*
X58428Y-23736D01*
X58428Y-23807D01*
X58443Y-23864D01*
X58457Y-23893D01*
X58471Y-23907D01*
X58500Y-23921D01*
X58528Y-23921D01*
X58557Y-23907D01*
X58571Y-23893D01*
X58586Y-23864D01*
X58600Y-23807D01*
X58600Y-23736D01*
X58586Y-23679D01*
X58571Y-23650D01*
X58557Y-23636D01*
X58528Y-23621D01*
X46921Y-49571D02*
X47121Y-49571D01*
X46807Y-49500D02*
X47021Y-49428D01*
X47021Y-49614D01*
X46821Y-49700D02*
X46821Y-49900D01*
X47121Y-49771D01*
X46821Y-50072D02*
X46821Y-50100D01*
X46836Y-50129D01*
X46850Y-50143D01*
X46879Y-50157D01*
X46936Y-50172D01*
X47007Y-50172D01*
X47064Y-50157D01*
X47093Y-50143D01*
X47107Y-50129D01*
X47121Y-50100D01*
X47121Y-50072D01*
X47107Y-50043D01*
X47093Y-50029D01*
X47064Y-50014D01*
X47007Y-50000D01*
X46936Y-50000D01*
X46879Y-50014D01*
X46850Y-50029D01*
X46836Y-50043D01*
X46821Y-50072D01*
X49886Y-43921D02*
X49700Y-43921D01*
X49800Y-44036D01*
X49758Y-44036D01*
X49729Y-44050D01*
X49715Y-44064D01*
X49700Y-44093D01*
X49700Y-44164D01*
X49715Y-44193D01*
X49729Y-44207D01*
X49758Y-44221D01*
X49843Y-44221D01*
X49872Y-44207D01*
X49886Y-44193D01*
X49600Y-43921D02*
X49414Y-43921D01*
X49514Y-44036D01*
X49472Y-44036D01*
X49443Y-44050D01*
X49429Y-44064D01*
X49414Y-44093D01*
X49414Y-44164D01*
X49429Y-44193D01*
X49443Y-44207D01*
X49472Y-44221D01*
X49557Y-44221D01*
X49586Y-44207D01*
X49600Y-44193D01*
X49228Y-43921D02*
X49200Y-43921D01*
X49171Y-43936D01*
X49157Y-43950D01*
X49143Y-43979D01*
X49128Y-44036D01*
X49128Y-44107D01*
X49143Y-44164D01*
X49157Y-44193D01*
X49171Y-44207D01*
X49200Y-44221D01*
X49228Y-44221D01*
X49257Y-44207D01*
X49271Y-44193D01*
X49286Y-44164D01*
X49300Y-44107D01*
X49300Y-44036D01*
X49286Y-43979D01*
X49271Y-43950D01*
X49257Y-43936D01*
X49228Y-43921D01*
X51621Y-38414D02*
X51621Y-38600D01*
X51736Y-38500D01*
X51736Y-38542D01*
X51750Y-38571D01*
X51764Y-38585D01*
X51793Y-38600D01*
X51864Y-38600D01*
X51893Y-38585D01*
X51907Y-38571D01*
X51921Y-38542D01*
X51921Y-38457D01*
X51907Y-38428D01*
X51893Y-38414D01*
X51621Y-38700D02*
X51621Y-38886D01*
X51736Y-38786D01*
X51736Y-38828D01*
X51750Y-38857D01*
X51764Y-38871D01*
X51793Y-38886D01*
X51864Y-38886D01*
X51893Y-38871D01*
X51907Y-38857D01*
X51921Y-38828D01*
X51921Y-38743D01*
X51907Y-38714D01*
X51893Y-38700D01*
X51621Y-39072D02*
X51621Y-39100D01*
X51636Y-39129D01*
X51650Y-39143D01*
X51679Y-39157D01*
X51736Y-39172D01*
X51807Y-39172D01*
X51864Y-39157D01*
X51893Y-39143D01*
X51907Y-39129D01*
X51921Y-39100D01*
X51921Y-39072D01*
X51907Y-39043D01*
X51893Y-39029D01*
X51864Y-39014D01*
X51807Y-39000D01*
X51736Y-39000D01*
X51679Y-39014D01*
X51650Y-39029D01*
X51636Y-39043D01*
X51621Y-39072D01*
X51121Y-31479D02*
X51121Y-31307D01*
X51121Y-31393D02*
X50821Y-31393D01*
X50864Y-31364D01*
X50893Y-31336D01*
X50907Y-31307D01*
X50950Y-31650D02*
X50936Y-31622D01*
X50921Y-31607D01*
X50893Y-31593D01*
X50879Y-31593D01*
X50850Y-31607D01*
X50836Y-31622D01*
X50821Y-31650D01*
X50821Y-31707D01*
X50836Y-31736D01*
X50850Y-31750D01*
X50879Y-31765D01*
X50893Y-31765D01*
X50921Y-31750D01*
X50936Y-31736D01*
X50950Y-31707D01*
X50950Y-31650D01*
X50964Y-31622D01*
X50979Y-31607D01*
X51007Y-31593D01*
X51064Y-31593D01*
X51093Y-31607D01*
X51107Y-31622D01*
X51121Y-31650D01*
X51121Y-31707D01*
X51107Y-31736D01*
X51093Y-31750D01*
X51064Y-31765D01*
X51007Y-31765D01*
X50979Y-31750D01*
X50964Y-31736D01*
X50950Y-31707D01*
X50921Y-31893D02*
X51221Y-31893D01*
X50936Y-31893D02*
X50921Y-31922D01*
X50921Y-31979D01*
X50936Y-32008D01*
X50950Y-32022D01*
X50979Y-32036D01*
X51064Y-32036D01*
X51093Y-32022D01*
X51107Y-32008D01*
X51121Y-31979D01*
X51121Y-31922D01*
X51107Y-31893D01*
X50964Y-32264D02*
X50964Y-32164D01*
X51121Y-32164D02*
X50821Y-32164D01*
X50821Y-32307D01*
X56721Y-46321D02*
X56921Y-46321D01*
X56607Y-46250D02*
X56821Y-46178D01*
X56821Y-46364D01*
X56893Y-46478D02*
X56907Y-46493D01*
X56921Y-46478D01*
X56907Y-46464D01*
X56893Y-46478D01*
X56921Y-46478D01*
X56621Y-46593D02*
X56621Y-46793D01*
X56921Y-46664D01*
X56921Y-46907D02*
X56621Y-46907D01*
X56807Y-46936D02*
X56921Y-47022D01*
X56721Y-47022D02*
X56836Y-46907D01*
X54021Y-38714D02*
X54021Y-38657D01*
X54036Y-38628D01*
X54050Y-38614D01*
X54093Y-38585D01*
X54150Y-38571D01*
X54264Y-38571D01*
X54293Y-38585D01*
X54307Y-38600D01*
X54321Y-38628D01*
X54321Y-38685D01*
X54307Y-38714D01*
X54293Y-38728D01*
X54264Y-38743D01*
X54193Y-38743D01*
X54164Y-38728D01*
X54150Y-38714D01*
X54136Y-38685D01*
X54136Y-38628D01*
X54150Y-38600D01*
X54164Y-38585D01*
X54193Y-38571D01*
X54150Y-38914D02*
X54136Y-38886D01*
X54121Y-38871D01*
X54093Y-38857D01*
X54079Y-38857D01*
X54050Y-38871D01*
X54036Y-38886D01*
X54021Y-38914D01*
X54021Y-38971D01*
X54036Y-39000D01*
X54050Y-39014D01*
X54079Y-39029D01*
X54093Y-39029D01*
X54121Y-39014D01*
X54136Y-39000D01*
X54150Y-38971D01*
X54150Y-38914D01*
X54164Y-38886D01*
X54179Y-38871D01*
X54207Y-38857D01*
X54264Y-38857D01*
X54293Y-38871D01*
X54307Y-38886D01*
X54321Y-38914D01*
X54321Y-38971D01*
X54307Y-39000D01*
X54293Y-39014D01*
X54264Y-39029D01*
X54207Y-39029D01*
X54179Y-39014D01*
X54164Y-39000D01*
X54150Y-38971D01*
X55221Y-38714D02*
X55221Y-38657D01*
X55236Y-38628D01*
X55250Y-38614D01*
X55293Y-38585D01*
X55350Y-38571D01*
X55464Y-38571D01*
X55493Y-38585D01*
X55507Y-38600D01*
X55521Y-38628D01*
X55521Y-38685D01*
X55507Y-38714D01*
X55493Y-38728D01*
X55464Y-38743D01*
X55393Y-38743D01*
X55364Y-38728D01*
X55350Y-38714D01*
X55336Y-38685D01*
X55336Y-38628D01*
X55350Y-38600D01*
X55364Y-38585D01*
X55393Y-38571D01*
X55350Y-38914D02*
X55336Y-38886D01*
X55321Y-38871D01*
X55293Y-38857D01*
X55279Y-38857D01*
X55250Y-38871D01*
X55236Y-38886D01*
X55221Y-38914D01*
X55221Y-38971D01*
X55236Y-39000D01*
X55250Y-39014D01*
X55279Y-39029D01*
X55293Y-39029D01*
X55321Y-39014D01*
X55336Y-39000D01*
X55350Y-38971D01*
X55350Y-38914D01*
X55364Y-38886D01*
X55379Y-38871D01*
X55407Y-38857D01*
X55464Y-38857D01*
X55493Y-38871D01*
X55507Y-38886D01*
X55521Y-38914D01*
X55521Y-38971D01*
X55507Y-39000D01*
X55493Y-39014D01*
X55464Y-39029D01*
X55407Y-39029D01*
X55379Y-39014D01*
X55364Y-39000D01*
X55350Y-38971D01*
X56022Y-43050D02*
X56008Y-43036D01*
X55979Y-43021D01*
X55908Y-43021D01*
X55879Y-43036D01*
X55865Y-43050D01*
X55850Y-43079D01*
X55850Y-43107D01*
X55865Y-43150D01*
X56036Y-43321D01*
X55850Y-43321D01*
X55722Y-43293D02*
X55707Y-43307D01*
X55722Y-43321D01*
X55736Y-43307D01*
X55722Y-43293D01*
X55722Y-43321D01*
X55593Y-43050D02*
X55579Y-43036D01*
X55550Y-43021D01*
X55479Y-43021D01*
X55450Y-43036D01*
X55436Y-43050D01*
X55421Y-43079D01*
X55421Y-43107D01*
X55436Y-43150D01*
X55607Y-43321D01*
X55421Y-43321D01*
X55293Y-43321D02*
X55293Y-43021D01*
X55264Y-43207D02*
X55178Y-43321D01*
X55178Y-43121D02*
X55293Y-43236D01*
X57921Y-37765D02*
X57921Y-37593D01*
X57921Y-37679D02*
X57621Y-37679D01*
X57664Y-37650D01*
X57693Y-37622D01*
X57707Y-37593D01*
X57921Y-37893D02*
X57621Y-37893D01*
X57807Y-37922D02*
X57921Y-38008D01*
X57721Y-38008D02*
X57836Y-37893D01*
X56921Y-48521D02*
X57093Y-48521D01*
X57007Y-48521D02*
X57007Y-48221D01*
X57036Y-48264D01*
X57064Y-48293D01*
X57093Y-48307D01*
X56735Y-48221D02*
X56707Y-48221D01*
X56678Y-48236D01*
X56664Y-48250D01*
X56650Y-48279D01*
X56635Y-48336D01*
X56635Y-48407D01*
X56650Y-48464D01*
X56664Y-48493D01*
X56678Y-48507D01*
X56707Y-48521D01*
X56735Y-48521D01*
X56764Y-48507D01*
X56778Y-48493D01*
X56793Y-48464D01*
X56807Y-48407D01*
X56807Y-48336D01*
X56793Y-48279D01*
X56778Y-48250D01*
X56764Y-48236D01*
X56735Y-48221D01*
X56449Y-48221D02*
X56421Y-48221D01*
X56392Y-48236D01*
X56378Y-48250D01*
X56364Y-48279D01*
X56349Y-48336D01*
X56349Y-48407D01*
X56364Y-48464D01*
X56378Y-48493D01*
X56392Y-48507D01*
X56421Y-48521D01*
X56449Y-48521D01*
X56478Y-48507D01*
X56492Y-48493D01*
X56507Y-48464D01*
X56521Y-48407D01*
X56521Y-48336D01*
X56507Y-48279D01*
X56492Y-48250D01*
X56478Y-48236D01*
X56449Y-48221D01*
X56221Y-48521D02*
X56221Y-48221D01*
X56192Y-48407D02*
X56106Y-48521D01*
X56106Y-48321D02*
X56221Y-48436D01*
X48978Y-48921D02*
X49150Y-48921D01*
X49064Y-48921D02*
X49064Y-48621D01*
X49093Y-48664D01*
X49121Y-48693D01*
X49150Y-48707D01*
X48707Y-48621D02*
X48850Y-48621D01*
X48864Y-48764D01*
X48850Y-48750D01*
X48821Y-48736D01*
X48750Y-48736D01*
X48721Y-48750D01*
X48707Y-48764D01*
X48692Y-48793D01*
X48692Y-48864D01*
X48707Y-48893D01*
X48721Y-48907D01*
X48750Y-48921D01*
X48821Y-48921D01*
X48850Y-48907D01*
X48864Y-48893D01*
X48564Y-48921D02*
X48564Y-48621D01*
X48535Y-48807D02*
X48449Y-48921D01*
X48449Y-48721D02*
X48564Y-48836D01*
X52821Y-38357D02*
X52821Y-38543D01*
X52936Y-38443D01*
X52936Y-38485D01*
X52950Y-38514D01*
X52964Y-38528D01*
X52993Y-38543D01*
X53064Y-38543D01*
X53093Y-38528D01*
X53107Y-38514D01*
X53121Y-38485D01*
X53121Y-38400D01*
X53107Y-38371D01*
X53093Y-38357D01*
X53093Y-38671D02*
X53107Y-38686D01*
X53121Y-38671D01*
X53107Y-38657D01*
X53093Y-38671D01*
X53121Y-38671D01*
X52821Y-38943D02*
X52821Y-38886D01*
X52836Y-38857D01*
X52850Y-38843D01*
X52893Y-38814D01*
X52950Y-38800D01*
X53064Y-38800D01*
X53093Y-38814D01*
X53107Y-38829D01*
X53121Y-38857D01*
X53121Y-38914D01*
X53107Y-38943D01*
X53093Y-38957D01*
X53064Y-38972D01*
X52993Y-38972D01*
X52964Y-38957D01*
X52950Y-38943D01*
X52936Y-38914D01*
X52936Y-38857D01*
X52950Y-38829D01*
X52964Y-38814D01*
X52993Y-38800D01*
X52821Y-39058D02*
X53121Y-39158D01*
X52821Y-39258D01*
X57421Y-40157D02*
X57421Y-40343D01*
X57536Y-40243D01*
X57536Y-40285D01*
X57550Y-40314D01*
X57564Y-40328D01*
X57593Y-40343D01*
X57664Y-40343D01*
X57693Y-40328D01*
X57707Y-40314D01*
X57721Y-40285D01*
X57721Y-40200D01*
X57707Y-40171D01*
X57693Y-40157D01*
X57693Y-40471D02*
X57707Y-40486D01*
X57721Y-40471D01*
X57707Y-40457D01*
X57693Y-40471D01*
X57721Y-40471D01*
X57421Y-40743D02*
X57421Y-40686D01*
X57436Y-40657D01*
X57450Y-40643D01*
X57493Y-40614D01*
X57550Y-40600D01*
X57664Y-40600D01*
X57693Y-40614D01*
X57707Y-40629D01*
X57721Y-40657D01*
X57721Y-40714D01*
X57707Y-40743D01*
X57693Y-40757D01*
X57664Y-40772D01*
X57593Y-40772D01*
X57564Y-40757D01*
X57550Y-40743D01*
X57536Y-40714D01*
X57536Y-40657D01*
X57550Y-40629D01*
X57564Y-40614D01*
X57593Y-40600D01*
X57421Y-40858D02*
X57721Y-40958D01*
X57421Y-41058D01*
M02*
