G04 #@! TF.FileFunction,Legend,Top*
%FSLAX46Y46*%
G04 Gerber Fmt 4.6, Leading zero omitted, Abs format (unit mm)*
G04 Created by KiCad (PCBNEW 4.0.5+dfsg1-4) date Wed May 24 13:42:23 2017*
%MOMM*%
%LPD*%
G01*
G04 APERTURE LIST*
%ADD10C,0.150000*%
%ADD11C,0.381000*%
%ADD12C,0.127000*%
%ADD13C,0.254000*%
%ADD14C,0.299720*%
%ADD15C,0.304800*%
%ADD16C,0.152400*%
%ADD17C,0.203200*%
%ADD18C,0.088900*%
G04 APERTURE END LIST*
D10*
D11*
X91440000Y-139700000D02*
X163195000Y-139700000D01*
X91440000Y-40005000D02*
X163195000Y-40005000D01*
X163195000Y-139700000D02*
X163195000Y-40005000D01*
X91440000Y-139700000D02*
X91440000Y-40005000D01*
D12*
X127254000Y-141097000D02*
X139446000Y-141097000D01*
X139446000Y-141097000D02*
X139446000Y-124079000D01*
X139446000Y-124079000D02*
X127254000Y-124079000D01*
X127254000Y-124079000D02*
X127254000Y-141097000D01*
D13*
X125222000Y-95250000D02*
G75*
G03X127508000Y-97536000I2286000J0D01*
G01*
X134112000Y-93472000D02*
X127508000Y-93472000D01*
X127508000Y-97028000D02*
X134112000Y-97028000D01*
X127508000Y-93472000D02*
G75*
G03X125730000Y-95250000I0J-1778000D01*
G01*
X125730000Y-95250000D02*
G75*
G03X127508000Y-97028000I1778000J0D01*
G01*
X135890000Y-95250000D02*
G75*
G03X134112000Y-93472000I-1778000J0D01*
G01*
X134112000Y-97028000D02*
G75*
G03X135890000Y-95250000I0J1778000D01*
G01*
X127508000Y-92964000D02*
G75*
G03X125222000Y-95250000I0J-2286000D01*
G01*
X127508000Y-92964000D02*
X134112000Y-92964000D01*
X134112000Y-97536000D02*
X127508000Y-97536000D01*
X136398000Y-95250000D02*
G75*
G03X134112000Y-92964000I-2286000J0D01*
G01*
X134112000Y-97536000D02*
G75*
G03X136398000Y-95250000I0J2286000D01*
G01*
D14*
X106680000Y-110998000D02*
X106680000Y-120142000D01*
X127000000Y-110998000D02*
X106680000Y-110998000D01*
X127000000Y-110998000D02*
X127000000Y-120142000D01*
X106680000Y-120142000D02*
X127000000Y-120142000D01*
X118110000Y-120142000D02*
X118110000Y-118872000D01*
X118110000Y-118872000D02*
X115570000Y-118872000D01*
X115570000Y-118872000D02*
X115570000Y-120142000D01*
D15*
X96520000Y-57658000D02*
X129540000Y-57658000D01*
X129540000Y-66802000D02*
X96520000Y-66802000D01*
D14*
X129540000Y-66802000D02*
X129540000Y-57658000D01*
X96520000Y-66802000D02*
X96520000Y-57658000D01*
X111760000Y-57658000D02*
X111760000Y-58928000D01*
X111760000Y-58928000D02*
X114300000Y-58928000D01*
X114300000Y-58928000D02*
X114300000Y-57658000D01*
D13*
X151841200Y-125095000D02*
X151841200Y-127635000D01*
D16*
X154586864Y-127340527D02*
G75*
G03X154940000Y-126365000I-1170864J975527D01*
G01*
X154938111Y-126364531D02*
G75*
G03X154553920Y-125354080I-1522111J-469D01*
G01*
X151893853Y-126365034D02*
G75*
G03X152260300Y-127355600I1522147J34D01*
G01*
X152245136Y-125389473D02*
G75*
G03X151892000Y-126365000I1170864J-975527D01*
G01*
X152176834Y-127252155D02*
G75*
G03X153416000Y-127889000I1239166J887155D01*
G01*
X153416801Y-127889000D02*
G75*
G03X154635200Y-127279400I-801J1524000D01*
G01*
X153415558Y-124842794D02*
G75*
G03X152214580Y-125430280I442J-1522206D01*
G01*
X154618564Y-125428829D02*
G75*
G03X153416000Y-124841000I-1202564J-936171D01*
G01*
X153416000Y-127000000D02*
G75*
G03X154051000Y-126365000I0J635000D01*
G01*
X153416000Y-127381000D02*
G75*
G03X154432000Y-126365000I0J1016000D01*
G01*
X153416000Y-125730000D02*
G75*
G03X152781000Y-126365000I0J-635000D01*
G01*
X153416000Y-125349000D02*
G75*
G03X152400000Y-126365000I0J-1016000D01*
G01*
D13*
X151857120Y-127668426D02*
G75*
G03X153416000Y-128397000I1558880J1303426D01*
G01*
X153416975Y-128394460D02*
G75*
G03X155206700Y-127320040I-975J2029460D01*
G01*
X153413448Y-124335614D02*
G75*
G03X151866600Y-125054360I2552J-2029386D01*
G01*
X155179299Y-125355149D02*
G75*
G03X153416000Y-124333000I-1763299J-1009851D01*
G01*
X155205130Y-127328347D02*
G75*
G03X155448000Y-126365000I-1789130J963347D01*
G01*
X155446923Y-126364900D02*
G75*
G03X155145740Y-125300740I-2030923J-100D01*
G01*
X100888800Y-128270000D02*
X100888800Y-125730000D01*
D16*
X98143136Y-126024473D02*
G75*
G03X97790000Y-127000000I1170864J-975527D01*
G01*
X97791889Y-127000469D02*
G75*
G03X98176080Y-128010920I1522111J469D01*
G01*
X100836147Y-126999966D02*
G75*
G03X100469700Y-126009400I-1522147J-34D01*
G01*
X100484864Y-127975527D02*
G75*
G03X100838000Y-127000000I-1170864J975527D01*
G01*
X100553166Y-126112845D02*
G75*
G03X99314000Y-125476000I-1239166J-887155D01*
G01*
X99313199Y-125476000D02*
G75*
G03X98094800Y-126085600I801J-1524000D01*
G01*
X99314442Y-128522206D02*
G75*
G03X100515420Y-127934720I-442J1522206D01*
G01*
X98111436Y-127936171D02*
G75*
G03X99314000Y-128524000I1202564J936171D01*
G01*
X99314000Y-126365000D02*
G75*
G03X98679000Y-127000000I0J-635000D01*
G01*
X99314000Y-125984000D02*
G75*
G03X98298000Y-127000000I0J-1016000D01*
G01*
X99314000Y-127635000D02*
G75*
G03X99949000Y-127000000I0J635000D01*
G01*
X99314000Y-128016000D02*
G75*
G03X100330000Y-127000000I0J1016000D01*
G01*
D13*
X100872880Y-125696574D02*
G75*
G03X99314000Y-124968000I-1558880J-1303426D01*
G01*
X99313025Y-124970540D02*
G75*
G03X97523300Y-126044960I975J-2029460D01*
G01*
X99316552Y-129029386D02*
G75*
G03X100863400Y-128310640I-2552J2029386D01*
G01*
X97550701Y-128009851D02*
G75*
G03X99314000Y-129032000I1763299J1009851D01*
G01*
X97524870Y-126036653D02*
G75*
G03X97282000Y-127000000I1789130J-963347D01*
G01*
X97283077Y-127000100D02*
G75*
G03X97584260Y-128064260I2030923J100D01*
G01*
D15*
X120650000Y-101600000D02*
X120650000Y-104140000D01*
X120650000Y-104140000D02*
X113030000Y-104140000D01*
X113030000Y-104140000D02*
X113030000Y-101600000D01*
X113030000Y-101600000D02*
X120650000Y-101600000D01*
X118110000Y-104140000D02*
X118110000Y-101600000D01*
X120650000Y-104140000D02*
X120650000Y-106680000D01*
X120650000Y-106680000D02*
X113030000Y-106680000D01*
X113030000Y-106680000D02*
X113030000Y-104140000D01*
X113030000Y-104140000D02*
X120650000Y-104140000D01*
X118110000Y-106680000D02*
X118110000Y-104140000D01*
X120650000Y-99060000D02*
X120650000Y-101600000D01*
X120650000Y-101600000D02*
X113030000Y-101600000D01*
X113030000Y-101600000D02*
X113030000Y-99060000D01*
X113030000Y-99060000D02*
X120650000Y-99060000D01*
X118110000Y-101600000D02*
X118110000Y-99060000D01*
D11*
X99060000Y-81280000D02*
X100330000Y-81280000D01*
X100330000Y-81280000D02*
X100330000Y-83820000D01*
X100330000Y-83820000D02*
X99060000Y-83820000D01*
X99060000Y-76200000D02*
X152400000Y-76200000D01*
X152400000Y-76200000D02*
X152400000Y-88900000D01*
X152400000Y-88900000D02*
X99060000Y-88900000D01*
X99060000Y-88900000D02*
X99060000Y-76200000D01*
D15*
X158750000Y-114300000D02*
X158750000Y-121920000D01*
X158750000Y-121920000D02*
X156210000Y-121920000D01*
X156210000Y-121920000D02*
X156210000Y-114300000D01*
X156210000Y-114300000D02*
X158750000Y-114300000D01*
X158750000Y-121285000D02*
X156210000Y-121285000D01*
X156210000Y-120650000D02*
X158750000Y-120650000D01*
X157480000Y-114300000D02*
X157480000Y-113030000D01*
X157480000Y-121920000D02*
X157480000Y-123190000D01*
X154940000Y-114300000D02*
X154940000Y-121920000D01*
X154940000Y-121920000D02*
X152400000Y-121920000D01*
X152400000Y-121920000D02*
X152400000Y-114300000D01*
X152400000Y-114300000D02*
X154940000Y-114300000D01*
X154940000Y-121285000D02*
X152400000Y-121285000D01*
X152400000Y-120650000D02*
X154940000Y-120650000D01*
X153670000Y-114300000D02*
X153670000Y-113030000D01*
X153670000Y-121920000D02*
X153670000Y-123190000D01*
X157480000Y-76200000D02*
X157480000Y-88900000D01*
X157480000Y-88900000D02*
X154940000Y-88900000D01*
X154940000Y-88900000D02*
X154940000Y-76200000D01*
X156210000Y-88900000D02*
X156210000Y-90170000D01*
X156210000Y-74930000D02*
X156210000Y-76200000D01*
X156718000Y-76200000D02*
X157480000Y-76962000D01*
X157480000Y-76200000D02*
X154940000Y-76200000D01*
X156210000Y-104140000D02*
X152400000Y-107950000D01*
X152400000Y-107950000D02*
X152400000Y-109220000D01*
X152400000Y-109220000D02*
X153670000Y-110490000D01*
X153670000Y-110490000D02*
X156210000Y-110490000D01*
X156210000Y-110490000D02*
X158750000Y-107950000D01*
X158750000Y-107950000D02*
X158750000Y-105410000D01*
X158750000Y-105410000D02*
X157480000Y-104140000D01*
X157480000Y-104140000D02*
X156210000Y-104140000D01*
D11*
X98806000Y-134620000D02*
G75*
G03X98806000Y-134620000I-2286000J0D01*
G01*
X160401000Y-134620000D02*
G75*
G03X160401000Y-134620000I-2286000J0D01*
G01*
X160401000Y-45085000D02*
G75*
G03X160401000Y-45085000I-2286000J0D01*
G01*
X98806000Y-45085000D02*
G75*
G03X98806000Y-45085000I-2286000J0D01*
G01*
D12*
X121920000Y-133350000D02*
G75*
G03X121920000Y-133350000I-2540000J0D01*
G01*
X123190000Y-137160000D02*
X115570000Y-137160000D01*
X115570000Y-137160000D02*
X115570000Y-129540000D01*
X115570000Y-129540000D02*
X123190000Y-129540000D01*
X123190000Y-137160000D02*
X123190000Y-129540000D01*
X110490000Y-133350000D02*
G75*
G03X110490000Y-133350000I-2540000J0D01*
G01*
X111760000Y-137160000D02*
X104140000Y-137160000D01*
X104140000Y-137160000D02*
X104140000Y-129540000D01*
X104140000Y-129540000D02*
X111760000Y-129540000D01*
X111760000Y-137160000D02*
X111760000Y-129540000D01*
D15*
X131172857Y-121085429D02*
X131172857Y-122319143D01*
X131245429Y-122464286D01*
X131318000Y-122536857D01*
X131463143Y-122609429D01*
X131753429Y-122609429D01*
X131898571Y-122536857D01*
X131971143Y-122464286D01*
X132043714Y-122319143D01*
X132043714Y-121085429D01*
X132696857Y-122536857D02*
X132914571Y-122609429D01*
X133277428Y-122609429D01*
X133422571Y-122536857D01*
X133495142Y-122464286D01*
X133567714Y-122319143D01*
X133567714Y-122174000D01*
X133495142Y-122028857D01*
X133422571Y-121956286D01*
X133277428Y-121883714D01*
X132987142Y-121811143D01*
X132842000Y-121738571D01*
X132769428Y-121666000D01*
X132696857Y-121520857D01*
X132696857Y-121375714D01*
X132769428Y-121230571D01*
X132842000Y-121158000D01*
X132987142Y-121085429D01*
X133350000Y-121085429D01*
X133567714Y-121158000D01*
X134728857Y-121811143D02*
X134946571Y-121883714D01*
X135019143Y-121956286D01*
X135091714Y-122101429D01*
X135091714Y-122319143D01*
X135019143Y-122464286D01*
X134946571Y-122536857D01*
X134801429Y-122609429D01*
X134220857Y-122609429D01*
X134220857Y-121085429D01*
X134728857Y-121085429D01*
X134874000Y-121158000D01*
X134946571Y-121230571D01*
X135019143Y-121375714D01*
X135019143Y-121520857D01*
X134946571Y-121666000D01*
X134874000Y-121738571D01*
X134728857Y-121811143D01*
X134220857Y-121811143D01*
D16*
X128409095Y-99069071D02*
X127683381Y-99069071D01*
X128046238Y-99069071D02*
X128046238Y-97926071D01*
X127925286Y-98089357D01*
X127804333Y-98198214D01*
X127683381Y-98252643D01*
X129497667Y-97926071D02*
X129255762Y-97926071D01*
X129134810Y-97980500D01*
X129074333Y-98034929D01*
X128953381Y-98198214D01*
X128892905Y-98415929D01*
X128892905Y-98851357D01*
X128953381Y-98960214D01*
X129013857Y-99014643D01*
X129134810Y-99069071D01*
X129376714Y-99069071D01*
X129497667Y-99014643D01*
X129558143Y-98960214D01*
X129618619Y-98851357D01*
X129618619Y-98579214D01*
X129558143Y-98470357D01*
X129497667Y-98415929D01*
X129376714Y-98361500D01*
X129134810Y-98361500D01*
X129013857Y-98415929D01*
X128953381Y-98470357D01*
X128892905Y-98579214D01*
X130162905Y-99069071D02*
X130162905Y-97926071D01*
X130586238Y-98742500D01*
X131009572Y-97926071D01*
X131009572Y-99069071D01*
X131614334Y-99069071D02*
X131614334Y-97926071D01*
X131614334Y-98470357D02*
X132340048Y-98470357D01*
X132340048Y-99069071D02*
X132340048Y-97926071D01*
X132823858Y-98307071D02*
X133489096Y-98307071D01*
X132823858Y-99069071D01*
X133489096Y-99069071D01*
D17*
X112775999Y-121200333D02*
X113199333Y-121200333D01*
X112691333Y-121490619D02*
X112987666Y-120474619D01*
X113283999Y-121490619D01*
X113453333Y-120474619D02*
X113749666Y-121490619D01*
X114045999Y-120474619D01*
X114850333Y-121490619D02*
X114553999Y-121006810D01*
X114342333Y-121490619D02*
X114342333Y-120474619D01*
X114680999Y-120474619D01*
X114765666Y-120523000D01*
X114807999Y-120571381D01*
X114850333Y-120668143D01*
X114850333Y-120813286D01*
X114807999Y-120910048D01*
X114765666Y-120958429D01*
X114680999Y-121006810D01*
X114342333Y-121006810D01*
X115231333Y-121103571D02*
X115908666Y-121103571D01*
X116332000Y-121490619D02*
X116332000Y-120474619D01*
X116712999Y-121442238D02*
X116839999Y-121490619D01*
X117051666Y-121490619D01*
X117136333Y-121442238D01*
X117178666Y-121393857D01*
X117220999Y-121297095D01*
X117220999Y-121200333D01*
X117178666Y-121103571D01*
X117136333Y-121055190D01*
X117051666Y-121006810D01*
X116882333Y-120958429D01*
X116797666Y-120910048D01*
X116755333Y-120861667D01*
X116712999Y-120764905D01*
X116712999Y-120668143D01*
X116755333Y-120571381D01*
X116797666Y-120523000D01*
X116882333Y-120474619D01*
X117093999Y-120474619D01*
X117220999Y-120523000D01*
X117602000Y-121490619D02*
X117602000Y-120474619D01*
X117940666Y-120474619D01*
X118025333Y-120523000D01*
X118067666Y-120571381D01*
X118110000Y-120668143D01*
X118110000Y-120813286D01*
X118067666Y-120910048D01*
X118025333Y-120958429D01*
X117940666Y-121006810D01*
X117602000Y-121006810D01*
X118491000Y-121103571D02*
X119168333Y-121103571D01*
X120057333Y-121490619D02*
X119549333Y-121490619D01*
X119803333Y-121490619D02*
X119803333Y-120474619D01*
X119718667Y-120619762D01*
X119634000Y-120716524D01*
X119549333Y-120764905D01*
X120607667Y-120474619D02*
X120692334Y-120474619D01*
X120777000Y-120523000D01*
X120819334Y-120571381D01*
X120861667Y-120668143D01*
X120904000Y-120861667D01*
X120904000Y-121103571D01*
X120861667Y-121297095D01*
X120819334Y-121393857D01*
X120777000Y-121442238D01*
X120692334Y-121490619D01*
X120607667Y-121490619D01*
X120523000Y-121442238D01*
X120480667Y-121393857D01*
X120438334Y-121297095D01*
X120396000Y-121103571D01*
X120396000Y-120861667D01*
X120438334Y-120668143D01*
X120480667Y-120571381D01*
X120523000Y-120523000D01*
X120607667Y-120474619D01*
X109876167Y-57131857D02*
X109833833Y-57180238D01*
X109706833Y-57228619D01*
X109622167Y-57228619D01*
X109495167Y-57180238D01*
X109410500Y-57083476D01*
X109368167Y-56986714D01*
X109325833Y-56793190D01*
X109325833Y-56648048D01*
X109368167Y-56454524D01*
X109410500Y-56357762D01*
X109495167Y-56261000D01*
X109622167Y-56212619D01*
X109706833Y-56212619D01*
X109833833Y-56261000D01*
X109876167Y-56309381D01*
X110426500Y-56212619D02*
X110595833Y-56212619D01*
X110680500Y-56261000D01*
X110765167Y-56357762D01*
X110807500Y-56551286D01*
X110807500Y-56889952D01*
X110765167Y-57083476D01*
X110680500Y-57180238D01*
X110595833Y-57228619D01*
X110426500Y-57228619D01*
X110341833Y-57180238D01*
X110257167Y-57083476D01*
X110214833Y-56889952D01*
X110214833Y-56551286D01*
X110257167Y-56357762D01*
X110341833Y-56261000D01*
X110426500Y-56212619D01*
X111188500Y-57228619D02*
X111188500Y-56212619D01*
X111696500Y-57228619D01*
X111696500Y-56212619D01*
X112119833Y-57228619D02*
X112119833Y-56212619D01*
X112627833Y-57228619D01*
X112627833Y-56212619D01*
X112839499Y-57325381D02*
X113516832Y-57325381D01*
X114194165Y-57228619D02*
X113686165Y-57228619D01*
X113940165Y-57228619D02*
X113940165Y-56212619D01*
X113855499Y-56357762D01*
X113770832Y-56454524D01*
X113686165Y-56502905D01*
X114744499Y-56212619D02*
X114829166Y-56212619D01*
X114913832Y-56261000D01*
X114956166Y-56309381D01*
X114998499Y-56406143D01*
X115040832Y-56599667D01*
X115040832Y-56841571D01*
X114998499Y-57035095D01*
X114956166Y-57131857D01*
X114913832Y-57180238D01*
X114829166Y-57228619D01*
X114744499Y-57228619D01*
X114659832Y-57180238D01*
X114617499Y-57131857D01*
X114575166Y-57035095D01*
X114532832Y-56841571D01*
X114532832Y-56599667D01*
X114575166Y-56406143D01*
X114617499Y-56309381D01*
X114659832Y-56261000D01*
X114744499Y-56212619D01*
X115337166Y-56212619D02*
X115929833Y-57228619D01*
X115929833Y-56212619D02*
X115337166Y-57228619D01*
X116226166Y-56309381D02*
X116268500Y-56261000D01*
X116353166Y-56212619D01*
X116564833Y-56212619D01*
X116649500Y-56261000D01*
X116691833Y-56309381D01*
X116734166Y-56406143D01*
X116734166Y-56502905D01*
X116691833Y-56648048D01*
X116183833Y-57228619D01*
X116734166Y-57228619D01*
D18*
X152527000Y-129884714D02*
X152527000Y-129122714D01*
X152527000Y-129485571D02*
X152962428Y-129485571D01*
X152962428Y-129884714D02*
X152962428Y-129122714D01*
X153325286Y-129485571D02*
X153579286Y-129485571D01*
X153688143Y-129884714D02*
X153325286Y-129884714D01*
X153325286Y-129122714D01*
X153688143Y-129122714D01*
X154159857Y-129521857D02*
X154159857Y-129884714D01*
X153905857Y-129122714D02*
X154159857Y-129521857D01*
X154413857Y-129122714D01*
X97191286Y-124550714D02*
X97191286Y-123788714D01*
X97372714Y-123788714D01*
X97481571Y-123825000D01*
X97554143Y-123897571D01*
X97590428Y-123970143D01*
X97626714Y-124115286D01*
X97626714Y-124224143D01*
X97590428Y-124369286D01*
X97554143Y-124441857D01*
X97481571Y-124514429D01*
X97372714Y-124550714D01*
X97191286Y-124550714D01*
X98316143Y-124550714D02*
X97953286Y-124550714D01*
X97953286Y-123788714D01*
X98570143Y-124151571D02*
X98824143Y-124151571D01*
X98933000Y-124550714D02*
X98570143Y-124550714D01*
X98570143Y-123788714D01*
X98933000Y-123788714D01*
X99259572Y-124550714D02*
X99259572Y-123788714D01*
X99441000Y-123788714D01*
X99549857Y-123825000D01*
X99622429Y-123897571D01*
X99658714Y-123970143D01*
X99695000Y-124115286D01*
X99695000Y-124224143D01*
X99658714Y-124369286D01*
X99622429Y-124441857D01*
X99549857Y-124514429D01*
X99441000Y-124550714D01*
X99259572Y-124550714D01*
X100457000Y-124478143D02*
X100420714Y-124514429D01*
X100311857Y-124550714D01*
X100239286Y-124550714D01*
X100130429Y-124514429D01*
X100057857Y-124441857D01*
X100021572Y-124369286D01*
X99985286Y-124224143D01*
X99985286Y-124115286D01*
X100021572Y-123970143D01*
X100057857Y-123897571D01*
X100130429Y-123825000D01*
X100239286Y-123788714D01*
X100311857Y-123788714D01*
X100420714Y-123825000D01*
X100457000Y-123861286D01*
X100783572Y-124550714D02*
X100783572Y-123788714D01*
X101219000Y-124550714D02*
X100892429Y-124115286D01*
X101219000Y-123788714D02*
X100783572Y-124224143D01*
D13*
X122234476Y-102108000D02*
X122137714Y-102035429D01*
X121992571Y-102035429D01*
X121847429Y-102108000D01*
X121750667Y-102253143D01*
X121702286Y-102398286D01*
X121653905Y-102688571D01*
X121653905Y-102906286D01*
X121702286Y-103196571D01*
X121750667Y-103341714D01*
X121847429Y-103486857D01*
X121992571Y-103559429D01*
X122089333Y-103559429D01*
X122234476Y-103486857D01*
X122282857Y-103414286D01*
X122282857Y-102906286D01*
X122089333Y-102906286D01*
X122669905Y-103486857D02*
X122815048Y-103559429D01*
X123056952Y-103559429D01*
X123153714Y-103486857D01*
X123202095Y-103414286D01*
X123250476Y-103269143D01*
X123250476Y-103124000D01*
X123202095Y-102978857D01*
X123153714Y-102906286D01*
X123056952Y-102833714D01*
X122863429Y-102761143D01*
X122766667Y-102688571D01*
X122718286Y-102616000D01*
X122669905Y-102470857D01*
X122669905Y-102325714D01*
X122718286Y-102180571D01*
X122766667Y-102108000D01*
X122863429Y-102035429D01*
X123105333Y-102035429D01*
X123250476Y-102108000D01*
X123589143Y-102035429D02*
X124218095Y-102035429D01*
X123879429Y-102616000D01*
X124024571Y-102616000D01*
X124121333Y-102688571D01*
X124169714Y-102761143D01*
X124218095Y-102906286D01*
X124218095Y-103269143D01*
X124169714Y-103414286D01*
X124121333Y-103486857D01*
X124024571Y-103559429D01*
X123734286Y-103559429D01*
X123637524Y-103486857D01*
X123589143Y-103414286D01*
X122234476Y-104902000D02*
X122137714Y-104829429D01*
X121992571Y-104829429D01*
X121847429Y-104902000D01*
X121750667Y-105047143D01*
X121702286Y-105192286D01*
X121653905Y-105482571D01*
X121653905Y-105700286D01*
X121702286Y-105990571D01*
X121750667Y-106135714D01*
X121847429Y-106280857D01*
X121992571Y-106353429D01*
X122089333Y-106353429D01*
X122234476Y-106280857D01*
X122282857Y-106208286D01*
X122282857Y-105700286D01*
X122089333Y-105700286D01*
X122669905Y-106280857D02*
X122815048Y-106353429D01*
X123056952Y-106353429D01*
X123153714Y-106280857D01*
X123202095Y-106208286D01*
X123250476Y-106063143D01*
X123250476Y-105918000D01*
X123202095Y-105772857D01*
X123153714Y-105700286D01*
X123056952Y-105627714D01*
X122863429Y-105555143D01*
X122766667Y-105482571D01*
X122718286Y-105410000D01*
X122669905Y-105264857D01*
X122669905Y-105119714D01*
X122718286Y-104974571D01*
X122766667Y-104902000D01*
X122863429Y-104829429D01*
X123105333Y-104829429D01*
X123250476Y-104902000D01*
X123589143Y-104829429D02*
X124218095Y-104829429D01*
X123879429Y-105410000D01*
X124024571Y-105410000D01*
X124121333Y-105482571D01*
X124169714Y-105555143D01*
X124218095Y-105700286D01*
X124218095Y-106063143D01*
X124169714Y-106208286D01*
X124121333Y-106280857D01*
X124024571Y-106353429D01*
X123734286Y-106353429D01*
X123637524Y-106280857D01*
X123589143Y-106208286D01*
X122234476Y-99568000D02*
X122137714Y-99495429D01*
X121992571Y-99495429D01*
X121847429Y-99568000D01*
X121750667Y-99713143D01*
X121702286Y-99858286D01*
X121653905Y-100148571D01*
X121653905Y-100366286D01*
X121702286Y-100656571D01*
X121750667Y-100801714D01*
X121847429Y-100946857D01*
X121992571Y-101019429D01*
X122089333Y-101019429D01*
X122234476Y-100946857D01*
X122282857Y-100874286D01*
X122282857Y-100366286D01*
X122089333Y-100366286D01*
X122669905Y-100946857D02*
X122815048Y-101019429D01*
X123056952Y-101019429D01*
X123153714Y-100946857D01*
X123202095Y-100874286D01*
X123250476Y-100729143D01*
X123250476Y-100584000D01*
X123202095Y-100438857D01*
X123153714Y-100366286D01*
X123056952Y-100293714D01*
X122863429Y-100221143D01*
X122766667Y-100148571D01*
X122718286Y-100076000D01*
X122669905Y-99930857D01*
X122669905Y-99785714D01*
X122718286Y-99640571D01*
X122766667Y-99568000D01*
X122863429Y-99495429D01*
X123105333Y-99495429D01*
X123250476Y-99568000D01*
X123589143Y-99495429D02*
X124218095Y-99495429D01*
X123879429Y-100076000D01*
X124024571Y-100076000D01*
X124121333Y-100148571D01*
X124169714Y-100221143D01*
X124218095Y-100366286D01*
X124218095Y-100729143D01*
X124169714Y-100874286D01*
X124121333Y-100946857D01*
X124024571Y-101019429D01*
X123734286Y-101019429D01*
X123637524Y-100946857D01*
X123589143Y-100874286D01*
D15*
X121539001Y-72178333D02*
X122385667Y-72178333D01*
X121369667Y-72686333D02*
X121962334Y-70908333D01*
X122555001Y-72686333D01*
X122893667Y-70908333D02*
X123909667Y-70908333D01*
X123401667Y-72686333D02*
X123401667Y-70908333D01*
X124502334Y-72686333D02*
X124502334Y-70908333D01*
X125095001Y-72178333D01*
X125687668Y-70908333D01*
X125687668Y-72686333D01*
X126534334Y-71755000D02*
X127127001Y-71755000D01*
X127381001Y-72686333D02*
X126534334Y-72686333D01*
X126534334Y-70908333D01*
X127381001Y-70908333D01*
X129074335Y-70993000D02*
X128905001Y-70908333D01*
X128651001Y-70908333D01*
X128397001Y-70993000D01*
X128227668Y-71162333D01*
X128143001Y-71331667D01*
X128058335Y-71670333D01*
X128058335Y-71924333D01*
X128143001Y-72263000D01*
X128227668Y-72432333D01*
X128397001Y-72601667D01*
X128651001Y-72686333D01*
X128820335Y-72686333D01*
X129074335Y-72601667D01*
X129159001Y-72517000D01*
X129159001Y-71924333D01*
X128820335Y-71924333D01*
X129836335Y-72178333D02*
X130683001Y-72178333D01*
X129667001Y-72686333D02*
X130259668Y-70908333D01*
X130852335Y-72686333D01*
X131275668Y-70908333D02*
X132376335Y-70908333D01*
X131783668Y-71585667D01*
X132037668Y-71585667D01*
X132207001Y-71670333D01*
X132291668Y-71755000D01*
X132376335Y-71924333D01*
X132376335Y-72347667D01*
X132291668Y-72517000D01*
X132207001Y-72601667D01*
X132037668Y-72686333D01*
X131529668Y-72686333D01*
X131360335Y-72601667D01*
X131275668Y-72517000D01*
X133053668Y-71077667D02*
X133138334Y-70993000D01*
X133307668Y-70908333D01*
X133731001Y-70908333D01*
X133900334Y-70993000D01*
X133985001Y-71077667D01*
X134069668Y-71247000D01*
X134069668Y-71416333D01*
X133985001Y-71670333D01*
X132969001Y-72686333D01*
X134069668Y-72686333D01*
X134831667Y-72009000D02*
X136186334Y-72009000D01*
X137033000Y-72686333D02*
X137033000Y-70908333D01*
X137710334Y-70908333D01*
X137879667Y-70993000D01*
X137964334Y-71077667D01*
X138049000Y-71247000D01*
X138049000Y-71501000D01*
X137964334Y-71670333D01*
X137879667Y-71755000D01*
X137710334Y-71839667D01*
X137033000Y-71839667D01*
D17*
X160437286Y-119573524D02*
X160497762Y-119428381D01*
X160558238Y-119380000D01*
X160679190Y-119331619D01*
X160860619Y-119331619D01*
X160981571Y-119380000D01*
X161042048Y-119428381D01*
X161102524Y-119525143D01*
X161102524Y-119912190D01*
X159832524Y-119912190D01*
X159832524Y-119573524D01*
X159893000Y-119476762D01*
X159953476Y-119428381D01*
X160074429Y-119380000D01*
X160195381Y-119380000D01*
X160316333Y-119428381D01*
X160376810Y-119476762D01*
X160437286Y-119573524D01*
X160437286Y-119912190D01*
X160739667Y-118944571D02*
X160739667Y-118460762D01*
X161102524Y-119041333D02*
X159832524Y-118702666D01*
X161102524Y-118364000D01*
X159832524Y-118170476D02*
X159832524Y-117589905D01*
X161102524Y-117880190D02*
X159832524Y-117880190D01*
X160255857Y-116815810D02*
X161102524Y-116815810D01*
X159772048Y-117057714D02*
X160679190Y-117299619D01*
X160679190Y-116670667D01*
X159953476Y-116332000D02*
X159893000Y-116283619D01*
X159832524Y-116186857D01*
X159832524Y-115944953D01*
X159893000Y-115848191D01*
X159953476Y-115799810D01*
X160074429Y-115751429D01*
X160195381Y-115751429D01*
X160376810Y-115799810D01*
X161102524Y-116380381D01*
X161102524Y-115751429D01*
X151450524Y-118484952D02*
X151450524Y-119065523D01*
X151450524Y-118775237D02*
X150180524Y-118775237D01*
X150361952Y-118871999D01*
X150482905Y-118968761D01*
X150543381Y-119065523D01*
X150180524Y-117855999D02*
X150180524Y-117759238D01*
X150241000Y-117662476D01*
X150301476Y-117614095D01*
X150422429Y-117565714D01*
X150664333Y-117517333D01*
X150966714Y-117517333D01*
X151208619Y-117565714D01*
X151329571Y-117614095D01*
X151390048Y-117662476D01*
X151450524Y-117759238D01*
X151450524Y-117855999D01*
X151390048Y-117952761D01*
X151329571Y-118001142D01*
X151208619Y-118049523D01*
X150966714Y-118097904D01*
X150664333Y-118097904D01*
X150422429Y-118049523D01*
X150301476Y-118001142D01*
X150241000Y-117952761D01*
X150180524Y-117855999D01*
X150180524Y-117227047D02*
X151450524Y-116888380D01*
X150180524Y-116549714D01*
X158880024Y-85108143D02*
X158813500Y-85047667D01*
X158746976Y-84926715D01*
X158746976Y-84624334D01*
X158813500Y-84503381D01*
X158880024Y-84442905D01*
X159013071Y-84382429D01*
X159146119Y-84382429D01*
X159345690Y-84442905D01*
X160143976Y-85168619D01*
X160143976Y-84382429D01*
X158880024Y-83898619D02*
X158813500Y-83838143D01*
X158746976Y-83717191D01*
X158746976Y-83414810D01*
X158813500Y-83293857D01*
X158880024Y-83233381D01*
X159013071Y-83172905D01*
X159146119Y-83172905D01*
X159345690Y-83233381D01*
X160143976Y-83959095D01*
X160143976Y-83172905D01*
X158746976Y-82386714D02*
X158746976Y-82265762D01*
X158813500Y-82144810D01*
X158880024Y-82084333D01*
X159013071Y-82023857D01*
X159279167Y-81963381D01*
X159611786Y-81963381D01*
X159877881Y-82023857D01*
X160010929Y-82084333D01*
X160077452Y-82144810D01*
X160143976Y-82265762D01*
X160143976Y-82386714D01*
X160077452Y-82507667D01*
X160010929Y-82568143D01*
X159877881Y-82628619D01*
X159611786Y-82689095D01*
X159279167Y-82689095D01*
X159013071Y-82628619D01*
X158880024Y-82568143D01*
X158813500Y-82507667D01*
X158746976Y-82386714D01*
X159212643Y-80874809D02*
X160143976Y-80874809D01*
X159212643Y-81419095D02*
X159944405Y-81419095D01*
X160077452Y-81358619D01*
X160143976Y-81237666D01*
X160143976Y-81056238D01*
X160077452Y-80935286D01*
X160010929Y-80874809D01*
X160143976Y-80270047D02*
X158746976Y-80270047D01*
X159412214Y-80270047D02*
X159412214Y-79544333D01*
X160143976Y-79544333D02*
X158746976Y-79544333D01*
X149497143Y-105083429D02*
X149642286Y-105131810D01*
X149690667Y-105180190D01*
X149739048Y-105276952D01*
X149739048Y-105422095D01*
X149690667Y-105518857D01*
X149642286Y-105567238D01*
X149545524Y-105615619D01*
X149158477Y-105615619D01*
X149158477Y-104599619D01*
X149497143Y-104599619D01*
X149593905Y-104648000D01*
X149642286Y-104696381D01*
X149690667Y-104793143D01*
X149690667Y-104889905D01*
X149642286Y-104986667D01*
X149593905Y-105035048D01*
X149497143Y-105083429D01*
X149158477Y-105083429D01*
X150755048Y-105518857D02*
X150706667Y-105567238D01*
X150561524Y-105615619D01*
X150464762Y-105615619D01*
X150319620Y-105567238D01*
X150222858Y-105470476D01*
X150174477Y-105373714D01*
X150126096Y-105180190D01*
X150126096Y-105035048D01*
X150174477Y-104841524D01*
X150222858Y-104744762D01*
X150319620Y-104648000D01*
X150464762Y-104599619D01*
X150561524Y-104599619D01*
X150706667Y-104648000D01*
X150755048Y-104696381D01*
X151093715Y-104599619D02*
X151722667Y-104599619D01*
X151384001Y-104986667D01*
X151529143Y-104986667D01*
X151625905Y-105035048D01*
X151674286Y-105083429D01*
X151722667Y-105180190D01*
X151722667Y-105422095D01*
X151674286Y-105518857D01*
X151625905Y-105567238D01*
X151529143Y-105615619D01*
X151238858Y-105615619D01*
X151142096Y-105567238D01*
X151093715Y-105518857D01*
X152061334Y-104599619D02*
X152690286Y-104599619D01*
X152351620Y-104986667D01*
X152496762Y-104986667D01*
X152593524Y-105035048D01*
X152641905Y-105083429D01*
X152690286Y-105180190D01*
X152690286Y-105422095D01*
X152641905Y-105518857D01*
X152593524Y-105567238D01*
X152496762Y-105615619D01*
X152206477Y-105615619D01*
X152109715Y-105567238D01*
X152061334Y-105518857D01*
X153028953Y-104599619D02*
X153706286Y-104599619D01*
X153270858Y-105615619D01*
D13*
X94354952Y-129491619D02*
X94983904Y-129491619D01*
X94645238Y-129878667D01*
X94790380Y-129878667D01*
X94887142Y-129927048D01*
X94935523Y-129975429D01*
X94983904Y-130072190D01*
X94983904Y-130314095D01*
X94935523Y-130410857D01*
X94887142Y-130459238D01*
X94790380Y-130507619D01*
X94500095Y-130507619D01*
X94403333Y-130459238D01*
X94354952Y-130410857D01*
X95419333Y-130410857D02*
X95467714Y-130459238D01*
X95419333Y-130507619D01*
X95370952Y-130459238D01*
X95419333Y-130410857D01*
X95419333Y-130507619D01*
X96386952Y-129491619D02*
X95903143Y-129491619D01*
X95854762Y-129975429D01*
X95903143Y-129927048D01*
X95999905Y-129878667D01*
X96241809Y-129878667D01*
X96338571Y-129927048D01*
X96386952Y-129975429D01*
X96435333Y-130072190D01*
X96435333Y-130314095D01*
X96386952Y-130410857D01*
X96338571Y-130459238D01*
X96241809Y-130507619D01*
X95999905Y-130507619D01*
X95903143Y-130459238D01*
X95854762Y-130410857D01*
X96870762Y-130507619D02*
X96870762Y-129830286D01*
X96870762Y-129927048D02*
X96919143Y-129878667D01*
X97015905Y-129830286D01*
X97161047Y-129830286D01*
X97257809Y-129878667D01*
X97306190Y-129975429D01*
X97306190Y-130507619D01*
X97306190Y-129975429D02*
X97354571Y-129878667D01*
X97451333Y-129830286D01*
X97596476Y-129830286D01*
X97693238Y-129878667D01*
X97741619Y-129975429D01*
X97741619Y-130507619D01*
X98225429Y-130507619D02*
X98225429Y-129830286D01*
X98225429Y-129927048D02*
X98273810Y-129878667D01*
X98370572Y-129830286D01*
X98515714Y-129830286D01*
X98612476Y-129878667D01*
X98660857Y-129975429D01*
X98660857Y-130507619D01*
X98660857Y-129975429D02*
X98709238Y-129878667D01*
X98806000Y-129830286D01*
X98951143Y-129830286D01*
X99047905Y-129878667D01*
X99096286Y-129975429D01*
X99096286Y-130507619D01*
X156076952Y-129745619D02*
X156705904Y-129745619D01*
X156367238Y-130132667D01*
X156512380Y-130132667D01*
X156609142Y-130181048D01*
X156657523Y-130229429D01*
X156705904Y-130326190D01*
X156705904Y-130568095D01*
X156657523Y-130664857D01*
X156609142Y-130713238D01*
X156512380Y-130761619D01*
X156222095Y-130761619D01*
X156125333Y-130713238D01*
X156076952Y-130664857D01*
X157141333Y-130664857D02*
X157189714Y-130713238D01*
X157141333Y-130761619D01*
X157092952Y-130713238D01*
X157141333Y-130664857D01*
X157141333Y-130761619D01*
X158108952Y-129745619D02*
X157625143Y-129745619D01*
X157576762Y-130229429D01*
X157625143Y-130181048D01*
X157721905Y-130132667D01*
X157963809Y-130132667D01*
X158060571Y-130181048D01*
X158108952Y-130229429D01*
X158157333Y-130326190D01*
X158157333Y-130568095D01*
X158108952Y-130664857D01*
X158060571Y-130713238D01*
X157963809Y-130761619D01*
X157721905Y-130761619D01*
X157625143Y-130713238D01*
X157576762Y-130664857D01*
X158592762Y-130761619D02*
X158592762Y-130084286D01*
X158592762Y-130181048D02*
X158641143Y-130132667D01*
X158737905Y-130084286D01*
X158883047Y-130084286D01*
X158979809Y-130132667D01*
X159028190Y-130229429D01*
X159028190Y-130761619D01*
X159028190Y-130229429D02*
X159076571Y-130132667D01*
X159173333Y-130084286D01*
X159318476Y-130084286D01*
X159415238Y-130132667D01*
X159463619Y-130229429D01*
X159463619Y-130761619D01*
X159947429Y-130761619D02*
X159947429Y-130084286D01*
X159947429Y-130181048D02*
X159995810Y-130132667D01*
X160092572Y-130084286D01*
X160237714Y-130084286D01*
X160334476Y-130132667D01*
X160382857Y-130229429D01*
X160382857Y-130761619D01*
X160382857Y-130229429D02*
X160431238Y-130132667D01*
X160528000Y-130084286D01*
X160673143Y-130084286D01*
X160769905Y-130132667D01*
X160818286Y-130229429D01*
X160818286Y-130761619D01*
X156076952Y-48973619D02*
X156705904Y-48973619D01*
X156367238Y-49360667D01*
X156512380Y-49360667D01*
X156609142Y-49409048D01*
X156657523Y-49457429D01*
X156705904Y-49554190D01*
X156705904Y-49796095D01*
X156657523Y-49892857D01*
X156609142Y-49941238D01*
X156512380Y-49989619D01*
X156222095Y-49989619D01*
X156125333Y-49941238D01*
X156076952Y-49892857D01*
X157141333Y-49892857D02*
X157189714Y-49941238D01*
X157141333Y-49989619D01*
X157092952Y-49941238D01*
X157141333Y-49892857D01*
X157141333Y-49989619D01*
X158108952Y-48973619D02*
X157625143Y-48973619D01*
X157576762Y-49457429D01*
X157625143Y-49409048D01*
X157721905Y-49360667D01*
X157963809Y-49360667D01*
X158060571Y-49409048D01*
X158108952Y-49457429D01*
X158157333Y-49554190D01*
X158157333Y-49796095D01*
X158108952Y-49892857D01*
X158060571Y-49941238D01*
X157963809Y-49989619D01*
X157721905Y-49989619D01*
X157625143Y-49941238D01*
X157576762Y-49892857D01*
X158592762Y-49989619D02*
X158592762Y-49312286D01*
X158592762Y-49409048D02*
X158641143Y-49360667D01*
X158737905Y-49312286D01*
X158883047Y-49312286D01*
X158979809Y-49360667D01*
X159028190Y-49457429D01*
X159028190Y-49989619D01*
X159028190Y-49457429D02*
X159076571Y-49360667D01*
X159173333Y-49312286D01*
X159318476Y-49312286D01*
X159415238Y-49360667D01*
X159463619Y-49457429D01*
X159463619Y-49989619D01*
X159947429Y-49989619D02*
X159947429Y-49312286D01*
X159947429Y-49409048D02*
X159995810Y-49360667D01*
X160092572Y-49312286D01*
X160237714Y-49312286D01*
X160334476Y-49360667D01*
X160382857Y-49457429D01*
X160382857Y-49989619D01*
X160382857Y-49457429D02*
X160431238Y-49360667D01*
X160528000Y-49312286D01*
X160673143Y-49312286D01*
X160769905Y-49360667D01*
X160818286Y-49457429D01*
X160818286Y-49989619D01*
X94354952Y-48973619D02*
X94983904Y-48973619D01*
X94645238Y-49360667D01*
X94790380Y-49360667D01*
X94887142Y-49409048D01*
X94935523Y-49457429D01*
X94983904Y-49554190D01*
X94983904Y-49796095D01*
X94935523Y-49892857D01*
X94887142Y-49941238D01*
X94790380Y-49989619D01*
X94500095Y-49989619D01*
X94403333Y-49941238D01*
X94354952Y-49892857D01*
X95419333Y-49892857D02*
X95467714Y-49941238D01*
X95419333Y-49989619D01*
X95370952Y-49941238D01*
X95419333Y-49892857D01*
X95419333Y-49989619D01*
X96386952Y-48973619D02*
X95903143Y-48973619D01*
X95854762Y-49457429D01*
X95903143Y-49409048D01*
X95999905Y-49360667D01*
X96241809Y-49360667D01*
X96338571Y-49409048D01*
X96386952Y-49457429D01*
X96435333Y-49554190D01*
X96435333Y-49796095D01*
X96386952Y-49892857D01*
X96338571Y-49941238D01*
X96241809Y-49989619D01*
X95999905Y-49989619D01*
X95903143Y-49941238D01*
X95854762Y-49892857D01*
X96870762Y-49989619D02*
X96870762Y-49312286D01*
X96870762Y-49409048D02*
X96919143Y-49360667D01*
X97015905Y-49312286D01*
X97161047Y-49312286D01*
X97257809Y-49360667D01*
X97306190Y-49457429D01*
X97306190Y-49989619D01*
X97306190Y-49457429D02*
X97354571Y-49360667D01*
X97451333Y-49312286D01*
X97596476Y-49312286D01*
X97693238Y-49360667D01*
X97741619Y-49457429D01*
X97741619Y-49989619D01*
X98225429Y-49989619D02*
X98225429Y-49312286D01*
X98225429Y-49409048D02*
X98273810Y-49360667D01*
X98370572Y-49312286D01*
X98515714Y-49312286D01*
X98612476Y-49360667D01*
X98660857Y-49457429D01*
X98660857Y-49989619D01*
X98660857Y-49457429D02*
X98709238Y-49360667D01*
X98806000Y-49312286D01*
X98951143Y-49312286D01*
X99047905Y-49360667D01*
X99096286Y-49457429D01*
X99096286Y-49989619D01*
D17*
X116065905Y-132745238D02*
X116211048Y-132793619D01*
X116452952Y-132793619D01*
X116549714Y-132745238D01*
X116598095Y-132696857D01*
X116646476Y-132600095D01*
X116646476Y-132503333D01*
X116598095Y-132406571D01*
X116549714Y-132358190D01*
X116452952Y-132309810D01*
X116259429Y-132261429D01*
X116162667Y-132213048D01*
X116114286Y-132164667D01*
X116065905Y-132067905D01*
X116065905Y-131971143D01*
X116114286Y-131874381D01*
X116162667Y-131826000D01*
X116259429Y-131777619D01*
X116501333Y-131777619D01*
X116646476Y-131826000D01*
X116985143Y-131777619D02*
X117227048Y-132793619D01*
X117420571Y-132067905D01*
X117614095Y-132793619D01*
X117856000Y-131777619D01*
X118001143Y-132890381D02*
X118775238Y-132890381D01*
X119017143Y-132793619D02*
X119017143Y-131777619D01*
X119404190Y-131777619D01*
X119500952Y-131826000D01*
X119549333Y-131874381D01*
X119597714Y-131971143D01*
X119597714Y-132116286D01*
X119549333Y-132213048D01*
X119500952Y-132261429D01*
X119404190Y-132309810D01*
X119017143Y-132309810D01*
X120033143Y-131777619D02*
X120033143Y-132600095D01*
X120081524Y-132696857D01*
X120129905Y-132745238D01*
X120226667Y-132793619D01*
X120420190Y-132793619D01*
X120516952Y-132745238D01*
X120565333Y-132696857D01*
X120613714Y-132600095D01*
X120613714Y-131777619D01*
X121049143Y-132745238D02*
X121194286Y-132793619D01*
X121436190Y-132793619D01*
X121532952Y-132745238D01*
X121581333Y-132696857D01*
X121629714Y-132600095D01*
X121629714Y-132503333D01*
X121581333Y-132406571D01*
X121532952Y-132358190D01*
X121436190Y-132309810D01*
X121242667Y-132261429D01*
X121145905Y-132213048D01*
X121097524Y-132164667D01*
X121049143Y-132067905D01*
X121049143Y-131971143D01*
X121097524Y-131874381D01*
X121145905Y-131826000D01*
X121242667Y-131777619D01*
X121484571Y-131777619D01*
X121629714Y-131826000D01*
X122065143Y-132793619D02*
X122065143Y-131777619D01*
X122065143Y-132261429D02*
X122645714Y-132261429D01*
X122645714Y-132793619D02*
X122645714Y-131777619D01*
X104635905Y-132745238D02*
X104781048Y-132793619D01*
X105022952Y-132793619D01*
X105119714Y-132745238D01*
X105168095Y-132696857D01*
X105216476Y-132600095D01*
X105216476Y-132503333D01*
X105168095Y-132406571D01*
X105119714Y-132358190D01*
X105022952Y-132309810D01*
X104829429Y-132261429D01*
X104732667Y-132213048D01*
X104684286Y-132164667D01*
X104635905Y-132067905D01*
X104635905Y-131971143D01*
X104684286Y-131874381D01*
X104732667Y-131826000D01*
X104829429Y-131777619D01*
X105071333Y-131777619D01*
X105216476Y-131826000D01*
X105555143Y-131777619D02*
X105797048Y-132793619D01*
X105990571Y-132067905D01*
X106184095Y-132793619D01*
X106426000Y-131777619D01*
X106571143Y-132890381D02*
X107345238Y-132890381D01*
X107587143Y-132793619D02*
X107587143Y-131777619D01*
X107974190Y-131777619D01*
X108070952Y-131826000D01*
X108119333Y-131874381D01*
X108167714Y-131971143D01*
X108167714Y-132116286D01*
X108119333Y-132213048D01*
X108070952Y-132261429D01*
X107974190Y-132309810D01*
X107587143Y-132309810D01*
X108603143Y-131777619D02*
X108603143Y-132600095D01*
X108651524Y-132696857D01*
X108699905Y-132745238D01*
X108796667Y-132793619D01*
X108990190Y-132793619D01*
X109086952Y-132745238D01*
X109135333Y-132696857D01*
X109183714Y-132600095D01*
X109183714Y-131777619D01*
X109619143Y-132745238D02*
X109764286Y-132793619D01*
X110006190Y-132793619D01*
X110102952Y-132745238D01*
X110151333Y-132696857D01*
X110199714Y-132600095D01*
X110199714Y-132503333D01*
X110151333Y-132406571D01*
X110102952Y-132358190D01*
X110006190Y-132309810D01*
X109812667Y-132261429D01*
X109715905Y-132213048D01*
X109667524Y-132164667D01*
X109619143Y-132067905D01*
X109619143Y-131971143D01*
X109667524Y-131874381D01*
X109715905Y-131826000D01*
X109812667Y-131777619D01*
X110054571Y-131777619D01*
X110199714Y-131826000D01*
X110635143Y-132793619D02*
X110635143Y-131777619D01*
X110635143Y-132261429D02*
X111215714Y-132261429D01*
X111215714Y-132793619D02*
X111215714Y-131777619D01*
M02*
