G04 (created by PCBNEW-RS274X (2012-apr-16-27)-stable) date Ned 20 Lis 2013 22:50:24*
G01*
G70*
G90*
%MOIN*%
G04 Gerber Fmt 3.4, Leading zero omitted, Abs format*
%FSLAX34Y34*%
G04 APERTURE LIST*
%ADD10C,0.006000*%
%ADD11C,0.015000*%
%ADD12C,0.118400*%
%ADD13R,0.079100X0.059400*%
%ADD14O,0.083000X0.138100*%
%ADD15C,0.177500*%
%ADD16C,0.098700*%
%ADD17R,0.086900X0.086900*%
%ADD18C,0.086900*%
%ADD19R,0.059400X0.079100*%
%ADD20R,0.100000X0.080000*%
%ADD21R,0.080000X0.100000*%
%ADD22R,0.126300X0.090900*%
%ADD23R,0.138100X0.098700*%
%ADD24C,0.090000*%
%ADD25R,0.090000X0.090000*%
%ADD26R,0.075000X0.075000*%
%ADD27C,0.075000*%
%ADD28C,0.180000*%
G04 APERTURE END LIST*
G54D10*
G54D11*
X36000Y-55000D02*
X64250Y-55000D01*
X36000Y-15750D02*
X64250Y-15750D01*
X64250Y-55000D02*
X64250Y-15750D01*
X36000Y-55000D02*
X36000Y-15750D01*
G54D12*
X45500Y-53500D03*
X45500Y-51500D03*
X48500Y-53500D03*
X48500Y-51500D03*
X41000Y-53500D03*
X41000Y-51500D03*
X44000Y-53500D03*
X44000Y-51500D03*
G54D13*
X43000Y-31500D03*
X42000Y-31125D03*
X42000Y-31875D03*
G54D14*
X53000Y-49394D03*
X52000Y-49394D03*
X52000Y-50693D03*
X53000Y-50693D03*
G54D15*
X54862Y-51500D03*
X50138Y-51500D03*
G54D16*
X52500Y-37500D03*
X50500Y-37500D03*
G54D14*
X44000Y-46256D03*
X44000Y-44744D03*
X45000Y-46256D03*
X45000Y-44744D03*
X46000Y-46256D03*
X46000Y-44744D03*
X47000Y-46256D03*
X47000Y-44744D03*
X48000Y-46256D03*
X48000Y-44744D03*
X49000Y-23744D03*
X49000Y-25256D03*
X48000Y-23744D03*
X48000Y-25256D03*
X47000Y-23744D03*
X47000Y-25256D03*
X46000Y-23744D03*
X46000Y-25256D03*
X45000Y-23744D03*
X45000Y-25256D03*
X44000Y-23744D03*
X44000Y-25256D03*
X43000Y-23744D03*
X43000Y-25256D03*
X42000Y-23744D03*
X42000Y-25256D03*
X41000Y-23744D03*
X41000Y-25256D03*
X40000Y-23744D03*
X40000Y-25256D03*
G54D16*
X61000Y-49750D03*
X60000Y-49750D03*
X38750Y-50000D03*
X39750Y-50000D03*
X40750Y-50000D03*
G54D17*
X47000Y-40500D03*
G54D18*
X46000Y-40500D03*
X45000Y-40500D03*
G54D17*
X47000Y-41500D03*
G54D18*
X46000Y-41500D03*
X45000Y-41500D03*
G54D17*
X47000Y-39500D03*
G54D18*
X46000Y-39500D03*
X45000Y-39500D03*
G54D14*
X40000Y-35500D03*
X41000Y-35500D03*
X42000Y-35500D03*
X43000Y-35500D03*
X44000Y-35500D03*
X45000Y-35500D03*
X46000Y-35500D03*
X47000Y-35500D03*
X48000Y-35500D03*
X49000Y-35500D03*
X50000Y-35500D03*
X51000Y-35500D03*
X52000Y-35500D03*
X53000Y-35500D03*
X54000Y-35500D03*
X55000Y-35500D03*
X56000Y-35500D03*
X57000Y-35500D03*
X58000Y-35500D03*
X59000Y-35500D03*
X59000Y-29500D03*
X58000Y-29500D03*
X57000Y-29500D03*
X56000Y-29500D03*
X55000Y-29500D03*
X54000Y-29500D03*
X53000Y-29500D03*
X52000Y-29500D03*
X51000Y-29500D03*
X50000Y-29500D03*
X49000Y-29500D03*
X48000Y-29500D03*
X47000Y-29500D03*
X46000Y-29500D03*
X45000Y-29500D03*
X44000Y-29500D03*
X43000Y-29500D03*
X42000Y-29500D03*
X41000Y-29500D03*
X40000Y-29500D03*
G54D19*
X57750Y-45000D03*
X58125Y-44000D03*
X57375Y-44000D03*
X58250Y-50250D03*
X58625Y-49250D03*
X57875Y-49250D03*
X59250Y-45000D03*
X59625Y-44000D03*
X58875Y-44000D03*
G54D20*
X45000Y-28150D03*
X45000Y-26850D03*
X46000Y-28150D03*
X46000Y-26850D03*
X43000Y-28150D03*
X43000Y-26850D03*
X42000Y-28150D03*
X42000Y-26850D03*
X44000Y-28150D03*
X44000Y-26850D03*
X41000Y-28150D03*
X41000Y-26850D03*
X40000Y-28150D03*
X40000Y-26850D03*
X41000Y-22150D03*
X41000Y-20850D03*
X40000Y-22150D03*
X40000Y-20850D03*
X47000Y-28150D03*
X47000Y-26850D03*
X45000Y-22150D03*
X45000Y-20850D03*
X43000Y-22150D03*
X43000Y-20850D03*
X44000Y-22150D03*
X44000Y-20850D03*
X57000Y-22350D03*
X57000Y-23650D03*
G54D21*
X52400Y-28000D03*
X51100Y-28000D03*
G54D20*
X46500Y-43650D03*
X46500Y-42350D03*
G54D21*
X48850Y-46250D03*
X50150Y-46250D03*
X43150Y-46250D03*
X41850Y-46250D03*
G54D20*
X42000Y-22150D03*
X42000Y-20850D03*
X42500Y-53100D03*
X42500Y-54400D03*
X41750Y-32600D03*
X41750Y-33900D03*
G54D22*
X61250Y-47445D03*
X61250Y-45555D03*
G54D21*
X48600Y-33000D03*
X49900Y-33000D03*
G54D23*
X54500Y-47069D03*
X54500Y-49431D03*
G54D24*
X62000Y-44500D03*
G54D25*
X62000Y-48500D03*
G54D24*
X60500Y-44500D03*
G54D25*
X60500Y-48500D03*
G54D20*
X42500Y-50850D03*
X42500Y-52150D03*
G54D21*
X48650Y-37500D03*
X47350Y-37500D03*
G54D24*
X61500Y-29500D03*
X61500Y-35500D03*
G54D26*
X60500Y-42500D03*
G54D27*
X61500Y-42500D03*
X61500Y-41500D03*
G54D20*
X52500Y-32850D03*
X52500Y-34150D03*
G54D21*
X57850Y-34000D03*
X59150Y-34000D03*
G54D20*
X39500Y-37350D03*
X39500Y-38650D03*
X41000Y-37350D03*
X41000Y-38650D03*
X59250Y-47150D03*
X59250Y-45850D03*
X59000Y-38400D03*
X59000Y-37100D03*
G54D21*
X58100Y-23000D03*
X59400Y-23000D03*
G54D20*
X47000Y-50850D03*
X47000Y-52150D03*
G54D21*
X50150Y-44750D03*
X48850Y-44750D03*
G54D20*
X51750Y-39850D03*
X51750Y-41150D03*
X51000Y-32850D03*
X51000Y-34150D03*
X57500Y-47150D03*
X57500Y-45850D03*
X54250Y-41150D03*
X54250Y-39850D03*
X55500Y-41150D03*
X55500Y-39850D03*
G54D21*
X54850Y-42250D03*
X56150Y-42250D03*
G54D20*
X57000Y-38400D03*
X57000Y-37100D03*
G54D21*
X58900Y-48250D03*
X57600Y-48250D03*
X48100Y-49500D03*
X49400Y-49500D03*
G54D20*
X53000Y-39850D03*
X53000Y-41150D03*
X56750Y-39850D03*
X56750Y-41150D03*
G54D28*
X38000Y-53000D03*
X62250Y-53000D03*
X62250Y-17750D03*
X38000Y-17750D03*
M02*
