G04 #@! TF.FileFunction,Copper,L2,Bot,Signal*
%FSLAX46Y46*%
G04 Gerber Fmt 4.6, Leading zero omitted, Abs format (unit mm)*
G04 Created by KiCad (PCBNEW 4.0.5+dfsg1-4) date Wed May 24 13:42:23 2017*
%MOMM*%
%LPD*%
G01*
G04 APERTURE LIST*
%ADD10C,0.150000*%
%ADD11C,0.304800*%
%ADD12C,0.500380*%
%ADD13C,0.381000*%
%ADD14R,1.501140X1.000760*%
%ADD15O,1.600200X2.999740*%
%ADD16C,4.000500*%
%ADD17C,1.998980*%
%ADD18R,1.699260X1.699260*%
%ADD19C,1.699260*%
%ADD20R,1.000760X1.501140*%
%ADD21R,2.032000X1.524000*%
%ADD22R,1.524000X2.032000*%
%ADD23R,2.700020X1.800860*%
%ADD24R,2.999740X1.998980*%
%ADD25C,1.778000*%
%ADD26R,1.778000X1.778000*%
%ADD27R,1.397000X1.397000*%
%ADD28C,1.397000*%
%ADD29C,4.064000*%
%ADD30C,2.499360*%
%ADD31C,1.600200*%
%ADD32C,0.599440*%
%ADD33C,0.254000*%
G04 APERTURE END LIST*
D10*
D11*
X149184783Y-45505733D02*
X148756249Y-45648578D01*
X148613404Y-45791422D01*
X148470559Y-46077112D01*
X148470559Y-46505646D01*
X148613404Y-46791336D01*
X148756249Y-46934180D01*
X149041938Y-47077025D01*
X150184696Y-47077025D01*
X150184696Y-44077285D01*
X149184783Y-44077285D01*
X148899093Y-44220130D01*
X148756249Y-44362975D01*
X148613404Y-44648664D01*
X148613404Y-44934354D01*
X148756249Y-45220043D01*
X148899093Y-45362888D01*
X149184783Y-45505733D01*
X150184696Y-45505733D01*
X146613577Y-44077285D02*
X146042198Y-44077285D01*
X145756509Y-44220130D01*
X145470819Y-44505820D01*
X145327974Y-45077199D01*
X145327974Y-46077112D01*
X145470819Y-46648491D01*
X145756509Y-46934180D01*
X146042198Y-47077025D01*
X146613577Y-47077025D01*
X146899267Y-46934180D01*
X147184956Y-46648491D01*
X147327801Y-46077112D01*
X147327801Y-45077199D01*
X147184956Y-44505820D01*
X146899267Y-44220130D01*
X146613577Y-44077285D01*
X144470905Y-44077285D02*
X142756768Y-44077285D01*
X143613837Y-47077025D02*
X143613837Y-44077285D01*
D12*
X141318101Y-62055738D02*
X142318014Y-62055738D01*
X142318014Y-63627030D02*
X142318014Y-60627290D01*
X140889567Y-60627290D01*
X139746808Y-60627290D02*
X139746808Y-63055651D01*
X139603963Y-63341341D01*
X139461119Y-63484185D01*
X139175429Y-63627030D01*
X138604050Y-63627030D01*
X138318361Y-63484185D01*
X138175516Y-63341341D01*
X138032671Y-63055651D01*
X138032671Y-60627290D01*
X136747068Y-63484185D02*
X136318534Y-63627030D01*
X135604310Y-63627030D01*
X135318620Y-63484185D01*
X135175776Y-63341341D01*
X135032931Y-63055651D01*
X135032931Y-62769962D01*
X135175776Y-62484272D01*
X135318620Y-62341427D01*
X135604310Y-62198583D01*
X136175689Y-62055738D01*
X136461378Y-61912893D01*
X136604223Y-61770048D01*
X136747068Y-61484359D01*
X136747068Y-61198669D01*
X136604223Y-60912980D01*
X136461378Y-60770135D01*
X136175689Y-60627290D01*
X135461465Y-60627290D01*
X135032931Y-60770135D01*
X133747328Y-62055738D02*
X132747415Y-62055738D01*
X132318881Y-63627030D02*
X133747328Y-63627030D01*
X133747328Y-60627290D01*
X132318881Y-60627290D01*
X129319141Y-63627030D02*
X130319054Y-62198583D01*
X131033278Y-63627030D02*
X131033278Y-60627290D01*
X129890520Y-60627290D01*
X129604831Y-60770135D01*
X129461986Y-60912980D01*
X129319141Y-61198669D01*
X129319141Y-61627204D01*
X129461986Y-61912893D01*
X129604831Y-62055738D01*
X129890520Y-62198583D01*
X131033278Y-62198583D01*
X139461119Y-66627194D02*
X138746895Y-68627020D01*
X138032671Y-66627194D01*
X137175603Y-65627280D02*
X135318621Y-65627280D01*
X136318534Y-66770038D01*
X135890000Y-66770038D01*
X135604310Y-66912883D01*
X135461466Y-67055728D01*
X135318621Y-67341417D01*
X135318621Y-68055641D01*
X135461466Y-68341331D01*
X135604310Y-68484175D01*
X135890000Y-68627020D01*
X136747068Y-68627020D01*
X137032758Y-68484175D01*
X137175603Y-68341331D01*
X132747415Y-66627194D02*
X132747415Y-68627020D01*
X133461639Y-65484435D02*
X134175863Y-67627107D01*
X132318881Y-67627107D01*
D13*
X91440000Y-139700000D02*
X163195000Y-139700000D01*
X91440000Y-40005000D02*
X163195000Y-40005000D01*
X163195000Y-139700000D02*
X163195000Y-40005000D01*
X91440000Y-139700000D02*
X91440000Y-40005000D01*
D14*
X109220000Y-80010000D03*
X106680000Y-79057500D03*
X106680000Y-80962500D03*
D15*
X134620000Y-125460760D03*
X132080000Y-125460760D03*
X132080000Y-128760220D03*
X134620000Y-128760220D03*
D16*
X139349480Y-130810000D03*
X127350520Y-130810000D03*
D17*
X133350000Y-95250000D03*
X128270000Y-95250000D03*
D15*
X111760000Y-117490240D03*
X111760000Y-113649760D03*
X114300000Y-117490240D03*
X114300000Y-113649760D03*
X116840000Y-117490240D03*
X116840000Y-113649760D03*
X119380000Y-117490240D03*
X119380000Y-113649760D03*
X121920000Y-117490240D03*
X121920000Y-113649760D03*
X124460000Y-60309760D03*
X124460000Y-64150240D03*
X121920000Y-60309760D03*
X121920000Y-64150240D03*
X119380000Y-60309760D03*
X119380000Y-64150240D03*
X116840000Y-60309760D03*
X116840000Y-64150240D03*
X114300000Y-60309760D03*
X114300000Y-64150240D03*
X111760000Y-60309760D03*
X111760000Y-64150240D03*
X109220000Y-60309760D03*
X109220000Y-64150240D03*
X106680000Y-60309760D03*
X106680000Y-64150240D03*
X104140000Y-60309760D03*
X104140000Y-64150240D03*
X101600000Y-60309760D03*
X101600000Y-64150240D03*
D17*
X154940000Y-126365000D03*
X152400000Y-126365000D03*
X96520000Y-127000000D03*
X99060000Y-127000000D03*
X101600000Y-127000000D03*
D18*
X119380000Y-102870000D03*
D19*
X116840000Y-102870000D03*
X114300000Y-102870000D03*
D18*
X119380000Y-105410000D03*
D19*
X116840000Y-105410000D03*
X114300000Y-105410000D03*
D18*
X119380000Y-100330000D03*
D19*
X116840000Y-100330000D03*
X114300000Y-100330000D03*
D15*
X101600000Y-90170000D03*
X104140000Y-90170000D03*
X106680000Y-90170000D03*
X109220000Y-90170000D03*
X111760000Y-90170000D03*
X114300000Y-90170000D03*
X116840000Y-90170000D03*
X119380000Y-90170000D03*
X121920000Y-90170000D03*
X124460000Y-90170000D03*
X127000000Y-90170000D03*
X129540000Y-90170000D03*
X132080000Y-90170000D03*
X134620000Y-90170000D03*
X137160000Y-90170000D03*
X139700000Y-90170000D03*
X142240000Y-90170000D03*
X144780000Y-90170000D03*
X147320000Y-90170000D03*
X149860000Y-90170000D03*
X149860000Y-74930000D03*
X147320000Y-74930000D03*
X144780000Y-74930000D03*
X142240000Y-74930000D03*
X139700000Y-74930000D03*
X137160000Y-74930000D03*
X134620000Y-74930000D03*
X132080000Y-74930000D03*
X129540000Y-74930000D03*
X127000000Y-74930000D03*
X124460000Y-74930000D03*
X121920000Y-74930000D03*
X119380000Y-74930000D03*
X116840000Y-74930000D03*
X114300000Y-74930000D03*
X111760000Y-74930000D03*
X109220000Y-74930000D03*
X106680000Y-74930000D03*
X104140000Y-74930000D03*
X101600000Y-74930000D03*
D20*
X146685000Y-114300000D03*
X147637500Y-111760000D03*
X145732500Y-111760000D03*
X147955000Y-127635000D03*
X148907500Y-125095000D03*
X147002500Y-125095000D03*
X150495000Y-114300000D03*
X151447500Y-111760000D03*
X149542500Y-111760000D03*
D21*
X114300000Y-71501000D03*
X114300000Y-68199000D03*
X116840000Y-71501000D03*
X116840000Y-68199000D03*
X109220000Y-71501000D03*
X109220000Y-68199000D03*
X106680000Y-71501000D03*
X106680000Y-68199000D03*
X111760000Y-71501000D03*
X111760000Y-68199000D03*
X104140000Y-71501000D03*
X104140000Y-68199000D03*
X101600000Y-71501000D03*
X101600000Y-68199000D03*
X104140000Y-56261000D03*
X104140000Y-52959000D03*
X101600000Y-56261000D03*
X101600000Y-52959000D03*
X119380000Y-71501000D03*
X119380000Y-68199000D03*
X114300000Y-56261000D03*
X114300000Y-52959000D03*
X109220000Y-56261000D03*
X109220000Y-52959000D03*
X111760000Y-56261000D03*
X111760000Y-52959000D03*
X144780000Y-56769000D03*
X144780000Y-60071000D03*
D22*
X133096000Y-71120000D03*
X129794000Y-71120000D03*
D21*
X118110000Y-110871000D03*
X118110000Y-107569000D03*
D22*
X124079000Y-117475000D03*
X127381000Y-117475000D03*
X109601000Y-117475000D03*
X106299000Y-117475000D03*
D21*
X106680000Y-56261000D03*
X106680000Y-52959000D03*
X107950000Y-134874000D03*
X107950000Y-138176000D03*
X106045000Y-82804000D03*
X106045000Y-86106000D03*
D23*
X155575000Y-120510300D03*
X155575000Y-115709700D03*
D22*
X123444000Y-83820000D03*
X126746000Y-83820000D03*
D24*
X138430000Y-119555260D03*
X138430000Y-125554740D03*
D25*
X157480000Y-113030000D03*
D26*
X157480000Y-123190000D03*
D25*
X153670000Y-113030000D03*
D26*
X153670000Y-123190000D03*
D21*
X107950000Y-129159000D03*
X107950000Y-132461000D03*
D22*
X123571000Y-95250000D03*
X120269000Y-95250000D03*
D25*
X156210000Y-74930000D03*
X156210000Y-90170000D03*
D27*
X153670000Y-107950000D03*
D28*
X156210000Y-107950000D03*
X156210000Y-105410000D03*
D21*
X133350000Y-83439000D03*
X133350000Y-86741000D03*
D22*
X146939000Y-86360000D03*
X150241000Y-86360000D03*
D21*
X100330000Y-94869000D03*
X100330000Y-98171000D03*
X104140000Y-94869000D03*
X104140000Y-98171000D03*
X150495000Y-119761000D03*
X150495000Y-116459000D03*
X149860000Y-97536000D03*
X149860000Y-94234000D03*
D22*
X147574000Y-58420000D03*
X150876000Y-58420000D03*
D21*
X119380000Y-129159000D03*
X119380000Y-132461000D03*
D22*
X127381000Y-113665000D03*
X124079000Y-113665000D03*
D21*
X131445000Y-101219000D03*
X131445000Y-104521000D03*
X129540000Y-83439000D03*
X129540000Y-86741000D03*
X146050000Y-119761000D03*
X146050000Y-116459000D03*
X137795000Y-104521000D03*
X137795000Y-101219000D03*
X140970000Y-104521000D03*
X140970000Y-101219000D03*
D22*
X139319000Y-107315000D03*
X142621000Y-107315000D03*
D21*
X144780000Y-97536000D03*
X144780000Y-94234000D03*
D22*
X149606000Y-122555000D03*
X146304000Y-122555000D03*
X122174000Y-125730000D03*
X125476000Y-125730000D03*
D21*
X134620000Y-101219000D03*
X134620000Y-104521000D03*
X144145000Y-101219000D03*
X144145000Y-104521000D03*
D29*
X96520000Y-134620000D03*
X158115000Y-134620000D03*
X158115000Y-45085000D03*
X96520000Y-45085000D03*
D30*
X116078000Y-135890000D03*
X115824000Y-130810000D03*
X122936000Y-135890000D03*
X122682000Y-130810000D03*
X104648000Y-135890000D03*
X104394000Y-130810000D03*
X111506000Y-135890000D03*
X111252000Y-130810000D03*
D31*
X121285000Y-122555000D03*
X110490000Y-122555000D03*
X104775000Y-114300000D03*
X104775000Y-122555000D03*
X121920000Y-80645000D03*
X127000000Y-80645000D03*
X137160000Y-48895000D03*
X111125000Y-83820000D03*
X111125000Y-78105000D03*
X123190000Y-97790000D03*
X113030000Y-97790000D03*
X142240000Y-52705000D03*
X130175000Y-67945000D03*
X130175000Y-53975000D03*
X121920000Y-102870000D03*
X128905000Y-102870000D03*
X122555000Y-107315000D03*
X131445000Y-107315000D03*
X139700000Y-50800000D03*
X134620000Y-46990000D03*
X132080000Y-45085000D03*
D32*
X163830000Y-140335000D02*
X163830000Y-39370000D01*
X90805000Y-140335000D02*
X163830000Y-140335000D01*
X90805000Y-39370000D02*
X90805000Y-140335000D01*
X163830000Y-39370000D02*
X90805000Y-39370000D01*
X149606000Y-122555000D02*
X149606000Y-125095000D01*
X155575000Y-120510300D02*
X155575000Y-121285000D01*
X149606000Y-129032000D02*
X150368000Y-129540000D01*
X150368000Y-129540000D02*
X154432000Y-129540000D01*
X154940000Y-129032000D02*
X154940000Y-126365000D01*
X149606000Y-125095000D02*
X148907500Y-125095000D01*
X149606000Y-125095000D02*
X149606000Y-129032000D01*
X157480000Y-123190000D02*
X157480000Y-123190000D01*
X155575000Y-121285000D02*
X157480000Y-123190000D01*
X154432000Y-129540000D02*
X154940000Y-129032000D01*
X157480000Y-126365000D02*
X157480000Y-123190000D01*
X154940000Y-126365000D02*
X157480000Y-126365000D01*
X156210000Y-77470000D02*
X153035000Y-80645000D01*
X156210000Y-74930000D02*
X156210000Y-77470000D01*
X140335000Y-113030000D02*
X142240000Y-111125000D01*
X153035000Y-80645000D02*
X127000000Y-80645000D01*
X130175000Y-131445000D02*
X131445000Y-132715000D01*
X127000000Y-80645000D02*
X127000000Y-74930000D01*
X138430000Y-117475000D02*
X140335000Y-115570000D01*
X111760000Y-114300000D02*
X104775000Y-114300000D01*
X121920000Y-83185000D02*
X122555000Y-83820000D01*
X122555000Y-83820000D02*
X123444000Y-83820000D01*
X138430000Y-119555260D02*
X138430000Y-117475000D01*
X123444000Y-83934300D02*
X124460000Y-84950300D01*
X133350000Y-131445000D02*
X133350000Y-127000000D01*
X123444000Y-83820000D02*
X123444000Y-83934300D01*
X110490000Y-122555000D02*
X104775000Y-122555000D01*
X134239000Y-126111000D02*
X134620000Y-126111000D01*
X136984740Y-119555260D02*
X138430000Y-119555260D01*
X142621000Y-107569000D02*
X142621000Y-107315000D01*
X125476000Y-125730000D02*
X125476000Y-123571000D01*
X134620000Y-126111000D02*
X134620000Y-121920000D01*
X121920000Y-80645000D02*
X121920000Y-83185000D01*
X124460000Y-122555000D02*
X121285000Y-122555000D01*
X133350000Y-127000000D02*
X134239000Y-126111000D01*
X104775000Y-104140000D02*
X99695000Y-104140000D01*
X124460000Y-84950300D02*
X124460000Y-90170000D01*
X99695000Y-104140000D02*
X99060000Y-104775000D01*
X134620000Y-121920000D02*
X136984740Y-119555260D01*
X131445000Y-132715000D02*
X132080000Y-132715000D01*
X119380000Y-80645000D02*
X118110000Y-81915000D01*
X107950000Y-100965000D02*
X104775000Y-104140000D01*
X140335000Y-115570000D02*
X140335000Y-113030000D01*
X125476000Y-123571000D02*
X124460000Y-122555000D01*
X127000000Y-125730000D02*
X130175000Y-128905000D01*
X132080000Y-132715000D02*
X133350000Y-131445000D01*
X100965000Y-122555000D02*
X104775000Y-122555000D01*
X142240000Y-107696000D02*
X142621000Y-107315000D01*
X125476000Y-125730000D02*
X127000000Y-125730000D01*
X106680000Y-79057500D02*
X105092500Y-79057500D01*
X103505000Y-80645000D02*
X103505000Y-83185000D01*
X99060000Y-104775000D02*
X99060000Y-120650000D01*
X121920000Y-80645000D02*
X119380000Y-80645000D01*
X109220000Y-81915000D02*
X107950000Y-83185000D01*
X142240000Y-111125000D02*
X142240000Y-107696000D01*
X105092500Y-79057500D02*
X103505000Y-80645000D01*
X107950000Y-83185000D02*
X107950000Y-84455000D01*
X99060000Y-120650000D02*
X100965000Y-122555000D01*
X104775000Y-84455000D02*
X107950000Y-84455000D01*
X103505000Y-83185000D02*
X104775000Y-84455000D01*
X118110000Y-81915000D02*
X109220000Y-81915000D01*
X130175000Y-128905000D02*
X130175000Y-131445000D01*
X107950000Y-84455000D02*
X107950000Y-100965000D01*
X109220000Y-50800000D02*
X111125000Y-48895000D01*
X109220000Y-52959000D02*
X109220000Y-50800000D01*
X111125000Y-48895000D02*
X137160000Y-48895000D01*
X109220000Y-56261000D02*
X109220000Y-60960000D01*
X144780000Y-74930000D02*
X144780000Y-60071000D01*
X119380000Y-56515000D02*
X119380000Y-60960000D01*
X120650000Y-55245000D02*
X129540000Y-55245000D01*
X119380000Y-56515000D02*
X120650000Y-55245000D01*
X129540000Y-55245000D02*
X143510000Y-55245000D01*
X144780000Y-56769000D02*
X143510000Y-55245000D01*
X150876000Y-73914000D02*
X149860000Y-74930000D01*
X150876000Y-58420000D02*
X150876000Y-73914000D01*
X121920000Y-67310000D02*
X120650000Y-66040000D01*
X120650000Y-66040000D02*
X120650000Y-62230000D01*
X121920000Y-60960000D02*
X120650000Y-62230000D01*
X121920000Y-72390000D02*
X121920000Y-67310000D01*
X111760000Y-77470000D02*
X111125000Y-78105000D01*
X120650000Y-76835000D02*
X120650000Y-73660000D01*
X120650000Y-73660000D02*
X121920000Y-72390000D01*
X110490000Y-103505000D02*
X107315000Y-106680000D01*
X111125000Y-83820000D02*
X110490000Y-84455000D01*
X101600000Y-119380000D02*
X102235000Y-120015000D01*
X101600000Y-106680000D02*
X101600000Y-119380000D01*
X110490000Y-84455000D02*
X110490000Y-103505000D01*
X114300000Y-119380000D02*
X114300000Y-116840000D01*
X101600000Y-106680000D02*
X107315000Y-106680000D01*
X120015000Y-77470000D02*
X111760000Y-77470000D01*
X113665000Y-120015000D02*
X114300000Y-119380000D01*
X120650000Y-76835000D02*
X120015000Y-77470000D01*
X121920000Y-57150000D02*
X121920000Y-60960000D01*
X136525000Y-58420000D02*
X134620000Y-56515000D01*
X122555000Y-56515000D02*
X134620000Y-56515000D01*
X147574000Y-58420000D02*
X136525000Y-58420000D01*
X102235000Y-120015000D02*
X113665000Y-120015000D01*
X121920000Y-57150000D02*
X122555000Y-56515000D01*
X134620000Y-104521000D02*
X134620000Y-116205000D01*
X130175000Y-127000000D02*
X130175000Y-120650000D01*
X134620000Y-104521000D02*
X137795000Y-104521000D01*
X130175000Y-120650000D02*
X134620000Y-116205000D01*
X131284980Y-128109980D02*
X130175000Y-127000000D01*
X131284980Y-128109980D02*
X132080000Y-128109980D01*
X132080000Y-126111000D02*
X132080000Y-121285000D01*
X140970000Y-107315000D02*
X140970000Y-104521000D01*
X139319000Y-107315000D02*
X139319000Y-107696000D01*
X138430000Y-114935000D02*
X138430000Y-112395000D01*
X140970000Y-104521000D02*
X144145000Y-104521000D01*
X139065000Y-107569000D02*
X139319000Y-107315000D01*
X138430000Y-112395000D02*
X140970000Y-109855000D01*
X132080000Y-121285000D02*
X138430000Y-114935000D01*
X139319000Y-107315000D02*
X140970000Y-107315000D01*
X140970000Y-109855000D02*
X140970000Y-107315000D01*
X101600000Y-71501000D02*
X101600000Y-74930000D01*
X101600000Y-68199000D02*
X101600000Y-63500000D01*
X104140000Y-74930000D02*
X104140000Y-71501000D01*
X104140000Y-68199000D02*
X104140000Y-63500000D01*
X106680000Y-74930000D02*
X106680000Y-71501000D01*
X106680000Y-68199000D02*
X106680000Y-63500000D01*
X109220000Y-71501000D02*
X109220000Y-74930000D01*
X109220000Y-63500000D02*
X109220000Y-68199000D01*
X111760000Y-71501000D02*
X111760000Y-74930000D01*
X111760000Y-63500000D02*
X111760000Y-68199000D01*
X114300000Y-71501000D02*
X114300000Y-74930000D01*
X114300000Y-63500000D02*
X114300000Y-68199000D01*
X116840000Y-71501000D02*
X116840000Y-74930000D01*
X116840000Y-63500000D02*
X116840000Y-68199000D01*
X119380000Y-74930000D02*
X119380000Y-71501000D01*
X119380000Y-68199000D02*
X119380000Y-63500000D01*
X158115000Y-111760000D02*
X157480000Y-113030000D01*
X156210000Y-105410000D02*
X158115000Y-106680000D01*
X156210000Y-90170000D02*
X156210000Y-105410000D01*
X158115000Y-106680000D02*
X158115000Y-111760000D01*
X101600000Y-127000000D02*
X101600000Y-125586508D01*
X101600000Y-125586508D02*
X97790000Y-121776508D01*
X103505000Y-102235000D02*
X104140000Y-101600000D01*
X97790000Y-121776508D02*
X97790000Y-104140000D01*
X97790000Y-104140000D02*
X99695000Y-102235000D01*
X99695000Y-102235000D02*
X103505000Y-102235000D01*
X104140000Y-101600000D02*
X104140000Y-98171000D01*
X104140000Y-90170000D02*
X104140000Y-94869000D01*
X96520000Y-125095000D02*
X96520000Y-127000000D01*
X100330000Y-99695000D02*
X100330000Y-98171000D01*
X96520000Y-125095000D02*
X96520000Y-103505000D01*
X96520000Y-103505000D02*
X100330000Y-99695000D01*
X100330000Y-91440000D02*
X101600000Y-90170000D01*
X100330000Y-94869000D02*
X100330000Y-91440000D01*
X150495000Y-114300000D02*
X150495000Y-116459000D01*
X116840000Y-92710000D02*
X116840000Y-90170000D01*
X115570000Y-93980000D02*
X116840000Y-92710000D01*
X115570000Y-104140000D02*
X115570000Y-101600000D01*
X118110000Y-101600000D02*
X115570000Y-101600000D01*
X119380000Y-100330000D02*
X118110000Y-101600000D01*
X114300000Y-105410000D02*
X115570000Y-104140000D01*
X115570000Y-101600000D02*
X115570000Y-93980000D01*
X121920000Y-116840000D02*
X123444000Y-116840000D01*
X123444000Y-116840000D02*
X124079000Y-117475000D01*
X123825000Y-92710000D02*
X125095000Y-92710000D01*
X123190000Y-87630000D02*
X123190000Y-92075000D01*
X116840000Y-98425000D02*
X118110000Y-97155000D01*
X118110000Y-87630000D02*
X118745000Y-86995000D01*
X125730000Y-115824000D02*
X127381000Y-117475000D01*
X118745000Y-86995000D02*
X122555000Y-86995000D01*
X125730000Y-93345000D02*
X125730000Y-115824000D01*
X122555000Y-86995000D02*
X123190000Y-87630000D01*
X116840000Y-100330000D02*
X116840000Y-98425000D01*
X123190000Y-92075000D02*
X123825000Y-92710000D01*
X125095000Y-92710000D02*
X125730000Y-93345000D01*
X118110000Y-97155000D02*
X118110000Y-87630000D01*
X121920000Y-105410000D02*
X119380000Y-105410000D01*
X114300000Y-97790000D02*
X114300000Y-90170000D01*
X114300000Y-100330000D02*
X114300000Y-97790000D01*
X123190000Y-97790000D02*
X123190000Y-104140000D01*
X123190000Y-104140000D02*
X121920000Y-105410000D01*
X114300000Y-97790000D02*
X113030000Y-97790000D01*
X109601000Y-117475000D02*
X111760000Y-116840000D01*
X114300000Y-107950000D02*
X116840000Y-105410000D01*
X114300000Y-107950000D02*
X102870000Y-107950000D01*
X106299000Y-117475000D02*
X102870000Y-116840000D01*
X102870000Y-107950000D02*
X102870000Y-116840000D01*
X144780000Y-97536000D02*
X145796000Y-97536000D01*
X145796000Y-97536000D02*
X147955000Y-99695000D01*
X147955000Y-108585000D02*
X147955000Y-108585000D01*
X145732500Y-110807500D02*
X147955000Y-108585000D01*
X147955000Y-99695000D02*
X147955000Y-108585000D01*
X145732500Y-111760000D02*
X145732500Y-110807500D01*
X149860000Y-97536000D02*
X149860000Y-111442500D01*
X149860000Y-111442500D02*
X149542500Y-111760000D01*
X146050000Y-116459000D02*
X146050000Y-114935000D01*
X146050000Y-114935000D02*
X146685000Y-114300000D01*
X142240000Y-52705000D02*
X114554000Y-52705000D01*
X114554000Y-52705000D02*
X114300000Y-52959000D01*
X114300000Y-60960000D02*
X114300000Y-56261000D01*
X101600000Y-52959000D02*
X101600000Y-46355000D01*
X104137460Y-43817540D02*
X136522460Y-43850560D01*
X136522460Y-43850560D02*
X136525000Y-43850560D01*
X149225000Y-56515000D02*
X149225000Y-60325000D01*
X136525000Y-43850560D02*
X136560560Y-43850560D01*
X101600000Y-46355000D02*
X104137460Y-43817540D01*
X149225000Y-60325000D02*
X147320000Y-62230000D01*
X147320000Y-62230000D02*
X147320000Y-74930000D01*
X136560560Y-43850560D02*
X149225000Y-56515000D01*
X101600000Y-56261000D02*
X101600000Y-60960000D01*
X146304000Y-122555000D02*
X146304000Y-124396500D01*
X146304000Y-124396500D02*
X147002500Y-125095000D01*
X146050000Y-119761000D02*
X146050000Y-122301000D01*
X146050000Y-122301000D02*
X146304000Y-122555000D01*
X147320000Y-86741000D02*
X146939000Y-86360000D01*
X147320000Y-90170000D02*
X147320000Y-86741000D01*
X151130000Y-86360000D02*
X153035000Y-88265000D01*
X150241000Y-86360000D02*
X151130000Y-86360000D01*
X153035000Y-88265000D02*
X153035000Y-104775000D01*
X153035000Y-104775000D02*
X156210000Y-107950000D01*
X129540000Y-71374000D02*
X129794000Y-71120000D01*
X129540000Y-74930000D02*
X129540000Y-71374000D01*
X118745000Y-53975000D02*
X130175000Y-53975000D01*
X116840000Y-60960000D02*
X116840000Y-55880000D01*
X130175000Y-68199000D02*
X133096000Y-71120000D01*
X116840000Y-55880000D02*
X118745000Y-53975000D01*
X130175000Y-67945000D02*
X130175000Y-68199000D01*
X120015000Y-120650000D02*
X119380000Y-121285000D01*
X128905000Y-102870000D02*
X128905000Y-120015000D01*
X128270000Y-120650000D02*
X120015000Y-120650000D01*
X121920000Y-102870000D02*
X121920000Y-101600000D01*
X128905000Y-120015000D02*
X128270000Y-120650000D01*
X121920000Y-102870000D02*
X120650000Y-102870000D01*
X119380000Y-125730000D02*
X119380000Y-129159000D01*
X119380000Y-121285000D02*
X119380000Y-125730000D01*
X119380000Y-125730000D02*
X122174000Y-125730000D01*
X119380000Y-102870000D02*
X120650000Y-102870000D01*
X121920000Y-101600000D02*
X121920000Y-90170000D01*
X117221000Y-132461000D02*
X115570000Y-130810000D01*
X119380000Y-132461000D02*
X117221000Y-132461000D01*
X119380000Y-132461000D02*
X121539000Y-132461000D01*
X121539000Y-132461000D02*
X123190000Y-130810000D01*
X111760000Y-100330000D02*
X114300000Y-102870000D01*
X111760000Y-90170000D02*
X111760000Y-100330000D01*
X128270000Y-78105000D02*
X128905000Y-78740000D01*
X128270000Y-73025000D02*
X128270000Y-78105000D01*
X127635000Y-72390000D02*
X128270000Y-73025000D01*
X127635000Y-69215000D02*
X127635000Y-66040000D01*
X127635000Y-69215000D02*
X127635000Y-72390000D01*
X150495000Y-119761000D02*
X151384000Y-119761000D01*
X128905000Y-78740000D02*
X151130000Y-78740000D01*
X151130000Y-78740000D02*
X153035000Y-76835000D01*
X127635000Y-58420000D02*
X127000000Y-57785000D01*
X153035000Y-71755000D02*
X154940000Y-69850000D01*
X159385000Y-116840000D02*
X159385000Y-71755000D01*
X154940000Y-69850000D02*
X157480000Y-69850000D01*
X127635000Y-66040000D02*
X127635000Y-58420000D01*
X147955000Y-127635000D02*
X147955000Y-120650000D01*
X148844000Y-119761000D02*
X150495000Y-119761000D01*
X127635000Y-66675000D02*
X127635000Y-66040000D01*
X147955000Y-120650000D02*
X148844000Y-119761000D01*
X127000000Y-57785000D02*
X123825000Y-57785000D01*
X123190000Y-58420000D02*
X123190000Y-62230000D01*
X123190000Y-62230000D02*
X121920000Y-63500000D01*
X153035000Y-76835000D02*
X153035000Y-71755000D01*
X123825000Y-57785000D02*
X123190000Y-58420000D01*
X151384000Y-119761000D02*
X153035000Y-118110000D01*
X159385000Y-71755000D02*
X157480000Y-69850000D01*
X153035000Y-118110000D02*
X158115000Y-118110000D01*
X158115000Y-118110000D02*
X159385000Y-116840000D01*
X144780000Y-91440000D02*
X144780000Y-92710000D01*
X144780000Y-90170000D02*
X144780000Y-91440000D01*
X144780000Y-92710000D02*
X144780000Y-94234000D01*
X149860000Y-90170000D02*
X149860000Y-94234000D01*
X118110000Y-115570000D02*
X116840000Y-116840000D01*
X118110000Y-110871000D02*
X118110000Y-115570000D01*
X118110000Y-104140000D02*
X116840000Y-102870000D01*
X118110000Y-107569000D02*
X118110000Y-104140000D01*
X134620000Y-97155000D02*
X135890000Y-95885000D01*
X135890000Y-93980000D02*
X134620000Y-92710000D01*
X128270000Y-97155000D02*
X134620000Y-97155000D01*
X135890000Y-95885000D02*
X135890000Y-93980000D01*
X134620000Y-92710000D02*
X134620000Y-90170000D01*
X127381000Y-98044000D02*
X128270000Y-97155000D01*
X127381000Y-113665000D02*
X127381000Y-98044000D01*
X121920000Y-114300000D02*
X124079000Y-113665000D01*
X120269000Y-93599000D02*
X119380000Y-92710000D01*
X119380000Y-92710000D02*
X119380000Y-90170000D01*
X120269000Y-95250000D02*
X120269000Y-93599000D01*
X124460000Y-108585000D02*
X124460000Y-96520000D01*
X120650000Y-115570000D02*
X120650000Y-112395000D01*
X124460000Y-96520000D02*
X123571000Y-95250000D01*
X119380000Y-116840000D02*
X120650000Y-115570000D01*
X120650000Y-112395000D02*
X124460000Y-108585000D01*
X109220000Y-90170000D02*
X109220000Y-102235000D01*
X113030000Y-124460000D02*
X111760000Y-125730000D01*
X100330000Y-105410000D02*
X106045000Y-105410000D01*
X107950000Y-126365000D02*
X107950000Y-129159000D01*
X113030000Y-121920000D02*
X113030000Y-124460000D01*
X108585000Y-125730000D02*
X107950000Y-126365000D01*
X111760000Y-125730000D02*
X108585000Y-125730000D01*
X100330000Y-120015000D02*
X101600000Y-121285000D01*
X112395000Y-121285000D02*
X113030000Y-121920000D01*
X100330000Y-105410000D02*
X100330000Y-120015000D01*
X109220000Y-102235000D02*
X106045000Y-105410000D01*
X101600000Y-121285000D02*
X112395000Y-121285000D01*
X107950000Y-132461000D02*
X110109000Y-132461000D01*
X105791000Y-132461000D02*
X104140000Y-130810000D01*
X110109000Y-132461000D02*
X111760000Y-130810000D01*
X107950000Y-132461000D02*
X105791000Y-132461000D01*
X107950000Y-134874000D02*
X107950000Y-132461000D01*
X135255000Y-98425000D02*
X132080000Y-98425000D01*
X137160000Y-96520000D02*
X135255000Y-98425000D01*
X132080000Y-98425000D02*
X131445000Y-101219000D01*
X137160000Y-90170000D02*
X137160000Y-96520000D01*
X119380000Y-112395000D02*
X120650000Y-111125000D01*
X131445000Y-106680000D02*
X131445000Y-105410000D01*
X119380000Y-114300000D02*
X119380000Y-112395000D01*
X120650000Y-109220000D02*
X122555000Y-107315000D01*
X120650000Y-111125000D02*
X120650000Y-109220000D01*
X131445000Y-105410000D02*
X131445000Y-104521000D01*
X131445000Y-107315000D02*
X131445000Y-106680000D01*
X123190000Y-69215000D02*
X124460000Y-67945000D01*
X117475000Y-80010000D02*
X118745000Y-78740000D01*
X122555000Y-78740000D02*
X123190000Y-78105000D01*
X109220000Y-80010000D02*
X117475000Y-80010000D01*
X118745000Y-78740000D02*
X122555000Y-78740000D01*
X123190000Y-78105000D02*
X123190000Y-69215000D01*
X124460000Y-67945000D02*
X124460000Y-63500000D01*
X106045000Y-81597500D02*
X106680000Y-80962500D01*
X106045000Y-82804000D02*
X106045000Y-81597500D01*
X137795000Y-99695000D02*
X139700000Y-97790000D01*
X139700000Y-91440000D02*
X139700000Y-90170000D01*
X137795000Y-101219000D02*
X137795000Y-99695000D01*
X139700000Y-91440000D02*
X139700000Y-94615000D01*
X139700000Y-94615000D02*
X139700000Y-97790000D01*
X140970000Y-98425000D02*
X140970000Y-101219000D01*
X142240000Y-91440000D02*
X140970000Y-93980000D01*
X140970000Y-93980000D02*
X140970000Y-98425000D01*
X142240000Y-90170000D02*
X142240000Y-91440000D01*
X111760000Y-52959000D02*
X111760000Y-51435000D01*
X112395000Y-50800000D02*
X139700000Y-50800000D01*
X112395000Y-50800000D02*
X111760000Y-51435000D01*
X111760000Y-60960000D02*
X111760000Y-56261000D01*
X108585000Y-46990000D02*
X134620000Y-46990000D01*
X106680000Y-48895000D02*
X108585000Y-46990000D01*
X106680000Y-52959000D02*
X106680000Y-48895000D01*
X106680000Y-60960000D02*
X106680000Y-56261000D01*
X104140000Y-52959000D02*
X104140000Y-46990000D01*
X104140000Y-46990000D02*
X106045000Y-45085000D01*
X106045000Y-45085000D02*
X132080000Y-45085000D01*
X104140000Y-60960000D02*
X104140000Y-56261000D01*
X153670000Y-123190000D02*
X152400000Y-126365000D01*
X106680000Y-86741000D02*
X106045000Y-86106000D01*
X106680000Y-86741000D02*
X106045000Y-86106000D01*
X106680000Y-90170000D02*
X106680000Y-86741000D01*
X101600000Y-130953492D02*
X101600000Y-132842000D01*
X101600000Y-132842000D02*
X104648000Y-135890000D01*
X99060000Y-127000000D02*
X99060000Y-128413492D01*
X99060000Y-128413492D02*
X101600000Y-130953492D01*
X124460000Y-71120000D02*
X126365000Y-69215000D01*
X115570000Y-135890000D02*
X123190000Y-135890000D01*
X126365000Y-69215000D02*
X126365000Y-61595000D01*
X146685000Y-102235000D02*
X146685000Y-107315000D01*
X147637500Y-113030000D02*
X147320000Y-113030000D01*
X127000000Y-82550000D02*
X127000000Y-85090000D01*
X113665000Y-128270000D02*
X113665000Y-127000000D01*
X135890000Y-99695000D02*
X138430000Y-97155000D01*
X135890000Y-128109980D02*
X136050020Y-128109980D01*
X111760000Y-135890000D02*
X113665000Y-135890000D01*
X144145000Y-113030000D02*
X147320000Y-113030000D01*
X153670000Y-113030000D02*
X153670000Y-113804700D01*
X113665000Y-135890000D02*
X115570000Y-135890000D01*
X126860300Y-83820000D02*
X129159000Y-83820000D01*
X134620000Y-135255000D02*
X134620000Y-130810000D01*
X125730000Y-60960000D02*
X124460000Y-60960000D01*
X151765000Y-113030000D02*
X153670000Y-113030000D01*
X126860300Y-85090000D02*
X127000000Y-82550000D01*
X126365000Y-61595000D02*
X125730000Y-60960000D01*
X113665000Y-129540000D02*
X113665000Y-128270000D01*
X148272500Y-113030000D02*
X147955000Y-113030000D01*
X127350520Y-135890000D02*
X127000000Y-135890000D01*
X134620000Y-128109980D02*
X135890000Y-128109980D01*
X129540000Y-83439000D02*
X129540000Y-82550000D01*
X143510000Y-113030000D02*
X144145000Y-113030000D01*
X139240260Y-125554740D02*
X140970000Y-123825000D01*
X138430000Y-125554740D02*
X139240260Y-125554740D01*
X144145000Y-101219000D02*
X145669000Y-101219000D01*
X115570000Y-114300000D02*
X116840000Y-114300000D01*
X129540000Y-82550000D02*
X127000000Y-82550000D01*
X133350000Y-83439000D02*
X133350000Y-82550000D01*
X114300000Y-114300000D02*
X115570000Y-114300000D01*
X134620000Y-130810000D02*
X134620000Y-128109980D01*
X138430000Y-97155000D02*
X138430000Y-82550000D01*
X151447500Y-113030000D02*
X151765000Y-113030000D01*
X127000000Y-135890000D02*
X133985000Y-135890000D01*
X139349480Y-130810000D02*
X134620000Y-130810000D01*
X142875000Y-115570000D02*
X142875000Y-113665000D01*
X127000000Y-82550000D02*
X126860300Y-85090000D01*
X135890000Y-128109980D02*
X137320020Y-128109980D01*
X135255000Y-101600000D02*
X136525000Y-102870000D01*
X144145000Y-109855000D02*
X144145000Y-113030000D01*
X142875000Y-113665000D02*
X143510000Y-113030000D01*
X124460000Y-81534000D02*
X126746000Y-83820000D01*
X124460000Y-74930000D02*
X124460000Y-81534000D01*
X153670000Y-113804700D02*
X155575000Y-115709700D01*
X114935000Y-127000000D02*
X115570000Y-126365000D01*
X113665000Y-129540000D02*
X113665000Y-135890000D01*
X147955000Y-113030000D02*
X151765000Y-113030000D01*
X137320020Y-128109980D02*
X138430000Y-127000000D01*
X147637500Y-111760000D02*
X147637500Y-113030000D01*
X140970000Y-117475000D02*
X142875000Y-115570000D01*
X127350520Y-130810000D02*
X127350520Y-135890000D01*
X145669000Y-101219000D02*
X146685000Y-102235000D01*
X153670000Y-107950000D02*
X153670000Y-107950000D01*
X153670000Y-107950000D02*
X153670000Y-113030000D01*
X144145000Y-109855000D02*
X146685000Y-107315000D01*
X133350000Y-82550000D02*
X138430000Y-82550000D01*
X129540000Y-82550000D02*
X133350000Y-82550000D01*
X138430000Y-127000000D02*
X138430000Y-125554740D01*
X140970000Y-123825000D02*
X140970000Y-117475000D01*
X134620000Y-101219000D02*
X135890000Y-99695000D01*
X133985000Y-135890000D02*
X134620000Y-135255000D01*
X127000000Y-85090000D02*
X127000000Y-86360000D01*
X129159000Y-83820000D02*
X129540000Y-83439000D01*
X147320000Y-113030000D02*
X147955000Y-113030000D01*
X136525000Y-102870000D02*
X142875000Y-102870000D01*
X124460000Y-74930000D02*
X124460000Y-71120000D01*
X134620000Y-101219000D02*
X135255000Y-101600000D01*
X151447500Y-111760000D02*
X151447500Y-113030000D01*
X142875000Y-102870000D02*
X144145000Y-101219000D01*
X115570000Y-114300000D02*
X115570000Y-126365000D01*
X113665000Y-127000000D02*
X114935000Y-127000000D01*
X123190000Y-135890000D02*
X127000000Y-135890000D01*
X127000000Y-86360000D02*
X127000000Y-90170000D01*
X128270000Y-95250000D02*
X129540000Y-93980000D01*
X129540000Y-90170000D02*
X129540000Y-86741000D01*
X129540000Y-93980000D02*
X129540000Y-90170000D01*
X132080000Y-90170000D02*
X132080000Y-93980000D01*
X132080000Y-90170000D02*
X132080000Y-88011000D01*
X132080000Y-93980000D02*
X133350000Y-95250000D01*
X132080000Y-88011000D02*
X133350000Y-86741000D01*
D33*
G36*
X162176460Y-138681460D02*
X109601000Y-138681460D01*
X109601000Y-138461750D01*
X109442250Y-138303000D01*
X108077000Y-138303000D01*
X108077000Y-138323000D01*
X107823000Y-138323000D01*
X107823000Y-138303000D01*
X106457750Y-138303000D01*
X106299000Y-138461750D01*
X106299000Y-138681460D01*
X92458540Y-138681460D01*
X92458540Y-135186401D01*
X93659465Y-135186401D01*
X94093963Y-136237966D01*
X94897802Y-137043210D01*
X95948607Y-137479542D01*
X97086401Y-137480535D01*
X97709467Y-137223089D01*
X103494517Y-137223089D01*
X103623725Y-137515859D01*
X104323883Y-137784071D01*
X105073384Y-137763928D01*
X105672275Y-137515859D01*
X105772972Y-137287691D01*
X106299000Y-137287691D01*
X106299000Y-137890250D01*
X106457750Y-138049000D01*
X107823000Y-138049000D01*
X107823000Y-136937750D01*
X108077000Y-136937750D01*
X108077000Y-138049000D01*
X109442250Y-138049000D01*
X109601000Y-137890250D01*
X109601000Y-137287691D01*
X109574241Y-137223089D01*
X110352517Y-137223089D01*
X110481725Y-137515859D01*
X111181883Y-137784071D01*
X111931384Y-137763928D01*
X112530275Y-137515859D01*
X112659483Y-137223089D01*
X114924517Y-137223089D01*
X115053725Y-137515859D01*
X115753883Y-137784071D01*
X116503384Y-137763928D01*
X117102275Y-137515859D01*
X117231483Y-137223089D01*
X121782517Y-137223089D01*
X121911725Y-137515859D01*
X122611883Y-137784071D01*
X123361384Y-137763928D01*
X123960275Y-137515859D01*
X124089483Y-137223089D01*
X122936000Y-136069605D01*
X121782517Y-137223089D01*
X117231483Y-137223089D01*
X116078000Y-136069605D01*
X114924517Y-137223089D01*
X112659483Y-137223089D01*
X111506000Y-136069605D01*
X110352517Y-137223089D01*
X109574241Y-137223089D01*
X109504327Y-137054302D01*
X109325699Y-136875673D01*
X109092310Y-136779000D01*
X108235750Y-136779000D01*
X108077000Y-136937750D01*
X107823000Y-136937750D01*
X107664250Y-136779000D01*
X106807690Y-136779000D01*
X106574301Y-136875673D01*
X106395673Y-137054302D01*
X106299000Y-137287691D01*
X105772972Y-137287691D01*
X105801483Y-137223089D01*
X104648000Y-136069605D01*
X103494517Y-137223089D01*
X97709467Y-137223089D01*
X98137966Y-137046037D01*
X98943210Y-136242198D01*
X99224040Y-135565883D01*
X102753929Y-135565883D01*
X102774072Y-136315384D01*
X103022141Y-136914275D01*
X103314911Y-137043483D01*
X104468395Y-135890000D01*
X103314911Y-134736517D01*
X103022141Y-134865725D01*
X102753929Y-135565883D01*
X99224040Y-135565883D01*
X99379542Y-135191393D01*
X99380095Y-134556911D01*
X103494517Y-134556911D01*
X104648000Y-135710395D01*
X105801483Y-134556911D01*
X105672275Y-134264141D01*
X104972117Y-133995929D01*
X104222616Y-134016072D01*
X103623725Y-134264141D01*
X103494517Y-134556911D01*
X99380095Y-134556911D01*
X99380535Y-134053599D01*
X98946037Y-133002034D01*
X98142198Y-132196790D01*
X97091393Y-131760458D01*
X95953599Y-131759465D01*
X94902034Y-132193963D01*
X94096790Y-132997802D01*
X93660458Y-134048607D01*
X93659465Y-135186401D01*
X92458540Y-135186401D01*
X92458540Y-127361923D01*
X94692154Y-127361923D01*
X94969792Y-128033860D01*
X95483436Y-128548401D01*
X96154887Y-128827212D01*
X96881923Y-128827846D01*
X97553860Y-128550208D01*
X97905699Y-128198983D01*
X97973162Y-128266446D01*
X98087444Y-128152164D01*
X98186042Y-128418965D01*
X98795582Y-128645401D01*
X99445377Y-128621341D01*
X99933958Y-128418965D01*
X100032556Y-128152164D01*
X100146838Y-128266446D01*
X100214464Y-128198820D01*
X100563436Y-128548401D01*
X101234887Y-128827212D01*
X101961923Y-128827846D01*
X102633860Y-128550208D01*
X103148401Y-128036564D01*
X103427212Y-127365113D01*
X103427846Y-126638077D01*
X103150208Y-125966140D01*
X102716942Y-125532117D01*
X102641914Y-125154933D01*
X102397447Y-124789061D01*
X101291146Y-123682760D01*
X103600263Y-123682760D01*
X103851529Y-123934465D01*
X104449722Y-124182857D01*
X105097436Y-124183422D01*
X105696062Y-123936075D01*
X105949819Y-123682760D01*
X109315263Y-123682760D01*
X109566529Y-123934465D01*
X110164722Y-124182857D01*
X110812436Y-124183422D01*
X111411062Y-123936075D01*
X111869465Y-123478471D01*
X111902240Y-123399540D01*
X111902240Y-123992866D01*
X111292866Y-124602240D01*
X108585005Y-124602240D01*
X108585000Y-124602239D01*
X108173092Y-124684174D01*
X108153425Y-124688086D01*
X107787553Y-124932553D01*
X107787551Y-124932556D01*
X107152553Y-125567553D01*
X106908086Y-125933425D01*
X106822240Y-126365000D01*
X106822240Y-127573767D01*
X106627147Y-127610476D01*
X106345321Y-127791826D01*
X106156254Y-128068535D01*
X106089738Y-128397000D01*
X106089738Y-129567793D01*
X105572471Y-129049622D01*
X104809097Y-128732641D01*
X103982529Y-128731920D01*
X103218604Y-129047568D01*
X102633622Y-129631529D01*
X102316641Y-130394903D01*
X102315920Y-131221471D01*
X102631568Y-131985396D01*
X103215529Y-132570378D01*
X103978903Y-132887359D01*
X104623028Y-132887921D01*
X104993551Y-133258444D01*
X104993553Y-133258447D01*
X105279286Y-133449367D01*
X105359425Y-133502914D01*
X105791000Y-133588761D01*
X105791005Y-133588760D01*
X106185382Y-133588760D01*
X106235801Y-133667114D01*
X106156254Y-133783535D01*
X106089738Y-134112000D01*
X106089738Y-134784467D01*
X105981089Y-134736517D01*
X104827605Y-135890000D01*
X105981089Y-137043483D01*
X106273859Y-136914275D01*
X106494628Y-136337966D01*
X106605535Y-136413746D01*
X106934000Y-136480262D01*
X108966000Y-136480262D01*
X109272853Y-136422524D01*
X109554679Y-136241174D01*
X109627224Y-136135001D01*
X109632072Y-136315384D01*
X109880141Y-136914275D01*
X110172911Y-137043483D01*
X111326395Y-135890000D01*
X111685605Y-135890000D01*
X112839089Y-137043483D01*
X113131859Y-136914275D01*
X113400071Y-136214117D01*
X113382650Y-135565883D01*
X114183929Y-135565883D01*
X114204072Y-136315384D01*
X114452141Y-136914275D01*
X114744911Y-137043483D01*
X115898395Y-135890000D01*
X116257605Y-135890000D01*
X117411089Y-137043483D01*
X117703859Y-136914275D01*
X117972071Y-136214117D01*
X117954650Y-135565883D01*
X121041929Y-135565883D01*
X121062072Y-136315384D01*
X121310141Y-136914275D01*
X121602911Y-137043483D01*
X122756395Y-135890000D01*
X123115605Y-135890000D01*
X124269089Y-137043483D01*
X124561859Y-136914275D01*
X124830071Y-136214117D01*
X124809928Y-135464616D01*
X124694688Y-135186401D01*
X155254465Y-135186401D01*
X155688963Y-136237966D01*
X156492802Y-137043210D01*
X157543607Y-137479542D01*
X158681401Y-137480535D01*
X159732966Y-137046037D01*
X160538210Y-136242198D01*
X160974542Y-135191393D01*
X160975535Y-134053599D01*
X160541037Y-133002034D01*
X159737198Y-132196790D01*
X158686393Y-131760458D01*
X157548599Y-131759465D01*
X156497034Y-132193963D01*
X155691790Y-132997802D01*
X155255458Y-134048607D01*
X155254465Y-135186401D01*
X124694688Y-135186401D01*
X124561859Y-134865725D01*
X124269089Y-134736517D01*
X123115605Y-135890000D01*
X122756395Y-135890000D01*
X121602911Y-134736517D01*
X121310141Y-134865725D01*
X121041929Y-135565883D01*
X117954650Y-135565883D01*
X117951928Y-135464616D01*
X117703859Y-134865725D01*
X117411089Y-134736517D01*
X116257605Y-135890000D01*
X115898395Y-135890000D01*
X114744911Y-134736517D01*
X114452141Y-134865725D01*
X114183929Y-135565883D01*
X113382650Y-135565883D01*
X113379928Y-135464616D01*
X113131859Y-134865725D01*
X112839089Y-134736517D01*
X111685605Y-135890000D01*
X111326395Y-135890000D01*
X110172911Y-134736517D01*
X109880141Y-134865725D01*
X109810262Y-135048142D01*
X109810262Y-134556911D01*
X110352517Y-134556911D01*
X111506000Y-135710395D01*
X112659483Y-134556911D01*
X114924517Y-134556911D01*
X116078000Y-135710395D01*
X117231483Y-134556911D01*
X121782517Y-134556911D01*
X122936000Y-135710395D01*
X124089483Y-134556911D01*
X123960275Y-134264141D01*
X123260117Y-133995929D01*
X122510616Y-134016072D01*
X121911725Y-134264141D01*
X121782517Y-134556911D01*
X117231483Y-134556911D01*
X117102275Y-134264141D01*
X116402117Y-133995929D01*
X115652616Y-134016072D01*
X115053725Y-134264141D01*
X114924517Y-134556911D01*
X112659483Y-134556911D01*
X112530275Y-134264141D01*
X111830117Y-133995929D01*
X111080616Y-134016072D01*
X110481725Y-134264141D01*
X110352517Y-134556911D01*
X109810262Y-134556911D01*
X109810262Y-134112000D01*
X109752524Y-133805147D01*
X109664199Y-133667886D01*
X109718263Y-133588760D01*
X110109000Y-133588760D01*
X110540575Y-133502914D01*
X110906447Y-133258447D01*
X111277151Y-132887743D01*
X111663471Y-132888080D01*
X112427396Y-132572432D01*
X113012378Y-131988471D01*
X113329359Y-131225097D01*
X113330080Y-130398529D01*
X113014432Y-129634604D01*
X112430471Y-129049622D01*
X111667097Y-128732641D01*
X110840529Y-128731920D01*
X110076604Y-129047568D01*
X109810262Y-129313445D01*
X109810262Y-128397000D01*
X109752524Y-128090147D01*
X109571174Y-127808321D01*
X109294465Y-127619254D01*
X109077760Y-127575370D01*
X109077760Y-126857760D01*
X111760000Y-126857760D01*
X112191575Y-126771914D01*
X112557447Y-126527447D01*
X113827447Y-125257447D01*
X114071914Y-124891575D01*
X114157760Y-124460000D01*
X114157760Y-121920005D01*
X114157761Y-121920000D01*
X114071914Y-121488425D01*
X113967726Y-121332496D01*
X113827447Y-121122553D01*
X113827444Y-121122551D01*
X113817349Y-121112456D01*
X114096575Y-121056914D01*
X114462447Y-120812447D01*
X114462448Y-120812446D01*
X115097444Y-120177449D01*
X115097447Y-120177447D01*
X115341914Y-119811575D01*
X115382391Y-119608086D01*
X115422578Y-119406056D01*
X115451269Y-119386885D01*
X115570000Y-119209191D01*
X115688731Y-119386885D01*
X116216938Y-119739821D01*
X116840000Y-119863756D01*
X117463062Y-119739821D01*
X117991269Y-119386885D01*
X118110000Y-119209191D01*
X118228731Y-119386885D01*
X118756938Y-119739821D01*
X119241899Y-119836286D01*
X119217553Y-119852553D01*
X119217551Y-119852556D01*
X118582553Y-120487553D01*
X118338086Y-120853425D01*
X118252240Y-121285000D01*
X118252240Y-127573767D01*
X118057147Y-127610476D01*
X117775321Y-127791826D01*
X117586254Y-128068535D01*
X117519738Y-128397000D01*
X117519738Y-129567793D01*
X117002471Y-129049622D01*
X116239097Y-128732641D01*
X115412529Y-128731920D01*
X114648604Y-129047568D01*
X114063622Y-129631529D01*
X113746641Y-130394903D01*
X113745920Y-131221471D01*
X114061568Y-131985396D01*
X114645529Y-132570378D01*
X115408903Y-132887359D01*
X116053028Y-132887921D01*
X116423551Y-133258444D01*
X116423553Y-133258447D01*
X116709286Y-133449367D01*
X116789425Y-133502914D01*
X117221000Y-133588761D01*
X117221005Y-133588760D01*
X117615382Y-133588760D01*
X117758826Y-133811679D01*
X118035535Y-134000746D01*
X118364000Y-134067262D01*
X120396000Y-134067262D01*
X120702853Y-134009524D01*
X120984679Y-133828174D01*
X121148263Y-133588760D01*
X121539000Y-133588760D01*
X121970575Y-133502914D01*
X122336447Y-133258447D01*
X122707151Y-132887743D01*
X123093471Y-132888080D01*
X123584472Y-132685202D01*
X125654923Y-132685202D01*
X125875723Y-133055949D01*
X126847473Y-133449367D01*
X127895807Y-133440965D01*
X128825317Y-133055949D01*
X129046117Y-132685202D01*
X127350520Y-130989605D01*
X125654923Y-132685202D01*
X123584472Y-132685202D01*
X123857396Y-132572432D01*
X124442378Y-131988471D01*
X124719285Y-131321606D01*
X124719555Y-131355287D01*
X125104571Y-132284797D01*
X125475318Y-132505597D01*
X127170915Y-130810000D01*
X125475318Y-129114403D01*
X125104571Y-129335203D01*
X124716641Y-130293398D01*
X124444432Y-129634604D01*
X123860471Y-129049622D01*
X123097097Y-128732641D01*
X122270529Y-128731920D01*
X121506604Y-129047568D01*
X121240262Y-129313445D01*
X121240262Y-128397000D01*
X121182524Y-128090147D01*
X121001174Y-127808321D01*
X120724465Y-127619254D01*
X120507760Y-127575370D01*
X120507760Y-126857760D01*
X120588767Y-126857760D01*
X120625476Y-127052853D01*
X120806826Y-127334679D01*
X121083535Y-127523746D01*
X121412000Y-127590262D01*
X122936000Y-127590262D01*
X123242853Y-127532524D01*
X123524679Y-127351174D01*
X123713746Y-127074465D01*
X123780262Y-126746000D01*
X123780262Y-124714000D01*
X123722524Y-124407147D01*
X123541174Y-124125321D01*
X123264465Y-123936254D01*
X122936000Y-123869738D01*
X122272515Y-123869738D01*
X122459819Y-123682760D01*
X123992866Y-123682760D01*
X124303973Y-123993867D01*
X124125321Y-124108826D01*
X123936254Y-124385535D01*
X123869738Y-124714000D01*
X123869738Y-126746000D01*
X123927476Y-127052853D01*
X124108826Y-127334679D01*
X124385535Y-127523746D01*
X124714000Y-127590262D01*
X126238000Y-127590262D01*
X126544853Y-127532524D01*
X126826679Y-127351174D01*
X126907701Y-127232595D01*
X127845801Y-128170695D01*
X126805233Y-128179035D01*
X125875723Y-128564051D01*
X125654923Y-128934798D01*
X127350520Y-130630395D01*
X127364663Y-130616253D01*
X127544268Y-130795858D01*
X127530125Y-130810000D01*
X129225722Y-132505597D01*
X129485808Y-132350702D01*
X130647553Y-133512447D01*
X131013425Y-133756914D01*
X131445000Y-133842760D01*
X132080000Y-133842760D01*
X132511575Y-133756914D01*
X132877447Y-133512447D01*
X133704692Y-132685202D01*
X137653883Y-132685202D01*
X137874683Y-133055949D01*
X138846433Y-133449367D01*
X139894767Y-133440965D01*
X140824277Y-133055949D01*
X141045077Y-132685202D01*
X139349480Y-130989605D01*
X137653883Y-132685202D01*
X133704692Y-132685202D01*
X134147447Y-132242447D01*
X134391914Y-131876575D01*
X134477760Y-131445000D01*
X134477760Y-130738378D01*
X134493000Y-130730006D01*
X134493000Y-128887220D01*
X134747000Y-128887220D01*
X134747000Y-130730006D01*
X134969055Y-130851993D01*
X135051857Y-130834451D01*
X135544967Y-130564562D01*
X135752143Y-130306953D01*
X136710113Y-130306953D01*
X136718515Y-131355287D01*
X137103531Y-132284797D01*
X137474278Y-132505597D01*
X139169875Y-130810000D01*
X139529085Y-130810000D01*
X141224682Y-132505597D01*
X141595429Y-132284797D01*
X141988847Y-131313047D01*
X141980445Y-130264713D01*
X141595429Y-129335203D01*
X141224682Y-129114403D01*
X139529085Y-130810000D01*
X139169875Y-130810000D01*
X137474278Y-129114403D01*
X137103531Y-129335203D01*
X136710113Y-130306953D01*
X135752143Y-130306953D01*
X135897259Y-130126512D01*
X136055100Y-129586990D01*
X136055100Y-128934798D01*
X137653883Y-128934798D01*
X139349480Y-130630395D01*
X141045077Y-128934798D01*
X140824277Y-128564051D01*
X139852527Y-128170633D01*
X138804193Y-128179035D01*
X137874683Y-128564051D01*
X137653883Y-128934798D01*
X136055100Y-128934798D01*
X136055100Y-128887220D01*
X134747000Y-128887220D01*
X134493000Y-128887220D01*
X134477760Y-128887220D01*
X134477760Y-128633220D01*
X134493000Y-128633220D01*
X134493000Y-128613220D01*
X134747000Y-128613220D01*
X134747000Y-128633220D01*
X136055100Y-128633220D01*
X136055100Y-127933450D01*
X135897259Y-127393928D01*
X135815114Y-127291786D01*
X136124205Y-126829198D01*
X136248140Y-126206136D01*
X136248140Y-125840490D01*
X136295130Y-125840490D01*
X136295130Y-126680539D01*
X136391803Y-126913928D01*
X136570431Y-127092557D01*
X136803820Y-127189230D01*
X138144250Y-127189230D01*
X138303000Y-127030480D01*
X138303000Y-125681740D01*
X138557000Y-125681740D01*
X138557000Y-127030480D01*
X138715750Y-127189230D01*
X140056180Y-127189230D01*
X140289569Y-127092557D01*
X140468197Y-126913928D01*
X140564870Y-126680539D01*
X140564870Y-125840490D01*
X140406120Y-125681740D01*
X138557000Y-125681740D01*
X138303000Y-125681740D01*
X136453880Y-125681740D01*
X136295130Y-125840490D01*
X136248140Y-125840490D01*
X136248140Y-124715384D01*
X136191163Y-124428941D01*
X136295130Y-124428941D01*
X136295130Y-125268990D01*
X136453880Y-125427740D01*
X138303000Y-125427740D01*
X138303000Y-124079000D01*
X138557000Y-124079000D01*
X138557000Y-125427740D01*
X140406120Y-125427740D01*
X140564870Y-125268990D01*
X140564870Y-124428941D01*
X140468197Y-124195552D01*
X140289569Y-124016923D01*
X140056180Y-123920250D01*
X138715750Y-123920250D01*
X138557000Y-124079000D01*
X138303000Y-124079000D01*
X138144250Y-123920250D01*
X136803820Y-123920250D01*
X136570431Y-124016923D01*
X136391803Y-124195552D01*
X136295130Y-124428941D01*
X136191163Y-124428941D01*
X136124205Y-124092322D01*
X135771269Y-123564115D01*
X135747760Y-123548407D01*
X135747760Y-122387134D01*
X136768593Y-121366300D01*
X136930130Y-121399012D01*
X139929870Y-121399012D01*
X140236723Y-121341274D01*
X140518549Y-121159924D01*
X140707616Y-120883215D01*
X140774132Y-120554750D01*
X140774132Y-118555770D01*
X140716394Y-118248917D01*
X140535044Y-117967091D01*
X140258335Y-117778024D01*
X139929870Y-117711508D01*
X139788386Y-117711508D01*
X141132447Y-116367447D01*
X141376914Y-116001575D01*
X141462760Y-115570000D01*
X141462760Y-113497134D01*
X143037447Y-111922447D01*
X143281914Y-111556575D01*
X143367760Y-111125000D01*
X143367760Y-109175262D01*
X143383000Y-109175262D01*
X143689853Y-109117524D01*
X143971679Y-108936174D01*
X144160746Y-108659465D01*
X144227262Y-108331000D01*
X144227262Y-106299000D01*
X144194947Y-106127262D01*
X145161000Y-106127262D01*
X145467853Y-106069524D01*
X145749679Y-105888174D01*
X145938746Y-105611465D01*
X146005262Y-105283000D01*
X146005262Y-103759000D01*
X145947524Y-103452147D01*
X145766174Y-103170321D01*
X145489465Y-102981254D01*
X145161000Y-102914738D01*
X143129000Y-102914738D01*
X142822147Y-102972476D01*
X142554077Y-103144974D01*
X142314465Y-102981254D01*
X141986000Y-102914738D01*
X139954000Y-102914738D01*
X139647147Y-102972476D01*
X139379077Y-103144974D01*
X139139465Y-102981254D01*
X138811000Y-102914738D01*
X136779000Y-102914738D01*
X136472147Y-102972476D01*
X136204077Y-103144974D01*
X135964465Y-102981254D01*
X135636000Y-102914738D01*
X133604000Y-102914738D01*
X133297147Y-102972476D01*
X133029077Y-103144974D01*
X132789465Y-102981254D01*
X132461000Y-102914738D01*
X130533102Y-102914738D01*
X130533180Y-102825262D01*
X132461000Y-102825262D01*
X132767853Y-102767524D01*
X133049679Y-102586174D01*
X133155814Y-102430840D01*
X133244301Y-102519327D01*
X133477690Y-102616000D01*
X134334250Y-102616000D01*
X134493000Y-102457250D01*
X134493000Y-101346000D01*
X134473000Y-101346000D01*
X134473000Y-101092000D01*
X134493000Y-101092000D01*
X134493000Y-99980750D01*
X134334250Y-99822000D01*
X133477690Y-99822000D01*
X133244301Y-99918673D01*
X133155632Y-100007343D01*
X133066174Y-99868321D01*
X132929687Y-99775063D01*
X132980210Y-99552760D01*
X135255000Y-99552760D01*
X135686575Y-99466914D01*
X136052447Y-99222447D01*
X137957447Y-97317447D01*
X138201914Y-96951575D01*
X138287760Y-96520000D01*
X138287760Y-92082353D01*
X138311269Y-92066645D01*
X138430000Y-91888951D01*
X138548731Y-92066645D01*
X138572240Y-92082353D01*
X138572240Y-97322866D01*
X136997553Y-98897553D01*
X136753086Y-99263425D01*
X136679894Y-99631386D01*
X136472147Y-99670476D01*
X136190321Y-99851826D01*
X136084186Y-100007160D01*
X135995699Y-99918673D01*
X135762310Y-99822000D01*
X134905750Y-99822000D01*
X134747000Y-99980750D01*
X134747000Y-101092000D01*
X134767000Y-101092000D01*
X134767000Y-101346000D01*
X134747000Y-101346000D01*
X134747000Y-102457250D01*
X134905750Y-102616000D01*
X135762310Y-102616000D01*
X135995699Y-102519327D01*
X136084368Y-102430657D01*
X136173826Y-102569679D01*
X136450535Y-102758746D01*
X136779000Y-102825262D01*
X138811000Y-102825262D01*
X139117853Y-102767524D01*
X139385923Y-102595026D01*
X139625535Y-102758746D01*
X139954000Y-102825262D01*
X141986000Y-102825262D01*
X142292853Y-102767524D01*
X142574679Y-102586174D01*
X142680814Y-102430840D01*
X142769301Y-102519327D01*
X143002690Y-102616000D01*
X143859250Y-102616000D01*
X144018000Y-102457250D01*
X144018000Y-101346000D01*
X144272000Y-101346000D01*
X144272000Y-102457250D01*
X144430750Y-102616000D01*
X145287310Y-102616000D01*
X145520699Y-102519327D01*
X145699327Y-102340698D01*
X145796000Y-102107309D01*
X145796000Y-101504750D01*
X145637250Y-101346000D01*
X144272000Y-101346000D01*
X144018000Y-101346000D01*
X143998000Y-101346000D01*
X143998000Y-101092000D01*
X144018000Y-101092000D01*
X144018000Y-99980750D01*
X144272000Y-99980750D01*
X144272000Y-101092000D01*
X145637250Y-101092000D01*
X145796000Y-100933250D01*
X145796000Y-100330691D01*
X145699327Y-100097302D01*
X145520699Y-99918673D01*
X145287310Y-99822000D01*
X144430750Y-99822000D01*
X144272000Y-99980750D01*
X144018000Y-99980750D01*
X143859250Y-99822000D01*
X143002690Y-99822000D01*
X142769301Y-99918673D01*
X142680632Y-100007343D01*
X142591174Y-99868321D01*
X142314465Y-99679254D01*
X142097760Y-99635370D01*
X142097760Y-94246228D01*
X143085346Y-92271056D01*
X143391269Y-92066645D01*
X143510000Y-91888951D01*
X143628731Y-92066645D01*
X143652240Y-92082353D01*
X143652240Y-92648767D01*
X143457147Y-92685476D01*
X143175321Y-92866826D01*
X142986254Y-93143535D01*
X142919738Y-93472000D01*
X142919738Y-94996000D01*
X142977476Y-95302853D01*
X143158826Y-95584679D01*
X143435535Y-95773746D01*
X143764000Y-95840262D01*
X145796000Y-95840262D01*
X146102853Y-95782524D01*
X146384679Y-95601174D01*
X146573746Y-95324465D01*
X146640262Y-94996000D01*
X146640262Y-93472000D01*
X146582524Y-93165147D01*
X146401174Y-92883321D01*
X146124465Y-92694254D01*
X145907760Y-92650370D01*
X145907760Y-92082353D01*
X145931269Y-92066645D01*
X146050000Y-91888951D01*
X146168731Y-92066645D01*
X146696938Y-92419581D01*
X147320000Y-92543516D01*
X147943062Y-92419581D01*
X148471269Y-92066645D01*
X148590000Y-91888951D01*
X148708731Y-92066645D01*
X148732240Y-92082353D01*
X148732240Y-92648767D01*
X148537147Y-92685476D01*
X148255321Y-92866826D01*
X148066254Y-93143535D01*
X147999738Y-93472000D01*
X147999738Y-94996000D01*
X148057476Y-95302853D01*
X148238826Y-95584679D01*
X148515535Y-95773746D01*
X148844000Y-95840262D01*
X150876000Y-95840262D01*
X151182853Y-95782524D01*
X151464679Y-95601174D01*
X151653746Y-95324465D01*
X151720262Y-94996000D01*
X151720262Y-93472000D01*
X151662524Y-93165147D01*
X151481174Y-92883321D01*
X151204465Y-92694254D01*
X150987760Y-92650370D01*
X150987760Y-92082353D01*
X151011269Y-92066645D01*
X151364205Y-91538438D01*
X151488140Y-90915376D01*
X151488140Y-89424624D01*
X151364205Y-88801562D01*
X151011269Y-88273355D01*
X150931810Y-88220262D01*
X151003000Y-88220262D01*
X151309853Y-88162524D01*
X151326754Y-88151648D01*
X151907240Y-88732134D01*
X151907240Y-104775000D01*
X151993086Y-105206575D01*
X152237553Y-105572447D01*
X153281606Y-106616500D01*
X152845191Y-106616500D01*
X152611802Y-106713173D01*
X152433173Y-106891801D01*
X152336500Y-107125190D01*
X152336500Y-107664250D01*
X152495250Y-107823000D01*
X153543000Y-107823000D01*
X153543000Y-107803000D01*
X153797000Y-107803000D01*
X153797000Y-107823000D01*
X153817000Y-107823000D01*
X153817000Y-108077000D01*
X153797000Y-108077000D01*
X153797000Y-109124750D01*
X153955750Y-109283500D01*
X154494809Y-109283500D01*
X154728198Y-109186827D01*
X154906827Y-109008199D01*
X154966227Y-108864795D01*
X155344155Y-109243383D01*
X155905020Y-109476275D01*
X156512315Y-109476805D01*
X156987240Y-109280570D01*
X156987240Y-111375764D01*
X156508646Y-111573515D01*
X156025213Y-112056105D01*
X155763259Y-112686961D01*
X155762662Y-113370042D01*
X156023515Y-114001354D01*
X156196129Y-114174270D01*
X155860750Y-114174270D01*
X155702000Y-114333020D01*
X155702000Y-115582700D01*
X157401260Y-115582700D01*
X157560010Y-115423950D01*
X157560010Y-114747111D01*
X157820042Y-114747338D01*
X158257240Y-114566691D01*
X158257240Y-116372866D01*
X157647866Y-116982240D01*
X157450925Y-116982240D01*
X157463337Y-116969828D01*
X157560010Y-116736439D01*
X157560010Y-115995450D01*
X157401260Y-115836700D01*
X155702000Y-115836700D01*
X155702000Y-115856700D01*
X155448000Y-115856700D01*
X155448000Y-115836700D01*
X153748740Y-115836700D01*
X153589990Y-115995450D01*
X153589990Y-116736439D01*
X153686663Y-116969828D01*
X153699075Y-116982240D01*
X153035005Y-116982240D01*
X153035000Y-116982239D01*
X152603425Y-117068086D01*
X152352240Y-117235922D01*
X152355262Y-117221000D01*
X152355262Y-115697000D01*
X152297524Y-115390147D01*
X152116174Y-115108321D01*
X151839642Y-114919375D01*
X151839642Y-114102196D01*
X152777409Y-114102196D01*
X152862467Y-114357539D01*
X153431965Y-114565516D01*
X153642348Y-114556558D01*
X153589990Y-114682961D01*
X153589990Y-115423950D01*
X153748740Y-115582700D01*
X155448000Y-115582700D01*
X155448000Y-114333020D01*
X155289250Y-114174270D01*
X154538582Y-114174270D01*
X154562591Y-114102196D01*
X153670000Y-113209605D01*
X152777409Y-114102196D01*
X151839642Y-114102196D01*
X151839642Y-113549430D01*
X151781904Y-113242577D01*
X151694631Y-113106951D01*
X151733250Y-113145570D01*
X152074189Y-113145570D01*
X152148235Y-113114899D01*
X152160277Y-113397700D01*
X152342461Y-113837533D01*
X152597804Y-113922591D01*
X153490395Y-113030000D01*
X153849605Y-113030000D01*
X154742196Y-113922591D01*
X154997539Y-113837533D01*
X155205516Y-113268035D01*
X155179723Y-112662300D01*
X154997539Y-112222467D01*
X154742196Y-112137409D01*
X153849605Y-113030000D01*
X153490395Y-113030000D01*
X152597804Y-112137409D01*
X152582880Y-112142380D01*
X152582880Y-112045750D01*
X152494934Y-111957804D01*
X152777409Y-111957804D01*
X153670000Y-112850395D01*
X154562591Y-111957804D01*
X154477533Y-111702461D01*
X153908035Y-111494484D01*
X153302300Y-111520277D01*
X152862467Y-111702461D01*
X152777409Y-111957804D01*
X152494934Y-111957804D01*
X152424130Y-111887000D01*
X151574500Y-111887000D01*
X151574500Y-111907000D01*
X151320500Y-111907000D01*
X151320500Y-111887000D01*
X151300500Y-111887000D01*
X151300500Y-111633000D01*
X151320500Y-111633000D01*
X151320500Y-110533180D01*
X151574500Y-110533180D01*
X151574500Y-111633000D01*
X152424130Y-111633000D01*
X152582880Y-111474250D01*
X152582880Y-110883120D01*
X152486207Y-110649731D01*
X152307578Y-110471103D01*
X152074189Y-110374430D01*
X151733250Y-110374430D01*
X151574500Y-110533180D01*
X151320500Y-110533180D01*
X151161750Y-110374430D01*
X150987760Y-110374430D01*
X150987760Y-108235750D01*
X152336500Y-108235750D01*
X152336500Y-108774810D01*
X152433173Y-109008199D01*
X152611802Y-109186827D01*
X152845191Y-109283500D01*
X153384250Y-109283500D01*
X153543000Y-109124750D01*
X153543000Y-108077000D01*
X152495250Y-108077000D01*
X152336500Y-108235750D01*
X150987760Y-108235750D01*
X150987760Y-99121233D01*
X151182853Y-99084524D01*
X151464679Y-98903174D01*
X151653746Y-98626465D01*
X151720262Y-98298000D01*
X151720262Y-96774000D01*
X151662524Y-96467147D01*
X151481174Y-96185321D01*
X151204465Y-95996254D01*
X150876000Y-95929738D01*
X148844000Y-95929738D01*
X148537147Y-95987476D01*
X148255321Y-96168826D01*
X148066254Y-96445535D01*
X147999738Y-96774000D01*
X147999738Y-98144844D01*
X146640262Y-96785368D01*
X146640262Y-96774000D01*
X146582524Y-96467147D01*
X146401174Y-96185321D01*
X146124465Y-95996254D01*
X145796000Y-95929738D01*
X143764000Y-95929738D01*
X143457147Y-95987476D01*
X143175321Y-96168826D01*
X142986254Y-96445535D01*
X142919738Y-96774000D01*
X142919738Y-98298000D01*
X142977476Y-98604853D01*
X143158826Y-98886679D01*
X143435535Y-99075746D01*
X143764000Y-99142262D01*
X145796000Y-99142262D01*
X145805568Y-99140462D01*
X146827240Y-100162134D01*
X146827240Y-108117867D01*
X144935053Y-110010053D01*
X144692937Y-110372406D01*
X144643441Y-110404256D01*
X144454374Y-110680965D01*
X144387858Y-111009430D01*
X144387858Y-112510570D01*
X144445596Y-112817423D01*
X144626946Y-113099249D01*
X144903655Y-113288316D01*
X145232120Y-113354832D01*
X145379765Y-113354832D01*
X145340358Y-113549430D01*
X145340358Y-114049748D01*
X145252553Y-114137553D01*
X145008086Y-114503425D01*
X144934894Y-114871386D01*
X144727147Y-114910476D01*
X144445321Y-115091826D01*
X144256254Y-115368535D01*
X144189738Y-115697000D01*
X144189738Y-117221000D01*
X144247476Y-117527853D01*
X144428826Y-117809679D01*
X144705535Y-117998746D01*
X145034000Y-118065262D01*
X147066000Y-118065262D01*
X147372853Y-118007524D01*
X147654679Y-117826174D01*
X147843746Y-117549465D01*
X147910262Y-117221000D01*
X147910262Y-115697000D01*
X147874766Y-115508354D01*
X147963126Y-115379035D01*
X148029642Y-115050570D01*
X148029642Y-113549430D01*
X147971904Y-113242577D01*
X147884631Y-113106951D01*
X147923250Y-113145570D01*
X148264189Y-113145570D01*
X148424124Y-113079323D01*
X148436946Y-113099249D01*
X148713655Y-113288316D01*
X149042120Y-113354832D01*
X149189765Y-113354832D01*
X149150358Y-113549430D01*
X149150358Y-114924497D01*
X148890321Y-115091826D01*
X148701254Y-115368535D01*
X148634738Y-115697000D01*
X148634738Y-117221000D01*
X148692476Y-117527853D01*
X148873826Y-117809679D01*
X149150535Y-117998746D01*
X149479000Y-118065262D01*
X151484845Y-118065262D01*
X151395368Y-118154738D01*
X149479000Y-118154738D01*
X149172147Y-118212476D01*
X148890321Y-118393826D01*
X148708292Y-118660234D01*
X148412425Y-118719086D01*
X148046553Y-118963553D01*
X147910262Y-119099844D01*
X147910262Y-118999000D01*
X147852524Y-118692147D01*
X147671174Y-118410321D01*
X147394465Y-118221254D01*
X147066000Y-118154738D01*
X145034000Y-118154738D01*
X144727147Y-118212476D01*
X144445321Y-118393826D01*
X144256254Y-118670535D01*
X144189738Y-118999000D01*
X144189738Y-120523000D01*
X144247476Y-120829853D01*
X144428826Y-121111679D01*
X144705535Y-121300746D01*
X144744392Y-121308615D01*
X144697738Y-121539000D01*
X144697738Y-123571000D01*
X144755476Y-123877853D01*
X144936826Y-124159679D01*
X145176240Y-124323263D01*
X145176240Y-124396500D01*
X145262086Y-124828075D01*
X145506553Y-125193947D01*
X145657858Y-125345252D01*
X145657858Y-125845570D01*
X145715596Y-126152423D01*
X145896946Y-126434249D01*
X146173655Y-126623316D01*
X146502120Y-126689832D01*
X146649765Y-126689832D01*
X146610358Y-126884430D01*
X146610358Y-128385570D01*
X146668096Y-128692423D01*
X146849446Y-128974249D01*
X147126155Y-129163316D01*
X147454620Y-129229832D01*
X148455380Y-129229832D01*
X148500107Y-129221416D01*
X148500140Y-129253172D01*
X148542531Y-129355210D01*
X148564086Y-129463575D01*
X148626120Y-129556416D01*
X148668958Y-129659530D01*
X148747167Y-129737575D01*
X148808553Y-129829447D01*
X148901395Y-129891482D01*
X148980431Y-129970353D01*
X149742431Y-130478353D01*
X149844557Y-130520530D01*
X149936425Y-130581914D01*
X150045936Y-130603697D01*
X150149142Y-130646320D01*
X150259634Y-130646204D01*
X150368000Y-130667760D01*
X154432000Y-130667760D01*
X154863575Y-130581914D01*
X155229447Y-130337447D01*
X155737444Y-129829449D01*
X155737447Y-129829447D01*
X155981914Y-129463575D01*
X156067760Y-129032000D01*
X156067760Y-127821472D01*
X156397046Y-127492760D01*
X157480000Y-127492760D01*
X157911575Y-127406914D01*
X158277447Y-127162447D01*
X158521914Y-126796575D01*
X158607760Y-126365000D01*
X158607760Y-124878336D01*
X158675853Y-124865524D01*
X158957679Y-124684174D01*
X159146746Y-124407465D01*
X159213262Y-124079000D01*
X159213262Y-122301000D01*
X159155524Y-121994147D01*
X158974174Y-121712321D01*
X158697465Y-121523254D01*
X158369000Y-121456738D01*
X157759955Y-121456738D01*
X157769272Y-121410730D01*
X157769272Y-119609870D01*
X157711534Y-119303017D01*
X157669542Y-119237760D01*
X158115000Y-119237760D01*
X158546575Y-119151914D01*
X158912447Y-118907447D01*
X160182447Y-117637447D01*
X160426914Y-117271575D01*
X160512760Y-116840000D01*
X160512760Y-71755000D01*
X160426914Y-71323425D01*
X160182447Y-70957553D01*
X158277447Y-69052553D01*
X157911575Y-68808086D01*
X157480000Y-68722240D01*
X154940000Y-68722240D01*
X154508425Y-68808086D01*
X154142553Y-69052553D01*
X152237553Y-70957553D01*
X152003760Y-71307450D01*
X152003760Y-60184618D01*
X152226679Y-60041174D01*
X152415746Y-59764465D01*
X152482262Y-59436000D01*
X152482262Y-57404000D01*
X152424524Y-57097147D01*
X152243174Y-56815321D01*
X151966465Y-56626254D01*
X151638000Y-56559738D01*
X150352760Y-56559738D01*
X150352760Y-56515000D01*
X150266914Y-56083425D01*
X150022447Y-55717553D01*
X143405126Y-49100232D01*
X151726961Y-49100232D01*
X151726961Y-45651401D01*
X155254465Y-45651401D01*
X155688963Y-46702966D01*
X156492802Y-47508210D01*
X157543607Y-47944542D01*
X158681401Y-47945535D01*
X159732966Y-47511037D01*
X160538210Y-46707198D01*
X160974542Y-45656393D01*
X160975535Y-44518599D01*
X160541037Y-43467034D01*
X159737198Y-42661790D01*
X158686393Y-42225458D01*
X157548599Y-42224465D01*
X156497034Y-42658963D01*
X155691790Y-43462802D01*
X155255458Y-44513607D01*
X155254465Y-45651401D01*
X151726961Y-45651401D01*
X151726961Y-42639742D01*
X141643040Y-42639742D01*
X141643040Y-47338146D01*
X137358007Y-43053113D01*
X136992135Y-42808646D01*
X136560560Y-42722800D01*
X136522629Y-42722800D01*
X104138610Y-42689781D01*
X104138036Y-42689895D01*
X104137460Y-42689780D01*
X103921743Y-42732689D01*
X103706948Y-42775187D01*
X103706462Y-42775511D01*
X103705885Y-42775626D01*
X103523717Y-42897347D01*
X103340826Y-43019280D01*
X103340498Y-43019770D01*
X103340013Y-43020094D01*
X100802553Y-45557553D01*
X100558086Y-45923425D01*
X100472240Y-46355000D01*
X100472240Y-51373767D01*
X100277147Y-51410476D01*
X99995321Y-51591826D01*
X99806254Y-51868535D01*
X99739738Y-52197000D01*
X99739738Y-53721000D01*
X99797476Y-54027853D01*
X99978826Y-54309679D01*
X100255535Y-54498746D01*
X100584000Y-54565262D01*
X102616000Y-54565262D01*
X102879326Y-54515714D01*
X103124000Y-54565262D01*
X105156000Y-54565262D01*
X105419326Y-54515714D01*
X105664000Y-54565262D01*
X107696000Y-54565262D01*
X107959326Y-54515714D01*
X108204000Y-54565262D01*
X110236000Y-54565262D01*
X110499326Y-54515714D01*
X110744000Y-54565262D01*
X112776000Y-54565262D01*
X113039326Y-54515714D01*
X113284000Y-54565262D01*
X115316000Y-54565262D01*
X115622853Y-54507524D01*
X115904679Y-54326174D01*
X116093746Y-54049465D01*
X116137630Y-53832760D01*
X117292346Y-53832760D01*
X116042553Y-55082553D01*
X116037178Y-55090597D01*
X115921174Y-54910321D01*
X115644465Y-54721254D01*
X115316000Y-54654738D01*
X113284000Y-54654738D01*
X113020674Y-54704286D01*
X112776000Y-54654738D01*
X110744000Y-54654738D01*
X110480674Y-54704286D01*
X110236000Y-54654738D01*
X108204000Y-54654738D01*
X107940674Y-54704286D01*
X107696000Y-54654738D01*
X105664000Y-54654738D01*
X105400674Y-54704286D01*
X105156000Y-54654738D01*
X103124000Y-54654738D01*
X102860674Y-54704286D01*
X102616000Y-54654738D01*
X100584000Y-54654738D01*
X100277147Y-54712476D01*
X99995321Y-54893826D01*
X99806254Y-55170535D01*
X99739738Y-55499000D01*
X99739738Y-57023000D01*
X99797476Y-57329853D01*
X99978826Y-57611679D01*
X100255535Y-57800746D01*
X100472240Y-57844630D01*
X100472240Y-58397407D01*
X100448731Y-58413115D01*
X100095795Y-58941322D01*
X99971860Y-59564384D01*
X99971860Y-61055136D01*
X100095795Y-61678198D01*
X100448731Y-62206405D01*
X100484043Y-62230000D01*
X100448731Y-62253595D01*
X100095795Y-62781802D01*
X99971860Y-63404864D01*
X99971860Y-64895616D01*
X100095795Y-65518678D01*
X100448731Y-66046885D01*
X100472240Y-66062593D01*
X100472240Y-66613767D01*
X100277147Y-66650476D01*
X99995321Y-66831826D01*
X99806254Y-67108535D01*
X99739738Y-67437000D01*
X99739738Y-68961000D01*
X99797476Y-69267853D01*
X99978826Y-69549679D01*
X100255535Y-69738746D01*
X100584000Y-69805262D01*
X102616000Y-69805262D01*
X102879326Y-69755714D01*
X103124000Y-69805262D01*
X105156000Y-69805262D01*
X105419326Y-69755714D01*
X105664000Y-69805262D01*
X107696000Y-69805262D01*
X107959326Y-69755714D01*
X108204000Y-69805262D01*
X110236000Y-69805262D01*
X110499326Y-69755714D01*
X110744000Y-69805262D01*
X112776000Y-69805262D01*
X113039326Y-69755714D01*
X113284000Y-69805262D01*
X115316000Y-69805262D01*
X115579326Y-69755714D01*
X115824000Y-69805262D01*
X117856000Y-69805262D01*
X118119326Y-69755714D01*
X118364000Y-69805262D01*
X120396000Y-69805262D01*
X120702853Y-69747524D01*
X120792240Y-69690005D01*
X120792240Y-70007563D01*
X120724465Y-69961254D01*
X120396000Y-69894738D01*
X118364000Y-69894738D01*
X118100674Y-69944286D01*
X117856000Y-69894738D01*
X115824000Y-69894738D01*
X115560674Y-69944286D01*
X115316000Y-69894738D01*
X113284000Y-69894738D01*
X113020674Y-69944286D01*
X112776000Y-69894738D01*
X110744000Y-69894738D01*
X110480674Y-69944286D01*
X110236000Y-69894738D01*
X108204000Y-69894738D01*
X107940674Y-69944286D01*
X107696000Y-69894738D01*
X105664000Y-69894738D01*
X105400674Y-69944286D01*
X105156000Y-69894738D01*
X103124000Y-69894738D01*
X102860674Y-69944286D01*
X102616000Y-69894738D01*
X100584000Y-69894738D01*
X100277147Y-69952476D01*
X99995321Y-70133826D01*
X99806254Y-70410535D01*
X99739738Y-70739000D01*
X99739738Y-72263000D01*
X99797476Y-72569853D01*
X99978826Y-72851679D01*
X100255535Y-73040746D01*
X100421355Y-73074326D01*
X100095795Y-73561562D01*
X99971860Y-74184624D01*
X99971860Y-75675376D01*
X100095795Y-76298438D01*
X100448731Y-76826645D01*
X100976938Y-77179581D01*
X101600000Y-77303516D01*
X102223062Y-77179581D01*
X102751269Y-76826645D01*
X102870000Y-76648951D01*
X102988731Y-76826645D01*
X103516938Y-77179581D01*
X104140000Y-77303516D01*
X104763062Y-77179581D01*
X105291269Y-76826645D01*
X105410000Y-76648951D01*
X105528731Y-76826645D01*
X106056938Y-77179581D01*
X106680000Y-77303516D01*
X107303062Y-77179581D01*
X107831269Y-76826645D01*
X107950000Y-76648951D01*
X108068731Y-76826645D01*
X108596938Y-77179581D01*
X109220000Y-77303516D01*
X109737636Y-77200552D01*
X109497143Y-77779722D01*
X109496578Y-78427436D01*
X109594885Y-78665358D01*
X108469430Y-78665358D01*
X108274832Y-78701974D01*
X108274832Y-78557120D01*
X108217094Y-78250267D01*
X108035744Y-77968441D01*
X107759035Y-77779374D01*
X107430570Y-77712858D01*
X105929430Y-77712858D01*
X105622577Y-77770596D01*
X105375260Y-77929740D01*
X105092500Y-77929740D01*
X104660925Y-78015586D01*
X104295053Y-78260053D01*
X102707553Y-79847553D01*
X102463086Y-80213425D01*
X102377240Y-80645000D01*
X102377240Y-83185000D01*
X102463086Y-83616575D01*
X102707553Y-83982447D01*
X103977553Y-85252447D01*
X104184738Y-85390883D01*
X104184738Y-86868000D01*
X104242476Y-87174853D01*
X104423826Y-87456679D01*
X104700535Y-87645746D01*
X105029000Y-87712262D01*
X105552240Y-87712262D01*
X105552240Y-88257647D01*
X105528731Y-88273355D01*
X105410000Y-88451049D01*
X105291269Y-88273355D01*
X104763062Y-87920419D01*
X104140000Y-87796484D01*
X103516938Y-87920419D01*
X102988731Y-88273355D01*
X102870000Y-88451049D01*
X102751269Y-88273355D01*
X102223062Y-87920419D01*
X101600000Y-87796484D01*
X100976938Y-87920419D01*
X100448731Y-88273355D01*
X100095795Y-88801562D01*
X99971860Y-89424624D01*
X99971860Y-90203246D01*
X99532553Y-90642553D01*
X99288086Y-91008425D01*
X99202240Y-91440000D01*
X99202240Y-93283767D01*
X99007147Y-93320476D01*
X98725321Y-93501826D01*
X98536254Y-93778535D01*
X98469738Y-94107000D01*
X98469738Y-95631000D01*
X98527476Y-95937853D01*
X98708826Y-96219679D01*
X98985535Y-96408746D01*
X99314000Y-96475262D01*
X101346000Y-96475262D01*
X101652853Y-96417524D01*
X101934679Y-96236174D01*
X102123746Y-95959465D01*
X102190262Y-95631000D01*
X102190262Y-94107000D01*
X102132524Y-93800147D01*
X101951174Y-93518321D01*
X101674465Y-93329254D01*
X101457760Y-93285370D01*
X101457760Y-92515223D01*
X101600000Y-92543516D01*
X102223062Y-92419581D01*
X102751269Y-92066645D01*
X102870000Y-91888951D01*
X102988731Y-92066645D01*
X103012240Y-92082353D01*
X103012240Y-93283767D01*
X102817147Y-93320476D01*
X102535321Y-93501826D01*
X102346254Y-93778535D01*
X102279738Y-94107000D01*
X102279738Y-95631000D01*
X102337476Y-95937853D01*
X102518826Y-96219679D01*
X102795535Y-96408746D01*
X103124000Y-96475262D01*
X105156000Y-96475262D01*
X105462853Y-96417524D01*
X105744679Y-96236174D01*
X105933746Y-95959465D01*
X106000262Y-95631000D01*
X106000262Y-94107000D01*
X105942524Y-93800147D01*
X105761174Y-93518321D01*
X105484465Y-93329254D01*
X105267760Y-93285370D01*
X105267760Y-92082353D01*
X105291269Y-92066645D01*
X105410000Y-91888951D01*
X105528731Y-92066645D01*
X106056938Y-92419581D01*
X106680000Y-92543516D01*
X106822240Y-92515223D01*
X106822240Y-100497866D01*
X104967225Y-102352881D01*
X105181914Y-102031575D01*
X105224022Y-101819886D01*
X105267761Y-101600000D01*
X105267760Y-101599995D01*
X105267760Y-99756233D01*
X105462853Y-99719524D01*
X105744679Y-99538174D01*
X105933746Y-99261465D01*
X106000262Y-98933000D01*
X106000262Y-97409000D01*
X105942524Y-97102147D01*
X105761174Y-96820321D01*
X105484465Y-96631254D01*
X105156000Y-96564738D01*
X103124000Y-96564738D01*
X102817147Y-96622476D01*
X102535321Y-96803826D01*
X102346254Y-97080535D01*
X102279738Y-97409000D01*
X102279738Y-98933000D01*
X102337476Y-99239853D01*
X102518826Y-99521679D01*
X102795535Y-99710746D01*
X103012240Y-99754630D01*
X103012240Y-101107240D01*
X100512654Y-101107240D01*
X101127447Y-100492447D01*
X101371914Y-100126575D01*
X101445107Y-99758614D01*
X101652853Y-99719524D01*
X101934679Y-99538174D01*
X102123746Y-99261465D01*
X102190262Y-98933000D01*
X102190262Y-97409000D01*
X102132524Y-97102147D01*
X101951174Y-96820321D01*
X101674465Y-96631254D01*
X101346000Y-96564738D01*
X99314000Y-96564738D01*
X99007147Y-96622476D01*
X98725321Y-96803826D01*
X98536254Y-97080535D01*
X98469738Y-97409000D01*
X98469738Y-98933000D01*
X98527476Y-99239853D01*
X98708826Y-99521679D01*
X98827405Y-99602701D01*
X95722553Y-102707553D01*
X95478086Y-103073425D01*
X95392240Y-103505000D01*
X95392240Y-125543528D01*
X94971599Y-125963436D01*
X94692788Y-126634887D01*
X94692154Y-127361923D01*
X92458540Y-127361923D01*
X92458540Y-45651401D01*
X93659465Y-45651401D01*
X94093963Y-46702966D01*
X94897802Y-47508210D01*
X95948607Y-47944542D01*
X97086401Y-47945535D01*
X98137966Y-47511037D01*
X98943210Y-46707198D01*
X99379542Y-45656393D01*
X99380535Y-44518599D01*
X98946037Y-43467034D01*
X98142198Y-42661790D01*
X97091393Y-42225458D01*
X95953599Y-42224465D01*
X94902034Y-42658963D01*
X94096790Y-43462802D01*
X93660458Y-44513607D01*
X93659465Y-45651401D01*
X92458540Y-45651401D01*
X92458540Y-41023540D01*
X162176460Y-41023540D01*
X162176460Y-138681460D01*
X162176460Y-138681460D01*
G37*
X162176460Y-138681460D02*
X109601000Y-138681460D01*
X109601000Y-138461750D01*
X109442250Y-138303000D01*
X108077000Y-138303000D01*
X108077000Y-138323000D01*
X107823000Y-138323000D01*
X107823000Y-138303000D01*
X106457750Y-138303000D01*
X106299000Y-138461750D01*
X106299000Y-138681460D01*
X92458540Y-138681460D01*
X92458540Y-135186401D01*
X93659465Y-135186401D01*
X94093963Y-136237966D01*
X94897802Y-137043210D01*
X95948607Y-137479542D01*
X97086401Y-137480535D01*
X97709467Y-137223089D01*
X103494517Y-137223089D01*
X103623725Y-137515859D01*
X104323883Y-137784071D01*
X105073384Y-137763928D01*
X105672275Y-137515859D01*
X105772972Y-137287691D01*
X106299000Y-137287691D01*
X106299000Y-137890250D01*
X106457750Y-138049000D01*
X107823000Y-138049000D01*
X107823000Y-136937750D01*
X108077000Y-136937750D01*
X108077000Y-138049000D01*
X109442250Y-138049000D01*
X109601000Y-137890250D01*
X109601000Y-137287691D01*
X109574241Y-137223089D01*
X110352517Y-137223089D01*
X110481725Y-137515859D01*
X111181883Y-137784071D01*
X111931384Y-137763928D01*
X112530275Y-137515859D01*
X112659483Y-137223089D01*
X114924517Y-137223089D01*
X115053725Y-137515859D01*
X115753883Y-137784071D01*
X116503384Y-137763928D01*
X117102275Y-137515859D01*
X117231483Y-137223089D01*
X121782517Y-137223089D01*
X121911725Y-137515859D01*
X122611883Y-137784071D01*
X123361384Y-137763928D01*
X123960275Y-137515859D01*
X124089483Y-137223089D01*
X122936000Y-136069605D01*
X121782517Y-137223089D01*
X117231483Y-137223089D01*
X116078000Y-136069605D01*
X114924517Y-137223089D01*
X112659483Y-137223089D01*
X111506000Y-136069605D01*
X110352517Y-137223089D01*
X109574241Y-137223089D01*
X109504327Y-137054302D01*
X109325699Y-136875673D01*
X109092310Y-136779000D01*
X108235750Y-136779000D01*
X108077000Y-136937750D01*
X107823000Y-136937750D01*
X107664250Y-136779000D01*
X106807690Y-136779000D01*
X106574301Y-136875673D01*
X106395673Y-137054302D01*
X106299000Y-137287691D01*
X105772972Y-137287691D01*
X105801483Y-137223089D01*
X104648000Y-136069605D01*
X103494517Y-137223089D01*
X97709467Y-137223089D01*
X98137966Y-137046037D01*
X98943210Y-136242198D01*
X99224040Y-135565883D01*
X102753929Y-135565883D01*
X102774072Y-136315384D01*
X103022141Y-136914275D01*
X103314911Y-137043483D01*
X104468395Y-135890000D01*
X103314911Y-134736517D01*
X103022141Y-134865725D01*
X102753929Y-135565883D01*
X99224040Y-135565883D01*
X99379542Y-135191393D01*
X99380095Y-134556911D01*
X103494517Y-134556911D01*
X104648000Y-135710395D01*
X105801483Y-134556911D01*
X105672275Y-134264141D01*
X104972117Y-133995929D01*
X104222616Y-134016072D01*
X103623725Y-134264141D01*
X103494517Y-134556911D01*
X99380095Y-134556911D01*
X99380535Y-134053599D01*
X98946037Y-133002034D01*
X98142198Y-132196790D01*
X97091393Y-131760458D01*
X95953599Y-131759465D01*
X94902034Y-132193963D01*
X94096790Y-132997802D01*
X93660458Y-134048607D01*
X93659465Y-135186401D01*
X92458540Y-135186401D01*
X92458540Y-127361923D01*
X94692154Y-127361923D01*
X94969792Y-128033860D01*
X95483436Y-128548401D01*
X96154887Y-128827212D01*
X96881923Y-128827846D01*
X97553860Y-128550208D01*
X97905699Y-128198983D01*
X97973162Y-128266446D01*
X98087444Y-128152164D01*
X98186042Y-128418965D01*
X98795582Y-128645401D01*
X99445377Y-128621341D01*
X99933958Y-128418965D01*
X100032556Y-128152164D01*
X100146838Y-128266446D01*
X100214464Y-128198820D01*
X100563436Y-128548401D01*
X101234887Y-128827212D01*
X101961923Y-128827846D01*
X102633860Y-128550208D01*
X103148401Y-128036564D01*
X103427212Y-127365113D01*
X103427846Y-126638077D01*
X103150208Y-125966140D01*
X102716942Y-125532117D01*
X102641914Y-125154933D01*
X102397447Y-124789061D01*
X101291146Y-123682760D01*
X103600263Y-123682760D01*
X103851529Y-123934465D01*
X104449722Y-124182857D01*
X105097436Y-124183422D01*
X105696062Y-123936075D01*
X105949819Y-123682760D01*
X109315263Y-123682760D01*
X109566529Y-123934465D01*
X110164722Y-124182857D01*
X110812436Y-124183422D01*
X111411062Y-123936075D01*
X111869465Y-123478471D01*
X111902240Y-123399540D01*
X111902240Y-123992866D01*
X111292866Y-124602240D01*
X108585005Y-124602240D01*
X108585000Y-124602239D01*
X108173092Y-124684174D01*
X108153425Y-124688086D01*
X107787553Y-124932553D01*
X107787551Y-124932556D01*
X107152553Y-125567553D01*
X106908086Y-125933425D01*
X106822240Y-126365000D01*
X106822240Y-127573767D01*
X106627147Y-127610476D01*
X106345321Y-127791826D01*
X106156254Y-128068535D01*
X106089738Y-128397000D01*
X106089738Y-129567793D01*
X105572471Y-129049622D01*
X104809097Y-128732641D01*
X103982529Y-128731920D01*
X103218604Y-129047568D01*
X102633622Y-129631529D01*
X102316641Y-130394903D01*
X102315920Y-131221471D01*
X102631568Y-131985396D01*
X103215529Y-132570378D01*
X103978903Y-132887359D01*
X104623028Y-132887921D01*
X104993551Y-133258444D01*
X104993553Y-133258447D01*
X105279286Y-133449367D01*
X105359425Y-133502914D01*
X105791000Y-133588761D01*
X105791005Y-133588760D01*
X106185382Y-133588760D01*
X106235801Y-133667114D01*
X106156254Y-133783535D01*
X106089738Y-134112000D01*
X106089738Y-134784467D01*
X105981089Y-134736517D01*
X104827605Y-135890000D01*
X105981089Y-137043483D01*
X106273859Y-136914275D01*
X106494628Y-136337966D01*
X106605535Y-136413746D01*
X106934000Y-136480262D01*
X108966000Y-136480262D01*
X109272853Y-136422524D01*
X109554679Y-136241174D01*
X109627224Y-136135001D01*
X109632072Y-136315384D01*
X109880141Y-136914275D01*
X110172911Y-137043483D01*
X111326395Y-135890000D01*
X111685605Y-135890000D01*
X112839089Y-137043483D01*
X113131859Y-136914275D01*
X113400071Y-136214117D01*
X113382650Y-135565883D01*
X114183929Y-135565883D01*
X114204072Y-136315384D01*
X114452141Y-136914275D01*
X114744911Y-137043483D01*
X115898395Y-135890000D01*
X116257605Y-135890000D01*
X117411089Y-137043483D01*
X117703859Y-136914275D01*
X117972071Y-136214117D01*
X117954650Y-135565883D01*
X121041929Y-135565883D01*
X121062072Y-136315384D01*
X121310141Y-136914275D01*
X121602911Y-137043483D01*
X122756395Y-135890000D01*
X123115605Y-135890000D01*
X124269089Y-137043483D01*
X124561859Y-136914275D01*
X124830071Y-136214117D01*
X124809928Y-135464616D01*
X124694688Y-135186401D01*
X155254465Y-135186401D01*
X155688963Y-136237966D01*
X156492802Y-137043210D01*
X157543607Y-137479542D01*
X158681401Y-137480535D01*
X159732966Y-137046037D01*
X160538210Y-136242198D01*
X160974542Y-135191393D01*
X160975535Y-134053599D01*
X160541037Y-133002034D01*
X159737198Y-132196790D01*
X158686393Y-131760458D01*
X157548599Y-131759465D01*
X156497034Y-132193963D01*
X155691790Y-132997802D01*
X155255458Y-134048607D01*
X155254465Y-135186401D01*
X124694688Y-135186401D01*
X124561859Y-134865725D01*
X124269089Y-134736517D01*
X123115605Y-135890000D01*
X122756395Y-135890000D01*
X121602911Y-134736517D01*
X121310141Y-134865725D01*
X121041929Y-135565883D01*
X117954650Y-135565883D01*
X117951928Y-135464616D01*
X117703859Y-134865725D01*
X117411089Y-134736517D01*
X116257605Y-135890000D01*
X115898395Y-135890000D01*
X114744911Y-134736517D01*
X114452141Y-134865725D01*
X114183929Y-135565883D01*
X113382650Y-135565883D01*
X113379928Y-135464616D01*
X113131859Y-134865725D01*
X112839089Y-134736517D01*
X111685605Y-135890000D01*
X111326395Y-135890000D01*
X110172911Y-134736517D01*
X109880141Y-134865725D01*
X109810262Y-135048142D01*
X109810262Y-134556911D01*
X110352517Y-134556911D01*
X111506000Y-135710395D01*
X112659483Y-134556911D01*
X114924517Y-134556911D01*
X116078000Y-135710395D01*
X117231483Y-134556911D01*
X121782517Y-134556911D01*
X122936000Y-135710395D01*
X124089483Y-134556911D01*
X123960275Y-134264141D01*
X123260117Y-133995929D01*
X122510616Y-134016072D01*
X121911725Y-134264141D01*
X121782517Y-134556911D01*
X117231483Y-134556911D01*
X117102275Y-134264141D01*
X116402117Y-133995929D01*
X115652616Y-134016072D01*
X115053725Y-134264141D01*
X114924517Y-134556911D01*
X112659483Y-134556911D01*
X112530275Y-134264141D01*
X111830117Y-133995929D01*
X111080616Y-134016072D01*
X110481725Y-134264141D01*
X110352517Y-134556911D01*
X109810262Y-134556911D01*
X109810262Y-134112000D01*
X109752524Y-133805147D01*
X109664199Y-133667886D01*
X109718263Y-133588760D01*
X110109000Y-133588760D01*
X110540575Y-133502914D01*
X110906447Y-133258447D01*
X111277151Y-132887743D01*
X111663471Y-132888080D01*
X112427396Y-132572432D01*
X113012378Y-131988471D01*
X113329359Y-131225097D01*
X113330080Y-130398529D01*
X113014432Y-129634604D01*
X112430471Y-129049622D01*
X111667097Y-128732641D01*
X110840529Y-128731920D01*
X110076604Y-129047568D01*
X109810262Y-129313445D01*
X109810262Y-128397000D01*
X109752524Y-128090147D01*
X109571174Y-127808321D01*
X109294465Y-127619254D01*
X109077760Y-127575370D01*
X109077760Y-126857760D01*
X111760000Y-126857760D01*
X112191575Y-126771914D01*
X112557447Y-126527447D01*
X113827447Y-125257447D01*
X114071914Y-124891575D01*
X114157760Y-124460000D01*
X114157760Y-121920005D01*
X114157761Y-121920000D01*
X114071914Y-121488425D01*
X113967726Y-121332496D01*
X113827447Y-121122553D01*
X113827444Y-121122551D01*
X113817349Y-121112456D01*
X114096575Y-121056914D01*
X114462447Y-120812447D01*
X114462448Y-120812446D01*
X115097444Y-120177449D01*
X115097447Y-120177447D01*
X115341914Y-119811575D01*
X115382391Y-119608086D01*
X115422578Y-119406056D01*
X115451269Y-119386885D01*
X115570000Y-119209191D01*
X115688731Y-119386885D01*
X116216938Y-119739821D01*
X116840000Y-119863756D01*
X117463062Y-119739821D01*
X117991269Y-119386885D01*
X118110000Y-119209191D01*
X118228731Y-119386885D01*
X118756938Y-119739821D01*
X119241899Y-119836286D01*
X119217553Y-119852553D01*
X119217551Y-119852556D01*
X118582553Y-120487553D01*
X118338086Y-120853425D01*
X118252240Y-121285000D01*
X118252240Y-127573767D01*
X118057147Y-127610476D01*
X117775321Y-127791826D01*
X117586254Y-128068535D01*
X117519738Y-128397000D01*
X117519738Y-129567793D01*
X117002471Y-129049622D01*
X116239097Y-128732641D01*
X115412529Y-128731920D01*
X114648604Y-129047568D01*
X114063622Y-129631529D01*
X113746641Y-130394903D01*
X113745920Y-131221471D01*
X114061568Y-131985396D01*
X114645529Y-132570378D01*
X115408903Y-132887359D01*
X116053028Y-132887921D01*
X116423551Y-133258444D01*
X116423553Y-133258447D01*
X116709286Y-133449367D01*
X116789425Y-133502914D01*
X117221000Y-133588761D01*
X117221005Y-133588760D01*
X117615382Y-133588760D01*
X117758826Y-133811679D01*
X118035535Y-134000746D01*
X118364000Y-134067262D01*
X120396000Y-134067262D01*
X120702853Y-134009524D01*
X120984679Y-133828174D01*
X121148263Y-133588760D01*
X121539000Y-133588760D01*
X121970575Y-133502914D01*
X122336447Y-133258447D01*
X122707151Y-132887743D01*
X123093471Y-132888080D01*
X123584472Y-132685202D01*
X125654923Y-132685202D01*
X125875723Y-133055949D01*
X126847473Y-133449367D01*
X127895807Y-133440965D01*
X128825317Y-133055949D01*
X129046117Y-132685202D01*
X127350520Y-130989605D01*
X125654923Y-132685202D01*
X123584472Y-132685202D01*
X123857396Y-132572432D01*
X124442378Y-131988471D01*
X124719285Y-131321606D01*
X124719555Y-131355287D01*
X125104571Y-132284797D01*
X125475318Y-132505597D01*
X127170915Y-130810000D01*
X125475318Y-129114403D01*
X125104571Y-129335203D01*
X124716641Y-130293398D01*
X124444432Y-129634604D01*
X123860471Y-129049622D01*
X123097097Y-128732641D01*
X122270529Y-128731920D01*
X121506604Y-129047568D01*
X121240262Y-129313445D01*
X121240262Y-128397000D01*
X121182524Y-128090147D01*
X121001174Y-127808321D01*
X120724465Y-127619254D01*
X120507760Y-127575370D01*
X120507760Y-126857760D01*
X120588767Y-126857760D01*
X120625476Y-127052853D01*
X120806826Y-127334679D01*
X121083535Y-127523746D01*
X121412000Y-127590262D01*
X122936000Y-127590262D01*
X123242853Y-127532524D01*
X123524679Y-127351174D01*
X123713746Y-127074465D01*
X123780262Y-126746000D01*
X123780262Y-124714000D01*
X123722524Y-124407147D01*
X123541174Y-124125321D01*
X123264465Y-123936254D01*
X122936000Y-123869738D01*
X122272515Y-123869738D01*
X122459819Y-123682760D01*
X123992866Y-123682760D01*
X124303973Y-123993867D01*
X124125321Y-124108826D01*
X123936254Y-124385535D01*
X123869738Y-124714000D01*
X123869738Y-126746000D01*
X123927476Y-127052853D01*
X124108826Y-127334679D01*
X124385535Y-127523746D01*
X124714000Y-127590262D01*
X126238000Y-127590262D01*
X126544853Y-127532524D01*
X126826679Y-127351174D01*
X126907701Y-127232595D01*
X127845801Y-128170695D01*
X126805233Y-128179035D01*
X125875723Y-128564051D01*
X125654923Y-128934798D01*
X127350520Y-130630395D01*
X127364663Y-130616253D01*
X127544268Y-130795858D01*
X127530125Y-130810000D01*
X129225722Y-132505597D01*
X129485808Y-132350702D01*
X130647553Y-133512447D01*
X131013425Y-133756914D01*
X131445000Y-133842760D01*
X132080000Y-133842760D01*
X132511575Y-133756914D01*
X132877447Y-133512447D01*
X133704692Y-132685202D01*
X137653883Y-132685202D01*
X137874683Y-133055949D01*
X138846433Y-133449367D01*
X139894767Y-133440965D01*
X140824277Y-133055949D01*
X141045077Y-132685202D01*
X139349480Y-130989605D01*
X137653883Y-132685202D01*
X133704692Y-132685202D01*
X134147447Y-132242447D01*
X134391914Y-131876575D01*
X134477760Y-131445000D01*
X134477760Y-130738378D01*
X134493000Y-130730006D01*
X134493000Y-128887220D01*
X134747000Y-128887220D01*
X134747000Y-130730006D01*
X134969055Y-130851993D01*
X135051857Y-130834451D01*
X135544967Y-130564562D01*
X135752143Y-130306953D01*
X136710113Y-130306953D01*
X136718515Y-131355287D01*
X137103531Y-132284797D01*
X137474278Y-132505597D01*
X139169875Y-130810000D01*
X139529085Y-130810000D01*
X141224682Y-132505597D01*
X141595429Y-132284797D01*
X141988847Y-131313047D01*
X141980445Y-130264713D01*
X141595429Y-129335203D01*
X141224682Y-129114403D01*
X139529085Y-130810000D01*
X139169875Y-130810000D01*
X137474278Y-129114403D01*
X137103531Y-129335203D01*
X136710113Y-130306953D01*
X135752143Y-130306953D01*
X135897259Y-130126512D01*
X136055100Y-129586990D01*
X136055100Y-128934798D01*
X137653883Y-128934798D01*
X139349480Y-130630395D01*
X141045077Y-128934798D01*
X140824277Y-128564051D01*
X139852527Y-128170633D01*
X138804193Y-128179035D01*
X137874683Y-128564051D01*
X137653883Y-128934798D01*
X136055100Y-128934798D01*
X136055100Y-128887220D01*
X134747000Y-128887220D01*
X134493000Y-128887220D01*
X134477760Y-128887220D01*
X134477760Y-128633220D01*
X134493000Y-128633220D01*
X134493000Y-128613220D01*
X134747000Y-128613220D01*
X134747000Y-128633220D01*
X136055100Y-128633220D01*
X136055100Y-127933450D01*
X135897259Y-127393928D01*
X135815114Y-127291786D01*
X136124205Y-126829198D01*
X136248140Y-126206136D01*
X136248140Y-125840490D01*
X136295130Y-125840490D01*
X136295130Y-126680539D01*
X136391803Y-126913928D01*
X136570431Y-127092557D01*
X136803820Y-127189230D01*
X138144250Y-127189230D01*
X138303000Y-127030480D01*
X138303000Y-125681740D01*
X138557000Y-125681740D01*
X138557000Y-127030480D01*
X138715750Y-127189230D01*
X140056180Y-127189230D01*
X140289569Y-127092557D01*
X140468197Y-126913928D01*
X140564870Y-126680539D01*
X140564870Y-125840490D01*
X140406120Y-125681740D01*
X138557000Y-125681740D01*
X138303000Y-125681740D01*
X136453880Y-125681740D01*
X136295130Y-125840490D01*
X136248140Y-125840490D01*
X136248140Y-124715384D01*
X136191163Y-124428941D01*
X136295130Y-124428941D01*
X136295130Y-125268990D01*
X136453880Y-125427740D01*
X138303000Y-125427740D01*
X138303000Y-124079000D01*
X138557000Y-124079000D01*
X138557000Y-125427740D01*
X140406120Y-125427740D01*
X140564870Y-125268990D01*
X140564870Y-124428941D01*
X140468197Y-124195552D01*
X140289569Y-124016923D01*
X140056180Y-123920250D01*
X138715750Y-123920250D01*
X138557000Y-124079000D01*
X138303000Y-124079000D01*
X138144250Y-123920250D01*
X136803820Y-123920250D01*
X136570431Y-124016923D01*
X136391803Y-124195552D01*
X136295130Y-124428941D01*
X136191163Y-124428941D01*
X136124205Y-124092322D01*
X135771269Y-123564115D01*
X135747760Y-123548407D01*
X135747760Y-122387134D01*
X136768593Y-121366300D01*
X136930130Y-121399012D01*
X139929870Y-121399012D01*
X140236723Y-121341274D01*
X140518549Y-121159924D01*
X140707616Y-120883215D01*
X140774132Y-120554750D01*
X140774132Y-118555770D01*
X140716394Y-118248917D01*
X140535044Y-117967091D01*
X140258335Y-117778024D01*
X139929870Y-117711508D01*
X139788386Y-117711508D01*
X141132447Y-116367447D01*
X141376914Y-116001575D01*
X141462760Y-115570000D01*
X141462760Y-113497134D01*
X143037447Y-111922447D01*
X143281914Y-111556575D01*
X143367760Y-111125000D01*
X143367760Y-109175262D01*
X143383000Y-109175262D01*
X143689853Y-109117524D01*
X143971679Y-108936174D01*
X144160746Y-108659465D01*
X144227262Y-108331000D01*
X144227262Y-106299000D01*
X144194947Y-106127262D01*
X145161000Y-106127262D01*
X145467853Y-106069524D01*
X145749679Y-105888174D01*
X145938746Y-105611465D01*
X146005262Y-105283000D01*
X146005262Y-103759000D01*
X145947524Y-103452147D01*
X145766174Y-103170321D01*
X145489465Y-102981254D01*
X145161000Y-102914738D01*
X143129000Y-102914738D01*
X142822147Y-102972476D01*
X142554077Y-103144974D01*
X142314465Y-102981254D01*
X141986000Y-102914738D01*
X139954000Y-102914738D01*
X139647147Y-102972476D01*
X139379077Y-103144974D01*
X139139465Y-102981254D01*
X138811000Y-102914738D01*
X136779000Y-102914738D01*
X136472147Y-102972476D01*
X136204077Y-103144974D01*
X135964465Y-102981254D01*
X135636000Y-102914738D01*
X133604000Y-102914738D01*
X133297147Y-102972476D01*
X133029077Y-103144974D01*
X132789465Y-102981254D01*
X132461000Y-102914738D01*
X130533102Y-102914738D01*
X130533180Y-102825262D01*
X132461000Y-102825262D01*
X132767853Y-102767524D01*
X133049679Y-102586174D01*
X133155814Y-102430840D01*
X133244301Y-102519327D01*
X133477690Y-102616000D01*
X134334250Y-102616000D01*
X134493000Y-102457250D01*
X134493000Y-101346000D01*
X134473000Y-101346000D01*
X134473000Y-101092000D01*
X134493000Y-101092000D01*
X134493000Y-99980750D01*
X134334250Y-99822000D01*
X133477690Y-99822000D01*
X133244301Y-99918673D01*
X133155632Y-100007343D01*
X133066174Y-99868321D01*
X132929687Y-99775063D01*
X132980210Y-99552760D01*
X135255000Y-99552760D01*
X135686575Y-99466914D01*
X136052447Y-99222447D01*
X137957447Y-97317447D01*
X138201914Y-96951575D01*
X138287760Y-96520000D01*
X138287760Y-92082353D01*
X138311269Y-92066645D01*
X138430000Y-91888951D01*
X138548731Y-92066645D01*
X138572240Y-92082353D01*
X138572240Y-97322866D01*
X136997553Y-98897553D01*
X136753086Y-99263425D01*
X136679894Y-99631386D01*
X136472147Y-99670476D01*
X136190321Y-99851826D01*
X136084186Y-100007160D01*
X135995699Y-99918673D01*
X135762310Y-99822000D01*
X134905750Y-99822000D01*
X134747000Y-99980750D01*
X134747000Y-101092000D01*
X134767000Y-101092000D01*
X134767000Y-101346000D01*
X134747000Y-101346000D01*
X134747000Y-102457250D01*
X134905750Y-102616000D01*
X135762310Y-102616000D01*
X135995699Y-102519327D01*
X136084368Y-102430657D01*
X136173826Y-102569679D01*
X136450535Y-102758746D01*
X136779000Y-102825262D01*
X138811000Y-102825262D01*
X139117853Y-102767524D01*
X139385923Y-102595026D01*
X139625535Y-102758746D01*
X139954000Y-102825262D01*
X141986000Y-102825262D01*
X142292853Y-102767524D01*
X142574679Y-102586174D01*
X142680814Y-102430840D01*
X142769301Y-102519327D01*
X143002690Y-102616000D01*
X143859250Y-102616000D01*
X144018000Y-102457250D01*
X144018000Y-101346000D01*
X144272000Y-101346000D01*
X144272000Y-102457250D01*
X144430750Y-102616000D01*
X145287310Y-102616000D01*
X145520699Y-102519327D01*
X145699327Y-102340698D01*
X145796000Y-102107309D01*
X145796000Y-101504750D01*
X145637250Y-101346000D01*
X144272000Y-101346000D01*
X144018000Y-101346000D01*
X143998000Y-101346000D01*
X143998000Y-101092000D01*
X144018000Y-101092000D01*
X144018000Y-99980750D01*
X144272000Y-99980750D01*
X144272000Y-101092000D01*
X145637250Y-101092000D01*
X145796000Y-100933250D01*
X145796000Y-100330691D01*
X145699327Y-100097302D01*
X145520699Y-99918673D01*
X145287310Y-99822000D01*
X144430750Y-99822000D01*
X144272000Y-99980750D01*
X144018000Y-99980750D01*
X143859250Y-99822000D01*
X143002690Y-99822000D01*
X142769301Y-99918673D01*
X142680632Y-100007343D01*
X142591174Y-99868321D01*
X142314465Y-99679254D01*
X142097760Y-99635370D01*
X142097760Y-94246228D01*
X143085346Y-92271056D01*
X143391269Y-92066645D01*
X143510000Y-91888951D01*
X143628731Y-92066645D01*
X143652240Y-92082353D01*
X143652240Y-92648767D01*
X143457147Y-92685476D01*
X143175321Y-92866826D01*
X142986254Y-93143535D01*
X142919738Y-93472000D01*
X142919738Y-94996000D01*
X142977476Y-95302853D01*
X143158826Y-95584679D01*
X143435535Y-95773746D01*
X143764000Y-95840262D01*
X145796000Y-95840262D01*
X146102853Y-95782524D01*
X146384679Y-95601174D01*
X146573746Y-95324465D01*
X146640262Y-94996000D01*
X146640262Y-93472000D01*
X146582524Y-93165147D01*
X146401174Y-92883321D01*
X146124465Y-92694254D01*
X145907760Y-92650370D01*
X145907760Y-92082353D01*
X145931269Y-92066645D01*
X146050000Y-91888951D01*
X146168731Y-92066645D01*
X146696938Y-92419581D01*
X147320000Y-92543516D01*
X147943062Y-92419581D01*
X148471269Y-92066645D01*
X148590000Y-91888951D01*
X148708731Y-92066645D01*
X148732240Y-92082353D01*
X148732240Y-92648767D01*
X148537147Y-92685476D01*
X148255321Y-92866826D01*
X148066254Y-93143535D01*
X147999738Y-93472000D01*
X147999738Y-94996000D01*
X148057476Y-95302853D01*
X148238826Y-95584679D01*
X148515535Y-95773746D01*
X148844000Y-95840262D01*
X150876000Y-95840262D01*
X151182853Y-95782524D01*
X151464679Y-95601174D01*
X151653746Y-95324465D01*
X151720262Y-94996000D01*
X151720262Y-93472000D01*
X151662524Y-93165147D01*
X151481174Y-92883321D01*
X151204465Y-92694254D01*
X150987760Y-92650370D01*
X150987760Y-92082353D01*
X151011269Y-92066645D01*
X151364205Y-91538438D01*
X151488140Y-90915376D01*
X151488140Y-89424624D01*
X151364205Y-88801562D01*
X151011269Y-88273355D01*
X150931810Y-88220262D01*
X151003000Y-88220262D01*
X151309853Y-88162524D01*
X151326754Y-88151648D01*
X151907240Y-88732134D01*
X151907240Y-104775000D01*
X151993086Y-105206575D01*
X152237553Y-105572447D01*
X153281606Y-106616500D01*
X152845191Y-106616500D01*
X152611802Y-106713173D01*
X152433173Y-106891801D01*
X152336500Y-107125190D01*
X152336500Y-107664250D01*
X152495250Y-107823000D01*
X153543000Y-107823000D01*
X153543000Y-107803000D01*
X153797000Y-107803000D01*
X153797000Y-107823000D01*
X153817000Y-107823000D01*
X153817000Y-108077000D01*
X153797000Y-108077000D01*
X153797000Y-109124750D01*
X153955750Y-109283500D01*
X154494809Y-109283500D01*
X154728198Y-109186827D01*
X154906827Y-109008199D01*
X154966227Y-108864795D01*
X155344155Y-109243383D01*
X155905020Y-109476275D01*
X156512315Y-109476805D01*
X156987240Y-109280570D01*
X156987240Y-111375764D01*
X156508646Y-111573515D01*
X156025213Y-112056105D01*
X155763259Y-112686961D01*
X155762662Y-113370042D01*
X156023515Y-114001354D01*
X156196129Y-114174270D01*
X155860750Y-114174270D01*
X155702000Y-114333020D01*
X155702000Y-115582700D01*
X157401260Y-115582700D01*
X157560010Y-115423950D01*
X157560010Y-114747111D01*
X157820042Y-114747338D01*
X158257240Y-114566691D01*
X158257240Y-116372866D01*
X157647866Y-116982240D01*
X157450925Y-116982240D01*
X157463337Y-116969828D01*
X157560010Y-116736439D01*
X157560010Y-115995450D01*
X157401260Y-115836700D01*
X155702000Y-115836700D01*
X155702000Y-115856700D01*
X155448000Y-115856700D01*
X155448000Y-115836700D01*
X153748740Y-115836700D01*
X153589990Y-115995450D01*
X153589990Y-116736439D01*
X153686663Y-116969828D01*
X153699075Y-116982240D01*
X153035005Y-116982240D01*
X153035000Y-116982239D01*
X152603425Y-117068086D01*
X152352240Y-117235922D01*
X152355262Y-117221000D01*
X152355262Y-115697000D01*
X152297524Y-115390147D01*
X152116174Y-115108321D01*
X151839642Y-114919375D01*
X151839642Y-114102196D01*
X152777409Y-114102196D01*
X152862467Y-114357539D01*
X153431965Y-114565516D01*
X153642348Y-114556558D01*
X153589990Y-114682961D01*
X153589990Y-115423950D01*
X153748740Y-115582700D01*
X155448000Y-115582700D01*
X155448000Y-114333020D01*
X155289250Y-114174270D01*
X154538582Y-114174270D01*
X154562591Y-114102196D01*
X153670000Y-113209605D01*
X152777409Y-114102196D01*
X151839642Y-114102196D01*
X151839642Y-113549430D01*
X151781904Y-113242577D01*
X151694631Y-113106951D01*
X151733250Y-113145570D01*
X152074189Y-113145570D01*
X152148235Y-113114899D01*
X152160277Y-113397700D01*
X152342461Y-113837533D01*
X152597804Y-113922591D01*
X153490395Y-113030000D01*
X153849605Y-113030000D01*
X154742196Y-113922591D01*
X154997539Y-113837533D01*
X155205516Y-113268035D01*
X155179723Y-112662300D01*
X154997539Y-112222467D01*
X154742196Y-112137409D01*
X153849605Y-113030000D01*
X153490395Y-113030000D01*
X152597804Y-112137409D01*
X152582880Y-112142380D01*
X152582880Y-112045750D01*
X152494934Y-111957804D01*
X152777409Y-111957804D01*
X153670000Y-112850395D01*
X154562591Y-111957804D01*
X154477533Y-111702461D01*
X153908035Y-111494484D01*
X153302300Y-111520277D01*
X152862467Y-111702461D01*
X152777409Y-111957804D01*
X152494934Y-111957804D01*
X152424130Y-111887000D01*
X151574500Y-111887000D01*
X151574500Y-111907000D01*
X151320500Y-111907000D01*
X151320500Y-111887000D01*
X151300500Y-111887000D01*
X151300500Y-111633000D01*
X151320500Y-111633000D01*
X151320500Y-110533180D01*
X151574500Y-110533180D01*
X151574500Y-111633000D01*
X152424130Y-111633000D01*
X152582880Y-111474250D01*
X152582880Y-110883120D01*
X152486207Y-110649731D01*
X152307578Y-110471103D01*
X152074189Y-110374430D01*
X151733250Y-110374430D01*
X151574500Y-110533180D01*
X151320500Y-110533180D01*
X151161750Y-110374430D01*
X150987760Y-110374430D01*
X150987760Y-108235750D01*
X152336500Y-108235750D01*
X152336500Y-108774810D01*
X152433173Y-109008199D01*
X152611802Y-109186827D01*
X152845191Y-109283500D01*
X153384250Y-109283500D01*
X153543000Y-109124750D01*
X153543000Y-108077000D01*
X152495250Y-108077000D01*
X152336500Y-108235750D01*
X150987760Y-108235750D01*
X150987760Y-99121233D01*
X151182853Y-99084524D01*
X151464679Y-98903174D01*
X151653746Y-98626465D01*
X151720262Y-98298000D01*
X151720262Y-96774000D01*
X151662524Y-96467147D01*
X151481174Y-96185321D01*
X151204465Y-95996254D01*
X150876000Y-95929738D01*
X148844000Y-95929738D01*
X148537147Y-95987476D01*
X148255321Y-96168826D01*
X148066254Y-96445535D01*
X147999738Y-96774000D01*
X147999738Y-98144844D01*
X146640262Y-96785368D01*
X146640262Y-96774000D01*
X146582524Y-96467147D01*
X146401174Y-96185321D01*
X146124465Y-95996254D01*
X145796000Y-95929738D01*
X143764000Y-95929738D01*
X143457147Y-95987476D01*
X143175321Y-96168826D01*
X142986254Y-96445535D01*
X142919738Y-96774000D01*
X142919738Y-98298000D01*
X142977476Y-98604853D01*
X143158826Y-98886679D01*
X143435535Y-99075746D01*
X143764000Y-99142262D01*
X145796000Y-99142262D01*
X145805568Y-99140462D01*
X146827240Y-100162134D01*
X146827240Y-108117867D01*
X144935053Y-110010053D01*
X144692937Y-110372406D01*
X144643441Y-110404256D01*
X144454374Y-110680965D01*
X144387858Y-111009430D01*
X144387858Y-112510570D01*
X144445596Y-112817423D01*
X144626946Y-113099249D01*
X144903655Y-113288316D01*
X145232120Y-113354832D01*
X145379765Y-113354832D01*
X145340358Y-113549430D01*
X145340358Y-114049748D01*
X145252553Y-114137553D01*
X145008086Y-114503425D01*
X144934894Y-114871386D01*
X144727147Y-114910476D01*
X144445321Y-115091826D01*
X144256254Y-115368535D01*
X144189738Y-115697000D01*
X144189738Y-117221000D01*
X144247476Y-117527853D01*
X144428826Y-117809679D01*
X144705535Y-117998746D01*
X145034000Y-118065262D01*
X147066000Y-118065262D01*
X147372853Y-118007524D01*
X147654679Y-117826174D01*
X147843746Y-117549465D01*
X147910262Y-117221000D01*
X147910262Y-115697000D01*
X147874766Y-115508354D01*
X147963126Y-115379035D01*
X148029642Y-115050570D01*
X148029642Y-113549430D01*
X147971904Y-113242577D01*
X147884631Y-113106951D01*
X147923250Y-113145570D01*
X148264189Y-113145570D01*
X148424124Y-113079323D01*
X148436946Y-113099249D01*
X148713655Y-113288316D01*
X149042120Y-113354832D01*
X149189765Y-113354832D01*
X149150358Y-113549430D01*
X149150358Y-114924497D01*
X148890321Y-115091826D01*
X148701254Y-115368535D01*
X148634738Y-115697000D01*
X148634738Y-117221000D01*
X148692476Y-117527853D01*
X148873826Y-117809679D01*
X149150535Y-117998746D01*
X149479000Y-118065262D01*
X151484845Y-118065262D01*
X151395368Y-118154738D01*
X149479000Y-118154738D01*
X149172147Y-118212476D01*
X148890321Y-118393826D01*
X148708292Y-118660234D01*
X148412425Y-118719086D01*
X148046553Y-118963553D01*
X147910262Y-119099844D01*
X147910262Y-118999000D01*
X147852524Y-118692147D01*
X147671174Y-118410321D01*
X147394465Y-118221254D01*
X147066000Y-118154738D01*
X145034000Y-118154738D01*
X144727147Y-118212476D01*
X144445321Y-118393826D01*
X144256254Y-118670535D01*
X144189738Y-118999000D01*
X144189738Y-120523000D01*
X144247476Y-120829853D01*
X144428826Y-121111679D01*
X144705535Y-121300746D01*
X144744392Y-121308615D01*
X144697738Y-121539000D01*
X144697738Y-123571000D01*
X144755476Y-123877853D01*
X144936826Y-124159679D01*
X145176240Y-124323263D01*
X145176240Y-124396500D01*
X145262086Y-124828075D01*
X145506553Y-125193947D01*
X145657858Y-125345252D01*
X145657858Y-125845570D01*
X145715596Y-126152423D01*
X145896946Y-126434249D01*
X146173655Y-126623316D01*
X146502120Y-126689832D01*
X146649765Y-126689832D01*
X146610358Y-126884430D01*
X146610358Y-128385570D01*
X146668096Y-128692423D01*
X146849446Y-128974249D01*
X147126155Y-129163316D01*
X147454620Y-129229832D01*
X148455380Y-129229832D01*
X148500107Y-129221416D01*
X148500140Y-129253172D01*
X148542531Y-129355210D01*
X148564086Y-129463575D01*
X148626120Y-129556416D01*
X148668958Y-129659530D01*
X148747167Y-129737575D01*
X148808553Y-129829447D01*
X148901395Y-129891482D01*
X148980431Y-129970353D01*
X149742431Y-130478353D01*
X149844557Y-130520530D01*
X149936425Y-130581914D01*
X150045936Y-130603697D01*
X150149142Y-130646320D01*
X150259634Y-130646204D01*
X150368000Y-130667760D01*
X154432000Y-130667760D01*
X154863575Y-130581914D01*
X155229447Y-130337447D01*
X155737444Y-129829449D01*
X155737447Y-129829447D01*
X155981914Y-129463575D01*
X156067760Y-129032000D01*
X156067760Y-127821472D01*
X156397046Y-127492760D01*
X157480000Y-127492760D01*
X157911575Y-127406914D01*
X158277447Y-127162447D01*
X158521914Y-126796575D01*
X158607760Y-126365000D01*
X158607760Y-124878336D01*
X158675853Y-124865524D01*
X158957679Y-124684174D01*
X159146746Y-124407465D01*
X159213262Y-124079000D01*
X159213262Y-122301000D01*
X159155524Y-121994147D01*
X158974174Y-121712321D01*
X158697465Y-121523254D01*
X158369000Y-121456738D01*
X157759955Y-121456738D01*
X157769272Y-121410730D01*
X157769272Y-119609870D01*
X157711534Y-119303017D01*
X157669542Y-119237760D01*
X158115000Y-119237760D01*
X158546575Y-119151914D01*
X158912447Y-118907447D01*
X160182447Y-117637447D01*
X160426914Y-117271575D01*
X160512760Y-116840000D01*
X160512760Y-71755000D01*
X160426914Y-71323425D01*
X160182447Y-70957553D01*
X158277447Y-69052553D01*
X157911575Y-68808086D01*
X157480000Y-68722240D01*
X154940000Y-68722240D01*
X154508425Y-68808086D01*
X154142553Y-69052553D01*
X152237553Y-70957553D01*
X152003760Y-71307450D01*
X152003760Y-60184618D01*
X152226679Y-60041174D01*
X152415746Y-59764465D01*
X152482262Y-59436000D01*
X152482262Y-57404000D01*
X152424524Y-57097147D01*
X152243174Y-56815321D01*
X151966465Y-56626254D01*
X151638000Y-56559738D01*
X150352760Y-56559738D01*
X150352760Y-56515000D01*
X150266914Y-56083425D01*
X150022447Y-55717553D01*
X143405126Y-49100232D01*
X151726961Y-49100232D01*
X151726961Y-45651401D01*
X155254465Y-45651401D01*
X155688963Y-46702966D01*
X156492802Y-47508210D01*
X157543607Y-47944542D01*
X158681401Y-47945535D01*
X159732966Y-47511037D01*
X160538210Y-46707198D01*
X160974542Y-45656393D01*
X160975535Y-44518599D01*
X160541037Y-43467034D01*
X159737198Y-42661790D01*
X158686393Y-42225458D01*
X157548599Y-42224465D01*
X156497034Y-42658963D01*
X155691790Y-43462802D01*
X155255458Y-44513607D01*
X155254465Y-45651401D01*
X151726961Y-45651401D01*
X151726961Y-42639742D01*
X141643040Y-42639742D01*
X141643040Y-47338146D01*
X137358007Y-43053113D01*
X136992135Y-42808646D01*
X136560560Y-42722800D01*
X136522629Y-42722800D01*
X104138610Y-42689781D01*
X104138036Y-42689895D01*
X104137460Y-42689780D01*
X103921743Y-42732689D01*
X103706948Y-42775187D01*
X103706462Y-42775511D01*
X103705885Y-42775626D01*
X103523717Y-42897347D01*
X103340826Y-43019280D01*
X103340498Y-43019770D01*
X103340013Y-43020094D01*
X100802553Y-45557553D01*
X100558086Y-45923425D01*
X100472240Y-46355000D01*
X100472240Y-51373767D01*
X100277147Y-51410476D01*
X99995321Y-51591826D01*
X99806254Y-51868535D01*
X99739738Y-52197000D01*
X99739738Y-53721000D01*
X99797476Y-54027853D01*
X99978826Y-54309679D01*
X100255535Y-54498746D01*
X100584000Y-54565262D01*
X102616000Y-54565262D01*
X102879326Y-54515714D01*
X103124000Y-54565262D01*
X105156000Y-54565262D01*
X105419326Y-54515714D01*
X105664000Y-54565262D01*
X107696000Y-54565262D01*
X107959326Y-54515714D01*
X108204000Y-54565262D01*
X110236000Y-54565262D01*
X110499326Y-54515714D01*
X110744000Y-54565262D01*
X112776000Y-54565262D01*
X113039326Y-54515714D01*
X113284000Y-54565262D01*
X115316000Y-54565262D01*
X115622853Y-54507524D01*
X115904679Y-54326174D01*
X116093746Y-54049465D01*
X116137630Y-53832760D01*
X117292346Y-53832760D01*
X116042553Y-55082553D01*
X116037178Y-55090597D01*
X115921174Y-54910321D01*
X115644465Y-54721254D01*
X115316000Y-54654738D01*
X113284000Y-54654738D01*
X113020674Y-54704286D01*
X112776000Y-54654738D01*
X110744000Y-54654738D01*
X110480674Y-54704286D01*
X110236000Y-54654738D01*
X108204000Y-54654738D01*
X107940674Y-54704286D01*
X107696000Y-54654738D01*
X105664000Y-54654738D01*
X105400674Y-54704286D01*
X105156000Y-54654738D01*
X103124000Y-54654738D01*
X102860674Y-54704286D01*
X102616000Y-54654738D01*
X100584000Y-54654738D01*
X100277147Y-54712476D01*
X99995321Y-54893826D01*
X99806254Y-55170535D01*
X99739738Y-55499000D01*
X99739738Y-57023000D01*
X99797476Y-57329853D01*
X99978826Y-57611679D01*
X100255535Y-57800746D01*
X100472240Y-57844630D01*
X100472240Y-58397407D01*
X100448731Y-58413115D01*
X100095795Y-58941322D01*
X99971860Y-59564384D01*
X99971860Y-61055136D01*
X100095795Y-61678198D01*
X100448731Y-62206405D01*
X100484043Y-62230000D01*
X100448731Y-62253595D01*
X100095795Y-62781802D01*
X99971860Y-63404864D01*
X99971860Y-64895616D01*
X100095795Y-65518678D01*
X100448731Y-66046885D01*
X100472240Y-66062593D01*
X100472240Y-66613767D01*
X100277147Y-66650476D01*
X99995321Y-66831826D01*
X99806254Y-67108535D01*
X99739738Y-67437000D01*
X99739738Y-68961000D01*
X99797476Y-69267853D01*
X99978826Y-69549679D01*
X100255535Y-69738746D01*
X100584000Y-69805262D01*
X102616000Y-69805262D01*
X102879326Y-69755714D01*
X103124000Y-69805262D01*
X105156000Y-69805262D01*
X105419326Y-69755714D01*
X105664000Y-69805262D01*
X107696000Y-69805262D01*
X107959326Y-69755714D01*
X108204000Y-69805262D01*
X110236000Y-69805262D01*
X110499326Y-69755714D01*
X110744000Y-69805262D01*
X112776000Y-69805262D01*
X113039326Y-69755714D01*
X113284000Y-69805262D01*
X115316000Y-69805262D01*
X115579326Y-69755714D01*
X115824000Y-69805262D01*
X117856000Y-69805262D01*
X118119326Y-69755714D01*
X118364000Y-69805262D01*
X120396000Y-69805262D01*
X120702853Y-69747524D01*
X120792240Y-69690005D01*
X120792240Y-70007563D01*
X120724465Y-69961254D01*
X120396000Y-69894738D01*
X118364000Y-69894738D01*
X118100674Y-69944286D01*
X117856000Y-69894738D01*
X115824000Y-69894738D01*
X115560674Y-69944286D01*
X115316000Y-69894738D01*
X113284000Y-69894738D01*
X113020674Y-69944286D01*
X112776000Y-69894738D01*
X110744000Y-69894738D01*
X110480674Y-69944286D01*
X110236000Y-69894738D01*
X108204000Y-69894738D01*
X107940674Y-69944286D01*
X107696000Y-69894738D01*
X105664000Y-69894738D01*
X105400674Y-69944286D01*
X105156000Y-69894738D01*
X103124000Y-69894738D01*
X102860674Y-69944286D01*
X102616000Y-69894738D01*
X100584000Y-69894738D01*
X100277147Y-69952476D01*
X99995321Y-70133826D01*
X99806254Y-70410535D01*
X99739738Y-70739000D01*
X99739738Y-72263000D01*
X99797476Y-72569853D01*
X99978826Y-72851679D01*
X100255535Y-73040746D01*
X100421355Y-73074326D01*
X100095795Y-73561562D01*
X99971860Y-74184624D01*
X99971860Y-75675376D01*
X100095795Y-76298438D01*
X100448731Y-76826645D01*
X100976938Y-77179581D01*
X101600000Y-77303516D01*
X102223062Y-77179581D01*
X102751269Y-76826645D01*
X102870000Y-76648951D01*
X102988731Y-76826645D01*
X103516938Y-77179581D01*
X104140000Y-77303516D01*
X104763062Y-77179581D01*
X105291269Y-76826645D01*
X105410000Y-76648951D01*
X105528731Y-76826645D01*
X106056938Y-77179581D01*
X106680000Y-77303516D01*
X107303062Y-77179581D01*
X107831269Y-76826645D01*
X107950000Y-76648951D01*
X108068731Y-76826645D01*
X108596938Y-77179581D01*
X109220000Y-77303516D01*
X109737636Y-77200552D01*
X109497143Y-77779722D01*
X109496578Y-78427436D01*
X109594885Y-78665358D01*
X108469430Y-78665358D01*
X108274832Y-78701974D01*
X108274832Y-78557120D01*
X108217094Y-78250267D01*
X108035744Y-77968441D01*
X107759035Y-77779374D01*
X107430570Y-77712858D01*
X105929430Y-77712858D01*
X105622577Y-77770596D01*
X105375260Y-77929740D01*
X105092500Y-77929740D01*
X104660925Y-78015586D01*
X104295053Y-78260053D01*
X102707553Y-79847553D01*
X102463086Y-80213425D01*
X102377240Y-80645000D01*
X102377240Y-83185000D01*
X102463086Y-83616575D01*
X102707553Y-83982447D01*
X103977553Y-85252447D01*
X104184738Y-85390883D01*
X104184738Y-86868000D01*
X104242476Y-87174853D01*
X104423826Y-87456679D01*
X104700535Y-87645746D01*
X105029000Y-87712262D01*
X105552240Y-87712262D01*
X105552240Y-88257647D01*
X105528731Y-88273355D01*
X105410000Y-88451049D01*
X105291269Y-88273355D01*
X104763062Y-87920419D01*
X104140000Y-87796484D01*
X103516938Y-87920419D01*
X102988731Y-88273355D01*
X102870000Y-88451049D01*
X102751269Y-88273355D01*
X102223062Y-87920419D01*
X101600000Y-87796484D01*
X100976938Y-87920419D01*
X100448731Y-88273355D01*
X100095795Y-88801562D01*
X99971860Y-89424624D01*
X99971860Y-90203246D01*
X99532553Y-90642553D01*
X99288086Y-91008425D01*
X99202240Y-91440000D01*
X99202240Y-93283767D01*
X99007147Y-93320476D01*
X98725321Y-93501826D01*
X98536254Y-93778535D01*
X98469738Y-94107000D01*
X98469738Y-95631000D01*
X98527476Y-95937853D01*
X98708826Y-96219679D01*
X98985535Y-96408746D01*
X99314000Y-96475262D01*
X101346000Y-96475262D01*
X101652853Y-96417524D01*
X101934679Y-96236174D01*
X102123746Y-95959465D01*
X102190262Y-95631000D01*
X102190262Y-94107000D01*
X102132524Y-93800147D01*
X101951174Y-93518321D01*
X101674465Y-93329254D01*
X101457760Y-93285370D01*
X101457760Y-92515223D01*
X101600000Y-92543516D01*
X102223062Y-92419581D01*
X102751269Y-92066645D01*
X102870000Y-91888951D01*
X102988731Y-92066645D01*
X103012240Y-92082353D01*
X103012240Y-93283767D01*
X102817147Y-93320476D01*
X102535321Y-93501826D01*
X102346254Y-93778535D01*
X102279738Y-94107000D01*
X102279738Y-95631000D01*
X102337476Y-95937853D01*
X102518826Y-96219679D01*
X102795535Y-96408746D01*
X103124000Y-96475262D01*
X105156000Y-96475262D01*
X105462853Y-96417524D01*
X105744679Y-96236174D01*
X105933746Y-95959465D01*
X106000262Y-95631000D01*
X106000262Y-94107000D01*
X105942524Y-93800147D01*
X105761174Y-93518321D01*
X105484465Y-93329254D01*
X105267760Y-93285370D01*
X105267760Y-92082353D01*
X105291269Y-92066645D01*
X105410000Y-91888951D01*
X105528731Y-92066645D01*
X106056938Y-92419581D01*
X106680000Y-92543516D01*
X106822240Y-92515223D01*
X106822240Y-100497866D01*
X104967225Y-102352881D01*
X105181914Y-102031575D01*
X105224022Y-101819886D01*
X105267761Y-101600000D01*
X105267760Y-101599995D01*
X105267760Y-99756233D01*
X105462853Y-99719524D01*
X105744679Y-99538174D01*
X105933746Y-99261465D01*
X106000262Y-98933000D01*
X106000262Y-97409000D01*
X105942524Y-97102147D01*
X105761174Y-96820321D01*
X105484465Y-96631254D01*
X105156000Y-96564738D01*
X103124000Y-96564738D01*
X102817147Y-96622476D01*
X102535321Y-96803826D01*
X102346254Y-97080535D01*
X102279738Y-97409000D01*
X102279738Y-98933000D01*
X102337476Y-99239853D01*
X102518826Y-99521679D01*
X102795535Y-99710746D01*
X103012240Y-99754630D01*
X103012240Y-101107240D01*
X100512654Y-101107240D01*
X101127447Y-100492447D01*
X101371914Y-100126575D01*
X101445107Y-99758614D01*
X101652853Y-99719524D01*
X101934679Y-99538174D01*
X102123746Y-99261465D01*
X102190262Y-98933000D01*
X102190262Y-97409000D01*
X102132524Y-97102147D01*
X101951174Y-96820321D01*
X101674465Y-96631254D01*
X101346000Y-96564738D01*
X99314000Y-96564738D01*
X99007147Y-96622476D01*
X98725321Y-96803826D01*
X98536254Y-97080535D01*
X98469738Y-97409000D01*
X98469738Y-98933000D01*
X98527476Y-99239853D01*
X98708826Y-99521679D01*
X98827405Y-99602701D01*
X95722553Y-102707553D01*
X95478086Y-103073425D01*
X95392240Y-103505000D01*
X95392240Y-125543528D01*
X94971599Y-125963436D01*
X94692788Y-126634887D01*
X94692154Y-127361923D01*
X92458540Y-127361923D01*
X92458540Y-45651401D01*
X93659465Y-45651401D01*
X94093963Y-46702966D01*
X94897802Y-47508210D01*
X95948607Y-47944542D01*
X97086401Y-47945535D01*
X98137966Y-47511037D01*
X98943210Y-46707198D01*
X99379542Y-45656393D01*
X99380535Y-44518599D01*
X98946037Y-43467034D01*
X98142198Y-42661790D01*
X97091393Y-42225458D01*
X95953599Y-42224465D01*
X94902034Y-42658963D01*
X94096790Y-43462802D01*
X93660458Y-44513607D01*
X93659465Y-45651401D01*
X92458540Y-45651401D01*
X92458540Y-41023540D01*
X162176460Y-41023540D01*
X162176460Y-138681460D01*
G36*
X99253748Y-126985858D02*
X99239605Y-127000000D01*
X99253748Y-127014142D01*
X99074142Y-127193748D01*
X99060000Y-127179605D01*
X99045858Y-127193748D01*
X98866252Y-127014142D01*
X98880395Y-127000000D01*
X98866252Y-126985858D01*
X99045858Y-126806252D01*
X99060000Y-126820395D01*
X99074142Y-126806252D01*
X99253748Y-126985858D01*
X99253748Y-126985858D01*
G37*
X99253748Y-126985858D02*
X99239605Y-127000000D01*
X99253748Y-127014142D01*
X99074142Y-127193748D01*
X99060000Y-127179605D01*
X99045858Y-127193748D01*
X98866252Y-127014142D01*
X98880395Y-127000000D01*
X98866252Y-126985858D01*
X99045858Y-126806252D01*
X99060000Y-126820395D01*
X99074142Y-126806252D01*
X99253748Y-126985858D01*
G36*
X147764500Y-111633000D02*
X147784500Y-111633000D01*
X147784500Y-111887000D01*
X147764500Y-111887000D01*
X147764500Y-111907000D01*
X147510500Y-111907000D01*
X147510500Y-111887000D01*
X147490500Y-111887000D01*
X147490500Y-111633000D01*
X147510500Y-111633000D01*
X147510500Y-111613000D01*
X147764500Y-111613000D01*
X147764500Y-111633000D01*
X147764500Y-111633000D01*
G37*
X147764500Y-111633000D02*
X147784500Y-111633000D01*
X147784500Y-111887000D01*
X147764500Y-111887000D01*
X147764500Y-111907000D01*
X147510500Y-111907000D01*
X147510500Y-111887000D01*
X147490500Y-111887000D01*
X147490500Y-111633000D01*
X147510500Y-111633000D01*
X147510500Y-111613000D01*
X147764500Y-111613000D01*
X147764500Y-111633000D01*
G36*
X126507240Y-72390000D02*
X126557850Y-72644433D01*
X126376938Y-72680419D01*
X125848731Y-73033355D01*
X125604588Y-73398741D01*
X125384967Y-73125658D01*
X124891857Y-72855769D01*
X124809055Y-72838227D01*
X124587000Y-72960214D01*
X124587000Y-74803000D01*
X124607000Y-74803000D01*
X124607000Y-75057000D01*
X124587000Y-75057000D01*
X124587000Y-76899786D01*
X124809055Y-77021773D01*
X124891857Y-77004231D01*
X125384967Y-76734342D01*
X125604588Y-76461259D01*
X125848731Y-76826645D01*
X125872240Y-76842353D01*
X125872240Y-79470263D01*
X125620535Y-79721529D01*
X125372143Y-80319722D01*
X125371578Y-80967436D01*
X125618925Y-81566062D01*
X126076529Y-82024465D01*
X126424607Y-82169000D01*
X125857691Y-82169000D01*
X125624302Y-82265673D01*
X125445673Y-82444301D01*
X125349000Y-82677690D01*
X125349000Y-83534250D01*
X125507750Y-83693000D01*
X126619000Y-83693000D01*
X126619000Y-83673000D01*
X126873000Y-83673000D01*
X126873000Y-83693000D01*
X126893000Y-83693000D01*
X126893000Y-83947000D01*
X126873000Y-83947000D01*
X126873000Y-85312250D01*
X127031750Y-85471000D01*
X127634309Y-85471000D01*
X127867698Y-85374327D01*
X128046327Y-85195699D01*
X128143000Y-84962310D01*
X128143000Y-84718026D01*
X128164301Y-84739327D01*
X128397690Y-84836000D01*
X129254250Y-84836000D01*
X129413000Y-84677250D01*
X129413000Y-83566000D01*
X129667000Y-83566000D01*
X129667000Y-84677250D01*
X129825750Y-84836000D01*
X130682310Y-84836000D01*
X130915699Y-84739327D01*
X131094327Y-84560698D01*
X131191000Y-84327309D01*
X131191000Y-83724750D01*
X131699000Y-83724750D01*
X131699000Y-84327309D01*
X131795673Y-84560698D01*
X131974301Y-84739327D01*
X132207690Y-84836000D01*
X133064250Y-84836000D01*
X133223000Y-84677250D01*
X133223000Y-83566000D01*
X133477000Y-83566000D01*
X133477000Y-84677250D01*
X133635750Y-84836000D01*
X134492310Y-84836000D01*
X134725699Y-84739327D01*
X134904327Y-84560698D01*
X135001000Y-84327309D01*
X135001000Y-83724750D01*
X134842250Y-83566000D01*
X133477000Y-83566000D01*
X133223000Y-83566000D01*
X131857750Y-83566000D01*
X131699000Y-83724750D01*
X131191000Y-83724750D01*
X131032250Y-83566000D01*
X129667000Y-83566000D01*
X129413000Y-83566000D01*
X129393000Y-83566000D01*
X129393000Y-83312000D01*
X129413000Y-83312000D01*
X129413000Y-82200750D01*
X129667000Y-82200750D01*
X129667000Y-83312000D01*
X131032250Y-83312000D01*
X131191000Y-83153250D01*
X131191000Y-82550691D01*
X131699000Y-82550691D01*
X131699000Y-83153250D01*
X131857750Y-83312000D01*
X133223000Y-83312000D01*
X133223000Y-82200750D01*
X133477000Y-82200750D01*
X133477000Y-83312000D01*
X134842250Y-83312000D01*
X135001000Y-83153250D01*
X135001000Y-82550691D01*
X134904327Y-82317302D01*
X134725699Y-82138673D01*
X134492310Y-82042000D01*
X133635750Y-82042000D01*
X133477000Y-82200750D01*
X133223000Y-82200750D01*
X133064250Y-82042000D01*
X132207690Y-82042000D01*
X131974301Y-82138673D01*
X131795673Y-82317302D01*
X131699000Y-82550691D01*
X131191000Y-82550691D01*
X131094327Y-82317302D01*
X130915699Y-82138673D01*
X130682310Y-82042000D01*
X129825750Y-82042000D01*
X129667000Y-82200750D01*
X129413000Y-82200750D01*
X129254250Y-82042000D01*
X128397690Y-82042000D01*
X128164301Y-82138673D01*
X127985673Y-82317302D01*
X127966241Y-82364215D01*
X127867698Y-82265673D01*
X127634309Y-82169000D01*
X127575157Y-82169000D01*
X127921062Y-82026075D01*
X128174819Y-81772760D01*
X153035000Y-81772760D01*
X153466575Y-81686914D01*
X153832447Y-81442447D01*
X157007447Y-78267447D01*
X157251914Y-77901575D01*
X157337760Y-77470000D01*
X157337760Y-76230352D01*
X157664787Y-75903895D01*
X157926741Y-75273039D01*
X157927338Y-74589958D01*
X157666485Y-73958646D01*
X157183895Y-73475213D01*
X156553039Y-73213259D01*
X155869958Y-73212662D01*
X155238646Y-73473515D01*
X154755213Y-73956105D01*
X154493259Y-74586961D01*
X154492662Y-75270042D01*
X154753515Y-75901354D01*
X155082240Y-76230653D01*
X155082240Y-77002866D01*
X152567866Y-79517240D01*
X151947654Y-79517240D01*
X153832447Y-77632447D01*
X154076914Y-77266575D01*
X154162760Y-76835000D01*
X154162760Y-72222134D01*
X155407134Y-70977760D01*
X157012866Y-70977760D01*
X158257240Y-72222134D01*
X158257240Y-105419428D01*
X157716723Y-105059083D01*
X157504892Y-104546414D01*
X157337760Y-104378990D01*
X157337760Y-91470352D01*
X157664787Y-91143895D01*
X157926741Y-90513039D01*
X157927338Y-89829958D01*
X157666485Y-89198646D01*
X157183895Y-88715213D01*
X156553039Y-88453259D01*
X155869958Y-88452662D01*
X155238646Y-88713515D01*
X154755213Y-89196105D01*
X154493259Y-89826961D01*
X154492662Y-90510042D01*
X154753515Y-91141354D01*
X155082240Y-91470653D01*
X155082240Y-104378821D01*
X154916617Y-104544155D01*
X154764760Y-104909866D01*
X154162760Y-104307866D01*
X154162760Y-88265000D01*
X154076914Y-87833425D01*
X153832447Y-87467553D01*
X151927447Y-85562553D01*
X151847262Y-85508975D01*
X151847262Y-85344000D01*
X151789524Y-85037147D01*
X151608174Y-84755321D01*
X151331465Y-84566254D01*
X151003000Y-84499738D01*
X149479000Y-84499738D01*
X149172147Y-84557476D01*
X148890321Y-84738826D01*
X148701254Y-85015535D01*
X148634738Y-85344000D01*
X148634738Y-87376000D01*
X148692476Y-87682853D01*
X148873826Y-87964679D01*
X149020604Y-88064968D01*
X148708731Y-88273355D01*
X148590000Y-88451049D01*
X148471269Y-88273355D01*
X148447760Y-88257647D01*
X148447760Y-87749815D01*
X148478746Y-87704465D01*
X148545262Y-87376000D01*
X148545262Y-85344000D01*
X148487524Y-85037147D01*
X148306174Y-84755321D01*
X148029465Y-84566254D01*
X147701000Y-84499738D01*
X146177000Y-84499738D01*
X145870147Y-84557476D01*
X145588321Y-84738826D01*
X145399254Y-85015535D01*
X145332738Y-85344000D01*
X145332738Y-87376000D01*
X145390476Y-87682853D01*
X145571826Y-87964679D01*
X145848535Y-88153746D01*
X146177000Y-88220262D01*
X146192240Y-88220262D01*
X146192240Y-88257647D01*
X146168731Y-88273355D01*
X146050000Y-88451049D01*
X145931269Y-88273355D01*
X145403062Y-87920419D01*
X144780000Y-87796484D01*
X144156938Y-87920419D01*
X143628731Y-88273355D01*
X143510000Y-88451049D01*
X143391269Y-88273355D01*
X142863062Y-87920419D01*
X142240000Y-87796484D01*
X141616938Y-87920419D01*
X141088731Y-88273355D01*
X140970000Y-88451049D01*
X140851269Y-88273355D01*
X140323062Y-87920419D01*
X139700000Y-87796484D01*
X139076938Y-87920419D01*
X138548731Y-88273355D01*
X138430000Y-88451049D01*
X138311269Y-88273355D01*
X137783062Y-87920419D01*
X137160000Y-87796484D01*
X136536938Y-87920419D01*
X136008731Y-88273355D01*
X135890000Y-88451049D01*
X135771269Y-88273355D01*
X135243062Y-87920419D01*
X135102122Y-87892384D01*
X135143746Y-87831465D01*
X135210262Y-87503000D01*
X135210262Y-85979000D01*
X135152524Y-85672147D01*
X134971174Y-85390321D01*
X134694465Y-85201254D01*
X134366000Y-85134738D01*
X132334000Y-85134738D01*
X132027147Y-85192476D01*
X131745321Y-85373826D01*
X131556254Y-85650535D01*
X131489738Y-85979000D01*
X131489738Y-87006368D01*
X131400262Y-87095844D01*
X131400262Y-85979000D01*
X131342524Y-85672147D01*
X131161174Y-85390321D01*
X130884465Y-85201254D01*
X130556000Y-85134738D01*
X128524000Y-85134738D01*
X128217147Y-85192476D01*
X127935321Y-85373826D01*
X127746254Y-85650535D01*
X127679738Y-85979000D01*
X127679738Y-87503000D01*
X127737476Y-87809853D01*
X127918826Y-88091679D01*
X128195535Y-88280746D01*
X128361355Y-88314326D01*
X128144588Y-88638741D01*
X127924967Y-88365658D01*
X127431857Y-88095769D01*
X127349055Y-88078227D01*
X127127000Y-88200214D01*
X127127000Y-90043000D01*
X127147000Y-90043000D01*
X127147000Y-90297000D01*
X127127000Y-90297000D01*
X127127000Y-92139786D01*
X127349055Y-92261773D01*
X127431857Y-92244231D01*
X127924967Y-91974342D01*
X128144588Y-91701259D01*
X128388731Y-92066645D01*
X128412240Y-92082353D01*
X128412240Y-93422594D01*
X127908077Y-93422154D01*
X127236140Y-93699792D01*
X126857760Y-94077512D01*
X126857760Y-93345005D01*
X126857761Y-93345000D01*
X126771914Y-92913425D01*
X126625469Y-92694254D01*
X126527447Y-92547553D01*
X126527444Y-92547551D01*
X125892447Y-91912553D01*
X125769238Y-91830228D01*
X125855412Y-91701259D01*
X126075033Y-91974342D01*
X126568143Y-92244231D01*
X126650945Y-92261773D01*
X126873000Y-92139786D01*
X126873000Y-90297000D01*
X126853000Y-90297000D01*
X126853000Y-90043000D01*
X126873000Y-90043000D01*
X126873000Y-88200214D01*
X126650945Y-88078227D01*
X126568143Y-88095769D01*
X126075033Y-88365658D01*
X125855412Y-88638741D01*
X125611269Y-88273355D01*
X125587760Y-88257647D01*
X125587760Y-85337785D01*
X125624302Y-85374327D01*
X125857691Y-85471000D01*
X126460250Y-85471000D01*
X126619000Y-85312250D01*
X126619000Y-83947000D01*
X125507750Y-83947000D01*
X125349000Y-84105750D01*
X125349000Y-84289872D01*
X125257447Y-84152853D01*
X125050262Y-83945668D01*
X125050262Y-82804000D01*
X124992524Y-82497147D01*
X124811174Y-82215321D01*
X124534465Y-82026254D01*
X124206000Y-81959738D01*
X123047760Y-81959738D01*
X123047760Y-81819737D01*
X123299465Y-81568471D01*
X123547857Y-80970278D01*
X123548422Y-80322564D01*
X123301075Y-79723938D01*
X123209954Y-79632658D01*
X123352447Y-79537447D01*
X123987444Y-78902449D01*
X123987447Y-78902447D01*
X124231914Y-78536575D01*
X124253623Y-78427436D01*
X124317761Y-78105000D01*
X124317760Y-78104995D01*
X124317760Y-76908158D01*
X124333000Y-76899786D01*
X124333000Y-75057000D01*
X124317760Y-75057000D01*
X124317760Y-74803000D01*
X124333000Y-74803000D01*
X124333000Y-72960214D01*
X124317760Y-72951842D01*
X124317760Y-69682134D01*
X125257447Y-68742447D01*
X125501914Y-68376575D01*
X125587760Y-67945000D01*
X125587760Y-66062593D01*
X125611269Y-66046885D01*
X125964205Y-65518678D01*
X126088140Y-64895616D01*
X126088140Y-63404864D01*
X125964205Y-62781802D01*
X125611269Y-62253595D01*
X125391096Y-62106481D01*
X125737259Y-61676052D01*
X125895100Y-61136530D01*
X125895100Y-60436760D01*
X124587000Y-60436760D01*
X124587000Y-60456760D01*
X124333000Y-60456760D01*
X124333000Y-60436760D01*
X124317760Y-60436760D01*
X124317760Y-60182760D01*
X124333000Y-60182760D01*
X124333000Y-60162760D01*
X124587000Y-60162760D01*
X124587000Y-60182760D01*
X125895100Y-60182760D01*
X125895100Y-59482990D01*
X125737259Y-58943468D01*
X125712563Y-58912760D01*
X126507240Y-58912760D01*
X126507240Y-72390000D01*
X126507240Y-72390000D01*
G37*
X126507240Y-72390000D02*
X126557850Y-72644433D01*
X126376938Y-72680419D01*
X125848731Y-73033355D01*
X125604588Y-73398741D01*
X125384967Y-73125658D01*
X124891857Y-72855769D01*
X124809055Y-72838227D01*
X124587000Y-72960214D01*
X124587000Y-74803000D01*
X124607000Y-74803000D01*
X124607000Y-75057000D01*
X124587000Y-75057000D01*
X124587000Y-76899786D01*
X124809055Y-77021773D01*
X124891857Y-77004231D01*
X125384967Y-76734342D01*
X125604588Y-76461259D01*
X125848731Y-76826645D01*
X125872240Y-76842353D01*
X125872240Y-79470263D01*
X125620535Y-79721529D01*
X125372143Y-80319722D01*
X125371578Y-80967436D01*
X125618925Y-81566062D01*
X126076529Y-82024465D01*
X126424607Y-82169000D01*
X125857691Y-82169000D01*
X125624302Y-82265673D01*
X125445673Y-82444301D01*
X125349000Y-82677690D01*
X125349000Y-83534250D01*
X125507750Y-83693000D01*
X126619000Y-83693000D01*
X126619000Y-83673000D01*
X126873000Y-83673000D01*
X126873000Y-83693000D01*
X126893000Y-83693000D01*
X126893000Y-83947000D01*
X126873000Y-83947000D01*
X126873000Y-85312250D01*
X127031750Y-85471000D01*
X127634309Y-85471000D01*
X127867698Y-85374327D01*
X128046327Y-85195699D01*
X128143000Y-84962310D01*
X128143000Y-84718026D01*
X128164301Y-84739327D01*
X128397690Y-84836000D01*
X129254250Y-84836000D01*
X129413000Y-84677250D01*
X129413000Y-83566000D01*
X129667000Y-83566000D01*
X129667000Y-84677250D01*
X129825750Y-84836000D01*
X130682310Y-84836000D01*
X130915699Y-84739327D01*
X131094327Y-84560698D01*
X131191000Y-84327309D01*
X131191000Y-83724750D01*
X131699000Y-83724750D01*
X131699000Y-84327309D01*
X131795673Y-84560698D01*
X131974301Y-84739327D01*
X132207690Y-84836000D01*
X133064250Y-84836000D01*
X133223000Y-84677250D01*
X133223000Y-83566000D01*
X133477000Y-83566000D01*
X133477000Y-84677250D01*
X133635750Y-84836000D01*
X134492310Y-84836000D01*
X134725699Y-84739327D01*
X134904327Y-84560698D01*
X135001000Y-84327309D01*
X135001000Y-83724750D01*
X134842250Y-83566000D01*
X133477000Y-83566000D01*
X133223000Y-83566000D01*
X131857750Y-83566000D01*
X131699000Y-83724750D01*
X131191000Y-83724750D01*
X131032250Y-83566000D01*
X129667000Y-83566000D01*
X129413000Y-83566000D01*
X129393000Y-83566000D01*
X129393000Y-83312000D01*
X129413000Y-83312000D01*
X129413000Y-82200750D01*
X129667000Y-82200750D01*
X129667000Y-83312000D01*
X131032250Y-83312000D01*
X131191000Y-83153250D01*
X131191000Y-82550691D01*
X131699000Y-82550691D01*
X131699000Y-83153250D01*
X131857750Y-83312000D01*
X133223000Y-83312000D01*
X133223000Y-82200750D01*
X133477000Y-82200750D01*
X133477000Y-83312000D01*
X134842250Y-83312000D01*
X135001000Y-83153250D01*
X135001000Y-82550691D01*
X134904327Y-82317302D01*
X134725699Y-82138673D01*
X134492310Y-82042000D01*
X133635750Y-82042000D01*
X133477000Y-82200750D01*
X133223000Y-82200750D01*
X133064250Y-82042000D01*
X132207690Y-82042000D01*
X131974301Y-82138673D01*
X131795673Y-82317302D01*
X131699000Y-82550691D01*
X131191000Y-82550691D01*
X131094327Y-82317302D01*
X130915699Y-82138673D01*
X130682310Y-82042000D01*
X129825750Y-82042000D01*
X129667000Y-82200750D01*
X129413000Y-82200750D01*
X129254250Y-82042000D01*
X128397690Y-82042000D01*
X128164301Y-82138673D01*
X127985673Y-82317302D01*
X127966241Y-82364215D01*
X127867698Y-82265673D01*
X127634309Y-82169000D01*
X127575157Y-82169000D01*
X127921062Y-82026075D01*
X128174819Y-81772760D01*
X153035000Y-81772760D01*
X153466575Y-81686914D01*
X153832447Y-81442447D01*
X157007447Y-78267447D01*
X157251914Y-77901575D01*
X157337760Y-77470000D01*
X157337760Y-76230352D01*
X157664787Y-75903895D01*
X157926741Y-75273039D01*
X157927338Y-74589958D01*
X157666485Y-73958646D01*
X157183895Y-73475213D01*
X156553039Y-73213259D01*
X155869958Y-73212662D01*
X155238646Y-73473515D01*
X154755213Y-73956105D01*
X154493259Y-74586961D01*
X154492662Y-75270042D01*
X154753515Y-75901354D01*
X155082240Y-76230653D01*
X155082240Y-77002866D01*
X152567866Y-79517240D01*
X151947654Y-79517240D01*
X153832447Y-77632447D01*
X154076914Y-77266575D01*
X154162760Y-76835000D01*
X154162760Y-72222134D01*
X155407134Y-70977760D01*
X157012866Y-70977760D01*
X158257240Y-72222134D01*
X158257240Y-105419428D01*
X157716723Y-105059083D01*
X157504892Y-104546414D01*
X157337760Y-104378990D01*
X157337760Y-91470352D01*
X157664787Y-91143895D01*
X157926741Y-90513039D01*
X157927338Y-89829958D01*
X157666485Y-89198646D01*
X157183895Y-88715213D01*
X156553039Y-88453259D01*
X155869958Y-88452662D01*
X155238646Y-88713515D01*
X154755213Y-89196105D01*
X154493259Y-89826961D01*
X154492662Y-90510042D01*
X154753515Y-91141354D01*
X155082240Y-91470653D01*
X155082240Y-104378821D01*
X154916617Y-104544155D01*
X154764760Y-104909866D01*
X154162760Y-104307866D01*
X154162760Y-88265000D01*
X154076914Y-87833425D01*
X153832447Y-87467553D01*
X151927447Y-85562553D01*
X151847262Y-85508975D01*
X151847262Y-85344000D01*
X151789524Y-85037147D01*
X151608174Y-84755321D01*
X151331465Y-84566254D01*
X151003000Y-84499738D01*
X149479000Y-84499738D01*
X149172147Y-84557476D01*
X148890321Y-84738826D01*
X148701254Y-85015535D01*
X148634738Y-85344000D01*
X148634738Y-87376000D01*
X148692476Y-87682853D01*
X148873826Y-87964679D01*
X149020604Y-88064968D01*
X148708731Y-88273355D01*
X148590000Y-88451049D01*
X148471269Y-88273355D01*
X148447760Y-88257647D01*
X148447760Y-87749815D01*
X148478746Y-87704465D01*
X148545262Y-87376000D01*
X148545262Y-85344000D01*
X148487524Y-85037147D01*
X148306174Y-84755321D01*
X148029465Y-84566254D01*
X147701000Y-84499738D01*
X146177000Y-84499738D01*
X145870147Y-84557476D01*
X145588321Y-84738826D01*
X145399254Y-85015535D01*
X145332738Y-85344000D01*
X145332738Y-87376000D01*
X145390476Y-87682853D01*
X145571826Y-87964679D01*
X145848535Y-88153746D01*
X146177000Y-88220262D01*
X146192240Y-88220262D01*
X146192240Y-88257647D01*
X146168731Y-88273355D01*
X146050000Y-88451049D01*
X145931269Y-88273355D01*
X145403062Y-87920419D01*
X144780000Y-87796484D01*
X144156938Y-87920419D01*
X143628731Y-88273355D01*
X143510000Y-88451049D01*
X143391269Y-88273355D01*
X142863062Y-87920419D01*
X142240000Y-87796484D01*
X141616938Y-87920419D01*
X141088731Y-88273355D01*
X140970000Y-88451049D01*
X140851269Y-88273355D01*
X140323062Y-87920419D01*
X139700000Y-87796484D01*
X139076938Y-87920419D01*
X138548731Y-88273355D01*
X138430000Y-88451049D01*
X138311269Y-88273355D01*
X137783062Y-87920419D01*
X137160000Y-87796484D01*
X136536938Y-87920419D01*
X136008731Y-88273355D01*
X135890000Y-88451049D01*
X135771269Y-88273355D01*
X135243062Y-87920419D01*
X135102122Y-87892384D01*
X135143746Y-87831465D01*
X135210262Y-87503000D01*
X135210262Y-85979000D01*
X135152524Y-85672147D01*
X134971174Y-85390321D01*
X134694465Y-85201254D01*
X134366000Y-85134738D01*
X132334000Y-85134738D01*
X132027147Y-85192476D01*
X131745321Y-85373826D01*
X131556254Y-85650535D01*
X131489738Y-85979000D01*
X131489738Y-87006368D01*
X131400262Y-87095844D01*
X131400262Y-85979000D01*
X131342524Y-85672147D01*
X131161174Y-85390321D01*
X130884465Y-85201254D01*
X130556000Y-85134738D01*
X128524000Y-85134738D01*
X128217147Y-85192476D01*
X127935321Y-85373826D01*
X127746254Y-85650535D01*
X127679738Y-85979000D01*
X127679738Y-87503000D01*
X127737476Y-87809853D01*
X127918826Y-88091679D01*
X128195535Y-88280746D01*
X128361355Y-88314326D01*
X128144588Y-88638741D01*
X127924967Y-88365658D01*
X127431857Y-88095769D01*
X127349055Y-88078227D01*
X127127000Y-88200214D01*
X127127000Y-90043000D01*
X127147000Y-90043000D01*
X127147000Y-90297000D01*
X127127000Y-90297000D01*
X127127000Y-92139786D01*
X127349055Y-92261773D01*
X127431857Y-92244231D01*
X127924967Y-91974342D01*
X128144588Y-91701259D01*
X128388731Y-92066645D01*
X128412240Y-92082353D01*
X128412240Y-93422594D01*
X127908077Y-93422154D01*
X127236140Y-93699792D01*
X126857760Y-94077512D01*
X126857760Y-93345005D01*
X126857761Y-93345000D01*
X126771914Y-92913425D01*
X126625469Y-92694254D01*
X126527447Y-92547553D01*
X126527444Y-92547551D01*
X125892447Y-91912553D01*
X125769238Y-91830228D01*
X125855412Y-91701259D01*
X126075033Y-91974342D01*
X126568143Y-92244231D01*
X126650945Y-92261773D01*
X126873000Y-92139786D01*
X126873000Y-90297000D01*
X126853000Y-90297000D01*
X126853000Y-90043000D01*
X126873000Y-90043000D01*
X126873000Y-88200214D01*
X126650945Y-88078227D01*
X126568143Y-88095769D01*
X126075033Y-88365658D01*
X125855412Y-88638741D01*
X125611269Y-88273355D01*
X125587760Y-88257647D01*
X125587760Y-85337785D01*
X125624302Y-85374327D01*
X125857691Y-85471000D01*
X126460250Y-85471000D01*
X126619000Y-85312250D01*
X126619000Y-83947000D01*
X125507750Y-83947000D01*
X125349000Y-84105750D01*
X125349000Y-84289872D01*
X125257447Y-84152853D01*
X125050262Y-83945668D01*
X125050262Y-82804000D01*
X124992524Y-82497147D01*
X124811174Y-82215321D01*
X124534465Y-82026254D01*
X124206000Y-81959738D01*
X123047760Y-81959738D01*
X123047760Y-81819737D01*
X123299465Y-81568471D01*
X123547857Y-80970278D01*
X123548422Y-80322564D01*
X123301075Y-79723938D01*
X123209954Y-79632658D01*
X123352447Y-79537447D01*
X123987444Y-78902449D01*
X123987447Y-78902447D01*
X124231914Y-78536575D01*
X124253623Y-78427436D01*
X124317761Y-78105000D01*
X124317760Y-78104995D01*
X124317760Y-76908158D01*
X124333000Y-76899786D01*
X124333000Y-75057000D01*
X124317760Y-75057000D01*
X124317760Y-74803000D01*
X124333000Y-74803000D01*
X124333000Y-72960214D01*
X124317760Y-72951842D01*
X124317760Y-69682134D01*
X125257447Y-68742447D01*
X125501914Y-68376575D01*
X125587760Y-67945000D01*
X125587760Y-66062593D01*
X125611269Y-66046885D01*
X125964205Y-65518678D01*
X126088140Y-64895616D01*
X126088140Y-63404864D01*
X125964205Y-62781802D01*
X125611269Y-62253595D01*
X125391096Y-62106481D01*
X125737259Y-61676052D01*
X125895100Y-61136530D01*
X125895100Y-60436760D01*
X124587000Y-60436760D01*
X124587000Y-60456760D01*
X124333000Y-60456760D01*
X124333000Y-60436760D01*
X124317760Y-60436760D01*
X124317760Y-60182760D01*
X124333000Y-60182760D01*
X124333000Y-60162760D01*
X124587000Y-60162760D01*
X124587000Y-60182760D01*
X125895100Y-60182760D01*
X125895100Y-59482990D01*
X125737259Y-58943468D01*
X125712563Y-58912760D01*
X126507240Y-58912760D01*
X126507240Y-72390000D01*
M02*
