G04 #@! TF.FileFunction,Copper,L2,Bot,Signal*
%FSLAX46Y46*%
G04 Gerber Fmt 4.6, Leading zero omitted, Abs format (unit mm)*
G04 Created by KiCad (PCBNEW 4.0.5+dfsg1-4) date Wed May 24 14:07:58 2017*
%MOMM*%
%LPD*%
G01*
G04 APERTURE LIST*
%ADD10C,0.150000*%
%ADD11C,0.381000*%
%ADD12C,0.500380*%
%ADD13O,2.999740X1.600200*%
%ADD14O,2.999740X1.501140*%
%ADD15R,2.032000X1.524000*%
%ADD16R,2.999740X1.600200*%
%ADD17C,4.064000*%
%ADD18C,1.699260*%
%ADD19C,0.599440*%
%ADD20C,0.254000*%
G04 APERTURE END LIST*
D10*
D11*
X76200000Y-62865000D02*
X76200000Y-142240000D01*
X235585000Y-62865000D02*
X76200000Y-62865000D01*
X235585000Y-142240000D02*
X235585000Y-62865000D01*
X76200000Y-142240000D02*
X235585000Y-142240000D01*
D12*
X86629119Y-126357199D02*
X85914895Y-128357025D01*
X85200671Y-126357199D01*
X82486621Y-128357025D02*
X84200758Y-128357025D01*
X83343689Y-128357025D02*
X83343689Y-125357285D01*
X83629379Y-125785820D01*
X83915068Y-126071509D01*
X84200758Y-126214354D01*
X80772484Y-126642888D02*
X81058173Y-126500043D01*
X81201018Y-126357199D01*
X81343863Y-126071509D01*
X81343863Y-125928664D01*
X81201018Y-125642975D01*
X81058173Y-125500130D01*
X80772484Y-125357285D01*
X80201105Y-125357285D01*
X79915415Y-125500130D01*
X79772571Y-125642975D01*
X79629726Y-125928664D01*
X79629726Y-126071509D01*
X79772571Y-126357199D01*
X79915415Y-126500043D01*
X80201105Y-126642888D01*
X80772484Y-126642888D01*
X81058173Y-126785733D01*
X81201018Y-126928578D01*
X81343863Y-127214267D01*
X81343863Y-127785646D01*
X81201018Y-128071336D01*
X81058173Y-128214180D01*
X80772484Y-128357025D01*
X80201105Y-128357025D01*
X79915415Y-128214180D01*
X79772571Y-128071336D01*
X79629726Y-127785646D01*
X79629726Y-127214267D01*
X79772571Y-126928578D01*
X79915415Y-126785733D01*
X80201105Y-126642888D01*
X96479783Y-136945733D02*
X96051249Y-137088578D01*
X95908404Y-137231422D01*
X95765559Y-137517112D01*
X95765559Y-137945646D01*
X95908404Y-138231336D01*
X96051249Y-138374180D01*
X96336938Y-138517025D01*
X97479696Y-138517025D01*
X97479696Y-135517285D01*
X96479783Y-135517285D01*
X96194093Y-135660130D01*
X96051249Y-135802975D01*
X95908404Y-136088664D01*
X95908404Y-136374354D01*
X96051249Y-136660043D01*
X96194093Y-136802888D01*
X96479783Y-136945733D01*
X97479696Y-136945733D01*
X93908577Y-135517285D02*
X93337198Y-135517285D01*
X93051509Y-135660130D01*
X92765819Y-135945820D01*
X92622974Y-136517199D01*
X92622974Y-137517112D01*
X92765819Y-138088491D01*
X93051509Y-138374180D01*
X93337198Y-138517025D01*
X93908577Y-138517025D01*
X94194267Y-138374180D01*
X94479956Y-138088491D01*
X94622801Y-137517112D01*
X94622801Y-136517199D01*
X94479956Y-135945820D01*
X94194267Y-135660130D01*
X93908577Y-135517285D01*
X91765905Y-135517285D02*
X90051768Y-135517285D01*
X90908837Y-138517025D02*
X90908837Y-135517285D01*
D13*
X175895000Y-86360000D03*
X175895000Y-88900000D03*
X175895000Y-91440000D03*
X175895000Y-93980000D03*
X175895000Y-96520000D03*
X175895000Y-99060000D03*
X175895000Y-101600000D03*
X175895000Y-104140000D03*
X175895000Y-106680000D03*
X175895000Y-109220000D03*
X175895000Y-111760000D03*
X175895000Y-114300000D03*
X175895000Y-116840000D03*
X175895000Y-83820000D03*
X183515000Y-116840000D03*
X183515000Y-114300000D03*
X183515000Y-111760000D03*
X183515000Y-109220000D03*
X183515000Y-106680000D03*
X183515000Y-104140000D03*
X183515000Y-101600000D03*
X183515000Y-99060000D03*
X183515000Y-96520000D03*
X183515000Y-93980000D03*
X183515000Y-91440000D03*
X183515000Y-88900000D03*
X183515000Y-86360000D03*
X183515000Y-83820000D03*
X93995240Y-121920000D03*
X90154760Y-121920000D03*
X93995240Y-119380000D03*
X90154760Y-119380000D03*
X93995240Y-116840000D03*
X90154760Y-116840000D03*
X93995240Y-114300000D03*
X90154760Y-114300000D03*
X93995240Y-111760000D03*
X90154760Y-111760000D03*
X93995240Y-109220000D03*
X90154760Y-109220000D03*
X93995240Y-106680000D03*
X90154760Y-106680000D03*
X93995240Y-104140000D03*
X90154760Y-104140000D03*
X93995240Y-101600000D03*
X90154760Y-101600000D03*
X93995240Y-99060000D03*
X90154760Y-99060000D03*
X112395000Y-83820000D03*
X112395000Y-86360000D03*
X112395000Y-88900000D03*
X112395000Y-91440000D03*
X112395000Y-93980000D03*
X112395000Y-96520000D03*
X112395000Y-99060000D03*
X112395000Y-101600000D03*
X112395000Y-104140000D03*
X112395000Y-106680000D03*
X112395000Y-109220000D03*
X112395000Y-111760000D03*
X112395000Y-114300000D03*
X112395000Y-116840000D03*
X112395000Y-119380000D03*
X112395000Y-121920000D03*
X112395000Y-124460000D03*
X112395000Y-127000000D03*
X112395000Y-129540000D03*
X112395000Y-132080000D03*
X127635000Y-132080000D03*
X127635000Y-129540000D03*
X127635000Y-127000000D03*
X127635000Y-124460000D03*
X127635000Y-121920000D03*
X127635000Y-119380000D03*
X127635000Y-116840000D03*
X127635000Y-114300000D03*
X127635000Y-111760000D03*
X127635000Y-109220000D03*
X127635000Y-106680000D03*
X127635000Y-104140000D03*
X127635000Y-101600000D03*
X127635000Y-99060000D03*
X127635000Y-96520000D03*
X127635000Y-93980000D03*
X127635000Y-91440000D03*
X127635000Y-88900000D03*
X127635000Y-86360000D03*
X127635000Y-83820000D03*
X132715000Y-83820000D03*
X132715000Y-86360000D03*
X132715000Y-88900000D03*
X132715000Y-91440000D03*
X132715000Y-93980000D03*
X132715000Y-96520000D03*
X132715000Y-99060000D03*
X132715000Y-101600000D03*
X132715000Y-104140000D03*
X132715000Y-106680000D03*
X132715000Y-109220000D03*
X132715000Y-111760000D03*
X132715000Y-114300000D03*
X132715000Y-116840000D03*
X132715000Y-119380000D03*
X132715000Y-121920000D03*
X132715000Y-124460000D03*
X132715000Y-127000000D03*
X132715000Y-129540000D03*
X132715000Y-132080000D03*
X147955000Y-132080000D03*
X147955000Y-129540000D03*
X147955000Y-127000000D03*
X147955000Y-124460000D03*
X147955000Y-121920000D03*
X147955000Y-119380000D03*
X147955000Y-116840000D03*
X147955000Y-114300000D03*
X147955000Y-111760000D03*
X147955000Y-109220000D03*
X147955000Y-106680000D03*
X147955000Y-104140000D03*
X147955000Y-101600000D03*
X147955000Y-99060000D03*
X147955000Y-96520000D03*
X147955000Y-93980000D03*
X147955000Y-91440000D03*
X147955000Y-88900000D03*
X147955000Y-86360000D03*
X147955000Y-83820000D03*
X206375000Y-83820000D03*
X206375000Y-86360000D03*
X206375000Y-88900000D03*
X206375000Y-91440000D03*
X206375000Y-93980000D03*
X206375000Y-96520000D03*
X206375000Y-99060000D03*
X206375000Y-101600000D03*
X206375000Y-104140000D03*
X206375000Y-106680000D03*
X213995000Y-106680000D03*
X213995000Y-104140000D03*
X213995000Y-101600000D03*
X213995000Y-99060000D03*
X213995000Y-96520000D03*
X213995000Y-93980000D03*
X213995000Y-91440000D03*
X213995000Y-88900000D03*
X213995000Y-86360000D03*
X213995000Y-83820000D03*
X206375000Y-111760000D03*
X206375000Y-114300000D03*
X206375000Y-116840000D03*
X206375000Y-119380000D03*
X206375000Y-121920000D03*
X206375000Y-124460000D03*
X206375000Y-127000000D03*
X206375000Y-129540000D03*
X206375000Y-132080000D03*
X206375000Y-134620000D03*
X213995000Y-134620000D03*
X213995000Y-132080000D03*
X213995000Y-129540000D03*
X213995000Y-127000000D03*
X213995000Y-124460000D03*
X213995000Y-121920000D03*
X213995000Y-119380000D03*
X213995000Y-116840000D03*
X213995000Y-114300000D03*
X213995000Y-111760000D03*
X175895000Y-124460000D03*
X175895000Y-127000000D03*
X175895000Y-129540000D03*
X175895000Y-132080000D03*
X183515000Y-132080000D03*
X183515000Y-129540000D03*
X183515000Y-127000000D03*
X183515000Y-124460000D03*
X155575000Y-127000000D03*
X155575000Y-129540000D03*
X155575000Y-132080000D03*
X155575000Y-134620000D03*
X163195000Y-134620000D03*
X163195000Y-132080000D03*
X163195000Y-129540000D03*
X163195000Y-127000000D03*
X154305000Y-83820000D03*
X154305000Y-86360000D03*
X154305000Y-88900000D03*
X154305000Y-91440000D03*
X154305000Y-93980000D03*
X154305000Y-96520000D03*
X154305000Y-99060000D03*
X154305000Y-101600000D03*
X154305000Y-104140000D03*
X154305000Y-106680000D03*
X154305000Y-109220000D03*
X154305000Y-111760000D03*
X154305000Y-114300000D03*
X154305000Y-116840000D03*
X154305000Y-119380000D03*
X154305000Y-121920000D03*
X169545000Y-121920000D03*
X169545000Y-119380000D03*
X169545000Y-116840000D03*
X169545000Y-114300000D03*
X169545000Y-111760000D03*
D14*
X169545000Y-109220000D03*
D13*
X169545000Y-106680000D03*
X169545000Y-104140000D03*
X169545000Y-101600000D03*
X169545000Y-99060000D03*
X169545000Y-96520000D03*
X169545000Y-93980000D03*
D14*
X169545000Y-91440000D03*
D13*
X169545000Y-88900000D03*
X169545000Y-86360000D03*
X169545000Y-83820000D03*
D15*
X203835000Y-140081000D03*
X203835000Y-136779000D03*
X217805000Y-140081000D03*
X217805000Y-136779000D03*
X150495000Y-140081000D03*
X150495000Y-136779000D03*
X163195000Y-117221000D03*
X163195000Y-113919000D03*
X110490000Y-140081000D03*
X110490000Y-136779000D03*
D16*
X191135000Y-120650000D03*
D13*
X191135000Y-123190000D03*
X191135000Y-125730000D03*
X191135000Y-128270000D03*
X191135000Y-130810000D03*
X191135000Y-133350000D03*
X191135000Y-135890000D03*
X198755000Y-135890000D03*
X198755000Y-133350000D03*
X198755000Y-130810000D03*
X198755000Y-128270000D03*
X198755000Y-125730000D03*
X198755000Y-123190000D03*
X198755000Y-120650000D03*
D17*
X81280000Y-67945000D03*
X230505000Y-67945000D03*
X230505000Y-137160000D03*
X81280000Y-137160000D03*
D18*
X105156000Y-106680000D03*
X201930000Y-100965000D03*
X105156000Y-118872000D03*
X201930000Y-116840000D03*
X187325000Y-90805000D03*
X163195000Y-78740000D03*
X139065000Y-83820000D03*
X97790000Y-81280000D03*
X187325000Y-78740000D03*
X97790000Y-116840000D03*
X163195000Y-108585000D03*
X139065000Y-78740000D03*
X119380000Y-111760000D03*
X193040000Y-100965000D03*
X194945000Y-100965000D03*
X194945000Y-90805000D03*
X119380000Y-132080000D03*
X193040000Y-123190000D03*
X178435000Y-116840000D03*
X178435000Y-134620000D03*
X161925000Y-120650000D03*
X161925000Y-101600000D03*
X196215000Y-115951000D03*
X173355000Y-121920000D03*
X220980000Y-101600000D03*
X116332000Y-86360000D03*
X171450000Y-128270000D03*
X196215000Y-135890000D03*
X160020000Y-121920000D03*
X116332000Y-79375000D03*
X160020000Y-104140000D03*
X217424000Y-101600000D03*
X108585000Y-88900000D03*
X222885000Y-99060000D03*
X201930000Y-133350000D03*
X187198000Y-119634000D03*
X160020000Y-124460000D03*
X201930000Y-118999000D03*
X187706000Y-126111000D03*
X160020000Y-129540000D03*
X108585000Y-76200000D03*
X187198000Y-114808000D03*
X217424000Y-98933000D03*
X187706000Y-121158000D03*
X224790000Y-96520000D03*
X217424000Y-96520000D03*
X224790000Y-109220000D03*
X106680000Y-86360000D03*
X172720000Y-113030000D03*
X217297000Y-109220000D03*
X106680000Y-74295000D03*
X172720000Y-106680000D03*
X104775000Y-72390000D03*
X217424000Y-93853000D03*
X104775000Y-88900000D03*
X180975000Y-109220000D03*
X180975000Y-105410000D03*
X226695000Y-93980000D03*
X178435000Y-107315000D03*
X228600000Y-91440000D03*
X178435000Y-100330000D03*
X102870000Y-70485000D03*
X217424000Y-91440000D03*
X102870000Y-86360000D03*
X99695000Y-68580000D03*
X230505000Y-88900000D03*
X99695000Y-88900000D03*
X192405000Y-98425000D03*
X192405000Y-88265000D03*
X217424000Y-88900000D03*
X95250000Y-66675000D03*
X217424000Y-86360000D03*
X95250000Y-86360000D03*
X189865000Y-86360000D03*
X189865000Y-93980000D03*
X232410000Y-86360000D03*
X108204000Y-112395000D03*
X108204000Y-120396000D03*
X158115000Y-83185000D03*
X198120000Y-111125000D03*
X158115000Y-89535000D03*
X198120000Y-96520000D03*
X99441000Y-121920000D03*
X194945000Y-127000000D03*
X194310000Y-113030000D03*
X99441000Y-99060000D03*
X109855000Y-110490000D03*
X109855000Y-118110000D03*
X172085000Y-86360000D03*
X186055000Y-133985000D03*
X137160000Y-125730000D03*
X92710000Y-66675000D03*
X172085000Y-82550000D03*
X92710000Y-88900000D03*
X137160000Y-104140000D03*
X186055000Y-122555000D03*
X151130000Y-83820000D03*
X211455000Y-120650000D03*
X180975000Y-124460000D03*
X211455000Y-105410000D03*
X118745000Y-106680000D03*
X122555000Y-109220000D03*
X186690000Y-99695000D03*
X167640000Y-127000000D03*
X122555000Y-128270000D03*
X122555000Y-139700000D03*
X122555000Y-111125000D03*
X165735000Y-125730000D03*
X122555000Y-130175000D03*
X167640000Y-139700000D03*
X166370000Y-97790000D03*
X160655000Y-97790000D03*
X160655000Y-91440000D03*
X151130000Y-92710000D03*
X186690000Y-104140000D03*
X165735000Y-117475000D03*
X211455000Y-97790000D03*
X211455000Y-83820000D03*
X180975000Y-139700000D03*
X166370000Y-115570000D03*
X165100000Y-85725000D03*
X106680000Y-122555000D03*
X200025000Y-114300000D03*
X165100000Y-92710000D03*
X200025000Y-99060000D03*
X106680000Y-109220000D03*
X103251000Y-104140000D03*
X203835000Y-120015000D03*
X203835000Y-104140000D03*
X203835000Y-128270000D03*
X103251000Y-121920000D03*
X188976000Y-110236000D03*
X101346000Y-119380000D03*
X188976000Y-132080000D03*
X101346000Y-101600000D03*
X158115000Y-97155000D03*
X158115000Y-134620000D03*
X158115000Y-93980000D03*
X116840000Y-109220000D03*
X165100000Y-100330000D03*
X116840000Y-137160000D03*
X165100000Y-113665000D03*
X208915000Y-124460000D03*
X158115000Y-99060000D03*
X208915000Y-106680000D03*
D19*
X108585000Y-127000000D02*
X112395000Y-127000000D01*
X150495000Y-110490000D02*
X151765000Y-111760000D01*
X197485000Y-100965000D02*
X201930000Y-100965000D01*
X155575000Y-95250000D02*
X156845000Y-95250000D01*
X186690000Y-95250000D02*
X187325000Y-95885000D01*
X192405000Y-95885000D02*
X197485000Y-100965000D01*
X145415000Y-97790000D02*
X150495000Y-97790000D01*
X114935000Y-127000000D02*
X123825000Y-118110000D01*
X158115000Y-95250000D02*
X171704000Y-95250000D01*
X204470000Y-101600000D02*
X206375000Y-101600000D01*
X105102660Y-124145040D02*
X108585000Y-127000000D01*
X151765000Y-111760000D02*
X154305000Y-111760000D01*
X187325000Y-95885000D02*
X192405000Y-95885000D01*
X123825000Y-118110000D02*
X130175000Y-118110000D01*
X201930000Y-100965000D02*
X203835000Y-100965000D01*
X175895000Y-96520000D02*
X179070000Y-96520000D01*
X134620000Y-116840000D02*
X140970000Y-110490000D01*
X93345000Y-106680000D02*
X105156000Y-106680000D01*
X171704000Y-95250000D02*
X172974000Y-96520000D01*
X180340000Y-95250000D02*
X186690000Y-95250000D01*
X179070000Y-96520000D02*
X180340000Y-95250000D01*
X130175000Y-118110000D02*
X131445000Y-116840000D01*
X144780000Y-98425000D02*
X145415000Y-97790000D01*
X112395000Y-127000000D02*
X114935000Y-127000000D01*
X140970000Y-110490000D02*
X144780000Y-110490000D01*
X175895000Y-96520000D02*
X172974000Y-96520000D01*
X156845000Y-95250000D02*
X158115000Y-95250000D01*
X144780000Y-110490000D02*
X150495000Y-110490000D01*
X203835000Y-100965000D02*
X204470000Y-101600000D01*
X132715000Y-116840000D02*
X133985000Y-116840000D01*
X206375000Y-116840000D02*
X201930000Y-116840000D01*
X150495000Y-97790000D02*
X152400000Y-95250000D01*
X105156000Y-118872000D02*
X105102660Y-124145040D01*
X131445000Y-116840000D02*
X132715000Y-116840000D01*
X144780000Y-106045000D02*
X144780000Y-98425000D01*
X152400000Y-95250000D02*
X155575000Y-95250000D01*
X144780000Y-106045000D02*
X144780000Y-110490000D01*
X201930000Y-116840000D02*
X201930000Y-116840000D01*
X132715000Y-116840000D02*
X134620000Y-116840000D01*
X157480000Y-108585000D02*
X163195000Y-108585000D01*
X139065000Y-83820000D02*
X139065000Y-85725000D01*
X97790000Y-81280000D02*
X127000000Y-81280000D01*
X139700000Y-86360000D02*
X147955000Y-86360000D01*
X130175000Y-78740000D02*
X139065000Y-78740000D01*
X186690000Y-91440000D02*
X187325000Y-90805000D01*
X127635000Y-81280000D02*
X130175000Y-78740000D01*
X146685000Y-86360000D02*
X147955000Y-86360000D01*
X127635000Y-81280000D02*
X127000000Y-81280000D01*
X139065000Y-78740000D02*
X163195000Y-78740000D01*
X183515000Y-91440000D02*
X186690000Y-91440000D01*
X187325000Y-78740000D02*
X163195000Y-78740000D01*
X156845000Y-109220000D02*
X157480000Y-108585000D01*
X139065000Y-85725000D02*
X139700000Y-86360000D01*
X154305000Y-109220000D02*
X156845000Y-109220000D01*
X97790000Y-116840000D02*
X93345000Y-116840000D01*
X127635000Y-81280000D02*
X127635000Y-83820000D01*
X151765000Y-128270000D02*
X153035000Y-129540000D01*
X161290000Y-133350000D02*
X168910000Y-133350000D01*
X154305000Y-106680000D02*
X161726880Y-106680000D01*
X151765000Y-128270000D02*
X151765000Y-128270000D01*
X137160000Y-129540000D02*
X138430000Y-128270000D01*
X151765000Y-128270000D02*
X151765000Y-128270000D01*
X161726880Y-106680000D02*
X164706300Y-102814120D01*
X158115000Y-129540000D02*
X161290000Y-133350000D01*
X191135000Y-123190000D02*
X193040000Y-123190000D01*
X179070000Y-129540000D02*
X175895000Y-129540000D01*
X172720000Y-129540000D02*
X175895000Y-129540000D01*
X116840000Y-111760000D02*
X119380000Y-111760000D01*
X119380000Y-132080000D02*
X125095000Y-132080000D01*
X190500000Y-100965000D02*
X193040000Y-100965000D01*
X109220000Y-116205000D02*
X111125000Y-114300000D01*
X180340000Y-130810000D02*
X185420000Y-130810000D01*
X189103000Y-127127000D02*
X185420000Y-130810000D01*
X126365000Y-130810000D02*
X130175000Y-130810000D01*
X114300000Y-114300000D02*
X116840000Y-111760000D01*
X174625000Y-104140000D02*
X175895000Y-104140000D01*
X100965000Y-116205000D02*
X109220000Y-116205000D01*
X97790000Y-119380000D02*
X100965000Y-116205000D01*
X193040000Y-100965000D02*
X194945000Y-100965000D01*
X153035000Y-129540000D02*
X155575000Y-129540000D01*
X198120000Y-93980000D02*
X206375000Y-93980000D01*
X194945000Y-90805000D02*
X198120000Y-93980000D01*
X173355000Y-102870000D02*
X174625000Y-104140000D01*
X193040000Y-123190000D02*
X194945000Y-123190000D01*
X138430000Y-128270000D02*
X151765000Y-128270000D01*
X131445000Y-129540000D02*
X132715000Y-129540000D01*
X112395000Y-114300000D02*
X114300000Y-114300000D01*
X155575000Y-129540000D02*
X158115000Y-129540000D01*
X179070000Y-129540000D02*
X180340000Y-130810000D01*
X176530000Y-104140000D02*
X177800000Y-102870000D01*
X200660000Y-124460000D02*
X203200000Y-127000000D01*
X203200000Y-127000000D02*
X206375000Y-127000000D01*
X132715000Y-129540000D02*
X137160000Y-129540000D01*
X93345000Y-119380000D02*
X97790000Y-119380000D01*
X189103000Y-124543820D02*
X189103000Y-127127000D01*
X130175000Y-130810000D02*
X131445000Y-129540000D01*
X196215000Y-124460000D02*
X200660000Y-124460000D01*
X175895000Y-104140000D02*
X176530000Y-104140000D01*
X164706300Y-102814120D02*
X173355000Y-102870000D01*
X188595000Y-102870000D02*
X190500000Y-100965000D01*
X191135000Y-123190000D02*
X189103000Y-124543820D01*
X194945000Y-123190000D02*
X196215000Y-124460000D01*
X177800000Y-102870000D02*
X188595000Y-102870000D01*
X125095000Y-132080000D02*
X126365000Y-130810000D01*
X168910000Y-133350000D02*
X172720000Y-129540000D01*
X111125000Y-114300000D02*
X112395000Y-114300000D01*
X183515000Y-135890000D02*
X191135000Y-135890000D01*
X173990000Y-130810000D02*
X170180000Y-134620000D01*
X171450000Y-120650000D02*
X175260000Y-116840000D01*
X183515000Y-132080000D02*
X183515000Y-135890000D01*
X182245000Y-115570000D02*
X180975000Y-116840000D01*
X132715000Y-83820000D02*
X135890000Y-80645000D01*
X161925000Y-120650000D02*
X171450000Y-120650000D01*
X121285000Y-85090000D02*
X130175000Y-85090000D01*
X219075000Y-84455000D02*
X219075000Y-104140000D01*
X185420000Y-115570000D02*
X182245000Y-115570000D01*
X191135000Y-114300000D02*
X188595000Y-116840000D01*
X198755000Y-113030000D02*
X197485000Y-114300000D01*
X131445000Y-83820000D02*
X132715000Y-83820000D01*
X210820000Y-111760000D02*
X209550000Y-113030000D01*
X112395000Y-83820000D02*
X120015000Y-83820000D01*
X178435000Y-134620000D02*
X178435000Y-130810000D01*
X175260000Y-116840000D02*
X175895000Y-116840000D01*
X219075000Y-111760000D02*
X213995000Y-111760000D01*
X178435000Y-130810000D02*
X173990000Y-130810000D01*
X186690000Y-116840000D02*
X185420000Y-115570000D01*
X215265000Y-80645000D02*
X219075000Y-84455000D01*
X209550000Y-113030000D02*
X198755000Y-113030000D01*
X197485000Y-114300000D02*
X191135000Y-114300000D01*
X213995000Y-111760000D02*
X210820000Y-111760000D01*
X175895000Y-116840000D02*
X178435000Y-116840000D01*
X180975000Y-116840000D02*
X178435000Y-116840000D01*
X90805000Y-86360000D02*
X93345000Y-83820000D01*
X90805000Y-99060000D02*
X90805000Y-86360000D01*
X135890000Y-80645000D02*
X215265000Y-80645000D01*
X120015000Y-83820000D02*
X121285000Y-85090000D01*
X130175000Y-85090000D02*
X131445000Y-83820000D01*
X219075000Y-104140000D02*
X219075000Y-111760000D01*
X178435000Y-130810000D02*
X179705000Y-132080000D01*
X93345000Y-83820000D02*
X112395000Y-83820000D01*
X183515000Y-132080000D02*
X179705000Y-132080000D01*
X188595000Y-116840000D02*
X186690000Y-116840000D01*
X170180000Y-134620000D02*
X163195000Y-134620000D01*
X154305000Y-101600000D02*
X161925000Y-101600000D01*
X219075000Y-104140000D02*
X213995000Y-104140000D01*
X214581740Y-76835000D02*
X129540000Y-76835000D01*
X130175000Y-87630000D02*
X131445000Y-86360000D01*
X173355000Y-121920000D02*
X172085000Y-123190000D01*
X129540000Y-76835000D02*
X118872000Y-76962000D01*
X220980000Y-101600000D02*
X220980000Y-114300000D01*
X183515000Y-117475000D02*
X183515000Y-116840000D01*
X198755000Y-135890000D02*
X196215000Y-135890000D01*
X210820000Y-114300000D02*
X213995000Y-114300000D01*
X210820000Y-114300000D02*
X209550000Y-115570000D01*
X167640000Y-132080000D02*
X163195000Y-132080000D01*
X183515000Y-116840000D02*
X184785000Y-118110000D01*
X171450000Y-128270000D02*
X171450000Y-128270000D01*
X213995000Y-101600000D02*
X217424000Y-101600000D01*
X220980000Y-114300000D02*
X213995000Y-114300000D01*
X196215000Y-115951000D02*
X200406000Y-115951000D01*
X200406000Y-115951000D02*
X201168000Y-115570000D01*
X181610000Y-119380000D02*
X183515000Y-117475000D01*
X209550000Y-115570000D02*
X201168000Y-115570000D01*
X167640000Y-123190000D02*
X167005000Y-122555000D01*
X131445000Y-86360000D02*
X132715000Y-86360000D01*
X220980000Y-83766660D02*
X214581740Y-76835000D01*
X184785000Y-118110000D02*
X189865000Y-118110000D01*
X175895000Y-119380000D02*
X181610000Y-119380000D01*
X171450000Y-128270000D02*
X179705000Y-128270000D01*
X171450000Y-128270000D02*
X167640000Y-132080000D01*
X220980000Y-101600000D02*
X220980000Y-83766660D01*
X118872000Y-76962000D02*
X116332000Y-79375000D01*
X173355000Y-121920000D02*
X175895000Y-119380000D01*
X87630000Y-85725000D02*
X93980000Y-79375000D01*
X160655000Y-122555000D02*
X160020000Y-121920000D01*
X120015000Y-86360000D02*
X121285000Y-87630000D01*
X172085000Y-123190000D02*
X167640000Y-123190000D01*
X189865000Y-118110000D02*
X191897000Y-115951000D01*
X191897000Y-115951000D02*
X196215000Y-115951000D01*
X116332000Y-86360000D02*
X120015000Y-86360000D01*
X180975000Y-129540000D02*
X183515000Y-129540000D01*
X121285000Y-87630000D02*
X130175000Y-87630000D01*
X167005000Y-122555000D02*
X160655000Y-122555000D01*
X160020000Y-104140000D02*
X154305000Y-104140000D01*
X112395000Y-86360000D02*
X116332000Y-86360000D01*
X87630000Y-85725000D02*
X87630000Y-100965000D01*
X116205000Y-79375000D02*
X116332000Y-79375000D01*
X90805000Y-101600000D02*
X88265000Y-101600000D01*
X87630000Y-100965000D02*
X88265000Y-101600000D01*
X93980000Y-79375000D02*
X116205000Y-79375000D01*
X179705000Y-128270000D02*
X180975000Y-129540000D01*
X203200000Y-118110000D02*
X209550000Y-118110000D01*
X183515000Y-114300000D02*
X186690000Y-114300000D01*
X163195000Y-129540000D02*
X160020000Y-129540000D01*
X222885000Y-99060000D02*
X222885000Y-116840000D01*
X222885000Y-116840000D02*
X213995000Y-116840000D01*
X186690000Y-114300000D02*
X187198000Y-114808000D01*
X86360000Y-85090000D02*
X93980000Y-77470000D01*
X108585000Y-76200000D02*
X109855000Y-74930000D01*
X190246000Y-119126000D02*
X187198000Y-119634000D01*
X90805000Y-104140000D02*
X86995000Y-104140000D01*
X111125000Y-74930000D02*
X215221820Y-74930000D01*
X187198000Y-119634000D02*
X187706000Y-121158000D01*
X201930000Y-133350000D02*
X198755000Y-133350000D01*
X215221820Y-74930000D02*
X222885000Y-83141820D01*
X213995000Y-99060000D02*
X217424000Y-98933000D01*
X222885000Y-83141820D02*
X222885000Y-99060000D01*
X109855000Y-74930000D02*
X111125000Y-74930000D01*
X180975000Y-127000000D02*
X179705000Y-125730000D01*
X132715000Y-88900000D02*
X131445000Y-88900000D01*
X187706000Y-126111000D02*
X185420000Y-127000000D01*
X120015000Y-88900000D02*
X112395000Y-88900000D01*
X201930000Y-118999000D02*
X199908160Y-117459760D01*
X121285000Y-90170000D02*
X130175000Y-90170000D01*
X93980000Y-77470000D02*
X107315000Y-77470000D01*
X201930000Y-118999000D02*
X203200000Y-118110000D01*
X185420000Y-127000000D02*
X183515000Y-127000000D01*
X107315000Y-77470000D02*
X108585000Y-76200000D01*
X183515000Y-127000000D02*
X180975000Y-127000000D01*
X171450000Y-125730000D02*
X167640000Y-129540000D01*
X130175000Y-90170000D02*
X131445000Y-88900000D01*
X160020000Y-124460000D02*
X154305000Y-121920000D01*
X120015000Y-88900000D02*
X121285000Y-90170000D01*
X199908160Y-117459760D02*
X192405000Y-117475000D01*
X86360000Y-103505000D02*
X86360000Y-85090000D01*
X192405000Y-117475000D02*
X190246000Y-119126000D01*
X167640000Y-129540000D02*
X163195000Y-129540000D01*
X179705000Y-125730000D02*
X171450000Y-125730000D01*
X209550000Y-118110000D02*
X210820000Y-116840000D01*
X108585000Y-88900000D02*
X112395000Y-88900000D01*
X213995000Y-116840000D02*
X210820000Y-116840000D01*
X86995000Y-104140000D02*
X86360000Y-103505000D01*
X105410000Y-75565000D02*
X106680000Y-74295000D01*
X217424000Y-96520000D02*
X213995000Y-96520000D01*
X130810000Y-91440000D02*
X132715000Y-91440000D01*
X129540000Y-92710000D02*
X130810000Y-91440000D01*
X172720000Y-113030000D02*
X179070000Y-113030000D01*
X112395000Y-91440000D02*
X120015000Y-91440000D01*
X121285000Y-92710000D02*
X129540000Y-92710000D01*
X130810000Y-73025000D02*
X215859360Y-73025000D01*
X106680000Y-86360000D02*
X106680000Y-89535000D01*
X224790000Y-119380000D02*
X213995000Y-119380000D01*
X224790000Y-96520000D02*
X224790000Y-109220000D01*
X85090000Y-106045000D02*
X85090000Y-84455000D01*
X194310000Y-108585000D02*
X193040000Y-109855000D01*
X202565000Y-109855000D02*
X201295000Y-108585000D01*
X201295000Y-108585000D02*
X194310000Y-108585000D01*
X180340000Y-111760000D02*
X183515000Y-111760000D01*
X193040000Y-109855000D02*
X191770000Y-109855000D01*
X85090000Y-84455000D02*
X93980000Y-75565000D01*
X179070000Y-113030000D02*
X180340000Y-111760000D01*
X224790000Y-109220000D02*
X224790000Y-119380000D01*
X85725000Y-106680000D02*
X85090000Y-106045000D01*
X93980000Y-75565000D02*
X105410000Y-75565000D01*
X215859360Y-73025000D02*
X224790000Y-82550000D01*
X90805000Y-106680000D02*
X85725000Y-106680000D01*
X120015000Y-91440000D02*
X121285000Y-92710000D01*
X108585000Y-91440000D02*
X112395000Y-91440000D01*
X191770000Y-109855000D02*
X189865000Y-111760000D01*
X169545000Y-106680000D02*
X172720000Y-106680000D01*
X107950000Y-73025000D02*
X130810000Y-73025000D01*
X189865000Y-111760000D02*
X183515000Y-111760000D01*
X106680000Y-74295000D02*
X107950000Y-73025000D01*
X224790000Y-82550000D02*
X224790000Y-96520000D01*
X106680000Y-89535000D02*
X108585000Y-91440000D01*
X215900000Y-109855000D02*
X202565000Y-109855000D01*
X217297000Y-109220000D02*
X215900000Y-109855000D01*
X83820000Y-83820000D02*
X93980000Y-73660000D01*
X104775000Y-88900000D02*
X104775000Y-90170000D01*
X210185000Y-102870000D02*
X207645000Y-105410000D01*
X103505000Y-73660000D02*
X104775000Y-72390000D01*
X112395000Y-93980000D02*
X120015000Y-93980000D01*
X191770000Y-105410000D02*
X187960000Y-109220000D01*
X84455000Y-109220000D02*
X83820000Y-108585000D01*
X104775000Y-72390000D02*
X106045000Y-71120000D01*
X213995000Y-93980000D02*
X211455000Y-93980000D01*
X93980000Y-73660000D02*
X103505000Y-73660000D01*
X83820000Y-108585000D02*
X83820000Y-83820000D01*
X172720000Y-104140000D02*
X173990000Y-105410000D01*
X120015000Y-93980000D02*
X121285000Y-95250000D01*
X187960000Y-109220000D02*
X183515000Y-109220000D01*
X210185000Y-95250000D02*
X210185000Y-102870000D01*
X108585000Y-93980000D02*
X112395000Y-93980000D01*
X213995000Y-127000000D02*
X220345000Y-127000000D01*
X226695000Y-120650000D02*
X220345000Y-127000000D01*
X216738200Y-71120000D02*
X226695000Y-81864200D01*
X104775000Y-90170000D02*
X108585000Y-93980000D01*
X207645000Y-105410000D02*
X191770000Y-105410000D01*
X90805000Y-109220000D02*
X84455000Y-109220000D01*
X226695000Y-81864200D02*
X226695000Y-93980000D01*
X111760000Y-71120000D02*
X216738200Y-71120000D01*
X169545000Y-104140000D02*
X172720000Y-104140000D01*
X173990000Y-105410000D02*
X180975000Y-105410000D01*
X106045000Y-71120000D02*
X111760000Y-71120000D01*
X130810000Y-93980000D02*
X132715000Y-93980000D01*
X129540000Y-95250000D02*
X130810000Y-93980000D01*
X121285000Y-95250000D02*
X129540000Y-95250000D01*
X217424000Y-93853000D02*
X213995000Y-93980000D01*
X211455000Y-93980000D02*
X210185000Y-95250000D01*
X180975000Y-109220000D02*
X183515000Y-109220000D01*
X226695000Y-120650000D02*
X226695000Y-93980000D01*
X228600000Y-81140300D02*
X228600000Y-91440000D01*
X108585000Y-96520000D02*
X112395000Y-96520000D01*
X208280000Y-102870000D02*
X208915000Y-102235000D01*
X102870000Y-70485000D02*
X104140000Y-69215000D01*
X101600000Y-71755000D02*
X102870000Y-70485000D01*
X104140000Y-69215000D02*
X161290000Y-69215000D01*
X179705000Y-106680000D02*
X178435000Y-107315000D01*
X183515000Y-106680000D02*
X179705000Y-106680000D01*
X90805000Y-111760000D02*
X83820000Y-111760000D01*
X82550000Y-110490000D02*
X82550000Y-83185000D01*
X171450000Y-99060000D02*
X169545000Y-99060000D01*
X210820000Y-91440000D02*
X213995000Y-91440000D01*
X190500000Y-102870000D02*
X208280000Y-102870000D01*
X208915000Y-93345000D02*
X210820000Y-91440000D01*
X228600000Y-91440000D02*
X228600000Y-121920000D01*
X220980000Y-129540000D02*
X213995000Y-129540000D01*
X178435000Y-100330000D02*
X172720000Y-100330000D01*
X120015000Y-96520000D02*
X112395000Y-96520000D01*
X93980000Y-71755000D02*
X101600000Y-71755000D01*
X102870000Y-86360000D02*
X102870000Y-90805000D01*
X129540000Y-97790000D02*
X121285000Y-97790000D01*
X132715000Y-96520000D02*
X130810000Y-96520000D01*
X217424000Y-91440000D02*
X213995000Y-91440000D01*
X228600000Y-121920000D02*
X220980000Y-129540000D01*
X83820000Y-111760000D02*
X82550000Y-110490000D01*
X217627200Y-69215000D02*
X228600000Y-81140300D01*
X102870000Y-90805000D02*
X108585000Y-96520000D01*
X121285000Y-97790000D02*
X120015000Y-96520000D01*
X172720000Y-100330000D02*
X171450000Y-99060000D01*
X208915000Y-102235000D02*
X208915000Y-93345000D01*
X161290000Y-69215000D02*
X217627200Y-69215000D01*
X183515000Y-106680000D02*
X186690000Y-106680000D01*
X186690000Y-106680000D02*
X190500000Y-102870000D01*
X130810000Y-96520000D02*
X129540000Y-97790000D01*
X82550000Y-83185000D02*
X93980000Y-71755000D01*
X230431340Y-80497680D02*
X230505000Y-88900000D01*
X83820000Y-114300000D02*
X81280000Y-111760000D01*
X108585000Y-99060000D02*
X112395000Y-99060000D01*
X186690000Y-97790000D02*
X191770000Y-97790000D01*
X100965000Y-67310000D02*
X145415000Y-67310000D01*
X179705000Y-97790000D02*
X180975000Y-96520000D01*
X171450000Y-96520000D02*
X172720000Y-97790000D01*
X112395000Y-99060000D02*
X120015000Y-99060000D01*
X209550000Y-90170000D02*
X196850000Y-90170000D01*
X213995000Y-88900000D02*
X210820000Y-88900000D01*
X194945000Y-88265000D02*
X192405000Y-88265000D01*
X186690000Y-97790000D02*
X185420000Y-96520000D01*
X191770000Y-97790000D02*
X192405000Y-98425000D01*
X196850000Y-90170000D02*
X194945000Y-88265000D01*
X129540000Y-100330000D02*
X130810000Y-99060000D01*
X99695000Y-90170000D02*
X108585000Y-99060000D01*
X183515000Y-96520000D02*
X185420000Y-96520000D01*
X100965000Y-67310000D02*
X99695000Y-68580000D01*
X172720000Y-97790000D02*
X179705000Y-97790000D01*
X130810000Y-99060000D02*
X132715000Y-99060000D01*
X230505000Y-123190000D02*
X221615000Y-132080000D01*
X121285000Y-100330000D02*
X129540000Y-100330000D01*
X120015000Y-99060000D02*
X121285000Y-100330000D01*
X213995000Y-88900000D02*
X217424000Y-88900000D01*
X98425000Y-69850000D02*
X99695000Y-68580000D01*
X230505000Y-88900000D02*
X230505000Y-123190000D01*
X99695000Y-88900000D02*
X99695000Y-90170000D01*
X145415000Y-67310000D02*
X218272360Y-67310000D01*
X169545000Y-96520000D02*
X171450000Y-96520000D01*
X81280000Y-111760000D02*
X81280000Y-82550000D01*
X180975000Y-96520000D02*
X183515000Y-96520000D01*
X81280000Y-82550000D02*
X93980000Y-69850000D01*
X93980000Y-69850000D02*
X98425000Y-69850000D01*
X218272360Y-67310000D02*
X230431340Y-80497680D01*
X221615000Y-132080000D02*
X213995000Y-132080000D01*
X90805000Y-114300000D02*
X83820000Y-114300000D01*
X192405000Y-98425000D02*
X192405000Y-98425000D01*
X210820000Y-88900000D02*
X209550000Y-90170000D01*
X165735000Y-65405000D02*
X219075000Y-65532000D01*
X121285000Y-102870000D02*
X129540000Y-102870000D01*
X120015000Y-101600000D02*
X121285000Y-102870000D01*
X80010000Y-113030000D02*
X80010000Y-81915000D01*
X95250000Y-66675000D02*
X80010000Y-81915000D01*
X189865000Y-93980000D02*
X183515000Y-93980000D01*
X178435000Y-95250000D02*
X179705000Y-93980000D01*
X210820000Y-86360000D02*
X209550000Y-85090000D01*
X95250000Y-88265000D02*
X108585000Y-101600000D01*
X130810000Y-101600000D02*
X132715000Y-101600000D01*
X96520000Y-65405000D02*
X95250000Y-66675000D01*
X95250000Y-86360000D02*
X95250000Y-88265000D01*
X209550000Y-85090000D02*
X189865000Y-85090000D01*
X219075000Y-65532000D02*
X232410000Y-79756000D01*
X173355000Y-95250000D02*
X178435000Y-95250000D01*
X213995000Y-86360000D02*
X210820000Y-86360000D01*
X129540000Y-102870000D02*
X130810000Y-101600000D01*
X213995000Y-86360000D02*
X217424000Y-86360000D01*
X96520000Y-65405000D02*
X165735000Y-65405000D01*
X189865000Y-85090000D02*
X189865000Y-86360000D01*
X169545000Y-93980000D02*
X172085000Y-93980000D01*
X83820000Y-116840000D02*
X90805000Y-116840000D01*
X213995000Y-134620000D02*
X222250000Y-134620000D01*
X232410000Y-124460000D02*
X232410000Y-86360000D01*
X83820000Y-116840000D02*
X80010000Y-113030000D01*
X172085000Y-93980000D02*
X173355000Y-95250000D01*
X112395000Y-101600000D02*
X120015000Y-101600000D01*
X179705000Y-93980000D02*
X183515000Y-93980000D01*
X108585000Y-101600000D02*
X112395000Y-101600000D01*
X232410000Y-79756000D02*
X232410000Y-86360000D01*
X222250000Y-134620000D02*
X232410000Y-124460000D01*
X130810000Y-111760000D02*
X132715000Y-111760000D01*
X159385000Y-89535000D02*
X160020000Y-89535000D01*
X179070000Y-91440000D02*
X180340000Y-90170000D01*
X108204000Y-121031000D02*
X109220000Y-121920000D01*
X107569000Y-111760000D02*
X108204000Y-112395000D01*
X191770000Y-90170000D02*
X198120000Y-96520000D01*
X173355000Y-91440000D02*
X175895000Y-91440000D01*
X188785500Y-90170000D02*
X191770000Y-90170000D01*
X206375000Y-111760000D02*
X202565000Y-111760000D01*
X160020000Y-89535000D02*
X161290000Y-89535000D01*
X140970000Y-105410000D02*
X140970000Y-97155000D01*
X161925000Y-90170000D02*
X171450000Y-90170000D01*
X161290000Y-89535000D02*
X161925000Y-90170000D01*
X125730000Y-113030000D02*
X129540000Y-113030000D01*
X121285000Y-115570000D02*
X123190000Y-115570000D01*
X93345000Y-111760000D02*
X107569000Y-111760000D01*
X185801000Y-90170000D02*
X186436000Y-88900000D01*
X171450000Y-90170000D02*
X172720000Y-91440000D01*
X109220000Y-121920000D02*
X112395000Y-121920000D01*
X108204000Y-120396000D02*
X108204000Y-121031000D01*
X158115000Y-89535000D02*
X159385000Y-89535000D01*
X198120000Y-96520000D02*
X198120000Y-96520000D01*
X149225000Y-92710000D02*
X151130000Y-90170000D01*
X188150500Y-88900000D02*
X188785500Y-90170000D01*
X198120000Y-96520000D02*
X206375000Y-96520000D01*
X114935000Y-121920000D02*
X121285000Y-115570000D01*
X186436000Y-88900000D02*
X188150500Y-88900000D01*
X140970000Y-97155000D02*
X145415000Y-92710000D01*
X198120000Y-111125000D02*
X201930000Y-111125000D01*
X123190000Y-115570000D02*
X125730000Y-113030000D01*
X155575000Y-90170000D02*
X156845000Y-90170000D01*
X175895000Y-91440000D02*
X179070000Y-91440000D01*
X172720000Y-91440000D02*
X173355000Y-91440000D01*
X154305000Y-83820000D02*
X158115000Y-83185000D01*
X158115000Y-89535000D02*
X158115000Y-89535000D01*
X180340000Y-90170000D02*
X185801000Y-90170000D01*
X156845000Y-90170000D02*
X158115000Y-89535000D01*
X132715000Y-111760000D02*
X134620000Y-111760000D01*
X145415000Y-92710000D02*
X149225000Y-92710000D01*
X112395000Y-121920000D02*
X114935000Y-121920000D01*
X129540000Y-113030000D02*
X130810000Y-111760000D01*
X134620000Y-111760000D02*
X140970000Y-105410000D01*
X201930000Y-111125000D02*
X202565000Y-111760000D01*
X151130000Y-90170000D02*
X155575000Y-90170000D01*
X167640000Y-118110000D02*
X171450000Y-118110000D01*
X154305000Y-119380000D02*
X151765000Y-119380000D01*
X171450000Y-118110000D02*
X173990000Y-114300000D01*
X175895000Y-114300000D02*
X179705000Y-114300000D01*
X122555000Y-125730000D02*
X130810000Y-125730000D01*
X202692000Y-129540000D02*
X206375000Y-129540000D01*
X202565000Y-129540000D02*
X200025000Y-127000000D01*
X200025000Y-127000000D02*
X194945000Y-127000000D01*
X125095000Y-134620000D02*
X127635000Y-132080000D01*
X202692000Y-129540000D02*
X202565000Y-129540000D01*
X179705000Y-114300000D02*
X180975000Y-113030000D01*
X192405000Y-113030000D02*
X194310000Y-113030000D01*
X180975000Y-113030000D02*
X192405000Y-113030000D01*
X175895000Y-114300000D02*
X173990000Y-114300000D01*
X157480000Y-119380000D02*
X160655000Y-119380000D01*
X132080000Y-124460000D02*
X132715000Y-124460000D01*
X116205000Y-132080000D02*
X122555000Y-125730000D01*
X99441000Y-99060000D02*
X93345000Y-99060000D01*
X140335000Y-118110000D02*
X150495000Y-118110000D01*
X116205000Y-134620000D02*
X116205000Y-132080000D01*
X116205000Y-134620000D02*
X125095000Y-134620000D01*
X130810000Y-125730000D02*
X132080000Y-124460000D01*
X133985000Y-124460000D02*
X132715000Y-124460000D01*
X166370000Y-119380000D02*
X167640000Y-118110000D01*
X99441000Y-121920000D02*
X99441000Y-126746000D01*
X150495000Y-118110000D02*
X151765000Y-119380000D01*
X116205000Y-134620000D02*
X107950000Y-134620000D01*
X99441000Y-126746000D02*
X107950000Y-134620000D01*
X133985000Y-124460000D02*
X140335000Y-118110000D01*
X160655000Y-119380000D02*
X166370000Y-119380000D01*
X157480000Y-119380000D02*
X154305000Y-119380000D01*
X132715000Y-109220000D02*
X134620000Y-109220000D01*
X170815000Y-83820000D02*
X171450000Y-84455000D01*
X169545000Y-83820000D02*
X170815000Y-83820000D01*
X122555000Y-113665000D02*
X124460000Y-111760000D01*
X109855000Y-113030000D02*
X109855000Y-110490000D01*
X125730000Y-110490000D02*
X129540000Y-110490000D01*
X139065000Y-104775000D02*
X139065000Y-96520000D01*
X178435000Y-88900000D02*
X179705000Y-87630000D01*
X151765000Y-87630000D02*
X155575000Y-87630000D01*
X120015000Y-113665000D02*
X122555000Y-113665000D01*
X173990000Y-85725000D02*
X173990000Y-88900000D01*
X172720000Y-84455000D02*
X173990000Y-85725000D01*
X155575000Y-87630000D02*
X166370000Y-87630000D01*
X179705000Y-87630000D02*
X188595000Y-87630000D01*
X188595000Y-87630000D02*
X189230000Y-88265000D01*
X129540000Y-110490000D02*
X130810000Y-109220000D01*
X196215000Y-86360000D02*
X198755000Y-88900000D01*
X190500000Y-88265000D02*
X191770000Y-86360000D01*
X149860000Y-90170000D02*
X151765000Y-87630000D01*
X124460000Y-111760000D02*
X125730000Y-110490000D01*
X167640000Y-83820000D02*
X169545000Y-83820000D01*
X145415000Y-90170000D02*
X149860000Y-90170000D01*
X134620000Y-109220000D02*
X139065000Y-104775000D01*
X130810000Y-109220000D02*
X132715000Y-109220000D01*
X171450000Y-84455000D02*
X172720000Y-84455000D01*
X114300000Y-119380000D02*
X120015000Y-113665000D01*
X112395000Y-119380000D02*
X111125000Y-119380000D01*
X191770000Y-86360000D02*
X196215000Y-86360000D01*
X189230000Y-88265000D02*
X190500000Y-88265000D01*
X111125000Y-119380000D02*
X109855000Y-118110000D01*
X112395000Y-119380000D02*
X114300000Y-119380000D01*
X108585000Y-114300000D02*
X93345000Y-114300000D01*
X175895000Y-88900000D02*
X178435000Y-88900000D01*
X108585000Y-114300000D02*
X109855000Y-113030000D01*
X166370000Y-87630000D02*
X167640000Y-83820000D01*
X139065000Y-96520000D02*
X145415000Y-90170000D01*
X198755000Y-88900000D02*
X206375000Y-88900000D01*
X173990000Y-88900000D02*
X175895000Y-88900000D01*
X186055000Y-133985000D02*
X186055000Y-132080000D01*
X186055000Y-85090000D02*
X187325000Y-83820000D01*
X95885000Y-92075000D02*
X107950000Y-104140000D01*
X137160000Y-95885000D02*
X145415000Y-87630000D01*
X112395000Y-104140000D02*
X120015000Y-104140000D01*
X150495000Y-120650000D02*
X151130000Y-121285000D01*
X172085000Y-82550000D02*
X173990000Y-82550000D01*
X83820000Y-119380000D02*
X90805000Y-119380000D01*
X137160000Y-95885000D02*
X137160000Y-104140000D01*
X78740000Y-114300000D02*
X78740000Y-80645000D01*
X187325000Y-83820000D02*
X206375000Y-83820000D01*
X130810000Y-104140000D02*
X132715000Y-104140000D01*
X83820000Y-119380000D02*
X78740000Y-114300000D01*
X151130000Y-125095000D02*
X153035000Y-127000000D01*
X78740000Y-80645000D02*
X92710000Y-66675000D01*
X180340000Y-83820000D02*
X181610000Y-85090000D01*
X92710000Y-88900000D02*
X95885000Y-92075000D01*
X155575000Y-127000000D02*
X160020000Y-127000000D01*
X161290000Y-85090000D02*
X163830000Y-82550000D01*
X186055000Y-132080000D02*
X189865000Y-128270000D01*
X175895000Y-83820000D02*
X180340000Y-83820000D01*
X142240000Y-120650000D02*
X150495000Y-120650000D01*
X186690000Y-134620000D02*
X206375000Y-134620000D01*
X151130000Y-121285000D02*
X151130000Y-125095000D01*
X177800000Y-122555000D02*
X175895000Y-124460000D01*
X189865000Y-128270000D02*
X191135000Y-128270000D01*
X153035000Y-127000000D02*
X155575000Y-127000000D01*
X145415000Y-87630000D02*
X149860000Y-87630000D01*
X149860000Y-87630000D02*
X152400000Y-85090000D01*
X181610000Y-85090000D02*
X186055000Y-85090000D01*
X112395000Y-104140000D02*
X107950000Y-104140000D01*
X169545000Y-86360000D02*
X172085000Y-86360000D01*
X120015000Y-104140000D02*
X121285000Y-105410000D01*
X174625000Y-82550000D02*
X175895000Y-83820000D01*
X173990000Y-82550000D02*
X174625000Y-82550000D01*
X152400000Y-85090000D02*
X161290000Y-85090000D01*
X137160000Y-125730000D02*
X142240000Y-120650000D01*
X155575000Y-127000000D02*
X154305000Y-127000000D01*
X186055000Y-122555000D02*
X177800000Y-122555000D01*
X167005000Y-124460000D02*
X175895000Y-124460000D01*
X166370000Y-123825000D02*
X167005000Y-124460000D01*
X121285000Y-105410000D02*
X129540000Y-105410000D01*
X163195000Y-123825000D02*
X166370000Y-123825000D01*
X186055000Y-133985000D02*
X186690000Y-134620000D01*
X132715000Y-104140000D02*
X137160000Y-104140000D01*
X129540000Y-105410000D02*
X130810000Y-104140000D01*
X160020000Y-127000000D02*
X163195000Y-123825000D01*
X172085000Y-82550000D02*
X163830000Y-82550000D01*
X122555000Y-109220000D02*
X127635000Y-109220000D01*
X160655000Y-139700000D02*
X167640000Y-139700000D01*
X204724000Y-140081000D02*
X205105000Y-139700000D01*
X167640000Y-139700000D02*
X180975000Y-139700000D01*
X211455000Y-83820000D02*
X213995000Y-83820000D01*
X206375000Y-121920000D02*
X210185000Y-121920000D01*
X216535000Y-139700000D02*
X217805000Y-139700000D01*
X193675000Y-118745000D02*
X199390000Y-118745000D01*
X191135000Y-120650000D02*
X191770000Y-120650000D01*
X191770000Y-120650000D02*
X193675000Y-118745000D01*
X152400000Y-139700000D02*
X153035000Y-139700000D01*
X180340000Y-99060000D02*
X181610000Y-97790000D01*
X114300000Y-139700000D02*
X122555000Y-139700000D01*
X183515000Y-124460000D02*
X185420000Y-124460000D01*
X113030000Y-139700000D02*
X111760000Y-139700000D01*
X181610000Y-97790000D02*
X184785000Y-97790000D01*
X118745000Y-106680000D02*
X112395000Y-106680000D01*
X183515000Y-124460000D02*
X180975000Y-124460000D01*
X203835000Y-139700000D02*
X205105000Y-139700000D01*
X185420000Y-124460000D02*
X187325000Y-124460000D01*
X151130000Y-92710000D02*
X152400000Y-91440000D01*
X210185000Y-121920000D02*
X211455000Y-120650000D01*
X165735000Y-127000000D02*
X167640000Y-127000000D01*
X90805000Y-124460000D02*
X105410000Y-139700000D01*
X211455000Y-120650000D02*
X211455000Y-120650000D01*
X187325000Y-124460000D02*
X191135000Y-120650000D01*
X90805000Y-124460000D02*
X90805000Y-121920000D01*
X211455000Y-120650000D02*
X218440000Y-120650000D01*
X153035000Y-139700000D02*
X154305000Y-139700000D01*
X184785000Y-97790000D02*
X186690000Y-99695000D01*
X183515000Y-104140000D02*
X182880000Y-104140000D01*
X199390000Y-118745000D02*
X202565000Y-121920000D01*
X203835000Y-140081000D02*
X204724000Y-140081000D01*
X182880000Y-104140000D02*
X183515000Y-104140000D01*
X122555000Y-139700000D02*
X152400000Y-139700000D01*
X211455000Y-105410000D02*
X211455000Y-97790000D01*
X218440000Y-124460000D02*
X213995000Y-124460000D01*
X180975000Y-139700000D02*
X203835000Y-139700000D01*
X150495000Y-140081000D02*
X152019000Y-140081000D01*
X152019000Y-140081000D02*
X152400000Y-139700000D01*
X169545000Y-116840000D02*
X166370000Y-116840000D01*
X122555000Y-111125000D02*
X122555000Y-109220000D01*
X165735000Y-125730000D02*
X165735000Y-127000000D01*
X166370000Y-116840000D02*
X166370000Y-115570000D01*
X152400000Y-91440000D02*
X154305000Y-91440000D01*
X166370000Y-97790000D02*
X171450000Y-97790000D01*
X172720000Y-99060000D02*
X175895000Y-99060000D01*
X165481000Y-117221000D02*
X165735000Y-117475000D01*
X171450000Y-97790000D02*
X172720000Y-99060000D01*
X160655000Y-91440000D02*
X154305000Y-91440000D01*
X147955000Y-83820000D02*
X151130000Y-83820000D01*
X205105000Y-139700000D02*
X216535000Y-139700000D01*
X202565000Y-121920000D02*
X206375000Y-121920000D01*
X160655000Y-97790000D02*
X166370000Y-97790000D01*
X122555000Y-130175000D02*
X122555000Y-128270000D01*
X217805000Y-140081000D02*
X216916000Y-140081000D01*
X163195000Y-117221000D02*
X165481000Y-117221000D01*
X154305000Y-139700000D02*
X160655000Y-139700000D01*
X175895000Y-99060000D02*
X180340000Y-99060000D01*
X111760000Y-139700000D02*
X105410000Y-139700000D01*
X113030000Y-139700000D02*
X114300000Y-139700000D01*
X216916000Y-140081000D02*
X216535000Y-139700000D01*
X166370000Y-116840000D02*
X165735000Y-117475000D01*
X110490000Y-140081000D02*
X111379000Y-140081000D01*
X163195000Y-127000000D02*
X165735000Y-127000000D01*
X186690000Y-104140000D02*
X183515000Y-104140000D01*
X218440000Y-120650000D02*
X218440000Y-124460000D01*
X111379000Y-140081000D02*
X111760000Y-139700000D01*
X153035000Y-92687140D02*
X155575000Y-92710000D01*
X165100000Y-92710000D02*
X172085000Y-92710000D01*
X188595000Y-92710000D02*
X189230000Y-92075000D01*
X190500000Y-92075000D02*
X197485000Y-99060000D01*
X161290000Y-93345000D02*
X161925000Y-92710000D01*
X164465000Y-86360000D02*
X165100000Y-85725000D01*
X159385000Y-92710000D02*
X160020000Y-93345000D01*
X155575000Y-92710000D02*
X156845000Y-92710000D01*
X200025000Y-99060000D02*
X206375000Y-99060000D01*
X151130000Y-95250000D02*
X153035000Y-92687140D01*
X145415000Y-95250000D02*
X151130000Y-95250000D01*
X114935000Y-124460000D02*
X122555000Y-116840000D01*
X154305000Y-86360000D02*
X164465000Y-86360000D01*
X156845000Y-92710000D02*
X159385000Y-92710000D01*
X132715000Y-114300000D02*
X134620000Y-114300000D01*
X134620000Y-114300000D02*
X142875000Y-106045000D01*
X106680000Y-122555000D02*
X109220000Y-124460000D01*
X160020000Y-93345000D02*
X161290000Y-93345000D01*
X161925000Y-92710000D02*
X165100000Y-92710000D01*
X179070000Y-92710000D02*
X188595000Y-92710000D01*
X172085000Y-92710000D02*
X173355000Y-93980000D01*
X189230000Y-92075000D02*
X190500000Y-92075000D01*
X197485000Y-99060000D02*
X200025000Y-99060000D01*
X177800000Y-93980000D02*
X179070000Y-92710000D01*
X142875000Y-106045000D02*
X142875000Y-97790000D01*
X122555000Y-116840000D02*
X124460000Y-116840000D01*
X175895000Y-93980000D02*
X177800000Y-93980000D01*
X142875000Y-97790000D02*
X145415000Y-95250000D01*
X173355000Y-93980000D02*
X175895000Y-93980000D01*
X109220000Y-124460000D02*
X112395000Y-124460000D01*
X130175000Y-115570000D02*
X131445000Y-114300000D01*
X206375000Y-114300000D02*
X200025000Y-114300000D01*
X175895000Y-93980000D02*
X175895000Y-93980000D01*
X112395000Y-124460000D02*
X114935000Y-124460000D01*
X125730000Y-115570000D02*
X130175000Y-115570000D01*
X124460000Y-116840000D02*
X125730000Y-115570000D01*
X131445000Y-114300000D02*
X132715000Y-114300000D01*
X93345000Y-109220000D02*
X106680000Y-109220000D01*
X114300000Y-129540000D02*
X123190000Y-120650000D01*
X187325000Y-107950000D02*
X191135000Y-104140000D01*
X178435000Y-109220000D02*
X179705000Y-107950000D01*
X154305000Y-114300000D02*
X155575000Y-114300000D01*
X107950000Y-129540000D02*
X112395000Y-129540000D01*
X173355000Y-109220000D02*
X175895000Y-109220000D01*
X191135000Y-104140000D02*
X203835000Y-104140000D01*
X167005000Y-107950000D02*
X171450000Y-107950000D01*
X203835000Y-104140000D02*
X206375000Y-104140000D01*
X164465000Y-110490000D02*
X167005000Y-107950000D01*
X112395000Y-129540000D02*
X114300000Y-129540000D01*
X172720000Y-109220000D02*
X173355000Y-109220000D01*
X171450000Y-107950000D02*
X172720000Y-109220000D01*
X123190000Y-120650000D02*
X130175000Y-120650000D01*
X203835000Y-128270000D02*
X202565000Y-128270000D01*
X130175000Y-120650000D02*
X131445000Y-119380000D01*
X133985000Y-119380000D02*
X140335000Y-113030000D01*
X206375000Y-119380000D02*
X204470000Y-119380000D01*
X133985000Y-119380000D02*
X132715000Y-119380000D01*
X151765000Y-114300000D02*
X154305000Y-114300000D01*
X103251000Y-121920000D02*
X103251000Y-125476000D01*
X150495000Y-113030000D02*
X151765000Y-114300000D01*
X93345000Y-104140000D02*
X103251000Y-104140000D01*
X179705000Y-107950000D02*
X187325000Y-107950000D01*
X155575000Y-114300000D02*
X159385000Y-110490000D01*
X159385000Y-110490000D02*
X164465000Y-110490000D01*
X175895000Y-109220000D02*
X178435000Y-109220000D01*
X131445000Y-119380000D02*
X132715000Y-119380000D01*
X103251000Y-125476000D02*
X107950000Y-129540000D01*
X202565000Y-128270000D02*
X200025000Y-125730000D01*
X140335000Y-113030000D02*
X150495000Y-113030000D01*
X198755000Y-125730000D02*
X200025000Y-125730000D01*
X203835000Y-120015000D02*
X204470000Y-119380000D01*
X194945000Y-132080000D02*
X206375000Y-132080000D01*
X160655000Y-111760000D02*
X165735000Y-111760000D01*
X151765000Y-116840000D02*
X154305000Y-116840000D01*
X188595000Y-110490000D02*
X188976000Y-110236000D01*
X114300000Y-132080000D02*
X123190000Y-123190000D01*
X165735000Y-111760000D02*
X167005000Y-110490000D01*
X123190000Y-123190000D02*
X130175000Y-123190000D01*
X173990000Y-111760000D02*
X175895000Y-111760000D01*
X131445000Y-121920000D02*
X132715000Y-121920000D01*
X93345000Y-101600000D02*
X101346000Y-101600000D01*
X180340000Y-110490000D02*
X188595000Y-110490000D01*
X191770000Y-107315000D02*
X188976000Y-110236000D01*
X175895000Y-111760000D02*
X179070000Y-111760000D01*
X204470000Y-108585000D02*
X213360000Y-108585000D01*
X203200000Y-107315000D02*
X204470000Y-108585000D01*
X101346000Y-126111000D02*
X107950000Y-132080000D01*
X196850000Y-128270000D02*
X194945000Y-130175000D01*
X140335000Y-115570000D02*
X150495000Y-115570000D01*
X194945000Y-130175000D02*
X194945000Y-132080000D01*
X167005000Y-110490000D02*
X172720000Y-110490000D01*
X172720000Y-110490000D02*
X173990000Y-111760000D01*
X198755000Y-128270000D02*
X196850000Y-128270000D01*
X107950000Y-132080000D02*
X112395000Y-132080000D01*
X150495000Y-115570000D02*
X151765000Y-116840000D01*
X155575000Y-116840000D02*
X160655000Y-111760000D01*
X179070000Y-111760000D02*
X180340000Y-110490000D01*
X154305000Y-116840000D02*
X155575000Y-116840000D01*
X192405000Y-132080000D02*
X193040000Y-132080000D01*
X194056000Y-132080000D02*
X194945000Y-132080000D01*
X191770000Y-107315000D02*
X203200000Y-107315000D01*
X112395000Y-132080000D02*
X114300000Y-132080000D01*
X190500000Y-132080000D02*
X192405000Y-132080000D01*
X133985000Y-121920000D02*
X140335000Y-115570000D01*
X193040000Y-132080000D02*
X194056000Y-132080000D01*
X130175000Y-123190000D02*
X131445000Y-121920000D01*
X213995000Y-106680000D02*
X213995000Y-107950000D01*
X213360000Y-108585000D02*
X213995000Y-107950000D01*
X101346000Y-119380000D02*
X101346000Y-126111000D01*
X132715000Y-121920000D02*
X133985000Y-121920000D01*
X188976000Y-132080000D02*
X190500000Y-132080000D01*
X216916000Y-136779000D02*
X216535000Y-137160000D01*
X154305000Y-137160000D02*
X155575000Y-137160000D01*
X158115000Y-93980000D02*
X154305000Y-93980000D01*
X132715000Y-137160000D02*
X152400000Y-137160000D01*
X152400000Y-137160000D02*
X153035000Y-137160000D01*
X210820000Y-124460000D02*
X213360000Y-121920000D01*
X208915000Y-137160000D02*
X208915000Y-136525000D01*
X180975000Y-101600000D02*
X182880000Y-99060000D01*
X208915000Y-136525000D02*
X208915000Y-124460000D01*
X217805000Y-136779000D02*
X216916000Y-136779000D01*
X175895000Y-137160000D02*
X187960000Y-137160000D01*
X182880000Y-99060000D02*
X183515000Y-99060000D01*
X187960000Y-137160000D02*
X188595000Y-137795000D01*
X202946000Y-136779000D02*
X203835000Y-136779000D01*
X188595000Y-137795000D02*
X201930000Y-137795000D01*
X155575000Y-134620000D02*
X158115000Y-134620000D01*
X201930000Y-137795000D02*
X202946000Y-136779000D01*
X163195000Y-113919000D02*
X164846000Y-113919000D01*
X116840000Y-109220000D02*
X119380000Y-109220000D01*
X168275000Y-114300000D02*
X167640000Y-113665000D01*
X164846000Y-113919000D02*
X165100000Y-113665000D01*
X158115000Y-99060000D02*
X158115000Y-97155000D01*
X169545000Y-114300000D02*
X168275000Y-114300000D01*
X93345000Y-124460000D02*
X106045000Y-137160000D01*
X171450000Y-100330000D02*
X165100000Y-100330000D01*
X175895000Y-101600000D02*
X172720000Y-101600000D01*
X159385000Y-99695000D02*
X163830000Y-99695000D01*
X155575000Y-137160000D02*
X175895000Y-137160000D01*
X217805000Y-137160000D02*
X216535000Y-137160000D01*
X112395000Y-109220000D02*
X116840000Y-109220000D01*
X116840000Y-137160000D02*
X132715000Y-137160000D01*
X93345000Y-124460000D02*
X93345000Y-121920000D01*
X121920000Y-106680000D02*
X123190000Y-106680000D01*
X202565000Y-124460000D02*
X206375000Y-124460000D01*
X111760000Y-137160000D02*
X106045000Y-137160000D01*
X175895000Y-132080000D02*
X175895000Y-137160000D01*
X163830000Y-99695000D02*
X165100000Y-100330000D01*
X158750000Y-99060000D02*
X159385000Y-99695000D01*
X110490000Y-136779000D02*
X111379000Y-136779000D01*
X205105000Y-137160000D02*
X203835000Y-137160000D01*
X213360000Y-121920000D02*
X213995000Y-121920000D01*
X158115000Y-99060000D02*
X158750000Y-99060000D01*
X208915000Y-137160000D02*
X205105000Y-137160000D01*
X132715000Y-132080000D02*
X132715000Y-137160000D01*
X150495000Y-136779000D02*
X152019000Y-136779000D01*
X198755000Y-120650000D02*
X202565000Y-124460000D01*
X167640000Y-113665000D02*
X165100000Y-113665000D01*
X206375000Y-106680000D02*
X208915000Y-106680000D01*
X123190000Y-106680000D02*
X127635000Y-106680000D01*
X114300000Y-137160000D02*
X116840000Y-137160000D01*
X216535000Y-137160000D02*
X208915000Y-137160000D01*
X208915000Y-124460000D02*
X206375000Y-124460000D01*
X113030000Y-137160000D02*
X111760000Y-137160000D01*
X155575000Y-137160000D02*
X155575000Y-134620000D01*
X153035000Y-137160000D02*
X154305000Y-137160000D01*
X111379000Y-136779000D02*
X111760000Y-137160000D01*
X171450000Y-100330000D02*
X172720000Y-101600000D01*
X208915000Y-124460000D02*
X210820000Y-124460000D01*
X203835000Y-136779000D02*
X204724000Y-136779000D01*
X175895000Y-101600000D02*
X180975000Y-101600000D01*
X204724000Y-136779000D02*
X205105000Y-137160000D01*
X152019000Y-136779000D02*
X152400000Y-137160000D01*
X113030000Y-137160000D02*
X114300000Y-137160000D01*
X119380000Y-109220000D02*
X121920000Y-106680000D01*
D20*
G36*
X234566460Y-141221460D02*
X219564586Y-141221460D01*
X219598746Y-141171465D01*
X219665262Y-140843000D01*
X219665262Y-139319000D01*
X219607524Y-139012147D01*
X219426174Y-138730321D01*
X219149465Y-138541254D01*
X218821000Y-138474738D01*
X216789000Y-138474738D01*
X216482147Y-138532476D01*
X216420352Y-138572240D01*
X205224815Y-138572240D01*
X205179465Y-138541254D01*
X204851000Y-138474738D01*
X202819000Y-138474738D01*
X202512147Y-138532476D01*
X202450352Y-138572240D01*
X182219722Y-138572240D01*
X181926564Y-138278570D01*
X181310173Y-138022622D01*
X180642755Y-138022040D01*
X180025918Y-138276912D01*
X179730074Y-138572240D01*
X168884722Y-138572240D01*
X168591564Y-138278570D01*
X167975173Y-138022622D01*
X167307755Y-138022040D01*
X166690918Y-138276912D01*
X166395074Y-138572240D01*
X151884815Y-138572240D01*
X151839465Y-138541254D01*
X151511000Y-138474738D01*
X149479000Y-138474738D01*
X149172147Y-138532476D01*
X149110352Y-138572240D01*
X123799722Y-138572240D01*
X123506564Y-138278570D01*
X122890173Y-138022622D01*
X122222755Y-138022040D01*
X121605918Y-138276912D01*
X121310074Y-138572240D01*
X111879815Y-138572240D01*
X111834465Y-138541254D01*
X111506000Y-138474738D01*
X109474000Y-138474738D01*
X109167147Y-138532476D01*
X109105352Y-138572240D01*
X105891249Y-138572240D01*
X104446572Y-137064750D01*
X108839000Y-137064750D01*
X108839000Y-137667309D01*
X108935673Y-137900698D01*
X109114301Y-138079327D01*
X109347690Y-138176000D01*
X110204250Y-138176000D01*
X110363000Y-138017250D01*
X110363000Y-136906000D01*
X110617000Y-136906000D01*
X110617000Y-138017250D01*
X110775750Y-138176000D01*
X111632310Y-138176000D01*
X111865699Y-138079327D01*
X112044327Y-137900698D01*
X112141000Y-137667309D01*
X112141000Y-137064750D01*
X148844000Y-137064750D01*
X148844000Y-137667309D01*
X148940673Y-137900698D01*
X149119301Y-138079327D01*
X149352690Y-138176000D01*
X150209250Y-138176000D01*
X150368000Y-138017250D01*
X150368000Y-136906000D01*
X150622000Y-136906000D01*
X150622000Y-138017250D01*
X150780750Y-138176000D01*
X151637310Y-138176000D01*
X151870699Y-138079327D01*
X152049327Y-137900698D01*
X152146000Y-137667309D01*
X152146000Y-137064750D01*
X151987250Y-136906000D01*
X150622000Y-136906000D01*
X150368000Y-136906000D01*
X149002750Y-136906000D01*
X148844000Y-137064750D01*
X112141000Y-137064750D01*
X111982250Y-136906000D01*
X110617000Y-136906000D01*
X110363000Y-136906000D01*
X108997750Y-136906000D01*
X108839000Y-137064750D01*
X104446572Y-137064750D01*
X91932760Y-124006860D01*
X91932760Y-123150545D01*
X92051405Y-123071269D01*
X92198519Y-122851096D01*
X92628948Y-123197259D01*
X93168470Y-123355100D01*
X93868240Y-123355100D01*
X93868240Y-122047000D01*
X94122240Y-122047000D01*
X94122240Y-123355100D01*
X94822010Y-123355100D01*
X95361532Y-123197259D01*
X95799582Y-122844967D01*
X96069471Y-122351857D01*
X96087013Y-122269055D01*
X95965026Y-122047000D01*
X94122240Y-122047000D01*
X93868240Y-122047000D01*
X93848240Y-122047000D01*
X93848240Y-121793000D01*
X93868240Y-121793000D01*
X93868240Y-121773000D01*
X94122240Y-121773000D01*
X94122240Y-121793000D01*
X95965026Y-121793000D01*
X96087013Y-121570945D01*
X96069471Y-121488143D01*
X95799582Y-120995033D01*
X95526499Y-120775412D01*
X95891885Y-120531269D01*
X95907593Y-120507760D01*
X97790000Y-120507760D01*
X98221575Y-120421914D01*
X98587447Y-120177447D01*
X99668577Y-119096317D01*
X99668040Y-119712245D01*
X99910179Y-120298266D01*
X99776173Y-120242622D01*
X99108755Y-120242040D01*
X98491918Y-120496912D01*
X98019570Y-120968436D01*
X97763622Y-121584827D01*
X97763040Y-122252245D01*
X98017912Y-122869082D01*
X98313240Y-123164926D01*
X98313240Y-126746000D01*
X98317569Y-126767763D01*
X98314086Y-126789679D01*
X98360344Y-126982806D01*
X98399086Y-127177575D01*
X98411414Y-127196026D01*
X98416583Y-127217605D01*
X98533221Y-127378322D01*
X98643553Y-127543447D01*
X98662004Y-127555775D01*
X98675037Y-127573734D01*
X107184037Y-135447734D01*
X107353308Y-135551587D01*
X107518425Y-135661914D01*
X107540188Y-135666243D01*
X107559103Y-135677848D01*
X107755237Y-135709019D01*
X107950000Y-135747760D01*
X108898204Y-135747760D01*
X108839000Y-135890691D01*
X108839000Y-136493250D01*
X108997750Y-136652000D01*
X110363000Y-136652000D01*
X110363000Y-136632000D01*
X110617000Y-136632000D01*
X110617000Y-136652000D01*
X111982250Y-136652000D01*
X112141000Y-136493250D01*
X112141000Y-135890691D01*
X148844000Y-135890691D01*
X148844000Y-136493250D01*
X149002750Y-136652000D01*
X150368000Y-136652000D01*
X150368000Y-135540750D01*
X150622000Y-135540750D01*
X150622000Y-136652000D01*
X151987250Y-136652000D01*
X152146000Y-136493250D01*
X152146000Y-135890691D01*
X152049327Y-135657302D01*
X151870699Y-135478673D01*
X151637310Y-135382000D01*
X150780750Y-135382000D01*
X150622000Y-135540750D01*
X150368000Y-135540750D01*
X150209250Y-135382000D01*
X149352690Y-135382000D01*
X149119301Y-135478673D01*
X148940673Y-135657302D01*
X148844000Y-135890691D01*
X112141000Y-135890691D01*
X112081796Y-135747760D01*
X125095000Y-135747760D01*
X125526575Y-135661914D01*
X125892447Y-135417447D01*
X126340838Y-134969055D01*
X153483227Y-134969055D01*
X153500769Y-135051857D01*
X153770658Y-135544967D01*
X154208708Y-135897259D01*
X154748230Y-136055100D01*
X155448000Y-136055100D01*
X155448000Y-134747000D01*
X155702000Y-134747000D01*
X155702000Y-136055100D01*
X156401770Y-136055100D01*
X156941292Y-135897259D01*
X157379342Y-135544967D01*
X157649231Y-135051857D01*
X157666773Y-134969055D01*
X157544786Y-134747000D01*
X155702000Y-134747000D01*
X155448000Y-134747000D01*
X153605214Y-134747000D01*
X153483227Y-134969055D01*
X126340838Y-134969055D01*
X127601753Y-133708140D01*
X128380376Y-133708140D01*
X129003438Y-133584205D01*
X129531645Y-133231269D01*
X129884581Y-132703062D01*
X129939084Y-132429055D01*
X130623227Y-132429055D01*
X130640769Y-132511857D01*
X130910658Y-133004967D01*
X131348708Y-133357259D01*
X131888230Y-133515100D01*
X132588000Y-133515100D01*
X132588000Y-132207000D01*
X132842000Y-132207000D01*
X132842000Y-133515100D01*
X133541770Y-133515100D01*
X134081292Y-133357259D01*
X134519342Y-133004967D01*
X134789231Y-132511857D01*
X134806773Y-132429055D01*
X134684786Y-132207000D01*
X132842000Y-132207000D01*
X132588000Y-132207000D01*
X130745214Y-132207000D01*
X130623227Y-132429055D01*
X129939084Y-132429055D01*
X130008516Y-132080000D01*
X129980223Y-131937760D01*
X130175000Y-131937760D01*
X130606575Y-131851914D01*
X130667367Y-131811294D01*
X130745214Y-131953000D01*
X132588000Y-131953000D01*
X132588000Y-131933000D01*
X132842000Y-131933000D01*
X132842000Y-131953000D01*
X134684786Y-131953000D01*
X134806773Y-131730945D01*
X134789231Y-131648143D01*
X134519342Y-131155033D01*
X134246259Y-130935412D01*
X134611645Y-130691269D01*
X134627353Y-130667760D01*
X137160000Y-130667760D01*
X137591575Y-130581914D01*
X137957447Y-130337447D01*
X138897134Y-129397760D01*
X145609777Y-129397760D01*
X145581484Y-129540000D01*
X145705419Y-130163062D01*
X146058355Y-130691269D01*
X146236049Y-130810000D01*
X146058355Y-130928731D01*
X145705419Y-131456938D01*
X145581484Y-132080000D01*
X145705419Y-132703062D01*
X146058355Y-133231269D01*
X146586562Y-133584205D01*
X147209624Y-133708140D01*
X148700376Y-133708140D01*
X149323438Y-133584205D01*
X149851645Y-133231269D01*
X150204581Y-132703062D01*
X150328516Y-132080000D01*
X150204581Y-131456938D01*
X149851645Y-130928731D01*
X149673951Y-130810000D01*
X149851645Y-130691269D01*
X150204581Y-130163062D01*
X150328516Y-129540000D01*
X150300223Y-129397760D01*
X151297866Y-129397760D01*
X152237553Y-130337447D01*
X152603425Y-130581914D01*
X153035000Y-130667760D01*
X153662647Y-130667760D01*
X153678355Y-130691269D01*
X153856049Y-130810000D01*
X153678355Y-130928731D01*
X153325419Y-131456938D01*
X153201484Y-132080000D01*
X153325419Y-132703062D01*
X153678355Y-133231269D01*
X154043741Y-133475412D01*
X153770658Y-133695033D01*
X153500769Y-134188143D01*
X153483227Y-134270945D01*
X153605214Y-134493000D01*
X155448000Y-134493000D01*
X155448000Y-134473000D01*
X155702000Y-134473000D01*
X155702000Y-134493000D01*
X157544786Y-134493000D01*
X157666773Y-134270945D01*
X157649231Y-134188143D01*
X157379342Y-133695033D01*
X157106259Y-133475412D01*
X157471645Y-133231269D01*
X157824581Y-132703062D01*
X157948516Y-132080000D01*
X157824581Y-131456938D01*
X157471645Y-130928731D01*
X157293951Y-130810000D01*
X157471645Y-130691269D01*
X157487353Y-130667760D01*
X157586786Y-130667760D01*
X160423631Y-134071975D01*
X160463835Y-134104467D01*
X160492553Y-134147447D01*
X160633769Y-134241804D01*
X160765867Y-134348563D01*
X160815447Y-134363197D01*
X160858425Y-134391914D01*
X160866532Y-134393527D01*
X160821484Y-134620000D01*
X160945419Y-135243062D01*
X161298355Y-135771269D01*
X161826562Y-136124205D01*
X162449624Y-136248140D01*
X163940376Y-136248140D01*
X164563438Y-136124205D01*
X165091645Y-135771269D01*
X165107353Y-135747760D01*
X170180000Y-135747760D01*
X170611575Y-135661914D01*
X170977447Y-135417447D01*
X173842795Y-132552099D01*
X174090658Y-133004967D01*
X174528708Y-133357259D01*
X175068230Y-133515100D01*
X175768000Y-133515100D01*
X175768000Y-132207000D01*
X175748000Y-132207000D01*
X175748000Y-131953000D01*
X175768000Y-131953000D01*
X175768000Y-131937760D01*
X176022000Y-131937760D01*
X176022000Y-131953000D01*
X176042000Y-131953000D01*
X176042000Y-132207000D01*
X176022000Y-132207000D01*
X176022000Y-133515100D01*
X176721770Y-133515100D01*
X177261292Y-133357259D01*
X177307240Y-133320306D01*
X177307240Y-133375278D01*
X177013570Y-133668436D01*
X176757622Y-134284827D01*
X176757040Y-134952245D01*
X177011912Y-135569082D01*
X177483436Y-136041430D01*
X178099827Y-136297378D01*
X178767245Y-136297960D01*
X179384082Y-136043088D01*
X179856430Y-135571564D01*
X180112378Y-134955173D01*
X180112960Y-134287755D01*
X179858088Y-133670918D01*
X179562760Y-133375074D01*
X179562760Y-133179467D01*
X179705000Y-133207760D01*
X181602647Y-133207760D01*
X181618355Y-133231269D01*
X182146562Y-133584205D01*
X182387240Y-133632079D01*
X182387240Y-135890000D01*
X182473086Y-136321575D01*
X182717553Y-136687447D01*
X183083425Y-136931914D01*
X183515000Y-137017760D01*
X189222647Y-137017760D01*
X189238355Y-137041269D01*
X189766562Y-137394205D01*
X190389624Y-137518140D01*
X191880376Y-137518140D01*
X192503438Y-137394205D01*
X193031645Y-137041269D01*
X193384581Y-136513062D01*
X193508516Y-135890000D01*
X193480223Y-135747760D01*
X194537454Y-135747760D01*
X194537040Y-136222245D01*
X194791912Y-136839082D01*
X195263436Y-137311430D01*
X195879827Y-137567378D01*
X196547245Y-137567960D01*
X197164082Y-137313088D01*
X197204611Y-137272630D01*
X197386562Y-137394205D01*
X198009624Y-137518140D01*
X199500376Y-137518140D01*
X200123438Y-137394205D01*
X200616503Y-137064750D01*
X202184000Y-137064750D01*
X202184000Y-137667309D01*
X202280673Y-137900698D01*
X202459301Y-138079327D01*
X202692690Y-138176000D01*
X203549250Y-138176000D01*
X203708000Y-138017250D01*
X203708000Y-136906000D01*
X203962000Y-136906000D01*
X203962000Y-138017250D01*
X204120750Y-138176000D01*
X204977310Y-138176000D01*
X205210699Y-138079327D01*
X205389327Y-137900698D01*
X205486000Y-137667309D01*
X205486000Y-137064750D01*
X216154000Y-137064750D01*
X216154000Y-137667309D01*
X216250673Y-137900698D01*
X216429301Y-138079327D01*
X216662690Y-138176000D01*
X217519250Y-138176000D01*
X217678000Y-138017250D01*
X217678000Y-136906000D01*
X217932000Y-136906000D01*
X217932000Y-138017250D01*
X218090750Y-138176000D01*
X218947310Y-138176000D01*
X219180699Y-138079327D01*
X219359327Y-137900698D01*
X219431523Y-137726401D01*
X227644465Y-137726401D01*
X228078963Y-138777966D01*
X228882802Y-139583210D01*
X229933607Y-140019542D01*
X231071401Y-140020535D01*
X232122966Y-139586037D01*
X232928210Y-138782198D01*
X233364542Y-137731393D01*
X233365535Y-136593599D01*
X232931037Y-135542034D01*
X232127198Y-134736790D01*
X231076393Y-134300458D01*
X229938599Y-134299465D01*
X228887034Y-134733963D01*
X228081790Y-135537802D01*
X227645458Y-136588607D01*
X227644465Y-137726401D01*
X219431523Y-137726401D01*
X219456000Y-137667309D01*
X219456000Y-137064750D01*
X219297250Y-136906000D01*
X217932000Y-136906000D01*
X217678000Y-136906000D01*
X216312750Y-136906000D01*
X216154000Y-137064750D01*
X205486000Y-137064750D01*
X205327250Y-136906000D01*
X203962000Y-136906000D01*
X203708000Y-136906000D01*
X202342750Y-136906000D01*
X202184000Y-137064750D01*
X200616503Y-137064750D01*
X200651645Y-137041269D01*
X201004581Y-136513062D01*
X201128516Y-135890000D01*
X201100223Y-135747760D01*
X202243204Y-135747760D01*
X202184000Y-135890691D01*
X202184000Y-136493250D01*
X202342750Y-136652000D01*
X203708000Y-136652000D01*
X203708000Y-136632000D01*
X203962000Y-136632000D01*
X203962000Y-136652000D01*
X205327250Y-136652000D01*
X205486000Y-136493250D01*
X205486000Y-136219571D01*
X205629624Y-136248140D01*
X207120376Y-136248140D01*
X207743438Y-136124205D01*
X208271645Y-135771269D01*
X208624581Y-135243062D01*
X208748516Y-134620000D01*
X208624581Y-133996938D01*
X208271645Y-133468731D01*
X208093951Y-133350000D01*
X208271645Y-133231269D01*
X208624581Y-132703062D01*
X208748516Y-132080000D01*
X208624581Y-131456938D01*
X208271645Y-130928731D01*
X208093951Y-130810000D01*
X208271645Y-130691269D01*
X208624581Y-130163062D01*
X208748516Y-129540000D01*
X208624581Y-128916938D01*
X208271645Y-128388731D01*
X208093951Y-128270000D01*
X208271645Y-128151269D01*
X208624581Y-127623062D01*
X208748516Y-127000000D01*
X208624581Y-126376938D01*
X208271645Y-125848731D01*
X207906259Y-125604588D01*
X208179342Y-125384967D01*
X208449231Y-124891857D01*
X208466773Y-124809055D01*
X208344786Y-124587000D01*
X206502000Y-124587000D01*
X206502000Y-124607000D01*
X206248000Y-124607000D01*
X206248000Y-124587000D01*
X204405214Y-124587000D01*
X204283227Y-124809055D01*
X204300769Y-124891857D01*
X204570658Y-125384967D01*
X204843741Y-125604588D01*
X204478355Y-125848731D01*
X204462647Y-125872240D01*
X203667133Y-125872240D01*
X201457447Y-123662553D01*
X201091575Y-123418086D01*
X201083468Y-123416473D01*
X201128516Y-123190000D01*
X201004581Y-122566938D01*
X200651645Y-122038731D01*
X200286259Y-121794588D01*
X200559342Y-121574967D01*
X200582592Y-121532486D01*
X201767553Y-122717447D01*
X202133425Y-122961914D01*
X202565000Y-123047760D01*
X204462647Y-123047760D01*
X204478355Y-123071269D01*
X204843741Y-123315412D01*
X204570658Y-123535033D01*
X204300769Y-124028143D01*
X204283227Y-124110945D01*
X204405214Y-124333000D01*
X206248000Y-124333000D01*
X206248000Y-124313000D01*
X206502000Y-124313000D01*
X206502000Y-124333000D01*
X208344786Y-124333000D01*
X208466773Y-124110945D01*
X208449231Y-124028143D01*
X208179342Y-123535033D01*
X207906259Y-123315412D01*
X208271645Y-123071269D01*
X208287353Y-123047760D01*
X210185000Y-123047760D01*
X210616575Y-122961914D01*
X210982447Y-122717447D01*
X211372296Y-122327598D01*
X211787245Y-122327960D01*
X211905366Y-122279153D01*
X211920769Y-122351857D01*
X212190658Y-122844967D01*
X212463741Y-123064588D01*
X212098355Y-123308731D01*
X211745419Y-123836938D01*
X211621484Y-124460000D01*
X211745419Y-125083062D01*
X212098355Y-125611269D01*
X212276049Y-125730000D01*
X212098355Y-125848731D01*
X211745419Y-126376938D01*
X211621484Y-127000000D01*
X211745419Y-127623062D01*
X212098355Y-128151269D01*
X212276049Y-128270000D01*
X212098355Y-128388731D01*
X211745419Y-128916938D01*
X211621484Y-129540000D01*
X211745419Y-130163062D01*
X212098355Y-130691269D01*
X212276049Y-130810000D01*
X212098355Y-130928731D01*
X211745419Y-131456938D01*
X211621484Y-132080000D01*
X211745419Y-132703062D01*
X212098355Y-133231269D01*
X212276049Y-133350000D01*
X212098355Y-133468731D01*
X211745419Y-133996938D01*
X211621484Y-134620000D01*
X211745419Y-135243062D01*
X212098355Y-135771269D01*
X212626562Y-136124205D01*
X213249624Y-136248140D01*
X214740376Y-136248140D01*
X215363438Y-136124205D01*
X215891645Y-135771269D01*
X215907353Y-135747760D01*
X216213204Y-135747760D01*
X216154000Y-135890691D01*
X216154000Y-136493250D01*
X216312750Y-136652000D01*
X217678000Y-136652000D01*
X217678000Y-136632000D01*
X217932000Y-136632000D01*
X217932000Y-136652000D01*
X219297250Y-136652000D01*
X219456000Y-136493250D01*
X219456000Y-135890691D01*
X219396796Y-135747760D01*
X222250000Y-135747760D01*
X222681575Y-135661914D01*
X223047447Y-135417447D01*
X233207447Y-125257447D01*
X233451914Y-124891575D01*
X233537761Y-124460000D01*
X233537760Y-124459995D01*
X233537760Y-87604722D01*
X233831430Y-87311564D01*
X234087378Y-86695173D01*
X234087960Y-86027755D01*
X233833088Y-85410918D01*
X233537760Y-85115074D01*
X233537760Y-79756000D01*
X233498318Y-79557712D01*
X233465287Y-79358242D01*
X233455520Y-79342551D01*
X233451914Y-79324425D01*
X233339592Y-79156322D01*
X233232743Y-78984678D01*
X223414046Y-68511401D01*
X227644465Y-68511401D01*
X228078963Y-69562966D01*
X228882802Y-70368210D01*
X229933607Y-70804542D01*
X231071401Y-70805535D01*
X232122966Y-70371037D01*
X232928210Y-69567198D01*
X233364542Y-68516393D01*
X233365535Y-67378599D01*
X232931037Y-66327034D01*
X232127198Y-65521790D01*
X231076393Y-65085458D01*
X229938599Y-65084465D01*
X228887034Y-65518963D01*
X228081790Y-66322802D01*
X227645458Y-67373607D01*
X227644465Y-68511401D01*
X223414046Y-68511401D01*
X219897743Y-64760679D01*
X219883822Y-64750713D01*
X219874343Y-64736454D01*
X219705415Y-64622998D01*
X219539943Y-64504542D01*
X219523265Y-64500662D01*
X219509054Y-64491117D01*
X219309577Y-64450944D01*
X219111360Y-64404826D01*
X219094469Y-64407623D01*
X219077685Y-64404243D01*
X165737685Y-64277243D01*
X165736342Y-64277507D01*
X165735000Y-64277240D01*
X96520000Y-64277240D01*
X96088425Y-64363086D01*
X95722553Y-64607553D01*
X95332704Y-64997402D01*
X94917755Y-64997040D01*
X94300918Y-65251912D01*
X93979854Y-65572416D01*
X93661564Y-65253570D01*
X93045173Y-64997622D01*
X92377755Y-64997040D01*
X91760918Y-65251912D01*
X91288570Y-65723436D01*
X91032622Y-66339827D01*
X91032257Y-66757849D01*
X77942553Y-79847553D01*
X77698086Y-80213425D01*
X77612240Y-80645000D01*
X77612240Y-114300000D01*
X77698086Y-114731575D01*
X77942553Y-115097447D01*
X83022553Y-120177447D01*
X83388425Y-120421914D01*
X83820000Y-120507760D01*
X88242407Y-120507760D01*
X88258115Y-120531269D01*
X88435809Y-120650000D01*
X88258115Y-120768731D01*
X87905179Y-121296938D01*
X87781244Y-121920000D01*
X87905179Y-122543062D01*
X88258115Y-123071269D01*
X88786322Y-123424205D01*
X89409384Y-123548140D01*
X89677240Y-123548140D01*
X89677240Y-124460000D01*
X89717865Y-124664234D01*
X89754141Y-124869314D01*
X89760705Y-124879605D01*
X89763086Y-124891575D01*
X89878789Y-125064737D01*
X89990771Y-125240303D01*
X98368185Y-133981952D01*
X88938040Y-133981952D01*
X88938040Y-140638022D01*
X99021961Y-140638022D01*
X99021961Y-134664153D01*
X104595771Y-140480303D01*
X104605771Y-140487297D01*
X104612553Y-140497447D01*
X104785716Y-140613151D01*
X104956359Y-140732498D01*
X104968277Y-140735133D01*
X104978425Y-140741914D01*
X105182661Y-140782539D01*
X105386010Y-140827505D01*
X105398029Y-140825379D01*
X105410000Y-140827760D01*
X108629738Y-140827760D01*
X108629738Y-140843000D01*
X108687476Y-141149853D01*
X108733554Y-141221460D01*
X77218540Y-141221460D01*
X77218540Y-137726401D01*
X78419465Y-137726401D01*
X78853963Y-138777966D01*
X79657802Y-139583210D01*
X80708607Y-140019542D01*
X81846401Y-140020535D01*
X82897966Y-139586037D01*
X83703210Y-138782198D01*
X84139542Y-137731393D01*
X84140535Y-136593599D01*
X83706037Y-135542034D01*
X82902198Y-134736790D01*
X81851393Y-134300458D01*
X80713599Y-134299465D01*
X79662034Y-134733963D01*
X78856790Y-135537802D01*
X78420458Y-136588607D01*
X78419465Y-137726401D01*
X77218540Y-137726401D01*
X77218540Y-123821952D01*
X78230307Y-123821952D01*
X78230307Y-130478022D01*
X87885693Y-130478022D01*
X87885693Y-123821952D01*
X78230307Y-123821952D01*
X77218540Y-123821952D01*
X77218540Y-68511401D01*
X78419465Y-68511401D01*
X78853963Y-69562966D01*
X79657802Y-70368210D01*
X80708607Y-70804542D01*
X81846401Y-70805535D01*
X82897966Y-70371037D01*
X83703210Y-69567198D01*
X84139542Y-68516393D01*
X84140535Y-67378599D01*
X83706037Y-66327034D01*
X82902198Y-65521790D01*
X81851393Y-65085458D01*
X80713599Y-65084465D01*
X79662034Y-65518963D01*
X78856790Y-66322802D01*
X78420458Y-67373607D01*
X78419465Y-68511401D01*
X77218540Y-68511401D01*
X77218540Y-63883540D01*
X234566460Y-63883540D01*
X234566460Y-141221460D01*
X234566460Y-141221460D01*
G37*
X234566460Y-141221460D02*
X219564586Y-141221460D01*
X219598746Y-141171465D01*
X219665262Y-140843000D01*
X219665262Y-139319000D01*
X219607524Y-139012147D01*
X219426174Y-138730321D01*
X219149465Y-138541254D01*
X218821000Y-138474738D01*
X216789000Y-138474738D01*
X216482147Y-138532476D01*
X216420352Y-138572240D01*
X205224815Y-138572240D01*
X205179465Y-138541254D01*
X204851000Y-138474738D01*
X202819000Y-138474738D01*
X202512147Y-138532476D01*
X202450352Y-138572240D01*
X182219722Y-138572240D01*
X181926564Y-138278570D01*
X181310173Y-138022622D01*
X180642755Y-138022040D01*
X180025918Y-138276912D01*
X179730074Y-138572240D01*
X168884722Y-138572240D01*
X168591564Y-138278570D01*
X167975173Y-138022622D01*
X167307755Y-138022040D01*
X166690918Y-138276912D01*
X166395074Y-138572240D01*
X151884815Y-138572240D01*
X151839465Y-138541254D01*
X151511000Y-138474738D01*
X149479000Y-138474738D01*
X149172147Y-138532476D01*
X149110352Y-138572240D01*
X123799722Y-138572240D01*
X123506564Y-138278570D01*
X122890173Y-138022622D01*
X122222755Y-138022040D01*
X121605918Y-138276912D01*
X121310074Y-138572240D01*
X111879815Y-138572240D01*
X111834465Y-138541254D01*
X111506000Y-138474738D01*
X109474000Y-138474738D01*
X109167147Y-138532476D01*
X109105352Y-138572240D01*
X105891249Y-138572240D01*
X104446572Y-137064750D01*
X108839000Y-137064750D01*
X108839000Y-137667309D01*
X108935673Y-137900698D01*
X109114301Y-138079327D01*
X109347690Y-138176000D01*
X110204250Y-138176000D01*
X110363000Y-138017250D01*
X110363000Y-136906000D01*
X110617000Y-136906000D01*
X110617000Y-138017250D01*
X110775750Y-138176000D01*
X111632310Y-138176000D01*
X111865699Y-138079327D01*
X112044327Y-137900698D01*
X112141000Y-137667309D01*
X112141000Y-137064750D01*
X148844000Y-137064750D01*
X148844000Y-137667309D01*
X148940673Y-137900698D01*
X149119301Y-138079327D01*
X149352690Y-138176000D01*
X150209250Y-138176000D01*
X150368000Y-138017250D01*
X150368000Y-136906000D01*
X150622000Y-136906000D01*
X150622000Y-138017250D01*
X150780750Y-138176000D01*
X151637310Y-138176000D01*
X151870699Y-138079327D01*
X152049327Y-137900698D01*
X152146000Y-137667309D01*
X152146000Y-137064750D01*
X151987250Y-136906000D01*
X150622000Y-136906000D01*
X150368000Y-136906000D01*
X149002750Y-136906000D01*
X148844000Y-137064750D01*
X112141000Y-137064750D01*
X111982250Y-136906000D01*
X110617000Y-136906000D01*
X110363000Y-136906000D01*
X108997750Y-136906000D01*
X108839000Y-137064750D01*
X104446572Y-137064750D01*
X91932760Y-124006860D01*
X91932760Y-123150545D01*
X92051405Y-123071269D01*
X92198519Y-122851096D01*
X92628948Y-123197259D01*
X93168470Y-123355100D01*
X93868240Y-123355100D01*
X93868240Y-122047000D01*
X94122240Y-122047000D01*
X94122240Y-123355100D01*
X94822010Y-123355100D01*
X95361532Y-123197259D01*
X95799582Y-122844967D01*
X96069471Y-122351857D01*
X96087013Y-122269055D01*
X95965026Y-122047000D01*
X94122240Y-122047000D01*
X93868240Y-122047000D01*
X93848240Y-122047000D01*
X93848240Y-121793000D01*
X93868240Y-121793000D01*
X93868240Y-121773000D01*
X94122240Y-121773000D01*
X94122240Y-121793000D01*
X95965026Y-121793000D01*
X96087013Y-121570945D01*
X96069471Y-121488143D01*
X95799582Y-120995033D01*
X95526499Y-120775412D01*
X95891885Y-120531269D01*
X95907593Y-120507760D01*
X97790000Y-120507760D01*
X98221575Y-120421914D01*
X98587447Y-120177447D01*
X99668577Y-119096317D01*
X99668040Y-119712245D01*
X99910179Y-120298266D01*
X99776173Y-120242622D01*
X99108755Y-120242040D01*
X98491918Y-120496912D01*
X98019570Y-120968436D01*
X97763622Y-121584827D01*
X97763040Y-122252245D01*
X98017912Y-122869082D01*
X98313240Y-123164926D01*
X98313240Y-126746000D01*
X98317569Y-126767763D01*
X98314086Y-126789679D01*
X98360344Y-126982806D01*
X98399086Y-127177575D01*
X98411414Y-127196026D01*
X98416583Y-127217605D01*
X98533221Y-127378322D01*
X98643553Y-127543447D01*
X98662004Y-127555775D01*
X98675037Y-127573734D01*
X107184037Y-135447734D01*
X107353308Y-135551587D01*
X107518425Y-135661914D01*
X107540188Y-135666243D01*
X107559103Y-135677848D01*
X107755237Y-135709019D01*
X107950000Y-135747760D01*
X108898204Y-135747760D01*
X108839000Y-135890691D01*
X108839000Y-136493250D01*
X108997750Y-136652000D01*
X110363000Y-136652000D01*
X110363000Y-136632000D01*
X110617000Y-136632000D01*
X110617000Y-136652000D01*
X111982250Y-136652000D01*
X112141000Y-136493250D01*
X112141000Y-135890691D01*
X148844000Y-135890691D01*
X148844000Y-136493250D01*
X149002750Y-136652000D01*
X150368000Y-136652000D01*
X150368000Y-135540750D01*
X150622000Y-135540750D01*
X150622000Y-136652000D01*
X151987250Y-136652000D01*
X152146000Y-136493250D01*
X152146000Y-135890691D01*
X152049327Y-135657302D01*
X151870699Y-135478673D01*
X151637310Y-135382000D01*
X150780750Y-135382000D01*
X150622000Y-135540750D01*
X150368000Y-135540750D01*
X150209250Y-135382000D01*
X149352690Y-135382000D01*
X149119301Y-135478673D01*
X148940673Y-135657302D01*
X148844000Y-135890691D01*
X112141000Y-135890691D01*
X112081796Y-135747760D01*
X125095000Y-135747760D01*
X125526575Y-135661914D01*
X125892447Y-135417447D01*
X126340838Y-134969055D01*
X153483227Y-134969055D01*
X153500769Y-135051857D01*
X153770658Y-135544967D01*
X154208708Y-135897259D01*
X154748230Y-136055100D01*
X155448000Y-136055100D01*
X155448000Y-134747000D01*
X155702000Y-134747000D01*
X155702000Y-136055100D01*
X156401770Y-136055100D01*
X156941292Y-135897259D01*
X157379342Y-135544967D01*
X157649231Y-135051857D01*
X157666773Y-134969055D01*
X157544786Y-134747000D01*
X155702000Y-134747000D01*
X155448000Y-134747000D01*
X153605214Y-134747000D01*
X153483227Y-134969055D01*
X126340838Y-134969055D01*
X127601753Y-133708140D01*
X128380376Y-133708140D01*
X129003438Y-133584205D01*
X129531645Y-133231269D01*
X129884581Y-132703062D01*
X129939084Y-132429055D01*
X130623227Y-132429055D01*
X130640769Y-132511857D01*
X130910658Y-133004967D01*
X131348708Y-133357259D01*
X131888230Y-133515100D01*
X132588000Y-133515100D01*
X132588000Y-132207000D01*
X132842000Y-132207000D01*
X132842000Y-133515100D01*
X133541770Y-133515100D01*
X134081292Y-133357259D01*
X134519342Y-133004967D01*
X134789231Y-132511857D01*
X134806773Y-132429055D01*
X134684786Y-132207000D01*
X132842000Y-132207000D01*
X132588000Y-132207000D01*
X130745214Y-132207000D01*
X130623227Y-132429055D01*
X129939084Y-132429055D01*
X130008516Y-132080000D01*
X129980223Y-131937760D01*
X130175000Y-131937760D01*
X130606575Y-131851914D01*
X130667367Y-131811294D01*
X130745214Y-131953000D01*
X132588000Y-131953000D01*
X132588000Y-131933000D01*
X132842000Y-131933000D01*
X132842000Y-131953000D01*
X134684786Y-131953000D01*
X134806773Y-131730945D01*
X134789231Y-131648143D01*
X134519342Y-131155033D01*
X134246259Y-130935412D01*
X134611645Y-130691269D01*
X134627353Y-130667760D01*
X137160000Y-130667760D01*
X137591575Y-130581914D01*
X137957447Y-130337447D01*
X138897134Y-129397760D01*
X145609777Y-129397760D01*
X145581484Y-129540000D01*
X145705419Y-130163062D01*
X146058355Y-130691269D01*
X146236049Y-130810000D01*
X146058355Y-130928731D01*
X145705419Y-131456938D01*
X145581484Y-132080000D01*
X145705419Y-132703062D01*
X146058355Y-133231269D01*
X146586562Y-133584205D01*
X147209624Y-133708140D01*
X148700376Y-133708140D01*
X149323438Y-133584205D01*
X149851645Y-133231269D01*
X150204581Y-132703062D01*
X150328516Y-132080000D01*
X150204581Y-131456938D01*
X149851645Y-130928731D01*
X149673951Y-130810000D01*
X149851645Y-130691269D01*
X150204581Y-130163062D01*
X150328516Y-129540000D01*
X150300223Y-129397760D01*
X151297866Y-129397760D01*
X152237553Y-130337447D01*
X152603425Y-130581914D01*
X153035000Y-130667760D01*
X153662647Y-130667760D01*
X153678355Y-130691269D01*
X153856049Y-130810000D01*
X153678355Y-130928731D01*
X153325419Y-131456938D01*
X153201484Y-132080000D01*
X153325419Y-132703062D01*
X153678355Y-133231269D01*
X154043741Y-133475412D01*
X153770658Y-133695033D01*
X153500769Y-134188143D01*
X153483227Y-134270945D01*
X153605214Y-134493000D01*
X155448000Y-134493000D01*
X155448000Y-134473000D01*
X155702000Y-134473000D01*
X155702000Y-134493000D01*
X157544786Y-134493000D01*
X157666773Y-134270945D01*
X157649231Y-134188143D01*
X157379342Y-133695033D01*
X157106259Y-133475412D01*
X157471645Y-133231269D01*
X157824581Y-132703062D01*
X157948516Y-132080000D01*
X157824581Y-131456938D01*
X157471645Y-130928731D01*
X157293951Y-130810000D01*
X157471645Y-130691269D01*
X157487353Y-130667760D01*
X157586786Y-130667760D01*
X160423631Y-134071975D01*
X160463835Y-134104467D01*
X160492553Y-134147447D01*
X160633769Y-134241804D01*
X160765867Y-134348563D01*
X160815447Y-134363197D01*
X160858425Y-134391914D01*
X160866532Y-134393527D01*
X160821484Y-134620000D01*
X160945419Y-135243062D01*
X161298355Y-135771269D01*
X161826562Y-136124205D01*
X162449624Y-136248140D01*
X163940376Y-136248140D01*
X164563438Y-136124205D01*
X165091645Y-135771269D01*
X165107353Y-135747760D01*
X170180000Y-135747760D01*
X170611575Y-135661914D01*
X170977447Y-135417447D01*
X173842795Y-132552099D01*
X174090658Y-133004967D01*
X174528708Y-133357259D01*
X175068230Y-133515100D01*
X175768000Y-133515100D01*
X175768000Y-132207000D01*
X175748000Y-132207000D01*
X175748000Y-131953000D01*
X175768000Y-131953000D01*
X175768000Y-131937760D01*
X176022000Y-131937760D01*
X176022000Y-131953000D01*
X176042000Y-131953000D01*
X176042000Y-132207000D01*
X176022000Y-132207000D01*
X176022000Y-133515100D01*
X176721770Y-133515100D01*
X177261292Y-133357259D01*
X177307240Y-133320306D01*
X177307240Y-133375278D01*
X177013570Y-133668436D01*
X176757622Y-134284827D01*
X176757040Y-134952245D01*
X177011912Y-135569082D01*
X177483436Y-136041430D01*
X178099827Y-136297378D01*
X178767245Y-136297960D01*
X179384082Y-136043088D01*
X179856430Y-135571564D01*
X180112378Y-134955173D01*
X180112960Y-134287755D01*
X179858088Y-133670918D01*
X179562760Y-133375074D01*
X179562760Y-133179467D01*
X179705000Y-133207760D01*
X181602647Y-133207760D01*
X181618355Y-133231269D01*
X182146562Y-133584205D01*
X182387240Y-133632079D01*
X182387240Y-135890000D01*
X182473086Y-136321575D01*
X182717553Y-136687447D01*
X183083425Y-136931914D01*
X183515000Y-137017760D01*
X189222647Y-137017760D01*
X189238355Y-137041269D01*
X189766562Y-137394205D01*
X190389624Y-137518140D01*
X191880376Y-137518140D01*
X192503438Y-137394205D01*
X193031645Y-137041269D01*
X193384581Y-136513062D01*
X193508516Y-135890000D01*
X193480223Y-135747760D01*
X194537454Y-135747760D01*
X194537040Y-136222245D01*
X194791912Y-136839082D01*
X195263436Y-137311430D01*
X195879827Y-137567378D01*
X196547245Y-137567960D01*
X197164082Y-137313088D01*
X197204611Y-137272630D01*
X197386562Y-137394205D01*
X198009624Y-137518140D01*
X199500376Y-137518140D01*
X200123438Y-137394205D01*
X200616503Y-137064750D01*
X202184000Y-137064750D01*
X202184000Y-137667309D01*
X202280673Y-137900698D01*
X202459301Y-138079327D01*
X202692690Y-138176000D01*
X203549250Y-138176000D01*
X203708000Y-138017250D01*
X203708000Y-136906000D01*
X203962000Y-136906000D01*
X203962000Y-138017250D01*
X204120750Y-138176000D01*
X204977310Y-138176000D01*
X205210699Y-138079327D01*
X205389327Y-137900698D01*
X205486000Y-137667309D01*
X205486000Y-137064750D01*
X216154000Y-137064750D01*
X216154000Y-137667309D01*
X216250673Y-137900698D01*
X216429301Y-138079327D01*
X216662690Y-138176000D01*
X217519250Y-138176000D01*
X217678000Y-138017250D01*
X217678000Y-136906000D01*
X217932000Y-136906000D01*
X217932000Y-138017250D01*
X218090750Y-138176000D01*
X218947310Y-138176000D01*
X219180699Y-138079327D01*
X219359327Y-137900698D01*
X219431523Y-137726401D01*
X227644465Y-137726401D01*
X228078963Y-138777966D01*
X228882802Y-139583210D01*
X229933607Y-140019542D01*
X231071401Y-140020535D01*
X232122966Y-139586037D01*
X232928210Y-138782198D01*
X233364542Y-137731393D01*
X233365535Y-136593599D01*
X232931037Y-135542034D01*
X232127198Y-134736790D01*
X231076393Y-134300458D01*
X229938599Y-134299465D01*
X228887034Y-134733963D01*
X228081790Y-135537802D01*
X227645458Y-136588607D01*
X227644465Y-137726401D01*
X219431523Y-137726401D01*
X219456000Y-137667309D01*
X219456000Y-137064750D01*
X219297250Y-136906000D01*
X217932000Y-136906000D01*
X217678000Y-136906000D01*
X216312750Y-136906000D01*
X216154000Y-137064750D01*
X205486000Y-137064750D01*
X205327250Y-136906000D01*
X203962000Y-136906000D01*
X203708000Y-136906000D01*
X202342750Y-136906000D01*
X202184000Y-137064750D01*
X200616503Y-137064750D01*
X200651645Y-137041269D01*
X201004581Y-136513062D01*
X201128516Y-135890000D01*
X201100223Y-135747760D01*
X202243204Y-135747760D01*
X202184000Y-135890691D01*
X202184000Y-136493250D01*
X202342750Y-136652000D01*
X203708000Y-136652000D01*
X203708000Y-136632000D01*
X203962000Y-136632000D01*
X203962000Y-136652000D01*
X205327250Y-136652000D01*
X205486000Y-136493250D01*
X205486000Y-136219571D01*
X205629624Y-136248140D01*
X207120376Y-136248140D01*
X207743438Y-136124205D01*
X208271645Y-135771269D01*
X208624581Y-135243062D01*
X208748516Y-134620000D01*
X208624581Y-133996938D01*
X208271645Y-133468731D01*
X208093951Y-133350000D01*
X208271645Y-133231269D01*
X208624581Y-132703062D01*
X208748516Y-132080000D01*
X208624581Y-131456938D01*
X208271645Y-130928731D01*
X208093951Y-130810000D01*
X208271645Y-130691269D01*
X208624581Y-130163062D01*
X208748516Y-129540000D01*
X208624581Y-128916938D01*
X208271645Y-128388731D01*
X208093951Y-128270000D01*
X208271645Y-128151269D01*
X208624581Y-127623062D01*
X208748516Y-127000000D01*
X208624581Y-126376938D01*
X208271645Y-125848731D01*
X207906259Y-125604588D01*
X208179342Y-125384967D01*
X208449231Y-124891857D01*
X208466773Y-124809055D01*
X208344786Y-124587000D01*
X206502000Y-124587000D01*
X206502000Y-124607000D01*
X206248000Y-124607000D01*
X206248000Y-124587000D01*
X204405214Y-124587000D01*
X204283227Y-124809055D01*
X204300769Y-124891857D01*
X204570658Y-125384967D01*
X204843741Y-125604588D01*
X204478355Y-125848731D01*
X204462647Y-125872240D01*
X203667133Y-125872240D01*
X201457447Y-123662553D01*
X201091575Y-123418086D01*
X201083468Y-123416473D01*
X201128516Y-123190000D01*
X201004581Y-122566938D01*
X200651645Y-122038731D01*
X200286259Y-121794588D01*
X200559342Y-121574967D01*
X200582592Y-121532486D01*
X201767553Y-122717447D01*
X202133425Y-122961914D01*
X202565000Y-123047760D01*
X204462647Y-123047760D01*
X204478355Y-123071269D01*
X204843741Y-123315412D01*
X204570658Y-123535033D01*
X204300769Y-124028143D01*
X204283227Y-124110945D01*
X204405214Y-124333000D01*
X206248000Y-124333000D01*
X206248000Y-124313000D01*
X206502000Y-124313000D01*
X206502000Y-124333000D01*
X208344786Y-124333000D01*
X208466773Y-124110945D01*
X208449231Y-124028143D01*
X208179342Y-123535033D01*
X207906259Y-123315412D01*
X208271645Y-123071269D01*
X208287353Y-123047760D01*
X210185000Y-123047760D01*
X210616575Y-122961914D01*
X210982447Y-122717447D01*
X211372296Y-122327598D01*
X211787245Y-122327960D01*
X211905366Y-122279153D01*
X211920769Y-122351857D01*
X212190658Y-122844967D01*
X212463741Y-123064588D01*
X212098355Y-123308731D01*
X211745419Y-123836938D01*
X211621484Y-124460000D01*
X211745419Y-125083062D01*
X212098355Y-125611269D01*
X212276049Y-125730000D01*
X212098355Y-125848731D01*
X211745419Y-126376938D01*
X211621484Y-127000000D01*
X211745419Y-127623062D01*
X212098355Y-128151269D01*
X212276049Y-128270000D01*
X212098355Y-128388731D01*
X211745419Y-128916938D01*
X211621484Y-129540000D01*
X211745419Y-130163062D01*
X212098355Y-130691269D01*
X212276049Y-130810000D01*
X212098355Y-130928731D01*
X211745419Y-131456938D01*
X211621484Y-132080000D01*
X211745419Y-132703062D01*
X212098355Y-133231269D01*
X212276049Y-133350000D01*
X212098355Y-133468731D01*
X211745419Y-133996938D01*
X211621484Y-134620000D01*
X211745419Y-135243062D01*
X212098355Y-135771269D01*
X212626562Y-136124205D01*
X213249624Y-136248140D01*
X214740376Y-136248140D01*
X215363438Y-136124205D01*
X215891645Y-135771269D01*
X215907353Y-135747760D01*
X216213204Y-135747760D01*
X216154000Y-135890691D01*
X216154000Y-136493250D01*
X216312750Y-136652000D01*
X217678000Y-136652000D01*
X217678000Y-136632000D01*
X217932000Y-136632000D01*
X217932000Y-136652000D01*
X219297250Y-136652000D01*
X219456000Y-136493250D01*
X219456000Y-135890691D01*
X219396796Y-135747760D01*
X222250000Y-135747760D01*
X222681575Y-135661914D01*
X223047447Y-135417447D01*
X233207447Y-125257447D01*
X233451914Y-124891575D01*
X233537761Y-124460000D01*
X233537760Y-124459995D01*
X233537760Y-87604722D01*
X233831430Y-87311564D01*
X234087378Y-86695173D01*
X234087960Y-86027755D01*
X233833088Y-85410918D01*
X233537760Y-85115074D01*
X233537760Y-79756000D01*
X233498318Y-79557712D01*
X233465287Y-79358242D01*
X233455520Y-79342551D01*
X233451914Y-79324425D01*
X233339592Y-79156322D01*
X233232743Y-78984678D01*
X223414046Y-68511401D01*
X227644465Y-68511401D01*
X228078963Y-69562966D01*
X228882802Y-70368210D01*
X229933607Y-70804542D01*
X231071401Y-70805535D01*
X232122966Y-70371037D01*
X232928210Y-69567198D01*
X233364542Y-68516393D01*
X233365535Y-67378599D01*
X232931037Y-66327034D01*
X232127198Y-65521790D01*
X231076393Y-65085458D01*
X229938599Y-65084465D01*
X228887034Y-65518963D01*
X228081790Y-66322802D01*
X227645458Y-67373607D01*
X227644465Y-68511401D01*
X223414046Y-68511401D01*
X219897743Y-64760679D01*
X219883822Y-64750713D01*
X219874343Y-64736454D01*
X219705415Y-64622998D01*
X219539943Y-64504542D01*
X219523265Y-64500662D01*
X219509054Y-64491117D01*
X219309577Y-64450944D01*
X219111360Y-64404826D01*
X219094469Y-64407623D01*
X219077685Y-64404243D01*
X165737685Y-64277243D01*
X165736342Y-64277507D01*
X165735000Y-64277240D01*
X96520000Y-64277240D01*
X96088425Y-64363086D01*
X95722553Y-64607553D01*
X95332704Y-64997402D01*
X94917755Y-64997040D01*
X94300918Y-65251912D01*
X93979854Y-65572416D01*
X93661564Y-65253570D01*
X93045173Y-64997622D01*
X92377755Y-64997040D01*
X91760918Y-65251912D01*
X91288570Y-65723436D01*
X91032622Y-66339827D01*
X91032257Y-66757849D01*
X77942553Y-79847553D01*
X77698086Y-80213425D01*
X77612240Y-80645000D01*
X77612240Y-114300000D01*
X77698086Y-114731575D01*
X77942553Y-115097447D01*
X83022553Y-120177447D01*
X83388425Y-120421914D01*
X83820000Y-120507760D01*
X88242407Y-120507760D01*
X88258115Y-120531269D01*
X88435809Y-120650000D01*
X88258115Y-120768731D01*
X87905179Y-121296938D01*
X87781244Y-121920000D01*
X87905179Y-122543062D01*
X88258115Y-123071269D01*
X88786322Y-123424205D01*
X89409384Y-123548140D01*
X89677240Y-123548140D01*
X89677240Y-124460000D01*
X89717865Y-124664234D01*
X89754141Y-124869314D01*
X89760705Y-124879605D01*
X89763086Y-124891575D01*
X89878789Y-125064737D01*
X89990771Y-125240303D01*
X98368185Y-133981952D01*
X88938040Y-133981952D01*
X88938040Y-140638022D01*
X99021961Y-140638022D01*
X99021961Y-134664153D01*
X104595771Y-140480303D01*
X104605771Y-140487297D01*
X104612553Y-140497447D01*
X104785716Y-140613151D01*
X104956359Y-140732498D01*
X104968277Y-140735133D01*
X104978425Y-140741914D01*
X105182661Y-140782539D01*
X105386010Y-140827505D01*
X105398029Y-140825379D01*
X105410000Y-140827760D01*
X108629738Y-140827760D01*
X108629738Y-140843000D01*
X108687476Y-141149853D01*
X108733554Y-141221460D01*
X77218540Y-141221460D01*
X77218540Y-137726401D01*
X78419465Y-137726401D01*
X78853963Y-138777966D01*
X79657802Y-139583210D01*
X80708607Y-140019542D01*
X81846401Y-140020535D01*
X82897966Y-139586037D01*
X83703210Y-138782198D01*
X84139542Y-137731393D01*
X84140535Y-136593599D01*
X83706037Y-135542034D01*
X82902198Y-134736790D01*
X81851393Y-134300458D01*
X80713599Y-134299465D01*
X79662034Y-134733963D01*
X78856790Y-135537802D01*
X78420458Y-136588607D01*
X78419465Y-137726401D01*
X77218540Y-137726401D01*
X77218540Y-123821952D01*
X78230307Y-123821952D01*
X78230307Y-130478022D01*
X87885693Y-130478022D01*
X87885693Y-123821952D01*
X78230307Y-123821952D01*
X77218540Y-123821952D01*
X77218540Y-68511401D01*
X78419465Y-68511401D01*
X78853963Y-69562966D01*
X79657802Y-70368210D01*
X80708607Y-70804542D01*
X81846401Y-70805535D01*
X82897966Y-70371037D01*
X83703210Y-69567198D01*
X84139542Y-68516393D01*
X84140535Y-67378599D01*
X83706037Y-66327034D01*
X82902198Y-65521790D01*
X81851393Y-65085458D01*
X80713599Y-65084465D01*
X79662034Y-65518963D01*
X78856790Y-66322802D01*
X78420458Y-67373607D01*
X78419465Y-68511401D01*
X77218540Y-68511401D01*
X77218540Y-63883540D01*
X234566460Y-63883540D01*
X234566460Y-141221460D01*
G36*
X214122000Y-121793000D02*
X215964786Y-121793000D01*
X215973158Y-121777760D01*
X217312240Y-121777760D01*
X217312240Y-123332240D01*
X215907353Y-123332240D01*
X215891645Y-123308731D01*
X215526259Y-123064588D01*
X215799342Y-122844967D01*
X216069231Y-122351857D01*
X216086773Y-122269055D01*
X215964786Y-122047000D01*
X214122000Y-122047000D01*
X214122000Y-122067000D01*
X213868000Y-122067000D01*
X213868000Y-122047000D01*
X213848000Y-122047000D01*
X213848000Y-121793000D01*
X213868000Y-121793000D01*
X213868000Y-121777760D01*
X214122000Y-121777760D01*
X214122000Y-121793000D01*
X214122000Y-121793000D01*
G37*
X214122000Y-121793000D02*
X215964786Y-121793000D01*
X215973158Y-121777760D01*
X217312240Y-121777760D01*
X217312240Y-123332240D01*
X215907353Y-123332240D01*
X215891645Y-123308731D01*
X215526259Y-123064588D01*
X215799342Y-122844967D01*
X216069231Y-122351857D01*
X216086773Y-122269055D01*
X215964786Y-122047000D01*
X214122000Y-122047000D01*
X214122000Y-122067000D01*
X213868000Y-122067000D01*
X213868000Y-122047000D01*
X213848000Y-122047000D01*
X213848000Y-121793000D01*
X213868000Y-121793000D01*
X213868000Y-121777760D01*
X214122000Y-121777760D01*
X214122000Y-121793000D01*
G36*
X196680769Y-120218143D02*
X196663227Y-120300945D01*
X196785214Y-120523000D01*
X198628000Y-120523000D01*
X198628000Y-120503000D01*
X198882000Y-120503000D01*
X198882000Y-120523000D01*
X198902000Y-120523000D01*
X198902000Y-120777000D01*
X198882000Y-120777000D01*
X198882000Y-120797000D01*
X198628000Y-120797000D01*
X198628000Y-120777000D01*
X196785214Y-120777000D01*
X196663227Y-120999055D01*
X196680769Y-121081857D01*
X196950658Y-121574967D01*
X197223741Y-121794588D01*
X196858355Y-122038731D01*
X196505419Y-122566938D01*
X196407766Y-123057872D01*
X195742447Y-122392553D01*
X195376575Y-122148086D01*
X194945000Y-122062240D01*
X194284722Y-122062240D01*
X193991564Y-121768570D01*
X193459389Y-121547592D01*
X193479132Y-121450100D01*
X193479132Y-120535762D01*
X194142134Y-119872760D01*
X196869804Y-119872760D01*
X196680769Y-120218143D01*
X196680769Y-120218143D01*
G37*
X196680769Y-120218143D02*
X196663227Y-120300945D01*
X196785214Y-120523000D01*
X198628000Y-120523000D01*
X198628000Y-120503000D01*
X198882000Y-120503000D01*
X198882000Y-120523000D01*
X198902000Y-120523000D01*
X198902000Y-120777000D01*
X198882000Y-120777000D01*
X198882000Y-120797000D01*
X198628000Y-120797000D01*
X198628000Y-120777000D01*
X196785214Y-120777000D01*
X196663227Y-120999055D01*
X196680769Y-121081857D01*
X196950658Y-121574967D01*
X197223741Y-121794588D01*
X196858355Y-122038731D01*
X196505419Y-122566938D01*
X196407766Y-123057872D01*
X195742447Y-122392553D01*
X195376575Y-122148086D01*
X194945000Y-122062240D01*
X194284722Y-122062240D01*
X193991564Y-121768570D01*
X193459389Y-121547592D01*
X193479132Y-121450100D01*
X193479132Y-120535762D01*
X194142134Y-119872760D01*
X196869804Y-119872760D01*
X196680769Y-120218143D01*
G36*
X167295419Y-112383062D02*
X167648355Y-112911269D01*
X168013741Y-113155412D01*
X167740658Y-113375033D01*
X167470769Y-113868143D01*
X167453227Y-113950945D01*
X167575213Y-114172998D01*
X167410130Y-114172998D01*
X167410130Y-114237291D01*
X167321564Y-114148570D01*
X166705173Y-113892622D01*
X166037755Y-113892040D01*
X165420918Y-114146912D01*
X164948570Y-114618436D01*
X164692622Y-115234827D01*
X164692142Y-115785573D01*
X164539465Y-115681254D01*
X164211000Y-115614738D01*
X162179000Y-115614738D01*
X161872147Y-115672476D01*
X161590321Y-115853826D01*
X161401254Y-116130535D01*
X161334738Y-116459000D01*
X161334738Y-117983000D01*
X161385399Y-118252240D01*
X156217353Y-118252240D01*
X156201645Y-118228731D01*
X156023951Y-118110000D01*
X156201645Y-117991269D01*
X156554581Y-117463062D01*
X156556505Y-117453389D01*
X159805144Y-114204750D01*
X161544000Y-114204750D01*
X161544000Y-114807309D01*
X161640673Y-115040698D01*
X161819301Y-115219327D01*
X162052690Y-115316000D01*
X162909250Y-115316000D01*
X163068000Y-115157250D01*
X163068000Y-114046000D01*
X163322000Y-114046000D01*
X163322000Y-115157250D01*
X163480750Y-115316000D01*
X164337310Y-115316000D01*
X164570699Y-115219327D01*
X164749327Y-115040698D01*
X164846000Y-114807309D01*
X164846000Y-114204750D01*
X164687250Y-114046000D01*
X163322000Y-114046000D01*
X163068000Y-114046000D01*
X161702750Y-114046000D01*
X161544000Y-114204750D01*
X159805144Y-114204750D01*
X161122134Y-112887760D01*
X161603204Y-112887760D01*
X161544000Y-113030691D01*
X161544000Y-113633250D01*
X161702750Y-113792000D01*
X163068000Y-113792000D01*
X163068000Y-113772000D01*
X163322000Y-113772000D01*
X163322000Y-113792000D01*
X164687250Y-113792000D01*
X164846000Y-113633250D01*
X164846000Y-113030691D01*
X164786796Y-112887760D01*
X165735000Y-112887760D01*
X166166575Y-112801914D01*
X166532447Y-112557447D01*
X167197766Y-111892128D01*
X167295419Y-112383062D01*
X167295419Y-112383062D01*
G37*
X167295419Y-112383062D02*
X167648355Y-112911269D01*
X168013741Y-113155412D01*
X167740658Y-113375033D01*
X167470769Y-113868143D01*
X167453227Y-113950945D01*
X167575213Y-114172998D01*
X167410130Y-114172998D01*
X167410130Y-114237291D01*
X167321564Y-114148570D01*
X166705173Y-113892622D01*
X166037755Y-113892040D01*
X165420918Y-114146912D01*
X164948570Y-114618436D01*
X164692622Y-115234827D01*
X164692142Y-115785573D01*
X164539465Y-115681254D01*
X164211000Y-115614738D01*
X162179000Y-115614738D01*
X161872147Y-115672476D01*
X161590321Y-115853826D01*
X161401254Y-116130535D01*
X161334738Y-116459000D01*
X161334738Y-117983000D01*
X161385399Y-118252240D01*
X156217353Y-118252240D01*
X156201645Y-118228731D01*
X156023951Y-118110000D01*
X156201645Y-117991269D01*
X156554581Y-117463062D01*
X156556505Y-117453389D01*
X159805144Y-114204750D01*
X161544000Y-114204750D01*
X161544000Y-114807309D01*
X161640673Y-115040698D01*
X161819301Y-115219327D01*
X162052690Y-115316000D01*
X162909250Y-115316000D01*
X163068000Y-115157250D01*
X163068000Y-114046000D01*
X163322000Y-114046000D01*
X163322000Y-115157250D01*
X163480750Y-115316000D01*
X164337310Y-115316000D01*
X164570699Y-115219327D01*
X164749327Y-115040698D01*
X164846000Y-114807309D01*
X164846000Y-114204750D01*
X164687250Y-114046000D01*
X163322000Y-114046000D01*
X163068000Y-114046000D01*
X161702750Y-114046000D01*
X161544000Y-114204750D01*
X159805144Y-114204750D01*
X161122134Y-112887760D01*
X161603204Y-112887760D01*
X161544000Y-113030691D01*
X161544000Y-113633250D01*
X161702750Y-113792000D01*
X163068000Y-113792000D01*
X163068000Y-113772000D01*
X163322000Y-113772000D01*
X163322000Y-113792000D01*
X164687250Y-113792000D01*
X164846000Y-113633250D01*
X164846000Y-113030691D01*
X164786796Y-112887760D01*
X165735000Y-112887760D01*
X166166575Y-112801914D01*
X166532447Y-112557447D01*
X167197766Y-111892128D01*
X167295419Y-112383062D01*
G36*
X169672000Y-114173000D02*
X169692000Y-114173000D01*
X169692000Y-114427000D01*
X169672000Y-114427000D01*
X169672000Y-114447000D01*
X169418000Y-114447000D01*
X169418000Y-114427000D01*
X169398000Y-114427000D01*
X169398000Y-114173000D01*
X169418000Y-114173000D01*
X169418000Y-114153000D01*
X169672000Y-114153000D01*
X169672000Y-114173000D01*
X169672000Y-114173000D01*
G37*
X169672000Y-114173000D02*
X169692000Y-114173000D01*
X169692000Y-114427000D01*
X169672000Y-114427000D01*
X169672000Y-114447000D01*
X169418000Y-114447000D01*
X169418000Y-114427000D01*
X169398000Y-114427000D01*
X169398000Y-114173000D01*
X169418000Y-114173000D01*
X169418000Y-114153000D01*
X169672000Y-114153000D01*
X169672000Y-114173000D01*
G36*
X120487553Y-106207447D02*
X120853425Y-106451914D01*
X121285000Y-106537760D01*
X125656842Y-106537760D01*
X125665214Y-106553000D01*
X127508000Y-106553000D01*
X127508000Y-106537760D01*
X127762000Y-106537760D01*
X127762000Y-106553000D01*
X129604786Y-106553000D01*
X129622133Y-106521423D01*
X129971575Y-106451914D01*
X130337447Y-106207447D01*
X130459823Y-106085071D01*
X130341484Y-106680000D01*
X130465419Y-107303062D01*
X130818355Y-107831269D01*
X130996049Y-107950000D01*
X130818355Y-108068731D01*
X130801520Y-108093927D01*
X130378425Y-108178086D01*
X130012553Y-108422553D01*
X129865991Y-108569115D01*
X129531645Y-108068731D01*
X129166259Y-107824588D01*
X129439342Y-107604967D01*
X129709231Y-107111857D01*
X129726773Y-107029055D01*
X129604786Y-106807000D01*
X127762000Y-106807000D01*
X127762000Y-106827000D01*
X127508000Y-106827000D01*
X127508000Y-106807000D01*
X125665214Y-106807000D01*
X125543227Y-107029055D01*
X125560769Y-107111857D01*
X125830658Y-107604967D01*
X126103741Y-107824588D01*
X125738355Y-108068731D01*
X125722647Y-108092240D01*
X123799722Y-108092240D01*
X123506564Y-107798570D01*
X122890173Y-107542622D01*
X122222755Y-107542040D01*
X121605918Y-107796912D01*
X121133570Y-108268436D01*
X120877622Y-108884827D01*
X120877040Y-109552245D01*
X121131912Y-110169082D01*
X121134917Y-110172092D01*
X121133570Y-110173436D01*
X120877622Y-110789827D01*
X120877447Y-110990880D01*
X120803088Y-110810918D01*
X120331564Y-110338570D01*
X119715173Y-110082622D01*
X119047755Y-110082040D01*
X118430918Y-110336912D01*
X118135074Y-110632240D01*
X116840000Y-110632240D01*
X116408425Y-110718086D01*
X116042553Y-110962553D01*
X116042551Y-110962556D01*
X114650177Y-112354930D01*
X114768516Y-111760000D01*
X114644581Y-111136938D01*
X114291645Y-110608731D01*
X113926259Y-110364588D01*
X114199342Y-110144967D01*
X114469231Y-109651857D01*
X114486773Y-109569055D01*
X114364786Y-109347000D01*
X112522000Y-109347000D01*
X112522000Y-109367000D01*
X112268000Y-109367000D01*
X112268000Y-109347000D01*
X112248000Y-109347000D01*
X112248000Y-109093000D01*
X112268000Y-109093000D01*
X112268000Y-109073000D01*
X112522000Y-109073000D01*
X112522000Y-109093000D01*
X114364786Y-109093000D01*
X114486773Y-108870945D01*
X114469231Y-108788143D01*
X114199342Y-108295033D01*
X113926259Y-108075412D01*
X114291645Y-107831269D01*
X114307353Y-107807760D01*
X117500278Y-107807760D01*
X117793436Y-108101430D01*
X118409827Y-108357378D01*
X119077245Y-108357960D01*
X119694082Y-108103088D01*
X120166430Y-107631564D01*
X120422378Y-107015173D01*
X120422960Y-106347755D01*
X120278682Y-105998576D01*
X120487553Y-106207447D01*
X120487553Y-106207447D01*
G37*
X120487553Y-106207447D02*
X120853425Y-106451914D01*
X121285000Y-106537760D01*
X125656842Y-106537760D01*
X125665214Y-106553000D01*
X127508000Y-106553000D01*
X127508000Y-106537760D01*
X127762000Y-106537760D01*
X127762000Y-106553000D01*
X129604786Y-106553000D01*
X129622133Y-106521423D01*
X129971575Y-106451914D01*
X130337447Y-106207447D01*
X130459823Y-106085071D01*
X130341484Y-106680000D01*
X130465419Y-107303062D01*
X130818355Y-107831269D01*
X130996049Y-107950000D01*
X130818355Y-108068731D01*
X130801520Y-108093927D01*
X130378425Y-108178086D01*
X130012553Y-108422553D01*
X129865991Y-108569115D01*
X129531645Y-108068731D01*
X129166259Y-107824588D01*
X129439342Y-107604967D01*
X129709231Y-107111857D01*
X129726773Y-107029055D01*
X129604786Y-106807000D01*
X127762000Y-106807000D01*
X127762000Y-106827000D01*
X127508000Y-106827000D01*
X127508000Y-106807000D01*
X125665214Y-106807000D01*
X125543227Y-107029055D01*
X125560769Y-107111857D01*
X125830658Y-107604967D01*
X126103741Y-107824588D01*
X125738355Y-108068731D01*
X125722647Y-108092240D01*
X123799722Y-108092240D01*
X123506564Y-107798570D01*
X122890173Y-107542622D01*
X122222755Y-107542040D01*
X121605918Y-107796912D01*
X121133570Y-108268436D01*
X120877622Y-108884827D01*
X120877040Y-109552245D01*
X121131912Y-110169082D01*
X121134917Y-110172092D01*
X121133570Y-110173436D01*
X120877622Y-110789827D01*
X120877447Y-110990880D01*
X120803088Y-110810918D01*
X120331564Y-110338570D01*
X119715173Y-110082622D01*
X119047755Y-110082040D01*
X118430918Y-110336912D01*
X118135074Y-110632240D01*
X116840000Y-110632240D01*
X116408425Y-110718086D01*
X116042553Y-110962553D01*
X116042551Y-110962556D01*
X114650177Y-112354930D01*
X114768516Y-111760000D01*
X114644581Y-111136938D01*
X114291645Y-110608731D01*
X113926259Y-110364588D01*
X114199342Y-110144967D01*
X114469231Y-109651857D01*
X114486773Y-109569055D01*
X114364786Y-109347000D01*
X112522000Y-109347000D01*
X112522000Y-109367000D01*
X112268000Y-109367000D01*
X112268000Y-109347000D01*
X112248000Y-109347000D01*
X112248000Y-109093000D01*
X112268000Y-109093000D01*
X112268000Y-109073000D01*
X112522000Y-109073000D01*
X112522000Y-109093000D01*
X114364786Y-109093000D01*
X114486773Y-108870945D01*
X114469231Y-108788143D01*
X114199342Y-108295033D01*
X113926259Y-108075412D01*
X114291645Y-107831269D01*
X114307353Y-107807760D01*
X117500278Y-107807760D01*
X117793436Y-108101430D01*
X118409827Y-108357378D01*
X119077245Y-108357960D01*
X119694082Y-108103088D01*
X120166430Y-107631564D01*
X120422378Y-107015173D01*
X120422960Y-106347755D01*
X120278682Y-105998576D01*
X120487553Y-106207447D01*
G36*
X209777622Y-105074827D02*
X209777040Y-105742245D01*
X210031912Y-106359082D01*
X210503436Y-106831430D01*
X211119827Y-107087378D01*
X211702618Y-107087886D01*
X211745419Y-107303062D01*
X211848437Y-107457240D01*
X208260196Y-107457240D01*
X208449231Y-107111857D01*
X208466773Y-107029055D01*
X208344786Y-106807000D01*
X206502000Y-106807000D01*
X206502000Y-106827000D01*
X206248000Y-106827000D01*
X206248000Y-106807000D01*
X204405214Y-106807000D01*
X204363261Y-106883367D01*
X204017654Y-106537760D01*
X204396842Y-106537760D01*
X204405214Y-106553000D01*
X206248000Y-106553000D01*
X206248000Y-106537760D01*
X206502000Y-106537760D01*
X206502000Y-106553000D01*
X208344786Y-106553000D01*
X208466773Y-106330945D01*
X208449231Y-106248143D01*
X208431105Y-106215025D01*
X208442447Y-106207447D01*
X209921455Y-104728438D01*
X209777622Y-105074827D01*
X209777622Y-105074827D01*
G37*
X209777622Y-105074827D02*
X209777040Y-105742245D01*
X210031912Y-106359082D01*
X210503436Y-106831430D01*
X211119827Y-107087378D01*
X211702618Y-107087886D01*
X211745419Y-107303062D01*
X211848437Y-107457240D01*
X208260196Y-107457240D01*
X208449231Y-107111857D01*
X208466773Y-107029055D01*
X208344786Y-106807000D01*
X206502000Y-106807000D01*
X206502000Y-106827000D01*
X206248000Y-106827000D01*
X206248000Y-106807000D01*
X204405214Y-106807000D01*
X204363261Y-106883367D01*
X204017654Y-106537760D01*
X204396842Y-106537760D01*
X204405214Y-106553000D01*
X206248000Y-106553000D01*
X206248000Y-106537760D01*
X206502000Y-106537760D01*
X206502000Y-106553000D01*
X208344786Y-106553000D01*
X208466773Y-106330945D01*
X208449231Y-106248143D01*
X208431105Y-106215025D01*
X208442447Y-106207447D01*
X209921455Y-104728438D01*
X209777622Y-105074827D01*
G36*
X159233570Y-96838436D02*
X158977622Y-97454827D01*
X158977040Y-98122245D01*
X159231912Y-98739082D01*
X159703436Y-99211430D01*
X160319827Y-99467378D01*
X160987245Y-99467960D01*
X161604082Y-99213088D01*
X161899926Y-98917760D01*
X165125278Y-98917760D01*
X165418436Y-99211430D01*
X166034827Y-99467378D01*
X166702245Y-99467960D01*
X167210832Y-99257816D01*
X167295419Y-99683062D01*
X167648355Y-100211269D01*
X167826049Y-100330000D01*
X167648355Y-100448731D01*
X167295419Y-100976938D01*
X167171484Y-101600000D01*
X167191852Y-101702396D01*
X164713586Y-101686384D01*
X164638133Y-101700886D01*
X164561466Y-101695698D01*
X164423959Y-101742051D01*
X164281466Y-101769439D01*
X164217301Y-101811716D01*
X164144490Y-101836260D01*
X164035197Y-101931698D01*
X163914022Y-102011537D01*
X163870919Y-102075151D01*
X163813044Y-102125690D01*
X161172213Y-105552240D01*
X160979949Y-105552240D01*
X161441430Y-105091564D01*
X161697378Y-104475173D01*
X161697960Y-103807755D01*
X161455821Y-103221734D01*
X161589827Y-103277378D01*
X162257245Y-103277960D01*
X162874082Y-103023088D01*
X163346430Y-102551564D01*
X163602378Y-101935173D01*
X163602960Y-101267755D01*
X163348088Y-100650918D01*
X162876564Y-100178570D01*
X162260173Y-99922622D01*
X161592755Y-99922040D01*
X160975918Y-100176912D01*
X160680074Y-100472240D01*
X156217353Y-100472240D01*
X156201645Y-100448731D01*
X156023951Y-100330000D01*
X156201645Y-100211269D01*
X156554581Y-99683062D01*
X156678516Y-99060000D01*
X156554581Y-98436938D01*
X156201645Y-97908731D01*
X156023951Y-97790000D01*
X156201645Y-97671269D01*
X156554581Y-97143062D01*
X156678516Y-96520000D01*
X156650223Y-96377760D01*
X159695051Y-96377760D01*
X159233570Y-96838436D01*
X159233570Y-96838436D01*
G37*
X159233570Y-96838436D02*
X158977622Y-97454827D01*
X158977040Y-98122245D01*
X159231912Y-98739082D01*
X159703436Y-99211430D01*
X160319827Y-99467378D01*
X160987245Y-99467960D01*
X161604082Y-99213088D01*
X161899926Y-98917760D01*
X165125278Y-98917760D01*
X165418436Y-99211430D01*
X166034827Y-99467378D01*
X166702245Y-99467960D01*
X167210832Y-99257816D01*
X167295419Y-99683062D01*
X167648355Y-100211269D01*
X167826049Y-100330000D01*
X167648355Y-100448731D01*
X167295419Y-100976938D01*
X167171484Y-101600000D01*
X167191852Y-101702396D01*
X164713586Y-101686384D01*
X164638133Y-101700886D01*
X164561466Y-101695698D01*
X164423959Y-101742051D01*
X164281466Y-101769439D01*
X164217301Y-101811716D01*
X164144490Y-101836260D01*
X164035197Y-101931698D01*
X163914022Y-102011537D01*
X163870919Y-102075151D01*
X163813044Y-102125690D01*
X161172213Y-105552240D01*
X160979949Y-105552240D01*
X161441430Y-105091564D01*
X161697378Y-104475173D01*
X161697960Y-103807755D01*
X161455821Y-103221734D01*
X161589827Y-103277378D01*
X162257245Y-103277960D01*
X162874082Y-103023088D01*
X163346430Y-102551564D01*
X163602378Y-101935173D01*
X163602960Y-101267755D01*
X163348088Y-100650918D01*
X162876564Y-100178570D01*
X162260173Y-99922622D01*
X161592755Y-99922040D01*
X160975918Y-100176912D01*
X160680074Y-100472240D01*
X156217353Y-100472240D01*
X156201645Y-100448731D01*
X156023951Y-100330000D01*
X156201645Y-100211269D01*
X156554581Y-99683062D01*
X156678516Y-99060000D01*
X156554581Y-98436938D01*
X156201645Y-97908731D01*
X156023951Y-97790000D01*
X156201645Y-97671269D01*
X156554581Y-97143062D01*
X156678516Y-96520000D01*
X156650223Y-96377760D01*
X159695051Y-96377760D01*
X159233570Y-96838436D01*
G36*
X171922553Y-101127447D02*
X172288425Y-101371914D01*
X172720000Y-101457760D01*
X173916842Y-101457760D01*
X173925214Y-101473000D01*
X175768000Y-101473000D01*
X175768000Y-101457760D01*
X176022000Y-101457760D01*
X176022000Y-101473000D01*
X176042000Y-101473000D01*
X176042000Y-101727000D01*
X176022000Y-101727000D01*
X176022000Y-101747000D01*
X175768000Y-101747000D01*
X175768000Y-101727000D01*
X173925214Y-101727000D01*
X173847837Y-101867850D01*
X173793298Y-101830896D01*
X173789661Y-101830148D01*
X173786575Y-101828086D01*
X173574281Y-101785858D01*
X173362287Y-101742264D01*
X171892107Y-101732765D01*
X171918516Y-101600000D01*
X171800177Y-101005071D01*
X171922553Y-101127447D01*
X171922553Y-101127447D01*
G37*
X171922553Y-101127447D02*
X172288425Y-101371914D01*
X172720000Y-101457760D01*
X173916842Y-101457760D01*
X173925214Y-101473000D01*
X175768000Y-101473000D01*
X175768000Y-101457760D01*
X176022000Y-101457760D01*
X176022000Y-101473000D01*
X176042000Y-101473000D01*
X176042000Y-101727000D01*
X176022000Y-101727000D01*
X176022000Y-101747000D01*
X175768000Y-101747000D01*
X175768000Y-101727000D01*
X173925214Y-101727000D01*
X173847837Y-101867850D01*
X173793298Y-101830896D01*
X173789661Y-101830148D01*
X173786575Y-101828086D01*
X173574281Y-101785858D01*
X173362287Y-101742264D01*
X171892107Y-101732765D01*
X171918516Y-101600000D01*
X171800177Y-101005071D01*
X171922553Y-101127447D01*
G36*
X181710658Y-99984967D02*
X181983741Y-100204588D01*
X181618355Y-100448731D01*
X181265419Y-100976938D01*
X181141484Y-101600000D01*
X181169777Y-101742240D01*
X179394949Y-101742240D01*
X179856430Y-101281564D01*
X180112378Y-100665173D01*
X180112794Y-100187760D01*
X180340000Y-100187760D01*
X180771575Y-100101914D01*
X181137447Y-99857447D01*
X181462795Y-99532099D01*
X181710658Y-99984967D01*
X181710658Y-99984967D01*
G37*
X181710658Y-99984967D02*
X181983741Y-100204588D01*
X181618355Y-100448731D01*
X181265419Y-100976938D01*
X181141484Y-101600000D01*
X181169777Y-101742240D01*
X179394949Y-101742240D01*
X179856430Y-101281564D01*
X180112378Y-100665173D01*
X180112794Y-100187760D01*
X180340000Y-100187760D01*
X180771575Y-100101914D01*
X181137447Y-99857447D01*
X181462795Y-99532099D01*
X181710658Y-99984967D01*
G36*
X183642000Y-98933000D02*
X183662000Y-98933000D01*
X183662000Y-99187000D01*
X183642000Y-99187000D01*
X183642000Y-99207000D01*
X183388000Y-99207000D01*
X183388000Y-99187000D01*
X183368000Y-99187000D01*
X183368000Y-98933000D01*
X183388000Y-98933000D01*
X183388000Y-98917760D01*
X183642000Y-98917760D01*
X183642000Y-98933000D01*
X183642000Y-98933000D01*
G37*
X183642000Y-98933000D02*
X183662000Y-98933000D01*
X183662000Y-99187000D01*
X183642000Y-99187000D01*
X183642000Y-99207000D01*
X183388000Y-99207000D01*
X183388000Y-99187000D01*
X183368000Y-99187000D01*
X183368000Y-98933000D01*
X183388000Y-98933000D01*
X183388000Y-98917760D01*
X183642000Y-98917760D01*
X183642000Y-98933000D01*
G36*
X154432000Y-93853000D02*
X156274786Y-93853000D01*
X156283158Y-93837760D01*
X158917867Y-93837760D01*
X159202347Y-94122240D01*
X156283158Y-94122240D01*
X156274786Y-94107000D01*
X154432000Y-94107000D01*
X154432000Y-94122240D01*
X154178000Y-94122240D01*
X154178000Y-94107000D01*
X154158000Y-94107000D01*
X154158000Y-93853000D01*
X154178000Y-93853000D01*
X154178000Y-93833000D01*
X154432000Y-93833000D01*
X154432000Y-93853000D01*
X154432000Y-93853000D01*
G37*
X154432000Y-93853000D02*
X156274786Y-93853000D01*
X156283158Y-93837760D01*
X158917867Y-93837760D01*
X159202347Y-94122240D01*
X156283158Y-94122240D01*
X156274786Y-94107000D01*
X154432000Y-94107000D01*
X154432000Y-94122240D01*
X154178000Y-94122240D01*
X154178000Y-94107000D01*
X154158000Y-94107000D01*
X154158000Y-93853000D01*
X154178000Y-93853000D01*
X154178000Y-93833000D01*
X154432000Y-93833000D01*
X154432000Y-93853000D01*
M02*
