M48
;DRILL file {Pcbnew (2012-apr-16-27)-stable} date Ned 20 Lis 2013 22:46:28
;FORMAT={2:4/ absolute / inch / suppress leading zeros}
FMAT,2
INCH,TZ
T1C0.032
T2C0.032
T3C0.039
T4C0.138
%
G90
G05
M72
T1
X36500Y-26250
X36500Y-35000
X37500Y-26250
X37500Y-34000
X38500Y-32000
X38500Y-46000
X39150Y-39000
X39150Y-48000
X39250Y-27000
X39250Y-35000
X39900Y-40000
X39900Y-47000
X40500Y-27750
X40500Y-34000
X40650Y-41000
X40650Y-48000
X41250Y-28500
X41250Y-35000
X41400Y-42000
X41400Y-46800
X42000Y-29250
X42000Y-34000
X42000Y-43000
X42000Y-48250
X42600Y-44250
X42600Y-47400
X42750Y-30000
X42750Y-35000
X43250Y-43500
X43250Y-46500
X45800Y-31250
X45800Y-34000
X46000Y-43000
X46000Y-54000
X46750Y-42000
X47000Y-44000
X47000Y-52000
X48250Y-43000
X48250Y-43750
X48250Y-50500
X48250Y-51250
X48250Y-55000
X54000Y-41000
X54000Y-49500
X54750Y-31000
X54750Y-33000
X59500Y-33000
X59500Y-36500
X62250Y-32750
X62250Y-35250
X62250Y-37000
X62250Y-38250
X62250Y-39000
X62250Y-53000
X63000Y-41000
X63000Y-48000
X63000Y-49000
X63000Y-51000
X63250Y-36000
X63250Y-38500
X63750Y-40000
X63750Y-47500
X64250Y-31000
X64250Y-42750
X65000Y-33750
X65000Y-36500
X65000Y-39500
X65000Y-44750
X65250Y-46250
X65250Y-49500
X65500Y-38500
X65500Y-45500
X66000Y-50000
X66000Y-55000
X67500Y-50500
X67750Y-32500
X67750Y-34000
X68000Y-42000
X68000Y-44500
X68250Y-48000
X70250Y-39500
X70250Y-42250
X70250Y-46000
X70250Y-53000
X71250Y-41500
X71250Y-43000
X71250Y-49000
X71250Y-55000
X73250Y-48250
X73250Y-52750
X73500Y-39250
X73500Y-41000
X73700Y-45200
X73700Y-47100
X73750Y-31000
X73750Y-35750
X73900Y-47700
X73900Y-49650
X74400Y-43400
X74400Y-52000
X74750Y-34000
X74750Y-37000
X75750Y-34750
X75750Y-38750
X76000Y-39750
X76000Y-48500
X76500Y-44500
X76750Y-35750
X76750Y-39750
X76750Y-50000
X77250Y-45650
X77250Y-53500
X78000Y-38000
X78000Y-43750
X78750Y-39000
X78750Y-45000
X79500Y-39750
X79500Y-46000
X79500Y-46850
X79500Y-52500
X80250Y-41000
X80250Y-47250
X80250Y-50500
X82250Y-42000
X82250Y-49000
X83250Y-33000
X83250Y-38500
X83250Y-41500
X83250Y-47500
X85550Y-43000
X85600Y-34000
X85600Y-35000
X85600Y-36000
X85600Y-36950
X85600Y-38000
X85600Y-38950
X85600Y-40000
X87000Y-40000
X87750Y-39000
X88500Y-38000
X88500Y-43000
X89250Y-37000
X90000Y-36000
X90750Y-35000
X91500Y-34000
T2
X44250Y-33000
X44250Y-34000
X44250Y-35000
X44250Y-36000
X44250Y-37000
X44250Y-38000
X44250Y-39000
X44250Y-40000
X44250Y-41000
X44250Y-42000
X44250Y-43000
X44250Y-44000
X44250Y-45000
X44250Y-46000
X44250Y-47000
X44250Y-48000
X44250Y-49000
X44250Y-50000
X44250Y-51000
X44250Y-52000
X50250Y-33000
X50250Y-34000
X50250Y-35000
X50250Y-36000
X50250Y-37000
X50250Y-38000
X50250Y-39000
X50250Y-40000
X50250Y-41000
X50250Y-42000
X50250Y-43000
X50250Y-44000
X50250Y-45000
X50250Y-46000
X50250Y-47000
X50250Y-48000
X50250Y-49000
X50250Y-50000
X50250Y-51000
X50250Y-52000
X52250Y-33000
X52250Y-34000
X52250Y-35000
X52250Y-36000
X52250Y-37000
X52250Y-38000
X52250Y-39000
X52250Y-40000
X52250Y-41000
X52250Y-42000
X52250Y-43000
X52250Y-44000
X52250Y-45000
X52250Y-46000
X52250Y-47000
X52250Y-48000
X52250Y-49000
X52250Y-50000
X52250Y-51000
X52250Y-52000
X58250Y-33000
X58250Y-34000
X58250Y-35000
X58250Y-36000
X58250Y-37000
X58250Y-38000
X58250Y-39000
X58250Y-40000
X58250Y-41000
X58250Y-42000
X58250Y-43000
X58250Y-44000
X58250Y-45000
X58250Y-46000
X58250Y-47000
X58250Y-48000
X58250Y-49000
X58250Y-50000
X58250Y-51000
X58250Y-52000
X60750Y-33000
X60750Y-34000
X60750Y-35000
X60750Y-36000
X60750Y-37000
X60750Y-38000
X60750Y-39000
X60750Y-40000
X60750Y-41000
X60750Y-42000
X60750Y-43000
X60750Y-44000
X60750Y-45000
X60750Y-46000
X60750Y-47000
X60750Y-48000
X61250Y-50000
X61250Y-51000
X61250Y-52000
X61250Y-53000
X64250Y-50000
X64250Y-51000
X64250Y-52000
X64250Y-53000
X66750Y-33000
X66750Y-34000
X66750Y-35000
X66750Y-36000
X66750Y-37000
X66750Y-38000
X66750Y-39000
X66750Y-40000
X66750Y-41000
X66750Y-42000
X66750Y-43000
X66750Y-44000
X66750Y-45000
X66750Y-46000
X66750Y-47000
X66750Y-48000
X69250Y-33000
X69250Y-34000
X69250Y-35000
X69250Y-36000
X69250Y-37000
X69250Y-38000
X69250Y-39000
X69250Y-40000
X69250Y-41000
X69250Y-42000
X69250Y-43000
X69250Y-44000
X69250Y-45000
X69250Y-46000
X69250Y-49000
X69250Y-50000
X69250Y-51000
X69250Y-52000
X72250Y-33000
X72250Y-34000
X72250Y-35000
X72250Y-36000
X72250Y-37000
X72250Y-38000
X72250Y-39000
X72250Y-40000
X72250Y-41000
X72250Y-42000
X72250Y-43000
X72250Y-44000
X72250Y-45000
X72250Y-46000
X72250Y-49000
X72250Y-50000
X72250Y-51000
X72250Y-52000
X75250Y-47500
X75250Y-48500
X75250Y-49500
X75250Y-50500
X75250Y-51500
X75250Y-52500
X75250Y-53500
X78250Y-47500
X78250Y-48500
X78250Y-49500
X78250Y-50500
X78250Y-51500
X78250Y-52500
X78250Y-53500
X81250Y-33000
X81250Y-34000
X81250Y-35000
X81250Y-36000
X81250Y-37000
X81250Y-38000
X81250Y-39000
X81250Y-40000
X81250Y-41000
X81250Y-42000
X81250Y-44000
X81250Y-45000
X81250Y-46000
X81250Y-47000
X81250Y-48000
X81250Y-49000
X81250Y-50000
X81250Y-51000
X81250Y-52000
X81250Y-53000
X84250Y-33000
X84250Y-34000
X84250Y-35000
X84250Y-36000
X84250Y-37000
X84250Y-38000
X84250Y-39000
X84250Y-40000
X84250Y-41000
X84250Y-42000
X84250Y-44000
X84250Y-45000
X84250Y-46000
X84250Y-47000
X84250Y-48000
X84250Y-49000
X84250Y-50000
X84250Y-51000
X84250Y-52000
X84250Y-53000
T3
X35750Y-39000
X35750Y-40000
X35750Y-41000
X35750Y-42000
X35750Y-43000
X35750Y-44000
X35750Y-45000
X35750Y-46000
X35750Y-47000
X35750Y-48000
X36750Y-39000
X36750Y-40000
X36750Y-41000
X36750Y-42000
X36750Y-43000
X36750Y-44000
X36750Y-45000
X36750Y-46000
X36750Y-47000
X36750Y-48000
T4
X32000Y-26750
X32000Y-54000
X90750Y-26750
X90750Y-54000
T0
M30
