G04 (created by PCBNEW-RS274X (2012-apr-16-27)-stable) date Ned 20 Lis 2013 22:46:23*
G01*
G70*
G90*
%MOIN*%
G04 Gerber Fmt 3.4, Leading zero omitted, Abs format*
%FSLAX34Y34*%
G04 APERTURE LIST*
%ADD10C,0.006000*%
%ADD11C,0.015000*%
%ADD12O,0.138100X0.083000*%
%ADD13O,0.138100X0.079100*%
%ADD14R,0.138100X0.083000*%
%ADD15C,0.180000*%
G04 APERTURE END LIST*
G54D10*
G54D11*
X30000Y-24750D02*
X30000Y-56000D01*
X92750Y-24750D02*
X30000Y-24750D01*
X92750Y-56000D02*
X92750Y-24750D01*
X30000Y-56000D02*
X92750Y-56000D01*
G54D12*
X69250Y-34000D03*
X69250Y-35000D03*
X69250Y-36000D03*
X69250Y-37000D03*
X69250Y-38000D03*
X69250Y-39000D03*
X69250Y-40000D03*
X69250Y-41000D03*
X69250Y-42000D03*
X69250Y-43000D03*
X69250Y-44000D03*
X69250Y-45000D03*
X69250Y-46000D03*
X69250Y-33000D03*
X72250Y-46000D03*
X72250Y-45000D03*
X72250Y-44000D03*
X72250Y-43000D03*
X72250Y-42000D03*
X72250Y-41000D03*
X72250Y-40000D03*
X72250Y-39000D03*
X72250Y-38000D03*
X72250Y-37000D03*
X72250Y-36000D03*
X72250Y-35000D03*
X72250Y-34000D03*
X72250Y-33000D03*
X37006Y-48000D03*
X35494Y-48000D03*
X37006Y-47000D03*
X35494Y-47000D03*
X37006Y-46000D03*
X35494Y-46000D03*
X37006Y-45000D03*
X35494Y-45000D03*
X37006Y-44000D03*
X35494Y-44000D03*
X37006Y-43000D03*
X35494Y-43000D03*
X37006Y-42000D03*
X35494Y-42000D03*
X37006Y-41000D03*
X35494Y-41000D03*
X37006Y-40000D03*
X35494Y-40000D03*
X37006Y-39000D03*
X35494Y-39000D03*
X44250Y-33000D03*
X44250Y-34000D03*
X44250Y-35000D03*
X44250Y-36000D03*
X44250Y-37000D03*
X44250Y-38000D03*
X44250Y-39000D03*
X44250Y-40000D03*
X44250Y-41000D03*
X44250Y-42000D03*
X44250Y-43000D03*
X44250Y-44000D03*
X44250Y-45000D03*
X44250Y-46000D03*
X44250Y-47000D03*
X44250Y-48000D03*
X44250Y-49000D03*
X44250Y-50000D03*
X44250Y-51000D03*
X44250Y-52000D03*
X50250Y-52000D03*
X50250Y-51000D03*
X50250Y-50000D03*
X50250Y-49000D03*
X50250Y-48000D03*
X50250Y-47000D03*
X50250Y-46000D03*
X50250Y-45000D03*
X50250Y-44000D03*
X50250Y-43000D03*
X50250Y-42000D03*
X50250Y-41000D03*
X50250Y-40000D03*
X50250Y-39000D03*
X50250Y-38000D03*
X50250Y-37000D03*
X50250Y-36000D03*
X50250Y-35000D03*
X50250Y-34000D03*
X50250Y-33000D03*
X52250Y-33000D03*
X52250Y-34000D03*
X52250Y-35000D03*
X52250Y-36000D03*
X52250Y-37000D03*
X52250Y-38000D03*
X52250Y-39000D03*
X52250Y-40000D03*
X52250Y-41000D03*
X52250Y-42000D03*
X52250Y-43000D03*
X52250Y-44000D03*
X52250Y-45000D03*
X52250Y-46000D03*
X52250Y-47000D03*
X52250Y-48000D03*
X52250Y-49000D03*
X52250Y-50000D03*
X52250Y-51000D03*
X52250Y-52000D03*
X58250Y-52000D03*
X58250Y-51000D03*
X58250Y-50000D03*
X58250Y-49000D03*
X58250Y-48000D03*
X58250Y-47000D03*
X58250Y-46000D03*
X58250Y-45000D03*
X58250Y-44000D03*
X58250Y-43000D03*
X58250Y-42000D03*
X58250Y-41000D03*
X58250Y-40000D03*
X58250Y-39000D03*
X58250Y-38000D03*
X58250Y-37000D03*
X58250Y-36000D03*
X58250Y-35000D03*
X58250Y-34000D03*
X58250Y-33000D03*
X81250Y-33000D03*
X81250Y-34000D03*
X81250Y-35000D03*
X81250Y-36000D03*
X81250Y-37000D03*
X81250Y-38000D03*
X81250Y-39000D03*
X81250Y-40000D03*
X81250Y-41000D03*
X81250Y-42000D03*
X84250Y-42000D03*
X84250Y-41000D03*
X84250Y-40000D03*
X84250Y-39000D03*
X84250Y-38000D03*
X84250Y-37000D03*
X84250Y-36000D03*
X84250Y-35000D03*
X84250Y-34000D03*
X84250Y-33000D03*
X81250Y-44000D03*
X81250Y-45000D03*
X81250Y-46000D03*
X81250Y-47000D03*
X81250Y-48000D03*
X81250Y-49000D03*
X81250Y-50000D03*
X81250Y-51000D03*
X81250Y-52000D03*
X81250Y-53000D03*
X84250Y-53000D03*
X84250Y-52000D03*
X84250Y-51000D03*
X84250Y-50000D03*
X84250Y-49000D03*
X84250Y-48000D03*
X84250Y-47000D03*
X84250Y-46000D03*
X84250Y-45000D03*
X84250Y-44000D03*
X69250Y-49000D03*
X69250Y-50000D03*
X69250Y-51000D03*
X69250Y-52000D03*
X72250Y-52000D03*
X72250Y-51000D03*
X72250Y-50000D03*
X72250Y-49000D03*
X61250Y-50000D03*
X61250Y-51000D03*
X61250Y-52000D03*
X61250Y-53000D03*
X64250Y-53000D03*
X64250Y-52000D03*
X64250Y-51000D03*
X64250Y-50000D03*
X60750Y-33000D03*
X60750Y-34000D03*
X60750Y-35000D03*
X60750Y-36000D03*
X60750Y-37000D03*
X60750Y-38000D03*
X60750Y-39000D03*
X60750Y-40000D03*
X60750Y-41000D03*
X60750Y-42000D03*
X60750Y-43000D03*
X60750Y-44000D03*
X60750Y-45000D03*
X60750Y-46000D03*
X60750Y-47000D03*
X60750Y-48000D03*
X66750Y-48000D03*
X66750Y-47000D03*
X66750Y-46000D03*
X66750Y-45000D03*
X66750Y-44000D03*
G54D13*
X66750Y-43000D03*
G54D12*
X66750Y-42000D03*
X66750Y-41000D03*
X66750Y-40000D03*
X66750Y-39000D03*
X66750Y-38000D03*
X66750Y-37000D03*
G54D13*
X66750Y-36000D03*
G54D12*
X66750Y-35000D03*
X66750Y-34000D03*
X66750Y-33000D03*
G54D14*
X75250Y-47500D03*
G54D12*
X75250Y-48500D03*
X75250Y-49500D03*
X75250Y-50500D03*
X75250Y-51500D03*
X75250Y-52500D03*
X75250Y-53500D03*
X78250Y-53500D03*
X78250Y-52500D03*
X78250Y-51500D03*
X78250Y-50500D03*
X78250Y-49500D03*
X78250Y-48500D03*
X78250Y-47500D03*
G54D15*
X32000Y-26750D03*
X90750Y-26750D03*
X90750Y-54000D03*
X32000Y-54000D03*
M02*
