%FSLAX45Y45*%
G04 Gerber Fmt 4.5, Leading zero omitted, Abs format (unit mm)*
G04 Created by KiCad (PCBNEW 4.0.5+dfsg1-4) date Wed May 24 14:08:00 2017*
%MOMM*%
%LPD*%
G01*
G04 APERTURE LIST*
%ADD10C,0.127000*%
%ADD11C,0.381000*%
%ADD12C,0.200000*%
%ADD13C,0.300000*%
G04 APERTURE END LIST*
D10*
D11*
X7620000Y-6286500D02*
X7620000Y-14224000D01*
X23558500Y-6286500D02*
X7620000Y-6286500D01*
X23558500Y-14224000D02*
X23558500Y-6286500D01*
X7620000Y-14224000D02*
X23558500Y-14224000D01*
D12*
X9230995Y-6627495D02*
X9311005Y-6707505D01*
X9311005Y-6627495D02*
X9230995Y-6707505D01*
X9230995Y-8849995D02*
X9311005Y-8930005D01*
X9311005Y-8849995D02*
X9230995Y-8930005D01*
X9484995Y-6627495D02*
X9565005Y-6707505D01*
X9565005Y-6627495D02*
X9484995Y-6707505D01*
X9484995Y-8595995D02*
X9565005Y-8676005D01*
X9565005Y-8595995D02*
X9484995Y-8676005D01*
X9738995Y-8087995D02*
X9819005Y-8168005D01*
X9819005Y-8087995D02*
X9738995Y-8168005D01*
X9738995Y-11643995D02*
X9819005Y-11724005D01*
X9819005Y-11643995D02*
X9738995Y-11724005D01*
X9904095Y-9865995D02*
X9984105Y-9946005D01*
X9984105Y-9865995D02*
X9904095Y-9946005D01*
X9904095Y-12151995D02*
X9984105Y-12232005D01*
X9984105Y-12151995D02*
X9904095Y-12232005D01*
X9929495Y-6817995D02*
X10009505Y-6898005D01*
X10009505Y-6817995D02*
X9929495Y-6898005D01*
X9929495Y-8849995D02*
X10009505Y-8930005D01*
X10009505Y-8849995D02*
X9929495Y-8930005D01*
X10094595Y-10119995D02*
X10174605Y-10200005D01*
X10174605Y-10119995D02*
X10094595Y-10200005D01*
X10094595Y-11897995D02*
X10174605Y-11978005D01*
X10174605Y-11897995D02*
X10094595Y-11978005D01*
X10246995Y-7008495D02*
X10327005Y-7088505D01*
X10327005Y-7008495D02*
X10246995Y-7088505D01*
X10246995Y-8595995D02*
X10327005Y-8676005D01*
X10327005Y-8595995D02*
X10246995Y-8676005D01*
X10285095Y-10373995D02*
X10365105Y-10454005D01*
X10365105Y-10373995D02*
X10285095Y-10454005D01*
X10285095Y-12151995D02*
X10365105Y-12232005D01*
X10365105Y-12151995D02*
X10285095Y-12232005D01*
X10437495Y-7198995D02*
X10517505Y-7279005D01*
X10517505Y-7198995D02*
X10437495Y-7279005D01*
X10437495Y-8849995D02*
X10517505Y-8930005D01*
X10517505Y-8849995D02*
X10437495Y-8930005D01*
X10475595Y-10627995D02*
X10555605Y-10708005D01*
X10555605Y-10627995D02*
X10475595Y-10708005D01*
X10475595Y-11847195D02*
X10555605Y-11927205D01*
X10555605Y-11847195D02*
X10475595Y-11927205D01*
X10627995Y-7389495D02*
X10708005Y-7469505D01*
X10708005Y-7389495D02*
X10627995Y-7469505D01*
X10627995Y-8595995D02*
X10708005Y-8676005D01*
X10708005Y-8595995D02*
X10627995Y-8676005D01*
X10627995Y-10881995D02*
X10708005Y-10962005D01*
X10708005Y-10881995D02*
X10627995Y-10962005D01*
X10627995Y-12215495D02*
X10708005Y-12295505D01*
X10708005Y-12215495D02*
X10627995Y-12295505D01*
X10780395Y-11199495D02*
X10860405Y-11279505D01*
X10860405Y-11199495D02*
X10780395Y-11279505D01*
X10780395Y-11999595D02*
X10860405Y-12079605D01*
X10860405Y-11999595D02*
X10780395Y-12079605D01*
X10818495Y-7579995D02*
X10898505Y-7660005D01*
X10898505Y-7579995D02*
X10818495Y-7660005D01*
X10818495Y-8849995D02*
X10898505Y-8930005D01*
X10898505Y-8849995D02*
X10818495Y-8930005D01*
X10945495Y-11008995D02*
X11025505Y-11089005D01*
X11025505Y-11008995D02*
X10945495Y-11089005D01*
X10945495Y-11770995D02*
X11025505Y-11851005D01*
X11025505Y-11770995D02*
X10945495Y-11851005D01*
X11593195Y-7897495D02*
X11673205Y-7977505D01*
X11673205Y-7897495D02*
X11593195Y-7977505D01*
X11593195Y-8595995D02*
X11673205Y-8676005D01*
X11673205Y-8595995D02*
X11593195Y-8676005D01*
X11643995Y-10881995D02*
X11724005Y-10962005D01*
X11724005Y-10881995D02*
X11643995Y-10962005D01*
X11643995Y-13675995D02*
X11724005Y-13756005D01*
X11724005Y-13675995D02*
X11643995Y-13756005D01*
X11834495Y-10627995D02*
X11914505Y-10708005D01*
X11914505Y-10627995D02*
X11834495Y-10708005D01*
X11897995Y-11135995D02*
X11978005Y-11216005D01*
X11978005Y-11135995D02*
X11897995Y-11216005D01*
X11897995Y-13167995D02*
X11978005Y-13248005D01*
X11978005Y-13167995D02*
X11897995Y-13248005D01*
X12215495Y-10881995D02*
X12295505Y-10962005D01*
X12295505Y-10881995D02*
X12215495Y-10962005D01*
X12215495Y-11072495D02*
X12295505Y-11152505D01*
X12295505Y-11072495D02*
X12215495Y-11152505D01*
X12215495Y-12786995D02*
X12295505Y-12867005D01*
X12295505Y-12786995D02*
X12215495Y-12867005D01*
X12215495Y-12977495D02*
X12295505Y-13057505D01*
X12295505Y-12977495D02*
X12215495Y-13057505D01*
X12215495Y-13929995D02*
X12295505Y-14010005D01*
X12295505Y-13929995D02*
X12215495Y-14010005D01*
X13675995Y-10373995D02*
X13756005Y-10454005D01*
X13756005Y-10373995D02*
X13675995Y-10454005D01*
X13675995Y-12532995D02*
X13756005Y-12613005D01*
X13756005Y-12532995D02*
X13675995Y-12613005D01*
X13866495Y-7833995D02*
X13946505Y-7914005D01*
X13946505Y-7833995D02*
X13866495Y-7914005D01*
X13866495Y-8341995D02*
X13946505Y-8422005D01*
X13946505Y-8341995D02*
X13866495Y-8422005D01*
X15072995Y-8341995D02*
X15153005Y-8422005D01*
X15153005Y-8341995D02*
X15072995Y-8422005D01*
X15072995Y-9230995D02*
X15153005Y-9311005D01*
X15153005Y-9230995D02*
X15072995Y-9311005D01*
X15771495Y-8278495D02*
X15851505Y-8358505D01*
X15851505Y-8278495D02*
X15771495Y-8358505D01*
X15771495Y-8913495D02*
X15851505Y-8993505D01*
X15851505Y-8913495D02*
X15771495Y-8993505D01*
X15771495Y-9357995D02*
X15851505Y-9438005D01*
X15851505Y-9357995D02*
X15771495Y-9438005D01*
X15771495Y-9675495D02*
X15851505Y-9755505D01*
X15851505Y-9675495D02*
X15771495Y-9755505D01*
X15771495Y-9865995D02*
X15851505Y-9946005D01*
X15851505Y-9865995D02*
X15771495Y-9946005D01*
X15771495Y-13421995D02*
X15851505Y-13502005D01*
X15851505Y-13421995D02*
X15771495Y-13502005D01*
X15961995Y-10373995D02*
X16042005Y-10454005D01*
X16042005Y-10373995D02*
X15961995Y-10454005D01*
X15961995Y-12151995D02*
X16042005Y-12232005D01*
X16042005Y-12151995D02*
X15961995Y-12232005D01*
X15961995Y-12405995D02*
X16042005Y-12486005D01*
X16042005Y-12405995D02*
X15961995Y-12486005D01*
X15961995Y-12913995D02*
X16042005Y-12994005D01*
X16042005Y-12913995D02*
X15961995Y-12994005D01*
X16025495Y-9103995D02*
X16105505Y-9184005D01*
X16105505Y-9103995D02*
X16025495Y-9184005D01*
X16025495Y-9738995D02*
X16105505Y-9819005D01*
X16105505Y-9738995D02*
X16025495Y-9819005D01*
X16152495Y-10119995D02*
X16232505Y-10200005D01*
X16232505Y-10119995D02*
X16152495Y-10200005D01*
X16152495Y-12024995D02*
X16232505Y-12105005D01*
X16232505Y-12024995D02*
X16152495Y-12105005D01*
X16279495Y-7833995D02*
X16359505Y-7914005D01*
X16359505Y-7833995D02*
X16279495Y-7914005D01*
X16279495Y-10818495D02*
X16359505Y-10898505D01*
X16359505Y-10818495D02*
X16279495Y-10898505D01*
X16469995Y-8532495D02*
X16550005Y-8612505D01*
X16550005Y-8532495D02*
X16469995Y-8612505D01*
X16469995Y-9230995D02*
X16550005Y-9311005D01*
X16550005Y-9230995D02*
X16469995Y-9311005D01*
X16469995Y-9992995D02*
X16550005Y-10073005D01*
X16550005Y-9992995D02*
X16469995Y-10073005D01*
X16469995Y-11326495D02*
X16550005Y-11406505D01*
X16550005Y-11326495D02*
X16469995Y-11406505D01*
X16533495Y-11707495D02*
X16613505Y-11787505D01*
X16613505Y-11707495D02*
X16533495Y-11787505D01*
X16533495Y-12532995D02*
X16613505Y-12613005D01*
X16613505Y-12532995D02*
X16533495Y-12613005D01*
X16596995Y-9738995D02*
X16677005Y-9819005D01*
X16677005Y-9738995D02*
X16596995Y-9819005D01*
X16596995Y-11516995D02*
X16677005Y-11597005D01*
X16677005Y-11516995D02*
X16596995Y-11597005D01*
X16723995Y-12659995D02*
X16804005Y-12740005D01*
X16804005Y-12659995D02*
X16723995Y-12740005D01*
X16723995Y-13929995D02*
X16804005Y-14010005D01*
X16804005Y-13929995D02*
X16723995Y-14010005D01*
X17104995Y-12786995D02*
X17185005Y-12867005D01*
X17185005Y-12786995D02*
X17104995Y-12867005D01*
X17168495Y-8214995D02*
X17248505Y-8295005D01*
X17248505Y-8214995D02*
X17168495Y-8295005D01*
X17168495Y-8595995D02*
X17248505Y-8676005D01*
X17248505Y-8595995D02*
X17168495Y-8676005D01*
X17231995Y-10627995D02*
X17312005Y-10708005D01*
X17312005Y-10627995D02*
X17231995Y-10708005D01*
X17231995Y-11262995D02*
X17312005Y-11343005D01*
X17312005Y-11262995D02*
X17231995Y-11343005D01*
X17295495Y-12151995D02*
X17375505Y-12232005D01*
X17375505Y-12151995D02*
X17295495Y-12232005D01*
X17803495Y-9992995D02*
X17883505Y-10073005D01*
X17883505Y-9992995D02*
X17803495Y-10073005D01*
X17803495Y-10691495D02*
X17883505Y-10771505D01*
X17883505Y-10691495D02*
X17803495Y-10771505D01*
X17803495Y-11643995D02*
X17883505Y-11724005D01*
X17883505Y-11643995D02*
X17803495Y-11724005D01*
X17803495Y-13421995D02*
X17883505Y-13502005D01*
X17883505Y-13421995D02*
X17803495Y-13502005D01*
X18057495Y-10500995D02*
X18137505Y-10581005D01*
X18137505Y-10500995D02*
X18057495Y-10581005D01*
X18057495Y-10881995D02*
X18137505Y-10962005D01*
X18137505Y-10881995D02*
X18057495Y-10962005D01*
X18057495Y-12405995D02*
X18137505Y-12486005D01*
X18137505Y-12405995D02*
X18057495Y-12486005D01*
X18057495Y-13929995D02*
X18137505Y-14010005D01*
X18137505Y-13929995D02*
X18057495Y-14010005D01*
X18565495Y-12215495D02*
X18645505Y-12295505D01*
X18645505Y-12215495D02*
X18565495Y-12295505D01*
X18565495Y-13358495D02*
X18645505Y-13438505D01*
X18645505Y-13358495D02*
X18565495Y-13438505D01*
X18628995Y-9929495D02*
X18709005Y-10009505D01*
X18709005Y-9929495D02*
X18628995Y-10009505D01*
X18628995Y-10373995D02*
X18709005Y-10454005D01*
X18709005Y-10373995D02*
X18628995Y-10454005D01*
X18679795Y-11440795D02*
X18759805Y-11520805D01*
X18759805Y-11440795D02*
X18679795Y-11520805D01*
X18679795Y-11923395D02*
X18759805Y-12003405D01*
X18759805Y-11923395D02*
X18679795Y-12003405D01*
X18692495Y-7833995D02*
X18772505Y-7914005D01*
X18772505Y-7833995D02*
X18692495Y-7914005D01*
X18692495Y-9040495D02*
X18772505Y-9120505D01*
X18772505Y-9040495D02*
X18692495Y-9120505D01*
X18730595Y-12075795D02*
X18810605Y-12155805D01*
X18810605Y-12075795D02*
X18730595Y-12155805D01*
X18730595Y-12571095D02*
X18810605Y-12651105D01*
X18810605Y-12571095D02*
X18730595Y-12651105D01*
X18857595Y-10983595D02*
X18937605Y-11063605D01*
X18937605Y-10983595D02*
X18857595Y-11063605D01*
X18857595Y-13167995D02*
X18937605Y-13248005D01*
X18937605Y-13167995D02*
X18857595Y-13248005D01*
X18946495Y-8595995D02*
X19026505Y-8676005D01*
X19026505Y-8595995D02*
X18946495Y-8676005D01*
X18946495Y-9357995D02*
X19026505Y-9438005D01*
X19026505Y-9357995D02*
X18946495Y-9438005D01*
X19200495Y-8786495D02*
X19280505Y-8866505D01*
X19280505Y-8786495D02*
X19200495Y-8866505D01*
X19200495Y-9802495D02*
X19280505Y-9882505D01*
X19280505Y-9802495D02*
X19200495Y-9882505D01*
X19263995Y-10056495D02*
X19344005Y-10136505D01*
X19344005Y-10056495D02*
X19263995Y-10136505D01*
X19263995Y-12278995D02*
X19344005Y-12359005D01*
X19344005Y-12278995D02*
X19263995Y-12359005D01*
X19390995Y-11262995D02*
X19471005Y-11343005D01*
X19471005Y-11262995D02*
X19390995Y-11343005D01*
X19454495Y-9040495D02*
X19534505Y-9120505D01*
X19534505Y-9040495D02*
X19454495Y-9120505D01*
X19454495Y-10056495D02*
X19534505Y-10136505D01*
X19534505Y-10056495D02*
X19454495Y-10136505D01*
X19454495Y-12659995D02*
X19534505Y-12740005D01*
X19534505Y-12659995D02*
X19454495Y-12740005D01*
X19581495Y-11555095D02*
X19661505Y-11635105D01*
X19661505Y-11555095D02*
X19581495Y-11635105D01*
X19581495Y-13548995D02*
X19661505Y-13629005D01*
X19661505Y-13548995D02*
X19581495Y-13629005D01*
X19771995Y-9611995D02*
X19852005Y-9692005D01*
X19852005Y-9611995D02*
X19771995Y-9692005D01*
X19771995Y-11072495D02*
X19852005Y-11152505D01*
X19852005Y-11072495D02*
X19771995Y-11152505D01*
X19962495Y-9865995D02*
X20042505Y-9946005D01*
X20042505Y-9865995D02*
X19962495Y-9946005D01*
X19962495Y-11389995D02*
X20042505Y-11470005D01*
X20042505Y-11389995D02*
X19962495Y-11470005D01*
X20152995Y-10056495D02*
X20233005Y-10136505D01*
X20233005Y-10056495D02*
X20152995Y-10136505D01*
X20152995Y-11643995D02*
X20233005Y-11724005D01*
X20233005Y-11643995D02*
X20152995Y-11724005D01*
X20152995Y-11859895D02*
X20233005Y-11939905D01*
X20233005Y-11859895D02*
X20152995Y-11939905D01*
X20152995Y-13294995D02*
X20233005Y-13375005D01*
X20233005Y-13294995D02*
X20152995Y-13375005D01*
X20343495Y-10373995D02*
X20423505Y-10454005D01*
X20423505Y-10373995D02*
X20343495Y-10454005D01*
X20343495Y-11961495D02*
X20423505Y-12041505D01*
X20423505Y-11961495D02*
X20343495Y-12041505D01*
X20343495Y-12786995D02*
X20423505Y-12867005D01*
X20423505Y-12786995D02*
X20343495Y-12867005D01*
X20851495Y-10627995D02*
X20931505Y-10708005D01*
X20931505Y-10627995D02*
X20851495Y-10708005D01*
X20851495Y-12405995D02*
X20931505Y-12486005D01*
X20931505Y-12405995D02*
X20851495Y-12486005D01*
X21105495Y-8341995D02*
X21185505Y-8422005D01*
X21185505Y-8341995D02*
X21105495Y-8422005D01*
X21105495Y-9738995D02*
X21185505Y-9819005D01*
X21185505Y-9738995D02*
X21105495Y-9819005D01*
X21105495Y-10500995D02*
X21185505Y-10581005D01*
X21185505Y-10500995D02*
X21105495Y-10581005D01*
X21105495Y-12024995D02*
X21185505Y-12105005D01*
X21185505Y-12024995D02*
X21105495Y-12105005D01*
X21689695Y-10881995D02*
X21769705Y-10962005D01*
X21769705Y-10881995D02*
X21689695Y-10962005D01*
X21702395Y-8595995D02*
X21782405Y-8676005D01*
X21782405Y-8595995D02*
X21702395Y-8676005D01*
X21702395Y-8849995D02*
X21782405Y-8930005D01*
X21782405Y-8849995D02*
X21702395Y-8930005D01*
X21702395Y-9103995D02*
X21782405Y-9184005D01*
X21782405Y-9103995D02*
X21702395Y-9184005D01*
X21702395Y-9345295D02*
X21782405Y-9425305D01*
X21782405Y-9345295D02*
X21702395Y-9425305D01*
X21702395Y-9611995D02*
X21782405Y-9692005D01*
X21782405Y-9611995D02*
X21702395Y-9692005D01*
X21702395Y-9853295D02*
X21782405Y-9933305D01*
X21782405Y-9853295D02*
X21702395Y-9933305D01*
X21702395Y-10119995D02*
X21782405Y-10200005D01*
X21782405Y-10119995D02*
X21702395Y-10200005D01*
X22057995Y-10119995D02*
X22138005Y-10200005D01*
X22138005Y-10119995D02*
X22057995Y-10200005D01*
X22248495Y-9865995D02*
X22328505Y-9946005D01*
X22328505Y-9865995D02*
X22248495Y-9946005D01*
X22438995Y-9611995D02*
X22519005Y-9692005D01*
X22519005Y-9611995D02*
X22438995Y-9692005D01*
X22438995Y-10881995D02*
X22519005Y-10962005D01*
X22519005Y-10881995D02*
X22438995Y-10962005D01*
X22629495Y-9357995D02*
X22709505Y-9438005D01*
X22709505Y-9357995D02*
X22629495Y-9438005D01*
X22819995Y-9103995D02*
X22900005Y-9184005D01*
X22900005Y-9103995D02*
X22819995Y-9184005D01*
X23010495Y-8849995D02*
X23090505Y-8930005D01*
X23090505Y-8849995D02*
X23010495Y-8930005D01*
X23200995Y-8595995D02*
X23281005Y-8676005D01*
X23281005Y-8595995D02*
X23200995Y-8676005D01*
X11280140Y-8382000D02*
G75*
G03X11280140Y-8382000I-40640J0D01*
G01*
X11280140Y-8636000D02*
G75*
G03X11280140Y-8636000I-40640J0D01*
G01*
X11280140Y-8890000D02*
G75*
G03X11280140Y-8890000I-40640J0D01*
G01*
X11280140Y-9144000D02*
G75*
G03X11280140Y-9144000I-40640J0D01*
G01*
X11280140Y-9398000D02*
G75*
G03X11280140Y-9398000I-40640J0D01*
G01*
X11280140Y-9652000D02*
G75*
G03X11280140Y-9652000I-40640J0D01*
G01*
X11280140Y-9906000D02*
G75*
G03X11280140Y-9906000I-40640J0D01*
G01*
X11280140Y-10160000D02*
G75*
G03X11280140Y-10160000I-40640J0D01*
G01*
X11280140Y-10414000D02*
G75*
G03X11280140Y-10414000I-40640J0D01*
G01*
X11280140Y-10668000D02*
G75*
G03X11280140Y-10668000I-40640J0D01*
G01*
X11280140Y-10922000D02*
G75*
G03X11280140Y-10922000I-40640J0D01*
G01*
X11280140Y-11176000D02*
G75*
G03X11280140Y-11176000I-40640J0D01*
G01*
X11280140Y-11430000D02*
G75*
G03X11280140Y-11430000I-40640J0D01*
G01*
X11280140Y-11684000D02*
G75*
G03X11280140Y-11684000I-40640J0D01*
G01*
X11280140Y-11938000D02*
G75*
G03X11280140Y-11938000I-40640J0D01*
G01*
X11280140Y-12192000D02*
G75*
G03X11280140Y-12192000I-40640J0D01*
G01*
X11280140Y-12446000D02*
G75*
G03X11280140Y-12446000I-40640J0D01*
G01*
X11280140Y-12700000D02*
G75*
G03X11280140Y-12700000I-40640J0D01*
G01*
X11280140Y-12954000D02*
G75*
G03X11280140Y-12954000I-40640J0D01*
G01*
X11280140Y-13208000D02*
G75*
G03X11280140Y-13208000I-40640J0D01*
G01*
X12804140Y-8382000D02*
G75*
G03X12804140Y-8382000I-40640J0D01*
G01*
X12804140Y-8636000D02*
G75*
G03X12804140Y-8636000I-40640J0D01*
G01*
X12804140Y-8890000D02*
G75*
G03X12804140Y-8890000I-40640J0D01*
G01*
X12804140Y-9144000D02*
G75*
G03X12804140Y-9144000I-40640J0D01*
G01*
X12804140Y-9398000D02*
G75*
G03X12804140Y-9398000I-40640J0D01*
G01*
X12804140Y-9652000D02*
G75*
G03X12804140Y-9652000I-40640J0D01*
G01*
X12804140Y-9906000D02*
G75*
G03X12804140Y-9906000I-40640J0D01*
G01*
X12804140Y-10160000D02*
G75*
G03X12804140Y-10160000I-40640J0D01*
G01*
X12804140Y-10414000D02*
G75*
G03X12804140Y-10414000I-40640J0D01*
G01*
X12804140Y-10668000D02*
G75*
G03X12804140Y-10668000I-40640J0D01*
G01*
X12804140Y-10922000D02*
G75*
G03X12804140Y-10922000I-40640J0D01*
G01*
X12804140Y-11176000D02*
G75*
G03X12804140Y-11176000I-40640J0D01*
G01*
X12804140Y-11430000D02*
G75*
G03X12804140Y-11430000I-40640J0D01*
G01*
X12804140Y-11684000D02*
G75*
G03X12804140Y-11684000I-40640J0D01*
G01*
X12804140Y-11938000D02*
G75*
G03X12804140Y-11938000I-40640J0D01*
G01*
X12804140Y-12192000D02*
G75*
G03X12804140Y-12192000I-40640J0D01*
G01*
X12804140Y-12446000D02*
G75*
G03X12804140Y-12446000I-40640J0D01*
G01*
X12804140Y-12700000D02*
G75*
G03X12804140Y-12700000I-40640J0D01*
G01*
X12804140Y-12954000D02*
G75*
G03X12804140Y-12954000I-40640J0D01*
G01*
X12804140Y-13208000D02*
G75*
G03X12804140Y-13208000I-40640J0D01*
G01*
X13312140Y-8382000D02*
G75*
G03X13312140Y-8382000I-40640J0D01*
G01*
X13312140Y-8636000D02*
G75*
G03X13312140Y-8636000I-40640J0D01*
G01*
X13312140Y-8890000D02*
G75*
G03X13312140Y-8890000I-40640J0D01*
G01*
X13312140Y-9144000D02*
G75*
G03X13312140Y-9144000I-40640J0D01*
G01*
X13312140Y-9398000D02*
G75*
G03X13312140Y-9398000I-40640J0D01*
G01*
X13312140Y-9652000D02*
G75*
G03X13312140Y-9652000I-40640J0D01*
G01*
X13312140Y-9906000D02*
G75*
G03X13312140Y-9906000I-40640J0D01*
G01*
X13312140Y-10160000D02*
G75*
G03X13312140Y-10160000I-40640J0D01*
G01*
X13312140Y-10414000D02*
G75*
G03X13312140Y-10414000I-40640J0D01*
G01*
X13312140Y-10668000D02*
G75*
G03X13312140Y-10668000I-40640J0D01*
G01*
X13312140Y-10922000D02*
G75*
G03X13312140Y-10922000I-40640J0D01*
G01*
X13312140Y-11176000D02*
G75*
G03X13312140Y-11176000I-40640J0D01*
G01*
X13312140Y-11430000D02*
G75*
G03X13312140Y-11430000I-40640J0D01*
G01*
X13312140Y-11684000D02*
G75*
G03X13312140Y-11684000I-40640J0D01*
G01*
X13312140Y-11938000D02*
G75*
G03X13312140Y-11938000I-40640J0D01*
G01*
X13312140Y-12192000D02*
G75*
G03X13312140Y-12192000I-40640J0D01*
G01*
X13312140Y-12446000D02*
G75*
G03X13312140Y-12446000I-40640J0D01*
G01*
X13312140Y-12700000D02*
G75*
G03X13312140Y-12700000I-40640J0D01*
G01*
X13312140Y-12954000D02*
G75*
G03X13312140Y-12954000I-40640J0D01*
G01*
X13312140Y-13208000D02*
G75*
G03X13312140Y-13208000I-40640J0D01*
G01*
X14836140Y-8382000D02*
G75*
G03X14836140Y-8382000I-40640J0D01*
G01*
X14836140Y-8636000D02*
G75*
G03X14836140Y-8636000I-40640J0D01*
G01*
X14836140Y-8890000D02*
G75*
G03X14836140Y-8890000I-40640J0D01*
G01*
X14836140Y-9144000D02*
G75*
G03X14836140Y-9144000I-40640J0D01*
G01*
X14836140Y-9398000D02*
G75*
G03X14836140Y-9398000I-40640J0D01*
G01*
X14836140Y-9652000D02*
G75*
G03X14836140Y-9652000I-40640J0D01*
G01*
X14836140Y-9906000D02*
G75*
G03X14836140Y-9906000I-40640J0D01*
G01*
X14836140Y-10160000D02*
G75*
G03X14836140Y-10160000I-40640J0D01*
G01*
X14836140Y-10414000D02*
G75*
G03X14836140Y-10414000I-40640J0D01*
G01*
X14836140Y-10668000D02*
G75*
G03X14836140Y-10668000I-40640J0D01*
G01*
X14836140Y-10922000D02*
G75*
G03X14836140Y-10922000I-40640J0D01*
G01*
X14836140Y-11176000D02*
G75*
G03X14836140Y-11176000I-40640J0D01*
G01*
X14836140Y-11430000D02*
G75*
G03X14836140Y-11430000I-40640J0D01*
G01*
X14836140Y-11684000D02*
G75*
G03X14836140Y-11684000I-40640J0D01*
G01*
X14836140Y-11938000D02*
G75*
G03X14836140Y-11938000I-40640J0D01*
G01*
X14836140Y-12192000D02*
G75*
G03X14836140Y-12192000I-40640J0D01*
G01*
X14836140Y-12446000D02*
G75*
G03X14836140Y-12446000I-40640J0D01*
G01*
X14836140Y-12700000D02*
G75*
G03X14836140Y-12700000I-40640J0D01*
G01*
X14836140Y-12954000D02*
G75*
G03X14836140Y-12954000I-40640J0D01*
G01*
X14836140Y-13208000D02*
G75*
G03X14836140Y-13208000I-40640J0D01*
G01*
X15471140Y-8382000D02*
G75*
G03X15471140Y-8382000I-40640J0D01*
G01*
X15471140Y-8636000D02*
G75*
G03X15471140Y-8636000I-40640J0D01*
G01*
X15471140Y-8890000D02*
G75*
G03X15471140Y-8890000I-40640J0D01*
G01*
X15471140Y-9144000D02*
G75*
G03X15471140Y-9144000I-40640J0D01*
G01*
X15471140Y-9398000D02*
G75*
G03X15471140Y-9398000I-40640J0D01*
G01*
X15471140Y-9652000D02*
G75*
G03X15471140Y-9652000I-40640J0D01*
G01*
X15471140Y-9906000D02*
G75*
G03X15471140Y-9906000I-40640J0D01*
G01*
X15471140Y-10160000D02*
G75*
G03X15471140Y-10160000I-40640J0D01*
G01*
X15471140Y-10414000D02*
G75*
G03X15471140Y-10414000I-40640J0D01*
G01*
X15471140Y-10668000D02*
G75*
G03X15471140Y-10668000I-40640J0D01*
G01*
X15471140Y-10922000D02*
G75*
G03X15471140Y-10922000I-40640J0D01*
G01*
X15471140Y-11176000D02*
G75*
G03X15471140Y-11176000I-40640J0D01*
G01*
X15471140Y-11430000D02*
G75*
G03X15471140Y-11430000I-40640J0D01*
G01*
X15471140Y-11684000D02*
G75*
G03X15471140Y-11684000I-40640J0D01*
G01*
X15471140Y-11938000D02*
G75*
G03X15471140Y-11938000I-40640J0D01*
G01*
X15471140Y-12192000D02*
G75*
G03X15471140Y-12192000I-40640J0D01*
G01*
X15598140Y-12700000D02*
G75*
G03X15598140Y-12700000I-40640J0D01*
G01*
X15598140Y-12954000D02*
G75*
G03X15598140Y-12954000I-40640J0D01*
G01*
X15598140Y-13208000D02*
G75*
G03X15598140Y-13208000I-40640J0D01*
G01*
X15598140Y-13462000D02*
G75*
G03X15598140Y-13462000I-40640J0D01*
G01*
X16360140Y-12700000D02*
G75*
G03X16360140Y-12700000I-40640J0D01*
G01*
X16360140Y-12954000D02*
G75*
G03X16360140Y-12954000I-40640J0D01*
G01*
X16360140Y-13208000D02*
G75*
G03X16360140Y-13208000I-40640J0D01*
G01*
X16360140Y-13462000D02*
G75*
G03X16360140Y-13462000I-40640J0D01*
G01*
X16995140Y-8382000D02*
G75*
G03X16995140Y-8382000I-40640J0D01*
G01*
X16995140Y-8636000D02*
G75*
G03X16995140Y-8636000I-40640J0D01*
G01*
X16995140Y-8890000D02*
G75*
G03X16995140Y-8890000I-40640J0D01*
G01*
X16995140Y-9144000D02*
G75*
G03X16995140Y-9144000I-40640J0D01*
G01*
X16995140Y-9398000D02*
G75*
G03X16995140Y-9398000I-40640J0D01*
G01*
X16995140Y-9652000D02*
G75*
G03X16995140Y-9652000I-40640J0D01*
G01*
X16995140Y-9906000D02*
G75*
G03X16995140Y-9906000I-40640J0D01*
G01*
X16995140Y-10160000D02*
G75*
G03X16995140Y-10160000I-40640J0D01*
G01*
X16995140Y-10414000D02*
G75*
G03X16995140Y-10414000I-40640J0D01*
G01*
X16995140Y-10668000D02*
G75*
G03X16995140Y-10668000I-40640J0D01*
G01*
X16995140Y-10922000D02*
G75*
G03X16995140Y-10922000I-40640J0D01*
G01*
X16995140Y-11176000D02*
G75*
G03X16995140Y-11176000I-40640J0D01*
G01*
X16995140Y-11430000D02*
G75*
G03X16995140Y-11430000I-40640J0D01*
G01*
X16995140Y-11684000D02*
G75*
G03X16995140Y-11684000I-40640J0D01*
G01*
X16995140Y-11938000D02*
G75*
G03X16995140Y-11938000I-40640J0D01*
G01*
X16995140Y-12192000D02*
G75*
G03X16995140Y-12192000I-40640J0D01*
G01*
X17630140Y-8382000D02*
G75*
G03X17630140Y-8382000I-40640J0D01*
G01*
X17630140Y-8636000D02*
G75*
G03X17630140Y-8636000I-40640J0D01*
G01*
X17630140Y-8890000D02*
G75*
G03X17630140Y-8890000I-40640J0D01*
G01*
X17630140Y-9144000D02*
G75*
G03X17630140Y-9144000I-40640J0D01*
G01*
X17630140Y-9398000D02*
G75*
G03X17630140Y-9398000I-40640J0D01*
G01*
X17630140Y-9652000D02*
G75*
G03X17630140Y-9652000I-40640J0D01*
G01*
X17630140Y-9906000D02*
G75*
G03X17630140Y-9906000I-40640J0D01*
G01*
X17630140Y-10160000D02*
G75*
G03X17630140Y-10160000I-40640J0D01*
G01*
X17630140Y-10414000D02*
G75*
G03X17630140Y-10414000I-40640J0D01*
G01*
X17630140Y-10668000D02*
G75*
G03X17630140Y-10668000I-40640J0D01*
G01*
X17630140Y-10922000D02*
G75*
G03X17630140Y-10922000I-40640J0D01*
G01*
X17630140Y-11176000D02*
G75*
G03X17630140Y-11176000I-40640J0D01*
G01*
X17630140Y-11430000D02*
G75*
G03X17630140Y-11430000I-40640J0D01*
G01*
X17630140Y-11684000D02*
G75*
G03X17630140Y-11684000I-40640J0D01*
G01*
X17630140Y-12446000D02*
G75*
G03X17630140Y-12446000I-40640J0D01*
G01*
X17630140Y-12700000D02*
G75*
G03X17630140Y-12700000I-40640J0D01*
G01*
X17630140Y-12954000D02*
G75*
G03X17630140Y-12954000I-40640J0D01*
G01*
X17630140Y-13208000D02*
G75*
G03X17630140Y-13208000I-40640J0D01*
G01*
X18392140Y-8382000D02*
G75*
G03X18392140Y-8382000I-40640J0D01*
G01*
X18392140Y-8636000D02*
G75*
G03X18392140Y-8636000I-40640J0D01*
G01*
X18392140Y-8890000D02*
G75*
G03X18392140Y-8890000I-40640J0D01*
G01*
X18392140Y-9144000D02*
G75*
G03X18392140Y-9144000I-40640J0D01*
G01*
X18392140Y-9398000D02*
G75*
G03X18392140Y-9398000I-40640J0D01*
G01*
X18392140Y-9652000D02*
G75*
G03X18392140Y-9652000I-40640J0D01*
G01*
X18392140Y-9906000D02*
G75*
G03X18392140Y-9906000I-40640J0D01*
G01*
X18392140Y-10160000D02*
G75*
G03X18392140Y-10160000I-40640J0D01*
G01*
X18392140Y-10414000D02*
G75*
G03X18392140Y-10414000I-40640J0D01*
G01*
X18392140Y-10668000D02*
G75*
G03X18392140Y-10668000I-40640J0D01*
G01*
X18392140Y-10922000D02*
G75*
G03X18392140Y-10922000I-40640J0D01*
G01*
X18392140Y-11176000D02*
G75*
G03X18392140Y-11176000I-40640J0D01*
G01*
X18392140Y-11430000D02*
G75*
G03X18392140Y-11430000I-40640J0D01*
G01*
X18392140Y-11684000D02*
G75*
G03X18392140Y-11684000I-40640J0D01*
G01*
X18392140Y-12446000D02*
G75*
G03X18392140Y-12446000I-40640J0D01*
G01*
X18392140Y-12700000D02*
G75*
G03X18392140Y-12700000I-40640J0D01*
G01*
X18392140Y-12954000D02*
G75*
G03X18392140Y-12954000I-40640J0D01*
G01*
X18392140Y-13208000D02*
G75*
G03X18392140Y-13208000I-40640J0D01*
G01*
X19154140Y-12065000D02*
G75*
G03X19154140Y-12065000I-40640J0D01*
G01*
X19154140Y-12319000D02*
G75*
G03X19154140Y-12319000I-40640J0D01*
G01*
X19154140Y-12573000D02*
G75*
G03X19154140Y-12573000I-40640J0D01*
G01*
X19154140Y-12827000D02*
G75*
G03X19154140Y-12827000I-40640J0D01*
G01*
X19154140Y-13081000D02*
G75*
G03X19154140Y-13081000I-40640J0D01*
G01*
X19154140Y-13335000D02*
G75*
G03X19154140Y-13335000I-40640J0D01*
G01*
X19154140Y-13589000D02*
G75*
G03X19154140Y-13589000I-40640J0D01*
G01*
X19916140Y-12065000D02*
G75*
G03X19916140Y-12065000I-40640J0D01*
G01*
X19916140Y-12319000D02*
G75*
G03X19916140Y-12319000I-40640J0D01*
G01*
X19916140Y-12573000D02*
G75*
G03X19916140Y-12573000I-40640J0D01*
G01*
X19916140Y-12827000D02*
G75*
G03X19916140Y-12827000I-40640J0D01*
G01*
X19916140Y-13081000D02*
G75*
G03X19916140Y-13081000I-40640J0D01*
G01*
X19916140Y-13335000D02*
G75*
G03X19916140Y-13335000I-40640J0D01*
G01*
X19916140Y-13589000D02*
G75*
G03X19916140Y-13589000I-40640J0D01*
G01*
X20678140Y-8382000D02*
G75*
G03X20678140Y-8382000I-40640J0D01*
G01*
X20678140Y-8636000D02*
G75*
G03X20678140Y-8636000I-40640J0D01*
G01*
X20678140Y-8890000D02*
G75*
G03X20678140Y-8890000I-40640J0D01*
G01*
X20678140Y-9144000D02*
G75*
G03X20678140Y-9144000I-40640J0D01*
G01*
X20678140Y-9398000D02*
G75*
G03X20678140Y-9398000I-40640J0D01*
G01*
X20678140Y-9652000D02*
G75*
G03X20678140Y-9652000I-40640J0D01*
G01*
X20678140Y-9906000D02*
G75*
G03X20678140Y-9906000I-40640J0D01*
G01*
X20678140Y-10160000D02*
G75*
G03X20678140Y-10160000I-40640J0D01*
G01*
X20678140Y-10414000D02*
G75*
G03X20678140Y-10414000I-40640J0D01*
G01*
X20678140Y-10668000D02*
G75*
G03X20678140Y-10668000I-40640J0D01*
G01*
X20678140Y-11176000D02*
G75*
G03X20678140Y-11176000I-40640J0D01*
G01*
X20678140Y-11430000D02*
G75*
G03X20678140Y-11430000I-40640J0D01*
G01*
X20678140Y-11684000D02*
G75*
G03X20678140Y-11684000I-40640J0D01*
G01*
X20678140Y-11938000D02*
G75*
G03X20678140Y-11938000I-40640J0D01*
G01*
X20678140Y-12192000D02*
G75*
G03X20678140Y-12192000I-40640J0D01*
G01*
X20678140Y-12446000D02*
G75*
G03X20678140Y-12446000I-40640J0D01*
G01*
X20678140Y-12700000D02*
G75*
G03X20678140Y-12700000I-40640J0D01*
G01*
X20678140Y-12954000D02*
G75*
G03X20678140Y-12954000I-40640J0D01*
G01*
X20678140Y-13208000D02*
G75*
G03X20678140Y-13208000I-40640J0D01*
G01*
X20678140Y-13462000D02*
G75*
G03X20678140Y-13462000I-40640J0D01*
G01*
X21440140Y-8382000D02*
G75*
G03X21440140Y-8382000I-40640J0D01*
G01*
X21440140Y-8636000D02*
G75*
G03X21440140Y-8636000I-40640J0D01*
G01*
X21440140Y-8890000D02*
G75*
G03X21440140Y-8890000I-40640J0D01*
G01*
X21440140Y-9144000D02*
G75*
G03X21440140Y-9144000I-40640J0D01*
G01*
X21440140Y-9398000D02*
G75*
G03X21440140Y-9398000I-40640J0D01*
G01*
X21440140Y-9652000D02*
G75*
G03X21440140Y-9652000I-40640J0D01*
G01*
X21440140Y-9906000D02*
G75*
G03X21440140Y-9906000I-40640J0D01*
G01*
X21440140Y-10160000D02*
G75*
G03X21440140Y-10160000I-40640J0D01*
G01*
X21440140Y-10414000D02*
G75*
G03X21440140Y-10414000I-40640J0D01*
G01*
X21440140Y-10668000D02*
G75*
G03X21440140Y-10668000I-40640J0D01*
G01*
X21440140Y-11176000D02*
G75*
G03X21440140Y-11176000I-40640J0D01*
G01*
X21440140Y-11430000D02*
G75*
G03X21440140Y-11430000I-40640J0D01*
G01*
X21440140Y-11684000D02*
G75*
G03X21440140Y-11684000I-40640J0D01*
G01*
X21440140Y-11938000D02*
G75*
G03X21440140Y-11938000I-40640J0D01*
G01*
X21440140Y-12192000D02*
G75*
G03X21440140Y-12192000I-40640J0D01*
G01*
X21440140Y-12446000D02*
G75*
G03X21440140Y-12446000I-40640J0D01*
G01*
X21440140Y-12700000D02*
G75*
G03X21440140Y-12700000I-40640J0D01*
G01*
X21440140Y-12954000D02*
G75*
G03X21440140Y-12954000I-40640J0D01*
G01*
X21440140Y-13208000D02*
G75*
G03X21440140Y-13208000I-40640J0D01*
G01*
X21440140Y-13462000D02*
G75*
G03X21440140Y-13462000I-40640J0D01*
G01*
X9080500Y-9855962D02*
X9080500Y-9956038D01*
X9030462Y-9906000D02*
X9130538Y-9906000D01*
X9080500Y-10109962D02*
X9080500Y-10210038D01*
X9030462Y-10160000D02*
X9130538Y-10160000D01*
X9080500Y-10363962D02*
X9080500Y-10464038D01*
X9030462Y-10414000D02*
X9130538Y-10414000D01*
X9080500Y-10617962D02*
X9080500Y-10718038D01*
X9030462Y-10668000D02*
X9130538Y-10668000D01*
X9080500Y-10871962D02*
X9080500Y-10972038D01*
X9030462Y-10922000D02*
X9130538Y-10922000D01*
X9080500Y-11125962D02*
X9080500Y-11226038D01*
X9030462Y-11176000D02*
X9130538Y-11176000D01*
X9080500Y-11379962D02*
X9080500Y-11480038D01*
X9030462Y-11430000D02*
X9130538Y-11430000D01*
X9080500Y-11633962D02*
X9080500Y-11734038D01*
X9030462Y-11684000D02*
X9130538Y-11684000D01*
X9080500Y-11887962D02*
X9080500Y-11988038D01*
X9030462Y-11938000D02*
X9130538Y-11938000D01*
X9080500Y-12141962D02*
X9080500Y-12242038D01*
X9030462Y-12192000D02*
X9130538Y-12192000D01*
X9334500Y-9855962D02*
X9334500Y-9956038D01*
X9284462Y-9906000D02*
X9384538Y-9906000D01*
X9334500Y-10109962D02*
X9334500Y-10210038D01*
X9284462Y-10160000D02*
X9384538Y-10160000D01*
X9334500Y-10363962D02*
X9334500Y-10464038D01*
X9284462Y-10414000D02*
X9384538Y-10414000D01*
X9334500Y-10617962D02*
X9334500Y-10718038D01*
X9284462Y-10668000D02*
X9384538Y-10668000D01*
X9334500Y-10871962D02*
X9334500Y-10972038D01*
X9284462Y-10922000D02*
X9384538Y-10922000D01*
X9334500Y-11125962D02*
X9334500Y-11226038D01*
X9284462Y-11176000D02*
X9384538Y-11176000D01*
X9334500Y-11379962D02*
X9334500Y-11480038D01*
X9284462Y-11430000D02*
X9384538Y-11430000D01*
X9334500Y-11633962D02*
X9334500Y-11734038D01*
X9284462Y-11684000D02*
X9384538Y-11684000D01*
X9334500Y-11887962D02*
X9334500Y-11988038D01*
X9284462Y-11938000D02*
X9384538Y-11938000D01*
X9334500Y-12141962D02*
X9334500Y-12242038D01*
X9284462Y-12192000D02*
X9384538Y-12192000D01*
X8251749Y-6918249D02*
X8251749Y-6670751D01*
X8004251Y-6670751D01*
X8004251Y-6918249D01*
X8251749Y-6918249D01*
X8251749Y-13839749D02*
X8251749Y-13592251D01*
X8004251Y-13592251D01*
X8004251Y-13839749D01*
X8251749Y-13839749D01*
X23174249Y-6918249D02*
X23174249Y-6670751D01*
X22926751Y-6670751D01*
X22926751Y-6918249D01*
X23174249Y-6918249D01*
X23174249Y-13839749D02*
X23174249Y-13592251D01*
X22926751Y-13592251D01*
X22926751Y-13839749D01*
X23174249Y-13839749D01*
D13*
X7872378Y-14708764D02*
X7872378Y-14408764D01*
X7943807Y-14408764D01*
X7986664Y-14423050D01*
X8015236Y-14451621D01*
X8029521Y-14480193D01*
X8043807Y-14537336D01*
X8043807Y-14580193D01*
X8029521Y-14637336D01*
X8015236Y-14665907D01*
X7986664Y-14694479D01*
X7943807Y-14708764D01*
X7872378Y-14708764D01*
X8172378Y-14708764D02*
X8172378Y-14508764D01*
X8172378Y-14565907D02*
X8186664Y-14537336D01*
X8200950Y-14523050D01*
X8229521Y-14508764D01*
X8258093Y-14508764D01*
X8358093Y-14708764D02*
X8358093Y-14508764D01*
X8358093Y-14408764D02*
X8343807Y-14423050D01*
X8358093Y-14437336D01*
X8372378Y-14423050D01*
X8358093Y-14408764D01*
X8358093Y-14437336D01*
X8543807Y-14708764D02*
X8515236Y-14694479D01*
X8500950Y-14665907D01*
X8500950Y-14408764D01*
X8700950Y-14708764D02*
X8672379Y-14694479D01*
X8658093Y-14665907D01*
X8658093Y-14408764D01*
X9043807Y-14708764D02*
X9043807Y-14408764D01*
X9143807Y-14623050D01*
X9243807Y-14408764D01*
X9243807Y-14708764D01*
X9515236Y-14708764D02*
X9515236Y-14551621D01*
X9500950Y-14523050D01*
X9472379Y-14508764D01*
X9415236Y-14508764D01*
X9386664Y-14523050D01*
X9515236Y-14694479D02*
X9486664Y-14708764D01*
X9415236Y-14708764D01*
X9386664Y-14694479D01*
X9372379Y-14665907D01*
X9372379Y-14637336D01*
X9386664Y-14608764D01*
X9415236Y-14594479D01*
X9486664Y-14594479D01*
X9515236Y-14580193D01*
X9658093Y-14508764D02*
X9658093Y-14808764D01*
X9658093Y-14523050D02*
X9686664Y-14508764D01*
X9743807Y-14508764D01*
X9772379Y-14523050D01*
X9786664Y-14537336D01*
X9800950Y-14565907D01*
X9800950Y-14651621D01*
X9786664Y-14680193D01*
X9772379Y-14694479D01*
X9743807Y-14708764D01*
X9686664Y-14708764D01*
X9658093Y-14694479D01*
X9929521Y-14680193D02*
X9943807Y-14694479D01*
X9929521Y-14708764D01*
X9915236Y-14694479D01*
X9929521Y-14680193D01*
X9929521Y-14708764D01*
X9929521Y-14523050D02*
X9943807Y-14537336D01*
X9929521Y-14551621D01*
X9915236Y-14537336D01*
X9929521Y-14523050D01*
X9929521Y-14551621D01*
X7520940Y-15163045D02*
X7600950Y-15243055D01*
X7600950Y-15163045D02*
X7520940Y-15243055D01*
X7929521Y-15038764D02*
X7958093Y-15038764D01*
X7986664Y-15053050D01*
X8000950Y-15067336D01*
X8015236Y-15095907D01*
X8029521Y-15153050D01*
X8029521Y-15224479D01*
X8015236Y-15281621D01*
X8000950Y-15310193D01*
X7986664Y-15324479D01*
X7958093Y-15338764D01*
X7929521Y-15338764D01*
X7900950Y-15324479D01*
X7886664Y-15310193D01*
X7872378Y-15281621D01*
X7858093Y-15224479D01*
X7858093Y-15153050D01*
X7872378Y-15095907D01*
X7886664Y-15067336D01*
X7900950Y-15053050D01*
X7929521Y-15038764D01*
X8158093Y-15310193D02*
X8172378Y-15324479D01*
X8158093Y-15338764D01*
X8143807Y-15324479D01*
X8158093Y-15310193D01*
X8158093Y-15338764D01*
X8343807Y-15167336D02*
X8315236Y-15153050D01*
X8300950Y-15138764D01*
X8286664Y-15110193D01*
X8286664Y-15095907D01*
X8300950Y-15067336D01*
X8315236Y-15053050D01*
X8343807Y-15038764D01*
X8400950Y-15038764D01*
X8429521Y-15053050D01*
X8443807Y-15067336D01*
X8458093Y-15095907D01*
X8458093Y-15110193D01*
X8443807Y-15138764D01*
X8429521Y-15153050D01*
X8400950Y-15167336D01*
X8343807Y-15167336D01*
X8315236Y-15181621D01*
X8300950Y-15195907D01*
X8286664Y-15224479D01*
X8286664Y-15281621D01*
X8300950Y-15310193D01*
X8315236Y-15324479D01*
X8343807Y-15338764D01*
X8400950Y-15338764D01*
X8429521Y-15324479D01*
X8443807Y-15310193D01*
X8458093Y-15281621D01*
X8458093Y-15224479D01*
X8443807Y-15195907D01*
X8429521Y-15181621D01*
X8400950Y-15167336D01*
X8643807Y-15038764D02*
X8672379Y-15038764D01*
X8700950Y-15053050D01*
X8715236Y-15067336D01*
X8729521Y-15095907D01*
X8743807Y-15153050D01*
X8743807Y-15224479D01*
X8729521Y-15281621D01*
X8715236Y-15310193D01*
X8700950Y-15324479D01*
X8672379Y-15338764D01*
X8643807Y-15338764D01*
X8615236Y-15324479D01*
X8600950Y-15310193D01*
X8586664Y-15281621D01*
X8572379Y-15224479D01*
X8572379Y-15153050D01*
X8586664Y-15095907D01*
X8600950Y-15067336D01*
X8615236Y-15053050D01*
X8643807Y-15038764D01*
X8872379Y-15338764D02*
X8872379Y-15138764D01*
X8872379Y-15167336D02*
X8886664Y-15153050D01*
X8915236Y-15138764D01*
X8958093Y-15138764D01*
X8986664Y-15153050D01*
X9000950Y-15181621D01*
X9000950Y-15338764D01*
X9000950Y-15181621D02*
X9015236Y-15153050D01*
X9043807Y-15138764D01*
X9086664Y-15138764D01*
X9115236Y-15153050D01*
X9129521Y-15181621D01*
X9129521Y-15338764D01*
X9272379Y-15338764D02*
X9272379Y-15138764D01*
X9272379Y-15167336D02*
X9286664Y-15153050D01*
X9315236Y-15138764D01*
X9358093Y-15138764D01*
X9386664Y-15153050D01*
X9400950Y-15181621D01*
X9400950Y-15338764D01*
X9400950Y-15181621D02*
X9415236Y-15153050D01*
X9443807Y-15138764D01*
X9486664Y-15138764D01*
X9515236Y-15153050D01*
X9529521Y-15181621D01*
X9529521Y-15338764D01*
X10115236Y-15024479D02*
X9858093Y-15410193D01*
X10500950Y-15038764D02*
X10529521Y-15038764D01*
X10558093Y-15053050D01*
X10572378Y-15067336D01*
X10586664Y-15095907D01*
X10600950Y-15153050D01*
X10600950Y-15224479D01*
X10586664Y-15281621D01*
X10572378Y-15310193D01*
X10558093Y-15324479D01*
X10529521Y-15338764D01*
X10500950Y-15338764D01*
X10472378Y-15324479D01*
X10458093Y-15310193D01*
X10443807Y-15281621D01*
X10429521Y-15224479D01*
X10429521Y-15153050D01*
X10443807Y-15095907D01*
X10458093Y-15067336D01*
X10472378Y-15053050D01*
X10500950Y-15038764D01*
X10729521Y-15310193D02*
X10743807Y-15324479D01*
X10729521Y-15338764D01*
X10715236Y-15324479D01*
X10729521Y-15310193D01*
X10729521Y-15338764D01*
X10929521Y-15038764D02*
X10958093Y-15038764D01*
X10986664Y-15053050D01*
X11000950Y-15067336D01*
X11015236Y-15095907D01*
X11029521Y-15153050D01*
X11029521Y-15224479D01*
X11015236Y-15281621D01*
X11000950Y-15310193D01*
X10986664Y-15324479D01*
X10958093Y-15338764D01*
X10929521Y-15338764D01*
X10900950Y-15324479D01*
X10886664Y-15310193D01*
X10872378Y-15281621D01*
X10858093Y-15224479D01*
X10858093Y-15153050D01*
X10872378Y-15095907D01*
X10886664Y-15067336D01*
X10900950Y-15053050D01*
X10929521Y-15038764D01*
X11129521Y-15038764D02*
X11315235Y-15038764D01*
X11215235Y-15153050D01*
X11258093Y-15153050D01*
X11286664Y-15167336D01*
X11300950Y-15181621D01*
X11315235Y-15210193D01*
X11315235Y-15281621D01*
X11300950Y-15310193D01*
X11286664Y-15324479D01*
X11258093Y-15338764D01*
X11172378Y-15338764D01*
X11143807Y-15324479D01*
X11129521Y-15310193D01*
X11429521Y-15067336D02*
X11443807Y-15053050D01*
X11472378Y-15038764D01*
X11543807Y-15038764D01*
X11572378Y-15053050D01*
X11586664Y-15067336D01*
X11600950Y-15095907D01*
X11600950Y-15124479D01*
X11586664Y-15167336D01*
X11415235Y-15338764D01*
X11600950Y-15338764D01*
X11715236Y-15038764D02*
X11715236Y-15095907D01*
X11829521Y-15038764D02*
X11829521Y-15095907D01*
X12272378Y-15453050D02*
X12258093Y-15438764D01*
X12229521Y-15395907D01*
X12215235Y-15367336D01*
X12200950Y-15324479D01*
X12186664Y-15253050D01*
X12186664Y-15195907D01*
X12200950Y-15124479D01*
X12215235Y-15081621D01*
X12229521Y-15053050D01*
X12258093Y-15010193D01*
X12272378Y-14995907D01*
X12543807Y-15338764D02*
X12372378Y-15338764D01*
X12458093Y-15338764D02*
X12458093Y-15038764D01*
X12429521Y-15081621D01*
X12400950Y-15110193D01*
X12372378Y-15124479D01*
X12800950Y-15138764D02*
X12800950Y-15338764D01*
X12729521Y-15024479D02*
X12658093Y-15238764D01*
X12843807Y-15238764D01*
X13100950Y-15038764D02*
X12958093Y-15038764D01*
X12943807Y-15181621D01*
X12958093Y-15167336D01*
X12986664Y-15153050D01*
X13058093Y-15153050D01*
X13086664Y-15167336D01*
X13100950Y-15181621D01*
X13115235Y-15210193D01*
X13115235Y-15281621D01*
X13100950Y-15310193D01*
X13086664Y-15324479D01*
X13058093Y-15338764D01*
X12986664Y-15338764D01*
X12958093Y-15324479D01*
X12943807Y-15310193D01*
X13472378Y-15338764D02*
X13472378Y-15038764D01*
X13600950Y-15338764D02*
X13600950Y-15181621D01*
X13586664Y-15153050D01*
X13558093Y-15138764D01*
X13515235Y-15138764D01*
X13486664Y-15153050D01*
X13472378Y-15167336D01*
X13786664Y-15338764D02*
X13758093Y-15324479D01*
X13743807Y-15310193D01*
X13729521Y-15281621D01*
X13729521Y-15195907D01*
X13743807Y-15167336D01*
X13758093Y-15153050D01*
X13786664Y-15138764D01*
X13829521Y-15138764D01*
X13858093Y-15153050D01*
X13872378Y-15167336D01*
X13886664Y-15195907D01*
X13886664Y-15281621D01*
X13872378Y-15310193D01*
X13858093Y-15324479D01*
X13829521Y-15338764D01*
X13786664Y-15338764D01*
X14058093Y-15338764D02*
X14029521Y-15324479D01*
X14015236Y-15295907D01*
X14015236Y-15038764D01*
X14286664Y-15324479D02*
X14258093Y-15338764D01*
X14200950Y-15338764D01*
X14172378Y-15324479D01*
X14158093Y-15295907D01*
X14158093Y-15181621D01*
X14172378Y-15153050D01*
X14200950Y-15138764D01*
X14258093Y-15138764D01*
X14286664Y-15153050D01*
X14300950Y-15181621D01*
X14300950Y-15210193D01*
X14158093Y-15238764D01*
X14415236Y-15324479D02*
X14443807Y-15338764D01*
X14500950Y-15338764D01*
X14529521Y-15324479D01*
X14543807Y-15295907D01*
X14543807Y-15281621D01*
X14529521Y-15253050D01*
X14500950Y-15238764D01*
X14458093Y-15238764D01*
X14429521Y-15224479D01*
X14415236Y-15195907D01*
X14415236Y-15181621D01*
X14429521Y-15153050D01*
X14458093Y-15138764D01*
X14500950Y-15138764D01*
X14529521Y-15153050D01*
X14643807Y-15453050D02*
X14658093Y-15438764D01*
X14686664Y-15395907D01*
X14700950Y-15367336D01*
X14715236Y-15324479D01*
X14729521Y-15253050D01*
X14729521Y-15195907D01*
X14715236Y-15124479D01*
X14700950Y-15081621D01*
X14686664Y-15053050D01*
X14658093Y-15010193D01*
X14643807Y-14995907D01*
X7600950Y-15599050D02*
G75*
G03X7600950Y-15599050I-40640J0D01*
G01*
X7929521Y-15434764D02*
X7958093Y-15434764D01*
X7986664Y-15449050D01*
X8000950Y-15463336D01*
X8015236Y-15491907D01*
X8029521Y-15549050D01*
X8029521Y-15620479D01*
X8015236Y-15677621D01*
X8000950Y-15706193D01*
X7986664Y-15720479D01*
X7958093Y-15734764D01*
X7929521Y-15734764D01*
X7900950Y-15720479D01*
X7886664Y-15706193D01*
X7872378Y-15677621D01*
X7858093Y-15620479D01*
X7858093Y-15549050D01*
X7872378Y-15491907D01*
X7886664Y-15463336D01*
X7900950Y-15449050D01*
X7929521Y-15434764D01*
X8158093Y-15706193D02*
X8172378Y-15720479D01*
X8158093Y-15734764D01*
X8143807Y-15720479D01*
X8158093Y-15706193D01*
X8158093Y-15734764D01*
X8343807Y-15563336D02*
X8315236Y-15549050D01*
X8300950Y-15534764D01*
X8286664Y-15506193D01*
X8286664Y-15491907D01*
X8300950Y-15463336D01*
X8315236Y-15449050D01*
X8343807Y-15434764D01*
X8400950Y-15434764D01*
X8429521Y-15449050D01*
X8443807Y-15463336D01*
X8458093Y-15491907D01*
X8458093Y-15506193D01*
X8443807Y-15534764D01*
X8429521Y-15549050D01*
X8400950Y-15563336D01*
X8343807Y-15563336D01*
X8315236Y-15577621D01*
X8300950Y-15591907D01*
X8286664Y-15620479D01*
X8286664Y-15677621D01*
X8300950Y-15706193D01*
X8315236Y-15720479D01*
X8343807Y-15734764D01*
X8400950Y-15734764D01*
X8429521Y-15720479D01*
X8443807Y-15706193D01*
X8458093Y-15677621D01*
X8458093Y-15620479D01*
X8443807Y-15591907D01*
X8429521Y-15577621D01*
X8400950Y-15563336D01*
X8743807Y-15734764D02*
X8572379Y-15734764D01*
X8658093Y-15734764D02*
X8658093Y-15434764D01*
X8629521Y-15477621D01*
X8600950Y-15506193D01*
X8572379Y-15520479D01*
X8872379Y-15734764D02*
X8872379Y-15534764D01*
X8872379Y-15563336D02*
X8886664Y-15549050D01*
X8915236Y-15534764D01*
X8958093Y-15534764D01*
X8986664Y-15549050D01*
X9000950Y-15577621D01*
X9000950Y-15734764D01*
X9000950Y-15577621D02*
X9015236Y-15549050D01*
X9043807Y-15534764D01*
X9086664Y-15534764D01*
X9115236Y-15549050D01*
X9129521Y-15577621D01*
X9129521Y-15734764D01*
X9272379Y-15734764D02*
X9272379Y-15534764D01*
X9272379Y-15563336D02*
X9286664Y-15549050D01*
X9315236Y-15534764D01*
X9358093Y-15534764D01*
X9386664Y-15549050D01*
X9400950Y-15577621D01*
X9400950Y-15734764D01*
X9400950Y-15577621D02*
X9415236Y-15549050D01*
X9443807Y-15534764D01*
X9486664Y-15534764D01*
X9515236Y-15549050D01*
X9529521Y-15577621D01*
X9529521Y-15734764D01*
X10115236Y-15420479D02*
X9858093Y-15806193D01*
X10500950Y-15434764D02*
X10529521Y-15434764D01*
X10558093Y-15449050D01*
X10572378Y-15463336D01*
X10586664Y-15491907D01*
X10600950Y-15549050D01*
X10600950Y-15620479D01*
X10586664Y-15677621D01*
X10572378Y-15706193D01*
X10558093Y-15720479D01*
X10529521Y-15734764D01*
X10500950Y-15734764D01*
X10472378Y-15720479D01*
X10458093Y-15706193D01*
X10443807Y-15677621D01*
X10429521Y-15620479D01*
X10429521Y-15549050D01*
X10443807Y-15491907D01*
X10458093Y-15463336D01*
X10472378Y-15449050D01*
X10500950Y-15434764D01*
X10729521Y-15706193D02*
X10743807Y-15720479D01*
X10729521Y-15734764D01*
X10715236Y-15720479D01*
X10729521Y-15706193D01*
X10729521Y-15734764D01*
X10929521Y-15434764D02*
X10958093Y-15434764D01*
X10986664Y-15449050D01*
X11000950Y-15463336D01*
X11015236Y-15491907D01*
X11029521Y-15549050D01*
X11029521Y-15620479D01*
X11015236Y-15677621D01*
X11000950Y-15706193D01*
X10986664Y-15720479D01*
X10958093Y-15734764D01*
X10929521Y-15734764D01*
X10900950Y-15720479D01*
X10886664Y-15706193D01*
X10872378Y-15677621D01*
X10858093Y-15620479D01*
X10858093Y-15549050D01*
X10872378Y-15491907D01*
X10886664Y-15463336D01*
X10900950Y-15449050D01*
X10929521Y-15434764D01*
X11129521Y-15434764D02*
X11315235Y-15434764D01*
X11215235Y-15549050D01*
X11258093Y-15549050D01*
X11286664Y-15563336D01*
X11300950Y-15577621D01*
X11315235Y-15606193D01*
X11315235Y-15677621D01*
X11300950Y-15706193D01*
X11286664Y-15720479D01*
X11258093Y-15734764D01*
X11172378Y-15734764D01*
X11143807Y-15720479D01*
X11129521Y-15706193D01*
X11429521Y-15463336D02*
X11443807Y-15449050D01*
X11472378Y-15434764D01*
X11543807Y-15434764D01*
X11572378Y-15449050D01*
X11586664Y-15463336D01*
X11600950Y-15491907D01*
X11600950Y-15520479D01*
X11586664Y-15563336D01*
X11415235Y-15734764D01*
X11600950Y-15734764D01*
X11715236Y-15434764D02*
X11715236Y-15491907D01*
X11829521Y-15434764D02*
X11829521Y-15491907D01*
X12272378Y-15849050D02*
X12258093Y-15834764D01*
X12229521Y-15791907D01*
X12215235Y-15763336D01*
X12200950Y-15720479D01*
X12186664Y-15649050D01*
X12186664Y-15591907D01*
X12200950Y-15520479D01*
X12215235Y-15477621D01*
X12229521Y-15449050D01*
X12258093Y-15406193D01*
X12272378Y-15391907D01*
X12372378Y-15463336D02*
X12386664Y-15449050D01*
X12415235Y-15434764D01*
X12486664Y-15434764D01*
X12515235Y-15449050D01*
X12529521Y-15463336D01*
X12543807Y-15491907D01*
X12543807Y-15520479D01*
X12529521Y-15563336D01*
X12358093Y-15734764D01*
X12543807Y-15734764D01*
X12829521Y-15734764D02*
X12658093Y-15734764D01*
X12743807Y-15734764D02*
X12743807Y-15434764D01*
X12715235Y-15477621D01*
X12686664Y-15506193D01*
X12658093Y-15520479D01*
X13015235Y-15434764D02*
X13043807Y-15434764D01*
X13072378Y-15449050D01*
X13086664Y-15463336D01*
X13100950Y-15491907D01*
X13115235Y-15549050D01*
X13115235Y-15620479D01*
X13100950Y-15677621D01*
X13086664Y-15706193D01*
X13072378Y-15720479D01*
X13043807Y-15734764D01*
X13015235Y-15734764D01*
X12986664Y-15720479D01*
X12972378Y-15706193D01*
X12958093Y-15677621D01*
X12943807Y-15620479D01*
X12943807Y-15549050D01*
X12958093Y-15491907D01*
X12972378Y-15463336D01*
X12986664Y-15449050D01*
X13015235Y-15434764D01*
X13472378Y-15734764D02*
X13472378Y-15434764D01*
X13600950Y-15734764D02*
X13600950Y-15577621D01*
X13586664Y-15549050D01*
X13558093Y-15534764D01*
X13515235Y-15534764D01*
X13486664Y-15549050D01*
X13472378Y-15563336D01*
X13786664Y-15734764D02*
X13758093Y-15720479D01*
X13743807Y-15706193D01*
X13729521Y-15677621D01*
X13729521Y-15591907D01*
X13743807Y-15563336D01*
X13758093Y-15549050D01*
X13786664Y-15534764D01*
X13829521Y-15534764D01*
X13858093Y-15549050D01*
X13872378Y-15563336D01*
X13886664Y-15591907D01*
X13886664Y-15677621D01*
X13872378Y-15706193D01*
X13858093Y-15720479D01*
X13829521Y-15734764D01*
X13786664Y-15734764D01*
X14058093Y-15734764D02*
X14029521Y-15720479D01*
X14015236Y-15691907D01*
X14015236Y-15434764D01*
X14286664Y-15720479D02*
X14258093Y-15734764D01*
X14200950Y-15734764D01*
X14172378Y-15720479D01*
X14158093Y-15691907D01*
X14158093Y-15577621D01*
X14172378Y-15549050D01*
X14200950Y-15534764D01*
X14258093Y-15534764D01*
X14286664Y-15549050D01*
X14300950Y-15577621D01*
X14300950Y-15606193D01*
X14158093Y-15634764D01*
X14415236Y-15720479D02*
X14443807Y-15734764D01*
X14500950Y-15734764D01*
X14529521Y-15720479D01*
X14543807Y-15691907D01*
X14543807Y-15677621D01*
X14529521Y-15649050D01*
X14500950Y-15634764D01*
X14458093Y-15634764D01*
X14429521Y-15620479D01*
X14415236Y-15591907D01*
X14415236Y-15577621D01*
X14429521Y-15549050D01*
X14458093Y-15534764D01*
X14500950Y-15534764D01*
X14529521Y-15549050D01*
X14643807Y-15849050D02*
X14658093Y-15834764D01*
X14686664Y-15791907D01*
X14700950Y-15763336D01*
X14715236Y-15720479D01*
X14729521Y-15649050D01*
X14729521Y-15591907D01*
X14715236Y-15520479D01*
X14700950Y-15477621D01*
X14686664Y-15449050D01*
X14658093Y-15406193D01*
X14643807Y-15391907D01*
X7550912Y-15945012D02*
X7550912Y-16045088D01*
X7500874Y-15995050D02*
X7600950Y-15995050D01*
X8029521Y-16130764D02*
X7858093Y-16130764D01*
X7943807Y-16130764D02*
X7943807Y-15830764D01*
X7915236Y-15873621D01*
X7886664Y-15902193D01*
X7858093Y-15916479D01*
X8158093Y-16102193D02*
X8172378Y-16116479D01*
X8158093Y-16130764D01*
X8143807Y-16116479D01*
X8158093Y-16102193D01*
X8158093Y-16130764D01*
X8358093Y-15830764D02*
X8386664Y-15830764D01*
X8415236Y-15845050D01*
X8429521Y-15859336D01*
X8443807Y-15887907D01*
X8458093Y-15945050D01*
X8458093Y-16016479D01*
X8443807Y-16073621D01*
X8429521Y-16102193D01*
X8415236Y-16116479D01*
X8386664Y-16130764D01*
X8358093Y-16130764D01*
X8329521Y-16116479D01*
X8315236Y-16102193D01*
X8300950Y-16073621D01*
X8286664Y-16016479D01*
X8286664Y-15945050D01*
X8300950Y-15887907D01*
X8315236Y-15859336D01*
X8329521Y-15845050D01*
X8358093Y-15830764D01*
X8643807Y-15830764D02*
X8672379Y-15830764D01*
X8700950Y-15845050D01*
X8715236Y-15859336D01*
X8729521Y-15887907D01*
X8743807Y-15945050D01*
X8743807Y-16016479D01*
X8729521Y-16073621D01*
X8715236Y-16102193D01*
X8700950Y-16116479D01*
X8672379Y-16130764D01*
X8643807Y-16130764D01*
X8615236Y-16116479D01*
X8600950Y-16102193D01*
X8586664Y-16073621D01*
X8572379Y-16016479D01*
X8572379Y-15945050D01*
X8586664Y-15887907D01*
X8600950Y-15859336D01*
X8615236Y-15845050D01*
X8643807Y-15830764D01*
X8872379Y-16130764D02*
X8872379Y-15930764D01*
X8872379Y-15959336D02*
X8886664Y-15945050D01*
X8915236Y-15930764D01*
X8958093Y-15930764D01*
X8986664Y-15945050D01*
X9000950Y-15973621D01*
X9000950Y-16130764D01*
X9000950Y-15973621D02*
X9015236Y-15945050D01*
X9043807Y-15930764D01*
X9086664Y-15930764D01*
X9115236Y-15945050D01*
X9129521Y-15973621D01*
X9129521Y-16130764D01*
X9272379Y-16130764D02*
X9272379Y-15930764D01*
X9272379Y-15959336D02*
X9286664Y-15945050D01*
X9315236Y-15930764D01*
X9358093Y-15930764D01*
X9386664Y-15945050D01*
X9400950Y-15973621D01*
X9400950Y-16130764D01*
X9400950Y-15973621D02*
X9415236Y-15945050D01*
X9443807Y-15930764D01*
X9486664Y-15930764D01*
X9515236Y-15945050D01*
X9529521Y-15973621D01*
X9529521Y-16130764D01*
X10115236Y-15816479D02*
X9858093Y-16202193D01*
X10500950Y-15830764D02*
X10529521Y-15830764D01*
X10558093Y-15845050D01*
X10572378Y-15859336D01*
X10586664Y-15887907D01*
X10600950Y-15945050D01*
X10600950Y-16016479D01*
X10586664Y-16073621D01*
X10572378Y-16102193D01*
X10558093Y-16116479D01*
X10529521Y-16130764D01*
X10500950Y-16130764D01*
X10472378Y-16116479D01*
X10458093Y-16102193D01*
X10443807Y-16073621D01*
X10429521Y-16016479D01*
X10429521Y-15945050D01*
X10443807Y-15887907D01*
X10458093Y-15859336D01*
X10472378Y-15845050D01*
X10500950Y-15830764D01*
X10729521Y-16102193D02*
X10743807Y-16116479D01*
X10729521Y-16130764D01*
X10715236Y-16116479D01*
X10729521Y-16102193D01*
X10729521Y-16130764D01*
X10929521Y-15830764D02*
X10958093Y-15830764D01*
X10986664Y-15845050D01*
X11000950Y-15859336D01*
X11015236Y-15887907D01*
X11029521Y-15945050D01*
X11029521Y-16016479D01*
X11015236Y-16073621D01*
X11000950Y-16102193D01*
X10986664Y-16116479D01*
X10958093Y-16130764D01*
X10929521Y-16130764D01*
X10900950Y-16116479D01*
X10886664Y-16102193D01*
X10872378Y-16073621D01*
X10858093Y-16016479D01*
X10858093Y-15945050D01*
X10872378Y-15887907D01*
X10886664Y-15859336D01*
X10900950Y-15845050D01*
X10929521Y-15830764D01*
X11129521Y-15830764D02*
X11315235Y-15830764D01*
X11215235Y-15945050D01*
X11258093Y-15945050D01*
X11286664Y-15959336D01*
X11300950Y-15973621D01*
X11315235Y-16002193D01*
X11315235Y-16073621D01*
X11300950Y-16102193D01*
X11286664Y-16116479D01*
X11258093Y-16130764D01*
X11172378Y-16130764D01*
X11143807Y-16116479D01*
X11129521Y-16102193D01*
X11458093Y-16130764D02*
X11515235Y-16130764D01*
X11543807Y-16116479D01*
X11558093Y-16102193D01*
X11586664Y-16059336D01*
X11600950Y-16002193D01*
X11600950Y-15887907D01*
X11586664Y-15859336D01*
X11572378Y-15845050D01*
X11543807Y-15830764D01*
X11486664Y-15830764D01*
X11458093Y-15845050D01*
X11443807Y-15859336D01*
X11429521Y-15887907D01*
X11429521Y-15959336D01*
X11443807Y-15987907D01*
X11458093Y-16002193D01*
X11486664Y-16016479D01*
X11543807Y-16016479D01*
X11572378Y-16002193D01*
X11586664Y-15987907D01*
X11600950Y-15959336D01*
X11715236Y-15830764D02*
X11715236Y-15887907D01*
X11829521Y-15830764D02*
X11829521Y-15887907D01*
X12272378Y-16245050D02*
X12258093Y-16230764D01*
X12229521Y-16187907D01*
X12215235Y-16159336D01*
X12200950Y-16116479D01*
X12186664Y-16045050D01*
X12186664Y-15987907D01*
X12200950Y-15916479D01*
X12215235Y-15873621D01*
X12229521Y-15845050D01*
X12258093Y-15802193D01*
X12272378Y-15787907D01*
X12372378Y-15859336D02*
X12386664Y-15845050D01*
X12415235Y-15830764D01*
X12486664Y-15830764D01*
X12515235Y-15845050D01*
X12529521Y-15859336D01*
X12543807Y-15887907D01*
X12543807Y-15916479D01*
X12529521Y-15959336D01*
X12358093Y-16130764D01*
X12543807Y-16130764D01*
X12729521Y-15830764D02*
X12758093Y-15830764D01*
X12786664Y-15845050D01*
X12800950Y-15859336D01*
X12815235Y-15887907D01*
X12829521Y-15945050D01*
X12829521Y-16016479D01*
X12815235Y-16073621D01*
X12800950Y-16102193D01*
X12786664Y-16116479D01*
X12758093Y-16130764D01*
X12729521Y-16130764D01*
X12700950Y-16116479D01*
X12686664Y-16102193D01*
X12672378Y-16073621D01*
X12658093Y-16016479D01*
X12658093Y-15945050D01*
X12672378Y-15887907D01*
X12686664Y-15859336D01*
X12700950Y-15845050D01*
X12729521Y-15830764D01*
X13186664Y-16130764D02*
X13186664Y-15830764D01*
X13315235Y-16130764D02*
X13315235Y-15973621D01*
X13300950Y-15945050D01*
X13272378Y-15930764D01*
X13229521Y-15930764D01*
X13200950Y-15945050D01*
X13186664Y-15959336D01*
X13500950Y-16130764D02*
X13472378Y-16116479D01*
X13458093Y-16102193D01*
X13443807Y-16073621D01*
X13443807Y-15987907D01*
X13458093Y-15959336D01*
X13472378Y-15945050D01*
X13500950Y-15930764D01*
X13543807Y-15930764D01*
X13572378Y-15945050D01*
X13586664Y-15959336D01*
X13600950Y-15987907D01*
X13600950Y-16073621D01*
X13586664Y-16102193D01*
X13572378Y-16116479D01*
X13543807Y-16130764D01*
X13500950Y-16130764D01*
X13772378Y-16130764D02*
X13743807Y-16116479D01*
X13729521Y-16087907D01*
X13729521Y-15830764D01*
X14000950Y-16116479D02*
X13972378Y-16130764D01*
X13915236Y-16130764D01*
X13886664Y-16116479D01*
X13872378Y-16087907D01*
X13872378Y-15973621D01*
X13886664Y-15945050D01*
X13915236Y-15930764D01*
X13972378Y-15930764D01*
X14000950Y-15945050D01*
X14015236Y-15973621D01*
X14015236Y-16002193D01*
X13872378Y-16030764D01*
X14129521Y-16116479D02*
X14158093Y-16130764D01*
X14215236Y-16130764D01*
X14243807Y-16116479D01*
X14258093Y-16087907D01*
X14258093Y-16073621D01*
X14243807Y-16045050D01*
X14215236Y-16030764D01*
X14172378Y-16030764D01*
X14143807Y-16016479D01*
X14129521Y-15987907D01*
X14129521Y-15973621D01*
X14143807Y-15945050D01*
X14172378Y-15930764D01*
X14215236Y-15930764D01*
X14243807Y-15945050D01*
X14358093Y-16245050D02*
X14372378Y-16230764D01*
X14400950Y-16187907D01*
X14415236Y-16159336D01*
X14429521Y-16116479D01*
X14443807Y-16045050D01*
X14443807Y-15987907D01*
X14429521Y-15916479D01*
X14415236Y-15873621D01*
X14400950Y-15845050D01*
X14372378Y-15802193D01*
X14358093Y-15787907D01*
X7549693Y-16514799D02*
X7549693Y-16267301D01*
X7302195Y-16267301D01*
X7302195Y-16514799D01*
X7549693Y-16514799D01*
X7843807Y-16226764D02*
X8029521Y-16226764D01*
X7929521Y-16341050D01*
X7972378Y-16341050D01*
X8000950Y-16355336D01*
X8015236Y-16369621D01*
X8029521Y-16398193D01*
X8029521Y-16469621D01*
X8015236Y-16498193D01*
X8000950Y-16512479D01*
X7972378Y-16526764D01*
X7886664Y-16526764D01*
X7858093Y-16512479D01*
X7843807Y-16498193D01*
X8158093Y-16498193D02*
X8172378Y-16512479D01*
X8158093Y-16526764D01*
X8143807Y-16512479D01*
X8158093Y-16498193D01*
X8158093Y-16526764D01*
X8443807Y-16226764D02*
X8300950Y-16226764D01*
X8286664Y-16369621D01*
X8300950Y-16355336D01*
X8329521Y-16341050D01*
X8400950Y-16341050D01*
X8429521Y-16355336D01*
X8443807Y-16369621D01*
X8458093Y-16398193D01*
X8458093Y-16469621D01*
X8443807Y-16498193D01*
X8429521Y-16512479D01*
X8400950Y-16526764D01*
X8329521Y-16526764D01*
X8300950Y-16512479D01*
X8286664Y-16498193D01*
X8643807Y-16226764D02*
X8672379Y-16226764D01*
X8700950Y-16241050D01*
X8715236Y-16255336D01*
X8729521Y-16283907D01*
X8743807Y-16341050D01*
X8743807Y-16412479D01*
X8729521Y-16469621D01*
X8715236Y-16498193D01*
X8700950Y-16512479D01*
X8672379Y-16526764D01*
X8643807Y-16526764D01*
X8615236Y-16512479D01*
X8600950Y-16498193D01*
X8586664Y-16469621D01*
X8572379Y-16412479D01*
X8572379Y-16341050D01*
X8586664Y-16283907D01*
X8600950Y-16255336D01*
X8615236Y-16241050D01*
X8643807Y-16226764D01*
X8872379Y-16526764D02*
X8872379Y-16326764D01*
X8872379Y-16355336D02*
X8886664Y-16341050D01*
X8915236Y-16326764D01*
X8958093Y-16326764D01*
X8986664Y-16341050D01*
X9000950Y-16369621D01*
X9000950Y-16526764D01*
X9000950Y-16369621D02*
X9015236Y-16341050D01*
X9043807Y-16326764D01*
X9086664Y-16326764D01*
X9115236Y-16341050D01*
X9129521Y-16369621D01*
X9129521Y-16526764D01*
X9272379Y-16526764D02*
X9272379Y-16326764D01*
X9272379Y-16355336D02*
X9286664Y-16341050D01*
X9315236Y-16326764D01*
X9358093Y-16326764D01*
X9386664Y-16341050D01*
X9400950Y-16369621D01*
X9400950Y-16526764D01*
X9400950Y-16369621D02*
X9415236Y-16341050D01*
X9443807Y-16326764D01*
X9486664Y-16326764D01*
X9515236Y-16341050D01*
X9529521Y-16369621D01*
X9529521Y-16526764D01*
X10115236Y-16212479D02*
X9858093Y-16598193D01*
X10500950Y-16226764D02*
X10529521Y-16226764D01*
X10558093Y-16241050D01*
X10572378Y-16255336D01*
X10586664Y-16283907D01*
X10600950Y-16341050D01*
X10600950Y-16412479D01*
X10586664Y-16469621D01*
X10572378Y-16498193D01*
X10558093Y-16512479D01*
X10529521Y-16526764D01*
X10500950Y-16526764D01*
X10472378Y-16512479D01*
X10458093Y-16498193D01*
X10443807Y-16469621D01*
X10429521Y-16412479D01*
X10429521Y-16341050D01*
X10443807Y-16283907D01*
X10458093Y-16255336D01*
X10472378Y-16241050D01*
X10500950Y-16226764D01*
X10729521Y-16498193D02*
X10743807Y-16512479D01*
X10729521Y-16526764D01*
X10715236Y-16512479D01*
X10729521Y-16498193D01*
X10729521Y-16526764D01*
X11029521Y-16526764D02*
X10858093Y-16526764D01*
X10943807Y-16526764D02*
X10943807Y-16226764D01*
X10915236Y-16269621D01*
X10886664Y-16298193D01*
X10858093Y-16312479D01*
X11129521Y-16226764D02*
X11315235Y-16226764D01*
X11215235Y-16341050D01*
X11258093Y-16341050D01*
X11286664Y-16355336D01*
X11300950Y-16369621D01*
X11315235Y-16398193D01*
X11315235Y-16469621D01*
X11300950Y-16498193D01*
X11286664Y-16512479D01*
X11258093Y-16526764D01*
X11172378Y-16526764D01*
X11143807Y-16512479D01*
X11129521Y-16498193D01*
X11486664Y-16355336D02*
X11458093Y-16341050D01*
X11443807Y-16326764D01*
X11429521Y-16298193D01*
X11429521Y-16283907D01*
X11443807Y-16255336D01*
X11458093Y-16241050D01*
X11486664Y-16226764D01*
X11543807Y-16226764D01*
X11572378Y-16241050D01*
X11586664Y-16255336D01*
X11600950Y-16283907D01*
X11600950Y-16298193D01*
X11586664Y-16326764D01*
X11572378Y-16341050D01*
X11543807Y-16355336D01*
X11486664Y-16355336D01*
X11458093Y-16369621D01*
X11443807Y-16383907D01*
X11429521Y-16412479D01*
X11429521Y-16469621D01*
X11443807Y-16498193D01*
X11458093Y-16512479D01*
X11486664Y-16526764D01*
X11543807Y-16526764D01*
X11572378Y-16512479D01*
X11586664Y-16498193D01*
X11600950Y-16469621D01*
X11600950Y-16412479D01*
X11586664Y-16383907D01*
X11572378Y-16369621D01*
X11543807Y-16355336D01*
X11715236Y-16226764D02*
X11715236Y-16283907D01*
X11829521Y-16226764D02*
X11829521Y-16283907D01*
X12272378Y-16641050D02*
X12258093Y-16626764D01*
X12229521Y-16583907D01*
X12215235Y-16555336D01*
X12200950Y-16512479D01*
X12186664Y-16441050D01*
X12186664Y-16383907D01*
X12200950Y-16312479D01*
X12215235Y-16269621D01*
X12229521Y-16241050D01*
X12258093Y-16198193D01*
X12272378Y-16183907D01*
X12515235Y-16326764D02*
X12515235Y-16526764D01*
X12443807Y-16212479D02*
X12372378Y-16426764D01*
X12558093Y-16426764D01*
X12900950Y-16526764D02*
X12900950Y-16226764D01*
X13029521Y-16526764D02*
X13029521Y-16369621D01*
X13015235Y-16341050D01*
X12986664Y-16326764D01*
X12943807Y-16326764D01*
X12915235Y-16341050D01*
X12900950Y-16355336D01*
X13215235Y-16526764D02*
X13186664Y-16512479D01*
X13172378Y-16498193D01*
X13158093Y-16469621D01*
X13158093Y-16383907D01*
X13172378Y-16355336D01*
X13186664Y-16341050D01*
X13215235Y-16326764D01*
X13258093Y-16326764D01*
X13286664Y-16341050D01*
X13300950Y-16355336D01*
X13315235Y-16383907D01*
X13315235Y-16469621D01*
X13300950Y-16498193D01*
X13286664Y-16512479D01*
X13258093Y-16526764D01*
X13215235Y-16526764D01*
X13486664Y-16526764D02*
X13458093Y-16512479D01*
X13443807Y-16483907D01*
X13443807Y-16226764D01*
X13715236Y-16512479D02*
X13686664Y-16526764D01*
X13629521Y-16526764D01*
X13600950Y-16512479D01*
X13586664Y-16483907D01*
X13586664Y-16369621D01*
X13600950Y-16341050D01*
X13629521Y-16326764D01*
X13686664Y-16326764D01*
X13715236Y-16341050D01*
X13729521Y-16369621D01*
X13729521Y-16398193D01*
X13586664Y-16426764D01*
X13843807Y-16512479D02*
X13872378Y-16526764D01*
X13929521Y-16526764D01*
X13958093Y-16512479D01*
X13972378Y-16483907D01*
X13972378Y-16469621D01*
X13958093Y-16441050D01*
X13929521Y-16426764D01*
X13886664Y-16426764D01*
X13858093Y-16412479D01*
X13843807Y-16383907D01*
X13843807Y-16369621D01*
X13858093Y-16341050D01*
X13886664Y-16326764D01*
X13929521Y-16326764D01*
X13958093Y-16341050D01*
X14072378Y-16641050D02*
X14086664Y-16626764D01*
X14115236Y-16583907D01*
X14129521Y-16555336D01*
X14143807Y-16512479D01*
X14158093Y-16441050D01*
X14158093Y-16383907D01*
X14143807Y-16312479D01*
X14129521Y-16269621D01*
X14115236Y-16241050D01*
X14086664Y-16198193D01*
X14072378Y-16183907D01*
M02*
