M48
;DRILL file {KiCad 4.0.5+dfsg1-4} date Wed May 24 14:08:00 2017
;FORMAT={-:-/ absolute / inch / decimal}
FMAT,2
INCH,TZ
T1C0.032
T2C0.032
T3C0.039
T4C0.138
%
G90
G05
M72
T1
X3.65Y-2.625
X3.65Y-3.5
X3.75Y-2.625
X3.75Y-3.4
X3.85Y-3.2
X3.85Y-4.6
X3.915Y-3.9
X3.915Y-4.8
X3.925Y-2.7
X3.925Y-3.5
X3.99Y-4.
X3.99Y-4.7
X4.05Y-2.775
X4.05Y-3.4
X4.065Y-4.1
X4.065Y-4.8
X4.125Y-2.85
X4.125Y-3.5
X4.14Y-4.2
X4.14Y-4.68
X4.2Y-2.925
X4.2Y-3.4
X4.2Y-4.3
X4.2Y-4.825
X4.26Y-4.425
X4.26Y-4.74
X4.275Y-3.
X4.275Y-3.5
X4.325Y-4.35
X4.325Y-4.65
X4.58Y-3.125
X4.58Y-3.4
X4.6Y-4.3
X4.6Y-5.4
X4.675Y-4.2
X4.7Y-4.4
X4.7Y-5.2
X4.825Y-4.3
X4.825Y-4.375
X4.825Y-5.05
X4.825Y-5.125
X4.825Y-5.5
X5.4Y-4.1
X5.4Y-4.95
X5.475Y-3.1
X5.475Y-3.3
X5.95Y-3.3
X5.95Y-3.65
X6.225Y-3.275
X6.225Y-3.525
X6.225Y-3.7
X6.225Y-3.825
X6.225Y-3.9
X6.225Y-5.3
X6.3Y-4.1
X6.3Y-4.8
X6.3Y-4.9
X6.3Y-5.1
X6.325Y-3.6
X6.325Y-3.85
X6.375Y-4.
X6.375Y-4.75
X6.425Y-3.1
X6.425Y-4.275
X6.5Y-3.375
X6.5Y-3.65
X6.5Y-3.95
X6.5Y-4.475
X6.525Y-4.625
X6.525Y-4.95
X6.55Y-3.85
X6.55Y-4.55
X6.6Y-5.
X6.6Y-5.5
X6.75Y-5.05
X6.775Y-3.25
X6.775Y-3.4
X6.8Y-4.2
X6.8Y-4.45
X6.825Y-4.8
X7.025Y-3.95
X7.025Y-4.225
X7.025Y-4.6
X7.025Y-5.3
X7.125Y-4.15
X7.125Y-4.3
X7.125Y-4.9
X7.125Y-5.5
X7.325Y-4.825
X7.325Y-5.275
X7.35Y-3.925
X7.35Y-4.1
X7.37Y-4.52
X7.37Y-4.71
X7.375Y-3.1
X7.375Y-3.575
X7.39Y-4.77
X7.39Y-4.965
X7.44Y-4.34
X7.44Y-5.2
X7.475Y-3.4
X7.475Y-3.7
X7.575Y-3.475
X7.575Y-3.875
X7.6Y-3.975
X7.6Y-4.85
X7.65Y-4.45
X7.675Y-3.575
X7.675Y-3.975
X7.675Y-5.
X7.725Y-4.565
X7.725Y-5.35
X7.8Y-3.8
X7.8Y-4.375
X7.875Y-3.9
X7.875Y-4.5
X7.95Y-3.975
X7.95Y-4.6
X7.95Y-4.685
X7.95Y-5.25
X8.025Y-4.1
X8.025Y-4.725
X8.025Y-5.05
X8.225Y-4.2
X8.225Y-4.9
X8.325Y-3.3
X8.325Y-3.85
X8.325Y-4.15
X8.325Y-4.75
X8.555Y-4.3
X8.56Y-3.4
X8.56Y-3.5
X8.56Y-3.6
X8.56Y-3.695
X8.56Y-3.8
X8.56Y-3.895
X8.56Y-4.
X8.7Y-4.
X8.775Y-3.9
X8.85Y-3.8
X8.85Y-4.3
X8.925Y-3.7
X9.Y-3.6
X9.075Y-3.5
X9.15Y-3.4
T2
X4.425Y-3.3
X4.425Y-3.4
X4.425Y-3.5
X4.425Y-3.6
X4.425Y-3.7
X4.425Y-3.8
X4.425Y-3.9
X4.425Y-4.
X4.425Y-4.1
X4.425Y-4.2
X4.425Y-4.3
X4.425Y-4.4
X4.425Y-4.5
X4.425Y-4.6
X4.425Y-4.7
X4.425Y-4.8
X4.425Y-4.9
X4.425Y-5.
X4.425Y-5.1
X4.425Y-5.2
X5.025Y-3.3
X5.025Y-3.4
X5.025Y-3.5
X5.025Y-3.6
X5.025Y-3.7
X5.025Y-3.8
X5.025Y-3.9
X5.025Y-4.
X5.025Y-4.1
X5.025Y-4.2
X5.025Y-4.3
X5.025Y-4.4
X5.025Y-4.5
X5.025Y-4.6
X5.025Y-4.7
X5.025Y-4.8
X5.025Y-4.9
X5.025Y-5.
X5.025Y-5.1
X5.025Y-5.2
X5.225Y-3.3
X5.225Y-3.4
X5.225Y-3.5
X5.225Y-3.6
X5.225Y-3.7
X5.225Y-3.8
X5.225Y-3.9
X5.225Y-4.
X5.225Y-4.1
X5.225Y-4.2
X5.225Y-4.3
X5.225Y-4.4
X5.225Y-4.5
X5.225Y-4.6
X5.225Y-4.7
X5.225Y-4.8
X5.225Y-4.9
X5.225Y-5.
X5.225Y-5.1
X5.225Y-5.2
X5.825Y-3.3
X5.825Y-3.4
X5.825Y-3.5
X5.825Y-3.6
X5.825Y-3.7
X5.825Y-3.8
X5.825Y-3.9
X5.825Y-4.
X5.825Y-4.1
X5.825Y-4.2
X5.825Y-4.3
X5.825Y-4.4
X5.825Y-4.5
X5.825Y-4.6
X5.825Y-4.7
X5.825Y-4.8
X5.825Y-4.9
X5.825Y-5.
X5.825Y-5.1
X5.825Y-5.2
X6.075Y-3.3
X6.075Y-3.4
X6.075Y-3.5
X6.075Y-3.6
X6.075Y-3.7
X6.075Y-3.8
X6.075Y-3.9
X6.075Y-4.
X6.075Y-4.1
X6.075Y-4.2
X6.075Y-4.3
X6.075Y-4.4
X6.075Y-4.5
X6.075Y-4.6
X6.075Y-4.7
X6.075Y-4.8
X6.125Y-5.
X6.125Y-5.1
X6.125Y-5.2
X6.125Y-5.3
X6.425Y-5.
X6.425Y-5.1
X6.425Y-5.2
X6.425Y-5.3
X6.675Y-3.3
X6.675Y-3.4
X6.675Y-3.5
X6.675Y-3.6
X6.675Y-3.7
X6.675Y-3.8
X6.675Y-3.9
X6.675Y-4.
X6.675Y-4.1
X6.675Y-4.2
X6.675Y-4.3
X6.675Y-4.4
X6.675Y-4.5
X6.675Y-4.6
X6.675Y-4.7
X6.675Y-4.8
X6.925Y-3.3
X6.925Y-3.4
X6.925Y-3.5
X6.925Y-3.6
X6.925Y-3.7
X6.925Y-3.8
X6.925Y-3.9
X6.925Y-4.
X6.925Y-4.1
X6.925Y-4.2
X6.925Y-4.3
X6.925Y-4.4
X6.925Y-4.5
X6.925Y-4.6
X6.925Y-4.9
X6.925Y-5.
X6.925Y-5.1
X6.925Y-5.2
X7.225Y-3.3
X7.225Y-3.4
X7.225Y-3.5
X7.225Y-3.6
X7.225Y-3.7
X7.225Y-3.8
X7.225Y-3.9
X7.225Y-4.
X7.225Y-4.1
X7.225Y-4.2
X7.225Y-4.3
X7.225Y-4.4
X7.225Y-4.5
X7.225Y-4.6
X7.225Y-4.9
X7.225Y-5.
X7.225Y-5.1
X7.225Y-5.2
X7.525Y-4.75
X7.525Y-4.85
X7.525Y-4.95
X7.525Y-5.05
X7.525Y-5.15
X7.525Y-5.25
X7.525Y-5.35
X7.825Y-4.75
X7.825Y-4.85
X7.825Y-4.95
X7.825Y-5.05
X7.825Y-5.15
X7.825Y-5.25
X7.825Y-5.35
X8.125Y-3.3
X8.125Y-3.4
X8.125Y-3.5
X8.125Y-3.6
X8.125Y-3.7
X8.125Y-3.8
X8.125Y-3.9
X8.125Y-4.
X8.125Y-4.1
X8.125Y-4.2
X8.125Y-4.4
X8.125Y-4.5
X8.125Y-4.6
X8.125Y-4.7
X8.125Y-4.8
X8.125Y-4.9
X8.125Y-5.
X8.125Y-5.1
X8.125Y-5.2
X8.125Y-5.3
X8.425Y-3.3
X8.425Y-3.4
X8.425Y-3.5
X8.425Y-3.6
X8.425Y-3.7
X8.425Y-3.8
X8.425Y-3.9
X8.425Y-4.
X8.425Y-4.1
X8.425Y-4.2
X8.425Y-4.4
X8.425Y-4.5
X8.425Y-4.6
X8.425Y-4.7
X8.425Y-4.8
X8.425Y-4.9
X8.425Y-5.
X8.425Y-5.1
X8.425Y-5.2
X8.425Y-5.3
T3
X3.575Y-3.9
X3.575Y-4.
X3.575Y-4.1
X3.575Y-4.2
X3.575Y-4.3
X3.575Y-4.4
X3.575Y-4.5
X3.575Y-4.6
X3.575Y-4.7
X3.575Y-4.8
X3.675Y-3.9
X3.675Y-4.
X3.675Y-4.1
X3.675Y-4.2
X3.675Y-4.3
X3.675Y-4.4
X3.675Y-4.5
X3.675Y-4.6
X3.675Y-4.7
X3.675Y-4.8
T4
X3.2Y-2.675
X3.2Y-5.4
X9.075Y-2.675
X9.075Y-5.4
T0
M30
