G04 (created by PCBNEW-RS274X (2012-apr-16-27)-stable) date Ned 20 Lis 2013 22:46:23*
G01*
G70*
G90*
%MOIN*%
G04 Gerber Fmt 3.4, Leading zero omitted, Abs format*
%FSLAX34Y34*%
G04 APERTURE LIST*
%ADD10C,0.006000*%
%ADD11C,0.015000*%
%ADD12C,0.019700*%
%ADD13O,0.118100X0.063000*%
%ADD14O,0.118100X0.059100*%
%ADD15R,0.080000X0.060000*%
%ADD16R,0.118100X0.063000*%
%ADD17C,0.160000*%
%ADD18C,0.066900*%
%ADD19C,0.023600*%
%ADD20C,0.010000*%
G04 APERTURE END LIST*
G54D10*
G54D11*
X30000Y-24750D02*
X30000Y-56000D01*
X92750Y-24750D02*
X30000Y-24750D01*
X92750Y-56000D02*
X92750Y-24750D01*
X30000Y-56000D02*
X92750Y-56000D01*
G54D12*
X34106Y-49690D02*
X33825Y-50478D01*
X33544Y-49690D01*
X32475Y-50478D02*
X33150Y-50478D01*
X32813Y-50478D02*
X32813Y-49297D01*
X32925Y-49465D01*
X33038Y-49578D01*
X33150Y-49634D01*
X32081Y-49297D02*
X31294Y-49297D01*
X31800Y-50478D01*
X37984Y-53859D02*
X37815Y-53915D01*
X37759Y-53971D01*
X37703Y-54084D01*
X37703Y-54253D01*
X37759Y-54365D01*
X37815Y-54421D01*
X37928Y-54478D01*
X38378Y-54478D01*
X38378Y-53297D01*
X37984Y-53297D01*
X37872Y-53353D01*
X37815Y-53409D01*
X37759Y-53521D01*
X37759Y-53634D01*
X37815Y-53746D01*
X37872Y-53803D01*
X37984Y-53859D01*
X38378Y-53859D01*
X36972Y-53297D02*
X36747Y-53297D01*
X36634Y-53353D01*
X36522Y-53465D01*
X36466Y-53690D01*
X36466Y-54084D01*
X36522Y-54309D01*
X36634Y-54421D01*
X36747Y-54478D01*
X36972Y-54478D01*
X37084Y-54421D01*
X37197Y-54309D01*
X37253Y-54084D01*
X37253Y-53690D01*
X37197Y-53465D01*
X37084Y-53353D01*
X36972Y-53297D01*
X36129Y-53297D02*
X35454Y-53297D01*
X35791Y-54478D02*
X35791Y-53297D01*
G54D13*
X69250Y-34000D03*
X69250Y-35000D03*
X69250Y-36000D03*
X69250Y-37000D03*
X69250Y-38000D03*
X69250Y-39000D03*
X69250Y-40000D03*
X69250Y-41000D03*
X69250Y-42000D03*
X69250Y-43000D03*
X69250Y-44000D03*
X69250Y-45000D03*
X69250Y-46000D03*
X69250Y-33000D03*
X72250Y-46000D03*
X72250Y-45000D03*
X72250Y-44000D03*
X72250Y-43000D03*
X72250Y-42000D03*
X72250Y-41000D03*
X72250Y-40000D03*
X72250Y-39000D03*
X72250Y-38000D03*
X72250Y-37000D03*
X72250Y-36000D03*
X72250Y-35000D03*
X72250Y-34000D03*
X72250Y-33000D03*
X37006Y-48000D03*
X35494Y-48000D03*
X37006Y-47000D03*
X35494Y-47000D03*
X37006Y-46000D03*
X35494Y-46000D03*
X37006Y-45000D03*
X35494Y-45000D03*
X37006Y-44000D03*
X35494Y-44000D03*
X37006Y-43000D03*
X35494Y-43000D03*
X37006Y-42000D03*
X35494Y-42000D03*
X37006Y-41000D03*
X35494Y-41000D03*
X37006Y-40000D03*
X35494Y-40000D03*
X37006Y-39000D03*
X35494Y-39000D03*
X44250Y-33000D03*
X44250Y-34000D03*
X44250Y-35000D03*
X44250Y-36000D03*
X44250Y-37000D03*
X44250Y-38000D03*
X44250Y-39000D03*
X44250Y-40000D03*
X44250Y-41000D03*
X44250Y-42000D03*
X44250Y-43000D03*
X44250Y-44000D03*
X44250Y-45000D03*
X44250Y-46000D03*
X44250Y-47000D03*
X44250Y-48000D03*
X44250Y-49000D03*
X44250Y-50000D03*
X44250Y-51000D03*
X44250Y-52000D03*
X50250Y-52000D03*
X50250Y-51000D03*
X50250Y-50000D03*
X50250Y-49000D03*
X50250Y-48000D03*
X50250Y-47000D03*
X50250Y-46000D03*
X50250Y-45000D03*
X50250Y-44000D03*
X50250Y-43000D03*
X50250Y-42000D03*
X50250Y-41000D03*
X50250Y-40000D03*
X50250Y-39000D03*
X50250Y-38000D03*
X50250Y-37000D03*
X50250Y-36000D03*
X50250Y-35000D03*
X50250Y-34000D03*
X50250Y-33000D03*
X52250Y-33000D03*
X52250Y-34000D03*
X52250Y-35000D03*
X52250Y-36000D03*
X52250Y-37000D03*
X52250Y-38000D03*
X52250Y-39000D03*
X52250Y-40000D03*
X52250Y-41000D03*
X52250Y-42000D03*
X52250Y-43000D03*
X52250Y-44000D03*
X52250Y-45000D03*
X52250Y-46000D03*
X52250Y-47000D03*
X52250Y-48000D03*
X52250Y-49000D03*
X52250Y-50000D03*
X52250Y-51000D03*
X52250Y-52000D03*
X58250Y-52000D03*
X58250Y-51000D03*
X58250Y-50000D03*
X58250Y-49000D03*
X58250Y-48000D03*
X58250Y-47000D03*
X58250Y-46000D03*
X58250Y-45000D03*
X58250Y-44000D03*
X58250Y-43000D03*
X58250Y-42000D03*
X58250Y-41000D03*
X58250Y-40000D03*
X58250Y-39000D03*
X58250Y-38000D03*
X58250Y-37000D03*
X58250Y-36000D03*
X58250Y-35000D03*
X58250Y-34000D03*
X58250Y-33000D03*
X81250Y-33000D03*
X81250Y-34000D03*
X81250Y-35000D03*
X81250Y-36000D03*
X81250Y-37000D03*
X81250Y-38000D03*
X81250Y-39000D03*
X81250Y-40000D03*
X81250Y-41000D03*
X81250Y-42000D03*
X84250Y-42000D03*
X84250Y-41000D03*
X84250Y-40000D03*
X84250Y-39000D03*
X84250Y-38000D03*
X84250Y-37000D03*
X84250Y-36000D03*
X84250Y-35000D03*
X84250Y-34000D03*
X84250Y-33000D03*
X81250Y-44000D03*
X81250Y-45000D03*
X81250Y-46000D03*
X81250Y-47000D03*
X81250Y-48000D03*
X81250Y-49000D03*
X81250Y-50000D03*
X81250Y-51000D03*
X81250Y-52000D03*
X81250Y-53000D03*
X84250Y-53000D03*
X84250Y-52000D03*
X84250Y-51000D03*
X84250Y-50000D03*
X84250Y-49000D03*
X84250Y-48000D03*
X84250Y-47000D03*
X84250Y-46000D03*
X84250Y-45000D03*
X84250Y-44000D03*
X69250Y-49000D03*
X69250Y-50000D03*
X69250Y-51000D03*
X69250Y-52000D03*
X72250Y-52000D03*
X72250Y-51000D03*
X72250Y-50000D03*
X72250Y-49000D03*
X61250Y-50000D03*
X61250Y-51000D03*
X61250Y-52000D03*
X61250Y-53000D03*
X64250Y-53000D03*
X64250Y-52000D03*
X64250Y-51000D03*
X64250Y-50000D03*
X60750Y-33000D03*
X60750Y-34000D03*
X60750Y-35000D03*
X60750Y-36000D03*
X60750Y-37000D03*
X60750Y-38000D03*
X60750Y-39000D03*
X60750Y-40000D03*
X60750Y-41000D03*
X60750Y-42000D03*
X60750Y-43000D03*
X60750Y-44000D03*
X60750Y-45000D03*
X60750Y-46000D03*
X60750Y-47000D03*
X60750Y-48000D03*
X66750Y-48000D03*
X66750Y-47000D03*
X66750Y-46000D03*
X66750Y-45000D03*
X66750Y-44000D03*
G54D14*
X66750Y-43000D03*
G54D13*
X66750Y-42000D03*
X66750Y-41000D03*
X66750Y-40000D03*
X66750Y-39000D03*
X66750Y-38000D03*
X66750Y-37000D03*
G54D14*
X66750Y-36000D03*
G54D13*
X66750Y-35000D03*
X66750Y-34000D03*
X66750Y-33000D03*
G54D15*
X80250Y-55150D03*
X80250Y-53850D03*
X85750Y-55150D03*
X85750Y-53850D03*
X59250Y-55150D03*
X59250Y-53850D03*
X64250Y-46150D03*
X64250Y-44850D03*
X43500Y-55150D03*
X43500Y-53850D03*
G54D16*
X75250Y-47500D03*
G54D13*
X75250Y-48500D03*
X75250Y-49500D03*
X75250Y-50500D03*
X75250Y-51500D03*
X75250Y-52500D03*
X75250Y-53500D03*
X78250Y-53500D03*
X78250Y-52500D03*
X78250Y-51500D03*
X78250Y-50500D03*
X78250Y-49500D03*
X78250Y-48500D03*
X78250Y-47500D03*
G54D17*
X32000Y-26750D03*
X90750Y-26750D03*
X90750Y-54000D03*
X32000Y-54000D03*
G54D18*
X79500Y-46000D03*
X41400Y-46800D03*
X79500Y-39750D03*
X41400Y-42000D03*
X54750Y-31000D03*
X64250Y-42750D03*
X38500Y-46000D03*
X73750Y-31000D03*
X38500Y-32000D03*
X54750Y-33000D03*
X64250Y-31000D03*
X73750Y-35750D03*
X76000Y-48500D03*
X47000Y-52000D03*
X76750Y-35750D03*
X76750Y-39750D03*
X76000Y-39750D03*
X47000Y-44000D03*
X63750Y-40000D03*
X63750Y-47500D03*
X70250Y-53000D03*
X70250Y-46000D03*
X85600Y-40000D03*
X63000Y-41000D03*
X45800Y-31250D03*
X63000Y-48000D03*
X77250Y-53500D03*
X67500Y-50500D03*
X45800Y-34000D03*
X87000Y-40000D03*
X68250Y-48000D03*
X77250Y-45650D03*
X73900Y-47700D03*
X85600Y-38950D03*
X73700Y-45200D03*
X42750Y-30000D03*
X63000Y-51000D03*
X73900Y-49650D03*
X79500Y-46850D03*
X63000Y-49000D03*
X73700Y-47100D03*
X79500Y-52500D03*
X87750Y-39000D03*
X42750Y-35000D03*
X68000Y-42000D03*
X42000Y-29250D03*
X85550Y-43000D03*
X68000Y-44500D03*
X42000Y-34000D03*
X88500Y-43000D03*
X85600Y-38000D03*
X88500Y-38000D03*
X89250Y-37000D03*
X71250Y-41500D03*
X71250Y-43000D03*
X41250Y-35000D03*
X85600Y-36950D03*
X41250Y-28500D03*
X40500Y-34000D03*
X85600Y-36000D03*
X40500Y-27750D03*
X70250Y-39500D03*
X90000Y-36000D03*
X70250Y-42250D03*
X85600Y-35000D03*
X75750Y-34750D03*
X75750Y-38750D03*
X39250Y-35000D03*
X90750Y-35000D03*
X39250Y-27000D03*
X91500Y-34000D03*
X74750Y-37000D03*
X74750Y-34000D03*
X37500Y-34000D03*
X85600Y-34000D03*
X37500Y-26250D03*
X78000Y-38000D03*
X62250Y-35250D03*
X78000Y-43750D03*
X62250Y-32750D03*
X42600Y-47400D03*
X42600Y-44250D03*
X39150Y-39000D03*
X76500Y-44500D03*
X76750Y-50000D03*
X39150Y-48000D03*
X43250Y-46500D03*
X43250Y-43500D03*
X73250Y-48250D03*
X54000Y-41000D03*
X36500Y-35000D03*
X67750Y-32500D03*
X36500Y-26250D03*
X54000Y-49500D03*
X73250Y-52750D03*
X67750Y-34000D03*
X65500Y-45500D03*
X71250Y-55000D03*
X83250Y-33000D03*
X83250Y-38500D03*
X65250Y-46250D03*
X73500Y-41000D03*
X59500Y-36500D03*
X63250Y-36000D03*
X63250Y-38500D03*
X65500Y-38500D03*
X66000Y-55000D03*
X48250Y-51250D03*
X65250Y-49500D03*
X48250Y-43750D03*
X48250Y-55000D03*
X48250Y-50500D03*
X66000Y-50000D03*
X73500Y-39250D03*
X48250Y-43000D03*
X46750Y-42000D03*
X83250Y-41500D03*
X71250Y-49000D03*
X83250Y-47500D03*
X59500Y-33000D03*
X42000Y-43000D03*
X78750Y-39000D03*
X65000Y-36500D03*
X78750Y-45000D03*
X42000Y-48250D03*
X65000Y-33750D03*
X40650Y-48000D03*
X80250Y-50500D03*
X80250Y-41000D03*
X80250Y-47250D03*
X40650Y-41000D03*
X39900Y-40000D03*
X74400Y-52000D03*
X39900Y-47000D03*
X74400Y-43400D03*
X82250Y-42000D03*
X62250Y-39000D03*
X82250Y-49000D03*
X65000Y-44750D03*
X46000Y-54000D03*
X65000Y-39500D03*
X46000Y-43000D03*
X62250Y-37000D03*
X62250Y-53000D03*
X62250Y-38250D03*
G54D19*
X52250Y-46000D02*
X53000Y-46000D01*
X79500Y-46000D02*
X79500Y-46000D01*
X57000Y-41750D02*
X57000Y-43500D01*
X60000Y-37500D02*
X61250Y-37500D01*
X57000Y-41750D02*
X57000Y-38750D01*
X51750Y-46000D02*
X52250Y-46000D01*
X41400Y-46800D02*
X41379Y-48876D01*
X59250Y-38500D02*
X60000Y-37500D01*
X81250Y-46000D02*
X79500Y-46000D01*
X52250Y-46000D02*
X52750Y-46000D01*
X80250Y-39750D02*
X80500Y-40000D01*
X57000Y-43500D02*
X59250Y-43500D01*
X61750Y-37500D02*
X62250Y-37500D01*
X69250Y-38000D02*
X68100Y-38000D01*
X55500Y-43500D02*
X57000Y-43500D01*
X44250Y-50000D02*
X45250Y-50000D01*
X57000Y-38750D02*
X57250Y-38500D01*
X51250Y-46500D02*
X51750Y-46000D01*
X70500Y-38000D02*
X71000Y-37500D01*
X71000Y-37500D02*
X73500Y-37500D01*
X67600Y-37500D02*
X68100Y-38000D01*
X36750Y-42000D02*
X41400Y-42000D01*
X53000Y-46000D02*
X55500Y-43500D01*
X69250Y-38000D02*
X70500Y-38000D01*
X79500Y-39750D02*
X80250Y-39750D01*
X48750Y-46500D02*
X51250Y-46500D01*
X73750Y-37750D02*
X75750Y-37750D01*
X59750Y-44000D02*
X60750Y-44000D01*
X41379Y-48876D02*
X42750Y-50000D01*
X80500Y-40000D02*
X81250Y-40000D01*
X62250Y-37500D02*
X67600Y-37500D01*
X45250Y-50000D02*
X48750Y-46500D01*
X57250Y-38500D02*
X59250Y-38500D01*
X75750Y-37750D02*
X77750Y-39750D01*
X73500Y-37500D02*
X73750Y-37750D01*
X61250Y-37500D02*
X61750Y-37500D01*
X77750Y-39750D02*
X79500Y-39750D01*
X59250Y-43500D02*
X59750Y-44000D01*
X42750Y-50000D02*
X44250Y-50000D01*
X50250Y-32000D02*
X50250Y-33000D01*
X38500Y-46000D02*
X36750Y-46000D01*
X60750Y-43000D02*
X61750Y-43000D01*
X54750Y-33750D02*
X55000Y-34000D01*
X61750Y-43000D02*
X62000Y-42750D01*
X73750Y-31000D02*
X64250Y-31000D01*
X72250Y-36000D02*
X73500Y-36000D01*
X54750Y-31000D02*
X64250Y-31000D01*
X50250Y-32000D02*
X50000Y-32000D01*
X57750Y-34000D02*
X58250Y-34000D01*
X50250Y-32000D02*
X51250Y-31000D01*
X73500Y-36000D02*
X73750Y-35750D01*
X51250Y-31000D02*
X54750Y-31000D01*
X55000Y-34000D02*
X58250Y-34000D01*
X38500Y-32000D02*
X50000Y-32000D01*
X54750Y-33000D02*
X54750Y-33750D01*
X62000Y-42750D02*
X64250Y-42750D01*
X43750Y-45000D02*
X44250Y-45000D01*
X66500Y-52500D02*
X68000Y-51000D01*
X49250Y-52000D02*
X49750Y-51500D01*
X70000Y-40500D02*
X74250Y-40500D01*
X76750Y-48500D02*
X77250Y-49000D01*
X75250Y-48500D02*
X74450Y-49033D01*
X74250Y-40500D02*
X75000Y-39750D01*
X64845Y-40478D02*
X68250Y-40500D01*
X69250Y-41000D02*
X69500Y-41000D01*
X77250Y-49000D02*
X79000Y-49000D01*
X51250Y-51500D02*
X51750Y-51000D01*
X74450Y-49033D02*
X74450Y-50050D01*
X36750Y-47000D02*
X38500Y-47000D01*
X52250Y-51000D02*
X54000Y-51000D01*
X80000Y-50000D02*
X81250Y-50000D01*
X79000Y-49000D02*
X80000Y-50000D01*
X69500Y-41000D02*
X70000Y-40500D01*
X70500Y-51000D02*
X71000Y-51500D01*
X61250Y-51000D02*
X62250Y-51000D01*
X44250Y-45000D02*
X45000Y-45000D01*
X51750Y-51000D02*
X52250Y-51000D01*
X54500Y-50500D02*
X59750Y-50500D01*
X76000Y-48500D02*
X76750Y-48500D01*
X68250Y-40500D02*
X68750Y-41000D01*
X76750Y-35750D02*
X78000Y-37000D01*
X78000Y-37000D02*
X81250Y-37000D01*
X60250Y-51000D02*
X61250Y-51000D01*
X76000Y-39750D02*
X76750Y-39750D01*
X38500Y-47000D02*
X39750Y-45750D01*
X39750Y-45750D02*
X43000Y-45750D01*
X68750Y-41000D02*
X69250Y-41000D01*
X45000Y-45000D02*
X46000Y-44000D01*
X49750Y-51500D02*
X51250Y-51500D01*
X74450Y-50050D02*
X73000Y-51500D01*
X71000Y-51500D02*
X73000Y-51500D01*
X43000Y-45750D02*
X43750Y-45000D01*
X75000Y-39750D02*
X76000Y-39750D01*
X47000Y-52000D02*
X49250Y-52000D01*
X46000Y-44000D02*
X47000Y-44000D01*
X68000Y-51000D02*
X69250Y-51000D01*
X70500Y-51000D02*
X69250Y-51000D01*
X75250Y-48500D02*
X76000Y-48500D01*
X62250Y-51000D02*
X63500Y-52500D01*
X63672Y-42000D02*
X64845Y-40478D01*
X59750Y-50500D02*
X59750Y-50500D01*
X54000Y-51000D02*
X54500Y-50500D01*
X59750Y-50500D02*
X59750Y-50500D01*
X60750Y-42000D02*
X63672Y-42000D01*
X63500Y-52500D02*
X66500Y-52500D01*
X59750Y-50500D02*
X60250Y-51000D01*
X86250Y-41000D02*
X84250Y-41000D01*
X60750Y-40000D02*
X63750Y-40000D01*
X67000Y-53000D02*
X64250Y-53000D01*
X74250Y-46000D02*
X73500Y-46000D01*
X72250Y-52000D02*
X70750Y-52000D01*
X36750Y-33000D02*
X44250Y-33000D01*
X70250Y-51500D02*
X70750Y-52000D01*
X86250Y-41000D02*
X86250Y-44000D01*
X51250Y-33500D02*
X51750Y-33000D01*
X47250Y-33000D02*
X47750Y-33500D01*
X53500Y-31750D02*
X84750Y-31750D01*
X35750Y-39000D02*
X35750Y-34000D01*
X35750Y-34000D02*
X36750Y-33000D01*
X71250Y-46000D02*
X70250Y-46000D01*
X69250Y-46000D02*
X70250Y-46000D01*
X84250Y-44000D02*
X83000Y-44000D01*
X77750Y-45000D02*
X75250Y-45000D01*
X82500Y-44500D02*
X78250Y-44500D01*
X84750Y-31750D02*
X86250Y-33250D01*
X73500Y-46000D02*
X73000Y-45500D01*
X70250Y-51500D02*
X68500Y-51500D01*
X86250Y-44000D02*
X84250Y-44000D01*
X69000Y-46000D02*
X69250Y-46000D01*
X70250Y-53000D02*
X70250Y-51500D01*
X44250Y-33000D02*
X47250Y-33000D01*
X83000Y-44000D02*
X82500Y-44500D01*
X51750Y-33000D02*
X52250Y-33000D01*
X78250Y-44500D02*
X77750Y-45000D01*
X75250Y-45000D02*
X74250Y-46000D01*
X73000Y-45500D02*
X71750Y-45500D01*
X86250Y-33250D02*
X86250Y-41000D01*
X47750Y-33500D02*
X51250Y-33500D01*
X63750Y-47500D02*
X67500Y-47500D01*
X52250Y-33000D02*
X53500Y-31750D01*
X71750Y-45500D02*
X71250Y-46000D01*
X72250Y-52000D02*
X72250Y-53500D01*
X67500Y-47500D02*
X69000Y-46000D01*
X68500Y-51500D02*
X67000Y-53000D01*
X72250Y-53500D02*
X75250Y-53500D01*
X70750Y-50500D02*
X71250Y-51000D01*
X37000Y-31250D02*
X45750Y-31250D01*
X34500Y-39750D02*
X34750Y-40000D01*
X35750Y-40000D02*
X34750Y-40000D01*
X45750Y-31250D02*
X45800Y-31250D01*
X34500Y-33750D02*
X34500Y-39750D01*
X44250Y-34000D02*
X45800Y-34000D01*
X63000Y-41000D02*
X60750Y-41000D01*
X65750Y-48250D02*
X63250Y-48250D01*
X47750Y-34500D02*
X51250Y-34500D01*
X71250Y-51000D02*
X72250Y-51000D01*
X45800Y-34000D02*
X47250Y-34000D01*
X75550Y-45650D02*
X77250Y-45650D01*
X74750Y-46500D02*
X75550Y-45650D01*
X67750Y-48500D02*
X66000Y-48500D01*
X47250Y-34000D02*
X47750Y-34500D01*
X63250Y-48250D02*
X63000Y-48000D01*
X34500Y-33750D02*
X37000Y-31250D01*
X68250Y-48000D02*
X69250Y-47000D01*
X46800Y-30300D02*
X45800Y-31250D01*
X87000Y-40000D02*
X87000Y-32979D01*
X67500Y-50500D02*
X66000Y-52000D01*
X67500Y-50500D02*
X70750Y-50500D01*
X69250Y-47000D02*
X71500Y-47000D01*
X72750Y-46500D02*
X74750Y-46500D01*
X87000Y-32979D02*
X84481Y-30250D01*
X51750Y-34000D02*
X52250Y-34000D01*
X66000Y-48500D02*
X65750Y-48250D01*
X82500Y-45500D02*
X79200Y-45500D01*
X71500Y-47000D02*
X72250Y-46250D01*
X78900Y-45650D02*
X79200Y-45500D01*
X77250Y-45650D02*
X78900Y-45650D01*
X87000Y-45000D02*
X84250Y-45000D01*
X84250Y-40000D02*
X85600Y-40000D01*
X67500Y-50500D02*
X67500Y-50500D01*
X72250Y-46000D02*
X72750Y-46500D01*
X66000Y-52000D02*
X64250Y-52000D01*
X83000Y-45000D02*
X82500Y-45500D01*
X83000Y-45000D02*
X84250Y-45000D01*
X78250Y-53500D02*
X77250Y-53500D01*
X72250Y-46250D02*
X72250Y-46000D01*
X87000Y-40000D02*
X87000Y-45000D01*
X51000Y-30250D02*
X46800Y-30300D01*
X68250Y-48000D02*
X67750Y-48500D01*
X51250Y-34500D02*
X51750Y-34000D01*
X84481Y-30250D02*
X51000Y-30250D01*
X34250Y-41000D02*
X34000Y-40750D01*
X84250Y-46000D02*
X83000Y-46000D01*
X42750Y-35000D02*
X44250Y-35000D01*
X82500Y-46500D02*
X83000Y-46000D01*
X70750Y-49500D02*
X67500Y-49500D01*
X66000Y-51000D02*
X64250Y-51000D01*
X75750Y-46250D02*
X74900Y-46900D01*
X34000Y-40750D02*
X34000Y-33500D01*
X78704Y-46244D02*
X75750Y-46250D01*
X47250Y-35000D02*
X47750Y-35500D01*
X63000Y-49000D02*
X60750Y-48000D01*
X51250Y-35500D02*
X51750Y-35000D01*
X67500Y-49500D02*
X66000Y-51000D01*
X72250Y-50000D02*
X71250Y-50000D01*
X42250Y-30500D02*
X42750Y-30000D01*
X73000Y-50000D02*
X72250Y-50000D01*
X79500Y-46850D02*
X80000Y-46500D01*
X37000Y-30500D02*
X42250Y-30500D01*
X47750Y-35500D02*
X51250Y-35500D01*
X79500Y-46850D02*
X78704Y-46244D01*
X47250Y-35000D02*
X44250Y-35000D01*
X73900Y-49650D02*
X73000Y-50000D01*
X52250Y-35000D02*
X51750Y-35000D01*
X71250Y-50000D02*
X70750Y-49500D01*
X43250Y-29500D02*
X43750Y-29500D01*
X87750Y-32733D02*
X87750Y-39000D01*
X84250Y-39000D02*
X85600Y-38950D01*
X84733Y-29500D02*
X87750Y-32733D01*
X79500Y-52500D02*
X78250Y-52500D01*
X73700Y-47100D02*
X73900Y-47700D01*
X43750Y-29500D02*
X84733Y-29500D01*
X35750Y-41000D02*
X34250Y-41000D01*
X74900Y-46900D02*
X73700Y-47100D01*
X42750Y-30000D02*
X43250Y-29500D01*
X34000Y-33500D02*
X37000Y-30500D01*
X73500Y-45000D02*
X73700Y-45200D01*
X87750Y-46000D02*
X84250Y-46000D01*
X87750Y-39000D02*
X87750Y-46000D01*
X64250Y-51000D02*
X63000Y-51000D01*
X72250Y-45000D02*
X73500Y-45000D01*
X80000Y-46500D02*
X82500Y-46500D01*
X85550Y-43000D02*
X85000Y-43250D01*
X85000Y-43250D02*
X79750Y-43250D01*
X42000Y-35250D02*
X42750Y-36000D01*
X88500Y-32500D02*
X88500Y-38000D01*
X42000Y-29250D02*
X42500Y-28750D01*
X74750Y-44000D02*
X72250Y-44000D01*
X42500Y-28750D02*
X51500Y-28750D01*
X66750Y-42000D02*
X68000Y-42000D01*
X75500Y-43250D02*
X74750Y-44000D01*
X42750Y-36000D02*
X44250Y-36000D01*
X47250Y-36000D02*
X47750Y-36500D01*
X35750Y-42000D02*
X33750Y-42000D01*
X84984Y-28750D02*
X88500Y-32500D01*
X37000Y-29750D02*
X41500Y-29750D01*
X33750Y-42000D02*
X33500Y-41750D01*
X88500Y-43000D02*
X88500Y-47000D01*
X70500Y-44500D02*
X71000Y-44000D01*
X33500Y-33250D02*
X37000Y-29750D01*
X76000Y-43250D02*
X75500Y-43250D01*
X71000Y-44000D02*
X72250Y-44000D01*
X79250Y-42750D02*
X76500Y-42750D01*
X79750Y-43250D02*
X79250Y-42750D01*
X76500Y-42750D02*
X76000Y-43250D01*
X33500Y-41750D02*
X33500Y-33250D01*
X88500Y-38000D02*
X88500Y-43000D01*
X88500Y-47000D02*
X84250Y-47000D01*
X42000Y-34000D02*
X42000Y-35250D01*
X51500Y-28750D02*
X84984Y-28750D01*
X47750Y-36500D02*
X51000Y-36500D01*
X44250Y-36000D02*
X47250Y-36000D01*
X68000Y-44500D02*
X70500Y-44500D01*
X51000Y-36500D02*
X51500Y-36000D01*
X51500Y-36000D02*
X52250Y-36000D01*
X85600Y-38000D02*
X84250Y-38000D01*
X41500Y-29750D02*
X42000Y-29250D01*
X89250Y-47500D02*
X89250Y-37000D01*
X71250Y-43000D02*
X72250Y-43000D01*
X83250Y-37000D02*
X82750Y-37500D01*
X85600Y-36950D02*
X84250Y-37000D01*
X47750Y-37500D02*
X51000Y-37500D01*
X51000Y-37500D02*
X51500Y-37000D01*
X51500Y-37000D02*
X52250Y-37000D01*
X41750Y-28000D02*
X44000Y-28000D01*
X68500Y-41500D02*
X71250Y-41500D01*
X66750Y-41000D02*
X68000Y-41000D01*
X44000Y-28000D02*
X85330Y-28000D01*
X89250Y-32230D02*
X89250Y-37000D01*
X35750Y-43000D02*
X33250Y-43000D01*
X81750Y-41500D02*
X75500Y-41500D01*
X41250Y-35500D02*
X42750Y-37000D01*
X85330Y-28000D02*
X89250Y-32230D01*
X89250Y-47500D02*
X86750Y-50000D01*
X84250Y-50000D02*
X86750Y-50000D01*
X42750Y-37000D02*
X44250Y-37000D01*
X82750Y-37500D02*
X82750Y-40500D01*
X74000Y-43000D02*
X72250Y-43000D01*
X47250Y-37000D02*
X47750Y-37500D01*
X68000Y-41000D02*
X68500Y-41500D01*
X33000Y-42750D02*
X33000Y-33000D01*
X37000Y-29000D02*
X40750Y-29000D01*
X84250Y-37000D02*
X83250Y-37000D01*
X41250Y-28500D02*
X41750Y-28000D01*
X33250Y-43000D02*
X33000Y-42750D01*
X75500Y-41500D02*
X74000Y-43000D01*
X44250Y-37000D02*
X47250Y-37000D01*
X40750Y-29000D02*
X41250Y-28500D01*
X82750Y-40500D02*
X81750Y-41500D01*
X41250Y-35000D02*
X41250Y-35500D01*
X33000Y-33000D02*
X37000Y-29000D01*
X32500Y-32750D02*
X37000Y-28250D01*
X51500Y-38000D02*
X51000Y-38500D01*
X73500Y-42000D02*
X75000Y-40500D01*
X72250Y-42000D02*
X73500Y-42000D01*
X63500Y-27250D02*
X85680Y-27250D01*
X82250Y-40250D02*
X82250Y-36750D01*
X68000Y-39500D02*
X67500Y-39000D01*
X47750Y-38500D02*
X47250Y-38000D01*
X40500Y-35750D02*
X42750Y-38000D01*
X85680Y-27250D02*
X90000Y-31945D01*
X33000Y-44000D02*
X32500Y-43500D01*
X90000Y-48000D02*
X87000Y-51000D01*
X85600Y-36000D02*
X84250Y-36000D01*
X52250Y-38000D02*
X51500Y-38000D01*
X51000Y-38500D02*
X47750Y-38500D01*
X40500Y-34000D02*
X40500Y-35750D01*
X37000Y-28250D02*
X40000Y-28250D01*
X47250Y-38000D02*
X44250Y-38000D01*
X70250Y-39500D02*
X68000Y-39500D01*
X87000Y-51000D02*
X84250Y-51000D01*
X90000Y-36000D02*
X90000Y-48000D01*
X82250Y-36750D02*
X83000Y-36000D01*
X75000Y-40500D02*
X82000Y-40500D01*
X83000Y-36000D02*
X84250Y-36000D01*
X67500Y-39000D02*
X66750Y-39000D01*
X32500Y-43500D02*
X32500Y-32750D01*
X35750Y-44000D02*
X33000Y-44000D01*
X72250Y-42000D02*
X70750Y-42000D01*
X70750Y-42000D02*
X70250Y-42250D01*
X41000Y-27250D02*
X63500Y-27250D01*
X40000Y-28250D02*
X40500Y-27750D01*
X40500Y-27750D02*
X41000Y-27250D01*
X82000Y-40500D02*
X82250Y-40250D01*
X42750Y-38000D02*
X44250Y-38000D01*
X90000Y-31945D02*
X90000Y-36000D01*
X83000Y-35000D02*
X82500Y-35500D01*
X75750Y-38750D02*
X75750Y-38750D01*
X35750Y-45000D02*
X33000Y-45000D01*
X87250Y-52000D02*
X84250Y-52000D01*
X85934Y-26500D02*
X90721Y-31692D01*
X37000Y-27500D02*
X38750Y-27500D01*
X32000Y-32500D02*
X37000Y-27500D01*
X71250Y-38000D02*
X72250Y-38000D01*
X32000Y-44000D02*
X32000Y-32500D01*
X66750Y-38000D02*
X67500Y-38000D01*
X57250Y-26500D02*
X85934Y-26500D01*
X39250Y-35000D02*
X39250Y-35500D01*
X90750Y-35000D02*
X90750Y-48500D01*
X38750Y-27500D02*
X39250Y-27000D01*
X84250Y-35000D02*
X85600Y-35000D01*
X47250Y-39000D02*
X47750Y-39500D01*
X47750Y-39500D02*
X51000Y-39500D01*
X90750Y-48500D02*
X87250Y-52000D01*
X51500Y-39000D02*
X52250Y-39000D01*
X68000Y-38500D02*
X70750Y-38500D01*
X39750Y-26500D02*
X39250Y-27000D01*
X72250Y-38000D02*
X73000Y-38000D01*
X39250Y-35500D02*
X42750Y-39000D01*
X51000Y-39500D02*
X51500Y-39000D01*
X77500Y-35500D02*
X76750Y-34750D01*
X75500Y-38500D02*
X75750Y-38750D01*
X73500Y-38500D02*
X73000Y-38000D01*
X76750Y-34750D02*
X75750Y-34750D01*
X84250Y-35000D02*
X83000Y-35000D01*
X82500Y-35500D02*
X77500Y-35500D01*
X44250Y-39000D02*
X47250Y-39000D01*
X67500Y-38000D02*
X68000Y-38500D01*
X70750Y-38500D02*
X71250Y-38000D01*
X39750Y-26500D02*
X57250Y-26500D01*
X73500Y-38500D02*
X75500Y-38500D01*
X42750Y-39000D02*
X44250Y-39000D01*
X33000Y-45000D02*
X32000Y-44000D01*
X90721Y-31692D02*
X90750Y-35000D01*
X87500Y-53000D02*
X91500Y-49000D01*
X91500Y-31400D02*
X91500Y-34000D01*
X42750Y-40000D02*
X44250Y-40000D01*
X70750Y-37000D02*
X72250Y-37000D01*
X44250Y-40000D02*
X47250Y-40000D01*
X67750Y-37000D02*
X68250Y-37500D01*
X33000Y-46000D02*
X31500Y-44500D01*
X91500Y-49000D02*
X91500Y-34000D01*
X84250Y-53000D02*
X87500Y-53000D01*
X33000Y-46000D02*
X35750Y-46000D01*
X66750Y-37000D02*
X67750Y-37000D01*
X74750Y-33500D02*
X74750Y-34000D01*
X38000Y-25750D02*
X65250Y-25750D01*
X84250Y-34000D02*
X85600Y-34000D01*
X51000Y-40500D02*
X51500Y-40000D01*
X84250Y-34000D02*
X83000Y-34000D01*
X68250Y-37500D02*
X70250Y-37500D01*
X86250Y-25800D02*
X91500Y-31400D01*
X82500Y-33500D02*
X74750Y-33500D01*
X37500Y-34000D02*
X37500Y-34750D01*
X38000Y-25750D02*
X37500Y-26250D01*
X51500Y-40000D02*
X52250Y-40000D01*
X37500Y-34750D02*
X42750Y-40000D01*
X83000Y-34000D02*
X82500Y-33500D01*
X70250Y-37500D02*
X70750Y-37000D01*
X74750Y-37000D02*
X72250Y-37000D01*
X37500Y-26250D02*
X31500Y-32250D01*
X31500Y-44500D02*
X31500Y-32250D01*
X47250Y-40000D02*
X47750Y-40500D01*
X47750Y-40500D02*
X51000Y-40500D01*
X65250Y-25750D02*
X86250Y-25800D01*
X59500Y-35500D02*
X61250Y-35500D01*
X79500Y-43750D02*
X79750Y-44000D01*
X53000Y-44000D02*
X55500Y-41500D01*
X51000Y-44500D02*
X51500Y-44000D01*
X44250Y-48000D02*
X45250Y-48000D01*
X57250Y-36500D02*
X58750Y-36500D01*
X52250Y-44000D02*
X53000Y-44000D01*
X61750Y-35500D02*
X62250Y-35250D01*
X71000Y-35500D02*
X73150Y-35500D01*
X62250Y-35250D02*
X62250Y-35250D01*
X60750Y-33000D02*
X62250Y-32750D01*
X68000Y-36000D02*
X68250Y-36000D01*
X69250Y-36000D02*
X70500Y-36000D01*
X61250Y-35500D02*
X61750Y-35500D01*
X48500Y-45500D02*
X49500Y-44500D01*
X78000Y-43750D02*
X79500Y-43750D01*
X55500Y-38250D02*
X57250Y-36500D01*
X73400Y-35000D02*
X74075Y-35000D01*
X45250Y-48000D02*
X47750Y-45500D01*
X78000Y-38000D02*
X81250Y-38000D01*
X74075Y-35000D02*
X74325Y-35500D01*
X58750Y-36500D02*
X59500Y-35500D01*
X78000Y-38000D02*
X78000Y-38000D01*
X62250Y-35250D02*
X62750Y-35250D01*
X42600Y-47400D02*
X42600Y-47650D01*
X43000Y-48000D02*
X44250Y-48000D01*
X67500Y-35500D02*
X68000Y-36000D01*
X73150Y-35500D02*
X73400Y-35000D01*
X36750Y-44000D02*
X42350Y-44000D01*
X47750Y-45500D02*
X48500Y-45500D01*
X49500Y-44500D02*
X51000Y-44500D01*
X63500Y-35250D02*
X63750Y-35500D01*
X63750Y-35500D02*
X67500Y-35500D01*
X55500Y-41500D02*
X55500Y-38250D01*
X63000Y-35250D02*
X63500Y-35250D01*
X81250Y-44000D02*
X79750Y-44000D01*
X74325Y-35500D02*
X75500Y-35500D01*
X68250Y-36000D02*
X69250Y-36000D01*
X75500Y-35500D02*
X78000Y-38000D01*
X42350Y-44000D02*
X42600Y-44250D01*
X42600Y-47650D02*
X43000Y-48000D01*
X70500Y-36000D02*
X71000Y-35500D01*
X62750Y-35250D02*
X63000Y-35250D01*
X51500Y-44000D02*
X52250Y-44000D01*
X62000Y-47000D02*
X60750Y-47000D01*
X63250Y-47000D02*
X65500Y-47000D01*
X52750Y-49000D02*
X55250Y-46500D01*
X39150Y-49900D02*
X42500Y-53000D01*
X45750Y-53000D02*
X42500Y-53000D01*
X59250Y-46500D02*
X59750Y-47000D01*
X39150Y-48000D02*
X39150Y-49900D01*
X65500Y-47000D02*
X66000Y-46500D01*
X52750Y-49000D02*
X52250Y-49000D01*
X51500Y-49500D02*
X52000Y-49000D01*
X45750Y-53000D02*
X49250Y-53000D01*
X45750Y-53000D02*
X45750Y-52000D01*
X55250Y-46500D02*
X59250Y-46500D01*
X39150Y-39000D02*
X36750Y-39000D01*
X45750Y-52000D02*
X48250Y-49500D01*
X52000Y-49000D02*
X52250Y-49000D01*
X62000Y-47000D02*
X63250Y-47000D01*
X69250Y-45000D02*
X68500Y-45000D01*
X71250Y-44500D02*
X75750Y-44500D01*
X75750Y-44500D02*
X76500Y-44500D01*
X70750Y-45000D02*
X71250Y-44500D01*
X79800Y-51000D02*
X79750Y-51000D01*
X49250Y-53000D02*
X50250Y-52000D01*
X78750Y-50000D02*
X76750Y-50000D01*
X79750Y-51000D02*
X78750Y-50000D01*
X79800Y-51000D02*
X81250Y-51000D01*
X48250Y-49500D02*
X51500Y-49500D01*
X69250Y-45000D02*
X70750Y-45000D01*
X67500Y-46500D02*
X68500Y-45000D01*
X60750Y-47000D02*
X59750Y-47000D01*
X66000Y-46500D02*
X67500Y-46500D01*
X68500Y-35000D02*
X69250Y-35000D01*
X78250Y-35000D02*
X81250Y-35000D01*
X54750Y-38000D02*
X57250Y-35500D01*
X65500Y-34500D02*
X66000Y-33000D01*
X42750Y-45000D02*
X43250Y-44500D01*
X69250Y-35000D02*
X70250Y-35000D01*
X42750Y-45000D02*
X36750Y-45000D01*
X44250Y-47000D02*
X45000Y-47000D01*
X43750Y-47000D02*
X43250Y-46500D01*
X74500Y-34750D02*
X75000Y-34750D01*
X75500Y-34000D02*
X77250Y-34000D01*
X44250Y-47000D02*
X43750Y-47000D01*
X45000Y-47000D02*
X47250Y-44750D01*
X67500Y-33250D02*
X68000Y-33250D01*
X51500Y-43000D02*
X52250Y-43000D01*
X53000Y-43000D02*
X54750Y-41250D01*
X57250Y-35500D02*
X59000Y-35500D01*
X66000Y-33000D02*
X66750Y-33000D01*
X49000Y-44000D02*
X49500Y-43500D01*
X59000Y-35500D02*
X59750Y-34500D01*
X75000Y-34750D02*
X75500Y-34000D01*
X77250Y-34000D02*
X78250Y-35000D01*
X51000Y-43500D02*
X51500Y-43000D01*
X74250Y-34500D02*
X74500Y-34750D01*
X70750Y-34500D02*
X74250Y-34500D01*
X61250Y-34500D02*
X65500Y-34500D01*
X68000Y-33250D02*
X68500Y-33750D01*
X68500Y-33750D02*
X68500Y-35000D01*
X47250Y-44750D02*
X48250Y-44750D01*
X59750Y-34500D02*
X61250Y-34500D01*
X70250Y-35000D02*
X70750Y-34500D01*
X54750Y-41250D02*
X54750Y-38000D01*
X49500Y-43500D02*
X51000Y-43500D01*
X43250Y-44500D02*
X43250Y-43500D01*
X48250Y-44750D02*
X49000Y-44000D01*
X66750Y-33000D02*
X67250Y-33000D01*
X67250Y-33000D02*
X67500Y-33250D01*
X52250Y-43000D02*
X53000Y-43000D01*
X67750Y-32500D02*
X64500Y-32500D01*
X63000Y-50000D02*
X64250Y-48750D01*
X51000Y-41500D02*
X51500Y-41000D01*
X52250Y-41000D02*
X54000Y-41000D01*
X73250Y-52750D02*
X73500Y-53000D01*
X64250Y-48750D02*
X65500Y-48750D01*
X47750Y-41500D02*
X51000Y-41500D01*
X65500Y-48750D02*
X65750Y-49000D01*
X65750Y-49000D02*
X69250Y-49000D01*
X73250Y-48250D02*
X70000Y-48250D01*
X61250Y-50000D02*
X60750Y-50000D01*
X54000Y-49500D02*
X56000Y-47500D01*
X60000Y-33500D02*
X63500Y-33500D01*
X68500Y-32500D02*
X68750Y-32500D01*
X68750Y-32500D02*
X69250Y-33000D01*
X47250Y-41000D02*
X47750Y-41500D01*
X66750Y-34000D02*
X67750Y-34000D01*
X44250Y-41000D02*
X42500Y-41000D01*
X71500Y-33500D02*
X73250Y-33500D01*
X59000Y-34500D02*
X60000Y-33500D01*
X57250Y-34500D02*
X59000Y-34500D01*
X60250Y-50000D02*
X61250Y-50000D01*
X74750Y-50500D02*
X75250Y-50500D01*
X70000Y-48250D02*
X69250Y-49000D01*
X59500Y-47750D02*
X59500Y-49250D01*
X73500Y-53000D02*
X81250Y-53000D01*
X56000Y-47500D02*
X59250Y-47500D01*
X69250Y-33000D02*
X71000Y-33000D01*
X73250Y-52000D02*
X74750Y-50500D01*
X63500Y-33500D02*
X64500Y-32500D01*
X61250Y-50000D02*
X63000Y-50000D01*
X36500Y-35000D02*
X37750Y-36250D01*
X71000Y-33000D02*
X71500Y-33500D01*
X31000Y-31750D02*
X36500Y-26250D01*
X59500Y-49250D02*
X60250Y-50000D01*
X33000Y-47000D02*
X31000Y-45000D01*
X51500Y-41000D02*
X52250Y-41000D01*
X73750Y-33000D02*
X81250Y-33000D01*
X31000Y-45000D02*
X31000Y-31750D01*
X54000Y-37750D02*
X54000Y-41000D01*
X33000Y-47000D02*
X35750Y-47000D01*
X67750Y-32500D02*
X68500Y-32500D01*
X59250Y-47500D02*
X59500Y-47750D01*
X44250Y-41000D02*
X47250Y-41000D01*
X54000Y-37750D02*
X57250Y-34500D01*
X37750Y-36250D02*
X42500Y-41000D01*
X73250Y-33500D02*
X73750Y-33000D01*
X73250Y-52750D02*
X73250Y-52000D01*
X43850Y-55150D02*
X44000Y-55000D01*
X86000Y-47500D02*
X86000Y-49000D01*
X73500Y-41000D02*
X72250Y-41000D01*
X64250Y-50000D02*
X65250Y-50000D01*
X43500Y-55150D02*
X43850Y-55150D01*
X65500Y-46000D02*
X65250Y-46250D01*
X85400Y-55150D02*
X85250Y-55000D01*
X44500Y-55000D02*
X45000Y-55000D01*
X44000Y-55000D02*
X41500Y-55000D01*
X69250Y-39000D02*
X71000Y-39000D01*
X60750Y-55000D02*
X63250Y-55000D01*
X64250Y-46150D02*
X65150Y-46150D01*
X85750Y-55150D02*
X85400Y-55150D01*
X48250Y-51250D02*
X48250Y-50500D01*
X63250Y-38500D02*
X65500Y-38500D01*
X79750Y-48000D02*
X81250Y-48000D01*
X80750Y-55000D02*
X85250Y-55000D01*
X58250Y-33000D02*
X59500Y-33000D01*
X63250Y-36000D02*
X60750Y-36000D01*
X67500Y-38500D02*
X68000Y-39000D01*
X65150Y-46150D02*
X65250Y-46250D01*
X68000Y-39000D02*
X69250Y-39000D01*
X65500Y-38500D02*
X67500Y-38500D01*
X60000Y-36000D02*
X60750Y-36000D01*
X65500Y-46000D02*
X65500Y-45500D01*
X65250Y-49500D02*
X65250Y-50000D01*
X48250Y-43750D02*
X48250Y-43000D01*
X66750Y-46000D02*
X65500Y-46000D01*
X59850Y-55150D02*
X60000Y-55000D01*
X59250Y-55150D02*
X59850Y-55150D01*
X71250Y-55000D02*
X80250Y-55000D01*
X86000Y-49000D02*
X84250Y-49000D01*
X83250Y-41500D02*
X83250Y-38500D01*
X48250Y-55000D02*
X60000Y-55000D01*
X72000Y-41000D02*
X72250Y-41000D01*
X80250Y-55150D02*
X80600Y-55150D01*
X78500Y-46750D02*
X79750Y-48000D01*
X72250Y-41000D02*
X72000Y-41000D01*
X72750Y-38500D02*
X73500Y-39250D01*
X60250Y-55000D02*
X60750Y-55000D01*
X83250Y-47500D02*
X86000Y-47500D01*
X35750Y-49000D02*
X35750Y-48000D01*
X73750Y-49000D02*
X75250Y-47500D01*
X83250Y-47500D02*
X83250Y-47500D01*
X35750Y-49000D02*
X41500Y-55000D01*
X65250Y-50000D02*
X66000Y-50000D01*
X82750Y-48000D02*
X83250Y-47500D01*
X59500Y-36500D02*
X60000Y-36000D01*
X73000Y-49000D02*
X73750Y-49000D01*
X80250Y-55000D02*
X80750Y-55000D01*
X72250Y-49000D02*
X71250Y-49000D01*
X46750Y-42000D02*
X44250Y-42000D01*
X71500Y-38500D02*
X72750Y-38500D01*
X44500Y-55000D02*
X44000Y-55000D01*
X72250Y-49000D02*
X73000Y-49000D01*
X45000Y-55000D02*
X48250Y-55000D01*
X71000Y-39000D02*
X71500Y-38500D01*
X60000Y-55000D02*
X60250Y-55000D01*
X75500Y-47500D02*
X76250Y-46750D01*
X75250Y-47500D02*
X75500Y-47500D01*
X76250Y-46750D02*
X78500Y-46750D01*
X85250Y-55000D02*
X85750Y-55000D01*
X81250Y-48000D02*
X82750Y-48000D01*
X83250Y-33000D02*
X84250Y-33000D01*
X66000Y-55000D02*
X71250Y-55000D01*
X80600Y-55150D02*
X80750Y-55000D01*
X63250Y-55000D02*
X66000Y-55000D01*
X48250Y-43000D02*
X50250Y-43000D01*
X36750Y-43000D02*
X42000Y-43000D01*
X51750Y-45000D02*
X52250Y-45000D01*
X49000Y-46000D02*
X49500Y-45500D01*
X49500Y-45500D02*
X51250Y-45500D01*
X44250Y-49000D02*
X45250Y-49000D01*
X69250Y-37000D02*
X69250Y-37000D01*
X81250Y-45000D02*
X78750Y-45000D01*
X51250Y-45500D02*
X51750Y-45000D01*
X43000Y-49000D02*
X44250Y-49000D01*
X68250Y-37000D02*
X69250Y-37000D01*
X56250Y-38500D02*
X57250Y-37500D01*
X69250Y-37000D02*
X70000Y-37000D01*
X48250Y-46000D02*
X49000Y-46000D01*
X56250Y-41750D02*
X56250Y-38500D01*
X70000Y-37000D02*
X70500Y-36500D01*
X77750Y-39000D02*
X78750Y-39000D01*
X74500Y-36250D02*
X75000Y-36250D01*
X67750Y-36500D02*
X68250Y-37000D01*
X70500Y-36500D02*
X74250Y-36500D01*
X63750Y-36500D02*
X65000Y-36500D01*
X63000Y-36750D02*
X63500Y-36750D01*
X42000Y-48250D02*
X43000Y-49000D01*
X53000Y-45000D02*
X56250Y-41750D01*
X52250Y-45000D02*
X53000Y-45000D01*
X61750Y-36500D02*
X62750Y-36500D01*
X60750Y-34000D02*
X64750Y-34000D01*
X45250Y-49000D02*
X48250Y-46000D01*
X57250Y-37500D02*
X59500Y-37500D01*
X59500Y-37500D02*
X60250Y-36491D01*
X78750Y-39000D02*
X81250Y-39000D01*
X61250Y-36500D02*
X61750Y-36500D01*
X62750Y-36500D02*
X63000Y-36750D01*
X64750Y-34000D02*
X65000Y-33750D01*
X63500Y-36750D02*
X63750Y-36500D01*
X75000Y-36250D02*
X77750Y-39000D01*
X74250Y-36500D02*
X74500Y-36250D01*
X65000Y-36500D02*
X67750Y-36500D01*
X60250Y-36491D02*
X61250Y-36500D01*
X80250Y-47250D02*
X80500Y-47000D01*
X78250Y-49500D02*
X78750Y-49500D01*
X55250Y-44500D02*
X59250Y-44500D01*
X79750Y-50500D02*
X78750Y-49500D01*
X40650Y-49400D02*
X42500Y-51000D01*
X51750Y-47000D02*
X52250Y-47000D01*
X69250Y-43000D02*
X70250Y-43000D01*
X62750Y-43500D02*
X64750Y-43500D01*
X61250Y-45000D02*
X62750Y-43500D01*
X70750Y-42500D02*
X73750Y-42500D01*
X36750Y-41000D02*
X40650Y-41000D01*
X59250Y-44500D02*
X59750Y-45000D01*
X40650Y-48000D02*
X40650Y-49400D01*
X59750Y-45000D02*
X60750Y-45000D01*
X52750Y-47000D02*
X52250Y-47000D01*
X81250Y-47000D02*
X80500Y-47000D01*
X52750Y-47000D02*
X55250Y-44500D01*
X51250Y-47500D02*
X51750Y-47000D01*
X80250Y-50500D02*
X79750Y-50500D01*
X48500Y-47500D02*
X51250Y-47500D01*
X67500Y-42500D02*
X68000Y-43000D01*
X68000Y-43000D02*
X68250Y-43000D01*
X44250Y-51000D02*
X45000Y-51000D01*
X64750Y-43500D02*
X65750Y-42500D01*
X80250Y-41000D02*
X81250Y-41000D01*
X65750Y-42500D02*
X67500Y-42500D01*
X75250Y-41000D02*
X80250Y-41000D01*
X68250Y-43000D02*
X69250Y-43000D01*
X42500Y-51000D02*
X44250Y-51000D01*
X60750Y-45000D02*
X61250Y-45000D01*
X70250Y-43000D02*
X70750Y-42500D01*
X73750Y-42500D02*
X75250Y-41000D01*
X45000Y-51000D02*
X48500Y-47500D01*
X74400Y-52000D02*
X75000Y-52000D01*
X52250Y-48000D02*
X52750Y-48000D01*
X39900Y-47000D02*
X39900Y-49650D01*
X84000Y-42750D02*
X84250Y-42500D01*
X84250Y-42000D02*
X84250Y-42500D01*
X51250Y-48500D02*
X51750Y-48000D01*
X76000Y-52000D02*
X76400Y-52000D01*
X52750Y-48000D02*
X55250Y-45500D01*
X75000Y-52000D02*
X75750Y-52000D01*
X44250Y-52000D02*
X45000Y-52000D01*
X75500Y-42250D02*
X80000Y-42250D01*
X76400Y-52000D02*
X76750Y-52000D01*
X75750Y-52000D02*
X76000Y-52000D01*
X60750Y-46000D02*
X61250Y-46000D01*
X70500Y-44000D02*
X71000Y-43500D01*
X61250Y-46000D02*
X63250Y-44000D01*
X59250Y-45500D02*
X59750Y-46000D01*
X42500Y-52000D02*
X44250Y-52000D01*
X78250Y-50500D02*
X77500Y-50500D01*
X68000Y-43500D02*
X68500Y-44000D01*
X65750Y-43500D02*
X68000Y-43500D01*
X76750Y-51250D02*
X76750Y-52000D01*
X55250Y-45500D02*
X59250Y-45500D01*
X77500Y-50500D02*
X76750Y-51250D01*
X39900Y-49650D02*
X42500Y-52000D01*
X80000Y-42250D02*
X80500Y-42750D01*
X80500Y-42750D02*
X84000Y-42750D01*
X69250Y-44000D02*
X70500Y-44000D01*
X75500Y-42250D02*
X74400Y-43400D01*
X71000Y-43500D02*
X74250Y-43500D01*
X36750Y-40000D02*
X39900Y-40000D01*
X51750Y-48000D02*
X52250Y-48000D01*
X68500Y-44000D02*
X69250Y-44000D01*
X48500Y-48500D02*
X51250Y-48500D01*
X65250Y-44000D02*
X65750Y-43500D01*
X45000Y-52000D02*
X48500Y-48500D01*
X74250Y-43500D02*
X74400Y-43400D01*
X59750Y-46000D02*
X60750Y-46000D01*
X63250Y-44000D02*
X65250Y-44000D01*
X76750Y-52000D02*
X81250Y-52000D01*
X47000Y-43000D02*
X48000Y-42000D01*
X44500Y-54000D02*
X45000Y-54000D01*
X59850Y-53850D02*
X60000Y-54000D01*
X80600Y-53850D02*
X80750Y-54000D01*
X69250Y-40000D02*
X71250Y-40000D01*
X80250Y-53850D02*
X80600Y-53850D01*
X82250Y-49000D02*
X83000Y-49000D01*
X67500Y-39500D02*
X68000Y-40000D01*
X43850Y-53850D02*
X44000Y-54000D01*
X60250Y-54000D02*
X60750Y-54000D01*
X61250Y-54000D02*
X61250Y-53000D01*
X44500Y-54000D02*
X44000Y-54000D01*
X82250Y-49000D02*
X81250Y-49000D01*
X85250Y-54000D02*
X82250Y-54000D01*
X45000Y-54000D02*
X46000Y-54000D01*
X48500Y-42000D02*
X50250Y-42000D01*
X81250Y-42000D02*
X82250Y-42000D01*
X66000Y-44750D02*
X65000Y-44750D01*
X78250Y-47500D02*
X79750Y-49000D01*
X59250Y-53850D02*
X59850Y-53850D01*
X52250Y-52000D02*
X52250Y-54000D01*
X82250Y-54000D02*
X80750Y-54000D01*
X62250Y-39000D02*
X62500Y-39000D01*
X84000Y-48000D02*
X84250Y-48000D01*
X80750Y-54000D02*
X80250Y-54000D01*
X43500Y-53850D02*
X43850Y-53850D01*
X62500Y-39000D02*
X62750Y-39250D01*
X64500Y-39250D02*
X65000Y-39500D01*
X69250Y-52000D02*
X69250Y-54000D01*
X44000Y-54000D02*
X41750Y-54000D01*
X79750Y-49000D02*
X81250Y-49000D01*
X48000Y-42000D02*
X48500Y-42000D01*
X36750Y-49000D02*
X36750Y-48000D01*
X46000Y-54000D02*
X52250Y-54000D01*
X44250Y-43000D02*
X46000Y-43000D01*
X85750Y-54000D02*
X85250Y-54000D01*
X61250Y-54000D02*
X69250Y-54000D01*
X62750Y-39250D02*
X64500Y-39250D01*
X69250Y-40000D02*
X68000Y-40000D01*
X67500Y-39500D02*
X65000Y-39500D01*
X36750Y-49000D02*
X41750Y-54000D01*
X66750Y-45000D02*
X66250Y-45000D01*
X62250Y-39000D02*
X62250Y-38250D01*
X64900Y-44850D02*
X65000Y-44750D01*
X66250Y-45000D02*
X66000Y-44750D01*
X46000Y-43000D02*
X47000Y-43000D01*
X64250Y-44850D02*
X64900Y-44850D01*
X79500Y-54250D02*
X79900Y-53850D01*
X61250Y-53000D02*
X62250Y-53000D01*
X74250Y-54250D02*
X79500Y-54250D01*
X79900Y-53850D02*
X80250Y-53850D01*
X74000Y-54000D02*
X74250Y-54250D01*
X72000Y-39000D02*
X72250Y-39000D01*
X69250Y-54000D02*
X74000Y-54000D01*
X85750Y-53850D02*
X85400Y-53850D01*
X82250Y-53750D02*
X82250Y-49000D01*
X71250Y-40000D02*
X72000Y-39000D01*
X82250Y-54000D02*
X82250Y-53750D01*
X83000Y-49000D02*
X84000Y-48000D01*
X60000Y-54000D02*
X60250Y-54000D01*
X52250Y-54000D02*
X60000Y-54000D01*
X62250Y-37000D02*
X60750Y-37000D01*
X60750Y-54000D02*
X61250Y-54000D01*
X85400Y-53850D02*
X85250Y-54000D01*
G54D10*
G36*
X51569Y-42500D02*
X51513Y-42556D01*
X51500Y-42556D01*
X51330Y-42590D01*
X51186Y-42686D01*
X51119Y-42752D01*
X51075Y-42644D01*
X50898Y-42467D01*
X50862Y-42452D01*
X50987Y-42338D01*
X51072Y-42137D01*
X51025Y-42050D01*
X50350Y-42050D01*
X50300Y-42050D01*
X50200Y-42050D01*
X50150Y-42050D01*
X49475Y-42050D01*
X49428Y-42137D01*
X49513Y-42338D01*
X49637Y-42452D01*
X49602Y-42467D01*
X49513Y-42556D01*
X48738Y-42556D01*
X48623Y-42441D01*
X48381Y-42341D01*
X48119Y-42341D01*
X47877Y-42441D01*
X47691Y-42627D01*
X47591Y-42869D01*
X47591Y-43131D01*
X47691Y-43373D01*
X47693Y-43375D01*
X47691Y-43377D01*
X47591Y-43619D01*
X47591Y-43704D01*
X47559Y-43627D01*
X47373Y-43441D01*
X47131Y-43341D01*
X46869Y-43341D01*
X46627Y-43441D01*
X46512Y-43556D01*
X46000Y-43556D01*
X45830Y-43590D01*
X45686Y-43686D01*
X45116Y-44255D01*
X45171Y-44125D01*
X45171Y-43875D01*
X45075Y-43644D01*
X44898Y-43467D01*
X44862Y-43452D01*
X44987Y-43338D01*
X45072Y-43137D01*
X45025Y-43050D01*
X44350Y-43050D01*
X44300Y-43050D01*
X44200Y-43050D01*
X44200Y-42950D01*
X44300Y-42950D01*
X44350Y-42950D01*
X45025Y-42950D01*
X45072Y-42863D01*
X44987Y-42662D01*
X44862Y-42547D01*
X44898Y-42533D01*
X44987Y-42444D01*
X46262Y-42444D01*
X46377Y-42559D01*
X46619Y-42659D01*
X46881Y-42659D01*
X47123Y-42559D01*
X47309Y-42373D01*
X47409Y-42131D01*
X47409Y-41869D01*
X47351Y-41729D01*
X47436Y-41814D01*
X47580Y-41910D01*
X47750Y-41944D01*
X49471Y-41944D01*
X49475Y-41950D01*
X50150Y-41950D01*
X50200Y-41950D01*
X50300Y-41950D01*
X50350Y-41950D01*
X51025Y-41950D01*
X51031Y-41937D01*
X51170Y-41910D01*
X51314Y-41814D01*
X51383Y-41744D01*
X51329Y-41875D01*
X51329Y-42125D01*
X51425Y-42356D01*
X51569Y-42500D01*
X51569Y-42500D01*
G37*
G54D20*
X51569Y-42500D02*
X51513Y-42556D01*
X51500Y-42556D01*
X51330Y-42590D01*
X51186Y-42686D01*
X51119Y-42752D01*
X51075Y-42644D01*
X50898Y-42467D01*
X50862Y-42452D01*
X50987Y-42338D01*
X51072Y-42137D01*
X51025Y-42050D01*
X50350Y-42050D01*
X50300Y-42050D01*
X50200Y-42050D01*
X50150Y-42050D01*
X49475Y-42050D01*
X49428Y-42137D01*
X49513Y-42338D01*
X49637Y-42452D01*
X49602Y-42467D01*
X49513Y-42556D01*
X48738Y-42556D01*
X48623Y-42441D01*
X48381Y-42341D01*
X48119Y-42341D01*
X47877Y-42441D01*
X47691Y-42627D01*
X47591Y-42869D01*
X47591Y-43131D01*
X47691Y-43373D01*
X47693Y-43375D01*
X47691Y-43377D01*
X47591Y-43619D01*
X47591Y-43704D01*
X47559Y-43627D01*
X47373Y-43441D01*
X47131Y-43341D01*
X46869Y-43341D01*
X46627Y-43441D01*
X46512Y-43556D01*
X46000Y-43556D01*
X45830Y-43590D01*
X45686Y-43686D01*
X45116Y-44255D01*
X45171Y-44125D01*
X45171Y-43875D01*
X45075Y-43644D01*
X44898Y-43467D01*
X44862Y-43452D01*
X44987Y-43338D01*
X45072Y-43137D01*
X45025Y-43050D01*
X44350Y-43050D01*
X44300Y-43050D01*
X44200Y-43050D01*
X44200Y-42950D01*
X44300Y-42950D01*
X44350Y-42950D01*
X45025Y-42950D01*
X45072Y-42863D01*
X44987Y-42662D01*
X44862Y-42547D01*
X44898Y-42533D01*
X44987Y-42444D01*
X46262Y-42444D01*
X46377Y-42559D01*
X46619Y-42659D01*
X46881Y-42659D01*
X47123Y-42559D01*
X47309Y-42373D01*
X47409Y-42131D01*
X47409Y-41869D01*
X47351Y-41729D01*
X47436Y-41814D01*
X47580Y-41910D01*
X47750Y-41944D01*
X49471Y-41944D01*
X49475Y-41950D01*
X50150Y-41950D01*
X50200Y-41950D01*
X50300Y-41950D01*
X50350Y-41950D01*
X51025Y-41950D01*
X51031Y-41937D01*
X51170Y-41910D01*
X51314Y-41814D01*
X51383Y-41744D01*
X51329Y-41875D01*
X51329Y-42125D01*
X51425Y-42356D01*
X51569Y-42500D01*
G54D10*
G36*
X62678Y-37056D02*
X62250Y-37056D01*
X61750Y-37056D01*
X61528Y-37056D01*
X61525Y-37050D01*
X60850Y-37050D01*
X60800Y-37050D01*
X60700Y-37050D01*
X60700Y-36950D01*
X60800Y-36950D01*
X60850Y-36950D01*
X61525Y-36950D01*
X61528Y-36944D01*
X61750Y-36944D01*
X62566Y-36944D01*
X62678Y-37056D01*
X62678Y-37056D01*
G37*
G54D20*
X62678Y-37056D02*
X62250Y-37056D01*
X61750Y-37056D01*
X61528Y-37056D01*
X61525Y-37050D01*
X60850Y-37050D01*
X60800Y-37050D01*
X60700Y-37050D01*
X60700Y-36950D01*
X60800Y-36950D01*
X60850Y-36950D01*
X61525Y-36950D01*
X61528Y-36944D01*
X61750Y-36944D01*
X62566Y-36944D01*
X62678Y-37056D01*
G54D10*
G36*
X66069Y-39500D02*
X65925Y-39644D01*
X65829Y-39875D01*
X65829Y-40040D01*
X64848Y-40034D01*
X64817Y-40039D01*
X64787Y-40038D01*
X64731Y-40056D01*
X64678Y-40067D01*
X64654Y-40082D01*
X64623Y-40093D01*
X64576Y-40133D01*
X64533Y-40162D01*
X64517Y-40184D01*
X64492Y-40207D01*
X63453Y-41556D01*
X63376Y-41556D01*
X63559Y-41373D01*
X63659Y-41131D01*
X63659Y-40869D01*
X63562Y-40635D01*
X63619Y-40659D01*
X63881Y-40659D01*
X64123Y-40559D01*
X64309Y-40373D01*
X64409Y-40131D01*
X64409Y-39869D01*
X64309Y-39627D01*
X64123Y-39441D01*
X63881Y-39341D01*
X63619Y-39341D01*
X63377Y-39441D01*
X63262Y-39556D01*
X61487Y-39556D01*
X61431Y-39500D01*
X61575Y-39356D01*
X61671Y-39125D01*
X61671Y-38875D01*
X61575Y-38644D01*
X61431Y-38500D01*
X61575Y-38356D01*
X61671Y-38125D01*
X61671Y-37944D01*
X61750Y-37944D01*
X62250Y-37944D01*
X62874Y-37944D01*
X62691Y-38127D01*
X62591Y-38369D01*
X62591Y-38631D01*
X62691Y-38873D01*
X62877Y-39059D01*
X63119Y-39159D01*
X63381Y-39159D01*
X63623Y-39059D01*
X63738Y-38944D01*
X65012Y-38944D01*
X65127Y-39059D01*
X65369Y-39159D01*
X65631Y-39159D01*
X65829Y-39077D01*
X65829Y-39125D01*
X65925Y-39356D01*
X66069Y-39500D01*
X66069Y-39500D01*
G37*
G54D20*
X66069Y-39500D02*
X65925Y-39644D01*
X65829Y-39875D01*
X65829Y-40040D01*
X64848Y-40034D01*
X64817Y-40039D01*
X64787Y-40038D01*
X64731Y-40056D01*
X64678Y-40067D01*
X64654Y-40082D01*
X64623Y-40093D01*
X64576Y-40133D01*
X64533Y-40162D01*
X64517Y-40184D01*
X64492Y-40207D01*
X63453Y-41556D01*
X63376Y-41556D01*
X63559Y-41373D01*
X63659Y-41131D01*
X63659Y-40869D01*
X63562Y-40635D01*
X63619Y-40659D01*
X63881Y-40659D01*
X64123Y-40559D01*
X64309Y-40373D01*
X64409Y-40131D01*
X64409Y-39869D01*
X64309Y-39627D01*
X64123Y-39441D01*
X63881Y-39341D01*
X63619Y-39341D01*
X63377Y-39441D01*
X63262Y-39556D01*
X61487Y-39556D01*
X61431Y-39500D01*
X61575Y-39356D01*
X61671Y-39125D01*
X61671Y-38875D01*
X61575Y-38644D01*
X61431Y-38500D01*
X61575Y-38356D01*
X61671Y-38125D01*
X61671Y-37944D01*
X61750Y-37944D01*
X62250Y-37944D01*
X62874Y-37944D01*
X62691Y-38127D01*
X62591Y-38369D01*
X62591Y-38631D01*
X62691Y-38873D01*
X62877Y-39059D01*
X63119Y-39159D01*
X63381Y-39159D01*
X63623Y-39059D01*
X63738Y-38944D01*
X65012Y-38944D01*
X65127Y-39059D01*
X65369Y-39159D01*
X65631Y-39159D01*
X65829Y-39077D01*
X65829Y-39125D01*
X65925Y-39356D01*
X66069Y-39500D01*
G54D10*
G36*
X66137Y-44547D02*
X66013Y-44662D01*
X65928Y-44863D01*
X65947Y-44900D01*
X65910Y-44900D01*
X65910Y-44978D01*
X65873Y-44941D01*
X65631Y-44841D01*
X65369Y-44841D01*
X65127Y-44941D01*
X64941Y-45127D01*
X64900Y-45226D01*
X64900Y-44962D01*
X64838Y-44900D01*
X64300Y-44900D01*
X64300Y-45338D01*
X64362Y-45400D01*
X64601Y-45399D01*
X64700Y-45399D01*
X64791Y-45361D01*
X64861Y-45291D01*
X64899Y-45199D01*
X64900Y-44962D01*
X64900Y-45226D01*
X64841Y-45369D01*
X64841Y-45580D01*
X64835Y-45574D01*
X64716Y-45524D01*
X64586Y-45524D01*
X64200Y-45524D01*
X64200Y-45338D01*
X64200Y-44900D01*
X63662Y-44900D01*
X63600Y-44962D01*
X63601Y-45199D01*
X63639Y-45291D01*
X63709Y-45361D01*
X63800Y-45399D01*
X63899Y-45399D01*
X64138Y-45400D01*
X64200Y-45338D01*
X64200Y-45524D01*
X63786Y-45524D01*
X63666Y-45573D01*
X63574Y-45665D01*
X63524Y-45784D01*
X63524Y-45914D01*
X63524Y-46514D01*
X63541Y-46556D01*
X63250Y-46556D01*
X62000Y-46556D01*
X61487Y-46556D01*
X61431Y-46500D01*
X61575Y-46356D01*
X61612Y-46265D01*
X63434Y-44444D01*
X63624Y-44444D01*
X63601Y-44501D01*
X63600Y-44738D01*
X63662Y-44800D01*
X64150Y-44800D01*
X64200Y-44800D01*
X64300Y-44800D01*
X64350Y-44800D01*
X64838Y-44800D01*
X64900Y-44738D01*
X64899Y-44501D01*
X64875Y-44444D01*
X65250Y-44444D01*
X65420Y-44410D01*
X65564Y-44314D01*
X65829Y-44049D01*
X65829Y-44125D01*
X65925Y-44356D01*
X66102Y-44533D01*
X66137Y-44547D01*
X66137Y-44547D01*
G37*
G54D20*
X66137Y-44547D02*
X66013Y-44662D01*
X65928Y-44863D01*
X65947Y-44900D01*
X65910Y-44900D01*
X65910Y-44978D01*
X65873Y-44941D01*
X65631Y-44841D01*
X65369Y-44841D01*
X65127Y-44941D01*
X64941Y-45127D01*
X64900Y-45226D01*
X64900Y-44962D01*
X64838Y-44900D01*
X64300Y-44900D01*
X64300Y-45338D01*
X64362Y-45400D01*
X64601Y-45399D01*
X64700Y-45399D01*
X64791Y-45361D01*
X64861Y-45291D01*
X64899Y-45199D01*
X64900Y-44962D01*
X64900Y-45226D01*
X64841Y-45369D01*
X64841Y-45580D01*
X64835Y-45574D01*
X64716Y-45524D01*
X64586Y-45524D01*
X64200Y-45524D01*
X64200Y-45338D01*
X64200Y-44900D01*
X63662Y-44900D01*
X63600Y-44962D01*
X63601Y-45199D01*
X63639Y-45291D01*
X63709Y-45361D01*
X63800Y-45399D01*
X63899Y-45399D01*
X64138Y-45400D01*
X64200Y-45338D01*
X64200Y-45524D01*
X63786Y-45524D01*
X63666Y-45573D01*
X63574Y-45665D01*
X63524Y-45784D01*
X63524Y-45914D01*
X63524Y-46514D01*
X63541Y-46556D01*
X63250Y-46556D01*
X62000Y-46556D01*
X61487Y-46556D01*
X61431Y-46500D01*
X61575Y-46356D01*
X61612Y-46265D01*
X63434Y-44444D01*
X63624Y-44444D01*
X63601Y-44501D01*
X63600Y-44738D01*
X63662Y-44800D01*
X64150Y-44800D01*
X64200Y-44800D01*
X64300Y-44800D01*
X64350Y-44800D01*
X64838Y-44800D01*
X64900Y-44738D01*
X64899Y-44501D01*
X64875Y-44444D01*
X65250Y-44444D01*
X65420Y-44410D01*
X65564Y-44314D01*
X65829Y-44049D01*
X65829Y-44125D01*
X65925Y-44356D01*
X66102Y-44533D01*
X66137Y-44547D01*
G54D10*
G36*
X66800Y-45050D02*
X66700Y-45050D01*
X66700Y-44950D01*
X66800Y-44950D01*
X66800Y-45050D01*
X66800Y-45050D01*
G37*
G54D20*
X66800Y-45050D02*
X66700Y-45050D01*
X66700Y-44950D01*
X66800Y-44950D01*
X66800Y-45050D01*
G54D10*
G36*
X69300Y-40050D02*
X69200Y-40050D01*
X69150Y-40050D01*
X68475Y-40050D01*
X68444Y-40106D01*
X68420Y-40090D01*
X68250Y-40056D01*
X68240Y-40057D01*
X67671Y-40053D01*
X67671Y-39875D01*
X67616Y-39744D01*
X67686Y-39814D01*
X67830Y-39910D01*
X68000Y-39944D01*
X68471Y-39944D01*
X68475Y-39950D01*
X69150Y-39950D01*
X69200Y-39950D01*
X69300Y-39950D01*
X69300Y-40050D01*
X69300Y-40050D01*
G37*
G54D20*
X69300Y-40050D02*
X69200Y-40050D01*
X69150Y-40050D01*
X68475Y-40050D01*
X68444Y-40106D01*
X68420Y-40090D01*
X68250Y-40056D01*
X68240Y-40057D01*
X67671Y-40053D01*
X67671Y-39875D01*
X67616Y-39744D01*
X67686Y-39814D01*
X67830Y-39910D01*
X68000Y-39944D01*
X68471Y-39944D01*
X68475Y-39950D01*
X69150Y-39950D01*
X69200Y-39950D01*
X69300Y-39950D01*
X69300Y-40050D01*
G54D10*
G36*
X71637Y-39452D02*
X71602Y-39467D01*
X71425Y-39644D01*
X71329Y-39875D01*
X71329Y-40056D01*
X70626Y-40056D01*
X70809Y-39873D01*
X70909Y-39631D01*
X70909Y-39444D01*
X71000Y-39444D01*
X71170Y-39410D01*
X71314Y-39314D01*
X71446Y-39181D01*
X71513Y-39338D01*
X71637Y-39452D01*
X71637Y-39452D01*
G37*
G54D20*
X71637Y-39452D02*
X71602Y-39467D01*
X71425Y-39644D01*
X71329Y-39875D01*
X71329Y-40056D01*
X70626Y-40056D01*
X70809Y-39873D01*
X70909Y-39631D01*
X70909Y-39444D01*
X71000Y-39444D01*
X71170Y-39410D01*
X71314Y-39314D01*
X71446Y-39181D01*
X71513Y-39338D01*
X71637Y-39452D01*
G54D10*
G36*
X72300Y-39050D02*
X72200Y-39050D01*
X72200Y-38950D01*
X72300Y-38950D01*
X72300Y-39050D01*
X72300Y-39050D01*
G37*
G54D20*
X72300Y-39050D02*
X72200Y-39050D01*
X72200Y-38950D01*
X72300Y-38950D01*
X72300Y-39050D01*
G54D10*
G36*
X78300Y-47550D02*
X78200Y-47550D01*
X78150Y-47550D01*
X77475Y-47550D01*
X77428Y-47637D01*
X77513Y-47838D01*
X77637Y-47952D01*
X77602Y-47967D01*
X77425Y-48144D01*
X77329Y-48375D01*
X77329Y-48451D01*
X77064Y-48186D01*
X76920Y-48090D01*
X76750Y-48056D01*
X76488Y-48056D01*
X76373Y-47941D01*
X76166Y-47855D01*
X76166Y-47751D01*
X76166Y-47461D01*
X76433Y-47194D01*
X77499Y-47194D01*
X77428Y-47363D01*
X77475Y-47450D01*
X78150Y-47450D01*
X78200Y-47450D01*
X78300Y-47450D01*
X78300Y-47550D01*
X78300Y-47550D01*
G37*
G54D20*
X78300Y-47550D02*
X78200Y-47550D01*
X78150Y-47550D01*
X77475Y-47550D01*
X77428Y-47637D01*
X77513Y-47838D01*
X77637Y-47952D01*
X77602Y-47967D01*
X77425Y-48144D01*
X77329Y-48375D01*
X77329Y-48451D01*
X77064Y-48186D01*
X76920Y-48090D01*
X76750Y-48056D01*
X76488Y-48056D01*
X76373Y-47941D01*
X76166Y-47855D01*
X76166Y-47751D01*
X76166Y-47461D01*
X76433Y-47194D01*
X77499Y-47194D01*
X77428Y-47363D01*
X77475Y-47450D01*
X78150Y-47450D01*
X78200Y-47450D01*
X78300Y-47450D01*
X78300Y-47550D01*
G54D10*
G36*
X83404Y-42306D02*
X82000Y-42306D01*
X82072Y-42137D01*
X82025Y-42050D01*
X81350Y-42050D01*
X81300Y-42050D01*
X81200Y-42050D01*
X81150Y-42050D01*
X80475Y-42050D01*
X80458Y-42080D01*
X80322Y-41944D01*
X80471Y-41944D01*
X80475Y-41950D01*
X81150Y-41950D01*
X81200Y-41950D01*
X81300Y-41950D01*
X81350Y-41950D01*
X82025Y-41950D01*
X82072Y-41863D01*
X82054Y-41820D01*
X82064Y-41814D01*
X82648Y-41229D01*
X82591Y-41369D01*
X82591Y-41631D01*
X82691Y-41873D01*
X82877Y-42059D01*
X83119Y-42159D01*
X83343Y-42159D01*
X83404Y-42306D01*
X83404Y-42306D01*
G37*
G54D20*
X83404Y-42306D02*
X82000Y-42306D01*
X82072Y-42137D01*
X82025Y-42050D01*
X81350Y-42050D01*
X81300Y-42050D01*
X81200Y-42050D01*
X81150Y-42050D01*
X80475Y-42050D01*
X80458Y-42080D01*
X80322Y-41944D01*
X80471Y-41944D01*
X80475Y-41950D01*
X81150Y-41950D01*
X81200Y-41950D01*
X81300Y-41950D01*
X81350Y-41950D01*
X82025Y-41950D01*
X82072Y-41863D01*
X82054Y-41820D01*
X82064Y-41814D01*
X82648Y-41229D01*
X82591Y-41369D01*
X82591Y-41631D01*
X82691Y-41873D01*
X82877Y-42059D01*
X83119Y-42159D01*
X83343Y-42159D01*
X83404Y-42306D01*
G54D10*
G36*
X85556Y-48556D02*
X84987Y-48556D01*
X84898Y-48467D01*
X84862Y-48452D01*
X84987Y-48338D01*
X85072Y-48137D01*
X85025Y-48050D01*
X84350Y-48050D01*
X84300Y-48050D01*
X84200Y-48050D01*
X84200Y-47950D01*
X84300Y-47950D01*
X84350Y-47950D01*
X85025Y-47950D01*
X85028Y-47944D01*
X85556Y-47944D01*
X85556Y-48556D01*
X85556Y-48556D01*
G37*
G54D20*
X85556Y-48556D02*
X84987Y-48556D01*
X84898Y-48467D01*
X84862Y-48452D01*
X84987Y-48338D01*
X85072Y-48137D01*
X85025Y-48050D01*
X84350Y-48050D01*
X84300Y-48050D01*
X84200Y-48050D01*
X84200Y-47950D01*
X84300Y-47950D01*
X84350Y-47950D01*
X85025Y-47950D01*
X85028Y-47944D01*
X85556Y-47944D01*
X85556Y-48556D01*
G54D10*
G36*
X92700Y-53660D02*
X92653Y-53630D01*
X92500Y-53599D01*
X92328Y-53599D01*
X92298Y-53444D01*
X92238Y-53300D01*
X92159Y-53181D01*
X92159Y-34131D01*
X92159Y-33869D01*
X92059Y-33627D01*
X91944Y-33512D01*
X91944Y-31427D01*
X91948Y-31410D01*
X91920Y-31239D01*
X91828Y-31092D01*
X86594Y-25518D01*
X86565Y-25473D01*
X86421Y-25377D01*
X86251Y-25343D01*
X65251Y-25306D01*
X65250Y-25306D01*
X38000Y-25306D01*
X37830Y-25340D01*
X37686Y-25436D01*
X37531Y-25591D01*
X37369Y-25591D01*
X37127Y-25691D01*
X37000Y-25818D01*
X36873Y-25691D01*
X36631Y-25591D01*
X36369Y-25591D01*
X36127Y-25691D01*
X35941Y-25877D01*
X35841Y-26119D01*
X35841Y-26281D01*
X30686Y-31436D01*
X30590Y-31580D01*
X30556Y-31750D01*
X30556Y-45000D01*
X30590Y-45170D01*
X30686Y-45314D01*
X32686Y-47314D01*
X32830Y-47410D01*
X33000Y-47444D01*
X34757Y-47444D01*
X34813Y-47500D01*
X34669Y-47644D01*
X34573Y-47875D01*
X34573Y-48125D01*
X34669Y-48356D01*
X34846Y-48533D01*
X35077Y-48629D01*
X35306Y-48629D01*
X35306Y-48991D01*
X35306Y-49000D01*
X35319Y-49067D01*
X35336Y-49161D01*
X35339Y-49165D01*
X35340Y-49170D01*
X35392Y-49248D01*
X35430Y-49307D01*
X35434Y-49311D01*
X35436Y-49314D01*
X35437Y-49315D01*
X38652Y-52668D01*
X34955Y-52668D01*
X34955Y-55213D01*
X39045Y-55213D01*
X39045Y-53077D01*
X41177Y-55301D01*
X41186Y-55314D01*
X41330Y-55410D01*
X41492Y-55442D01*
X41500Y-55444D01*
X42774Y-55444D01*
X42774Y-55514D01*
X42823Y-55634D01*
X42915Y-55726D01*
X43034Y-55776D01*
X43164Y-55776D01*
X43964Y-55776D01*
X44084Y-55727D01*
X44176Y-55635D01*
X44226Y-55516D01*
X44226Y-55444D01*
X44500Y-55444D01*
X45000Y-55444D01*
X47762Y-55444D01*
X47877Y-55559D01*
X48119Y-55659D01*
X48381Y-55659D01*
X48623Y-55559D01*
X48738Y-55444D01*
X58524Y-55444D01*
X58524Y-55514D01*
X58573Y-55634D01*
X58665Y-55726D01*
X58784Y-55776D01*
X58914Y-55776D01*
X59714Y-55776D01*
X59834Y-55727D01*
X59926Y-55635D01*
X59951Y-55573D01*
X60020Y-55560D01*
X60164Y-55464D01*
X60184Y-55444D01*
X60250Y-55444D01*
X60750Y-55444D01*
X63250Y-55444D01*
X65512Y-55444D01*
X65627Y-55559D01*
X65869Y-55659D01*
X66131Y-55659D01*
X66373Y-55559D01*
X66488Y-55444D01*
X70762Y-55444D01*
X70877Y-55559D01*
X71119Y-55659D01*
X71381Y-55659D01*
X71623Y-55559D01*
X71738Y-55444D01*
X79524Y-55444D01*
X79524Y-55514D01*
X79573Y-55634D01*
X79665Y-55726D01*
X79784Y-55776D01*
X79914Y-55776D01*
X80714Y-55776D01*
X80834Y-55727D01*
X80926Y-55635D01*
X80976Y-55516D01*
X80976Y-55444D01*
X85024Y-55444D01*
X85024Y-55514D01*
X85073Y-55634D01*
X85165Y-55726D01*
X85284Y-55776D01*
X85414Y-55776D01*
X86214Y-55776D01*
X86334Y-55727D01*
X86426Y-55635D01*
X86476Y-55516D01*
X86476Y-55386D01*
X86476Y-54786D01*
X86427Y-54666D01*
X86400Y-54639D01*
X86400Y-53962D01*
X86338Y-53900D01*
X85800Y-53900D01*
X85800Y-54338D01*
X85862Y-54400D01*
X86101Y-54399D01*
X86200Y-54399D01*
X86291Y-54361D01*
X86361Y-54291D01*
X86399Y-54199D01*
X86400Y-53962D01*
X86400Y-54639D01*
X86335Y-54574D01*
X86216Y-54524D01*
X86086Y-54524D01*
X85700Y-54524D01*
X85700Y-54338D01*
X85700Y-53900D01*
X85162Y-53900D01*
X85100Y-53962D01*
X85101Y-54199D01*
X85139Y-54291D01*
X85209Y-54361D01*
X85300Y-54399D01*
X85399Y-54399D01*
X85638Y-54400D01*
X85700Y-54338D01*
X85700Y-54524D01*
X85286Y-54524D01*
X85207Y-54556D01*
X80900Y-54556D01*
X80900Y-53962D01*
X80838Y-53900D01*
X80300Y-53900D01*
X80300Y-54338D01*
X80362Y-54400D01*
X80601Y-54399D01*
X80700Y-54399D01*
X80791Y-54361D01*
X80861Y-54291D01*
X80899Y-54199D01*
X80900Y-53962D01*
X80900Y-54556D01*
X80792Y-54556D01*
X80716Y-54524D01*
X80586Y-54524D01*
X80200Y-54524D01*
X80200Y-54338D01*
X80200Y-53900D01*
X79662Y-53900D01*
X79600Y-53962D01*
X79601Y-54199D01*
X79639Y-54291D01*
X79709Y-54361D01*
X79800Y-54399D01*
X79899Y-54399D01*
X80138Y-54400D01*
X80200Y-54338D01*
X80200Y-54524D01*
X79786Y-54524D01*
X79707Y-54556D01*
X71738Y-54556D01*
X71623Y-54441D01*
X71381Y-54341D01*
X71119Y-54341D01*
X70877Y-54441D01*
X70762Y-54556D01*
X66488Y-54556D01*
X66373Y-54441D01*
X66131Y-54341D01*
X65869Y-54341D01*
X65627Y-54441D01*
X65512Y-54556D01*
X63250Y-54556D01*
X62072Y-54556D01*
X62072Y-53137D01*
X62025Y-53050D01*
X61300Y-53050D01*
X61300Y-53565D01*
X61612Y-53565D01*
X61822Y-53489D01*
X61987Y-53338D01*
X62072Y-53137D01*
X62072Y-54556D01*
X61200Y-54556D01*
X61200Y-53565D01*
X61200Y-53050D01*
X60475Y-53050D01*
X60428Y-53137D01*
X60513Y-53338D01*
X60678Y-53489D01*
X60888Y-53565D01*
X61200Y-53565D01*
X61200Y-54556D01*
X60750Y-54556D01*
X60250Y-54556D01*
X60000Y-54556D01*
X59900Y-54556D01*
X59900Y-53962D01*
X59900Y-53738D01*
X59899Y-53501D01*
X59861Y-53409D01*
X59791Y-53339D01*
X59700Y-53301D01*
X59601Y-53301D01*
X59362Y-53300D01*
X59300Y-53362D01*
X59300Y-53800D01*
X59838Y-53800D01*
X59900Y-53738D01*
X59900Y-53962D01*
X59838Y-53900D01*
X59300Y-53900D01*
X59300Y-54338D01*
X59362Y-54400D01*
X59601Y-54399D01*
X59700Y-54399D01*
X59791Y-54361D01*
X59861Y-54291D01*
X59899Y-54199D01*
X59900Y-53962D01*
X59900Y-54556D01*
X59792Y-54556D01*
X59716Y-54524D01*
X59586Y-54524D01*
X59200Y-54524D01*
X59200Y-54338D01*
X59200Y-53900D01*
X59200Y-53800D01*
X59200Y-53362D01*
X59138Y-53300D01*
X58899Y-53301D01*
X58800Y-53301D01*
X58709Y-53339D01*
X58639Y-53409D01*
X58601Y-53501D01*
X58600Y-53738D01*
X58662Y-53800D01*
X59200Y-53800D01*
X59200Y-53900D01*
X58662Y-53900D01*
X58600Y-53962D01*
X58601Y-54199D01*
X58639Y-54291D01*
X58709Y-54361D01*
X58800Y-54399D01*
X58899Y-54399D01*
X59138Y-54400D01*
X59200Y-54338D01*
X59200Y-54524D01*
X58786Y-54524D01*
X58707Y-54556D01*
X53072Y-54556D01*
X53072Y-52137D01*
X53025Y-52050D01*
X52300Y-52050D01*
X52300Y-52565D01*
X52612Y-52565D01*
X52822Y-52489D01*
X52987Y-52338D01*
X53072Y-52137D01*
X53072Y-54556D01*
X52200Y-54556D01*
X52200Y-52565D01*
X52200Y-52050D01*
X51475Y-52050D01*
X51428Y-52137D01*
X51513Y-52338D01*
X51678Y-52489D01*
X51888Y-52565D01*
X52200Y-52565D01*
X52200Y-54556D01*
X48738Y-54556D01*
X48623Y-54441D01*
X48381Y-54341D01*
X48119Y-54341D01*
X47877Y-54441D01*
X47762Y-54556D01*
X45000Y-54556D01*
X44500Y-54556D01*
X44150Y-54556D01*
X44150Y-53962D01*
X44088Y-53900D01*
X43550Y-53900D01*
X43550Y-54338D01*
X43612Y-54400D01*
X43851Y-54399D01*
X43950Y-54399D01*
X44041Y-54361D01*
X44111Y-54291D01*
X44149Y-54199D01*
X44150Y-53962D01*
X44150Y-54556D01*
X44042Y-54556D01*
X43966Y-54524D01*
X43836Y-54524D01*
X43450Y-54524D01*
X43450Y-54338D01*
X43450Y-53900D01*
X42912Y-53900D01*
X42850Y-53962D01*
X42851Y-54199D01*
X42889Y-54291D01*
X42959Y-54361D01*
X43050Y-54399D01*
X43149Y-54399D01*
X43388Y-54400D01*
X43450Y-54338D01*
X43450Y-54524D01*
X43036Y-54524D01*
X42957Y-54556D01*
X41692Y-54556D01*
X37828Y-50526D01*
X37828Y-48137D01*
X37781Y-48050D01*
X37056Y-48050D01*
X37056Y-48565D01*
X37368Y-48565D01*
X37578Y-48489D01*
X37743Y-48338D01*
X37828Y-48137D01*
X37828Y-50526D01*
X36194Y-48822D01*
X36194Y-48481D01*
X36304Y-48370D01*
X36434Y-48489D01*
X36644Y-48565D01*
X36956Y-48565D01*
X36956Y-48100D01*
X36956Y-48050D01*
X36956Y-47950D01*
X37056Y-47950D01*
X37106Y-47950D01*
X37781Y-47950D01*
X37828Y-47863D01*
X37743Y-47662D01*
X37618Y-47547D01*
X37654Y-47533D01*
X37743Y-47444D01*
X38500Y-47444D01*
X38670Y-47410D01*
X38814Y-47314D01*
X39241Y-46886D01*
X39241Y-47131D01*
X39337Y-47364D01*
X39281Y-47341D01*
X39019Y-47341D01*
X38777Y-47441D01*
X38591Y-47627D01*
X38491Y-47869D01*
X38491Y-48131D01*
X38591Y-48373D01*
X38706Y-48488D01*
X38706Y-49900D01*
X38707Y-49907D01*
X38706Y-49917D01*
X38724Y-49994D01*
X38740Y-50070D01*
X38745Y-50077D01*
X38747Y-50085D01*
X38790Y-50145D01*
X38836Y-50214D01*
X38842Y-50218D01*
X38848Y-50226D01*
X42197Y-53327D01*
X42293Y-53385D01*
X42330Y-53410D01*
X42335Y-53411D01*
X42345Y-53417D01*
X42455Y-53435D01*
X42500Y-53444D01*
X42509Y-53444D01*
X42516Y-53445D01*
X42520Y-53444D01*
X42874Y-53444D01*
X42851Y-53501D01*
X42850Y-53738D01*
X42912Y-53800D01*
X43400Y-53800D01*
X43450Y-53800D01*
X43550Y-53800D01*
X43600Y-53800D01*
X44088Y-53800D01*
X44150Y-53738D01*
X44149Y-53501D01*
X44125Y-53444D01*
X45750Y-53444D01*
X49250Y-53444D01*
X49420Y-53410D01*
X49564Y-53314D01*
X50249Y-52629D01*
X50667Y-52629D01*
X50898Y-52533D01*
X51075Y-52356D01*
X51171Y-52125D01*
X51171Y-51944D01*
X51250Y-51944D01*
X51420Y-51910D01*
X51444Y-51893D01*
X51475Y-51950D01*
X52150Y-51950D01*
X52200Y-51950D01*
X52300Y-51950D01*
X52350Y-51950D01*
X53025Y-51950D01*
X53072Y-51863D01*
X52987Y-51662D01*
X52862Y-51547D01*
X52898Y-51533D01*
X52987Y-51444D01*
X54000Y-51444D01*
X54170Y-51410D01*
X54314Y-51314D01*
X54684Y-50944D01*
X57329Y-50944D01*
X57329Y-51125D01*
X57425Y-51356D01*
X57569Y-51500D01*
X57425Y-51644D01*
X57329Y-51875D01*
X57329Y-52125D01*
X57425Y-52356D01*
X57602Y-52533D01*
X57833Y-52629D01*
X58083Y-52629D01*
X58667Y-52629D01*
X58898Y-52533D01*
X59075Y-52356D01*
X59171Y-52125D01*
X59171Y-51875D01*
X59075Y-51644D01*
X58931Y-51500D01*
X59075Y-51356D01*
X59171Y-51125D01*
X59171Y-50944D01*
X59566Y-50944D01*
X59936Y-51314D01*
X60080Y-51410D01*
X60250Y-51444D01*
X60513Y-51444D01*
X60569Y-51500D01*
X60425Y-51644D01*
X60329Y-51875D01*
X60329Y-52125D01*
X60425Y-52356D01*
X60602Y-52533D01*
X60637Y-52547D01*
X60513Y-52662D01*
X60428Y-52863D01*
X60475Y-52950D01*
X61150Y-52950D01*
X61200Y-52950D01*
X61300Y-52950D01*
X61350Y-52950D01*
X62025Y-52950D01*
X62072Y-52863D01*
X61987Y-52662D01*
X61862Y-52547D01*
X61898Y-52533D01*
X62075Y-52356D01*
X62171Y-52125D01*
X62171Y-51875D01*
X62075Y-51644D01*
X61931Y-51500D01*
X61987Y-51444D01*
X62042Y-51444D01*
X63158Y-52784D01*
X63175Y-52797D01*
X63186Y-52814D01*
X63238Y-52849D01*
X63293Y-52893D01*
X63313Y-52899D01*
X63329Y-52909D01*
X63329Y-53125D01*
X63425Y-53356D01*
X63602Y-53533D01*
X63833Y-53629D01*
X64083Y-53629D01*
X64667Y-53629D01*
X64898Y-53533D01*
X64987Y-53444D01*
X67000Y-53444D01*
X67170Y-53410D01*
X67314Y-53314D01*
X68446Y-52181D01*
X68513Y-52338D01*
X68678Y-52489D01*
X68888Y-52565D01*
X69200Y-52565D01*
X69200Y-52100D01*
X69200Y-52050D01*
X69200Y-51950D01*
X69300Y-51950D01*
X69300Y-52050D01*
X69300Y-52100D01*
X69300Y-52565D01*
X69612Y-52565D01*
X69806Y-52494D01*
X69806Y-52512D01*
X69691Y-52627D01*
X69591Y-52869D01*
X69591Y-53131D01*
X69691Y-53373D01*
X69877Y-53559D01*
X70119Y-53659D01*
X70381Y-53659D01*
X70623Y-53559D01*
X70809Y-53373D01*
X70909Y-53131D01*
X70909Y-52869D01*
X70809Y-52627D01*
X70694Y-52512D01*
X70694Y-52432D01*
X70750Y-52444D01*
X71513Y-52444D01*
X71602Y-52533D01*
X71806Y-52617D01*
X71806Y-53500D01*
X71840Y-53670D01*
X71936Y-53814D01*
X72080Y-53910D01*
X72250Y-53944D01*
X74513Y-53944D01*
X74602Y-54033D01*
X74833Y-54129D01*
X75083Y-54129D01*
X75667Y-54129D01*
X75898Y-54033D01*
X76075Y-53856D01*
X76171Y-53625D01*
X76171Y-53444D01*
X76591Y-53444D01*
X76591Y-53631D01*
X76691Y-53873D01*
X76877Y-54059D01*
X77119Y-54159D01*
X77381Y-54159D01*
X77623Y-54059D01*
X77635Y-54046D01*
X77833Y-54129D01*
X78083Y-54129D01*
X78667Y-54129D01*
X78898Y-54033D01*
X79075Y-53856D01*
X79171Y-53625D01*
X79171Y-53444D01*
X79624Y-53444D01*
X79601Y-53501D01*
X79600Y-53738D01*
X79662Y-53800D01*
X80150Y-53800D01*
X80200Y-53800D01*
X80300Y-53800D01*
X80350Y-53800D01*
X80838Y-53800D01*
X80900Y-53738D01*
X80899Y-53629D01*
X81083Y-53629D01*
X81667Y-53629D01*
X81898Y-53533D01*
X82075Y-53356D01*
X82171Y-53125D01*
X82171Y-52875D01*
X82075Y-52644D01*
X81931Y-52500D01*
X82075Y-52356D01*
X82171Y-52125D01*
X82171Y-51875D01*
X82075Y-51644D01*
X81931Y-51500D01*
X82075Y-51356D01*
X82171Y-51125D01*
X82171Y-50875D01*
X82075Y-50644D01*
X81931Y-50500D01*
X82075Y-50356D01*
X82171Y-50125D01*
X82171Y-49875D01*
X82075Y-49644D01*
X81898Y-49467D01*
X81862Y-49452D01*
X81987Y-49338D01*
X82072Y-49137D01*
X82025Y-49050D01*
X81350Y-49050D01*
X81300Y-49050D01*
X81200Y-49050D01*
X81150Y-49050D01*
X80475Y-49050D01*
X80428Y-49137D01*
X80513Y-49338D01*
X80637Y-49452D01*
X80602Y-49467D01*
X80513Y-49556D01*
X80184Y-49556D01*
X79314Y-48686D01*
X79171Y-48590D01*
X79171Y-48375D01*
X79075Y-48144D01*
X78898Y-47967D01*
X78862Y-47952D01*
X78973Y-47850D01*
X79434Y-48311D01*
X79436Y-48314D01*
X79580Y-48410D01*
X79749Y-48444D01*
X79749Y-48443D01*
X79750Y-48444D01*
X80513Y-48444D01*
X80602Y-48533D01*
X80637Y-48547D01*
X80513Y-48662D01*
X80428Y-48863D01*
X80475Y-48950D01*
X81150Y-48950D01*
X81200Y-48950D01*
X81300Y-48950D01*
X81350Y-48950D01*
X82025Y-48950D01*
X82072Y-48863D01*
X81987Y-48662D01*
X81862Y-48547D01*
X81898Y-48533D01*
X81987Y-48444D01*
X82750Y-48444D01*
X82920Y-48410D01*
X83064Y-48314D01*
X83219Y-48159D01*
X83381Y-48159D01*
X83428Y-48139D01*
X83513Y-48338D01*
X83637Y-48452D01*
X83602Y-48467D01*
X83425Y-48644D01*
X83329Y-48875D01*
X83329Y-49125D01*
X83425Y-49356D01*
X83569Y-49500D01*
X83425Y-49644D01*
X83329Y-49875D01*
X83329Y-50125D01*
X83425Y-50356D01*
X83569Y-50500D01*
X83425Y-50644D01*
X83329Y-50875D01*
X83329Y-51125D01*
X83425Y-51356D01*
X83569Y-51500D01*
X83425Y-51644D01*
X83329Y-51875D01*
X83329Y-52125D01*
X83425Y-52356D01*
X83569Y-52500D01*
X83425Y-52644D01*
X83329Y-52875D01*
X83329Y-53125D01*
X83425Y-53356D01*
X83602Y-53533D01*
X83833Y-53629D01*
X84083Y-53629D01*
X84667Y-53629D01*
X84898Y-53533D01*
X84987Y-53444D01*
X85124Y-53444D01*
X85101Y-53501D01*
X85100Y-53738D01*
X85162Y-53800D01*
X85650Y-53800D01*
X85700Y-53800D01*
X85800Y-53800D01*
X85850Y-53800D01*
X86338Y-53800D01*
X86400Y-53738D01*
X86399Y-53501D01*
X86375Y-53444D01*
X87500Y-53444D01*
X87670Y-53410D01*
X87814Y-53314D01*
X91813Y-49315D01*
X91813Y-49314D01*
X91814Y-49314D01*
X91910Y-49170D01*
X91943Y-49001D01*
X91944Y-49000D01*
X91944Y-34488D01*
X92059Y-34373D01*
X92159Y-34131D01*
X92159Y-53181D01*
X91968Y-52894D01*
X91967Y-52893D01*
X91857Y-52783D01*
X91856Y-52782D01*
X91450Y-52511D01*
X91306Y-52451D01*
X91151Y-52420D01*
X91151Y-52250D01*
X91120Y-52097D01*
X91034Y-51966D01*
X90903Y-51880D01*
X90750Y-51849D01*
X90597Y-51880D01*
X90466Y-51966D01*
X90380Y-52097D01*
X90349Y-52250D01*
X90349Y-52421D01*
X90194Y-52452D01*
X90050Y-52512D01*
X89644Y-52782D01*
X89643Y-52783D01*
X89533Y-52893D01*
X89532Y-52894D01*
X89261Y-53300D01*
X89201Y-53444D01*
X89170Y-53599D01*
X89000Y-53599D01*
X88847Y-53630D01*
X88716Y-53716D01*
X88630Y-53847D01*
X88599Y-54000D01*
X88630Y-54153D01*
X88716Y-54284D01*
X88847Y-54370D01*
X89000Y-54401D01*
X89170Y-54401D01*
X89201Y-54556D01*
X89261Y-54700D01*
X89532Y-55106D01*
X89533Y-55107D01*
X89643Y-55217D01*
X89644Y-55218D01*
X90050Y-55488D01*
X90194Y-55548D01*
X90349Y-55578D01*
X90349Y-55750D01*
X90380Y-55903D01*
X90410Y-55950D01*
X34699Y-55950D01*
X34699Y-51251D01*
X34699Y-48553D01*
X30701Y-48553D01*
X30701Y-51251D01*
X34699Y-51251D01*
X34699Y-55950D01*
X32339Y-55950D01*
X32370Y-55903D01*
X32401Y-55750D01*
X32401Y-55579D01*
X32556Y-55549D01*
X32556Y-55548D01*
X32700Y-55489D01*
X33106Y-55218D01*
X33107Y-55217D01*
X33217Y-55107D01*
X33218Y-55106D01*
X33488Y-54700D01*
X33547Y-54556D01*
X33548Y-54556D01*
X33578Y-54401D01*
X33750Y-54401D01*
X33903Y-54370D01*
X34034Y-54284D01*
X34120Y-54153D01*
X34151Y-54000D01*
X34120Y-53847D01*
X34034Y-53716D01*
X33903Y-53630D01*
X33750Y-53599D01*
X33578Y-53599D01*
X33548Y-53444D01*
X33488Y-53300D01*
X33218Y-52894D01*
X33217Y-52893D01*
X33107Y-52783D01*
X33106Y-52782D01*
X32700Y-52511D01*
X32556Y-52451D01*
X32401Y-52420D01*
X32401Y-52250D01*
X32370Y-52097D01*
X32284Y-51966D01*
X32153Y-51880D01*
X32000Y-51849D01*
X31847Y-51880D01*
X31716Y-51966D01*
X31630Y-52097D01*
X31599Y-52250D01*
X31599Y-52421D01*
X31444Y-52452D01*
X31300Y-52512D01*
X30894Y-52782D01*
X30893Y-52783D01*
X30783Y-52893D01*
X30782Y-52894D01*
X30511Y-53300D01*
X30451Y-53444D01*
X30420Y-53599D01*
X30250Y-53599D01*
X30097Y-53630D01*
X30050Y-53660D01*
X30050Y-27089D01*
X30097Y-27120D01*
X30250Y-27151D01*
X30420Y-27151D01*
X30451Y-27306D01*
X30511Y-27450D01*
X30782Y-27856D01*
X30783Y-27857D01*
X30893Y-27967D01*
X30894Y-27968D01*
X31300Y-28238D01*
X31444Y-28298D01*
X31599Y-28328D01*
X31599Y-28500D01*
X31630Y-28653D01*
X31716Y-28784D01*
X31847Y-28870D01*
X32000Y-28901D01*
X32153Y-28870D01*
X32284Y-28784D01*
X32370Y-28653D01*
X32401Y-28500D01*
X32401Y-28329D01*
X32556Y-28299D01*
X32556Y-28298D01*
X32700Y-28239D01*
X33106Y-27968D01*
X33107Y-27967D01*
X33217Y-27857D01*
X33218Y-27856D01*
X33488Y-27450D01*
X33547Y-27306D01*
X33548Y-27306D01*
X33578Y-27151D01*
X33750Y-27151D01*
X33903Y-27120D01*
X34034Y-27034D01*
X34120Y-26903D01*
X34151Y-26750D01*
X34120Y-26597D01*
X34034Y-26466D01*
X33903Y-26380D01*
X33750Y-26349D01*
X33578Y-26349D01*
X33548Y-26194D01*
X33488Y-26050D01*
X33218Y-25644D01*
X33217Y-25643D01*
X33107Y-25533D01*
X33106Y-25532D01*
X32700Y-25261D01*
X32556Y-25201D01*
X32401Y-25170D01*
X32401Y-25000D01*
X32370Y-24847D01*
X32339Y-24800D01*
X90410Y-24800D01*
X90380Y-24847D01*
X90349Y-25000D01*
X90349Y-25171D01*
X90194Y-25202D01*
X90050Y-25262D01*
X89644Y-25532D01*
X89643Y-25533D01*
X89533Y-25643D01*
X89532Y-25644D01*
X89261Y-26050D01*
X89201Y-26194D01*
X89170Y-26349D01*
X89000Y-26349D01*
X88847Y-26380D01*
X88716Y-26466D01*
X88630Y-26597D01*
X88599Y-26750D01*
X88630Y-26903D01*
X88716Y-27034D01*
X88847Y-27120D01*
X89000Y-27151D01*
X89170Y-27151D01*
X89201Y-27306D01*
X89261Y-27450D01*
X89532Y-27856D01*
X89533Y-27857D01*
X89643Y-27967D01*
X89644Y-27968D01*
X90050Y-28238D01*
X90194Y-28298D01*
X90349Y-28328D01*
X90349Y-28500D01*
X90380Y-28653D01*
X90466Y-28784D01*
X90597Y-28870D01*
X90750Y-28901D01*
X90903Y-28870D01*
X91034Y-28784D01*
X91120Y-28653D01*
X91151Y-28500D01*
X91151Y-28329D01*
X91306Y-28299D01*
X91306Y-28298D01*
X91450Y-28239D01*
X91856Y-27968D01*
X91857Y-27967D01*
X91967Y-27857D01*
X91968Y-27856D01*
X92238Y-27450D01*
X92297Y-27306D01*
X92298Y-27306D01*
X92328Y-27151D01*
X92500Y-27151D01*
X92653Y-27120D01*
X92700Y-27089D01*
X92700Y-53660D01*
X92700Y-53660D01*
G37*
G54D20*
X92700Y-53660D02*
X92653Y-53630D01*
X92500Y-53599D01*
X92328Y-53599D01*
X92298Y-53444D01*
X92238Y-53300D01*
X92159Y-53181D01*
X92159Y-34131D01*
X92159Y-33869D01*
X92059Y-33627D01*
X91944Y-33512D01*
X91944Y-31427D01*
X91948Y-31410D01*
X91920Y-31239D01*
X91828Y-31092D01*
X86594Y-25518D01*
X86565Y-25473D01*
X86421Y-25377D01*
X86251Y-25343D01*
X65251Y-25306D01*
X65250Y-25306D01*
X38000Y-25306D01*
X37830Y-25340D01*
X37686Y-25436D01*
X37531Y-25591D01*
X37369Y-25591D01*
X37127Y-25691D01*
X37000Y-25818D01*
X36873Y-25691D01*
X36631Y-25591D01*
X36369Y-25591D01*
X36127Y-25691D01*
X35941Y-25877D01*
X35841Y-26119D01*
X35841Y-26281D01*
X30686Y-31436D01*
X30590Y-31580D01*
X30556Y-31750D01*
X30556Y-45000D01*
X30590Y-45170D01*
X30686Y-45314D01*
X32686Y-47314D01*
X32830Y-47410D01*
X33000Y-47444D01*
X34757Y-47444D01*
X34813Y-47500D01*
X34669Y-47644D01*
X34573Y-47875D01*
X34573Y-48125D01*
X34669Y-48356D01*
X34846Y-48533D01*
X35077Y-48629D01*
X35306Y-48629D01*
X35306Y-48991D01*
X35306Y-49000D01*
X35319Y-49067D01*
X35336Y-49161D01*
X35339Y-49165D01*
X35340Y-49170D01*
X35392Y-49248D01*
X35430Y-49307D01*
X35434Y-49311D01*
X35436Y-49314D01*
X35437Y-49315D01*
X38652Y-52668D01*
X34955Y-52668D01*
X34955Y-55213D01*
X39045Y-55213D01*
X39045Y-53077D01*
X41177Y-55301D01*
X41186Y-55314D01*
X41330Y-55410D01*
X41492Y-55442D01*
X41500Y-55444D01*
X42774Y-55444D01*
X42774Y-55514D01*
X42823Y-55634D01*
X42915Y-55726D01*
X43034Y-55776D01*
X43164Y-55776D01*
X43964Y-55776D01*
X44084Y-55727D01*
X44176Y-55635D01*
X44226Y-55516D01*
X44226Y-55444D01*
X44500Y-55444D01*
X45000Y-55444D01*
X47762Y-55444D01*
X47877Y-55559D01*
X48119Y-55659D01*
X48381Y-55659D01*
X48623Y-55559D01*
X48738Y-55444D01*
X58524Y-55444D01*
X58524Y-55514D01*
X58573Y-55634D01*
X58665Y-55726D01*
X58784Y-55776D01*
X58914Y-55776D01*
X59714Y-55776D01*
X59834Y-55727D01*
X59926Y-55635D01*
X59951Y-55573D01*
X60020Y-55560D01*
X60164Y-55464D01*
X60184Y-55444D01*
X60250Y-55444D01*
X60750Y-55444D01*
X63250Y-55444D01*
X65512Y-55444D01*
X65627Y-55559D01*
X65869Y-55659D01*
X66131Y-55659D01*
X66373Y-55559D01*
X66488Y-55444D01*
X70762Y-55444D01*
X70877Y-55559D01*
X71119Y-55659D01*
X71381Y-55659D01*
X71623Y-55559D01*
X71738Y-55444D01*
X79524Y-55444D01*
X79524Y-55514D01*
X79573Y-55634D01*
X79665Y-55726D01*
X79784Y-55776D01*
X79914Y-55776D01*
X80714Y-55776D01*
X80834Y-55727D01*
X80926Y-55635D01*
X80976Y-55516D01*
X80976Y-55444D01*
X85024Y-55444D01*
X85024Y-55514D01*
X85073Y-55634D01*
X85165Y-55726D01*
X85284Y-55776D01*
X85414Y-55776D01*
X86214Y-55776D01*
X86334Y-55727D01*
X86426Y-55635D01*
X86476Y-55516D01*
X86476Y-55386D01*
X86476Y-54786D01*
X86427Y-54666D01*
X86400Y-54639D01*
X86400Y-53962D01*
X86338Y-53900D01*
X85800Y-53900D01*
X85800Y-54338D01*
X85862Y-54400D01*
X86101Y-54399D01*
X86200Y-54399D01*
X86291Y-54361D01*
X86361Y-54291D01*
X86399Y-54199D01*
X86400Y-53962D01*
X86400Y-54639D01*
X86335Y-54574D01*
X86216Y-54524D01*
X86086Y-54524D01*
X85700Y-54524D01*
X85700Y-54338D01*
X85700Y-53900D01*
X85162Y-53900D01*
X85100Y-53962D01*
X85101Y-54199D01*
X85139Y-54291D01*
X85209Y-54361D01*
X85300Y-54399D01*
X85399Y-54399D01*
X85638Y-54400D01*
X85700Y-54338D01*
X85700Y-54524D01*
X85286Y-54524D01*
X85207Y-54556D01*
X80900Y-54556D01*
X80900Y-53962D01*
X80838Y-53900D01*
X80300Y-53900D01*
X80300Y-54338D01*
X80362Y-54400D01*
X80601Y-54399D01*
X80700Y-54399D01*
X80791Y-54361D01*
X80861Y-54291D01*
X80899Y-54199D01*
X80900Y-53962D01*
X80900Y-54556D01*
X80792Y-54556D01*
X80716Y-54524D01*
X80586Y-54524D01*
X80200Y-54524D01*
X80200Y-54338D01*
X80200Y-53900D01*
X79662Y-53900D01*
X79600Y-53962D01*
X79601Y-54199D01*
X79639Y-54291D01*
X79709Y-54361D01*
X79800Y-54399D01*
X79899Y-54399D01*
X80138Y-54400D01*
X80200Y-54338D01*
X80200Y-54524D01*
X79786Y-54524D01*
X79707Y-54556D01*
X71738Y-54556D01*
X71623Y-54441D01*
X71381Y-54341D01*
X71119Y-54341D01*
X70877Y-54441D01*
X70762Y-54556D01*
X66488Y-54556D01*
X66373Y-54441D01*
X66131Y-54341D01*
X65869Y-54341D01*
X65627Y-54441D01*
X65512Y-54556D01*
X63250Y-54556D01*
X62072Y-54556D01*
X62072Y-53137D01*
X62025Y-53050D01*
X61300Y-53050D01*
X61300Y-53565D01*
X61612Y-53565D01*
X61822Y-53489D01*
X61987Y-53338D01*
X62072Y-53137D01*
X62072Y-54556D01*
X61200Y-54556D01*
X61200Y-53565D01*
X61200Y-53050D01*
X60475Y-53050D01*
X60428Y-53137D01*
X60513Y-53338D01*
X60678Y-53489D01*
X60888Y-53565D01*
X61200Y-53565D01*
X61200Y-54556D01*
X60750Y-54556D01*
X60250Y-54556D01*
X60000Y-54556D01*
X59900Y-54556D01*
X59900Y-53962D01*
X59900Y-53738D01*
X59899Y-53501D01*
X59861Y-53409D01*
X59791Y-53339D01*
X59700Y-53301D01*
X59601Y-53301D01*
X59362Y-53300D01*
X59300Y-53362D01*
X59300Y-53800D01*
X59838Y-53800D01*
X59900Y-53738D01*
X59900Y-53962D01*
X59838Y-53900D01*
X59300Y-53900D01*
X59300Y-54338D01*
X59362Y-54400D01*
X59601Y-54399D01*
X59700Y-54399D01*
X59791Y-54361D01*
X59861Y-54291D01*
X59899Y-54199D01*
X59900Y-53962D01*
X59900Y-54556D01*
X59792Y-54556D01*
X59716Y-54524D01*
X59586Y-54524D01*
X59200Y-54524D01*
X59200Y-54338D01*
X59200Y-53900D01*
X59200Y-53800D01*
X59200Y-53362D01*
X59138Y-53300D01*
X58899Y-53301D01*
X58800Y-53301D01*
X58709Y-53339D01*
X58639Y-53409D01*
X58601Y-53501D01*
X58600Y-53738D01*
X58662Y-53800D01*
X59200Y-53800D01*
X59200Y-53900D01*
X58662Y-53900D01*
X58600Y-53962D01*
X58601Y-54199D01*
X58639Y-54291D01*
X58709Y-54361D01*
X58800Y-54399D01*
X58899Y-54399D01*
X59138Y-54400D01*
X59200Y-54338D01*
X59200Y-54524D01*
X58786Y-54524D01*
X58707Y-54556D01*
X53072Y-54556D01*
X53072Y-52137D01*
X53025Y-52050D01*
X52300Y-52050D01*
X52300Y-52565D01*
X52612Y-52565D01*
X52822Y-52489D01*
X52987Y-52338D01*
X53072Y-52137D01*
X53072Y-54556D01*
X52200Y-54556D01*
X52200Y-52565D01*
X52200Y-52050D01*
X51475Y-52050D01*
X51428Y-52137D01*
X51513Y-52338D01*
X51678Y-52489D01*
X51888Y-52565D01*
X52200Y-52565D01*
X52200Y-54556D01*
X48738Y-54556D01*
X48623Y-54441D01*
X48381Y-54341D01*
X48119Y-54341D01*
X47877Y-54441D01*
X47762Y-54556D01*
X45000Y-54556D01*
X44500Y-54556D01*
X44150Y-54556D01*
X44150Y-53962D01*
X44088Y-53900D01*
X43550Y-53900D01*
X43550Y-54338D01*
X43612Y-54400D01*
X43851Y-54399D01*
X43950Y-54399D01*
X44041Y-54361D01*
X44111Y-54291D01*
X44149Y-54199D01*
X44150Y-53962D01*
X44150Y-54556D01*
X44042Y-54556D01*
X43966Y-54524D01*
X43836Y-54524D01*
X43450Y-54524D01*
X43450Y-54338D01*
X43450Y-53900D01*
X42912Y-53900D01*
X42850Y-53962D01*
X42851Y-54199D01*
X42889Y-54291D01*
X42959Y-54361D01*
X43050Y-54399D01*
X43149Y-54399D01*
X43388Y-54400D01*
X43450Y-54338D01*
X43450Y-54524D01*
X43036Y-54524D01*
X42957Y-54556D01*
X41692Y-54556D01*
X37828Y-50526D01*
X37828Y-48137D01*
X37781Y-48050D01*
X37056Y-48050D01*
X37056Y-48565D01*
X37368Y-48565D01*
X37578Y-48489D01*
X37743Y-48338D01*
X37828Y-48137D01*
X37828Y-50526D01*
X36194Y-48822D01*
X36194Y-48481D01*
X36304Y-48370D01*
X36434Y-48489D01*
X36644Y-48565D01*
X36956Y-48565D01*
X36956Y-48100D01*
X36956Y-48050D01*
X36956Y-47950D01*
X37056Y-47950D01*
X37106Y-47950D01*
X37781Y-47950D01*
X37828Y-47863D01*
X37743Y-47662D01*
X37618Y-47547D01*
X37654Y-47533D01*
X37743Y-47444D01*
X38500Y-47444D01*
X38670Y-47410D01*
X38814Y-47314D01*
X39241Y-46886D01*
X39241Y-47131D01*
X39337Y-47364D01*
X39281Y-47341D01*
X39019Y-47341D01*
X38777Y-47441D01*
X38591Y-47627D01*
X38491Y-47869D01*
X38491Y-48131D01*
X38591Y-48373D01*
X38706Y-48488D01*
X38706Y-49900D01*
X38707Y-49907D01*
X38706Y-49917D01*
X38724Y-49994D01*
X38740Y-50070D01*
X38745Y-50077D01*
X38747Y-50085D01*
X38790Y-50145D01*
X38836Y-50214D01*
X38842Y-50218D01*
X38848Y-50226D01*
X42197Y-53327D01*
X42293Y-53385D01*
X42330Y-53410D01*
X42335Y-53411D01*
X42345Y-53417D01*
X42455Y-53435D01*
X42500Y-53444D01*
X42509Y-53444D01*
X42516Y-53445D01*
X42520Y-53444D01*
X42874Y-53444D01*
X42851Y-53501D01*
X42850Y-53738D01*
X42912Y-53800D01*
X43400Y-53800D01*
X43450Y-53800D01*
X43550Y-53800D01*
X43600Y-53800D01*
X44088Y-53800D01*
X44150Y-53738D01*
X44149Y-53501D01*
X44125Y-53444D01*
X45750Y-53444D01*
X49250Y-53444D01*
X49420Y-53410D01*
X49564Y-53314D01*
X50249Y-52629D01*
X50667Y-52629D01*
X50898Y-52533D01*
X51075Y-52356D01*
X51171Y-52125D01*
X51171Y-51944D01*
X51250Y-51944D01*
X51420Y-51910D01*
X51444Y-51893D01*
X51475Y-51950D01*
X52150Y-51950D01*
X52200Y-51950D01*
X52300Y-51950D01*
X52350Y-51950D01*
X53025Y-51950D01*
X53072Y-51863D01*
X52987Y-51662D01*
X52862Y-51547D01*
X52898Y-51533D01*
X52987Y-51444D01*
X54000Y-51444D01*
X54170Y-51410D01*
X54314Y-51314D01*
X54684Y-50944D01*
X57329Y-50944D01*
X57329Y-51125D01*
X57425Y-51356D01*
X57569Y-51500D01*
X57425Y-51644D01*
X57329Y-51875D01*
X57329Y-52125D01*
X57425Y-52356D01*
X57602Y-52533D01*
X57833Y-52629D01*
X58083Y-52629D01*
X58667Y-52629D01*
X58898Y-52533D01*
X59075Y-52356D01*
X59171Y-52125D01*
X59171Y-51875D01*
X59075Y-51644D01*
X58931Y-51500D01*
X59075Y-51356D01*
X59171Y-51125D01*
X59171Y-50944D01*
X59566Y-50944D01*
X59936Y-51314D01*
X60080Y-51410D01*
X60250Y-51444D01*
X60513Y-51444D01*
X60569Y-51500D01*
X60425Y-51644D01*
X60329Y-51875D01*
X60329Y-52125D01*
X60425Y-52356D01*
X60602Y-52533D01*
X60637Y-52547D01*
X60513Y-52662D01*
X60428Y-52863D01*
X60475Y-52950D01*
X61150Y-52950D01*
X61200Y-52950D01*
X61300Y-52950D01*
X61350Y-52950D01*
X62025Y-52950D01*
X62072Y-52863D01*
X61987Y-52662D01*
X61862Y-52547D01*
X61898Y-52533D01*
X62075Y-52356D01*
X62171Y-52125D01*
X62171Y-51875D01*
X62075Y-51644D01*
X61931Y-51500D01*
X61987Y-51444D01*
X62042Y-51444D01*
X63158Y-52784D01*
X63175Y-52797D01*
X63186Y-52814D01*
X63238Y-52849D01*
X63293Y-52893D01*
X63313Y-52899D01*
X63329Y-52909D01*
X63329Y-53125D01*
X63425Y-53356D01*
X63602Y-53533D01*
X63833Y-53629D01*
X64083Y-53629D01*
X64667Y-53629D01*
X64898Y-53533D01*
X64987Y-53444D01*
X67000Y-53444D01*
X67170Y-53410D01*
X67314Y-53314D01*
X68446Y-52181D01*
X68513Y-52338D01*
X68678Y-52489D01*
X68888Y-52565D01*
X69200Y-52565D01*
X69200Y-52100D01*
X69200Y-52050D01*
X69200Y-51950D01*
X69300Y-51950D01*
X69300Y-52050D01*
X69300Y-52100D01*
X69300Y-52565D01*
X69612Y-52565D01*
X69806Y-52494D01*
X69806Y-52512D01*
X69691Y-52627D01*
X69591Y-52869D01*
X69591Y-53131D01*
X69691Y-53373D01*
X69877Y-53559D01*
X70119Y-53659D01*
X70381Y-53659D01*
X70623Y-53559D01*
X70809Y-53373D01*
X70909Y-53131D01*
X70909Y-52869D01*
X70809Y-52627D01*
X70694Y-52512D01*
X70694Y-52432D01*
X70750Y-52444D01*
X71513Y-52444D01*
X71602Y-52533D01*
X71806Y-52617D01*
X71806Y-53500D01*
X71840Y-53670D01*
X71936Y-53814D01*
X72080Y-53910D01*
X72250Y-53944D01*
X74513Y-53944D01*
X74602Y-54033D01*
X74833Y-54129D01*
X75083Y-54129D01*
X75667Y-54129D01*
X75898Y-54033D01*
X76075Y-53856D01*
X76171Y-53625D01*
X76171Y-53444D01*
X76591Y-53444D01*
X76591Y-53631D01*
X76691Y-53873D01*
X76877Y-54059D01*
X77119Y-54159D01*
X77381Y-54159D01*
X77623Y-54059D01*
X77635Y-54046D01*
X77833Y-54129D01*
X78083Y-54129D01*
X78667Y-54129D01*
X78898Y-54033D01*
X79075Y-53856D01*
X79171Y-53625D01*
X79171Y-53444D01*
X79624Y-53444D01*
X79601Y-53501D01*
X79600Y-53738D01*
X79662Y-53800D01*
X80150Y-53800D01*
X80200Y-53800D01*
X80300Y-53800D01*
X80350Y-53800D01*
X80838Y-53800D01*
X80900Y-53738D01*
X80899Y-53629D01*
X81083Y-53629D01*
X81667Y-53629D01*
X81898Y-53533D01*
X82075Y-53356D01*
X82171Y-53125D01*
X82171Y-52875D01*
X82075Y-52644D01*
X81931Y-52500D01*
X82075Y-52356D01*
X82171Y-52125D01*
X82171Y-51875D01*
X82075Y-51644D01*
X81931Y-51500D01*
X82075Y-51356D01*
X82171Y-51125D01*
X82171Y-50875D01*
X82075Y-50644D01*
X81931Y-50500D01*
X82075Y-50356D01*
X82171Y-50125D01*
X82171Y-49875D01*
X82075Y-49644D01*
X81898Y-49467D01*
X81862Y-49452D01*
X81987Y-49338D01*
X82072Y-49137D01*
X82025Y-49050D01*
X81350Y-49050D01*
X81300Y-49050D01*
X81200Y-49050D01*
X81150Y-49050D01*
X80475Y-49050D01*
X80428Y-49137D01*
X80513Y-49338D01*
X80637Y-49452D01*
X80602Y-49467D01*
X80513Y-49556D01*
X80184Y-49556D01*
X79314Y-48686D01*
X79171Y-48590D01*
X79171Y-48375D01*
X79075Y-48144D01*
X78898Y-47967D01*
X78862Y-47952D01*
X78973Y-47850D01*
X79434Y-48311D01*
X79436Y-48314D01*
X79580Y-48410D01*
X79749Y-48444D01*
X79749Y-48443D01*
X79750Y-48444D01*
X80513Y-48444D01*
X80602Y-48533D01*
X80637Y-48547D01*
X80513Y-48662D01*
X80428Y-48863D01*
X80475Y-48950D01*
X81150Y-48950D01*
X81200Y-48950D01*
X81300Y-48950D01*
X81350Y-48950D01*
X82025Y-48950D01*
X82072Y-48863D01*
X81987Y-48662D01*
X81862Y-48547D01*
X81898Y-48533D01*
X81987Y-48444D01*
X82750Y-48444D01*
X82920Y-48410D01*
X83064Y-48314D01*
X83219Y-48159D01*
X83381Y-48159D01*
X83428Y-48139D01*
X83513Y-48338D01*
X83637Y-48452D01*
X83602Y-48467D01*
X83425Y-48644D01*
X83329Y-48875D01*
X83329Y-49125D01*
X83425Y-49356D01*
X83569Y-49500D01*
X83425Y-49644D01*
X83329Y-49875D01*
X83329Y-50125D01*
X83425Y-50356D01*
X83569Y-50500D01*
X83425Y-50644D01*
X83329Y-50875D01*
X83329Y-51125D01*
X83425Y-51356D01*
X83569Y-51500D01*
X83425Y-51644D01*
X83329Y-51875D01*
X83329Y-52125D01*
X83425Y-52356D01*
X83569Y-52500D01*
X83425Y-52644D01*
X83329Y-52875D01*
X83329Y-53125D01*
X83425Y-53356D01*
X83602Y-53533D01*
X83833Y-53629D01*
X84083Y-53629D01*
X84667Y-53629D01*
X84898Y-53533D01*
X84987Y-53444D01*
X85124Y-53444D01*
X85101Y-53501D01*
X85100Y-53738D01*
X85162Y-53800D01*
X85650Y-53800D01*
X85700Y-53800D01*
X85800Y-53800D01*
X85850Y-53800D01*
X86338Y-53800D01*
X86400Y-53738D01*
X86399Y-53501D01*
X86375Y-53444D01*
X87500Y-53444D01*
X87670Y-53410D01*
X87814Y-53314D01*
X91813Y-49315D01*
X91813Y-49314D01*
X91814Y-49314D01*
X91910Y-49170D01*
X91943Y-49001D01*
X91944Y-49000D01*
X91944Y-34488D01*
X92059Y-34373D01*
X92159Y-34131D01*
X92159Y-53181D01*
X91968Y-52894D01*
X91967Y-52893D01*
X91857Y-52783D01*
X91856Y-52782D01*
X91450Y-52511D01*
X91306Y-52451D01*
X91151Y-52420D01*
X91151Y-52250D01*
X91120Y-52097D01*
X91034Y-51966D01*
X90903Y-51880D01*
X90750Y-51849D01*
X90597Y-51880D01*
X90466Y-51966D01*
X90380Y-52097D01*
X90349Y-52250D01*
X90349Y-52421D01*
X90194Y-52452D01*
X90050Y-52512D01*
X89644Y-52782D01*
X89643Y-52783D01*
X89533Y-52893D01*
X89532Y-52894D01*
X89261Y-53300D01*
X89201Y-53444D01*
X89170Y-53599D01*
X89000Y-53599D01*
X88847Y-53630D01*
X88716Y-53716D01*
X88630Y-53847D01*
X88599Y-54000D01*
X88630Y-54153D01*
X88716Y-54284D01*
X88847Y-54370D01*
X89000Y-54401D01*
X89170Y-54401D01*
X89201Y-54556D01*
X89261Y-54700D01*
X89532Y-55106D01*
X89533Y-55107D01*
X89643Y-55217D01*
X89644Y-55218D01*
X90050Y-55488D01*
X90194Y-55548D01*
X90349Y-55578D01*
X90349Y-55750D01*
X90380Y-55903D01*
X90410Y-55950D01*
X34699Y-55950D01*
X34699Y-51251D01*
X34699Y-48553D01*
X30701Y-48553D01*
X30701Y-51251D01*
X34699Y-51251D01*
X34699Y-55950D01*
X32339Y-55950D01*
X32370Y-55903D01*
X32401Y-55750D01*
X32401Y-55579D01*
X32556Y-55549D01*
X32556Y-55548D01*
X32700Y-55489D01*
X33106Y-55218D01*
X33107Y-55217D01*
X33217Y-55107D01*
X33218Y-55106D01*
X33488Y-54700D01*
X33547Y-54556D01*
X33548Y-54556D01*
X33578Y-54401D01*
X33750Y-54401D01*
X33903Y-54370D01*
X34034Y-54284D01*
X34120Y-54153D01*
X34151Y-54000D01*
X34120Y-53847D01*
X34034Y-53716D01*
X33903Y-53630D01*
X33750Y-53599D01*
X33578Y-53599D01*
X33548Y-53444D01*
X33488Y-53300D01*
X33218Y-52894D01*
X33217Y-52893D01*
X33107Y-52783D01*
X33106Y-52782D01*
X32700Y-52511D01*
X32556Y-52451D01*
X32401Y-52420D01*
X32401Y-52250D01*
X32370Y-52097D01*
X32284Y-51966D01*
X32153Y-51880D01*
X32000Y-51849D01*
X31847Y-51880D01*
X31716Y-51966D01*
X31630Y-52097D01*
X31599Y-52250D01*
X31599Y-52421D01*
X31444Y-52452D01*
X31300Y-52512D01*
X30894Y-52782D01*
X30893Y-52783D01*
X30783Y-52893D01*
X30782Y-52894D01*
X30511Y-53300D01*
X30451Y-53444D01*
X30420Y-53599D01*
X30250Y-53599D01*
X30097Y-53630D01*
X30050Y-53660D01*
X30050Y-27089D01*
X30097Y-27120D01*
X30250Y-27151D01*
X30420Y-27151D01*
X30451Y-27306D01*
X30511Y-27450D01*
X30782Y-27856D01*
X30783Y-27857D01*
X30893Y-27967D01*
X30894Y-27968D01*
X31300Y-28238D01*
X31444Y-28298D01*
X31599Y-28328D01*
X31599Y-28500D01*
X31630Y-28653D01*
X31716Y-28784D01*
X31847Y-28870D01*
X32000Y-28901D01*
X32153Y-28870D01*
X32284Y-28784D01*
X32370Y-28653D01*
X32401Y-28500D01*
X32401Y-28329D01*
X32556Y-28299D01*
X32556Y-28298D01*
X32700Y-28239D01*
X33106Y-27968D01*
X33107Y-27967D01*
X33217Y-27857D01*
X33218Y-27856D01*
X33488Y-27450D01*
X33547Y-27306D01*
X33548Y-27306D01*
X33578Y-27151D01*
X33750Y-27151D01*
X33903Y-27120D01*
X34034Y-27034D01*
X34120Y-26903D01*
X34151Y-26750D01*
X34120Y-26597D01*
X34034Y-26466D01*
X33903Y-26380D01*
X33750Y-26349D01*
X33578Y-26349D01*
X33548Y-26194D01*
X33488Y-26050D01*
X33218Y-25644D01*
X33217Y-25643D01*
X33107Y-25533D01*
X33106Y-25532D01*
X32700Y-25261D01*
X32556Y-25201D01*
X32401Y-25170D01*
X32401Y-25000D01*
X32370Y-24847D01*
X32339Y-24800D01*
X90410Y-24800D01*
X90380Y-24847D01*
X90349Y-25000D01*
X90349Y-25171D01*
X90194Y-25202D01*
X90050Y-25262D01*
X89644Y-25532D01*
X89643Y-25533D01*
X89533Y-25643D01*
X89532Y-25644D01*
X89261Y-26050D01*
X89201Y-26194D01*
X89170Y-26349D01*
X89000Y-26349D01*
X88847Y-26380D01*
X88716Y-26466D01*
X88630Y-26597D01*
X88599Y-26750D01*
X88630Y-26903D01*
X88716Y-27034D01*
X88847Y-27120D01*
X89000Y-27151D01*
X89170Y-27151D01*
X89201Y-27306D01*
X89261Y-27450D01*
X89532Y-27856D01*
X89533Y-27857D01*
X89643Y-27967D01*
X89644Y-27968D01*
X90050Y-28238D01*
X90194Y-28298D01*
X90349Y-28328D01*
X90349Y-28500D01*
X90380Y-28653D01*
X90466Y-28784D01*
X90597Y-28870D01*
X90750Y-28901D01*
X90903Y-28870D01*
X91034Y-28784D01*
X91120Y-28653D01*
X91151Y-28500D01*
X91151Y-28329D01*
X91306Y-28299D01*
X91306Y-28298D01*
X91450Y-28239D01*
X91856Y-27968D01*
X91857Y-27967D01*
X91967Y-27857D01*
X91968Y-27856D01*
X92238Y-27450D01*
X92297Y-27306D01*
X92298Y-27306D01*
X92328Y-27151D01*
X92500Y-27151D01*
X92653Y-27120D01*
X92700Y-27089D01*
X92700Y-53660D01*
M02*
